<?xml version="1.0" encoding="UTF-8"?>
<svg width="14px" height="22px" viewBox="0 0 14 22" version="1.1" xmlns="http://www.w3.org/2000/svg" xmlns:xlink="http://www.w3.org/1999/xlink">
    <!-- Generator: Sketch 42 (36781) - http://www.bohemiancoding.com/sketch -->
    <title>Fill 1872</title>
    <desc>Created with Sketch.</desc>
    <defs></defs>
    <g id="Page-1" stroke="none" stroke-width="1" fill="none" fill-rule="evenodd">
        <path d="M6.39933958,15.2000919 C6.39933958,15.2000919 7.15833958,14.6620919 7.44733958,14.4910919 C7.73133958,14.3300919 8.03533958,14.5340919 8.09633958,14.7550919 C8.16333958,14.9710919 8.24033958,15.4890919 8.21433958,15.8760919 C8.19133958,16.4400919 8.00333958,16.6940919 7.86733958,16.7190919 C7.73133958,16.7430919 7.48033958,16.6790919 7.07633958,16.5270919 C6.66033958,16.3760919 6.40933958,16.3160919 6.19833958,15.9690919 C5.98733958,15.6310919 6.39933958,15.2000919 6.39933958,15.2000919 Z M4.35833958,9.2410919 C4.43233958,8.8790919 4.57533958,8.7340919 4.69433958,8.6000919 C4.99933958,8.2530919 5.43533958,8.0080919 5.81633958,8.1100919 C6.19833958,8.2030919 6.93333958,8.5070919 7.28533958,8.6740919 C7.64033958,8.8450919 7.92833958,9.0310919 8.10333958,9.1580919 C8.27333958,9.2820919 8.44133958,9.6540919 8.19133958,10.0100919 C7.93633958,10.3640919 7.57433958,10.5640919 7.31933958,10.7160919 C7.06533958,10.8620919 6.47633958,10.9210919 5.80133958,10.9300919 C5.12633958,10.9370919 4.76833958,10.7940919 4.48533958,10.4910919 C4.19633958,10.1860919 4.27933958,9.6040919 4.35833958,9.2410919 Z M10.9223396,10.1860919 C11.1933396,10.1610919 11.4333396,10.2610919 11.8693396,10.4220919 C12.3093396,10.5740919 12.6723396,10.8620919 12.6473396,11.1900919 C12.6123396,11.5290919 12.5293396,11.8420919 12.3753396,12.0620919 C12.2313396,12.2720919 11.7013396,12.4150919 11.4123396,12.3650919 C11.1333396,12.3120919 10.8903396,12.0680919 10.5623396,11.7050919 C10.2383396,11.3430919 10.1463396,11.0540919 10.1463396,10.8870919 C10.1463396,10.7260919 10.1803396,10.6860919 10.2233396,10.6070919 C10.3273396,10.3980919 10.6633396,10.2020919 10.9223396,10.1860919 Z M6.78733958,22.1140919 C7.16833958,21.8690919 7.20133958,21.7660919 7.94533958,21.8200919 C8.25033958,21.8350919 8.43533958,21.6740919 8.95633958,21.4720919 C9.25233958,21.2620919 9.44633958,21.2440919 9.87633958,20.8060919 C10.2383396,20.4260919 10.5703396,20.0710919 10.7893396,19.4360919 C11.0063396,18.8150919 11.4123396,17.9430919 11.6153396,17.4190919 C11.8193396,16.8890919 12.1973396,15.8760919 12.5943396,15.1570919 C12.9903396,14.4500919 13.2643396,13.5950919 13.4893396,12.9880919 C13.7243396,12.3710919 14.3183396,11.3610919 14.6063396,10.2460919 C14.8843396,9.1390919 14.9673396,7.7630919 14.8503396,6.8930919 C14.7333396,6.0340919 14.2143396,4.7420919 13.9213396,4.1100919 C13.6273396,3.4740919 13.3203396,2.2500919 12.4413396,1.7550919 C11.5653396,1.2550919 10.6893396,1.0510919 9.81033958,1.0110919 C8.92433958,0.961091895 8.21433958,1.0110919 7.42733958,1.1720919 C6.65333958,1.3390919 5.46933958,2.0060919 5.01433958,2.4360919 C4.54133958,2.8680919 3.21733958,4.0470919 2.88933958,4.7230919 C2.54933958,5.4080919 1.92533958,7.0120919 1.72233958,7.7480919 C1.52633958,8.4730919 1.24133958,9.8640919 1.08133958,10.8520919 C0.911339578,11.8230919 0.513339578,13.4030919 0.314339578,14.0700919 C0.117339578,14.7260919 -0.153660422,15.3960919 -0.153660422,15.7240919 C-0.153660422,16.0620919 -0.204376955,18.4551261 0.772997241,19.309558" id="Fill-1872" fill="#000000" transform="translate(7.373845, 11.553301) rotate(-25.000000) translate(-7.373845, -11.553301) "></path>
    </g>
</svg>