<?xml version="1.0" encoding="UTF-8"?>
<svg width="118px" height="143px" viewBox="0 0 118 143" version="1.1" xmlns="http://www.w3.org/2000/svg" xmlns:xlink="http://www.w3.org/1999/xlink">
    <!-- Generator: Sketch 42 (36781) - http://www.bohemiancoding.com/sketch -->
    <title>Group</title>
    <desc>Created with Sketch.</desc>
    <defs></defs>
    <g id="Page-1" stroke="none" stroke-width="1" fill="none" fill-rule="evenodd">
        <g id="Group" fill="#000000">
            <path d="M36.3757,102.0335 C37.9987,102.0335 38.0617,98.8085 38.0617,97.8185 C38.0617,96.8275 37.9987,93.6015 36.3757,93.6015 C34.7517,93.6015 34.6887,96.8275 34.6887,97.8185 C34.6887,98.8085 34.7517,102.0335 36.3757,102.0335 M36.3757,89.5975 C40.7387,89.5975 42.4467,93.9385 42.4467,97.8185 C42.4467,101.6965 40.7387,106.0395 36.3757,106.0395 C32.0107,106.0395 30.3047,101.6965 30.3047,97.8185 C30.3047,93.9385 32.0107,89.5975 36.3757,89.5975" id="Fill-1845"></path>
            <path d="M42.9313,89.8708 L47.0213,89.8708 L50.4573,99.4418 L50.4993,99.3988 C50.3303,97.5648 50.0143,95.7528 50.0143,93.9188 L50.0143,89.8708 L54.1463,89.8708 L54.1463,105.7658 L50.0143,105.7658 L46.8103,96.5958 L46.7693,96.6368 C46.8743,98.1338 47.0633,99.6108 47.0633,101.1058 L47.0633,105.7658 L42.9313,105.7658 L42.9313,89.8708 Z" id="Fill-1847"></path>
            <polygon id="Fill-1849" points="60.619 105.7654 60.619 93.7494 58.258 93.7494 58.258 89.8704 67.387 89.8704 67.387 93.7494 64.92 93.7494 64.92 105.7654"></polygon>
            <polygon id="Fill-1851" points="74.3013 105.7654 74.3013 99.3144 72.2563 99.3144 72.2563 105.7654 67.9563 105.7654 67.9563 89.8704 72.2563 89.8704 72.2563 95.5634 74.3013 95.5634 74.3013 89.8704 78.6013 89.8704 78.6013 105.7654"></polygon>
            <polygon id="Fill-1853" points="79.5721 89.8708 87.5611 89.8708 87.5611 93.6228 83.8721 93.6228 83.8721 95.8368 87.1821 95.8368 87.1821 99.5878 83.8721 99.5878 83.8721 102.0128 87.5611 102.0128 87.5611 105.7658 79.5721 105.7658"></polygon>
            <path d="M22.4192,115.3237 C23.5572,115.3237 24.1692,114.3327 24.1692,113.2997 C24.1692,111.9087 23.3262,111.3187 22.1462,111.3817 L22.1462,115.3027 L22.4192,115.3237 Z M24.5062,123.8597 L22.1242,117.2417 L22.0822,117.2837 C22.1032,118.0647 22.1462,118.8437 22.1462,119.6237 L22.1462,123.8597 L17.8442,123.8597 L17.8442,107.9667 L21.9972,107.9667 C25.7292,107.9667 28.4272,109.0637 28.4272,113.2577 C28.4272,115.0077 27.6692,116.5667 25.9612,117.2417 L29.1652,123.8597 L24.5062,123.8597 Z" id="Fill-1855"></path>
            <path d="M39.6849,107.9669 L39.6849,118.3589 C39.6849,120.2759 39.2629,124.1359 34.2889,124.1359 C29.3129,124.1359 28.8919,120.2759 28.8919,118.3589 L28.8919,107.9669 L33.1919,107.9669 L33.1919,117.9579 C33.1919,118.3809 33.1709,118.9279 33.2979,119.3499 C33.4239,119.7919 33.6979,120.1299 34.2889,120.1299 C34.8989,120.1299 35.1739,119.7919 35.2789,119.3709 C35.4049,118.9279 35.3839,118.3809 35.3839,117.9799 L35.3839,107.9669 L39.6849,107.9669 Z" id="Fill-1857"></path>
            <path d="M40.5289,107.9669 L44.6189,107.9669 L48.0549,117.5379 L48.0969,117.4949 C47.9269,115.6609 47.6119,113.8479 47.6119,112.0149 L47.6119,107.9669 L51.7439,107.9669 L51.7439,123.8599 L47.6119,123.8599 L44.4079,114.6919 L44.3649,114.7329 C44.4709,116.2299 44.6609,117.7059 44.6609,119.2019 L44.6609,123.8599 L40.5289,123.8599 L40.5289,107.9669 Z" id="Fill-1859"></path>
            <path d="M56.6559,118.5066 C57.2469,119.3926 58.2799,120.2766 59.3759,120.2766 C59.9659,120.2766 60.6399,119.9196 60.6399,119.2236 C60.6399,118.8446 60.5149,118.5696 60.3029,118.3386 C60.1129,118.1056 59.8609,117.9166 59.5859,117.7266 C58.7429,117.0726 58.0059,116.4616 57.4569,115.7036 C56.9299,114.9646 56.5939,114.0796 56.5939,112.9206 C56.5939,111.0656 57.7739,107.6926 61.4409,107.6926 C62.4749,107.6926 63.5909,108.0086 64.4979,108.4936 L64.4979,113.3206 C63.9919,112.5196 62.9589,111.6146 61.9679,111.6146 C61.4629,111.6146 60.8509,111.9726 60.8509,112.5826 C60.8509,112.9206 61.0399,113.2156 61.2729,113.4686 C61.5049,113.7216 61.8209,113.9316 62.0529,114.1216 C62.9589,114.7546 63.6759,115.3446 64.1609,116.0616 C64.6669,116.7776 64.9409,117.6206 64.9409,118.8226 C64.9409,121.7746 62.8749,124.1356 59.8809,124.1356 C58.7859,124.1356 57.6679,123.9026 56.6559,123.4806 L56.6559,118.5066 Z" id="Fill-1861"></path>
            <polygon id="Fill-1863" points="65.426 123.86 69.727 123.86 69.727 107.967 65.426 107.967"></polygon>
            <path d="M70.6751,107.9669 L74.7641,107.9669 L78.2001,117.5379 L78.2421,117.4949 C78.0741,115.6609 77.7581,113.8479 77.7581,112.0149 L77.7581,107.9669 L81.8891,107.9669 L81.8891,123.8599 L77.7581,123.8599 L74.5541,114.6919 L74.5121,114.7329 C74.6161,116.2299 74.8071,117.7059 74.8071,119.2019 L74.8071,123.8599 L70.6751,123.8599 L70.6751,107.9669 Z" id="Fill-1865"></path>
            <path d="M91.5458,112.6261 C90.9348,112.0351 90.4288,111.6971 89.5428,111.6971 C87.3078,111.6971 86.7598,114.1641 86.7598,115.9131 C86.7598,117.7691 87.3078,120.1291 89.4588,120.1291 C90.4288,120.1291 91.0398,119.7501 91.7358,119.1181 L91.4828,123.5651 C90.6178,123.9451 89.8388,124.1351 88.8898,124.1351 C85.3698,124.1351 82.3758,121.4571 82.3758,116.0191 C82.3758,108.8941 87.2668,107.6921 89.3538,107.6921 C90.1128,107.6921 90.8498,107.7981 91.5458,108.0721 L91.5458,112.6261 Z" id="Fill-1866"></path>
            <polygon id="Fill-1867" points="92.5149 107.9669 100.5049 107.9669 100.5049 111.7189 96.8169 111.7189 96.8169 113.9319 100.1259 113.9319 100.1259 117.6839 96.8169 117.6839 96.8169 120.1079 100.5049 120.1079 100.5049 123.8599 92.5149 123.8599"></polygon>
            <path d="M39.517,131.2896 C39.517,128.1066 41.668,125.7886 44.892,125.7886 C47.906,125.7886 49.909,128.0656 49.909,130.9946 C49.909,133.9876 47.822,136.4976 45.756,138.3936 L45.798,138.4366 C46.516,138.3936 47.232,138.2886 47.948,138.2886 L49.72,138.2886 L49.72,141.9566 L38.758,141.9566 L42.952,136.3696 C44.133,134.7896 45.715,132.7876 45.715,130.7426 C45.715,130.1306 45.462,129.3296 44.724,129.3296 C43.795,129.3296 43.691,130.6156 43.691,131.2686 L43.691,131.8596 L39.538,131.8596 L39.517,131.2896 Z" id="Fill-1868"></path>
            <path d="M54.105,134.0089 C54.105,135.8019 54.19,138.5629 55.496,138.5629 C56.803,138.5629 56.888,135.8019 56.888,134.0089 C56.888,132.2179 56.803,129.4549 55.496,129.4549 C54.19,129.4549 54.105,132.2179 54.105,134.0089 M61.124,134.0089 C61.124,137.5289 59.923,142.2309 55.496,142.2309 C51.069,142.2309 49.868,137.5289 49.868,134.0089 C49.868,130.4889 51.069,125.7879 55.496,125.7879 C59.923,125.7879 61.124,130.4889 61.124,134.0089" id="Fill-1869"></path>
            <polygon id="Fill-1870" points="62.5588 141.9562 62.5588 129.7302 60.8508 129.7302 60.8508 126.0622 66.8598 126.0622 66.8598 141.9562"></polygon>
            <path d="M72.6144,134.0089 C72.6144,135.8019 72.6994,138.5629 74.0064,138.5629 C75.3124,138.5629 75.3974,135.8019 75.3974,134.0089 C75.3974,132.2179 75.3124,129.4549 74.0064,129.4549 C72.6994,129.4549 72.6144,132.2179 72.6144,134.0089 M79.6344,134.0089 C79.6344,137.5289 78.4324,142.2309 74.0064,142.2309 C69.5794,142.2309 68.3774,137.5289 68.3774,134.0089 C68.3774,130.4889 69.5794,125.7879 74.0064,125.7879 C78.4324,125.7879 79.6344,130.4889 79.6344,134.0089" id="Fill-1871"></path>
            <path d="M68.7527,15.4753 C68.5417,15.1373 68.7597,14.8833 68.9537,14.7063 C69.1547,14.5293 69.7127,14.1683 70.0017,13.9973 C70.2857,13.8363 70.5897,14.0403 70.6507,14.2613 C70.7177,14.4773 70.7947,14.9953 70.7687,15.3823 C70.7457,15.9463 70.5577,16.2003 70.4217,16.2253 C70.2857,16.2493 70.0347,16.1853 69.6307,16.0333 C69.2147,15.8823 68.9637,15.8223 68.7527,15.4753 M67.0397,9.9973 C66.7507,9.6923 66.8337,9.1103 66.9127,8.7473 C66.9867,8.3853 67.1297,8.2403 67.2487,8.1063 C67.5537,7.7593 67.9897,7.5143 68.3707,7.6163 C68.7527,7.7093 69.4877,8.0133 69.8397,8.1803 C70.1947,8.3513 70.4827,8.5373 70.6577,8.6643 C70.8277,8.7883 70.9957,9.1603 70.7457,9.5163 C70.4907,9.8703 70.1287,10.0703 69.8737,10.2223 C69.6197,10.3683 69.0307,10.4273 68.3557,10.4363 C67.6807,10.4433 67.3227,10.3003 67.0397,9.9973 M72.7777,10.1133 C72.8817,9.9043 73.2177,9.7083 73.4767,9.6923 C73.7477,9.6673 73.9877,9.7673 74.4237,9.9283 C74.8637,10.0803 75.2267,10.3683 75.2017,10.6963 C75.1667,11.0353 75.0837,11.3483 74.9297,11.5683 C74.7857,11.7783 74.2557,11.9213 73.9667,11.8713 C73.6877,11.8183 73.4447,11.5743 73.1167,11.2113 C72.7927,10.8493 72.7007,10.5603 72.7007,10.3933 C72.7007,10.2323 72.7347,10.1923 72.7777,10.1133 M117.1867,85.6833 C116.7757,85.5663 116.4427,85.4973 115.7277,85.8753 C115.0187,86.2573 114.0827,87.1233 113.2707,87.8513 C112.4607,88.5863 111.7187,89.1013 111.0667,89.3283 C110.4207,89.5653 109.1767,89.8263 108.4917,90.0303 C107.8167,90.2243 107.4467,90.3743 106.8417,90.3243 C106.2237,90.2813 105.9437,90.2423 105.4457,90.3593 C105.2767,90.1153 104.3827,89.2023 103.9027,88.3323 C103.4187,87.4713 100.7937,83.7403 99.6287,81.7483 C98.4727,79.7553 95.4327,74.8183 94.3717,72.9693 C93.3077,71.1273 92.2367,69.1693 91.9827,68.4523 C91.7277,67.7433 91.3847,67.1613 91.0557,66.6473 C90.7227,66.1323 90.2277,65.9213 89.8897,65.7343 C89.5597,65.5503 89.0287,65.1343 87.7687,64.2763 C86.5117,63.4053 85.5237,62.6613 84.5687,62.0453 C84.6377,61.5643 84.2137,61.2273 84.0287,61.0303 C83.8537,60.8493 83.2607,60.5763 82.6187,60.3073 C81.9877,60.0283 81.3367,59.6313 80.4427,59.1943 C80.0187,58.8033 79.5127,58.6703 79.5127,58.6703 C79.5127,58.6703 79.3637,58.4743 78.7567,57.9513 C78.1377,57.4263 76.4937,56.5073 75.8747,56.1383 C75.2687,55.7673 74.4557,55.1403 73.9877,54.7183 C73.5117,54.2983 72.6347,53.7493 72.3647,53.5793 C72.4047,52.9713 72.4487,52.2203 72.4737,51.4683 C72.4967,50.7243 72.4047,49.3423 72.2877,48.2453 C72.1617,47.1383 72.1197,46.1943 72.1847,45.4423 C72.2447,44.6823 72.3917,43.9983 72.4407,43.5163 C72.4907,43.0463 72.5677,42.4203 72.7087,41.8963 C72.8467,41.3723 72.8937,41.0273 73.0717,40.0993 C73.5717,40.3583 74.7717,40.8773 75.2347,40.9513 C75.6997,41.0273 76.3407,41.1953 76.7977,41.2733 C77.2587,41.3573 77.8937,41.4503 77.8937,41.4503 L78.0857,41.1803 C78.0857,41.1803 78.7357,41.4313 79.8007,41.7783 C80.8657,42.1263 81.6937,42.3763 82.0387,42.5223 C82.3847,42.6733 82.6717,42.8853 83.2357,42.8073 C83.7957,42.7243 84.5627,42.3763 86.1597,41.8133 C87.7517,41.2453 89.9887,40.0153 92.2257,38.2433 C94.4627,36.4703 96.0757,35.0753 96.8697,34.5273 C97.6727,33.9783 98.5667,33.1943 100.0097,32.1223 C101.4547,31.0413 102.0947,30.6103 102.5857,29.9443 C103.0557,29.2773 103.0907,28.8463 103.0907,28.2393 C103.0907,27.6233 103.1747,27.0563 102.8787,26.5263 C102.4737,26.1603 101.7167,25.3513 101.0237,25.0973 C100.3237,24.8523 99.6397,24.9803 99.1647,25.4343 C98.7937,25.6643 98.5327,26.0763 98.1617,26.4923 C97.8667,26.6103 97.4837,26.9733 97.4157,27.5393 C97.3507,28.1043 97.4497,28.8273 97.6547,29.6653 C96.9607,30.2473 96.6747,30.6443 95.5447,31.2023 C94.4117,31.7653 90.1157,33.3113 88.1477,34.2573 C86.1727,35.2113 84.5287,35.9613 83.9207,36.1823 C83.3137,36.4073 82.8897,36.2313 82.4337,36.1323 C81.9767,36.0213 81.3477,35.7763 80.9397,35.6423 C80.9897,35.5403 81.0427,35.3893 80.9747,35.3053 C80.7977,35.1003 80.1307,34.6973 79.4297,34.2143 C78.7357,33.7333 78.1207,33.0333 77.8097,32.8633 C77.4877,32.7053 76.7447,32.2483 76.2637,32.0693 C75.7847,31.8843 75.2017,31.5903 74.7367,30.9053 C74.2707,30.2283 73.6877,29.2193 73.1407,28.2213 C72.9627,27.4123 72.3647,26.6253 71.9837,26.1603 C71.6027,25.7043 70.8877,24.3563 70.6097,23.6623 C70.3217,22.9613 70.0747,22.2513 69.3417,21.6203 C69.7227,21.3753 69.7557,21.2723 70.4997,21.3263 C70.8047,21.3413 70.9897,21.1803 71.5107,20.9783 C71.8067,20.7683 72.0007,20.7503 72.4307,20.3123 C72.7927,19.9323 73.1247,19.5773 73.3437,18.9423 C73.5607,18.3213 73.9667,17.4493 74.1697,16.9253 C74.3737,16.3953 74.7517,15.3823 75.1487,14.6633 C75.5447,13.9563 75.8187,13.1013 76.0437,12.4943 C76.2787,11.8773 76.8727,10.8673 77.1607,9.7523 C77.4387,8.6453 77.5217,7.2693 77.4047,6.3993 C77.2877,5.5403 76.7687,4.2483 76.4757,3.6163 C76.1817,2.9803 75.8747,1.7563 74.9957,1.2613 C74.1197,0.7613 73.2437,0.5573 72.3647,0.5173 C71.4787,0.4673 70.7687,0.5173 69.9817,0.6783 C69.2077,0.8453 68.0237,1.5123 67.5687,1.9423 C67.0957,2.3743 65.7717,3.5533 65.4437,4.2293 C65.1037,4.9143 64.4797,6.5183 64.2767,7.2543 C64.0807,7.9793 63.7957,9.3703 63.6357,10.3583 C63.4657,11.3293 63.0677,12.9093 62.8687,13.5763 C62.6717,14.2323 62.4007,14.9023 62.4007,15.2303 C62.4007,15.5683 62.2427,15.6023 62.5897,16.2253 C61.8787,15.9803 61.7277,16.1413 61.0437,16.1903 C60.3707,16.2433 59.5417,16.4103 58.2747,16.7083 C57.2127,16.8763 55.5237,17.5523 55.0437,17.6873 C54.5627,17.8123 53.3787,18.6913 52.3987,19.3673 C51.6307,19.8473 49.2417,20.8273 48.7027,21.0813 C48.1467,21.3263 47.0907,21.9233 46.7877,22.2133 C46.4897,22.4903 46.4057,22.3403 46.0337,22.6833 C45.8667,22.8533 45.7837,22.9863 45.7837,22.9863 C45.7837,22.9863 44.0957,23.8483 42.2047,24.7933 C40.3037,25.7393 37.6187,27.3843 36.6577,28.0933 C35.6947,28.8133 34.8327,29.4053 34.2497,29.8263 C33.6697,30.2383 33.7197,30.9633 33.5827,31.8343 C33.4567,32.6963 33.4267,34.4193 33.4567,36.4433 C33.4907,38.4683 33.9897,41.9303 34.2777,43.7273 C34.5557,45.5183 34.8997,49.0733 35.0167,50.0193 C35.1397,50.9643 35.2047,51.5453 35.1057,52.0263 C35.0037,52.5073 34.7237,53.1413 34.4707,53.6043 C34.2257,54.0683 33.9557,54.7633 34.0727,55.1503 C34.1907,55.5283 34.3117,55.9103 34.7567,56.5943 C34.7077,56.8723 34.7737,57.1583 34.8997,57.5203 C35.0367,57.8833 35.4337,58.5683 35.6537,58.9983 C35.8627,59.4283 36.0987,59.5973 36.5467,59.6163 C36.8777,59.7673 37.3087,59.7423 37.6447,59.4793 C37.9757,59.2183 38.8357,58.4013 39.5187,57.7503 C40.1927,57.1083 40.0167,56.7183 39.9477,55.7733 C39.8807,54.8273 39.7287,53.9353 39.5517,53.0213 C39.3667,52.1103 39.3247,50.7863 39.4347,49.1223 C39.5417,47.4593 39.7367,43.7463 39.7807,41.7533 C39.8307,39.7713 39.7367,36.6713 39.7217,35.8013 C39.6947,34.9403 39.7627,34.4773 40.6237,34.1453 C41.4857,33.8073 43.6987,33.0433 45.1147,32.3083 C46.5337,31.5803 47.9527,30.9323 47.9527,30.9323 C47.9527,30.9323 48.0117,31.3783 48.4817,31.4033 C48.8717,31.3113 50.1127,30.8303 50.7547,30.5603 C51.3957,30.2903 52.8397,29.7823 54.8327,29.0143 C54.6287,30.7363 54.2497,34.2323 54.2497,35.8933 C54.2497,37.5483 54.3827,40.2943 54.3427,40.8003 C54.2997,41.3133 54.3827,41.9553 54.1627,42.4203 C53.9457,42.8853 53.6577,44.4283 53.4807,45.2223 C53.3047,46.0243 52.3987,47.9923 51.9097,49.4513 C51.4207,50.9103 51.1177,52.8353 51.1177,52.8353 C51.1177,52.8353 51.5567,53.0643 52.0467,53.2413 C51.5127,53.7493 51.2287,54.6613 50.9157,55.0573 C50.6017,55.4543 50.3827,56.1383 50.0547,57.0243 C49.7247,57.9113 48.4087,61.0073 47.8167,61.9703 C47.2177,62.9313 46.5777,63.9793 45.9417,64.8653 C45.0407,66.1233 45.2077,66.2493 45.1817,66.7143 C44.8347,67.0933 43.3087,69.2033 42.5067,70.2263 C41.7157,71.2473 40.5417,72.9283 39.6357,73.8973 C38.3527,73.3003 35.4337,73.0363 33.0017,73.1483 C30.5617,73.2563 26.9567,73.2813 24.5937,72.9933 C22.2237,72.7083 20.6027,72.4043 19.2407,72.2523 C17.8847,72.1063 16.8367,71.9733 15.9917,71.8223 C15.1477,71.6703 14.3127,71.1123 14.0017,70.8583 C13.6787,70.6133 12.9707,70.0653 12.3187,69.6003 C11.6787,69.1383 10.7667,68.6643 9.9647,68.4043 C9.2867,68.2763 8.9857,68.1403 8.5717,68.2763 C8.3427,68.6893 7.1277,70.9263 6.3847,72.4383 C5.6437,73.9493 3.9707,76.9793 3.3137,78.1913 C2.6477,79.4173 1.5407,81.7233 1.1797,82.7693 C0.8207,83.8173 0.5637,84.8963 0.5527,85.3113 C0.6117,85.3783 0.7727,85.6983 1.0927,85.9033 C1.4047,86.0373 2.1587,86.1053 2.5287,85.8503 C2.8997,85.5893 3.2007,85.3363 3.6847,84.8623 C3.8787,84.6613 4.5467,84.1033 4.8847,83.7893 C5.2137,83.4873 6.9337,81.6273 7.7807,80.9203 C8.6227,80.2123 9.8797,79.0543 10.5217,78.7703 C11.1627,78.4813 11.9317,78.0863 12.7597,77.7713 C13.4697,77.7323 15.3687,77.7323 18.4927,78.1913 C21.6057,78.6583 26.8747,80.4893 30.8067,81.6493 C34.7487,82.7953 37.2887,83.3293 38.5057,83.3033 C39.7217,83.2733 41.5447,83.4873 42.3127,83.4613 C43.0727,83.4463 43.7807,83.1503 44.4147,82.9223 C45.0487,82.6863 45.5537,82.0093 46.2207,81.5283 C46.8877,81.0473 48.6787,79.8313 50.9647,78.0403 C53.2527,76.2443 55.4987,74.1433 56.2757,73.5763 C56.5277,73.6963 57.0267,73.8543 57.2697,73.6083 C57.5247,73.3643 58.6457,72.6653 59.6067,71.9493 C60.5717,71.2303 61.7037,70.0063 62.5987,68.9243 C63.4947,67.8463 64.5377,66.6713 64.5377,66.6713 C64.5377,66.6713 65.6707,66.9163 66.4967,67.3033 C67.0787,67.7343 68.1247,68.1503 69.0037,68.5623 C69.8837,68.9763 71.2077,69.8203 72.0417,70.2353 C72.8707,70.6573 73.8497,71.1893 74.0787,71.2543 C74.3157,71.3133 74.4767,71.2303 74.8957,70.9503 C75.3077,70.6663 75.6727,70.2513 75.6727,70.2513 C75.6727,70.2513 75.9167,70.3683 77.7567,70.9853 C79.6067,71.6023 80.4497,72.1933 81.5997,72.8103 C82.7367,73.4243 83.1867,73.8543 83.7697,74.7363 C84.3517,75.6113 85.2307,77.0223 87.0357,79.2593 C88.8507,81.5033 93.1647,85.8683 95.2747,88.3083 C97.3757,90.7373 100.3127,94.6713 101.1167,95.7703 C101.1167,96.3513 101.4277,97.0023 101.7727,97.6783 C102.1267,98.3603 102.9227,99.7553 103.6307,100.4303 C104.3477,101.1123 105.2367,101.9573 105.6407,102.2373 C106.0537,102.5223 106.2567,102.8113 106.8557,102.5573 C107.4817,102.0423 108.1827,101.3233 109.1617,99.7703 C110.1407,98.2083 111.0867,96.9173 112.2517,95.4993 C113.4067,94.1003 114.5187,92.5273 115.9127,90.5273 C117.3057,88.5173 117.7357,87.2843 117.7877,86.6963 C117.8377,86.0953 117.7207,85.9293 117.1867,85.6833" id="Fill-1872"></path>
        </g>
    </g>
</svg>