<?xml version="1.0" encoding="UTF-8"?>
<svg width="63px" height="129px" viewBox="0 0 63 129" version="1.1" xmlns="http://www.w3.org/2000/svg" xmlns:xlink="http://www.w3.org/1999/xlink">
    <!-- Generator: Sketch 42 (36781) - http://www.bohemiancoding.com/sketch -->
    <title>sticker_foamfinger_white</title>
    <desc>Created with Sketch.</desc>
    <defs></defs>
    <g id="Page-1" stroke="none" stroke-width="1" fill="none" fill-rule="evenodd">
        <g id="stickers-black" transform="translate(-53.000000, -445.000000)" fill-rule="nonzero" fill="#FFFFFF">
            <g id="sticker_foamfinger_white" transform="translate(53.000000, 445.000000)">
                <path d="M50.1272727,47.5337644 C49.5454545,44.9791667 47.8363636,40.7093391 47.1454545,38.245977 C46.4545455,35.7643678 43.6,22.6811782 42.1454545,16.7873563 C40.6909091,10.8935345 40.1454545,8.06522989 38.6181818,6.0762931 C37.0909091,4.0691092 34.2727273,4.23333333 32.2363636,5.49238506 C30.2181818,6.75143678 31.2,10.4920977 31.2,10.4920977 C31.2,10.4920977 34.8181818,27.9363506 35.0545455,29.4691092 C35.2909091,31.0018678 37.0909091,43.7748563 37.0909091,43.7748563 C37.0909091,43.7748563 38.0545455,51.1466954 37.2727273,53.1356322 C36.4909091,55.1063218 37.0909091,55.7997126 37.0909091,55.7997126 L39.4909091,61.2373563 C39.4909091,61.2373563 43.8727273,65.5984195 45.0909091,66.8757184 C46.3090909,68.1347701 49,69.1018678 50.1272727,69.9047414 C51.2545455,70.7076149 52.9090909,71.2367816 52.9090909,71.2367816 C52.9090909,71.2367816 51.8545455,62.916092 51.8181818,61.7847701 C51.7818182,60.6534483 50.7090909,50.0883621 50.1272727,47.5337644 Z" id="Shape"></path>
                <path d="M22.4909091,63.8284483 C22.4909091,63.8284483 21.9272727,64.7408046 22.5090909,65.9816092 C23.0909091,67.2224138 23.3818182,68.0252874 27.6727273,67.5326149 C27.6727273,67.5326149 28.3454545,67.3866379 28.6181818,66.1458333 C28.8727273,64.8867816 28.8545455,63.4817529 28.8545455,63.4817529 L22.4909091,63.8284483 Z" id="Shape"></path>
                <path d="M22.6181818,72.5323276 C22.1636364,72.9155172 21.6,73.6636494 21.3454545,74.2840517 C21.1090909,74.904454 20.9454545,74.9227011 20.6727273,74.7402299 C20.3818182,74.5577586 20.5636364,73.8643678 20.6909091,73.5359195 C21.1090909,72.3863506 22.9636364,71.145546 23.6,70.9448276 C23.4727273,70.7988506 23.3636364,70.6528736 23.2363636,70.4886494 L23.2363636,70.4886494 C22.4,70.7806034 21.0181818,71.7477011 20.5818182,72.5505747 C20.0909091,73.4081897 19.9454545,74.3022989 19.9454545,74.3022989 C20.0363636,75.1051724 19.3090909,75.6708333 19.1454545,74.4117816 C18.9818182,73.170977 19.8,72.1491379 20.2363636,71.6564655 C20.6727273,71.1637931 21.6545455,70.3974138 22.2181818,70.0507184 C22.4181818,69.9229885 22.6181818,69.85 22.8,69.7770115 C21.8545455,68.0070402 21.2727273,65.525431 21.1454545,64.3758621 C20.9818182,62.9525862 22.6181818,62.7336207 22.6181818,62.7336207 C20.1818182,58.8652299 19.4545455,59.175431 18.2,58.9199713 C16.9454545,58.6645115 14.4181818,59.7045977 14.4181818,59.7045977 C14.4181818,59.7045977 11.2727273,61.0001437 10.6545455,63.4817529 C10.0363636,65.9633621 12.7272727,69.1383621 14.0909091,70.6346264 C15.4545455,72.1308908 21.3454545,79.9771552 21.3454545,79.9771552 L24.8363636,84.1557471 C24.8363636,84.1557471 26.8363636,86.6191092 28.6363636,86.9110632 C30.4363636,87.2030172 32.4545455,85.0133621 32.4545455,85.0133621 C32.4545455,85.0133621 33.8727273,83.1704023 34.1818182,81.4551724 C34.4909091,79.7399425 33.1818182,78.079454 33.1818182,78.079454 C33.1818182,78.079454 31.7818182,75.9262931 31.1454545,74.9409483 C30.5090909,73.9738506 29.8181818,74.1928161 28.2181818,73.8643678 C26.8909091,73.5906609 25.6,72.8607759 24.3818182,71.7112069 L24.3818182,71.7112069 C24.3454545,71.729454 23.0727273,72.1491379 22.6181818,72.5323276 Z M14.2909091,61.4563218 C13.8727273,61.6570402 13.0909091,62.5146552 12.5818182,63.3905172 C12.0727273,64.2663793 12.4545455,65.7808908 12.4545455,65.7808908 C12.8727273,68.9376437 11.1090909,66.4560345 10.9818182,64.795546 C10.8545455,63.1350575 12.0363636,61.7847701 12.9818182,61.0548851 C13.9272727,60.325 15.1818182,59.8323276 15.9636364,60.0877874 C16.7454545,60.3432471 14.7090909,61.2738506 14.2909091,61.4563218 Z M19.2,71.3462644 C19.1454545,70.6893678 20.3454545,69.6675287 20.3454545,69.6675287 C20.3454545,69.6675287 21.8363636,68.5362069 22.2727273,69.0471264 C22.7090909,69.558046 21.8909091,69.85 21.3636364,70.1237069 C20.8363636,70.3791667 20.2181818,70.9630747 19.9636364,71.5104885 C19.7090909,72.0579023 19.2545455,72.0031609 19.2,71.3462644 Z M26.3818182,78.6633621 C26.8181818,78.1524425 27.4545455,77.5320402 28.1090909,77.3860632 C29.2727273,77.1488506 30.4545455,77.2583333 31.0727273,77.6232759 C31.6909091,77.9882184 33.3454545,79.6852011 33.4545455,80.1231322 C33.5636364,80.5610632 34,81.3639368 33.2545455,82.2762931 C32.5090909,83.1886494 31.0181818,85.2140805 30.4,85.5060345 C29.7818182,85.7979885 28.6545455,87.1847701 27.6727273,85.9074713 C26.7818182,84.7579023 25.2363636,83.0244253 25.6181818,80.3603448 C25.7090909,79.7216954 25.9818182,79.1377874 26.3818182,78.6633621 Z" id="Shape"></path>
                <path d="M37.2727273,77.5685345 C37,77.1306034 36.4545455,75.6708333 36.4545455,75.6708333 L35.4181818,75.4518678 C35.4181818,75.4518678 35.8,76.9846264 36.0909091,77.7145115 C36.3818182,78.4443966 37.5454545,77.9882184 37.2727273,77.5685345 Z" id="Shape"></path>
                <path d="M27.4,84.3564655 C27.9636364,85.2323276 28.2545455,85.5972701 28.7272727,85.2688218 C29.2,84.9403736 30.4909091,84.0097701 31.6545455,82.8966954 C32.5636364,82.0208333 32.7818182,81.3274425 32.8363636,81.0719828 C32.8545455,80.9989943 32.8363636,80.9442529 32.8181818,80.8712644 C32.6909091,80.6340517 32.3454545,79.9771552 31.8909091,79.5939655 C31.3454545,79.1012931 30.6,78.6633621 29.8363636,78.5173851 C29.0727273,78.3531609 28.6363636,78.4443966 27.8545455,78.8458333 C27.4181818,79.0647989 27.1454545,79.4662356 27.0181818,79.7399425 C26.8727273,80.0501437 26.7272727,80.378592 26.6909091,80.670546 C26.5636364,81.9843391 26.9090909,83.5718391 27.4,84.3564655 Z" id="Shape"></path>
                <path d="M35.1090909,78.5903736 C36.0181818,79.6122126 36.9454545,79.9954023 37.4,80.0866379 C37.8545455,80.1778736 38.1454545,79.6304598 38.1454545,79.6304598 C38.1454545,79.6304598 37.8545455,79.2472701 37.1818182,79.375 C36.5090909,79.520977 35.3090909,78.1341954 35.0181818,77.4225575 C34.7454545,76.7109195 34.4909091,75.196408 34.4909091,75.196408 L32.6363636,74.8132184 C32.6363636,74.8497126 34.2,77.5685345 35.1090909,78.5903736 Z" id="Shape"></path>
                <path d="M35.7454545,57.2047414 C34.9454545,56.1099138 32.7090909,51.7123563 30.3090909,50.2890805 C27.9090909,48.8475575 25.3090909,49.3402299 24.3454545,49.9606322 C23.3818182,50.5810345 19.6,53.1538793 20.2545455,56.1829023 C20.9272727,59.2119253 22.6545455,60.6899425 22.6545455,60.6899425 L24.3090909,62.5146552 L26.8545455,62.3139368 L29.4,62.1132184 C29.4,62.1132184 30.5818182,61.328592 31.4727273,61.0548851 C31.7454545,60.9636494 32.1272727,60.908908 32.5454545,60.8359195 L32.5454545,60.8359195 C32.5454545,60.8359195 33.5272727,59.6133621 34.5090909,59.3579023 C35.4909091,59.1024425 36.0545455,59.2666667 35.7090909,59.7958333 C35.3636364,60.325 35.0727273,59.9600575 34.3454545,60.6352011 C34.5636364,60.616954 34.7090909,60.616954 34.7090909,60.616954 L37.4909091,60.5439655 C37.5454545,60.5622126 36.5454545,58.299569 35.7454545,57.2047414 Z M25.8181818,50.9277299 C25.8181818,50.9277299 23.7636364,52.3510057 22.6545455,54.0844828 C21.5454545,55.8179598 22,57.2047414 22,57.2047414 C21.9818182,58.8287356 21.7454545,58.6827586 20.9636364,57.2594828 C20.2,55.8362069 20.5090909,54.7778736 21.0909091,53.5188218 C21.4,52.8436782 23.6363636,50.4533046 25.2363636,50.1431034 C26.8545455,49.8511494 25.8181818,50.9277299 25.8181818,50.9277299 Z M32.1818182,59.6498563 C31.6181818,59.9235632 30.6545455,60.325 30.3272727,60.7811782 C30,61.2191092 28.7272727,62.0219828 29.6,60.3067529 C29.6,60.3067529 30.9818182,59.0112069 31.6545455,58.883477 C32.3272727,58.7557471 32.7272727,58.445546 32.9454545,58.6827586 C33.1636364,58.9199713 32.7454545,59.3579023 32.1818182,59.6498563 Z" id="Shape"></path>
                <path d="M20.7272727,91.5640805 C20.7272727,91.5640805 21.3636364,90.9984195 22.5636364,90.1772989 C23.7636364,89.3561782 23.6363636,88.8087644 23.6363636,88.8087644 C23.6363636,88.8087644 23.5454545,87.4767241 22.3636364,86.9110632 C21.1818182,86.3454023 20.2545455,86.5643678 19.7454545,86.9658046 C19.2363636,87.3672414 19.0727273,88.4985632 19.0727273,88.4985632 C19.0909091,89.4291667 19.3272727,90.2685345 19.8545455,91.0896552 C20.3818182,91.9107759 20.7272727,91.5640805 20.7272727,91.5640805 Z" id="Shape"></path>
                <path d="M62.9090909,117.000575 C63,113.843822 60.5454545,102.530603 60.5454545,102.530603 C60.5454545,102.530603 59.9454545,99.1366379 59.6727273,98.2425287 C59.4,97.3484195 60.9818182,93.2975575 61.4,90.3962644 C61.8181818,87.4949713 61.8363636,83.8637931 61.1636364,81.3091954 C60.4909091,78.7363506 59.5454545,74.8132184 58.5090909,73.5724138 C57.4727273,72.3316092 56.4,69.0288793 56.4545455,66.8939655 C56.5272727,64.7590517 56.0909091,57.4966954 55.4727273,54.6683908 C54.8545455,51.8400862 46.0727273,11.9701149 44.8727273,8.35718391 C43.6727273,4.74425287 41.9636364,-0.456178161 35.4363636,0.127729885 C28.9090909,0.711637931 26.8363636,6.6237069 27.4727273,10.2913793 C28.0909091,13.9590517 33.5454545,45.3076149 33.5454545,45.3076149 C33.5454545,45.3076149 34.8181818,49.8693966 32.8363636,48.2271552 C30.8545455,46.6031609 27.5454545,43.7566092 23.1818182,46.0192529 C18.8181818,48.2818966 16.6363636,52.0043103 16.2727273,53.7012931 C15.9272727,55.3982759 15.0545455,55.4895115 14.2909091,55.6172414 C13.5272727,55.7449713 7.78181818,57.4237069 6.69090909,61.766523 C5.6,66.1093391 5.8,65.5801724 4.50909091,65.9633621 C3.21818182,66.3465517 -0.945454545,69.3938218 0.636363636,76.9846264 C2.21818182,84.575431 3.34545455,91.6188218 5.67272727,96.4908046 C8,101.362787 11.7454545,106.526724 12.6545455,109.336782 C13.5636364,112.128592 15.5090909,124.573132 15.5090909,124.573132 C15.5090909,124.573132 16.1090909,128.806466 17.7454545,128.952443 C19.3818182,129.116667 60.7090909,120.631753 60.7090909,120.631753 C60.7090909,120.631753 62.8,120.13908 62.9090909,117.000575 Z M58.9818182,115.577299 C58.2545455,115.522557 57.5818182,109.40977 57.5818182,109.40977 C57.5818182,109.40977 56.6545455,101.381034 56.2545455,98.8811782 C55.8545455,96.3813218 57.0727273,90.0130747 57.5818182,87.1300287 C58.0909091,84.2469828 56.2545455,79.2107759 55.5454545,77.2948276 C54.8363636,75.3788793 52.7272727,73.4446839 50.4545455,72.3133621 C48.1818182,71.1820402 46.2545455,69.7587644 46.2545455,69.7587644 C46.2545455,69.7587644 42.4727273,66.9122126 41.8,65.7443966 C41.1090909,64.5765805 40.7818182,64.8685345 40.5818182,65.3977011 C40.3818182,65.9268678 39.8727273,66.5472701 39.5818182,66.2188218 C39.2909091,65.8903736 39.9272727,64.1386494 39.5636364,63.6094828 C39.2181818,63.062069 38.8545455,65.6896552 38.6909091,66.4925287 C38.5272727,67.2954023 37.6363636,67.112931 38.1636364,65.4341954 C38.6909091,63.7554598 38.1272727,62.4599138 37.6545455,62.0767241 C37.1818182,61.6935345 37.1636364,63.0985632 36.9818182,63.9926724 C36.8,64.8867816 36.3636364,62.9343391 36.3636364,62.9343391 C36.3636364,62.9343391 36.2181818,62.2591954 34.8545455,62.1497126 C33.4909091,62.0402299 31.4181818,62.6423851 30.6181818,62.8431034 C29.8363636,63.0438218 29.6,63.7554598 29.9636364,64.6678161 C30.3272727,65.5801724 29.7272727,68.0617816 29.0363636,68.6639368 C28.3454545,69.266092 27.2,69.0288793 25.3090909,68.7186782 C23.4181818,68.408477 24.3818182,70.4886494 26.5272727,71.7659483 C28.6727273,73.0614943 35.8727273,73.7183908 36.8727273,73.8461207 C37.8727273,73.9738506 39.1272727,74.1380747 39.5272727,74.5030172 C39.9090909,74.8679598 38.3454545,75.2876437 38.3454545,75.2876437 C38.3454545,75.2876437 38.5454545,76.5466954 39.3272727,79.5027299 C40.1090909,82.4587644 42.9090909,84.6301724 44.0363636,86.3636494 C45.1636364,88.0971264 42.9454545,86.6920977 41.6909091,86.0534483 C40.4363636,85.4147989 38.5818182,81.5646552 38.5818182,81.5646552 C38.5818182,81.5646552 37.4545455,82.0755747 36.3454545,81.1814655 C35.2363636,80.2873563 35.2545455,81.0537356 35.2545455,81.0537356 C35.2545455,81.0537356 34.6,85.1045977 33.1272727,86.5643678 C31.6545455,88.0241379 29.0545455,88.4985632 27.1818182,87.7321839 C25.2909091,86.9658046 26.2909091,88.4803161 26.0363636,90.1043103 C25.7818182,91.7283046 24.3090909,92.6224138 22.6909091,93.6807471 C21.0727273,94.7390805 19.4181818,94.2099138 18.2909091,93.4070402 C17.1636364,92.6041667 13,87.6409483 13,87.6409483 C13,87.6409483 9.41818182,82.9696839 8.87272727,82.4952586 C8.32727273,82.0025862 7.01818182,81.546408 6.32727273,80.4698276 C5.63636364,79.3932471 8.96363636,81.1997126 9.8,81.6558908 C10.6363636,82.112069 12.3454545,84.6119253 12.3454545,84.6119253 C12.3454545,84.6119253 14.8909091,88.0423851 17.7272727,91.3268678 C20.5636364,94.6113506 21.7636364,92.4581897 22.8727273,92.0385057 C23.9818182,91.6188218 24.8727273,90.0313218 24.9818182,88.1883621 C25.0909091,86.3454023 20.7272727,81.8931034 18.0181818,77.495546 C15.3090909,73.0979885 10.7272727,69.2478448 10.2545455,68.8829023 C9.78181818,68.4997126 5.78181818,68.1712644 4.38181818,71.6564655 C2.98181818,75.1416667 6.43636364,85.8892241 6.43636364,85.8892241 C6.43636364,85.8892241 9.01818182,93.1333333 10.8727273,97.1659483 C12.7272727,101.198563 16.5636364,105.997557 17.8363636,107.858764 C19.1090909,109.719971 19.1272727,113.259914 19.1272727,113.259914 C19.1272727,113.259914 20.2545455,121.233908 20.5272727,122.602443 C20.8,123.970977 19.7272727,123.733764 19.2909091,123.642529 C18.8545455,123.551293 18.6363636,122.766667 18.6363636,122.766667 C18.6363636,122.766667 17.4363636,114.227011 17.3090909,112.603017 C17.1818182,110.99727 16.2,108.07773 14.8181818,106.763937 C13.4181818,105.450144 11.9636364,102.165661 10.7636364,100.413937 C9.54545455,98.6622126 5.90909091,88.4985632 4.27272727,83.3893678 C2.63636364,78.2984195 2.67272727,74.5760057 3,72.1308908 C3.43636364,68.9011494 7.45454545,67.2771552 8.47272727,67.1311782 C9.49090909,66.966954 9.96363636,67.258908 9.69090909,66.820977 C9.41818182,66.383046 9.27272727,64.3941092 9.32727273,63.208046 C9.4,62.0037356 10.2,60.7811782 11.7090909,59.321408 C13.2181818,57.8616379 17.3818182,57.0587644 18.4,57.1864943 C19.4181818,57.3142241 19.1272727,56.8762931 19.1272727,56.8762931 C19.1272727,56.8762931 17.6363636,51.803592 23.1272727,48.6833333 C28.6181818,45.5630747 32.4545455,50.2708333 34.7818182,52.4422414 C37.1090909,54.6136494 36.1090909,47.8804598 35.7636364,45.0886494 C35.4181818,42.3150862 34.1272727,31.5127874 33.6545455,29.3596264 C33.1818182,27.2064655 29.6545455,13.3204023 29.3818182,8.88635057 C29.0909091,4.45229885 32.8181818,3.08376437 36.1818182,2.95603448 C39.5454545,2.8283046 41.2181818,6.89741379 42.2181818,9.63448276 C43.2181818,12.3715517 44.4,21.933046 46.4363636,29.0676724 C48.4727273,36.2022989 51.7272727,50.0336207 52.2909091,51.8218391 C52.8545455,53.6100575 53.8,65.0875 53.8727273,66.966954 C53.9454545,68.846408 54.8181818,72.6600575 56.2363636,74.8314655 C57.6545455,77.0028736 57.6363636,78.3896552 58.2909091,80.1048851 C58.9454545,81.8201149 59.7454545,87.8599138 59.1090909,90.4327586 C58.4727273,93.0056034 57.9454545,96.8922414 57.8909091,98.4797414 C57.8363636,100.067241 58.6545455,104.136351 59.0181818,105.139943 C59.3636364,106.143534 60.4363636,113.91681 60.5272727,114.865661 C60.5090909,115.796264 59.7090909,115.63204 58.9818182,115.577299 Z M6.12727273,75.9627874 C6.29090909,76.4007184 6.10909091,77.5867816 5.21818182,76.2912356 C4.32727273,74.9956897 4.47272727,73.4264368 5.03636364,72.0579023 C5.6,70.6893678 7.2,69.7222701 8.07272727,69.3390805 C8.94545455,68.9558908 9.27272727,69.3208333 9.4,69.6127874 C9.52727273,69.9047414 7.87272727,70.4886494 7.49090909,70.7806034 C6.98181818,71.1637931 6.50909091,71.6747126 5.96363636,72.9885057 C5.41818182,74.3022989 6.12727273,75.9627874 6.12727273,75.9627874 Z M17.5090909,79.3202586 C16.7636364,79.6852011 14.8363636,80.4150862 14,81.546408 C13.1636364,82.6594828 13.1636364,83.553592 13.1272727,83.6813218 C13.0909091,83.8090517 12,84.575431 12.4727273,82.6047414 C12.4727273,82.6047414 13.1818182,80.524569 15.0909091,79.520977 C17,78.5173851 17.5636364,78.0247126 17.8909091,78.4261494 C18.2363636,78.8275862 18.2545455,78.9735632 17.5090909,79.3202586 Z M17.1454545,81.0719828 C16.6909091,81.3456897 15.9272727,81.4734195 15.4727273,82.0755747 C15.0181818,82.6777299 14.8909091,84.1557471 14.3454545,83.9367816 C13.7818182,83.7178161 14.0545455,82.2945402 15.1272727,81.108477 C15.1272727,81.108477 16.1636364,80.2691092 16.9818182,80.1961207 C17.7818182,80.1413793 17.6,80.7982759 17.1454545,81.0719828 Z M15.5272727,78.7181034 C15.3454545,78.7363506 14.9818182,78.8458333 14.6363636,79.0100575 C14.2909091,79.1742816 14.2545455,79.2472701 13.7818182,79.666954 C13.3090909,80.0866379 12.9636364,80.6158046 12.8,80.9442529 C12.6363636,81.2909483 11.9636364,81.3821839 11.9636364,80.5428161 C11.9636364,80.5428161 11.9090909,79.6852011 13.1636364,78.8275862 C14.4181818,77.9699713 14.6727273,77.8422414 15.2909091,77.8787356 C15.8727273,77.9152299 15.7090909,78.7181034 15.5272727,78.7181034 Z M18.4,87.2030172 C18.4,87.2030172 19.6363636,84.8856322 22.1090909,85.9257184 C24.5818182,86.9658046 24.5272727,89.0094828 24.5272727,89.0094828 C24.5272727,89.0094828 24.7636364,89.6663793 23.1454545,90.9984195 C21.5272727,92.3304598 20.5636364,93.3887931 19.4909091,92.0020115 C18.4181818,90.6152299 17.7090909,88.7357759 18.4,87.2030172 Z" id="Shape"></path>
            </g>
        </g>
    </g>
</svg>