<?xml version="1.0" encoding="UTF-8"?>
<svg width="109px" height="150px" viewBox="0 0 109 150" version="1.1" xmlns="http://www.w3.org/2000/svg" xmlns:xlink="http://www.w3.org/1999/xlink">
    <!-- Generator: Sketch 42 (36781) - http://www.bohemiancoding.com/sketch -->
    <title>sticker_bloodymonday_white</title>
    <desc>Created with Sketch.</desc>
    <defs>
        <polygon id="path-1" points="0 0.41712102 0 150 81.4889373 150 81.4889373 0.41712102 2.71050543e-20 0.41712102"></polygon>
    </defs>
    <g id="Page-1" stroke="none" stroke-width="1" fill="none" fill-rule="evenodd">
        <g id="stickers-black" transform="translate(-339.000000, -141.000000)">
            <g id="sticker_bloodymonday_white" transform="translate(339.000000, 140.000000)">
                <path d="M59.6235,114.965 C60.2655,114.965 60.9015,114.706 61.0195,113.957 C61.1285,113.27 60.7005,112.981 60.0595,112.981 L59.7535,112.981 L59.4395,114.965 L59.6235,114.965 Z M58.9815,119.518 C59.6685,119.518 60.3325,119.182 60.4555,118.403 C60.5785,117.623 60.0335,117.303 59.3155,117.303 L59.0715,117.303 L58.7215,119.518 L58.9815,119.518 Z M57.0305,110.49 L60.6965,110.49 C62.5295,110.49 64.5425,111.285 64.1495,113.774 C63.9445,115.072 62.9455,116.08 61.6315,116.08 L61.6265,116.111 C63.1345,116.234 63.7945,117.18 63.5515,118.723 C63.3275,120.144 62.1775,122.007 59.3975,122.007 L55.2125,122.007 L57.0305,110.49 Z" id="Fill-1" fill="#FFFFFF"></path>
                <polygon id="Fill-3" fill="#FFFFFF" points="63.7617 122.007 65.5797 110.49 68.6957 110.49 67.3067 119.288 69.6437 119.288 69.2147 122.007"></polygon>
                <path d="M74.1899,119.3029 C75.3659,119.3029 75.7809,116.9669 75.8939,116.2479 C76.0069,115.5319 76.3309,113.1939 75.1539,113.1939 C73.9789,113.1939 73.5639,115.5319 73.4499,116.2479 C73.3369,116.9669 73.0139,119.3029 74.1899,119.3029 M75.6119,110.2909 C78.7739,110.2909 79.5149,113.4379 79.0709,116.2479 C78.6269,119.0589 76.8939,122.2049 73.7319,122.2049 C70.5699,122.2049 69.8299,119.0589 70.2729,116.2479 C70.7169,113.4379 72.4509,110.2909 75.6119,110.2909" id="Fill-5" fill="#FFFFFF"></path>
                <path d="M83.3647,119.3029 C84.5407,119.3029 84.9557,116.9669 85.0687,116.2479 C85.1817,115.5319 85.5057,113.1939 84.3287,113.1939 C83.1537,113.1939 82.7387,115.5319 82.6247,116.2479 C82.5117,116.9669 82.1887,119.3029 83.3647,119.3029 M84.7867,110.2909 C87.9487,110.2909 88.6897,113.4379 88.2457,116.2479 C87.8017,119.0589 86.0687,122.2049 82.9067,122.2049 C79.7447,122.2049 79.0047,119.0589 79.4477,116.2479 C79.8917,113.4379 81.6257,110.2909 84.7867,110.2909" id="Fill-7" fill="#FFFFFF"></path>
                <path d="M91.6201,119.2267 C93.0431,119.2117 93.5671,117.4397 93.7381,116.3557 C93.9361,115.1037 93.9661,113.3617 92.5461,113.3617 L91.6201,119.2267 Z M89.8831,110.4907 L92.3881,110.4907 C95.9321,110.4907 97.4891,112.7207 96.9391,116.2037 C96.1001,121.5177 92.6781,122.0067 90.7841,122.0067 L88.0651,122.0067 L89.8831,110.4907 Z" id="Fill-9" fill="#FFFFFF"></path>
                <polygon id="Fill-11" fill="#FFFFFF" points="98.7988 122.007 99.5698 117.119 97.7758 110.49 101.0138 110.49 101.5208 114.049 101.5518 114.049 103.1978 110.49 106.4208 110.49 102.6858 117.119 101.9148 122.007"></polygon>
                <path d="M60.9409,134.007 L61.7939,126.768 L61.7629,126.768 C61.4929,127.608 61.2529,128.447 60.9679,129.287 L59.3369,134.007 L56.8019,134.007 L56.8599,126.768 L56.8299,126.768 C56.6789,127.622 56.5619,128.463 56.3809,129.319 L55.3809,134.007 L52.0359,134.007 L55.1979,122.49 L59.0779,122.49 L58.9969,128.615 L59.0269,128.615 C59.2329,127.898 59.4199,127.195 59.6699,126.477 L61.0479,122.49 L64.8819,122.49 L64.1789,134.007 L60.9409,134.007 Z" id="Fill-13" fill="#FFFFFF"></path>
                <path d="M69.0293,131.3029 C70.2053,131.3029 70.6203,128.9669 70.7333,128.2479 C70.8463,127.5319 71.1703,125.1939 69.9933,125.1939 C68.8183,125.1939 68.4033,127.5319 68.2893,128.2479 C68.1763,128.9669 67.8533,131.3029 69.0293,131.3029 M70.4513,122.2909 C73.6133,122.2909 74.3543,125.4379 73.9103,128.2479 C73.4663,131.0589 71.7333,134.2049 68.5713,134.2049 C65.4093,134.2049 64.6693,131.0589 65.1123,128.2479 C65.5563,125.4379 67.2903,122.2909 70.4513,122.2909" id="Fill-15" fill="#FFFFFF"></path>
                <path d="M75.5478,122.4904 L78.5108,122.4904 L79.9058,129.4254 L79.9418,129.3944 C80.0288,128.0654 80.0068,126.7524 80.2168,125.4234 L80.6798,122.4904 L83.6728,122.4904 L81.8558,134.0074 L78.8618,134.0074 L77.5888,127.3634 L77.5538,127.3924 C77.4588,128.4774 77.4278,129.5474 77.2558,130.6314 L76.7238,134.0074 L73.7298,134.0074 L75.5478,122.4904 Z" id="Fill-17" fill="#FFFFFF"></path>
                <path d="M86.4751,131.2267 C87.8981,131.2117 88.4221,129.4397 88.5931,128.3557 C88.7911,127.1037 88.8211,125.3617 87.4011,125.3617 L86.4751,131.2267 Z M84.7381,122.4907 L87.2431,122.4907 C90.7871,122.4907 92.3441,124.7207 91.7941,128.2037 C90.9551,133.5177 87.5331,134.0067 85.6391,134.0067 L82.9201,134.0067 L84.7381,122.4907 Z" id="Fill-19" fill="#FFFFFF"></path>
                <path d="M96.6255,130.0822 L96.7115,127.4082 C96.7325,126.6902 96.7875,125.9572 96.8245,125.2402 L96.7935,125.2402 C96.5885,125.9572 96.3965,126.6902 96.1615,127.4082 L95.3125,130.0822 L96.6255,130.0822 Z M96.6015,134.0072 L96.6065,132.5252 L94.5135,132.5252 L94.0205,134.0072 L90.8125,134.0072 L95.3955,122.4902 L99.1985,122.4902 L99.8245,134.0072 L96.6015,134.0072 Z" id="Fill-21" fill="#FFFFFF"></path>
                <polygon id="Fill-23" fill="#FFFFFF" points="101.2881 134.007 102.0591 129.119 100.2651 122.49 103.5031 122.49 104.0101 126.049 104.0411 126.049 105.6871 122.49 108.9101 122.49 105.1751 129.119 104.4041 134.007"></polygon>
                <g id="Group-27" transform="translate(0.000000, 0.583000)">
                    <mask id="mask-2" fill="white">
                        <use xlink:href="#path-1"></use>
                    </mask>
                    <g id="Clip-26"></g>
                    <path d="M57.7895,69.3044 C56.1285,67.8684 54.3655,66.5964 52.8425,65.1384 C53.0485,64.1274 52.7555,62.6214 53.6235,62.2754 C54.6405,62.9224 55.3345,63.9894 56.0975,64.8774 C57.6245,66.6574 59.3225,68.2434 61.0435,69.9534 C61.8405,70.7464 62.8665,71.5634 63.2555,72.6874 C61.0135,72.3774 59.3705,70.6694 57.7895,69.3044 M45.2945,75.6814 C45.4395,73.5984 47.3685,72.2124 48.4195,70.6054 C51.2905,71.2484 53.2675,72.7834 56.0975,73.4684 C53.8445,75.4714 48.6615,75.2244 45.2945,75.6814 M43.6835,37.3844 L42.4825,38.2994 C42.4165,38.3264 42.2705,38.3594 42.0185,38.3104 C41.4925,38.2064 40.4155,37.7114 39.1345,35.5694 C39.0985,35.5064 39.1145,35.4274 39.1735,35.3864 C39.2365,35.3464 39.3155,35.3624 39.3575,35.4194 C39.3685,35.4294 40.3895,36.7674 43.6175,37.1444 C43.6865,37.1564 43.7195,37.1904 43.7325,37.2424 C43.7455,37.2954 43.7275,37.3514 43.6835,37.3844 M36.5195,26.8334 C36.5195,26.8334 38.3365,22.7864 41.9715,25.7064 C41.9715,25.7064 42.6995,28.5134 40.3985,29.6734 C40.3985,29.6734 37.2955,29.0604 36.5195,26.8334 M49.0295,28.2834 C49.0295,28.2834 49.9285,28.7244 50.1095,29.8134 C50.1095,29.8134 50.5045,31.1414 48.7985,32.4494 C48.7985,32.4494 46.5575,32.1384 46.3045,31.7584 L46.0235,31.1764 C46.0235,31.1764 47.1365,27.8764 49.0295,28.2834 M81.4775,81.9294 C81.2845,78.5134 77.4835,76.0094 74.8395,75.1604 C72.7545,74.4914 70.1545,74.7624 68.3315,73.5984 C66.0135,72.1184 64.5275,69.0214 62.6045,66.4394 C61.7745,65.3234 60.9065,64.1194 59.8715,62.6654 C59.1015,61.5814 57.3875,59.7124 57.3995,58.6314 C57.4115,57.6134 58.4995,57.3074 58.9325,55.8984 C59.6595,53.3704 58.2545,52.2134 54.6645,48.8694 C55.5925,47.9144 57.5165,46.7664 56.6185,44.8344 C55.8805,44.3594 55.5035,46.4784 54.9265,45.7454 C55.4285,44.9344 56.2505,42.1384 54.7965,41.7094 C54.2555,41.7864 54.3955,42.8974 53.4945,42.7524 C53.1155,42.6894 50.9285,39.1674 50.7605,38.8474 C49.8095,37.0224 50.4585,35.6474 50.7605,33.9004 C52.2095,30.8384 54.7855,28.6064 55.1865,24.7894 C55.2535,24.1484 55.2545,23.5334 55.2145,22.9374 C61.2215,18.8644 62.4815,13.6904 62.5415,13.4254 C62.5515,13.3854 62.5565,13.3444 62.5585,13.3034 C62.5955,12.4324 62.2805,11.9084 61.6215,11.7464 C60.6695,11.5124 59.7625,12.2934 59.2855,12.8074 C56.8175,15.0084 54.8145,16.4134 53.2455,17.3234 C51.8995,15.2364 50.0965,13.4774 48.5475,11.9044 C47.6895,11.3794 47.1585,10.5694 46.5675,9.8524 C48.0545,4.6924 47.4595,2.3474 47.2835,1.8354 C47.0575,0.9234 46.6335,0.4454 46.0275,0.4184 C45.1145,0.3754 44.4795,1.4284 44.2785,1.8064 C43.7635,2.9064 42.6175,5.6264 42.5995,5.6774 C42.0405,6.8094 41.5505,7.6934 41.1265,8.3904 C39.6095,8.5784 38.1415,8.9584 37.2255,9.3014 C35.0345,10.1214 32.8345,12.0804 31.2375,13.8564 C27.9095,17.5614 25.6845,22.6494 23.8175,27.5224 C22.1545,31.8724 20.6715,36.3174 17.7015,38.9764 C17.8055,39.3514 18.5745,39.0584 18.4825,39.6274 C15.7795,43.8344 22.1615,45.6184 21.3455,49.5194 C20.1995,50.1544 19.4595,48.8044 18.4825,49.2594 C18.3265,50.9784 20.2075,50.6574 21.7355,50.6904 C22.4225,53.0884 25.7315,55.4314 23.9495,58.2404 C22.2105,58.9394 21.6275,57.4694 20.9565,56.6784 C18.9235,58.7794 21.7245,60.8654 22.9085,62.2754 C23.4065,62.8694 24.1565,64.0534 24.6005,64.2274 C27.1135,65.2074 28.3435,62.9544 29.8075,61.4944 C30.6355,61.4894 30.9985,61.9504 31.8885,61.8844 C32.4035,61.6504 32.3785,60.4784 33.1895,60.4514 C33.7375,60.4354 35.0555,62.1014 35.6635,62.7974 C36.2755,63.4974 37.3055,64.8434 37.4865,65.7884 C37.9715,68.3444 37.0775,69.7994 35.9225,71.1264 C33.2735,73.3314 29.6025,74.2394 26.9415,76.2014 C22.8495,79.2224 19.0745,86.2004 21.8675,92.3424 C23.4245,94.1034 24.4725,95.6464 26.2905,96.6364 C28.3145,97.7374 32.9165,98.7084 35.9225,98.4574 C40.0885,98.1124 44.2175,97.2014 47.7685,95.9864 C52.1825,94.4754 55.7225,91.8504 59.3525,90.3884 C60.7955,89.8064 62.8155,89.1304 64.2985,89.7374 C63.3715,93.6514 59.6585,96.3334 56.2275,98.5894 C51.4155,101.7534 46.9355,105.0344 40.4795,106.0084 C33.0895,105.8714 30.8515,100.6374 24.6005,99.6304 C19.6685,98.8344 16.2755,101.1204 13.6655,102.8834 C9.5395,105.6744 6.2705,110.0094 -0.0005,109.9114 C3.4055,116.6294 11.1305,121.3154 21.4755,119.4134 C23.9095,118.5684 27.1145,117.1014 29.5455,117.3324 C27.7825,121.4114 25.0905,125.2714 24.3385,130.2174 C23.0635,138.6054 27.3135,144.5294 31.3695,148.0484 C32.3225,148.8764 33.3555,149.7734 34.4925,150.0004 C32.9265,144.4084 37.0935,141.7514 39.5685,138.6774 C41.0505,136.8324 42.5025,134.4344 43.4725,132.1684 C45.9835,126.3044 44.1225,119.7134 43.4725,112.3854 C51.4105,105.8224 64.3165,101.4924 73.0185,95.0744 C76.0555,92.8354 79.1865,90.0864 80.5675,86.8734 C81.1135,85.6044 81.5675,83.5044 81.4775,81.9294" id="Fill-25" fill="#FFFFFF" mask="url(#mask-2)"></path>
                </g>
            </g>
        </g>
    </g>
</svg>