<?xml version="1.0" encoding="UTF-8"?>
<svg width="114px" height="83px" viewBox="0 0 114 83" version="1.1" xmlns="http://www.w3.org/2000/svg" xmlns:xlink="http://www.w3.org/1999/xlink">
    <!-- Generator: Sketch 42 (36781) - http://www.bohemiancoding.com/sketch -->
    <title>sticker_nbro_alt_white</title>
    <desc>Created with Sketch.</desc>
    <defs></defs>
    <g id="Page-1" stroke="none" stroke-width="1" fill="none" fill-rule="evenodd">
        <g id="stickers-black" transform="translate(-184.000000, -30.000000)" fill="#FFFFFF">
            <g id="sticker_nbro_alt_white" transform="translate(184.000000, 30.000000)">
                <g id="Group-1989">
                    <path d="M110.6012,15.809 C110.7212,16.021 110.9162,16.368 111.0362,16.58 C111.1552,16.792 111.3512,17.14 111.4712,17.352 C111.5902,17.564 111.7862,17.911 111.9052,18.123 C112.0252,18.335 112.1232,18.509 112.1232,18.509 C112.1312,18.517 112.1342,18.521 112.1382,18.526 C112.1422,18.53 112.1542,18.548 112.1572,18.554 C112.1602,18.56 112.1682,18.58 112.1702,18.586 C112.1712,18.592 112.1752,18.613 112.1762,18.62 L112.1762,23.141 L112.1762,23.393 L112.1762,32.412 L112.1762,32.665 L112.1762,41.683 L112.1762,41.936 L112.1762,49.835 L113.9052,49.835 L113.9052,42.627 L113.9052,42.375 L113.9052,33.356 L113.9052,33.104 L113.9052,24.085 L113.9052,23.833 L113.9052,19.311 C113.9042,19.305 113.9002,19.283 113.8992,19.277 C113.8972,19.271 113.8892,19.251 113.8862,19.246 C113.8832,19.24 113.8712,19.222 113.8672,19.217 C113.8632,19.212 113.8602,19.208 113.8522,19.2 C113.8522,19.2 113.7542,19.027 113.6342,18.815 C113.5152,18.602 113.3192,18.255 113.2002,18.043 C113.0802,17.831 112.8842,17.484 112.7652,17.272 C112.6452,17.06 112.4502,16.713 112.3302,16.501 C112.2182,16.301 111.3642,15.923 110.3912,15.634 C110.4982,15.7 110.5742,15.76 110.6012,15.809" id="Fill-1983"></path>
                    <path d="M96.4117,49.8354 C96.4067,49.6584 96.4007,49.4854 96.4007,49.3014 L96.4007,40.3964 L96.4007,31.4914 L96.4007,22.5864 C96.4007,20.1374 96.8127,18.2384 97.3177,18.3664 C97.8217,18.4944 98.6477,18.7044 99.1517,18.8334 C99.6567,18.9614 100.4817,19.1714 100.9867,19.2994 C101.4907,19.4274 102.3157,19.6374 102.8207,19.7654 C103.0947,19.8354 103.3387,20.4214 103.5077,21.2744 C103.1047,21.1724 102.6787,21.0634 102.3697,20.9854 C101.8647,20.8564 101.0397,20.6474 100.5347,20.5184 C100.0307,20.3904 99.2047,20.1804 98.7007,20.0524 C98.1967,19.9244 97.7837,21.8224 97.7837,24.2714 L97.7837,33.1764 L97.7837,42.0824 L97.7837,49.8354 L99.5127,49.8354 L99.5127,42.7734 L99.5127,33.8684 L99.5127,24.9634 C99.5127,22.5144 99.9257,20.6154 100.4297,20.7444 C100.9337,20.8724 101.7597,21.0824 102.2637,21.2104 C102.6137,21.2994 103.1127,21.4264 103.5567,21.5394 C103.6687,22.2074 103.7377,23.0074 103.7377,23.8594 L103.7377,31.5794 L103.7377,39.2994 L103.7377,47.0194 C103.7377,48.0744 103.6357,49.0724 103.4707,49.8354 L110.7927,49.8354 C110.7927,49.7294 110.7937,49.6274 110.7937,49.5214 L110.7937,49.2684 L110.7937,40.2494 L110.7937,39.9974 L110.7937,30.9784 L110.7937,30.7264 L110.7937,21.7074 L110.7937,21.4554 C110.7937,18.9754 110.7927,16.9404 110.7927,16.9344 C110.7927,16.9274 110.7887,16.9064 110.7867,16.9004 C110.7847,16.8934 110.7767,16.8734 110.7737,16.8684 C110.7717,16.8624 110.7597,16.8444 110.7557,16.8394 C110.7517,16.8344 110.7487,16.8304 110.7397,16.8234 C110.7397,16.8234 110.6417,16.6494 110.5227,16.4374 C110.4027,16.2254 110.2077,15.8784 110.0877,15.6664 C109.9677,15.4534 109.7727,15.1064 109.6527,14.8944 C109.5337,14.6824 109.3377,14.3354 109.2177,14.1234 C109.0987,13.9114 108.1427,13.4964 107.0947,13.2014 C106.0467,12.9064 104.3307,12.4234 103.2827,12.1294 C102.2347,11.8344 100.5187,11.3514 99.4707,11.0564 C98.4217,10.7614 96.7067,10.2794 95.6587,9.9844 C94.6097,9.6894 93.7527,9.4484 93.7527,9.4484 L93.7517,9.4484 L93.7517,9.4484 L93.7507,9.4484 C93.7507,9.4484 93.5037,9.6684 93.2027,9.9364 C92.9017,10.2054 92.4087,10.6454 92.1077,10.9134 C91.8057,11.1824 91.3127,11.6214 91.0117,11.8904 C90.7107,12.1594 90.2177,12.5984 89.9167,12.8674 C89.6147,13.1364 89.3687,15.3854 89.3687,17.8654 L89.3687,20.2644 L89.3687,29.2834 L89.3687,31.6824 L89.3687,40.7014 L89.3687,43.1004 L89.3687,49.8354 L96.4117,49.8354 Z" id="Fill-1984"></path>
                    <path d="M23.4429,19.6386 L23.4429,28.6576 L23.4429,34.7816 L23.4429,43.8006 L23.4429,49.8356 L25.1719,49.8356 L25.1719,44.4926 L25.1719,35.4736 L25.1719,29.3486 L25.1719,20.3306 L25.1719,14.2056 C25.1719,11.7256 25.1719,9.6916 25.1709,9.6856 C25.1709,9.6796 25.1679,9.6606 25.1669,9.6546 C25.1649,9.6496 25.1579,9.6306 25.1559,9.6256 C25.1539,9.6206 25.1429,9.6036 25.1399,9.5996 C25.1359,9.5946 25.1229,9.5806 25.1179,9.5766 C25.1139,9.5726 25.0979,9.5606 25.0929,9.5576 C25.0879,9.5546 25.0699,9.5466 25.0639,9.5446 C25.0589,9.5426 25.0389,9.5386 25.0339,9.5376 C25.0279,9.5366 24.6379,9.6236 24.1799,9.7326 C23.9749,9.7806 23.7109,9.8426 23.4429,9.9056 L23.4429,13.5136 L23.4429,19.6386 Z" id="Fill-1985"></path>
                    <path d="M67.3469,24.6076 L67.3469,18.3976 L67.3469,12.1886 C67.3469,10.4806 67.7209,9.1476 68.1769,9.2256 C68.6339,9.3036 69.3809,9.4316 69.8379,9.5096 C70.2939,9.5876 71.0409,9.7156 71.4979,9.7936 C71.9539,9.8716 72.7019,9.9996 73.1579,10.0776 C73.4589,10.1296 73.7219,10.7606 73.8669,11.6486 C73.5159,11.5876 73.1499,11.5256 72.8809,11.4796 C72.4239,11.4016 71.6769,11.2736 71.2209,11.1956 C70.7639,11.1176 70.0169,10.9896 69.5599,10.9116 C69.1039,10.8336 68.7299,12.1666 68.7299,13.8746 L68.7299,20.0836 L68.7299,26.2936 L68.7299,32.5026 C68.7299,33.0166 68.7669,33.4946 68.8269,33.9216 L68.1769,33.9216 C67.7209,33.9216 67.3469,32.5246 67.3469,30.8176 L67.3469,24.6076 Z M73.9879,13.1826 L73.9879,19.1076 L73.9879,25.0336 L73.9879,30.9596 C73.9879,32.5886 73.6149,33.9216 73.1579,33.9216 L71.4979,33.9216 L70.4829,33.9216 C70.4679,33.6886 70.4589,33.4456 70.4589,33.1946 L70.4589,26.9846 L70.4589,20.7756 L70.4589,14.5656 C70.4589,12.8586 70.8329,11.5246 71.2889,11.6036 C71.7459,11.6816 72.4929,11.8086 72.9499,11.8866 C73.2159,11.9326 73.5769,11.9946 73.9259,12.0536 C73.9659,12.4066 73.9879,12.7866 73.9879,13.1826 L73.9879,13.1826 Z M59.2229,20.7796 C59.2249,23.2596 59.2279,27.3176 59.2289,29.7976 L59.2349,38.3466 C59.2359,40.8266 59.2389,44.8856 59.2409,47.3656 L59.2419,49.8356 L67.3469,49.8356 L67.3469,46.9666 C67.3469,44.6596 67.4429,42.7716 67.5609,42.7716 L67.9899,42.7716 L68.4189,42.7716 L68.8469,42.7716 C68.9239,42.7716 69.2789,43.4506 69.7439,44.4576 L69.3729,44.4576 L68.9449,44.4576 C68.8269,44.4576 68.7299,46.3456 68.7299,48.6526 L68.7299,49.8356 L70.4589,49.8356 L70.4589,49.3446 C70.4589,48.1066 70.4879,47.0036 70.5309,46.2356 C70.5449,46.2676 70.5579,46.2966 70.5709,46.3286 C70.9809,47.2936 71.5199,48.5626 72.0599,49.8356 L79.5949,49.8356 C78.9849,48.4166 78.3359,46.9096 77.8669,45.8216 C77.0959,44.0296 76.7179,42.3266 77.0279,42.0376 C77.3369,41.7486 77.8439,41.2746 78.1539,40.9856 C78.4629,40.6956 78.9699,40.2226 79.2799,39.9336 C79.5889,39.6436 80.0959,39.1706 80.4059,38.8806 C80.7149,38.5916 80.9709,38.3506 80.9729,38.3446 C80.9759,38.3396 80.9839,38.3206 80.9859,38.3146 C80.9879,38.3096 80.9959,38.2906 80.9989,38.2856 C81.0009,38.2806 81.0089,38.2616 81.0119,38.2566 C81.0139,38.2506 81.0199,36.4896 81.0199,34.3556 L81.0199,26.5936 L81.0199,18.8326 L81.0199,11.0716 C81.0199,9.5266 81.0189,8.1926 81.0179,7.5666 C81.2859,7.8056 81.5999,8.0856 81.8139,8.2776 C82.1079,8.5396 82.3559,8.7696 82.3579,8.7756 C82.3609,8.7806 82.3689,8.7996 82.3719,8.8056 C82.3739,8.8106 82.3829,8.8296 82.3849,8.8356 C82.3879,8.8406 82.3959,8.8606 82.3989,8.8656 C82.4009,8.8716 82.4039,10.6226 82.4039,12.7566 L82.4039,20.5186 L82.4039,28.2796 L82.4039,36.0406 C82.4039,38.1756 82.3969,39.9366 82.3949,39.9416 C82.3919,39.9476 82.3839,39.9666 82.3819,39.9716 C82.3799,39.9766 82.3719,39.9956 82.3689,40.0006 C82.3669,40.0056 82.3589,40.0246 82.3559,40.0306 C82.3539,40.0356 82.0989,40.2776 81.7889,40.5666 C81.4789,40.8556 80.9729,41.3296 80.6629,41.6186 C80.3529,41.9086 79.8459,42.3816 79.5369,42.6716 C79.2269,42.9606 78.7199,43.4336 78.4109,43.7236 C78.1009,44.0126 78.4789,45.7156 79.2499,47.5076 C79.5339,48.1666 79.8849,48.9806 80.2529,49.8356 L81.6839,49.8356 C81.4269,49.2386 81.1849,48.6766 80.9789,48.1986 C80.2079,46.4066 79.8299,44.7046 80.1399,44.4146 C80.4489,44.1256 80.9559,43.6516 81.2659,43.3626 C81.5749,43.0736 82.0819,42.5996 82.3919,42.3106 C82.7009,42.0216 83.2079,41.5476 83.5179,41.2586 C83.8279,40.9686 84.0829,40.7276 84.0849,40.7216 C84.0879,40.7166 84.0959,40.6976 84.0979,40.6926 C84.1009,40.6866 84.1089,40.6686 84.1109,40.6626 C84.1129,40.6576 84.1209,40.6386 84.1239,40.6336 C84.1259,40.6286 84.1329,38.8666 84.1329,36.7326 L84.1329,28.9716 L84.1329,21.2096 L84.1329,13.4486 C84.1329,11.3146 84.1299,9.5636 84.1279,9.5576 C84.1249,9.5516 84.1169,9.5326 84.1139,9.5266 C84.1119,9.5216 84.1029,9.5026 84.1009,9.4966 C84.0979,9.4916 84.0899,9.4726 84.0869,9.4666 C84.0849,9.4616 83.8369,9.2316 83.5429,8.9686 C83.2489,8.7066 82.7679,8.2766 82.4739,8.0146 C82.1799,7.7516 81.6989,7.3226 81.4049,7.0596 C81.1109,6.7976 80.6289,6.3676 80.3349,6.1056 C80.0409,5.8436 79.7959,5.6266 79.7909,5.6246 C79.7859,5.6226 79.7689,5.6166 79.7639,5.6146 C79.7589,5.6126 79.7419,5.6066 79.7369,5.6046 C79.7319,5.6026 79.7149,5.5956 79.7099,5.5936 C79.7079,5.5936 79.5199,5.5646 79.2329,5.5216 C78.9399,5.2606 78.5489,4.9116 78.2919,4.6826 C77.9979,4.4206 77.5169,3.9906 77.2229,3.7286 C76.9289,3.4656 76.6839,3.2496 76.6789,3.2476 C76.6739,3.2456 76.6569,3.2386 76.6519,3.2376 C76.6469,3.2356 76.6299,3.2286 76.6249,3.2266 C76.6199,3.2246 76.6029,3.2186 76.5979,3.2166 C76.5929,3.2146 75.6119,3.0676 74.4289,2.8946 C73.2459,2.7206 71.3109,2.4366 70.1279,2.2636 C68.9449,2.0906 67.0099,1.8066 65.8269,1.6326 C64.6439,1.4596 62.7089,1.1756 61.5259,1.0026 C60.3429,0.8286 59.3709,0.6876 59.3649,0.6876 C59.3589,0.6876 59.3389,0.6916 59.3329,0.6926 C59.3279,0.6946 59.3089,0.7016 59.3039,0.7046 C59.2989,0.7066 59.2819,0.7176 59.2769,0.7206 C59.2719,0.7246 59.2579,0.7386 59.2539,0.7426 C59.2499,0.7466 59.2389,0.9426 59.2359,1.0366 C59.2339,1.1296 59.2259,1.8916 59.2239,2.1926 C59.2219,2.4936 59.2169,4.2286 59.2159,4.8546 C59.2159,5.4806 59.2159,9.7506 59.2179,12.2306 L59.2229,20.7796 Z" id="Fill-1986"></path>
                    <path d="M7.8309,49.8354 C7.7959,47.8224 7.7489,45.0234 7.7179,43.2324 C7.6829,41.2214 7.6269,37.9294 7.5929,35.9184 C7.5579,33.9064 7.9889,34.1054 8.5509,36.3614 C8.6789,36.8754 8.8269,37.4704 8.9839,38.1004 C9.0189,40.1244 9.0689,43.0614 9.1009,44.9184 C9.1239,46.2464 9.1559,48.1284 9.1849,49.8354 L10.9019,49.8354 C10.8769,48.3264 10.8499,46.7604 10.8299,45.6104 C10.8299,45.5774 10.8289,45.5374 10.8279,45.5044 C11.1509,46.8014 11.5409,48.3654 11.9069,49.8354 L22.0599,49.8354 L22.0599,48.2394 L22.0599,42.1154 L22.0599,33.0964 L22.0599,26.9714 L22.0599,17.9534 L22.0599,11.8284 C22.0599,9.3484 22.0599,7.3144 22.0589,7.3084 C22.0589,7.3024 22.0559,7.2834 22.0539,7.2774 C22.0529,7.2724 22.0459,7.2534 22.0439,7.2484 C22.0409,7.2434 22.0309,7.2264 22.0279,7.2224 C22.0239,7.2174 22.0109,7.2034 22.0059,7.1994 C22.0019,7.1954 21.9859,7.1834 21.9809,7.1804 C21.9759,7.1774 21.9579,7.1694 21.9519,7.1674 C21.9469,7.1654 21.9269,7.1614 21.9219,7.1604 C21.9159,7.1594 21.5259,7.2464 21.0679,7.3554 C20.6089,7.4634 19.8589,7.6394 19.4009,7.7484 C18.9419,7.8564 18.1919,8.0324 17.7339,8.1414 C17.2759,8.2494 16.5259,8.4264 16.0669,8.5344 C15.6089,8.6424 15.2299,8.7304 15.2239,8.7314 C15.2179,8.7314 15.1989,8.7354 15.1939,8.7364 C15.1879,8.7384 15.1699,8.7454 15.1639,8.7474 C15.1589,8.7504 15.1429,8.7614 15.1379,8.7644 C15.1339,8.7684 15.1199,8.7814 15.1149,8.7864 C15.1109,8.7904 15.0999,8.8064 15.0969,8.8114 C15.0939,8.8164 15.0859,8.8344 15.0839,8.8404 C15.0819,8.8454 15.0779,8.8644 15.0769,8.8704 C15.0759,8.8764 15.0989,10.4564 15.1279,12.3684 C15.1579,14.2804 15.2049,17.4104 15.2339,19.3224 C15.2639,21.2354 15.3109,24.3644 15.3399,26.2764 C15.3519,27.0164 15.3659,27.9394 15.3799,28.9024 C14.8299,27.1664 14.0759,24.7904 13.5919,23.2644 C13.0389,21.5244 12.1359,18.6764 11.5829,16.9364 C11.0309,15.1954 10.1979,13.8604 9.7309,13.9684 C9.5139,14.0184 9.2309,14.0834 8.9449,14.1494 C9.2659,14.6824 9.5919,15.4164 9.8549,16.2444 C10.4069,17.9844 11.3099,20.8324 11.8629,22.5724 C12.4149,24.3134 13.3179,27.1604 13.8709,28.9014 C14.2929,30.2304 14.9179,32.2034 15.4369,33.8384 C15.3709,35.1464 14.9819,35.0754 14.4949,33.5434 C13.9429,31.8034 13.0399,28.9554 12.4869,27.2154 C11.9349,25.4754 11.0319,22.6274 10.4789,20.8874 C9.9269,19.1464 9.0229,16.2994 8.4709,14.5584 C7.9189,12.8184 7.0859,11.4824 6.6189,11.5904 C6.1519,11.6984 5.3889,11.8754 4.9219,11.9834 C4.4559,12.0914 3.6919,12.2684 3.2259,12.3764 C2.7589,12.4844 1.9949,12.6604 1.5289,12.7684 C1.0619,12.8764 0.6759,12.9654 0.6699,12.9654 C0.6639,12.9654 0.6449,12.9694 0.6389,12.9704 C0.6339,12.9724 0.6149,12.9794 0.6099,12.9824 C0.6049,12.9844 0.5879,12.9954 0.5829,12.9994 C0.5789,13.0024 0.5639,13.0164 0.5599,13.0204 C0.5559,13.0244 0.5439,13.0414 0.5409,13.0464 C0.5379,13.0514 0.5299,13.0694 0.5279,13.0744 C0.5259,13.0794 0.5219,13.0994 0.5209,13.1044 C0.5199,13.1104 0.5199,15.1544 0.5199,17.6344 L0.5199,19.9844 L0.5199,29.0034 L0.5199,31.3534 L0.5199,40.3724 L0.5199,42.7214 L0.5199,49.8354 L7.8309,49.8354 Z" id="Fill-1987"></path>
                    <path d="M37.4679,21.8668 L37.4679,17.2178 L37.4679,12.5678 C37.4679,11.2898 37.8379,10.1778 38.2899,10.0988 C38.7419,10.0188 39.4809,9.8888 39.9329,9.8088 C40.3849,9.7288 41.1249,9.5988 41.5769,9.5188 C42.0289,9.4388 42.7679,9.3088 43.2199,9.2288 C43.6099,9.1598 43.9379,9.9318 44.0209,11.0168 C43.6479,11.0828 43.2479,11.1538 42.9599,11.2048 C42.5079,11.2838 41.7679,11.4148 41.3159,11.4948 C40.8639,11.5738 40.1249,11.7048 39.6729,11.7838 C39.2209,11.8638 38.8509,12.9758 38.8509,14.2538 L38.8509,18.9028 L38.8509,23.5528 L38.8509,28.2018 C38.8509,28.4248 38.8659,28.6358 38.8869,28.8408 L38.2899,28.8408 C37.8379,28.8408 37.4679,27.7948 37.4679,26.5158 L37.4679,21.8668 Z M44.0419,16.4928 L44.0419,21.4318 L44.0419,26.3708 C44.0419,27.7298 43.6719,28.8408 43.2199,28.8408 L41.5769,28.8408 L40.5799,28.8408 L40.5799,24.2438 L40.5799,19.5948 L40.5799,14.9458 C40.5799,13.6668 40.9499,12.5558 41.4019,12.4758 C41.8539,12.3958 42.5929,12.2658 43.0449,12.1858 C43.3169,12.1378 43.6879,12.0728 44.0419,12.0098 L44.0419,16.4928 Z M37.4699,49.8358 L37.4699,46.0998 L37.4699,39.2988 C37.4699,37.4288 37.8399,35.8988 38.2919,35.8988 L39.9349,35.8988 L41.5789,35.8988 L43.2219,35.8988 C43.5079,35.8988 43.7589,36.5718 43.9069,37.5838 L42.9619,37.5838 L41.3189,37.5838 L39.6749,37.5838 C39.2229,37.5838 38.8529,39.1148 38.8529,40.9848 L38.8529,47.7848 L38.8529,49.8358 L40.5819,49.8358 L40.5819,48.4768 L40.5819,41.6758 C40.5819,39.8058 40.9519,38.2758 41.4039,38.2758 L43.0469,38.2758 L43.9849,38.2758 C44.0219,38.7008 44.0439,39.1608 44.0439,39.6438 L44.0439,47.1338 L44.0439,49.8358 L51.0959,49.8358 L51.0959,49.0138 L51.0959,40.0388 C51.0959,37.5708 51.0939,35.5478 51.0929,35.5428 C51.0909,35.5378 51.0849,35.5208 51.0829,35.5158 C51.0819,35.5118 51.0759,35.4948 51.0739,35.4898 C51.0719,35.4858 51.0669,35.4688 51.0649,35.4638 C51.0629,35.4588 50.9179,35.2708 50.7449,35.0568 C50.5729,34.8438 50.2919,34.4938 50.1189,34.2798 C49.9469,34.0658 49.6659,33.7158 49.4929,33.5018 C49.3209,33.2888 49.0399,32.9388 48.8669,32.7248 C48.6949,32.5108 48.6949,32.1648 48.8679,31.9548 C49.0399,31.7458 49.3219,31.4028 49.4939,31.1938 C49.6659,30.9848 49.9479,30.6418 50.1199,30.4328 C50.2929,30.2238 50.5749,29.8808 50.7469,29.6718 C50.9189,29.4618 51.0629,29.2878 51.0659,29.2828 C51.0689,29.2788 51.0779,29.2638 51.0799,29.2588 C51.0819,29.2548 51.0879,29.2378 51.0889,29.2338 C51.0909,29.2288 51.0939,29.2108 51.0949,29.2058 C51.0949,29.2008 51.0959,29.1968 51.0959,29.1878 L51.0959,26.1128 L51.0959,19.9648 L51.0959,13.8158 L51.0959,7.6668 C51.0959,6.5598 50.9879,5.4978 50.8299,4.8158 C51.1329,5.0848 51.6269,5.5218 51.9289,5.7898 C52.2309,6.0588 52.4789,7.6618 52.4789,9.3528 L52.4789,15.5018 L52.4789,21.6498 L52.4789,27.7988 L52.4789,30.8728 C52.4789,30.8828 52.4779,30.8868 52.4779,30.8918 C52.4769,30.8968 52.4739,30.9148 52.4729,30.9188 C52.4709,30.9238 52.4649,30.9408 52.4629,30.9448 C52.4609,30.9498 52.4519,30.9648 52.4489,30.9688 C52.4459,30.9728 52.3029,31.1478 52.1299,31.3568 C51.9579,31.5668 51.6759,31.9088 51.5039,32.1188 C51.3309,32.3278 51.0489,32.6698 50.8769,32.8798 C50.7049,33.0888 50.4229,33.4318 50.2509,33.6408 C50.0779,33.8498 50.0779,34.1968 50.2499,34.4098 C50.4229,34.6238 50.7039,34.9738 50.8769,35.1878 C51.0489,35.4018 51.3299,35.7518 51.5029,35.9658 C51.6749,36.1788 51.9569,36.5288 52.1289,36.7428 C52.3009,36.9568 52.4459,37.1448 52.4479,37.1498 C52.4499,37.1548 52.4559,37.1708 52.4569,37.1758 C52.4589,37.1808 52.4649,37.1968 52.4659,37.2018 C52.4679,37.2068 52.4739,37.2238 52.4759,37.2288 C52.4769,37.2328 52.4789,39.2568 52.4789,41.7248 L52.4789,49.8358 L54.2079,49.8358 L54.2079,42.4168 C54.2079,39.9478 54.2059,37.9248 54.2049,37.9198 C54.2029,37.9148 54.1969,37.8988 54.1949,37.8938 C54.1939,37.8888 54.1879,37.8718 54.1859,37.8678 C54.1849,37.8628 54.1789,37.8458 54.1769,37.8408 C54.1749,37.8368 54.0299,37.6488 53.8579,37.4348 C53.6849,37.2208 53.4039,36.8708 53.2319,36.6568 C53.0589,36.4428 52.7779,36.0938 52.6049,35.8798 C52.4329,35.6658 52.1519,35.3158 51.9789,35.1018 C51.8069,34.8878 51.8069,34.5418 51.9799,34.3328 C52.1519,34.1228 52.4339,33.7808 52.6059,33.5708 C52.7779,33.3618 53.0599,33.0198 53.2329,32.8098 C53.4049,32.6008 53.6869,32.2578 53.8589,32.0488 C54.0309,31.8398 54.1749,31.6648 54.1779,31.6608 C54.1809,31.6558 54.1899,31.6408 54.1919,31.6368 C54.1939,31.6318 54.1999,31.6158 54.2019,31.6108 C54.2029,31.6058 54.2059,31.5888 54.2069,31.5838 C54.2069,31.5788 54.2079,31.5748 54.2079,31.5648 L54.2079,28.4908 L54.2079,22.3418 L54.2079,16.1928 L54.2079,10.0448 C54.2079,8.3538 53.9599,6.7508 53.6579,6.4818 C53.3549,6.2138 52.8599,5.7738 52.5569,5.5058 C52.2539,5.2368 51.7589,4.7978 51.4559,4.5288 C51.1539,4.2608 50.6579,3.8208 50.3559,3.5528 C50.2409,3.4508 49.9929,3.3798 49.6799,3.3368 C49.5959,3.2618 49.5139,3.1898 49.4449,3.1278 C49.1419,2.8598 48.6469,2.4198 48.3439,2.1518 C48.0419,1.8828 47.5459,1.4438 47.2439,1.1748 C46.9409,0.9068 45.7879,0.8288 44.6809,1.0018 C43.5749,1.1758 41.7639,1.4598 40.6569,1.6328 C39.5509,1.8068 37.7399,2.0898 36.6329,2.2638 C35.5259,2.4368 33.7159,2.7208 32.6089,2.8938 C31.5019,3.0678 30.5919,3.2098 30.5869,3.2098 C30.5809,3.2108 30.5609,3.2138 30.5559,3.2158 C30.5499,3.2168 30.5319,3.2238 30.5269,3.2268 C30.5209,3.2288 30.5039,3.2398 30.4999,3.2438 C30.4949,3.2468 30.4809,3.2608 30.4769,3.2648 C30.4729,3.2688 30.4609,3.2858 30.4579,3.2908 C30.4549,3.2958 30.4469,3.3138 30.4449,3.3188 C30.4429,3.3248 30.4389,3.3438 30.4379,3.3498 C30.4369,3.3548 30.4359,5.3988 30.4359,7.8798 L30.4359,15.5118 L30.4359,24.5308 L30.4359,32.1628 L30.4359,41.1818 L30.4359,48.8138 L30.4359,49.8358 L37.4699,49.8358 Z" id="Fill-1988"></path>
                </g>
                <g id="Group-2003" transform="translate(0.000000, 51.000000)">
                    <path d="M40.6568,24.1846 C41.7638,24.5416 43.5738,25.1266 44.6808,25.4836 C45.7878,25.8406 46.9408,25.9156 47.2428,25.6486 C47.5458,25.3816 48.0408,24.9456 48.3438,24.6786 C48.6468,24.4116 49.1418,23.9756 49.4448,23.7086 C49.7468,23.4416 50.2428,23.0056 50.5448,22.7386 C50.8478,22.4726 51.0958,20.2346 51.0958,17.7666 L51.0958,8.7916 L51.0958,0.6376 L44.0438,0.6376 L44.0438,5.4266 L44.0438,12.9166 C44.0438,14.9766 43.6738,16.5066 43.2228,16.3176 C42.7708,16.1276 42.0308,15.8166 41.5788,15.6276 C41.3658,15.5386 41.0888,15.4216 40.8088,15.3046 C40.6698,14.6356 40.5818,13.7816 40.5818,12.8796 L40.5818,6.0796 L40.5818,0.6376 L38.8528,0.6376 L38.8528,5.3876 L38.8528,12.1886 C38.8528,13.0736 38.9378,13.9126 39.0738,14.5756 C38.7888,14.4566 38.5078,14.3386 38.2918,14.2476 C37.8398,14.0586 37.4698,12.3726 37.4698,10.5026 L37.4698,3.7016 L37.4698,0.6376 L30.4368,0.6376 L30.4368,8.6346 L30.4368,16.2666 L30.4368,20.7866 C30.4368,20.7926 30.4408,20.8116 30.4418,20.8176 C30.4438,20.8226 30.4508,20.8416 30.4538,20.8466 C30.4558,20.8516 30.4668,20.8686 30.4698,20.8736 C30.4738,20.8776 30.4868,20.8926 30.4918,20.8966 C30.4958,20.9006 30.5118,20.9116 30.5168,20.9146 C30.5218,20.9176 30.5408,20.9256 30.5458,20.9276 C30.5508,20.9296 30.5708,20.9346 30.5758,20.9356 C30.5818,20.9356 31.5018,21.2296 32.6088,21.5866 C33.7158,21.9436 35.5258,22.5286 36.6328,22.8856 C37.7398,23.2426 39.5498,23.8276 40.6568,24.1846" id="Fill-1990"></path>
                    <path d="M25.1797,21.0813 L25.1787,21.0803 L25.1777,21.0783 C25.1767,21.0773 25.1757,21.0753 25.1757,21.0753 C25.1747,21.0743 25.1737,21.0733 25.1737,21.0733 C25.1727,21.0723 25.1717,19.0423 25.1717,16.5623 L25.1717,10.4373 L25.1717,1.4183 L25.1717,0.6373 L23.4427,0.6373 L23.4427,0.7273 L23.4427,9.7453 L23.4427,15.8703 C23.4427,18.3503 23.4437,20.3803 23.4447,20.3813 L23.4457,20.3833 C23.4467,20.3843 23.4477,20.3853 23.4487,20.3863 L23.4497,20.3883 L23.4507,20.3893 C23.4567,20.4023 23.4587,20.4083 23.4607,20.4153 C23.4617,20.4223 23.4667,20.4483 23.4667,20.4553 C23.4667,20.4623 23.4647,20.4883 23.4627,20.4953 C23.4617,20.5023 23.4537,20.5253 23.4497,20.5323 C23.7417,20.6763 24.0357,20.8223 24.2567,20.9313 C24.6847,21.1423 25.0417,21.3153 25.0487,21.3143 C25.0567,21.3143 25.0817,21.3083 25.0887,21.3053 C25.0957,21.3033 25.1177,21.2913 25.1247,21.2873 C25.1307,21.2833 25.1497,21.2653 25.1547,21.2603 C25.1607,21.2543 25.1747,21.2323 25.1787,21.2253 C25.1817,21.2193 25.1907,21.1943 25.1917,21.1873 C25.1937,21.1803 25.1957,21.1543 25.1957,21.1463 C25.1957,21.1393 25.1907,21.1143 25.1887,21.1073 C25.1877,21.0993 25.1857,21.0933 25.1797,21.0813" id="Fill-1991"></path>
                    <path d="M10.9553,3.7267 C10.9403,2.8657 10.9213,1.7667 10.9023,0.6367 L9.1853,0.6367 C9.2003,1.5157 9.2143,2.3517 9.2263,3.0347 C9.2603,5.0467 9.3173,8.3387 9.3513,10.3497 C9.3863,12.3617 9.4133,14.0227 9.4123,14.0277 C9.4113,14.0337 9.4073,14.0527 9.4053,14.0587 C9.4033,14.0637 9.3943,14.0817 9.3913,14.0867 C9.3883,14.0917 9.3763,14.1087 9.3723,14.1127 C9.3683,14.1167 9.3533,14.1307 9.3493,14.1347 C9.3443,14.1377 9.3283,14.1487 9.3223,14.1507 C9.3173,14.1537 9.2993,14.1607 9.2933,14.1627 C9.2903,14.1627 9.2813,14.1647 9.2733,14.1657 C9.5683,14.2857 9.8583,14.4037 10.0823,14.4947 C10.5763,14.6957 10.9853,14.8597 10.9913,14.8587 C10.9973,14.8587 11.0173,14.8557 11.0223,14.8537 C11.0283,14.8527 11.0463,14.8447 11.0513,14.8427 C11.0573,14.8397 11.0733,14.8297 11.0783,14.8257 C11.0823,14.8227 11.0973,14.8087 11.1013,14.8047 C11.1053,14.7997 11.1173,14.7837 11.1203,14.7787 C11.1233,14.7737 11.1323,14.7557 11.1343,14.7497 C11.1363,14.7447 11.1403,14.7257 11.1413,14.7197 C11.1423,14.7137 11.1153,13.0527 11.0803,11.0417 C11.0463,9.0297 10.9893,5.7387 10.9553,3.7267" id="Fill-1992"></path>
                    <path d="M22.0675,18.7039 L22.0665,18.7029 L22.0655,18.7009 C22.0645,18.6999 22.0635,18.6979 22.0625,18.6979 C22.0625,18.6969 22.0615,18.6959 22.0615,18.6959 C22.0605,18.6949 22.0595,16.6649 22.0595,14.1849 L22.0595,8.0599 L22.0595,0.6369 L11.9065,0.6369 C12.1745,1.7109 12.4295,2.7359 12.6355,3.5639 C13.1975,5.8189 14.1165,9.5099 14.6785,11.7649 C15.2395,14.0199 16.0495,16.0379 16.4775,16.2489 C16.9055,16.4609 17.6055,16.8059 18.0335,17.0179 C18.4605,17.2289 19.1615,17.5739 19.5885,17.7859 C20.0165,17.9969 20.7175,18.3429 21.1445,18.5539 C21.5725,18.7649 21.9295,18.9379 21.9365,18.9369 C21.9445,18.9369 21.9695,18.9309 21.9765,18.9279 C21.9835,18.9259 22.0055,18.9139 22.0125,18.9099 C22.0185,18.9059 22.0375,18.8879 22.0425,18.8829 C22.0485,18.8769 22.0625,18.8549 22.0665,18.8479 C22.0695,18.8419 22.0785,18.8169 22.0795,18.8099 C22.0815,18.8029 22.0835,18.7769 22.0835,18.7699 C22.0835,18.7619 22.0785,18.7369 22.0765,18.7299 C22.0755,18.7219 22.0735,18.7159 22.0675,18.7039" id="Fill-1993"></path>
                    <path d="M3.7415,11.9301 C3.7425,11.9301 3.7455,11.9311 3.7465,11.9311 C3.7395,11.9281 3.7325,11.9261 3.7255,11.9231 C3.7325,11.9261 3.7385,11.9291 3.7415,11.9301" id="Fill-1994"></path>
                    <path d="M7.8431,1.3494 C7.8391,1.1284 7.8351,0.8864 7.8311,0.6374 L0.5201,0.6374 L0.5201,2.5424 L0.5201,4.8924 L0.5201,9.4114 C0.5201,9.4174 0.5241,9.4364 0.5251,9.4424 C0.5261,9.4484 0.5341,9.4664 0.5361,9.4714 C0.5381,9.4764 0.5491,9.4934 0.5531,9.4984 C0.5561,9.5034 0.5711,9.5174 0.5751,9.5214 C0.5791,9.5254 0.5961,9.5364 0.6011,9.5394 C0.6061,9.5424 0.6241,9.5504 0.6291,9.5524 C0.6351,9.5544 0.6541,9.5594 0.6601,9.5604 C0.6651,9.5614 1.0851,9.7264 1.5791,9.9264 C2.0731,10.1274 2.8821,10.4564 3.3761,10.6574 C3.8701,10.8574 4.6791,11.1864 5.1731,11.3874 C5.6671,11.5884 6.4761,11.9164 6.9701,12.1174 C7.4641,12.3184 7.8731,12.4824 7.8791,12.4814 C7.8851,12.4814 7.9051,12.4784 7.9101,12.4764 C7.9161,12.4754 7.9341,12.4674 7.9401,12.4654 C7.9451,12.4624 7.9611,12.4524 7.9661,12.4484 C7.9701,12.4454 7.9851,12.4314 7.9891,12.4274 C7.9931,12.4224 8.0051,12.4064 8.0081,12.4014 C8.0111,12.3964 8.0201,12.3784 8.0221,12.3724 C8.0241,12.3674 8.0281,12.3484 8.0291,12.3424 C8.0301,12.3364 8.0031,10.6754 7.9681,8.6644 C7.9341,6.6524 7.8771,3.3614 7.8431,1.3494" id="Fill-1995"></path>
                    <path d="M99.7767,11.3387 C100.8817,10.9037 102.6887,10.1917 103.7937,9.7567 C104.8987,9.3217 106.7057,8.6107 107.8107,8.1757 C108.9157,7.7407 109.8737,7.2407 109.9407,7.0657 C110.0077,6.8897 110.1177,6.6027 110.1847,6.4277 C110.2517,6.2517 110.3607,5.9647 110.4277,5.7897 C110.4947,5.6137 110.6047,5.3267 110.6717,5.1507 C110.7357,4.9827 110.7877,2.9817 110.7927,0.6367 L103.4707,0.6367 C103.3047,1.4097 103.0747,1.9407 102.8207,2.0407 C102.3157,2.2377 101.4907,2.5617 100.9857,2.7587 C100.5927,2.9127 100.0097,3.1417 99.5297,3.3297 C99.5187,3.0567 99.5127,2.7737 99.5127,2.4807 L99.5127,0.6367 L97.7837,0.6367 L97.7837,1.7887 C97.7837,2.6017 97.8327,3.3367 97.9117,3.9637 C97.6947,4.0487 97.4867,4.1307 97.3177,4.1967 C96.8507,4.3787 96.4677,2.8097 96.4117,0.6367 L89.3687,0.6367 L89.3687,2.9207 L89.3687,5.3207 C89.3687,7.8007 89.6147,10.0477 89.9167,10.3147 C90.2177,10.5817 90.7107,11.0187 91.0117,11.2857 C91.3137,11.5517 91.8067,11.9887 92.1077,12.2557 C92.4087,12.5227 92.9017,12.9587 93.2037,13.2257 C93.5047,13.4927 94.6547,13.3557 95.7597,12.9207 C96.8647,12.4857 98.6717,11.7737 99.7767,11.3387" id="Fill-1996"></path>
                    <path d="M90.7973,21.8051 C90.7973,21.8051 90.1663,20.3391 89.3943,18.5471 C88.6233,16.7551 87.3613,13.8231 86.5893,12.0321 C85.8183,10.2401 84.5563,7.3081 83.7843,5.5161 C83.2183,4.2021 82.3903,2.2781 81.6843,0.6371 L80.2523,0.6371 C80.8843,2.1051 81.5673,3.6921 82.0553,4.8241 C82.8273,6.6161 84.0893,9.5481 84.8603,11.3401 C85.6323,13.1321 86.8943,16.0641 87.6653,17.8561 C88.4373,19.6471 89.0683,21.1131 89.0683,21.1131 C89.0723,21.1251 89.0733,21.1311 89.0753,21.1381 C89.0763,21.1451 89.0783,21.1691 89.0773,21.1751 C89.0773,21.1821 89.0733,21.2061 89.0703,21.2131 C89.0683,21.2201 89.0593,21.2431 89.0553,21.2491 C89.0513,21.2551 89.0373,21.2741 89.0323,21.2791 C89.0273,21.2841 89.0083,21.2991 89.0023,21.3031 C88.9963,21.3061 88.9743,21.3171 88.9673,21.3191 C88.9603,21.3211 88.9363,21.3261 88.9293,21.3271 C88.9213,21.3271 88.5563,21.4621 88.1163,21.6251 C87.6773,21.7891 86.9573,22.0581 86.5183,22.2221 C86.0783,22.3851 85.3593,22.6541 84.9193,22.8181 C84.6623,22.9141 84.3103,23.0441 83.9733,23.1701 C84.4203,23.8221 84.8183,24.1921 85.0503,24.1051 C85.4893,23.9411 86.2093,23.6731 86.6483,23.5091 C87.0883,23.3451 87.8073,23.0771 88.2473,22.9131 C88.6863,22.7491 89.4063,22.4811 89.8453,22.3171 C90.2853,22.1531 90.6503,22.0191 90.6583,22.0181 C90.6653,22.0181 90.6893,22.0131 90.6963,22.0111 C90.7033,22.0081 90.7253,21.9981 90.7313,21.9941 C90.7373,21.9911 90.7563,21.9761 90.7613,21.9711 C90.7663,21.9661 90.7803,21.9471 90.7843,21.9401 C90.7883,21.9341 90.7973,21.9111 90.7993,21.9051 C90.8023,21.8981 90.8053,21.8741 90.8063,21.8671 C90.8073,21.8601 90.8053,21.8361 90.8043,21.8291 C90.8023,21.8221 90.8013,21.8171 90.7973,21.8051" id="Fill-1997"></path>
                    <path d="M112.1765,0.6371 L112.1765,1.7561 L112.1765,2.0081 C112.1765,4.4881 112.1215,6.6611 112.0545,6.8371 C111.9875,7.0121 111.8785,7.2991 111.8115,7.4751 C111.7445,7.6501 111.6345,7.9381 111.5675,8.1131 C111.5005,8.2891 111.3915,8.5761 111.3245,8.7511 C111.2575,8.9271 110.2985,9.4261 109.1935,9.8611 C108.0895,10.2961 106.2815,11.0081 105.1765,11.4431 C104.0725,11.8781 102.2645,12.5891 101.1595,13.0241 C100.0555,13.4591 98.2475,14.1711 97.1425,14.6061 C96.6215,14.8111 96.0925,14.9481 95.6445,15.0091 C95.8825,15.2201 96.1335,15.4421 96.3155,15.6031 C96.6165,15.8701 97.7675,15.7321 98.8715,15.2981 C99.9765,14.8631 101.7845,14.1511 102.8885,13.7161 C103.9935,13.2811 105.8015,12.5691 106.9055,12.1341 C108.0105,11.6991 109.8185,10.9881 110.9225,10.5531 C112.0275,10.1181 112.9865,9.6181 113.0535,9.4431 C113.1205,9.2671 113.2295,8.9801 113.2965,8.8051 C113.3635,8.6291 113.4735,8.3421 113.5405,8.1671 C113.6075,7.9911 113.7165,7.7041 113.7835,7.5281 C113.8505,7.3531 113.9055,5.1801 113.9055,2.7001 L113.9055,2.4481 L113.9055,0.6371 L112.1765,0.6371 Z" id="Fill-1998"></path>
                    <path d="M52.4788,0.6371 L52.4788,1.5021 L52.4788,10.4771 L52.4788,19.4521 C52.4788,21.9201 52.2308,24.1581 51.9288,24.4251 C51.6258,24.6911 51.1308,25.1281 50.8278,25.3941 C50.5248,25.6611 50.0298,26.0981 49.7268,26.3641 C49.4248,26.6311 48.9288,27.0671 48.6268,27.3341 C48.3238,27.6011 47.1708,27.5271 46.0638,27.1691 C44.9578,26.8121 43.1468,26.2281 42.0398,25.8701 C40.9338,25.5131 39.1228,24.9281 38.0158,24.5711 C36.9098,24.2141 35.0988,23.6291 33.9918,23.2721 C33.8398,23.2231 33.6928,23.1751 33.5488,23.1291 L33.5488,23.1641 C33.5498,23.1691 33.5528,23.1891 33.5548,23.1951 C33.5558,23.2001 33.5628,23.2191 33.5658,23.2241 C33.5678,23.2291 33.5788,23.2461 33.5818,23.2511 C33.5858,23.2551 33.5998,23.2701 33.6038,23.2741 C33.6078,23.2771 33.6248,23.2891 33.6298,23.2921 C33.6348,23.2951 33.6528,23.3031 33.6578,23.3051 C33.6638,23.3071 33.6828,23.3111 33.6878,23.3121 C33.6938,23.3131 34.6148,23.6061 35.7208,23.9641 C36.8278,24.3211 38.6388,24.9051 39.7448,25.2631 C40.8518,25.6201 42.6628,26.2051 43.7688,26.5621 C44.8758,26.9191 46.6868,27.5041 47.7928,27.8611 C48.8998,28.2181 50.0528,28.2921 50.3558,28.0261 C50.6578,27.7591 51.1538,27.3221 51.4558,27.0561 C51.7588,26.7891 52.2538,26.3531 52.5568,26.0861 C52.8598,25.8191 53.3548,25.3831 53.6578,25.1161 C53.9598,24.8491 54.2078,22.6121 54.2078,20.1441 L54.2078,11.1681 L54.2078,2.1931 L54.2078,0.6371 L52.4788,0.6371 Z" id="Fill-1999"></path>
                    <path d="M86.7333,19.9398 C87.1733,19.7758 87.5383,19.6418 87.5453,19.6408 C87.5533,19.6408 87.5773,19.6358 87.5843,19.6338 C87.5913,19.6308 87.6133,19.6208 87.6193,19.6168 C87.6253,19.6138 87.6433,19.5988 87.6493,19.5938 C87.6543,19.5888 87.6683,19.5688 87.6723,19.5628 C87.6763,19.5568 87.6853,19.5338 87.6873,19.5278 C87.6893,19.5208 87.6933,19.4968 87.6943,19.4898 C87.6943,19.4828 87.6933,19.4588 87.6913,19.4518 C87.6903,19.4448 87.6893,19.4398 87.6853,19.4278 C87.6853,19.4278 87.0543,17.9618 86.2823,16.1698 C85.5113,14.3778 84.2493,11.4458 83.4773,9.6548 C82.7063,7.8628 81.4433,4.9308 80.6723,3.1388 C80.3693,2.4348 79.9903,1.5548 79.5953,0.6368 L72.0603,0.6368 C72.6143,1.9428 73.1703,3.2528 73.5903,4.2428 C74.4213,6.1988 75.7793,9.3998 76.6103,11.3558 C77.4403,13.3128 78.7983,16.5128 79.6293,18.4698 C80.4593,20.4258 81.4983,21.8918 81.9383,21.7278 C82.3773,21.5638 83.0973,21.2958 83.5363,21.1318 C83.9763,20.9678 84.6953,20.6998 85.1343,20.5358 C85.5743,20.3718 86.2933,20.1038 86.7333,19.9398" id="Fill-2000"></path>
                    <path d="M66.1562,27.3667 C66.6932,27.2607 67.1372,27.1737 67.1422,27.1727 C67.1482,27.1727 67.1682,27.1687 67.1732,27.1677 C67.1792,27.1657 67.1972,27.1587 67.2032,27.1567 C67.2082,27.1537 67.2252,27.1427 67.2292,27.1397 C67.2342,27.1367 67.2482,27.1227 67.2522,27.1187 C67.2562,27.1137 67.2682,27.0977 67.2712,27.0927 C67.2742,27.0877 67.2832,27.0697 67.2852,27.0637 C67.2872,27.0587 67.2922,27.0397 67.2932,27.0337 C67.2942,27.0277 67.2952,25.1257 67.2952,22.8177 C67.2952,20.5107 67.3472,10.5567 67.3472,8.2497 L67.3472,7.2257 L67.3472,7.1827 L67.3472,6.1587 L67.3472,0.6367 L59.2422,0.6367 L59.2462,6.7157 C59.2482,9.1957 59.1982,18.7607 59.2002,21.2407 L59.2052,24.1617 C59.2062,25.9537 59.2072,27.2037 59.2072,27.4967 L59.2072,27.3897 C59.2072,26.6847 59.2032,25.7597 59.2022,25.7287 C59.2012,25.6987 59.1972,26.3377 59.1962,26.6307 C59.1962,26.9237 59.1982,27.9157 59.1992,28.1807 C59.2002,28.4467 59.2122,28.6747 59.2162,28.6787 C59.2212,28.6827 59.2382,28.6937 59.2432,28.6967 C59.2482,28.6997 59.2662,28.7077 59.2712,28.7097 C59.2772,28.7117 59.2962,28.7167 59.3022,28.7167 C59.3082,28.7177 59.7622,28.6317 60.2992,28.5257 C60.8362,28.4197 61.7152,28.2457 62.2512,28.1397 C62.7882,28.0327 63.6672,27.8597 64.2042,27.7527 C64.7412,27.6467 65.6192,27.4727 66.1562,27.3667" id="Fill-2001"></path>
                    <path d="M68.73,0.6371 L68.73,7.8451 L68.73,8.8681 L68.73,8.9121 L68.73,9.9351 C68.73,12.2421 68.678,22.1961 68.678,24.5041 C68.678,26.8111 68.677,28.7141 68.676,28.7191 C68.675,28.7251 68.67,28.7441 68.668,28.7501 C68.666,28.7551 68.658,28.7731 68.655,28.7781 C68.651,28.7831 68.64,28.8001 68.636,28.8041 C68.632,28.8081 68.617,28.8221 68.613,28.8251 C68.608,28.8291 68.591,28.8391 68.586,28.8421 C68.581,28.8441 68.562,28.8521 68.557,28.8531 C68.551,28.8551 68.532,28.8581 68.526,28.8591 C68.52,28.8591 68.076,28.9461 67.539,29.0521 C67.003,29.1591 66.124,29.3321 65.587,29.4391 C65.05,29.5451 64.172,29.7191 63.635,29.8251 C63.277,29.8961 62.769,29.9961 62.31,30.0871 C62.31,30.2901 62.311,30.4681 62.311,30.5581 C62.313,30.8241 62.324,31.0521 62.329,31.0561 C62.333,31.0601 62.35,31.0711 62.355,31.0741 C62.36,31.0771 62.378,31.0851 62.384,31.0871 C62.389,31.0891 62.408,31.0941 62.414,31.0941 C62.42,31.0951 62.875,31.0091 63.412,30.9031 C63.949,30.7971 64.827,30.6231 65.364,30.5171 C65.901,30.4101 66.779,30.2361 67.316,30.1301 C67.853,30.0241 68.732,29.8501 69.268,29.7441 C69.805,29.6381 70.249,29.5511 70.255,29.5501 C70.261,29.5501 70.28,29.5461 70.286,29.5451 C70.291,29.5431 70.31,29.5361 70.315,29.5341 C70.32,29.5311 70.337,29.5201 70.342,29.5171 C70.346,29.5131 70.361,29.5001 70.365,29.4951 C70.369,29.4911 70.38,29.4751 70.384,29.4701 C70.387,29.4651 70.395,29.4471 70.397,29.4411 C70.399,29.4361 70.404,29.4171 70.405,29.4111 C70.406,29.4051 70.407,27.5021 70.407,25.1951 C70.407,22.8881 70.459,12.9341 70.459,10.6271 L70.459,9.6031 L70.459,9.5601 L70.459,8.5361 L70.459,0.6371 L68.73,0.6371 Z" id="Fill-2002"></path>
                </g>
            </g>
        </g>
    </g>
</svg>