<?xml version="1.0" encoding="UTF-8"?>
<svg width="170px" height="64px" viewBox="0 0 170 64" version="1.1" xmlns="http://www.w3.org/2000/svg" xmlns:xlink="http://www.w3.org/1999/xlink">
    <!-- Generator: Sketch 42 (36781) - http://www.bohemiancoding.com/sketch -->
    <title>sticker_aftereight_white</title>
    <desc>Created with Sketch.</desc>
    <defs></defs>
    <g id="Page-1" stroke="none" stroke-width="1" fill="none" fill-rule="evenodd">
        <g id="stickers-black" transform="translate(-492.000000, -47.000000)">
            <g id="sticker_aftereight_white" transform="translate(492.000000, 47.000000)">
                <path d="M166.460896,25.0527056 C167.714582,25.0527056 168.730896,24.036392 168.730896,22.7827056 C168.730896,21.5290193 167.714582,20.5127056 166.460896,20.5127056 C165.207209,20.5127056 164.190896,21.5290193 164.190896,22.7827056 C164.190896,24.036392 165.207209,25.0527056 166.460896,25.0527056" id="Shape"></path>
                <path d="M11.7508957,39.3227056 C11.8908957,39.3227056 11.8608957,39.3927056 11.7508957,39.4927056 C10.6046774,41.423142 8.99642659,43.0382657 7.07089568,44.1927056 C4.32089568,45.5927056 2.22089568,45.1227056 1.19089568,44.0127056 C0.160895678,42.9027056 0.670895678,41.0127056 1.98089568,40.0127056 C4.05089568,38.4127056 7.51089568,38.4927056 11.7108957,39.3127056 L11.7508957,39.3227056 Z M23.4808957,31.3227056 L17.4808957,31.3227056 C17.1208957,31.3227056 17.2308957,30.8627056 17.3208957,30.6927056 C19.9008957,26.0327056 22.5608957,21.2127056 22.6508957,21.0327056 C22.8508957,20.6027056 23.0608957,20.5527056 23.0908957,21.0327056 C23.0908957,21.2727056 23.4708957,26.4327056 23.7408957,30.7527056 C23.7408957,31.3327056 23.6408957,31.3127056 23.4708957,31.3127056 L23.8608957,32.6427056 C23.9408957,34.6427056 24.0108957,35.9727056 24.0108957,36.1027056 C24.0108957,37.2227056 23.5808957,37.6627056 21.5408957,38.0327056 C21.0808957,38.1127056 21.0308957,38.6427056 21.4208957,38.6427056 C21.8108957,38.6427056 23.8608957,38.7127056 25.0408957,38.7127056 C26.2208957,38.7127056 28.2608957,38.6427056 28.5008957,38.6427056 C28.9308957,38.6427056 28.9608957,38.2027056 28.6008957,38.1027056 C27.6706235,37.8159518 27.0531326,36.9349982 27.1008957,35.9627056 C27.1008957,35.6527056 25.7508957,15.6627056 25.7308957,15.3927056 C25.7308957,14.9027056 25.2108957,14.4627056 24.7308957,15.3927056 C24.1508957,16.5327056 12.9408957,37.4727056 12.3108957,38.6127056 C12.3108957,38.6127056 12.2408957,38.7827056 12.1108957,38.7627056 L11.3908957,38.6127056 C9.68084328,38.2548259 7.93798659,38.0771886 6.19089568,38.0827056 C3.98089568,38.0827056 -0.0691043217,38.9027056 0.000895678306,42.6627056 C0.000895678306,45.0327056 2.27089568,45.6127056 3.59089568,45.6627056 C7.23089568,45.8927056 10.5908957,42.8427056 12.5908957,39.5127056 C12.5908957,39.4127056 12.6808957,39.4127056 12.8208957,39.4427056 C15.6508957,40.0327056 27.1408957,42.3927056 32.9108957,43.5227056 C38.6808957,44.6527056 49.0808957,46.9227056 56.5708957,46.9227056 C65.0008957,46.9227056 69.2408957,43.7027056 69.8108957,40.8627056 C70.0208957,39.7927056 69.4508957,39.4127056 68.7608957,39.3427056 C68.4013406,39.3082187 68.0451794,39.436168 67.7897687,39.6915787 C67.534358,39.9469893 67.4064087,40.3031506 67.4408957,40.6627056 C67.6508957,45.1527056 61.7808957,46.3927056 56.6408957,46.3927056 C49.6408957,46.3927056 37.3408957,43.8927056 33.0608957,43.0327056 C29.3308957,42.2827056 17.4208957,39.9127056 12.9408957,39.0327056 C12.8608957,39.0327056 12.8808957,38.9127056 12.9408957,38.7027056 C13.4708957,37.6427056 14.7208957,35.3127056 16.3408957,32.4327056 C16.6008957,31.9727056 16.7608957,31.9727056 17.4108957,31.9727056 L23.4108957,31.9727056 C23.7208957,31.9727056 23.8308957,32.1027056 23.8508957,32.7127056 L23.4608957,31.3827056 L23.4808957,31.3227056 Z" id="Shape" fill="#FFFFFF"></path>
                <path d="M41.4608957,25.7527056 C40.9008957,28.6527056 40.0708957,33.4227056 39.6408957,35.9327056 C39.4508957,37.0327056 39.5108957,37.4927056 40.1908957,37.4927056 C41.0508957,37.4927056 42.1908957,35.3527056 42.4108957,34.9527056 C42.6308957,34.5527056 42.7608957,34.5327056 42.9408957,34.6227056 C43.1208957,34.7127056 43.0908957,34.8727056 42.9408957,35.2027056 C42.7908957,35.5327056 41.4908957,38.7627056 38.9408957,38.7627056 C36.3908957,38.7627056 36.5608957,36.7627056 36.9408957,34.8727056 C37.4808957,32.2527056 38.0708957,29.2227056 38.6508957,25.7527056 C38.7108957,25.3727056 38.5808957,25.3027056 37.9908957,25.3027056 L35.0908957,25.3027056 C34.9634935,25.2916432 34.8369439,25.3318768 34.7393209,25.4144809 C34.6416979,25.497085 34.5810731,25.6152297 34.5708957,25.7427056 C33.8308957,30.0427056 32.4608957,37.4827056 32.3908957,37.8427056 C32.2708957,38.4527056 32.0908957,38.6327056 31.7808957,38.6327056 L30.0208957,38.6327056 C29.6408957,38.6327056 29.4408957,38.3327056 29.5408957,37.8127056 C29.5908957,37.5427056 30.8908957,30.6627056 31.8008957,25.7427056 C31.8508957,25.4427056 31.7408957,25.3327056 31.4008957,25.2827056 C31.0608957,25.2327056 30.3308957,25.2827056 29.7208957,25.1627056 C29.5208957,25.1627056 29.3908957,25.0427056 29.4108957,24.8527056 C29.4308957,24.6627056 29.4908957,24.6527056 29.7208957,24.6227056 C29.9508957,24.5927056 31.1008957,24.5527056 31.4808957,24.5527056 C31.7892465,24.5591214 32.0583151,24.3447075 32.1208957,24.0427056 C32.4408957,22.3627056 32.6908957,21.0427056 32.8008957,20.5527056 C33.2308957,18.5527056 35.6708957,13.5527056 40.2808957,13.5527056 C43.2808957,13.5527056 43.6108957,15.6427056 43.5908957,16.5527056 C43.6189413,16.9604384 43.4748037,17.3612598 43.1935143,17.6577541 C42.9122249,17.9542483 42.5195392,18.1192676 42.1108957,18.1127056 C41.7101326,18.1153325 41.3274594,17.9460806 41.0597801,17.6478094 C40.7921008,17.3495381 40.6650846,16.9508505 40.7108957,16.5527056 C40.7108957,16.0227056 41.0608957,15.4627056 41.0608957,15.1327056 C41.0608957,14.8027056 40.9008957,14.1327056 39.8608957,14.1327056 C38.2008957,14.1327056 36.8608957,15.3427056 36.2708957,17.3627056 C35.8408957,18.8427056 35.2708957,21.6427056 35.0308957,23.1927056 C34.9665781,23.4699592 34.9165125,23.7503269 34.8808957,24.0327056 C34.8808957,24.2927056 34.8808957,24.5127056 35.1608957,24.5127056 L36.6608957,24.5127056 C37.4392881,24.5353536 38.2073648,24.3303015 38.8708957,23.9227056 C40.2768289,22.8496479 41.3654607,21.4154187 42.0208957,19.7727056 C42.1908957,19.3127056 42.3208957,19.1927056 42.5008957,19.2427056 C42.6808957,19.2927056 42.6408957,19.4727056 42.5708957,19.8427056 C42.3608957,21.0527056 42.0608957,22.5427056 41.8908957,23.6227056 C41.8108957,24.1527056 41.8908957,24.5427056 42.2508957,24.5427056 C42.6108957,24.5427056 44.3208957,24.6027056 44.4608957,24.6227056 C44.8108957,24.6227056 44.8708957,24.8027056 44.8708957,24.9227056 C44.8708957,25.0427056 44.8008957,25.1527056 44.4908957,25.2027056 C44.1808957,25.2527056 42.2008957,25.3227056 41.9908957,25.3527056 C41.7808957,25.3827056 41.5408957,25.3527056 41.4608957,25.7627056 L41.4608957,25.7527056 Z" id="Shape" fill="#FFFFFF"></path>
                <path d="M46.2608957,34.3327056 C46.1008957,35.6927056 47.0708957,37.9827056 49.0808957,38.0427056 C51.0908957,38.1027056 53.0808957,35.3927056 53.7608957,33.6127056 C53.8068395,33.5021378 53.927249,33.4423464 54.043105,33.4725697 C54.1589611,33.5027931 54.2348186,33.6137845 54.2208957,33.7327056 C53.9423106,34.659234 53.5205488,35.5364984 52.9708957,36.3327056 C51.8630803,38.0149098 49.9851082,39.0290147 47.9708957,39.0327056 C46.5995149,39.1258537 45.2546106,38.6228814 44.2808957,37.6527056 C42.3708957,35.6527056 43.0308957,32.3127056 44.3508957,29.5227056 C45.6708957,26.7327056 48.1208957,24.2227056 51.3508957,24.2227056 C53.4208957,24.2227056 54.7108957,25.3727056 54.7108957,27.1527056 C54.6910349,29.1533067 53.6146302,30.9942249 51.8808957,31.9927056 C50.3074654,32.9692545 48.5519032,33.6156825 46.7208957,33.8927056 C46.3308957,33.9627056 46.2608957,34.1027056 46.2308957,34.3427056 L46.2608957,34.3327056 Z M46.8508957,33.0927056 C49.9191839,32.5443032 52.205841,29.955244 52.3708957,26.8427056 C52.3708957,25.4827056 51.9108957,24.8427056 51.0208957,24.8427056 C50.1308957,24.8427056 49.5908957,25.4727056 48.8808957,26.2427056 C47.4959708,28.1408693 46.6432434,30.3745318 46.4108957,32.7127056 C46.4108957,32.8427056 46.4108957,33.1327056 46.8408957,33.0527056 L46.8508957,33.0927056 Z" id="Shape" fill="#FFFFFF"></path>
                <path d="M59.4108957,32.1227056 C58.7408957,35.6427056 58.4808957,37.3127056 58.3508957,37.8527056 C58.2208957,38.3927056 58.0508957,38.6427056 57.7408957,38.6427056 L55.9808957,38.6427056 C55.6008957,38.6427056 55.4008957,38.3427056 55.5008957,37.8227056 C55.5008957,37.5727056 56.5908957,31.9427056 57.5008957,27.1527056 C57.6108957,26.5927056 57.7908957,25.8727056 57.2308957,25.8727056 C56.9208957,25.8727056 56.6208957,26.0227056 56.2308957,26.5327056 C55.8408957,27.0427056 55.6308957,27.3027056 55.5508957,27.3727056 C55.4708957,27.4427056 55.0908957,27.3227056 55.1908957,27.1427056 C55.4008957,26.7627056 56.6108957,24.4927056 58.3408957,24.4927056 C59.012241,24.404 59.6722069,24.7221978 60.0208957,25.3027056 C60.228313,25.6420521 60.3770624,26.0139255 60.4608957,26.4027056 C60.4608957,26.6727056 60.5808957,26.7027056 60.7108957,26.4027056 C61.2668575,25.2883911 62.3525737,24.5344215 63.5908957,24.4027056 C65.4008957,24.4027056 65.7808957,26.2127056 65.5908957,27.4027056 C65.4008957,28.5927056 64.9608957,29.2127056 64.0108957,29.2127056 C63.2901665,29.2648819 62.6596411,28.7320435 62.5908957,28.0127056 C62.5259486,27.4183228 62.7401572,26.8274025 63.1708957,26.4127056 C63.392535,26.2396694 63.5217331,25.9738903 63.5208957,25.6927056 C63.5208957,25.4927056 63.3908957,25.2627056 63.0108957,25.2627056 C62.4008957,25.2627056 61.7708957,25.9027056 61.2008957,26.9927056 C60.3682997,28.585186 59.7816495,30.2945634 59.4608957,32.0627056 L59.4108957,32.1227056 Z" id="Shape" fill="#FFFFFF"></path>
                <path d="M145.480896,31.9227056 C144.950896,34.9227056 144.480896,37.6427056 144.400896,37.8527056 C144.280896,38.4627056 144.100896,38.6427056 143.790896,38.6427056 L142.030896,38.6427056 C141.650896,38.6427056 141.450896,38.3427056 141.550896,37.8227056 C141.600896,37.5527056 143.770896,25.6327056 144.730896,20.7127056 C144.900896,19.8427056 144.810896,18.9827056 144.340896,18.7127056 C143.8266,18.4715828 143.254419,18.3814208 142.690896,18.4527056 C142.230896,18.4527056 142.150896,18.1927056 142.510896,18.1027056 C143.250896,17.9227056 146.510896,16.7727056 147.020896,16.5027056 C147.530896,16.2327056 147.860896,16.1527056 148.020896,16.2027056 C148.180896,16.2527056 148.370896,16.4627056 148.300896,16.8827056 C148.230896,17.3027056 146.670896,26.1527056 146.640896,26.3327056 C146.560896,26.7327056 146.710896,26.7927056 146.870896,26.5627056 C147.713324,25.2267393 149.144834,24.3752697 150.720896,24.2727056 C151.540241,24.2597213 152.318819,24.6293863 152.826649,25.272507 C153.334479,25.9156276 153.513524,26.7587048 153.310896,27.5527056 C153.130896,28.7127056 151.870896,35.4527056 151.790896,35.9027056 C151.660896,36.6727056 151.660896,37.0427056 151.790896,37.2227056 C151.895884,37.3490642 152.047401,37.4277338 152.211155,37.4409094 C152.374909,37.454085 152.537055,37.4006527 152.660896,37.2927056 C153.228398,36.7133746 153.685838,36.0356868 154.010896,35.2927056 C154.160896,34.9427056 154.320896,34.8627056 154.470896,34.9427056 C154.620896,35.0227056 154.560896,35.1827056 154.470896,35.3727056 C154.138044,36.3321123 153.617986,37.2158704 152.940896,37.9727056 C152.42646,38.413591 151.777935,38.6673617 151.100896,38.6927056 C150.387428,38.7174748 149.702285,38.4123907 149.243341,37.8655638 C148.784397,37.3187368 148.602763,36.5910651 148.750896,35.8927056 C148.980896,34.5627056 150.280896,27.6427056 150.350896,27.2327056 C150.480896,26.4627056 150.510896,25.3927056 149.770896,25.3927056 C148.440896,25.3927056 147.460896,26.7827056 146.770896,28.1227056 C146.149094,29.3187215 145.704445,30.5987707 145.450896,31.9227056 L145.480896,31.9227056 Z" id="Shape" fill="#FFFFFF"></path>
                <path d="M155.120896,24.5327056 C155.888883,24.5295731 156.64063,24.311324 157.290896,23.9027056 C158.696829,22.8296479 159.785461,21.3954187 160.440896,19.7527056 C160.610896,19.2927056 160.740896,19.1727056 160.920896,19.2227056 C161.100896,19.2727056 161.060896,19.4527056 160.990896,19.8227056 C160.780896,21.0327056 160.480896,22.5227056 160.310896,23.6027056 C160.230896,24.1327056 160.310896,24.5227056 160.670896,24.5227056 C161.030896,24.5227056 162.740896,24.5827056 162.880896,24.6027056 C163.230896,24.6027056 163.290896,24.7827056 163.290896,24.9027056 C163.290896,25.0227056 163.220896,25.1327056 162.910896,25.1827056 C162.600896,25.2327056 160.620896,25.3027056 160.410896,25.3327056 C160.200896,25.3627056 159.960896,25.3327056 159.880896,25.7427056 C159.320896,28.6427056 158.490896,33.4127056 158.060896,35.9227056 C157.870896,37.0227056 157.930896,37.4827056 158.610896,37.4827056 C159.470896,37.4827056 160.610896,35.3427056 160.830896,34.9427056 C161.050896,34.5427056 161.180896,34.5227056 161.360896,34.6127056 C161.540896,34.7027056 161.510896,34.8627056 161.360896,35.1927056 C161.210896,35.5227056 159.910896,38.7527056 157.360896,38.7527056 C154.810896,38.7527056 154.980896,36.7527056 155.360896,34.8627056 C155.900896,32.2427056 156.490896,29.2127056 157.070896,25.7427056 C157.130896,25.3627056 157.070896,25.2827056 156.470896,25.2527056 C155.870896,25.2227056 155.240896,25.1627056 155.050896,25.1227056 C154.670896,25.0427056 154.620896,24.5627056 155.050896,24.5327056 L155.120896,24.5327056 Z" id="Shape" fill="#FFFFFF"></path>
                <path d="M124.680896,26.7727056 C124.060896,29.7727056 123.500896,32.3027056 123.000896,34.8727056 C122.640896,36.7327056 122.530896,38.7627056 125.000896,38.7627056 C127.130896,38.7627056 127.810896,36.2027056 127.900896,35.9127056 C127.990896,35.6227056 127.970896,35.4027056 127.830896,35.3327056 C127.690896,35.2627056 127.540896,35.2727056 127.350896,35.6627056 C126.860896,36.6627056 126.470896,37.2227056 126.050896,37.3127056 C125.630896,37.4027056 125.450896,37.0327056 125.640896,35.9327056 C126.050896,33.5727056 126.850896,30.4227056 127.530896,27.3827056 C127.820896,26.0927056 127.790896,24.6427056 126.440896,24.3827056 C125.170641,24.1944209 123.915277,24.8062123 123.280896,25.9227056 C122.914747,26.4367945 122.653129,27.0177897 122.510896,27.6327056 C122.430896,27.9827056 122.740896,28.0927056 122.920896,27.7027056 C123.154221,27.0406634 123.624461,26.4884872 124.240896,26.1527056 C124.700896,26.0027056 124.810896,26.1527056 124.680896,26.7927056 L124.680896,26.7727056 Z" id="Shape" fill="#FFFFFF"></path>
                <path d="M126.910896,22.1527056 C127.680896,22.3627056 128.530896,21.6927056 128.820896,20.6527056 C129.183989,19.7851258 128.800827,18.7853814 127.950896,18.3827056 C127.180896,18.1727056 126.330896,18.8427056 126.040896,19.8827056 C125.677802,20.7502854 126.060964,21.7500299 126.910896,22.1527056 L126.910896,22.1527056 Z" id="Shape" fill="#FFFFFF"></path>
                <path d="M117.160896,18.6227056 C114.260896,18.6227056 112.430896,18.4727056 111.350896,18.4727056 C110.270896,18.4727056 108.890896,18.5327056 108.350896,18.5927056 C107.810896,18.6527056 107.640896,19.0527056 108.140896,19.0827056 C109.140896,19.1427056 111.050896,19.4927056 110.580896,22.0827056 C110.170896,24.3027056 108.420896,33.7427056 108.290896,34.3327056 C107.860896,36.3327056 107.020896,37.3927056 105.790896,37.6627056 C105.160896,37.7927056 104.630896,37.8827056 104.470896,37.9427056 C104.120896,38.0727056 104.270896,38.4227056 104.800896,38.4227056 C105.330896,38.4227056 108.160896,38.5527056 109.050896,38.5527056 C109.940896,38.5527056 113.560896,38.4227056 114.350896,38.4227056 L120.000896,38.4227056 C120.400896,38.4227056 120.410896,38.4227056 120.490896,38.0427056 C120.570896,37.6627056 121.680896,33.0427056 121.790896,32.5927056 C121.970896,31.8727056 121.540896,31.8327056 121.350896,32.2627056 C120.740631,33.5632811 119.985877,34.7910136 119.100896,35.9227056 C117.89774,37.2800576 116.129703,37.997629 114.320896,37.8627056 C112.640896,37.8627056 110.700896,37.4327056 111.090896,34.9327056 C111.480896,32.4327056 112.090896,29.3227056 112.210896,28.9327056 C112.330896,28.5427056 112.440896,28.3227056 112.930896,28.3227056 L114.630896,28.3227056 C115.580958,28.213914 116.486247,28.7546294 116.840896,29.6427056 C117.158374,30.6710997 117.287115,31.748461 117.220896,32.8227056 C117.220896,33.4727056 117.500896,33.5527056 117.650896,32.8227056 C117.860896,31.8227056 119.220896,24.2027056 119.280896,23.8827056 C119.340896,23.5627056 119.120896,23.3427056 119.000896,23.6527056 C118.634076,24.5473492 118.153448,25.390969 117.570896,26.1627056 C116.877045,27.12164 115.754069,27.6756414 114.570896,27.6427056 L112.960896,27.6427056 C112.630896,27.6427056 112.500896,27.4827056 112.580896,27.0027056 C112.660896,26.5227056 113.580896,21.7827056 113.580896,21.4727056 C113.740896,20.4027056 114.680896,19.2527056 117.140896,19.2527056 C119.600896,19.2527056 121.220896,20.4027056 121.550896,21.3927056 C121.741178,22.3806823 121.795013,23.3900943 121.710896,24.3927056 C121.710896,24.9227056 121.970896,24.9327056 122.150896,24.4727056 C122.410896,23.8127056 123.010896,20.3527056 123.150896,19.6927056 C123.300896,18.6927056 123.380896,18.4627056 122.510896,18.4927056 C120.730896,18.5627056 119.710896,18.5727056 117.130896,18.5727056 L117.160896,18.6227056 Z" id="Shape" fill="#FFFFFF"></path>
                <path d="M135.470896,41.5627056 C135.397299,41.7908934 135.310486,42.0146049 135.210896,42.2327056 C134.268501,44.6632742 131.885704,46.2263566 129.280896,46.1227056 C127.010896,46.1227056 126.070896,44.7727056 126.070896,43.7227056 C126.070896,42.3727056 127.070896,40.6627056 130.170896,40.4927056 C131.939743,40.5195608 133.6938,40.8197745 135.370896,41.3827056 C135.413565,41.3876211 135.451053,41.4132956 135.471058,41.4513045 C135.491063,41.4893135 135.491002,41.5347503 135.470896,41.5727056 L135.470896,41.5627056 Z M135.530896,40.8027056 C135.120896,40.6727056 134.940896,40.6227056 134.650896,40.5427056 C133.236782,40.1335914 131.772973,39.9215915 130.300896,39.9127056 C126.880896,40.1127056 125.460896,41.9127056 125.460896,43.7027056 C125.460896,45.4927056 127.300896,46.6327056 129.280896,46.6327056 C132.549973,46.5552726 135.558985,44.8326132 137.280896,42.0527056 C137.280896,41.9927056 137.370896,41.9727056 137.470896,42.0527056 C139.530896,42.7127056 141.470896,43.4227056 142.930896,43.9427056 C146.590896,45.2227056 152.120896,46.9427056 156.800896,46.9427056 C161.480896,46.9427056 164.240896,45.8827056 165.800896,44.8327056 C167.510896,43.6427056 169.050896,41.8327056 169.150896,40.3227056 C169.220896,39.2727056 168.650896,38.9427056 167.990896,38.9427056 C167.661455,38.9254672 167.340045,39.0481077 167.105826,39.2804223 C166.871607,39.512737 166.746347,39.8331348 166.760896,40.1627056 C166.793834,40.8925884 166.674644,41.6213464 166.410896,42.3027056 C164.950896,45.2227056 162.240896,46.4227056 157.010896,46.4227056 C153.369829,46.3298536 149.764558,45.6789487 146.320896,44.4927056 C143.570896,43.6727056 140.420896,42.4927056 137.900896,41.6427056 C137.760896,41.5827056 137.730896,41.5027056 137.790896,41.3727056 C137.930896,41.0727056 138.070896,40.8527056 138.220896,40.5327056 C139.920896,36.7827056 141.560896,26.8527056 141.730896,25.8727056 C141.900896,24.8927056 141.730896,24.5027056 141.270896,24.7527056 C140.855776,25.022181 140.383002,25.1900503 139.890896,25.2427056 C138.540896,25.2427056 138.510896,24.3527056 136.370896,24.3527056 C131.460896,24.3527056 128.600896,30.8127056 128.600896,34.1327056 C128.600896,37.1927056 130.250896,38.7127056 132.220896,38.7127056 C133.778004,38.7246589 135.264758,38.0650942 136.300896,36.9027056 C136.720896,36.3327056 136.890896,36.3727056 136.780896,36.9827056 C136.700896,37.4027056 136.310896,39.2427056 135.870896,40.7427056 C135.870896,40.8527056 135.790896,40.9327056 135.640896,40.8827056 L137.590896,32.1327056 C136.590896,35.9527056 134.990896,37.7627056 133.240896,37.2727056 C131.490896,36.7827056 131.510896,34.0827056 132.190896,31.1427056 C133.190896,26.9927056 134.860896,24.4227056 137.060896,25.0827056 C139.260896,25.7427056 138.340896,29.2127056 137.590896,32.0827056 L135.570896,40.8127056 L135.530896,40.8027056 Z" id="Shape" fill="#FFFFFF"></path>
                <path d="M165.420896,21.4227056 L166.670896,21.4227056 C167.100896,21.4227056 167.520896,21.5027056 167.560896,22.1327056 C167.597025,22.4206276 167.449152,22.7003874 167.190896,22.8327056 C167.480896,23.0127056 167.510896,23.0827056 167.510896,23.5427056 C167.510896,24.0027056 167.510896,24.0227056 167.660896,24.1127056 L167.660896,24.2027056 L167.230896,24.2027056 C167.186973,24.0906663 167.160009,23.9727014 167.150896,23.8527056 C167.150896,23.5227056 167.280896,23.0127056 166.700896,23.0127056 L165.790896,23.0127056 L165.790896,24.2127056 L165.430896,24.2127056 L165.430896,21.4227056 L165.420896,21.4227056 Z M165.780896,21.7427056 L165.780896,22.7427056 L166.680896,22.7427056 C166.920896,22.7427056 167.150896,22.6827056 167.190896,22.3227056 C167.230896,21.9627056 166.900896,21.7927056 166.670896,21.7927056 L165.780896,21.7427056 Z" id="Shape" fill="#FFFFFF"></path>
                <path d="M99.2408957,25.6227056 C100.53478,25.0825114 101.743914,24.3583781 102.830896,23.4727056 C104.220896,22.3727056 105.230896,21.4727056 105.720896,21.1627056 C106.210896,20.8527056 106.780896,20.3327056 107.720896,19.6627056 C108.315289,19.2865413 108.853886,18.8287337 109.320896,18.3027056 C109.550872,17.999419 109.661215,17.6221163 109.630896,17.2427056 C109.682812,16.8808171 109.637958,16.5116342 109.500896,16.1727056 C109.170345,15.8134732 108.781555,15.5125838 108.350896,15.2827056 C107.956193,15.1221145 107.504248,15.2039322 107.190896,15.4927056 C106.956129,15.6845099 106.747667,15.906421 106.570896,16.1527056 C106.314294,16.2738421 106.139791,16.5204226 106.110896,16.8027056 C106.086968,17.2479908 106.137667,17.6941428 106.260896,18.1227056 C105.881212,18.5247233 105.438793,18.8624479 104.950896,19.1227056 C104.240896,19.4727056 101.570896,20.4327056 100.350896,21.0227056 L98.8908957,21.7127056 C99.1792746,22.7584567 99.3272394,23.8379272 99.3308957,24.9227056 C99.2808957,25.1427056 99.2508957,25.3827056 99.2408957,25.6227056 Z" id="Shape" fill="#FFFFFF" fill-rule="nonzero"></path>
                <path d="M118.370896,53.0027056 C118.066035,52.89291 117.726873,52.9376348 117.460896,53.1227056 C116.911789,53.4815329 116.39932,53.8935175 115.930896,54.3527056 C115.537115,54.7439785 115.072081,55.0562636 114.560896,55.2727056 C114.160896,55.4227056 113.380896,55.5827056 112.960896,55.7127056 C112.642789,55.838399 112.302865,55.8995854 111.960896,55.8927056 C111.673125,55.8418578 111.378667,55.8418578 111.090896,55.8927056 C110.72346,55.5009372 110.388991,55.0795062 110.090896,54.6327056 C109.790896,54.0927056 108.150896,51.7727056 107.430896,50.5327056 C106.710896,49.2927056 104.820896,46.2227056 104.160896,45.0727056 C103.610257,44.1656689 103.112753,43.2274231 102.670896,42.2627056 C102.52115,41.8683664 102.326538,41.4925627 102.090896,41.1427056 C101.903169,40.8905939 101.651004,40.6936979 101.360896,40.5727056 C101.150896,40.4627056 100.820896,40.2027056 100.040896,39.6627056 C99.2608957,39.1227056 98.6408957,38.6627056 98.0408957,38.2727056 C98.0408957,37.9727056 97.8208957,37.7627056 97.7008957,37.6427056 C97.4291322,37.4538168 97.1331298,37.3024519 96.8208957,37.1927056 C96.4308957,37.0227056 96.0208957,36.7727056 95.4708957,36.5027056 C95.3041976,36.3513709 95.1061545,36.2386912 94.8908957,36.1727056 C94.7467097,36.0101907 94.5895231,35.8596929 94.4208957,35.7227056 C94.1632989,35.5217393 93.89271,35.3380061 93.6108957,35.1727056 C88.5064999,38.4682251 81.7556729,37.5093008 77.7708957,32.9227056 C77.5346809,33.2636734 77.3176769,33.6175569 77.1208957,33.9827056 C76.8881477,34.3639184 76.7065884,34.7741078 76.5808957,35.2027056 C76.1768932,36.2551297 75.7127961,37.2834888 75.1908957,38.2827056 C74.8208957,38.8827056 74.4208957,39.5327056 74.0208957,40.0827056 C73.4608957,40.8627056 73.5608957,40.9427056 73.5508957,41.2327056 C73.3308957,41.4727056 72.3808957,42.7827056 71.8808957,43.4227056 C71.3808957,44.0627056 70.6608957,45.1027056 70.0908957,45.7127056 C68.7566088,45.294993 67.3549214,45.1354789 65.9608957,45.2427056 C64.2173902,45.3330368 62.4696737,45.2996197 60.7308957,45.1427056 C59.2508957,44.9627056 58.2508957,44.7727056 57.4008957,44.6827056 C56.5508957,44.5927056 55.9008957,44.5127056 55.4008957,44.4127056 C54.9479083,44.3079113 54.5241819,44.1028824 54.1608957,43.8127056 C53.9608957,43.6627056 53.5208957,43.3227056 53.1608957,43.0327056 C52.7091283,42.7164689 52.2140047,42.467223 51.6908957,42.2927056 C51.2708957,42.2127056 51.0808957,42.1327056 50.8208957,42.2127056 C50.6808957,42.4727056 49.9208957,43.8627056 49.4608957,44.8027056 C49.0008957,45.7427056 47.9608957,47.6327056 47.5508957,48.3827056 C47.0515299,49.3055369 46.6074146,50.2572125 46.2208957,51.2327056 C46.0327309,51.7432878 45.9019271,52.2732108 45.8308957,52.8127056 C45.9180154,52.9577821 46.0336855,53.0836584 46.1708957,53.1827056 C46.4555385,53.3021554 46.7762528,53.3021554 47.0608957,53.1827056 C47.318679,52.997637 47.5596149,52.7901644 47.7808957,52.5627056 C47.9008957,52.4327056 48.3208957,52.0927056 48.5308957,51.8927056 C48.7408957,51.6927056 49.8108957,50.5427056 50.3308957,50.1027056 C50.8592077,49.605255 51.4315526,49.1567509 52.0408957,48.7627056 C52.4408957,48.5827056 52.9208957,48.3327056 53.4308957,48.1427056 C54.6263987,48.1178986 55.8216021,48.2049442 57.0008957,48.4027056 C59.5586254,48.9681892 62.0853445,49.6657906 64.5708957,50.4927056 C66.122631,51.0134329 67.7304313,51.3490906 69.3608957,51.4927056 C70.1208957,51.4927056 71.2508957,51.6027056 71.7308957,51.5927056 C72.1832876,51.5521781 72.6258958,51.4373026 73.0408957,51.2527056 C73.4463773,51.0066452 73.8221845,50.7147235 74.1608957,50.3827056 C74.5808957,50.0827056 75.6908957,49.3227056 77.1608957,48.2127056 C78.6308957,47.1027056 79.9808957,45.7827056 80.4708957,45.4327056 C80.6308957,45.5127056 80.9408957,45.6027056 81.0908957,45.4327056 C81.2408957,45.2627056 81.9508957,44.8427056 82.5408957,44.4327056 C83.2264508,43.874477 83.8500309,43.2441917 84.4008957,42.5527056 C84.9608957,41.8827056 85.6108957,41.1527056 85.6108957,41.1527056 C86.0288655,41.2442606 86.4373225,41.3748329 86.8308957,41.5427056 C87.3290589,41.8442611 87.8507534,42.1051083 88.3908957,42.3227056 C88.9408957,42.5827056 89.7608957,43.1027056 90.2808957,43.3227056 C90.8008957,43.5427056 91.4108957,43.9127056 91.5508957,43.9527056 C91.6908957,43.9927056 91.8008957,43.9527056 92.0608957,43.7627056 C92.2358983,43.6332962 92.3967857,43.4858162 92.5408957,43.3227056 C92.5408957,43.3227056 92.6908957,43.3927056 93.8408957,43.7827056 C94.6760273,44.0761682 95.4772761,44.4583538 96.2308957,44.9227056 C96.7890406,45.181352 97.2585954,45.5987341 97.5808957,46.1227056 C98.1945865,47.0991772 98.8622913,48.0406409 99.5808957,48.9427056 C100.710896,50.3427056 103.400896,53.0527056 104.710896,54.5727056 C106.020896,56.0927056 107.850896,58.5727056 108.350896,59.2227056 C108.397827,59.644823 108.537861,60.0512624 108.760896,60.4127056 C109.069083,61.0321728 109.459253,61.6073369 109.920896,62.1227056 C110.31808,62.5203785 110.735289,62.897535 111.170896,63.2527056 C111.430896,63.4327056 111.550896,63.6127056 111.930896,63.4527056 C112.505021,62.961371 112.99189,62.3764518 113.370896,61.7227056 C113.950773,60.7941554 114.592209,59.9054987 115.290896,59.0627056 C116.010896,58.1927056 116.700896,57.2127056 117.570896,55.9627056 C118.136453,55.2684396 118.53656,54.4545473 118.740896,53.5827056 C118.780896,53.2627056 118.710896,53.1627056 118.370896,53.0027056 Z" id="Shape" fill="#FFFFFF" fill-rule="nonzero"></path>
                <path d="M77.6308957,32.7427056 C77.5108957,32.6027056 77.4008957,32.4527056 77.2908957,32.3027056 L77.2908957,32.5727056 L77.6308957,32.7427056 Z" id="Shape" fill="#FFFFFF" fill-rule="nonzero"></path>
                <path d="M66.7608957,26.9227056 C66.9308957,28.0427056 67.1508957,30.2527056 67.2208957,30.8427056 C67.3020411,31.2542869 67.3189079,31.6759581 67.2708957,32.0927056 C67.182226,32.4422139 67.0477268,32.7784619 66.8708957,33.0927056 C66.6815851,33.3902204 66.5938639,33.7411053 66.6208957,34.0927056 C66.7150371,34.4138241 66.8602253,34.7177065 67.0508957,34.9927056 C67.0302231,35.1905691 67.0612331,35.3904114 67.1408957,35.5727056 C67.2308957,35.8027056 67.4708957,36.2227056 67.6108957,36.4927056 C67.6940333,36.728471 67.9210952,36.8825487 68.1708957,36.8727056 C68.3968981,36.969805 68.6579351,36.935256 68.8508957,36.7827056 C69.0608957,36.6227056 69.5908957,36.1127056 70.0208957,35.7027056 C70.4508957,35.2927056 70.3308957,35.0627056 70.2908957,34.4727056 C70.2425053,33.8981416 70.1590161,33.3270753 70.0408957,32.7627056 C69.9167983,31.9587503 69.8932841,31.1424715 69.9708957,30.3327056 C70.0408957,29.3327056 70.1608957,26.9827056 70.1908957,25.7427056 C70.2208957,24.5027056 70.1908957,22.5827056 70.1908957,22.0427056 C70.1908957,21.5027056 70.1908957,21.2227056 70.7508957,21.0427056 C71.3108957,20.8627056 72.6608957,20.3527056 73.5508957,19.9027056 C74.4408957,19.4527056 75.3208957,19.0427056 75.3208957,19.0427056 C75.3489767,19.2049674 75.4863708,19.3257076 75.6508957,19.3327056 C75.7808957,19.3327056 76.0608957,19.2027056 76.3608957,19.0927056 C78.927728,14.3542578 84.2897579,11.8498123 89.5708957,12.9227056 L89.9808957,12.7527056 C90.1893786,12.6437632 90.3813017,12.5057133 90.5508957,12.3427056 C90.8056531,12.1086172 91.0010368,11.8172555 91.1208957,11.4927056 C91.2508957,11.1027056 91.5108957,10.5627056 91.6308957,10.2327056 C91.8047223,9.75048278 92.008451,9.27956893 92.2408957,8.82270564 C92.4619882,8.38777021 92.64921,7.93643207 92.8008957,7.47270564 C93.074929,6.92022737 93.308866,6.34875268 93.5008957,5.76270564 C93.6683438,5.07947412 93.7190587,4.37284706 93.6508957,3.67270564 C93.5289822,3.07450485 93.3341961,2.49350503 93.0708957,1.94270564 C92.8908957,1.54270564 92.7008957,0.782705642 92.1508957,0.472705642 C91.649659,0.188555675 91.0867918,0.0306782874 90.5108957,0.0127056422 C90.0153101,-0.0210697165 89.5174332,0.0125706154 89.0308957,0.112705642 C88.4810974,0.268108758 87.970067,0.537251418 87.5308957,0.902705642 C87.0310003,1.3166051 86.5872538,1.79396875 86.2108957,2.32270564 C85.9256624,2.93228605 85.681778,3.56037195 85.4808957,4.20270564 C85.3608957,4.65270564 85.1808957,5.52270564 85.0808957,6.13270564 C84.9808957,6.74270564 84.7308957,7.72270564 84.6008957,8.13270564 C84.4754347,8.45700593 84.3784028,8.79159875 84.3108957,9.13270564 C84.25481,9.3468766 84.298949,9.57492803 84.4308957,9.75270564 C83.9908957,9.60270564 83.8908957,9.70270564 83.4308957,9.75270564 C82.850633,9.81800487 82.2758172,9.92494734 81.7108957,10.0727056 C81.0322773,10.2345628 80.3643325,10.4382859 79.7108957,10.6827056 C79.1299498,10.9620779 78.5773786,11.2969695 78.0608957,11.6827056 C77.5808957,11.9827056 76.0608957,12.5927056 75.7608957,12.7527056 C75.3391738,12.9405587 74.9399843,13.1753761 74.5708957,13.4527056 C74.3808957,13.6227056 74.3308957,13.5327056 74.1008957,13.7427056 C74.0413863,13.8005697 73.9877885,13.8642172 73.9408957,13.9327056 L71.7108957,15.0627056 C70.5176219,15.6704369 69.3651842,16.3552187 68.2608957,17.1127056 C67.6608957,17.5627056 67.1208957,17.9327056 66.7608957,18.1927056 C66.4008957,18.4527056 66.4308957,18.9027056 66.3508957,19.4427056 C66.2634268,20.3967098 66.2367063,21.3553103 66.2708957,22.3127056 C66.3458102,23.8574881 66.5094131,25.3966908 66.7608957,26.9227056 L66.7608957,26.9227056 Z M90.7608957,6.00270564 C90.8604671,5.85371615 91.0223551,5.75805508 91.2008957,5.74270564 C91.4062763,5.74816293 91.6078469,5.79940971 91.7908957,5.89270564 C92.0608957,5.98270564 92.2908957,6.16270564 92.2708957,6.37270564 C92.2592883,6.563908 92.2009128,6.74933597 92.1008957,6.91270564 C91.9377478,7.05976525 91.7189547,7.1290497 91.5008957,7.10270564 C91.3308957,7.10270564 91.1708957,6.92270564 90.9708957,6.69270564 C90.8271889,6.55839138 90.7351758,6.37790408 90.7108957,6.18270564 C90.6743356,6.0980342 90.681816,6.00078942 90.7308957,5.92270564 L90.7608957,6.00270564 Z M89.5108957,9.28270564 C89.5108957,9.63270564 89.3808957,9.79270564 89.2908957,9.80270564 C89.1208633,9.79818437 88.9537759,9.757265 88.8008957,9.68270564 C88.5408957,9.59270564 88.3808957,9.55270564 88.2508957,9.33270564 C88.1208957,9.11270564 88.2508957,8.96270564 88.3708957,8.85270564 C88.5778754,8.69221431 88.7949929,8.54524246 89.0208957,8.41270564 C89.094077,8.37298715 89.1811391,8.36789928 89.2584487,8.39882313 C89.3357583,8.42974698 89.3952944,8.49347411 89.4208957,8.57270564 C89.4726497,8.79205026 89.4928532,9.01765551 89.4808957,9.24270564 L89.5108957,9.28270564 Z M87.1108957,5.15270564 C87.1374889,5.00074192 87.2109116,4.86088918 87.3208957,4.75270564 C87.4823229,4.53286428 87.7503711,4.41798648 88.0208957,4.45270564 C88.3326873,4.54606381 88.6369031,4.66306992 88.9308957,4.80270564 C89.1092432,4.88778444 89.2798816,4.98816 89.4408957,5.10270564 C89.5942939,5.23876042 89.6161433,5.47036352 89.4908957,5.63270564 C89.3438243,5.81569851 89.1598223,5.96562603 88.9508957,6.07270564 C88.6459441,6.17844556 88.3230437,6.22263192 88.0008957,6.20270564 C87.7007901,6.24140287 87.3993019,6.14213234 87.1808957,5.93270564 C86.9808957,5.70270564 87.0308957,5.34270564 87.0808957,5.11270564 L87.1108957,5.15270564 Z" id="Shape" fill="#FFFFFF" fill-rule="nonzero"></path>
                <path d="M75.2308957,24.9227056 C75.2308957,31.4451885 80.5184128,36.7327056 87.0408957,36.7327056 C93.5633786,36.7327056 98.8508957,31.4451885 98.8508957,24.9227056 C98.8508957,18.4002227 93.5633786,13.1127056 87.0408957,13.1127056 C80.5184128,13.1127056 75.2308957,18.4002227 75.2308957,24.9227056 Z M97.5708957,24.9227056 C97.5708957,30.7272184 92.8654084,35.4327056 87.0608957,35.4327056 C81.256383,35.4327056 76.5508957,30.7272184 76.5508957,24.9227056 C76.5508957,19.1181929 81.256383,14.4127056 87.0608957,14.4127056 C92.8654084,14.4127056 97.5708957,19.1181929 97.5708957,24.9227056 L97.5708957,24.9227056 Z" id="Shape" fill="#FFFFFF" fill-rule="nonzero"></path>
                <path d="M87.0408957,23.7927056 C86.9611858,23.7830708 86.8806056,23.7830708 86.8008957,23.7927056 C86.2486109,23.7927056 85.8008957,24.2404209 85.8008957,24.7927056 C85.8017787,24.9416989 85.8359445,25.088612 85.9008957,25.2227056 L85.9008957,25.2227056 C85.2721204,25.1493063 84.6377199,25.3017041 84.1108957,25.6527056 C84.1108957,25.6527056 83.3208957,25.4527056 83.1708957,25.4527056 C82.4489325,25.7422143 81.809909,26.2060217 81.3108957,26.8027056 C81.1908957,26.9727056 81.1508957,26.8827056 81.3108957,26.9527056 C82.0712318,27.092039 82.8505596,27.092039 83.6108957,26.9527056 C83.6708957,26.9527056 84.1708957,26.1227056 84.2208957,26.1227056 C84.8711769,26.1367625 85.4979681,25.8795245 85.9508957,25.4127056 L86.0608957,25.4127056 C86.3020499,25.6824413 86.6687879,25.803033 87.0229629,25.729055 C87.3771379,25.6550771 87.6649424,25.3977685 87.777963,25.0540549 C87.8909837,24.7103414 87.8120501,24.3324411 87.5708957,24.0627056 C87.5708957,23.7827056 87.6808957,23.1327056 87.7208957,23.0627056 C87.7608957,22.9927056 88.7208957,21.3127056 88.8208957,21.0127056 C88.9208957,20.7127056 89.0008957,19.6127056 89.0408957,19.5027056 C89.0808957,19.3927056 89.3808957,19.1827056 89.4708957,19.0727056 C89.6734123,18.3426237 89.7842645,17.5901725 89.8008957,16.8327056 C89.8008957,16.6627056 89.8008957,16.6827056 89.6608957,16.7827056 C89.1884506,17.3822321 88.8230825,18.0588398 88.5808957,18.7827056 C88.6042671,18.9887116 88.6042671,19.1966997 88.5808957,19.4027056 C88.4508957,19.6727056 88.0108957,20.4027056 87.8608957,20.8027056 C87.7108957,21.2027056 87.5708957,22.8027056 87.5308957,23.0427056 C87.4908957,22.9927056 87.2108957,23.5127056 87.0408957,23.7927056 Z" id="Shape" fill="#FFFFFF" fill-rule="nonzero"></path>
                <path d="M79.7808957,26.9227056 C79.8481694,26.8738462 79.8702318,26.7834959 79.8330485,26.7091292 C79.7958652,26.6347626 79.7103475,26.5982024 79.6308957,26.6227056 L78.1308957,27.3927056 C78.0620655,27.4294151 78.0270519,27.5082583 78.0459715,27.5839367 C78.0648911,27.6596151 78.1328882,27.7127056 78.2108957,27.7127056 L78.2908957,27.7127056 L79.7808957,26.9227056 Z" id="Shape" fill="#FFFFFF" fill-rule="nonzero"></path>
                <path d="M80.0808957,27.2527056 C80.0596784,27.2129232 80.0235265,27.1831986 79.9803932,27.1700711 C79.9372598,27.1569435 79.8906782,27.1614883 79.8508957,27.1827056 L78.3508957,27.9527056 C78.2820655,27.9894151 78.2470519,28.0682583 78.2659715,28.1439367 C78.2848911,28.2196151 78.3528882,28.2727056 78.4308957,28.2727056 L78.5108957,28.2727056 L80.0108957,27.5027056 C80.0563864,27.4819 80.0904049,27.442115 80.1038926,27.3939448 C80.1173803,27.3457746 80.1089679,27.294109 80.0808957,27.2527056 L80.0808957,27.2527056 Z" id="Shape" fill="#FFFFFF" fill-rule="nonzero"></path>
                <path d="M82.1908957,30.3927056 C82.1132215,30.3450222 82.0117632,30.3670784 81.9608957,30.4427056 L81.0408957,31.8627056 C80.9932123,31.9403798 81.0152684,32.0418381 81.0908957,32.0927056 C81.1202777,32.1013169 81.1515136,32.1013169 81.1808957,32.0927056 C81.238045,32.0912747 81.2906486,32.0612155 81.3208957,32.0127056 L82.2408957,30.5927056 C82.2711643,30.5223857 82.250695,30.4405086 82.1908957,30.3927056 L82.1908957,30.3927056 Z" id="Shape" fill="#FFFFFF" fill-rule="nonzero"></path>
                <path d="M96.1508957,25.0327056 L94.4608957,25.0327056 C94.3670073,25.0327056 94.2908957,25.1088172 94.2908957,25.2027056 C94.2908957,25.296594 94.3670073,25.3727056 94.4608957,25.3727056 L96.1508957,25.3727056 C96.2447841,25.3727056 96.3208957,25.296594 96.3208957,25.2027056 C96.3208957,25.1088172 96.2447841,25.0327056 96.1508957,25.0327056 Z" id="Shape" fill="#FFFFFF" fill-rule="nonzero"></path>
                <path d="M80.3508957,27.7927056 C80.3296784,27.7529232 80.2935265,27.7231986 80.2503932,27.7100711 C80.2072598,27.6969435 80.1606782,27.7014883 80.1208957,27.7227056 L78.6208957,28.4927056 C78.5520655,28.5294151 78.5170519,28.6082583 78.5359715,28.6839367 C78.5548911,28.7596151 78.6228882,28.8127056 78.7008957,28.8127056 L78.7808957,28.8127056 L80.2808957,28.0427056 C80.3263864,28.0219 80.3604049,27.982115 80.3738926,27.9339448 C80.3873803,27.8857746 80.3789679,27.834109 80.3508957,27.7927056 L80.3508957,27.7927056 Z" id="Shape" fill="#FFFFFF" fill-rule="nonzero"></path>
                <path d="M80.9008957,20.4327056 L80.0608957,20.3327056 L79.5508957,19.6627056 C79.49127,19.6037417 79.3975552,19.597064 79.3301715,19.6469779 C79.2627877,19.6968918 79.2418663,19.7884852 79.2808957,19.8627056 L79.5908957,20.2727056 L79.0808957,20.2127056 C79.0357505,20.2070774 78.9902331,20.2197792 78.9545252,20.2479697 C78.9188172,20.2761602 78.8958985,20.3174869 78.8908957,20.3627056 C78.8852675,20.4078508 78.8979692,20.4533682 78.9261597,20.4890761 C78.9543502,20.5247841 78.995677,20.5477028 79.0408957,20.5527056 L79.8808957,20.6527056 L80.3908957,21.3227056 C80.4213056,21.3646212 80.4691625,21.3903903 80.5208957,21.3927056 C80.5534752,21.4027313 80.5883162,21.4027313 80.6208957,21.3927056 C80.6870078,21.3263644 80.6870078,21.2190469 80.6208957,21.1527056 L80.3108957,20.7427056 L80.8208957,20.8027056 C80.8660408,20.8083339 80.9115582,20.7956321 80.9472662,20.7674416 C80.9829741,20.7392511 81.0058928,20.6979244 81.0108957,20.6527056 C81.026615,20.6089806 81.0237518,20.5607268 81.0029721,20.5191674 C80.9821924,20.477608 80.9453073,20.4463653 80.9008957,20.4327056 L80.9008957,20.4327056 Z" id="Shape" fill="#FFFFFF" fill-rule="nonzero"></path>
                <path d="M80.8608957,28.7227056 L80.8608957,28.7227056 L80.8608957,28.7227056 L80.8608957,28.7227056 L80.8608957,28.7227056 L80.8608957,28.7227056 L80.7908957,28.7227056 L80.7208957,28.7227056 L78.9708957,29.1127056 C78.8802133,29.1326803 78.8223354,29.2217232 78.8408957,29.3127056 C78.8608704,29.4033881 78.9499132,29.4612659 79.0408957,29.4427056 L80.3408957,29.1527056 L79.5308957,30.2327056 C79.4647836,30.2990469 79.4647836,30.4063644 79.5308957,30.4727056 C79.5972369,30.5388177 79.7045544,30.5388177 79.7708957,30.4727056 L80.8608957,29.0327056 L80.8608957,29.0327056 L80.8608957,28.9727056 C80.8672595,28.9464186 80.8672595,28.9189926 80.8608957,28.8927056 L80.8608957,28.8927056 L80.8608957,28.7227056 Z" id="Shape" fill="#FFFFFF" fill-rule="nonzero"></path>
                <path d="M79.7608957,24.9227056 C79.7608957,24.8288172 79.6847841,24.7527056 79.5908957,24.7527056 L77.9008957,24.7527056 C77.8070073,24.7527056 77.7308957,24.8288172 77.7308957,24.9227056 C77.7308957,25.016594 77.8070073,25.0927056 77.9008957,25.0927056 L79.5708957,25.0927056 C79.619334,25.0984453 79.6679041,25.0831021 79.7042549,25.0505777 C79.7406057,25.0180534 79.7612346,24.9714816 79.7608957,24.9227056 L79.7608957,24.9227056 Z" id="Shape" fill="#FFFFFF" fill-rule="nonzero"></path>
                <path d="M93.5708957,21.6727056 C93.6034061,21.7174128 93.6556237,21.7435216 93.7108957,21.7427056 C93.7403509,21.750791 93.7714405,21.750791 93.8008957,21.7427056 L95.2008957,20.8027056 C95.2577296,20.771768 95.2920714,20.7112475 95.2894816,20.6465905 C95.2868918,20.5819335 95.2478197,20.5243534 95.1886934,20.4980605 C95.1295671,20.4717675 95.060641,20.4813216 95.0108957,20.5227056 L93.6108957,21.4627056 C93.5497115,21.5145159 93.5330419,21.6020311 93.5708957,21.6727056 L93.5708957,21.6727056 Z" id="Shape" fill="#FFFFFF" fill-rule="nonzero"></path>
                <path d="M94.2908957,24.5727056 C94.2908957,24.666594 94.3670073,24.7427056 94.4608957,24.7427056 L96.1508957,24.7427056 C96.2447841,24.7427056 96.3208957,24.666594 96.3208957,24.5727056 C96.3208957,24.4788172 96.2447841,24.4027056 96.1508957,24.4027056 L94.4608957,24.4027056 C94.3670073,24.4027056 94.2908957,24.4788172 94.2908957,24.5727056 Z" id="Shape" fill="#FFFFFF" fill-rule="nonzero"></path>
                <path d="M93.4208957,21.2427056 C93.4503509,21.250791 93.4814405,21.250791 93.5108957,21.2427056 L94.9108957,20.3027056 C94.9677296,20.271768 95.0020714,20.2112475 94.9994816,20.1465905 C94.9968918,20.0819335 94.9578197,20.0243534 94.8986934,19.9980605 C94.8395671,19.9717675 94.770641,19.9813216 94.7208957,20.0227056 L93.3208957,20.9627056 C93.2604663,21.0042245 93.2334635,21.0798083 93.2539053,21.150219 C93.2743471,21.2206296 93.3376276,21.2700022 93.4108957,21.2727056 L93.4208957,21.2427056 Z" id="Shape" fill="#FFFFFF" fill-rule="nonzero"></path>
                <path d="M87.4408957,17.6327056 C87.5347841,17.6327056 87.6108957,17.556594 87.6108957,17.4627056 L87.6108957,15.7727056 C87.6108957,15.6788172 87.5347841,15.6027056 87.4408957,15.6027056 C87.3470073,15.6027056 87.2708957,15.6788172 87.2708957,15.7727056 L87.2708957,17.4627056 C87.2708957,17.556594 87.3470073,17.6327056 87.4408957,17.6327056 L87.4408957,17.6327056 Z" id="Shape" fill="#FFFFFF" fill-rule="nonzero"></path>
                <path d="M90.8408957,18.6727056 C90.9036787,18.6727056 90.9613507,18.6381024 90.9908957,18.5827056 L91.7808957,17.0927056 C91.809477,17.0391158 91.8072973,16.9743488 91.7751778,16.9228018 C91.7430582,16.8712548 91.6858785,16.8407589 91.6251777,16.8428018 C91.5644769,16.8448446 91.5094769,16.8791158 91.4808957,16.9327056 L90.6908957,18.4227056 C90.6696784,18.4624881 90.6651336,18.5090697 90.6782611,18.5522031 C90.6913887,18.5953365 90.7211132,18.6314883 90.7608957,18.6527056 L90.8408957,18.6727056 Z" id="Shape" fill="#FFFFFF" fill-rule="nonzero"></path>
                <path d="M82.4208957,17.9227056 L82.5308957,18.7627056 C82.5410823,18.8487085 82.6142937,18.9133068 82.7008957,18.9127056 L82.7008957,18.9127056 C82.7461144,18.9077028 82.7874412,18.8847841 82.8156317,18.8490761 C82.8438221,18.8133682 82.8565239,18.7678508 82.8508957,18.7227056 L82.7908957,18.2127056 L83.2008957,18.5227056 C83.2751161,18.5617351 83.3667095,18.5408136 83.4166234,18.4734299 C83.4665373,18.4060461 83.4598596,18.3123313 83.4008957,18.2527056 L82.7308957,17.7427056 L82.6208957,16.9027056 C82.6158928,16.8574869 82.5929741,16.8161602 82.5572662,16.7879697 C82.5215582,16.7597792 82.4760408,16.7470774 82.4308957,16.7527056 C82.385677,16.7577085 82.3443502,16.7806272 82.3161597,16.8163351 C82.2879692,16.8520431 82.2752675,16.8975605 82.2808957,16.9427056 L82.3408957,17.4527056 L81.9308957,17.1427056 C81.8566752,17.1036762 81.7650819,17.1245977 81.715168,17.1919814 C81.6652541,17.2593652 81.6719317,17.35308 81.7308957,17.4127056 L82.4208957,17.9227056 Z" id="Shape" fill="#FFFFFF" fill-rule="nonzero"></path>
                <path d="M77.9508957,24.4627056 L78.7308957,24.1327056 L79.5108957,24.4627056 L79.5708957,24.4627056 C79.6471214,24.4584393 79.7111541,24.4038812 79.7274688,24.3292998 C79.7437835,24.2547183 79.7083782,24.1784081 79.6408957,24.1427056 L79.1608957,23.9427056 L79.6408957,23.7427056 C79.7126489,23.6989482 79.741659,23.6093258 79.7091573,23.5318217 C79.6766556,23.4543177 79.5923975,23.4121949 79.5108957,23.4327056 L78.7308957,23.7627056 L77.9508957,23.4327056 C77.8652898,23.3979332 77.7675847,23.4379035 77.7308957,23.5227056 C77.6961233,23.6083115 77.7360935,23.7060166 77.8208957,23.7427056 L78.3008957,23.9427056 L77.8208957,24.1427056 C77.7491425,24.1864631 77.7201324,24.2760855 77.7526341,24.3535895 C77.7851358,24.4310936 77.8693939,24.4732164 77.9508957,24.4527056 L77.9508957,24.4627056 Z" id="Shape" fill="#FFFFFF" fill-rule="nonzero"></path>
                <path d="M94.4908957,30.1727056 L94.5808957,30.1727056 C94.6541638,30.1700022 94.7174443,30.1206296 94.7378861,30.050219 C94.7583279,29.9798083 94.7313251,29.9042245 94.6708957,29.8627056 L93.2208957,28.9927056 C93.1428378,28.9615576 93.0537338,28.9921229 93.0112316,29.0646267 C92.9687294,29.1371305 92.985586,29.2298106 93.0508957,29.2827056 L94.4908957,30.1727056 Z" id="Shape" fill="#FFFFFF" fill-rule="nonzero"></path>
                <path d="M94.1608957,30.7027056 L94.2508957,30.7027056 C94.3241638,30.7000022 94.3874443,30.6506296 94.4078861,30.580219 C94.4283279,30.5098083 94.4013251,30.4342245 94.3408957,30.3927056 L92.9008957,29.5027056 C92.8490922,29.4705517 92.7840698,29.4684771 92.730322,29.4972633 C92.6765741,29.5260495 92.6422663,29.5813232 92.6403219,29.6422633 C92.6383776,29.7032035 92.6690921,29.7605518 92.7208957,29.7927056 L94.1608957,30.7027056 Z" id="Shape" fill="#FFFFFF" fill-rule="nonzero"></path>
                <path d="M90.7308957,33.0127056 C90.7455909,33.0947304 90.8175752,33.1540116 90.9008957,33.1527056 L90.9008957,33.1527056 C90.9463196,33.1454172 90.9868502,33.12003 91.0132323,33.0823413 C91.0396144,33.0446526 91.0495952,32.9978805 91.0408957,32.9527056 L90.8108957,31.6127056 L91.8708957,32.4727056 C91.9429301,32.5115629 92.0324273,32.4935749 92.0838545,32.4299031 C92.1352816,32.3662314 92.1340382,32.2749529 92.0808957,32.2127056 L90.6708957,31.0727056 L90.6708957,31.0727056 L90.6108957,31.0727056 L90.4908957,31.0727056 L90.4908957,31.0727056 L90.4908957,31.0727056 L90.4908957,31.0727056 L90.4908957,31.0727056 L90.4908957,31.1327056 L90.4908957,31.1327056 C90.4863149,31.1558142 90.4863149,31.1795971 90.4908957,31.2027056 L90.4908957,31.2027056 L90.7308957,33.0127056 Z" id="Shape" fill="#FFFFFF" fill-rule="nonzero"></path>
                <path d="M93.5208957,28.5327056 C93.438053,28.4885229 93.3350785,28.519863 93.2908957,28.6027057 C93.246713,28.6855484 93.278053,28.7885228 93.3608957,28.8327056 L94.8408957,29.6527056 L94.9208957,29.6527056 C94.9989032,29.6527056 95.0669003,29.5996151 95.0858199,29.5239367 C95.1047395,29.4482583 95.0697258,29.3694151 95.0008957,29.3327056 L93.5208957,28.5327056 Z" id="Shape" fill="#FFFFFF" fill-rule="nonzero"></path>
                <path d="M96.1508957,25.6327056 L94.4608957,25.6327056 C94.3670073,25.6327056 94.2908957,25.7088172 94.2908957,25.8027056 C94.2908957,25.896594 94.3670073,25.9727056 94.4608957,25.9727056 L96.1508957,25.9727056 C96.2447841,25.9727056 96.3208957,25.896594 96.3208957,25.8027056 C96.3208957,25.7088172 96.2447841,25.6327056 96.1508957,25.6327056 Z" id="Shape" fill="#FFFFFF" fill-rule="nonzero"></path>
                <path d="M93.7808957,28.0327056 C93.7263233,27.9930709 93.6534806,27.9894465 93.5952435,28.0234684 C93.5370063,28.0574903 93.5043897,28.1227233 93.5121146,28.1897262 C93.5198394,28.2567291 93.5664444,28.3128286 93.6308957,28.3327056 L95.1508957,29.0627056 L95.2208957,29.0627056 C95.2971214,29.0584393 95.3611541,29.0038812 95.3774688,28.9292998 C95.3937835,28.8547183 95.3583782,28.7784081 95.2908957,28.7427056 L93.7808957,28.0327056 Z" id="Shape" fill="#FFFFFF" fill-rule="nonzero"></path>
                <path d="M87.3508957,32.2527056 L87.3508957,32.2527056 L87.3508957,32.1927056 L87.2908957,32.1927056 L87.1708957,32.1927056 L87.1108957,32.1927056 L87.1108957,32.1927056 C87.1073384,32.2125475 87.1073384,32.2328638 87.1108957,32.2527056 L86.5708957,33.9627056 C86.5446567,34.0509426 86.5934189,34.1440341 86.6808957,34.1727056 L86.7308957,34.1727056 C86.804606,34.1716275 86.8692217,34.1231656 86.8908957,34.0527056 L87.2908957,32.7727056 L87.8108957,34.0127056 C87.8546532,34.0844588 87.9442755,34.113469 88.0217796,34.0809673 C88.0992836,34.0484656 88.1414064,33.9642075 88.1208957,33.8827056 L87.3508957,32.2527056 Z" id="Shape" fill="#FFFFFF" fill-rule="nonzero"></path>
                <path d="M86.0208957,32.1527056 C85.9270073,32.1527056 85.8508957,32.2288172 85.8508957,32.3227056 L85.8508957,34.0127056 C85.8508957,34.106594 85.9270073,34.1827056 86.0208957,34.1827056 C86.1147841,34.1827056 86.1908957,34.106594 86.1908957,34.0127056 L86.1908957,32.3227056 C86.1908957,32.2288172 86.1147841,32.1527056 86.0208957,32.1527056 L86.0208957,32.1527056 Z" id="Shape" fill="#FFFFFF" fill-rule="nonzero"></path>
                <path d="M88.0508957,17.6327056 C88.1447841,17.6327056 88.2208957,17.556594 88.2208957,17.4627056 L88.2208957,15.7727056 C88.2208957,15.6788172 88.1447841,15.6027056 88.0508957,15.6027056 C87.9570073,15.6027056 87.8808957,15.6788172 87.8808957,15.7727056 L87.8808957,17.4627056 C87.8808957,17.5077924 87.8988063,17.5510326 87.9306875,17.5829138 C87.9625687,17.614795 88.0058089,17.6327056 88.0508957,17.6327056 L88.0508957,17.6327056 Z" id="Shape" fill="#FFFFFF" fill-rule="nonzero"></path>
                <path d="M83.5708957,31.3027056 L83.5708957,31.3027056 L83.5708957,31.3027056 L83.4508957,31.3027056 L83.3908957,31.3027056 L83.3908957,31.3027056 L82.0708957,32.5227056 C82.0232385,32.5630221 82.0015102,32.6262144 82.0142962,32.6873139 C82.0270822,32.7484134 82.0723255,32.7975909 82.1321495,32.8154153 C82.1919736,32.8332398 82.2567544,32.8168438 82.3008957,32.7727056 L83.3008957,31.8627056 L83.1408957,33.2027056 C83.1352675,33.2478508 83.1479692,33.2933682 83.1761597,33.3290761 C83.2043502,33.3647841 83.245677,33.3877028 83.2908957,33.3927056 L83.2908957,33.3927056 C83.3774977,33.3933068 83.450709,33.3287085 83.4608957,33.2427056 L83.6808957,31.4527056 L83.6808957,31.4527056 C83.6860624,31.4296583 83.6860624,31.405753 83.6808957,31.3827056 C83.6569592,31.3418935 83.6170974,31.3129031 83.5708957,31.3027056 L83.5708957,31.3027056 Z" id="Shape" fill="#FFFFFF" fill-rule="nonzero"></path>
                <path d="M83.6408957,18.2127056 C83.6730152,18.2642526 83.7301949,18.2947485 83.7908957,18.2927056 L83.8708957,18.2927056 C83.9500772,18.2450844 83.976724,18.1429382 83.9308957,18.0627056 L83.0908957,16.6027056 C83.0380007,16.5373959 82.9453205,16.5205393 82.8728167,16.5630416 C82.8003129,16.6055438 82.7697476,16.6946477 82.8008957,16.7727056 L83.6408957,18.2127056 Z" id="Shape" fill="#FFFFFF" fill-rule="nonzero"></path>
                <path d="M86.9508957,15.6227056 C86.8652898,15.5879332 86.7675847,15.6279035 86.7308957,15.7127056 L86.5308957,16.1927056 L86.3308957,15.7127056 C86.2871382,15.6409524 86.1975158,15.6119423 86.1200118,15.644444 C86.0425077,15.6769457 86.0003849,15.7612038 86.0208957,15.8427056 L86.3508957,16.6227056 L86.0208957,17.4027056 C86.0003849,17.4842075 86.0425077,17.5684656 86.1200118,17.6009673 C86.1975158,17.633469 86.2871382,17.6044588 86.3308957,17.5327056 L86.5308957,17.0527056 L86.7308957,17.5327056 C86.7591392,17.5952929 86.8222611,17.6347441 86.8908957,17.6327056 L86.9608957,17.6327056 C87.0456979,17.5960166 87.0856681,17.4983115 87.0508957,17.4127056 L86.7208957,16.6327056 L87.0508957,15.8527056 C87.0703197,15.8091452 87.0705513,15.7594285 87.0515341,15.7156889 C87.0325169,15.6719493 86.9960001,15.6382103 86.9508957,15.6227056 L86.9508957,15.6227056 Z" id="Shape" fill="#FFFFFF" fill-rule="nonzero"></path>
                <path d="M82.7108957,30.7227056 C82.6332215,30.6750222 82.5317632,30.6970784 82.4808957,30.7727056 L81.5708957,32.1927056 C81.5232123,32.2703798 81.5452684,32.3718381 81.6208957,32.4227056 C81.6502777,32.4313169 81.6815136,32.4313169 81.7108957,32.4227056 C81.768045,32.4212747 81.8206486,32.3912155 81.8508957,32.3427056 L82.7708957,30.9227056 C82.7990181,30.8501637 82.7743054,30.767788 82.7108957,30.7227056 Z" id="Shape" fill="#FFFFFF" fill-rule="nonzero"></path>
            </g>
        </g>
    </g>
</svg>