<?xml version="1.0" encoding="UTF-8"?>
<svg width="81px" height="101px" viewBox="0 0 81 101" version="1.1" xmlns="http://www.w3.org/2000/svg" xmlns:xlink="http://www.w3.org/1999/xlink">
    <!-- Generator: Sketch 42 (36781) - http://www.bohemiancoding.com/sketch -->
    <title>sticker_intowild_black</title>
    <desc>Created with Sketch.</desc>
    <defs></defs>
    <g id="Page-1" stroke="none" stroke-width="1" fill="none" fill-rule="evenodd">
        <g id="stickers-white" transform="translate(-564.000000, -24.000000)">
            <g id="sticker_intowild_black" transform="translate(564.500000, 24.000000)">
                <path d="M6.29982549,82.5574926 C6.2978451,82.554522 6.2968549,82.5525416 6.29487451,82.549571 C6.28695294,82.5772965 6.29289412,82.5733357 6.29982549,82.5574926" id="Fill-1873" fill="#1A1918"></path>
                <path d="M63.1953039,36.6762622 C63.2854118,36.2504779 63.2448137,35.5712034 63.4893922,35.4464387 C64.2439216,35.059272 65.1073725,34.8840073 65.9282451,34.6265563 C66.1153922,34.907772 66.301549,35.1889877 66.4877059,35.4711936 C65.811402,35.9445073 65.1747059,36.4970367 64.4409706,36.8525171 C64.1280686,37.0050073 63.6171275,36.7475563 63.1953039,36.6762622 L63.1953039,36.6762622 Z M63.6270294,23.3650563 C63.8577451,22.752125 64.0785588,21.676772 65.2192647,22.6540956 C65.4064118,22.8135171 66.1312353,22.3461446 67.1531176,21.9649191 C66.3768039,23.7967818 65.7787255,25.2097916 65.145,26.7059779 C64.3647255,26.4653603 63.7874412,26.287125 62.9645882,26.0326446 C63.1477745,25.2563308 63.2854118,24.2730661 63.6270294,23.3650563 L63.6270294,23.3650563 Z M69.6751471,22.4273407 C69.9088333,24.6067622 68.8958627,26.0772034 66.4520588,26.6188407 C67.463049,24.8770857 67.0669706,22.5560661 69.6751471,22.4273407 L69.6751471,22.4273407 Z M61.9823137,25.4999191 C61.7644706,25.4801152 61.5466275,25.4603112 61.3287843,25.4405073 C61.448598,23.903723 61.569402,22.3659485 61.6902059,20.828174 C62.0466765,20.8628308 62.4041373,20.8964975 62.761598,20.9311544 C62.5011765,22.4540759 62.2417451,23.9769975 61.9823137,25.4999191 L61.9823137,25.4999191 Z M57.4848431,27.4654583 L57.4848431,25.2088014 C58.5433627,25.0959191 58.9641961,24.2403897 58.9018137,22.5263603 C60.8495294,23.7561838 60.1940196,25.8979779 60.8792353,27.0594779 C59.7395196,27.2238505 58.5720784,27.2476152 57.4848431,27.4654583 L57.4848431,27.4654583 Z M57.4848431,55.466223 L57.4848431,53.8026936 C58.079951,53.7581348 58.6463431,53.7155563 59.2632353,53.6690171 C58.6790196,54.3185857 58.1086667,54.9453799 57.4848431,55.466223 L57.4848431,55.466223 Z M57.4848431,41.2123505 C57.8452745,41.1361054 58.2057059,41.0598603 58.5651471,40.9836152 C58.6126765,41.1866054 58.6592157,41.3895956 58.7067451,41.5925857 C58.2997745,41.6767524 57.8928039,41.7609191 57.4848431,41.8450857 L57.4848431,41.2123505 Z M53.1705588,19.3408995 C51.6278333,18.6507328 50.3247353,18.0675073 48.8176569,17.3931838 C50.5247549,16.4693308 52.0536176,15.6415269 53.7260588,14.7364877 C52.9121176,14.1126642 52.373451,13.7007426 52.075402,13.4720073 C54.3677059,13.7235171 56.8204216,13.9928505 59.2741275,14.2621838 C59.1978824,14.5344877 59.0642059,15.0177034 58.9295392,15.5009191 C55.6064412,14.7760956 52.4338529,16.6277622 53.1705588,19.3408995 L53.1705588,19.3408995 Z M43.6191275,68.9457622 C43.4121765,68.8596152 43.2052255,68.7744583 42.9982745,68.6893014 C43.0953137,67.5773112 42.8299412,65.7791152 43.3656373,65.4949289 C44.4914902,64.8988308 46.0391667,65.0978603 47.5739706,64.9562622 C47.4907941,68.0575563 44.334049,67.0742916 43.6191275,68.9457622 L43.6191275,68.9457622 Z M43.4270294,81.8975269 C43.3686078,81.8896054 43.3091961,81.8816838 43.2507745,81.8747524 C43.2507745,79.5309583 43.2131471,77.1851838 43.288402,74.8443603 C43.3002843,74.4700661 43.8161765,74.1126054 44.0983824,73.747223 C44.4043529,74.2274681 45.0380784,74.7681152 44.9628235,75.1770661 C44.545951,77.4347132 43.9567843,79.660674 43.4270294,81.8975269 L43.4270294,81.8975269 Z M36.9184706,72.7124681 C35.960951,70.4766054 35.0786863,68.4189779 34.147902,66.2484681 C35.5153627,66.0098308 36.6798333,65.8068407 38.0324412,65.571174 C38.6582451,67.8149583 38.1205686,70.1914289 36.9184706,72.7124681 L36.9184706,72.7124681 Z M33.7409314,71.3400563 C32.7923235,70.4617524 31.8447059,69.5834485 30.7752941,68.5922622 C31.2565294,67.9238799 31.5803235,67.4733407 32.0645294,66.8019877 C32.7943039,68.2942132 33.4626863,69.6587034 34.1310686,71.0231936 C34.0003627,71.1291446 33.8706471,71.2341054 33.7409314,71.3400563 L33.7409314,71.3400563 Z M28.1978137,14.768174 C28.0413627,14.551321 27.876,14.3215956 27.6829118,14.0542426 C28.9325392,13.5690465 30.199,13.0779093 31.4654608,12.586772 L31.9249118,13.1343505 C30.6822157,13.6789583 29.4395196,14.2235661 28.1978137,14.768174 L28.1978137,14.768174 Z M28.0146275,22.1431544 C28.0552255,21.7124191 28.219598,21.2133603 28.4998235,20.5994387 C28.7483627,21.1331544 28.9830392,21.6401348 29.2167255,22.1431544 L28.0146275,22.1431544 Z M34.0686863,18.5517132 C35.2460294,19.2814877 36.2718725,19.9162034 37.7433039,20.828174 C36.8719314,21.3361446 36.1391863,21.7639093 35.4886275,22.1431544 L31.3585196,22.1431544 C31.5327941,21.8906544 31.7437059,21.6837034 31.9001569,21.6896446 C33.9043137,21.7668799 33.7627157,20.272674 34.0686863,18.5517132 L34.0686863,18.5517132 Z M23.6260784,47.6456544 C22.4477451,47.2743308 21.3654608,46.6356544 20.2396078,45.7613112 C21.5397353,45.8543897 22.6309314,45.8504289 23.6260784,45.9534093 L23.6260784,47.6456544 Z M23.6260784,59.0636054 C22.7636176,57.9852818 22.7477745,56.5455367 23.6260784,55.1602524 L23.6260784,59.0636054 Z M21.8684804,59.7577328 C20.9941373,59.7161446 20.1267255,59.5329583 19.2573333,59.3864093 C19.2791176,59.001223 19.300902,58.6160367 19.3226863,58.2308505 L22.1427647,58.2308505 C22.0496863,58.7635759 21.9358137,59.7607034 21.8684804,59.7577328 L21.8684804,59.7577328 Z M78.1324118,45.5266348 C76.7322745,45.0255956 75.5678039,43.8631054 74.3043137,42.9848014 C72.9883431,42.0708505 71.7902059,40.8578603 70.3385784,40.3013701 C68.5997941,39.6349681 66.6471275,39.5250563 64.7806078,39.1735367 C65.6648529,35.9880759 69.1077647,34.0601642 72.1496471,35.6207132 C73.4052157,36.2643407 73.9607157,35.4711936 74.6627647,35.3870269 C75.8777353,35.2394877 75.7866373,33.9997622 75.148951,32.983821 C75.0964706,32.8996544 75.4727451,32.5471446 75.795549,32.1322524 C74.9281373,31.8995563 74.2637157,31.7203308 73.5983039,31.5420956 C73.7042549,31.423272 73.8092157,31.3054387 73.9151667,31.1866152 C72.260549,29.8052916 70.6059314,28.4239681 68.9186373,27.0139289 C69.4355196,26.4326838 70.084098,25.8009387 70.6158333,25.0830465 C71.2218333,24.2631642 71.9060588,24.1750367 72.9210098,23.9898701 C75.0281471,23.6036936 76.1262745,25.8930269 78.0205196,25.423674 C78.2829216,23.9552132 78.5403725,22.5174485 78.8215882,20.9460073 C78.3571863,20.3746642 77.673951,19.5339877 76.9293235,18.6150857 C77.3362941,18.4309093 77.5016569,18.3705073 77.6521667,18.2843603 C77.8294118,18.1843505 77.9957647,18.0625563 78.2660882,17.884321 C75.3588725,15.7029191 73.5309706,11.8094681 68.8631863,12.9739387 C70.1118235,12.2996152 71.3604608,11.6243014 72.628902,10.9390857 C72.2803529,10.107321 72.0397353,9.53102693 71.8347647,9.04187006 C71.1119216,8.89532104 70.0692451,8.98740928 69.8088235,8.58043869 C68.4463137,6.44458575 66.0609314,6.53568379 64.1033137,5.76828183 C62.4140392,5.10584065 60.5178137,5.61678183 59.5335588,6.89809555 C58.892902,7.73283085 58.2076863,7.9219583 57.4808824,8.3507132 C56.6213922,8.8567034 56.050049,9.45874261 54.8628039,8.55073281 C54.1280784,7.98929163 53.1081765,7.67638967 52.6526863,6.78917399 C52.1348137,5.77818379 51.6981373,4.86027202 50.4465294,4.4869681 C49.6276373,4.24238967 48.9345,3.57499751 48.1859118,3.09673281 C47.7749804,3.38686026 47.4343529,3.27199751 47.0887745,3.25318379 C46.4778235,3.21951712 45.863902,3.24427202 45.2519608,3.24427202 C45.0816471,2.63530144 44.9004412,1.98474261 44.8350882,1.75105634 C43.6359608,1.75105634 42.8131078,1.78274261 41.9922353,1.74214457 C41.2357255,1.70451712 40.4772353,2.15703673 39.8187549,1.09752693 C38.9077745,-0.36796327 35.4440686,-0.316473074 34.1964216,0.957909279 C33.6161667,1.55004653 32.9854118,2.09267399 32.5705196,2.47786026 C32.7933137,3.28883085 33.0161078,4.09485046 33.3141569,5.17614457 C30.259402,4.59291908 28.3087157,5.77818379 26.572902,7.73679163 C27.4244706,8.02889948 28.2354412,8.30714457 29.2553431,8.65767399 C28.2928725,8.8062034 27.6462745,8.9062132 27.0006667,9.006223 C27.0085882,9.1587132 27.0165098,9.3102132 27.0244314,9.4627034 C27.3888235,9.612223 27.7532157,9.76075242 27.9700686,9.84987006 C27.0808725,10.7222328 26.2718824,11.5163701 25.4123922,12.3590269 C23.7924314,11.8193701 21.8645196,11.283674 20.0217647,10.5390465 C17.078902,9.34982104 12.1487157,11.4361642 11.3605196,14.3067426 C9.68411765,14.0631544 8.41468627,14.5839975 7.5759902,16.1415759 C7.33834314,16.5832034 6.767,17.1644485 6.37389216,17.1446446 C4.9499902,17.0753308 4.71234314,18.1685073 4.58856863,19.0220563 C4.4182549,20.1904877 4.63807843,21.4153603 4.69253922,22.6570661 C5.48370588,22.5006152 6.10059804,22.1639485 6.51053922,22.333272 C8.30081373,23.0709681 9.99503922,23.4135759 11.6189608,21.8470857 C11.6744118,22.2332622 11.7150098,22.5134877 11.7684804,22.883821 C12.6467843,22.2897034 13.4042843,21.7767818 14.2350588,21.2153407 C14.604402,22.494674 14.6558922,23.5254681 16.4441863,22.7838112 C18.2602059,22.0312622 20.5812255,23.1600857 22.3457549,21.5846838 C22.4338824,21.5054681 22.8497647,21.8084681 23.1200882,21.9154093 C23.3082255,21.989674 23.4953725,22.0669093 23.6825196,22.1431544 L23.6260784,22.1431544 L23.6260784,23.9463014 C22.2447549,23.9255073 20.8426373,24.5443799 19.4276471,24.3908995 C18.0344412,24.2403897 16.4768627,24.7285563 15.1341569,25.277125 C14.0914804,25.7029093 13.3646765,26.9050073 12.322,27.3337622 C10.5059804,28.0783897 9.87819608,29.6428995 9.00781373,30.928174 C9.56133333,31.6272524 9.98216667,32.1589877 10.2534804,32.5015956 C9.77917647,32.8204387 9.40686275,33.0709583 9.03355882,33.3214779 C9.45241176,33.5353603 9.90592157,33.9759975 10.2821961,33.9175759 C11.1545588,33.7809289 11.9863235,33.3947524 12.8418529,33.1333407 C12.9596863,33.0976936 13.120098,33.200674 13.4092353,33.2818701 C12.9596863,33.6561642 12.6240098,33.9353995 12.221,34.2700857 C13.4755784,35.5414975 14.7133235,35.9613407 16.2402059,35.0117426 C16.6135098,34.7790465 17.0977157,34.6265563 17.5363725,34.6117034 C19.3850686,34.5473407 21.2773333,34.7859779 23.0725588,34.4621838 C23.2616863,34.4275269 23.4438824,34.4097034 23.6260784,34.3938603 L23.6260784,35.463272 C22.518049,34.9265857 21.3991275,35.5315956 20.2930784,35.8920269 C20.1485098,35.9385661 19.952451,35.8147916 19.7781765,35.7910269 C16.9610686,35.4068308 14.5935098,37.0465956 13.9776078,39.6953701 C13.8676961,40.1676936 13.3300196,40.5489191 12.9695882,40.9539093 C11.9823627,42.0609485 9.86136275,42.1213505 9.9227549,44.2393799 C10.0851471,44.3443407 10.2237745,44.5007916 10.3822059,44.5255465 C11.8566078,44.7523014 13.6716373,43.8314191 14.6558922,45.8177524 C14.6974804,45.9019191 15.549049,45.7088308 15.9193824,45.4781152 C16.4065588,45.1751152 16.7907549,44.7057622 17.1917843,44.3334485 C17.6502451,44.5463407 18.0156275,44.7354681 18.3958627,44.8879583 C18.8473922,45.068174 19.3117941,45.2157132 19.7712451,45.3781054 C19.2979314,45.6444681 18.8523431,45.9979681 18.3463529,46.1613505 C17.0759314,46.573272 15.7520392,46.825772 14.498451,47.2773014 C12.735902,47.9120171 11.0099902,48.0991642 9.15139216,47.6713995 C8.21565686,47.4565269 7.17595098,47.7426936 6.1867451,47.7030857 C4.27665686,47.628821 3.48846078,49.2180857 2.3982549,50.2805661 C1.80908824,50.8538897 1.57540196,51.7916054 1.18130392,52.5649485 C1.3139902,52.6699093 1.44667647,52.7748701 1.57936275,52.8788407 L0,52.8788407 L0,53.5997034 C1.09812745,53.6848603 1.81007843,54.3720563 2.68739216,54.9572622 C3.90929412,55.7731838 4.89651961,56.2880857 4.42617647,57.9377524 C4.40538235,58.0130073 4.76086275,58.2823407 4.96781373,58.3219485 C6.85116667,58.6823799 8.74145098,59.5993014 10.5990588,58.289272 C10.8614608,58.7734779 11.1060392,59.2230269 11.3555686,59.6844583 C12.1764412,59.2151054 12.8943333,58.804174 13.7023333,58.3417524 C14.3697255,58.6784191 15.2272353,59.1101446 16.099598,59.5497916 C16.6511373,58.7318897 17.1016765,58.7615956 18.6038039,60.0508308 C16.8075882,59.5072132 15.5975686,61.8916054 13.9795882,60.1894583 C13.9409706,60.1498505 13.7369902,60.2092622 13.6548039,60.2765956 C12.7032255,61.0499387 11.5664804,61.6915857 10.8594804,62.6491054 C9.82769608,64.0452818 9.10584314,65.6711838 8.13446078,67.4099681 C9.03157843,69.2804485 9.03751961,69.3616446 11.4446863,69.192321 C12.7408529,69.1002328 14.0092941,68.6437524 15.3015,68.4179877 C15.7401569,68.3417426 16.5154804,68.3130269 16.6234118,68.5249289 C17.4502255,70.1458799 18.6345,69.5438407 19.8445196,69.2170759 C20.6178627,69.0091348 21.4872549,68.7190073 22.22,68.8833799 C24.7192549,69.4418505 27.2393039,70.0141838 29.6375588,70.8934779 C35.9550098,73.2075661 37.3135588,77.6099779 36.3342549,84.3749975 C35.4846667,83.3115269 34.7697451,82.4163897 33.9280784,81.3638112 C34.5786373,81.2845956 35.1777059,81.2608308 35.1816667,81.2033995 C35.2430588,80.1290367 35.4678333,78.9863505 35.1915686,77.9872426 C34.6598333,76.0672524 29.9375882,74.2611348 27.7046961,75.373125 C26.9689804,75.7394975 25.9352157,75.4652132 25.0499804,75.5780956 C23.8023333,75.7375171 22.5566667,75.9405073 21.3278333,76.2098407 C20.6535098,76.3573799 20.0138431,76.8980269 19.3652647,76.8861446 C17.0719706,76.8445563 14.7499608,76.8287132 12.5002353,76.4415465 C10.4198333,76.0840857 9.43656863,77.3337132 8.68005882,78.6892916 C7.95820588,79.9834779 6.27289216,80.6647328 6.32537255,82.4203505 C6.32735294,82.478772 6.31051961,82.534223 6.29962745,82.5569975 C7.63342157,85.1156642 9.76630392,84.3294485 12.0992059,83.6897818 C11.7863039,84.710674 11.6021275,85.311723 11.3516078,86.124674 L16.7778824,86.124674 C16.8858137,86.4385661 17.0056275,86.7890956 17.1690098,87.2663701 C18.8701667,86.4553995 20.4822059,85.7266152 22.0595882,87.3733112 C22.3180294,87.6436348 23.234951,87.5832328 23.6567745,87.341625 C24.8856078,86.6375956 26.0183922,85.7642426 27.3205,84.8651446 C27.568049,86.614821 28.638451,87.3020171 29.9752157,86.5464975 C31.658549,85.5959093 29.7534118,84.6175956 29.4910098,83.1273505 C31.7209314,84.0799191 33.628049,84.8720759 35.5153627,85.710772 C36.4847647,86.1415073 36.8788627,86.8702916 36.7927157,88.0030759 C36.6808235,89.4735171 36.4501078,93.0154485 36.2203824,96.6811544 C36.6659706,96.6385759 37.1472059,96.5989681 37.6650784,96.5653014 C38.6126961,96.5039093 39.6741863,96.3425073 40.8188529,96.3395367 L40.8703431,96.3395367 C40.8871765,96.3395367 40.905,96.3385465 40.9218333,96.3385465 C40.9396569,96.3385465 40.9564902,96.3385465 40.9733235,96.3375563 L41.0248137,96.3375563 L41.0753137,96.3375563 C41.0931373,96.3385465 41.1099706,96.3385465 41.1268039,96.3385465 C41.1446275,96.3385465 41.1614608,96.3395367 41.1792843,96.3395367 L41.2297843,96.3395367 C42.374451,96.3425073 43.4359412,96.5039093 44.384549,96.5653014 C44.4697059,96.5712426 44.5489216,96.5771838 44.632098,96.583125 C44.7637941,93.1590269 44.9242059,89.9151446 45.0697647,88.5952132 C45.4064314,85.5305563 46.2134412,82.5074877 46.969951,79.5052132 C47.2016569,78.585321 47.717549,77.6654289 49.1830392,78.0278407 C50.242549,78.2892524 51.500098,78.2743995 52.5398039,77.9575367 C53.8775588,77.5495759 54.9281569,77.7218701 56.0045,78.5001642 C56.2550196,78.6813701 56.6352549,78.6833505 57.0362843,78.7893014 L57.0362843,77.7763308 C59.3216569,77.9397132 61.4674118,78.1110171 63.6151471,78.2268701 C63.9052745,78.2427132 64.2112451,77.9763505 64.5092941,77.8406936 C63.6616863,76.4316446 65.4301765,76.1910269 65.5985098,75.0928995 C68.5473137,76.7296936 70.1177647,74.5235367 71.9912157,73.0649779 C67.3927451,68.6714779 61.7278333,68.6774191 55.9242941,69.0903308 C57.6967451,67.8862524 59.3573039,67.0871642 61.5198922,67.4515563 C63.4626569,67.778321 65.5123627,67.7218799 67.4828529,67.5218603 C68.372049,67.4307622 69.8088235,66.9227916 68.7136667,65.354321 C68.276,64.7275269 67.4828529,64.1027132 67.4749314,63.4709681 C67.458098,61.9163603 66.5401863,61.3262034 65.342049,61.1232132 C64.2399608,60.9370563 63.079451,61.061821 61.9466667,61.0974681 C60.5168235,61.1430171 59.0741078,61.682674 57.6957549,60.7508995 C57.6274314,60.7043603 57.5551471,60.662772 57.4848431,60.617223 L57.4848431,57.3812622 C60.3544314,55.976174 63.0754902,54.648321 65.8341765,53.4115661 C68.2443137,52.330272 70.6465294,51.1776838 73.5289902,51.6698112 C74.9172451,51.9064681 76.5510686,51.5945563 77.871,51.0440073 C78.8027745,50.6558505 80.0920098,49.3299779 79.9731863,48.6368407 C79.7979216,47.6179289 79.7830686,46.1177818 78.1324118,45.5266348 L78.1324118,45.5266348 Z" id="Fill-1874" fill="#000000"></path>
                <polygon id="Fill-1882" fill="#FFFFFF" points="25.8901618 36.8999475 28.2755441 36.8999475 28.2755441 24.8254965 25.8901618 24.8254965"></polygon>
                <path d="M32.2635588,24.8255956 L35.2420686,32.1124485 L35.2737549,32.079772 C35.1301765,31.5034779 35.0816569,30.8786642 35.0816569,30.2548407 L35.0816569,24.8255956 L37.4680294,24.8255956 L37.4680294,36.9000465 L35.2093922,36.9000465 L32.2635588,29.6131936 L32.2318725,29.6458701 L32.3437647,30.862821 L32.3596078,31.3598995 L32.3596078,36.9000465 L29.9732353,36.9000465 L29.9732353,24.8255956 L32.2635588,24.8255956 Z" id="Fill-1883" fill="#FFFFFF"></path>
                <polygon id="Fill-1884" fill="#FFFFFF" points="44.6906186 24.8255956 44.6906186 27.0673995 42.8013245 27.0673995 42.8013245 36.9000465 40.414952 36.9000465 40.414952 27.0673995 38.541501 27.0673995 38.541501 24.8255956"></polygon>
                <path d="M48.9511353,34.882621 C50.5364392,34.882621 50.6483314,31.8239054 50.6483314,30.8634152 C50.6483314,29.7900426 50.5364392,26.8432191 48.9511353,26.8432191 C47.3658314,26.8432191 47.2539392,29.7900426 47.2539392,30.8634152 C47.2539392,31.8239054 47.3658314,34.882621 48.9511353,34.882621 M53.1951157,30.8634152 C53.1951157,35.3955426 51.0810471,37.0927387 48.9511353,37.0927387 C46.8212235,37.0927387 44.7081451,35.3955426 44.7081451,30.8634152 C44.7081451,26.3312877 46.8212235,24.6331014 48.9511353,24.6331014 C51.0810471,24.6331014 53.1951157,26.3312877 53.1951157,30.8634152" id="Fill-1885" fill="#FFFFFF"></path>
                <polygon id="Fill-1886" fill="#FFFFFF" points="31.350202 37.7904308 31.350202 40.0322348 29.4609078 40.0322348 29.4609078 49.865872 27.0745353 49.865872 27.0745353 40.0322348 25.2010843 40.0322348 25.2010843 37.7904308"></polygon>
                <polygon id="Fill-1887" fill="#FFFFFF" points="34.8258892 37.7904308 34.8258892 42.5146563 37.243948 42.5146563 37.243948 37.7904308 39.6303206 37.7904308 39.6303206 49.865872 37.243948 49.865872 37.243948 44.7564603 34.8258892 44.7564603 34.8258892 49.865872 32.4405069 49.865872 32.4405069 37.7904308"></polygon>
                <polygon id="Fill-1888" fill="#FFFFFF" points="46.1322451 37.7904308 46.1322451 40.0322348 43.7141863 40.0322348 43.7141863 42.659225 45.844098 42.659225 45.844098 44.9010289 43.7141863 44.9010289 43.7141863 47.6240681 46.1639314 47.6240681 46.1639314 49.865872 41.3288039 49.865872 41.3288039 37.7904308"></polygon>
                <path d="M27.5227971,50.7552661 L28.54765,56.5211779 C28.6922186,57.3697759 28.7239049,58.2342171 28.8041108,59.0828152 L28.8357971,59.0828152 C28.9476892,58.2342171 29.012052,57.3697759 29.1883069,56.5211779 L30.3894147,50.7552661 L32.279699,50.7552661 L33.8164833,59.0828152 L33.8481696,59.0828152 C33.9293657,58.2342171 33.9442186,57.4014622 34.0887873,56.5528642 L35.0334343,50.7552661 L37.531699,50.7552661 L35.0334343,62.8307073 L32.9678853,62.8307073 L31.7350912,56.4568152 C31.6548853,55.7201093 31.5103167,54.9834034 31.3984245,54.2466975 L31.365748,54.2466975 C31.2380127,54.9834034 31.1578069,55.7201093 30.9825422,56.4568152 L29.6051794,62.8307073 L27.5227971,62.8307073 L25.0888951,50.7552661 L27.5227971,50.7552661 Z" id="Fill-1889" fill="#FFFFFF"></path>
                <polygon id="Fill-1890" fill="#FFFFFF" points="38.5102108 62.8302122 40.8955931 62.8302122 40.8955931 50.754771 38.5102108 50.754771"></polygon>
                <polygon id="Fill-1891" fill="#FFFFFF" points="44.9793598 50.7552661 44.9793598 60.5889034 47.4776245 60.5889034 47.4776245 62.8307073 42.5939775 62.8307073 42.5939775 50.7552661"></polygon>
                <path d="M53.4031559,56.8733907 C53.4031559,55.3356161 52.9229108,52.9017142 50.9534108,52.9017142 L50.9534108,60.6846554 C52.8753814,60.7807044 53.4031559,58.3784887 53.4031559,56.8733907 L53.4031559,56.8733907 Z M48.5670382,62.8304103 L48.5670382,50.7549691 L50.3761265,50.7549691 C50.792999,50.7549691 55.7895284,50.1469887 55.7895284,56.8892338 C55.7895284,60.3321456 54.4606853,62.8304103 50.69695,62.8304103 L48.5670382,62.8304103 Z" id="Fill-1892" fill="#FFFFFF"></path>
                <polygon id="Fill-1893" fill="#000000" points="59.7489265 28.4882318 60.8906225 28.4882318 60.8906225 28.2030554 59.7489265 28.2030554"></polygon>
                <polygon id="Fill-1894" fill="#000000" points="60.8901275 78.0866583 59.7484314 78.0866583 59.7484314 78.6580014 59.9118137 78.6580014 59.9118137 79.1986485 61.0545 79.1986485 61.0545 78.6273054 60.8901275 78.6273054"></polygon>
                <polygon id="Fill-1895" fill="#000000" points="60.8901275 75.8073259 59.7484314 75.8073259 59.7484314 76.3776789 59.9118137 76.3776789 59.9118137 76.9143652 61.0545 76.9143652 61.0545 76.3440122 60.8901275 76.3440122"></polygon>
                <polygon id="Fill-1896" fill="#000000" points="60.8901275 76.9469426 59.7484314 76.9469426 59.7484314 77.5172956 59.9118137 77.5172956 59.9118137 78.0569524 61.0545 78.0569524 61.0545 77.4856093 60.8901275 77.4856093"></polygon>
                <polygon id="Fill-1897" fill="#000000" points="60.8901275 79.2274632 59.7484314 79.2274632 59.7484314 79.7978161 59.9118137 79.7978161 59.9118137 80.3404436 61.0545 80.3404436 61.0545 79.7691005 60.8901275 79.7691005"></polygon>
                <polygon id="Fill-1898" fill="#000000" points="60.8901275 81.5079838 59.7484314 81.5079838 59.7484314 82.0783367 59.9118137 82.0783367 59.9118137 82.6229446 61.0545 82.6229446 61.0545 82.0535818 60.8901275 82.0535818"></polygon>
                <polygon id="Fill-1899" fill="#000000" points="60.8901275 80.3671789 59.7484314 80.3671789 59.7484314 80.938522 59.9118137 80.938522 59.9118137 81.4821397 61.0545 81.4821397 61.0545 80.9117867 60.8901275 80.9117867"></polygon>
                <polygon id="Fill-1900" fill="#000000" points="60.8901275 73.5267063 59.7484314 73.5267063 59.7484314 74.0970593 59.9118137 74.0970593 59.9118137 74.630775 61.0545 74.630775 61.0545 74.0594318 60.8901275 74.0594318"></polygon>
                <polygon id="Fill-1901" fill="#000000" points="60.8901275 68.9657642 59.7484314 68.9657642 59.7484314 69.5351269 59.9118137 69.5351269 59.9118137 70.0638916 61.0545 70.0638916 61.0545 69.4935387 60.8901275 69.4935387"></polygon>
                <polygon id="Fill-1902" fill="#000000" points="60.8901275 70.1053808 59.7484314 70.1053808 59.7484314 70.676724 59.9118137 70.676724 59.9118137 71.2064789 61.0545 71.2064789 61.0545 70.6351357 60.8901275 70.6351357"></polygon>
                <polygon id="Fill-1903" fill="#000000" points="60.8901275 67.8248603 59.7484314 67.8248603 59.7484314 68.3962034 59.9118137 68.3962034 59.9118137 68.9219975 61.0545 68.9219975 61.0545 68.3516446 60.8901275 68.3516446"></polygon>
                <polygon id="Fill-1904" fill="#000000" points="60.8901275 71.2461857 59.7484314 71.2461857 59.7484314 71.8165387 59.9118137 71.8165387 59.9118137 72.348274 61.0545 72.348274 61.0545 71.7769308 60.8901275 71.7769308"></polygon>
                <polygon id="Fill-1905" fill="#000000" points="60.8901275 82.6476995 59.7484314 82.6476995 59.7484314 83.2170622 59.9118137 83.2170622 59.9118137 83.7646407 61.0545 83.7646407 61.0545 83.1942877 60.8901275 83.1942877"></polygon>
                <polygon id="Fill-1906" fill="#000000" points="60.8901275 72.3860005 59.7484314 72.3860005 59.7484314 72.9563534 59.9118137 72.9563534 59.9118137 73.4890789 61.0545 73.4890789 61.0545 72.9187259 60.8901275 72.9187259"></polygon>
                <polygon id="Fill-1907" fill="#000000" points="60.8901275 74.666521 59.7484314 74.666521 59.7484314 75.2358838 59.9118137 75.2358838 59.9118137 75.7725701 61.0545 75.7725701 61.0545 75.2022171 60.8901275 75.2022171"></polygon>
                <polygon id="Fill-1908" fill="#000000" points="60.8901275 92.9094975 59.7484314 92.9094975 59.7484314 93.4808407 59.9118137 93.4808407 59.9118137 94.0412916 61.0545 94.0412916 61.0545 93.4699485 60.8901275 93.4699485"></polygon>
                <polygon id="Fill-1909" fill="#000000" points="59.7489265 33.0500652 60.8906225 33.0500652 60.8906225 32.478722 59.7489265 32.478722"></polygon>
                <polygon id="Fill-1910" fill="#000000" points="60.8901275 94.0503024 59.7484314 94.0503024 59.7484314 94.6196652 59.9118137 94.6196652 59.9118137 94.8979103 61.0545 94.8979103 61.0545 94.6127338 60.8901275 94.6127338"></polygon>
                <polygon id="Fill-1911" fill="#000000" points="60.8901275 66.6852436 59.7484314 66.6852436 59.7484314 67.2546063 59.9118137 67.2546063 59.9118137 67.7804005 61.0545 67.7804005 61.0545 67.2090573 60.8901275 67.2090573"></polygon>
                <polygon id="Fill-1912" fill="#000000" points="59.7489265 31.9093593 60.8906225 31.9093593 60.8906225 31.3390063 59.7489265 31.3390063"></polygon>
                <polygon id="Fill-1913" fill="#000000" points="59.7489265 30.7696436 60.8906225 30.7696436 60.8906225 30.1983005 59.7489265 30.1983005"></polygon>
                <polygon id="Fill-1914" fill="#000000" points="59.7489265 29.6279475 60.8906225 29.6279475 60.8906225 29.0585848 59.7489265 29.0585848"></polygon>
                <polygon id="Fill-1915" fill="#000000" points="60.8901275 91.7697818 59.7484314 91.7697818 59.7484314 92.3401348 59.9118137 92.3401348 59.9118137 92.8995956 61.0545 92.8995956 61.0545 92.3282524 60.8901275 92.3282524"></polygon>
                <polygon id="Fill-1916" fill="#000000" points="60.8901275 87.2087407 59.7484314 87.2087407 59.7484314 87.7790936 59.9118137 87.7790936 59.9118137 88.3326132 61.0545 88.3326132 61.0545 87.7622603 60.8901275 87.7622603"></polygon>
                <polygon id="Fill-1917" fill="#000000" points="60.8901275 86.069025 59.7484314 86.069025 59.7484314 86.6383877 59.9118137 86.6383877 59.9118137 87.1909171 61.0545 87.1909171 61.0545 86.619574 60.8901275 86.619574"></polygon>
                <polygon id="Fill-1918" fill="#000000" points="60.8901275 84.9282201 59.7484314 84.9282201 59.7484314 85.498573 59.9118137 85.498573 59.9118137 86.049122 61.0545 86.049122 61.0545 85.4777789 60.8901275 85.4777789"></polygon>
                <polygon id="Fill-1919" fill="#000000" points="60.8901275 89.4892612 59.7484314 89.4892612 59.7484314 90.0596142 59.9118137 90.0596142 59.9118137 90.6170946 61.0545 90.6170946 61.0545 90.0457514 60.8901275 90.0457514"></polygon>
                <polygon id="Fill-1920" fill="#000000" points="60.8901275 88.3484563 59.7484314 88.3484563 59.7484314 88.9197995 59.9118137 88.9197995 59.9118137 89.4743093 61.0545 89.4743093 61.0545 88.9039563 60.8901275 88.9039563"></polygon>
                <polygon id="Fill-1921" fill="#000000" points="60.8901275 83.7885044 59.7484314 83.7885044 59.7484314 84.3588573 59.9118137 84.3588573 59.9118137 84.9074259 61.0545 84.9074259 61.0545 84.3360828 60.8901275 84.3360828"></polygon>
                <polygon id="Fill-1922" fill="#000000" points="60.8901275 90.6289769 59.7484314 90.6289769 59.7484314 91.2003201 59.9118137 91.2003201 59.9118137 91.7578005 61.0545 91.7578005 61.0545 91.1864573 60.8901275 91.1864573"></polygon>
                <polygon id="Fill-1923" fill="#000000" points="60.8901275 43.8812259 59.7484314 43.8812259 59.7484314 44.4515789 59.9118137 44.4515789 59.9118137 44.9446965 61.0545 44.9446965 61.0545 44.3743436 60.8901275 44.3743436"></polygon>
                <polygon id="Fill-1924" fill="#000000" points="60.8901275 42.740421 59.7484314 42.740421 59.7484314 43.3117642 59.9118137 43.3117642 59.9118137 43.8029014 61.0545 43.8029014 61.0545 43.2325485 60.8901275 43.2325485"></polygon>
                <polygon id="Fill-1925" fill="#000000" points="60.8901275 41.6007054 59.7484314 41.6007054 59.7484314 42.1710583 59.9118137 42.1710583 59.9118137 42.6612054 61.0545 42.6612054 61.0545 42.0898622 60.8901275 42.0898622"></polygon>
                <polygon id="Fill-1926" fill="#000000" points="60.8901275 40.4609897 59.7484314 40.4609897 59.7484314 41.0313426 59.9118137 41.0313426 59.9118137 41.5195093 61.0545 41.5195093 61.0545 40.9481661 60.8901275 40.9481661"></polygon>
                <polygon id="Fill-1927" fill="#000000" points="60.8901275 47.3013632 59.7484314 47.3013632 59.7484314 47.8717161 59.9118137 47.8717161 59.9118137 48.3697848 61.0545 48.3697848 61.0545 47.7984416 60.8901275 47.7984416"></polygon>
                <polygon id="Fill-1928" fill="#000000" points="60.8901275 46.1617465 59.7484314 46.1617465 59.7484314 46.7311093 59.9118137 46.7311093 59.9118137 47.2291779 61.0545 47.2291779 61.0545 46.6578348 60.8901275 46.6578348"></polygon>
                <polygon id="Fill-1929" fill="#000000" points="60.8901275 45.0208426 59.7484314 45.0208426 59.7484314 45.5921857 59.9118137 45.5921857 59.9118137 46.0872838 61.0545 46.0872838 61.0545 45.5159407 60.8901275 45.5159407"></polygon>
                <polygon id="Fill-1930" fill="#000000" points="60.8901275 33.6194279 59.7484314 33.6194279 59.7484314 34.1897808 59.9118137 34.1897808 59.9118137 34.6690357 61.0545 34.6690357 61.0545 34.0976926 60.8901275 34.0976926"></polygon>
                <polygon id="Fill-1931" fill="#000000" points="60.8901275 34.7591436 59.7484314 34.7591436 59.7484314 35.3294965 59.9118137 35.3294965 59.9118137 35.8107318 61.0545 35.8107318 61.0545 35.2393887 60.8901275 35.2393887"></polygon>
                <polygon id="Fill-1932" fill="#000000" points="60.8901275 48.4422671 59.7484314 48.4422671 59.7484314 49.0116299 59.9118137 49.0116299 59.9118137 49.5116789 61.0545 49.5116789 61.0545 48.9403357 60.8901275 48.9403357"></polygon>
                <polygon id="Fill-1933" fill="#000000" points="60.8901275 35.8999485 59.7484314 35.8999485 59.7484314 36.4703014 59.9118137 36.4703014 59.9118137 36.9525269 61.0545 36.9525269 61.0545 36.382174 60.8901275 36.382174"></polygon>
                <polygon id="Fill-1934" fill="#000000" points="60.8901275 38.1804691 59.7484314 38.1804691 59.7484314 38.750822 59.9118137 38.750822 59.9118137 39.2350279 61.0545 39.2350279 61.0545 38.664675 60.8901275 38.664675"></polygon>
                <polygon id="Fill-1935" fill="#000000" points="60.8901275 39.3201848 59.7484314 39.3201848 59.7484314 39.8905377 59.9118137 39.8905377 59.9118137 40.3777142 61.0545 40.3777142 61.0545 39.806371 60.8901275 39.806371"></polygon>
                <polygon id="Fill-1936" fill="#000000" points="60.8901275 37.0396642 59.7484314 37.0396642 59.7484314 37.6100171 59.9118137 37.6100171 59.9118137 38.094223 61.0545 38.094223 61.0545 37.5238701 60.8901275 37.5238701"></polygon>
                <polygon id="Fill-1937" fill="#000000" points="60.8901275 63.2650073 59.7484314 63.2650073 59.7484314 63.8353603 59.9118137 63.8353603 59.9118137 64.3552132 61.0545 64.3552132 61.0545 63.7848603 60.8901275 63.7848603"></polygon>
                <polygon id="Fill-1938" fill="#000000" points="60.8901275 59.8436818 59.7484314 59.8436818 59.7484314 60.4140348 59.9118137 60.4140348 59.9118137 60.9299269 61.0545 60.9299269 61.0545 60.3585838 60.8901275 60.3585838"></polygon>
                <polygon id="Fill-1939" fill="#000000" points="60.8901275 58.7039661 59.7484314 58.7039661 59.7484314 59.2743191 59.9118137 59.2743191 59.9118137 59.7882308 61.0545 59.7882308 61.0545 59.2168877 60.8901275 59.2168877"></polygon>
                <polygon id="Fill-1940" fill="#000000" points="60.8901275 60.9844867 59.7484314 60.9844867 59.7484314 61.5538495 59.9118137 61.5538495 59.9118137 62.071722 61.0545 62.071722 61.0545 61.5003789 60.8901275 61.5003789"></polygon>
                <polygon id="Fill-1941" fill="#000000" points="60.8901275 57.5631612 59.7484314 57.5631612 59.7484314 58.1345044 59.9118137 58.1345044 59.9118137 58.6464357 61.0545 58.6464357 61.0545 58.0750926 60.8901275 58.0750926"></polygon>
                <polygon id="Fill-1942" fill="#000000" points="60.8901275 64.404723 59.7484314 64.404723 59.7484314 64.9750759 59.9118137 64.9750759 59.9118137 65.4969093 61.0545 65.4969093 61.0545 64.9255661 60.8901275 64.9255661"></polygon>
                <polygon id="Fill-1943" fill="#000000" points="60.8901275 62.1242024 59.7484314 62.1242024 59.7484314 62.6945554 59.9118137 62.6945554 59.9118137 63.2134181 61.0545 63.2134181 61.0545 62.6430652 60.8901275 62.6430652"></polygon>
                <polygon id="Fill-1944" fill="#000000" points="60.8901275 65.5443397 59.7484314 65.5443397 59.7484314 66.1156828 59.9118137 66.1156828 59.9118137 66.6385063 61.0545 66.6385063 61.0545 66.0671632 60.8901275 66.0671632"></polygon>
                <polygon id="Fill-1945" fill="#000000" points="60.8901275 53.0032093 59.7484314 53.0032093 59.7484314 53.572572 59.9118137 53.572572 59.9118137 54.0795524 61.0545 54.0795524 61.0545 53.5082093 60.8901275 53.5082093"></polygon>
                <polygon id="Fill-1946" fill="#000000" points="60.8901275 51.8624044 59.7484314 51.8624044 59.7484314 52.4327573 59.9118137 52.4327573 59.9118137 52.9377573 61.0545 52.9377573 61.0545 52.3664142 60.8901275 52.3664142"></polygon>
                <polygon id="Fill-1947" fill="#000000" points="60.8901275 50.7226887 59.7484314 50.7226887 59.7484314 51.2930416 59.9118137 51.2930416 59.9118137 51.795071 61.0545 51.795071 61.0545 51.2247181 60.8901275 51.2247181"></polygon>
                <polygon id="Fill-1948" fill="#000000" points="60.8901275 49.5818838 59.7484314 49.5818838 59.7484314 50.1522367 59.9118137 50.1522367 59.9118137 50.6532759 61.0545 50.6532759 61.0545 50.082923 60.8901275 50.082923"></polygon>
                <polygon id="Fill-1949" fill="#000000" points="60.8901275 56.4234456 59.7484314 56.4234456 59.7484314 56.9937985 59.9118137 56.9937985 59.9118137 57.5037495 61.0545 57.5037495 61.0545 56.9333965 60.8901275 56.9333965"></polygon>
                <polygon id="Fill-1950" fill="#000000" points="60.8901275 54.142925 59.7484314 54.142925 59.7484314 54.7132779 59.9118137 54.7132779 59.9118137 55.2212485 61.0545 55.2212485 61.0545 54.6499054 60.8901275 54.6499054"></polygon>
                <polygon id="Fill-1951" fill="#000000" points="60.8901275 55.2826407 59.7484314 55.2826407 59.7484314 55.8539838 59.9118137 55.8539838 59.9118137 56.3619544 61.0545 56.3619544 61.0545 55.7925916 60.8901275 55.7925916"></polygon>
                <polygon id="Fill-1952" fill="#000000" points="59.6320833 96.1305063 61.2084755 96.1305063 61.2084755 95.3749867 59.6320833 95.3749867"></polygon>
                <path d="M59.91825,95.8443397 L60.923299,95.8443397 L60.923299,95.6601632 L59.91825,95.6601632 L59.91825,95.8443397 Z M61.2084755,96.4156828 L59.6320833,96.4156828 C59.4746422,96.4156828 59.3469069,96.2879475 59.3469069,96.1305063 L59.3469069,95.3739965 C59.3469069,95.2165554 59.4746422,95.0888201 59.6320833,95.0888201 L61.2084755,95.0888201 C61.3659167,95.0888201 61.493652,95.2165554 61.493652,95.3739965 L61.493652,96.1305063 C61.493652,96.2879475 61.3659167,96.4156828 61.2084755,96.4156828 L61.2084755,96.4156828 Z" id="Fill-1953" fill="#000000"></path>
                <polygon id="Fill-1954" fill="#000000" points="59.9123088 33.5273397 61.0540049 33.5273397 61.0540049 33.2421632 59.9123088 33.2421632"></polygon>
                <polyline id="Fill-1955" fill="#000000" points="61.0541039 96.0968397 59.9124078 96.0968397 59.9124078 96.6671926 61.0541039 96.6671926"></polyline>
                <path d="M19.9911676,100.539651 C20.0911775,100.510936 20.2030696,100.479249 20.3139716,100.447563 L20.3139716,96.4075632 L22.3735794,97.3888475 L22.3735794,99.8643377 C22.9815598,99.6930338 23.5717167,99.527671 24.0371088,99.3979554 C24.0371088,99.3979554 24.0866186,99.3840926 24.1559324,99.3642887 L24.1559324,94.1647691 L28.5365598,96.2521024 L28.5365598,98.1443671 C29.249501,97.9393965 29.9287755,97.7413573 30.3189127,97.6264946 L30.3189127,92.5438181 L29.0415598,92.5438181 L24.1559324,90.2158671 L24.1559324,89.4009357 L22.3735794,89.4009357 L22.3735794,94.9688083 L20.3139716,93.987524 L20.3139716,93.4884652 L19.2217853,93.4884652 L19.2217853,100.762446 C19.6911382,100.625798 19.9911676,100.539651 19.9911676,100.539651" id="Fill-1956" fill="#000000"></path>
            </g>
        </g>
    </g>
</svg>