<?xml version="1.0" encoding="UTF-8"?>
<svg width="95px" height="40px" viewBox="0 0 95 40" version="1.1" xmlns="http://www.w3.org/2000/svg" xmlns:xlink="http://www.w3.org/1999/xlink">
    <!-- Generator: Sketch 42 (36781) - http://www.bohemiancoding.com/sketch -->
    <title>sticker_bloody-monday_black</title>
    <desc>Created with Sketch.</desc>
    <defs></defs>
    <g id="Page-1" stroke="none" stroke-width="1" fill="none" fill-rule="evenodd">
        <g id="stickers-white" transform="translate(-557.000000, -173.000000)" fill="#000000">
            <g id="sticker_bloody-monday_black" transform="translate(557.000000, 173.000000)">
                <path d="M12.646,7.81180602 C13.716,7.81180602 14.776,7.37894028 14.9726667,6.12713935 C15.1543333,4.9789588 14.441,4.49595417 13.3726667,4.49595417 L12.8626667,4.49595417 L12.3393333,7.81180602 L12.646,7.81180602 Z M11.576,15.4212181 C12.721,15.4212181 13.8276667,14.8596625 14.0326667,13.5577227 C14.2376667,12.2541116 13.3293333,11.7192968 12.1326667,11.7192968 L11.726,11.7192968 L11.1426667,15.4212181 L11.576,15.4212181 Z M8.32433333,0.332755093 L14.4343333,0.332755093 C17.4893333,0.332755093 20.8443333,1.66143565 20.1893333,5.82129213 C19.8476667,7.99063472 18.1826667,9.67530139 15.9926667,9.67530139 L15.9843333,9.72711157 C18.4976667,9.93268102 19.5976667,11.5137273 19.1926667,14.0925375 C18.8193333,16.4674495 16.9026667,19.5810745 12.2693333,19.5810745 L5.29433333,19.5810745 L8.32433333,0.332755093 Z" id="Fill-2063"></path>
                <polygon id="Fill-2064" points="19.543 19.5810745 22.573 0.332755093 27.7663333 0.332755093 25.4513333 15.0368199 29.3463333 15.0368199 28.6313333 19.5810745"></polygon>
                <path d="M36.9233333,15.0617222 C38.8833333,15.0617222 39.575,11.1575741 39.7633333,9.95591204 C39.9516667,8.75926389 40.4916667,4.85177315 38.53,4.85177315 C36.5716667,4.85177315 35.88,8.75926389 35.69,9.95591204 C35.5016667,11.1575741 34.9633333,15.0617222 36.9233333,15.0617222 M39.2933333,0 C44.5633333,0 45.7983333,5.25956944 45.0583333,9.95591204 C44.3183333,14.6539259 41.43,19.9118241 36.16,19.9118241 C30.89,19.9118241 29.6566667,14.6539259 30.395,9.95591204 C31.135,5.25956944 34.025,0 39.2933333,0" id="Fill-2065"></path>
                <path d="M52.2146667,15.0617222 C54.1746667,15.0617222 54.8663333,11.1575741 55.0546667,9.95591204 C55.243,8.75926389 55.783,4.85177315 53.8213333,4.85177315 C51.863,4.85177315 51.1713333,8.75926389 50.9813333,9.95591204 C50.793,11.1575741 50.2546667,15.0617222 52.2146667,15.0617222 M54.5846667,0 C59.8546667,0 61.0896667,5.25956944 60.3496667,9.95591204 C59.6096667,14.6539259 56.7213333,19.9118241 51.4513333,19.9118241 C46.1813333,19.9118241 44.948,14.6539259 45.6863333,9.95591204 C46.4263333,5.25956944 49.3163333,0 54.5846667,0" id="Fill-2066"></path>
                <path d="M65.9736667,14.9345366 C68.3453333,14.9094671 69.2186667,11.9479301 69.5036667,10.1362449 C69.8336667,8.04378194 69.8836667,5.1323838 67.517,5.1323838 L65.9736667,14.9345366 Z M63.0786667,0.33409213 L67.2536667,0.33409213 C73.1603333,0.33409213 75.7553333,4.06108287 74.8386667,9.88220787 C73.4403333,18.7634764 67.737,19.5807403 64.5803333,19.5807403 L60.0486667,19.5807403 L63.0786667,0.33409213 Z" id="Fill-2067"></path>
                <polygon id="Fill-2068" points="77.9381667 19.5810745 79.2231667 11.4117782 76.2331667 0.332755093 81.6298333 0.332755093 82.4748333 6.28089861 82.5265 6.28089861 85.2698333 0.332755093 90.6415 0.332755093 84.4165 11.4117782 83.1315 19.5810745"></polygon>
                <path d="M14.8416667,39.6366301 L16.2633333,27.5381162 L16.2116667,27.5381162 C15.7616667,28.9420051 15.3616667,30.3442227 14.8866667,31.7481116 L12.1683333,39.6366301 L7.94333333,39.6366301 L8.04,27.5381162 L7.99,27.5381162 C7.73833333,28.9654032 7.54333333,30.3709634 7.24166667,31.8015931 L5.575,39.6366301 L0,39.6366301 L5.27,20.3883106 L11.7366667,20.3883106 L11.6016667,30.6250005 L11.6516667,30.6250005 C11.995,29.426681 12.3066667,28.2517597 12.7233333,27.051769 L15.02,20.3883106 L21.41,20.3883106 L20.2383333,39.6366301 L14.8416667,39.6366301 Z" id="Fill-2069"></path>
                <path d="M28.3223333,35.1172778 C30.2823333,35.1172778 30.974,31.2131296 31.1623333,30.0114676 C31.3506667,28.8148194 31.8906667,24.9073287 29.929,24.9073287 C27.9706667,24.9073287 27.279,28.8148194 27.089,30.0114676 C26.9006667,31.2131296 26.3623333,35.1172778 28.3223333,35.1172778 M30.6923333,20.0555556 C35.9623333,20.0555556 37.1973333,25.315125 36.4573333,30.0114676 C35.7173333,34.7094815 32.829,39.9673796 27.559,39.9673796 C22.289,39.9673796 21.0556667,34.7094815 21.794,30.0114676 C22.534,25.315125 25.424,20.0555556 30.6923333,20.0555556" id="Fill-2070"></path>
                <path d="M39.1866667,20.3889792 L44.125,20.3889792 L46.45,31.979419 L46.51,31.9276088 C46.655,29.706456 46.6183333,27.512044 46.9683333,25.2908912 L47.74,20.3889792 L52.7283333,20.3889792 L49.7,39.6372986 L44.71,39.6372986 L42.5883333,28.533206 L42.53,28.5816736 C42.3716667,30.3950301 42.32,32.1833171 42.0333333,33.9950023 L41.1466667,39.6372986 L36.1566667,39.6372986 L39.1866667,20.3889792 Z" id="Fill-2071"></path>
                <path d="M57.3986667,34.9900921 C59.7703333,34.9650227 60.6436667,32.0034856 60.9286667,30.1918005 C61.2586667,28.0993375 61.3086667,25.1879394 58.942,25.1879394 L57.3986667,34.9900921 Z M54.5036667,20.3896477 L58.6786667,20.3896477 C64.5853333,20.3896477 67.1803333,24.1166384 66.2636667,29.9377634 C64.8653333,38.8190319 59.162,39.6362958 56.0053333,39.6362958 L51.4736667,39.6362958 L54.5036667,20.3896477 Z" id="Fill-2072"></path>
                <path d="M74.316,33.0771264 L74.4593333,28.6080801 C74.4943333,27.4080894 74.586,26.1830292 74.6476667,24.9847097 L74.596,24.9847097 C74.2543333,26.1830292 73.9343333,27.4080894 73.5426667,28.6080801 L72.1276667,33.0771264 L74.316,33.0771264 Z M74.276,39.6369644 L74.2843333,37.1601032 L70.796,37.1601032 L69.9743333,39.6369644 L64.6276667,39.6369644 L72.266,20.3886449 L78.6043333,20.3886449 L79.6476667,39.6369644 L74.276,39.6369644 Z" id="Fill-2073"></path>
                <polygon id="Fill-2074" points="82.087 39.6366301 83.372 31.4673338 80.382 20.3883106 85.7786667 20.3883106 86.6236667 26.3364542 86.6753333 26.3364542 89.4186667 20.3883106 94.7903333 20.3883106 88.5653333 31.4673338 87.2803333 39.6366301"></polygon>
            </g>
        </g>
    </g>
</svg>