<?xml version="1.0" encoding="UTF-8"?>
<svg width="114px" height="79px" viewBox="0 0 114 79" version="1.1" xmlns="http://www.w3.org/2000/svg" xmlns:xlink="http://www.w3.org/1999/xlink">
    <!-- Generator: Sketch 42 (36781) - http://www.bohemiancoding.com/sketch -->
    <title>sticker_lacysunday_white</title>
    <desc>Created with Sketch.</desc>
    <defs></defs>
    <g id="Page-1" stroke="none" stroke-width="1" fill="none" fill-rule="evenodd">
        <g id="stickers-black" transform="translate(-187.000000, -248.000000)" fill-rule="nonzero" fill="#FFFFFF">
            <g id="sticker_lacysunday_white" transform="translate(187.000000, 248.000000)">
                <g id="_Group_2" transform="translate(13.758621, 13.758621)">
                    <path d="M43.4117241,9.95206897 L42.5206897,9.82758621 L41.6296552,9.67689655 L40.7517241,9.49344828 C40.5027586,9.45413793 40.3062069,10.1486207 40.3062069,11.092069 L40.3062069,21.1227586 C40.3062069,22.04 40.5093103,22.7934483 40.7517241,22.7934483 L43.4313793,22.7934483 C43.6803448,22.7934483 43.8768966,22.0727586 43.8768966,21.1948276 L43.8768966,11.6227586 C43.8572414,10.7448276 43.6606897,9.99137931 43.4117241,9.95206897 Z" id="_Path_901"></path>
                    <path d="M27.287931,23.8613793 L24.6344828,23.8613793 C24.392069,23.8613793 24.1889655,24.6868966 24.1889655,25.6958621 L24.1889655,36.6896552 C24.1889655,37.6986207 24.3855172,38.6027586 24.6344828,38.7075862 L25.5189655,39.0810345 L26.4034483,39.4544828 L27.287931,39.827931 C27.5303448,39.9327586 27.7334483,39.1072414 27.7334483,37.9934483 L27.7334483,25.8793103 C27.7334483,24.7655172 27.5303448,23.8613793 27.287931,23.8613793 Z" id="_Path_902"></path>
                    <path d="M24.6344828,20.0613793 L27.287931,20.0613793 C27.5303448,20.0613793 27.7334483,19.4651724 27.7334483,18.7510345 L27.7334483,10.7448276 C27.7334483,10.0110345 27.5368966,9.43448276 27.287931,9.49344828 L26.4034483,9.65068966 L25.5189655,9.80793103 L24.6344828,9.96517241 C24.392069,10.0110345 24.1889655,10.6203448 24.1889655,11.2755172 L24.1889655,18.8034483 C24.1889655,19.4913793 24.3724138,20.0613793 24.6344828,20.0613793 Z" id="_Path_903"></path>
                    <path d="M66.1068966,7.90137931 C65.1437931,7.5737931 61.3110345,6.39448276 60.1317241,6.04068966 C58.9524138,5.68689655 55.1131034,4.59931034 54.0648276,4.30448276 C53.0165517,4.00965517 49.7865517,3.11206897 48.5024138,2.73862069 C48.5024138,2.73862069 47.8472414,2.54206897 47.3886207,2.40448276 C46.93,2.26689655 46.5106897,2.12931034 46.0782759,2.00482759 C45.6458621,1.88034483 45.2003448,1.76241379 44.767931,1.65758621 L44.3289655,1.55275862 L43.202069,1.31034483 L42.7696552,1.23827586 C42.3372414,1.1662069 41.7017241,1.07448276 40.9024138,0.982758621 C40.1031034,0.891034483 39.14,0.792758621 38.0458621,0.727241379 C36.9517241,0.661724138 35.7265517,0.471724138 34.4031034,0.465172414 L33.9313793,0.465172414 C32.6210345,0.465172414 31.3827586,0.655172414 30.2886207,0.727241379 C29.1944828,0.799310345 28.2313793,0.891034483 27.432069,0.982758621 C26.6327586,1.07448276 25.9972414,1.17275862 25.5648276,1.23827586 L24.9096552,1.3562069 L24.4706897,1.44137931 C23.9924138,1.55931034 23.2127586,1.76241379 22.7344828,1.89344828 L22.302069,2.02448276 C21.8696552,2.15551724 18.8231034,3.04 17.5127586,3.40034483 L14.7086207,4.17344828 L10.0306897,5.4837931 C10.0306897,5.4837931 8.15034483,6.02103448 6.09965517,6.65655172 C4.04896552,7.29206897 2.05068966,7.92103448 0.517586207,8.47137931 L0.517586207,35.7593103 C0.517586207,37.0696552 0.812413793,38.3406897 1.17275862,38.5175862 C1.53310345,38.6944828 4.94655172,40.3258621 6.15862069,40.8893103 L10.2075862,42.7041379 C11.4262069,43.247931 13.4375862,44.1062069 14.6693103,44.6172414 C14.6693103,44.6172414 19.5896552,46.6548276 23.3634483,47.9586207 C26.8999284,49.2269225 30.5266833,50.2277843 34.2131034,50.9527586 C37.9300424,50.2127981 41.5871486,49.1988818 45.1544828,47.9193103 C48.9413793,46.6089655 52.7348276,45.0889655 56.1089655,43.6475862 C59.4831034,42.2062069 62.3396552,40.8631034 62.3396552,40.8631034 C63.5517241,40.2931034 65.3010345,39.4610345 66.2248276,39.0089655 C67.1486207,38.5568966 67.9086207,37.0893103 67.9086207,35.7331034 L67.9086207,10.9217241 C67.8562069,9.58517241 67.07,8.22241379 66.1068966,7.90137931 Z M15.9010345,41.157931 L15.9010345,41.157931 L15.9010345,41.157931 L15.9010345,41.157931 L15.9010345,41.157931 L15.9010345,41.157931 L15.4751724,40.9482759 L14.5448276,40.6206897 L13.7062069,40.207931 L12.8675862,39.7951724 C12.6382759,39.6837931 12.2124138,38.5962069 11.897931,37.3775862 L10.7972414,32.9617241 L9.69655172,28.5458621 L8.59586207,24.13 C8.29448276,22.917931 8.05862069,22.8196552 8.07827586,23.8941379 L8.1437931,27.8251724 L8.20931034,31.7562069 L8.27482759,35.6872414 C8.27482759,36.7682759 8.30758621,37.6527586 8.30758621,37.6527586 L8.30758621,37.6527586 L8.30758621,37.6527586 L8.30758621,37.6527586 L8.26172414,37.6527586 L7.77034483,37.4562069 L6.80068966,37.0631034 L5.83103448,36.67 L4.86137931,36.2768966 L4.36344828,36.0803448 L4.36344828,36.0803448 L4.36344828,36.0803448 L4.36344828,36.0803448 L4.36344828,36.0344828 L4.36344828,33.5972414 L4.36344828,13.942069 L4.36344828,11.5048276 L4.36344828,11.5048276 L4.36344828,11.5048276 L4.36344828,11.5048276 L4.40931034,11.5048276 L4.87448276,11.4 L5.78517241,11.1903448 L6.69586207,10.9806897 L7.60655172,10.7710345 C7.85551724,10.712069 8.30758621,11.4262069 8.60241379,12.3696552 L9.68344828,15.7765517 L10.7644828,19.1834483 L11.8455172,22.5903448 C12.1403448,23.5272414 12.3762069,23.4486207 12.3565517,22.42 L12.2975862,18.6724138 L12.2386207,14.9248276 L12.1796552,11.1772414 L12.1796552,9.29034483 L12.1796552,9.29034483 L12.1796552,9.29034483 L12.1796552,9.29034483 L12.2255172,9.29034483 L12.6775862,9.18551724 L13.5751724,8.97586207 L14.4727586,8.7662069 L15.3703448,8.55655172 L15.8289655,8.45172414 L15.8289655,8.45172414 L15.8289655,8.45172414 L15.8289655,8.45172414 L15.8289655,8.49758621 L15.8289655,10.9348276 L15.8289655,38.6551724 L15.8289655,41.0858621 L15.8289655,41.0858621 L15.8289655,41.1186207 C15.8553891,41.1232153 15.8801984,41.1344922 15.9010345,41.1513793 L15.9010345,41.157931 Z M31.5268966,11.97 L31.5268966,20.3103448 L31.3565517,20.52 L31.0158621,20.9327586 L30.6751724,21.3455172 L30.3344828,21.7582759 C30.2416518,21.8802036 30.2416518,22.0491068 30.3344828,22.1710345 L30.6686207,22.5903448 L31.0027586,23.0096552 L31.3368966,23.4289655 L31.5072414,23.6451724 L31.5072414,23.6844828 L31.5072414,26.1086207 L31.5072414,40.6206897 C31.5072414,41.9310345 31.3762069,43.1562069 31.2124138,43.3003448 L30.6227586,43.8244828 L30.0331034,44.3486207 L29.4434483,44.8727586 C28.9863218,45.0068593 28.4964363,44.9743551 28.0610345,44.7810345 L25.8924138,44.08 L23.7172414,43.3527586 L21.5486207,42.6517241 L20.4544828,42.297931 L20.4544828,42.297931 L20.4544828,42.297931 L20.4544828,42.297931 L20.4544828,42.252069 L20.4544828,39.8148276 L20.4544828,8.7662069 L20.4544828,6.32896552 L20.4544828,6.32896552 L20.4544828,6.32896552 L20.4544828,6.32896552 L20.5003448,6.32896552 L21.587931,6.15862069 L23.7565517,5.81793103 L25.9251724,5.47724138 L28.0937931,5.13655172 C28.5532162,5.02598549 29.0354192,5.05798 29.4762069,5.22827586 L30.0658621,5.75241379 L30.6555172,6.27655172 L31.2451724,6.80068966 C31.4913855,7.40894283 31.5923355,8.06623947 31.54,8.72034483 L31.5268966,11.97 Z M51.2344828,41.537931 L51.2344828,41.537931 L51.2344828,41.537931 L51.2344828,41.537931 L51.1951724,41.537931 L50.7562069,41.7017241 L49.897931,42.0227586 L49.0396552,42.3437931 L48.1813793,42.6648276 C47.9455172,42.75 47.382069,41.9637931 46.9365517,40.9089655 L45.3117241,37.0762069 L43.6868966,33.2434483 L42.0227586,29.4827586 C41.77399,28.8170075 41.4624727,28.1764227 41.0924138,27.5696552 L40.397931,27.5696552 C40.2825512,28.3172043 40.2430399,29.0745027 40.28,29.83 L40.28,43.3855172 L40.28,45.6589655 L40.28,45.6589655 L40.28,45.6589655 L40.28,45.6589655 L40.2341379,45.6589655 L39.7034483,45.7637931 L38.6551724,45.9734483 L37.6068966,46.1831034 L36.5586207,46.3927586 L36.0213793,46.4975862 L36.0213793,46.4975862 L36.0213793,46.4975862 L36.0213793,46.2289655 L36.0213793,45.3968966 L36.0213793,44.912069 L36.0213793,45.8096552 L36.0213793,45.8817241 L36.0213793,44.0734483 L36.0213793,39.4872414 L36.0213793,34.6324138 L36.0213793,11.137931 L36.0213793,7.16758621 L36.0213793,5.73275862 L36.0213793,5.07758621 L36.0213793,4.92034483 L36.0213793,4.92034483 L36.0672414,4.92034483 L37.2334483,5.09068966 L39.5527586,5.43137931 L41.872069,5.77206897 L44.1913793,6.11275862 L45.3575862,6.28965517 L45.337931,6.28965517 L45.6327586,6.55172414 L46.2093103,7.06275862 L46.7858621,7.5737931 L47.3624138,8.08482759 L47.6572414,8.35344828 L47.6572414,8.39931034 L47.6572414,10.4958621 L47.6572414,23.0293103 L47.6572414,25.1324138 L47.6572414,25.1782759 L47.3493103,25.4665517 L46.74,26.0365517 L46.1306897,26.6065517 L45.5213793,27.1765517 C45.3575862,27.3337931 45.5606897,28.2510345 45.9734483,29.2141379 L47.4868966,32.7258621 L49.0003448,36.2375862 L50.5137931,39.7493103 L51.2672414,41.5051724 L51.2672414,41.5051724 L51.2344828,41.537931 Z M63.6827586,16.2155172 L63.6827586,31.1993103 C63.6827586,32.5096552 63.6827586,33.7086207 63.6172414,33.82 L63.4862069,34.1606897 L63.3551724,34.5013793 L63.2241379,34.842069 C62.8793615,35.1056977 62.4914108,35.3074321 62.0775862,35.4382759 L59.9155172,36.29 L57.7534483,37.1417241 L55.5913793,37.9934483 C54.9951724,38.2293103 54.3793103,38.3013793 54.2155172,38.1572414 L53.6258621,37.6331034 L53.0362069,37.1089655 L52.4465517,36.5848276 C52.2827586,36.4406897 52.1517241,35.2286207 52.1517241,33.892069 L52.1517241,14.1451724 C52.1517241,12.8348276 52.2827586,11.5965517 52.4465517,11.4524138 L53.0362069,10.9282759 L53.6258621,10.4041379 L54.2155172,9.88 L54.5103448,9.61793103 L54.5103448,9.61793103 L55.5389655,9.9062069 L57.5896552,10.4827586 L59.6403448,11.0593103 L61.6910345,11.6358621 C62.1035843,11.7206244 62.4940207,11.8901853 62.8375862,12.1337931 L63.0734483,12.5465517 L63.3093103,12.9593103 L63.5451724,13.372069 L63.6631034,13.5817241 L63.6631034,13.5817241 L63.6631034,13.5817241 L63.6631034,13.6144828 L63.6631034,16.0517241 L63.6827586,16.2155172 Z" id="_Compound_Path_2"></path>
                    <path d="M59.3913793,15.1672414 L58.402069,14.9182759 L57.4127586,14.6693103 L56.4234483,14.4137931 C56.1548276,14.3417241 55.932069,15.3703448 55.932069,16.6872414 L55.932069,31.1010345 C55.932069,32.4113793 56.1548276,33.4137931 56.4234483,33.3089655 L57.4127586,32.9224138 L58.402069,32.5358621 L59.3913793,32.1493103 C59.66,32.0444828 59.8827586,31.0224138 59.8827586,29.8758621 L59.8827586,17.4275862 C59.8827586,16.2286207 59.66,15.2393103 59.3913793,15.1672414 Z" id="_Path_904"></path>
                </g>
                <path d="M113.724828,33.7593149 L106.517931,28.4393149 C106.379512,28.3377279 106.191177,28.3377279 106.052759,28.4393149 L105.240345,29.0289701 L105.777586,28.4196597 C102.573793,25.5958666 98.1382759,26.0348322 97.1555172,26.1789701 C96.2470115,26.1178207 95.3734483,26.0697747 94.5348276,26.0348322 C92.7789655,21.6255218 90.1713793,18.9327632 86.7710345,18.0220735 C83.1675862,17.0589701 79.4396552,18.3496597 76.6551724,19.8369011 C78.1227586,20.2889701 79.8065517,20.813108 80.7631034,21.1472459 C82.4507522,20.5157667 84.2860058,20.3905322 86.0437931,20.7869011 C88.2582759,21.3765563 90.06,23.1258666 91.4162069,25.9889701 C87.4851724,25.9889701 84.8644828,26.4213839 83.3313793,27.2993149 L83.3313793,32.8748322 C83.5388198,33.070935 83.7575864,33.254699 83.9865517,33.425177 L84.0258621,33.425177 C89.9551724,37.3562115 93.4865517,38.3389701 95.4586207,36.6289701 C96.7296552,35.5282804 96.9786207,33.5103494 96.1989655,30.6341425 C96.0351724,30.0248322 95.8386207,29.4417287 95.6551724,28.9306942 L97.0834483,29.0158666 L97.2603448,29.0158666 L97.4306897,29.0158666 C97.47,29.0158666 101.361724,28.3606942 103.864483,30.5686253 L103.936552,30.4834528 C103.935628,30.4987263 103.935628,30.5140415 103.936552,30.5293149 C104.178966,30.7455218 109.918276,35.8034528 111.025517,36.4258666 C111.083979,36.4569064 111.149333,36.4726814 111.215517,36.4717287 L111.307241,36.4717287 C111.412069,36.4717287 113.927931,35.8165563 113.823103,34.1065563 C113.848549,33.9817226 113.811919,33.8522984 113.724828,33.7593149 L113.724828,33.7593149 Z M93.6372414,34.4800046 C93.6372414,34.4800046 92.3268966,35.4889701 85.6506897,31.073108 C85.1983349,30.7479975 84.8281594,30.3217348 84.5696552,29.8282804 C84.7924138,29.6055218 86.1289655,28.6817287 92.6086207,28.7865563 C93.6831034,31.2565563 94.2006897,33.9755218 93.6372414,34.4537977 L93.6372414,34.4800046 Z M111.326897,35.6134528 C110.298276,34.9582804 106.648966,31.7937977 104.88,30.241039 L106.268966,29.2386253 L113.082759,34.2703494 C113.004138,35.0172459 111.765862,35.4562115 111.34,35.5872459 L111.326897,35.6134528 Z" id="Shape"></path>
                <path d="M65.7072414,0.255555204 C61.3044828,-1.05478962 57.4651724,3.09245176 57.3275862,3.24969313 C56.7291954,3.88302647 56.1744828,4.487969 55.6634483,5.06452072 C54.4565571,4.88503925 53.2237318,5.02277248 52.0862069,5.46417589 C48.9675862,6.69590003 45.2527586,13.6407276 45.2068966,13.7783138 L49.3606897,12.5531414 C49.3606897,12.5531414 51.2344828,8.84486555 53.1213793,8.11762417 L53.2393103,8.0717621 C51.1951724,10.9152104 50.7037931,10.7776242 51.3458621,12.3172793 L51.562069,12.3172793 C53.1148276,12.3172793 58.3824138,14.3221069 59.6665517,14.4072793 C60.9506897,14.4924518 62.0906897,14.6038311 63.0275862,14.7086587 C63.6827586,14.7807276 64.1806897,14.8527966 64.6196552,14.9183138 C66.0282759,14.177969 63.7286207,13.3721069 63.7810345,11.4524518 C63.8596552,8.58934831 60.1906897,6.7155552 59.3586207,6.32900348 C59.1227586,6.20670463 58.8868966,6.0909575 58.6510345,5.9817621 L59.397931,5.18245176 C59.397931,5.18245176 62.2217241,2.17521038 64.8817241,2.97452072 C68.7275862,4.13417589 70.5293103,12.2583138 71.2631034,17.0934862 L71.2631034,18.1155552 L74.0868966,18.9017621 L74.0868966,17.0672793 L74.0868966,16.9296931 L74.0868966,16.7921069 C72.6062069,6.91865865 69.8675862,1.50693451 65.7072414,0.255555204 Z M60.9834483,10.7383138 C61.3765517,11.4655552 61.3175862,12.4286587 62.0644828,12.920038 C60.6749978,13.3669314 59.1845991,13.3942782 57.7796552,12.9986587 C57.7796552,12.9986587 53.3244828,12.3107276 56.6724138,8.20934831 C57.1471863,8.38172618 57.6091477,8.5875289 58.0548276,8.82521038 L58.1203448,8.82521038 C59.4896552,9.50003796 60.6951724,10.1748655 60.9834483,10.7383138 Z" id="Shape"></path>
                <path d="M36.1917241,11.6736959 C36.1131034,11.4443856 33.9706897,5.2333511 28.6768966,4.60438558 C24.8441379,4.14576489 25.4468966,12.4664545 20.9655172,18.0681787 C22.3086207,17.9567994 23.7827586,17.7667994 25.3551724,17.7602476 L25.5975862,17.7602476 C28.0086207,15.2181787 25.9382759,7.59197179 28.2837931,7.87369592 C31.4810345,8.25369592 33.2434483,14.8250752 33.2565517,14.8709373 L33.3941379,15.2640408 L33.4858621,15.2640408 C33.6627586,15.2967994 34.3113793,14.8971442 34.8944828,14.8578339 L35.9689655,14.5433511 L36.9975862,14.2419718 C36.7551724,13.4950752 36.4734483,12.4992132 36.1917241,11.6736959 Z" id="Shape"></path>
                <path d="M11.8562878,17.9517241 L11.1290464,16.7265517 C11.0270652,16.5586336 10.8294586,16.4743215 10.6376671,16.5168966 L0.50870156,18.8427586 C0.37827665,18.8728824 0.267907939,18.9592579 0.207322249,19.0786207 C-0.703367406,20.8672414 1.67490846,22.682069 1.77973604,22.7541379 L1.87146018,22.8065517 C1.94118206,22.8383205 2.01783445,22.8518474 2.0942188,22.8458621 C3.55525328,22.7213793 11.993874,20.0089655 12.3542188,19.8910345 L12.3542188,19.8910345 C13.4211882,20.2460218 14.4251408,20.7679002 15.3287016,21.4372414 L16.7635291,21.0375862 L19.1483567,20.3824138 C17.1626302,18.3655442 14.6300133,16.9739714 11.8628395,16.3793103 L11.8562878,17.9517241 Z M2.18594294,21.8827586 C1.79283949,21.5486207 0.705253284,20.52 0.941115353,19.642069 L10.5131843,17.4603448 L11.5221498,19.1703448 C8.92766708,20.0351724 3.5880119,21.6927586 2.18594294,21.922069 L2.18594294,21.8827586 Z" id="Shape"></path>
                <path d="M21.4437931,74.0148276 L21.4437931,74.7682759 L20.4086207,74.7682759 L20.2513793,75.9934483 L21.2013793,75.9934483 L21.2013793,76.7468966 L20.1596552,76.7468966 L19.9106897,78.7844828 L19.1572414,78.6862069 L19.3996552,76.7206897 L18.1286207,76.7206897 L17.8731034,78.7582759 L17.1131034,78.66 L17.3555172,76.6944828 L16.3793103,76.6944828 L16.3793103,75.9606897 L17.4603448,75.9606897 L17.6175862,74.7355172 L16.6282759,74.7355172 L16.6282759,73.982069 L17.7093103,73.982069 L17.9451724,72.0689655 L18.692069,72.1672414 L18.4627586,73.982069 L19.7206897,73.982069 L19.9565517,72.0689655 L20.7034483,72.1672414 L20.4741379,73.982069 L21.4437931,74.0148276 Z M19.6355172,74.7682759 L18.3775862,74.7682759 L18.2268966,75.9934483 L19.4913793,75.9934483 L19.6355172,74.7682759 Z" id="Shape"></path>
                <polygon id="Shape" points="23.2455172 72.0689655 23.2455172 77.7231034 25.2110345 77.7231034 25.2110345 78.66 22.2758621 78.66 22.2758621 72.0689655"></polygon>
                <path d="M30.1772414,76.8189655 L27.36,76.8189655 L26.6262069,78.4175862 L25.5517241,78.4175862 L28.8275862,71.4137931 L31.9724138,78.4175862 L30.8848276,78.4175862 L30.1772414,76.8189655 Z M29.7710345,75.882069 L28.7948276,73.6413793 L27.7727586,75.882069 L29.7710345,75.882069 Z" id="Shape"></path>
                <path d="M36.6441085,71.8992189 L36.6441085,73.0719776 C36.1557209,72.6258315 35.5232629,72.3700581 34.8620395,72.3512879 C34.2144701,72.3390527 33.5924244,72.6036009 33.1520395,73.0785293 C32.6885983,73.5516865 32.4358163,74.19191 32.451005,74.8540465 C32.4369208,75.5082481 32.6900684,76.139934 33.1520395,76.6033569 C33.5991418,77.0710312 34.2217045,77.3300363 34.8685912,77.3174948 C35.1744413,77.3259994 35.4784812,77.2678742 35.7596257,77.14715 C35.9083449,77.0840042 36.0509059,77.0072405 36.1854878,76.9178396 C36.3471319,76.8111884 36.5024505,76.6952464 36.6506602,76.5705982 L36.6506602,77.7695638 C36.1054688,78.0865917 35.4861542,78.2538518 34.8554878,78.2543914 C33.9503089,78.2683553 33.0789425,77.910811 32.4444533,77.265081 C31.7963743,76.6370644 31.4360787,75.7695106 31.4485912,74.86715 C31.4422524,74.0416004 31.7382164,73.2422646 32.2806602,72.6199086 C32.9244471,71.8391498 33.8895805,71.3951884 34.9013499,71.4143914 C35.5155695,71.4143644 36.1181456,71.5819984 36.6441085,71.8992189 Z" id="Shape"></path>
                <polygon id="Shape" points="39.4937931 75.81 37.3448276 72.0689655 38.4913793 72.0689655 39.9982759 74.6896552 41.5117241 72.0689655 42.6582759 72.0689655 40.4962069 75.81 40.4962069 78.66 39.5003448 78.66"></polygon>
                <path d="M48.5417241,73.1641947 L47.7358621,73.6424706 C47.6355437,73.4394193 47.4870945,73.2639792 47.3034483,73.1314361 C47.1370745,73.0335397 46.9459727,72.9857643 46.7531034,72.9938499 C46.5137404,72.992799 46.2816995,73.0763337 46.097931,73.229712 C45.9203477,73.3705755 45.8185991,73.5861856 45.8227586,73.8128154 C45.8227586,74.1360338 46.0608046,74.3959189 46.5368966,74.5924706 L47.192069,74.8610913 C47.6442201,75.0209637 48.0479435,75.2938717 48.3648276,75.6538499 C48.6182702,75.9812865 48.750258,76.3865124 48.7382759,76.8004016 C48.757107,77.3649221 48.5384781,77.9114945 48.1355172,78.3072982 C47.7330813,78.7035432 47.1866312,78.9188115 46.622069,78.9035051 C46.1022103,78.9212903 45.595452,78.7382943 45.2068966,78.3924706 C44.8294146,78.0041707 44.5979266,77.4972121 44.5517241,76.957643 L45.5606897,76.7348844 C45.5731032,77.0195045 45.656431,77.2965131 45.8031034,77.5407465 C46.0007554,77.7907425 46.2945214,77.9459788 46.6124219,77.9684188 C46.9303224,77.9908589 47.2429825,77.8784291 47.4737931,77.6586775 C47.6794211,77.4496084 47.7906658,77.1655795 47.7817241,76.8724706 C47.7834252,76.7524861 47.7657258,76.6330151 47.7293103,76.5186775 C47.6936881,76.4109981 47.6381238,76.3109824 47.5655172,76.2238499 C47.4800666,76.1267662 47.3807136,76.0428681 47.2706897,75.9748844 C47.1353559,75.888609 46.9928812,75.8140837 46.8448276,75.7521258 L46.1896552,75.4900568 C45.2855172,75.1100568 44.8334483,74.5531603 44.8334483,73.8193671 C44.8252703,73.3395455 45.034852,72.8818383 45.4034483,72.5745396 C45.7943693,72.2334112 46.3000634,72.0531406 46.8186207,72.0700568 C47.5521837,72.0845746 48.2165912,72.5064607 48.5417241,73.1641947 L48.5417241,73.1641947 Z" id="Shape"></path>
                <path d="M50.8099239,72.0951724 L50.8099239,76.0655172 C50.7756636,76.498602 50.8714793,76.932054 51.0850963,77.3103448 C51.3671767,77.6667691 51.7967622,77.8746299 52.2513032,77.8746299 C52.7058443,77.8746299 53.1354298,77.6667691 53.4175101,77.3103448 C53.6334287,76.9329393 53.7294032,76.4987693 53.6926825,76.0655172 L53.6926825,72.0951724 L54.6885446,72.0951724 L54.6885446,76.3144828 C54.7089151,76.9513296 54.4728893,77.5697173 54.0333722,78.0310345 C53.5614327,78.5124491 52.9156321,78.7837159 52.2414757,78.7837159 C51.5673192,78.7837159 50.9215186,78.5124491 50.4495791,78.0310345 C50.009426,77.5701189 49.7732944,76.9514539 49.7944067,76.3144828 L49.7944067,72.0689655 L50.8099239,72.0951724 Z" id="Shape"></path>
                <polygon id="Shape" points="56.3448276 78.4503448 56.3448276 71.4137931 61.1537931 76.4455172 61.1537931 71.8593103 62.1496552 71.8593103 62.1496552 78.85 57.3406897 73.8313793 57.3406897 78.4175862"></polygon>
                <path d="M63.5517241,78.6628373 L63.5517241,72.0718028 L64.9341379,72.0718028 C65.4653624,72.0539673 65.9960629,72.1203049 66.5065517,72.2683546 C66.9242096,72.4004107 67.3070149,72.6242735 67.6268966,72.923527 C68.2884197,73.5710376 68.6579834,74.4598554 68.6505683,75.3855054 C68.6431532,76.3111554 68.2593978,77.1939387 67.5875862,77.8307684 C67.2645679,78.1257882 66.8827474,78.349075 66.4672414,78.4859408 C65.9621901,78.6266855 65.4384275,78.6885646 64.9144828,78.669389 L63.5517241,78.6628373 Z M64.5475862,77.7259408 L64.9865517,77.7259408 C65.3629593,77.7343143 65.7384689,77.685719 66.1003448,77.5818028 C67.0483705,77.2635556 67.6745997,76.3601866 67.64,75.3607684 C67.6629529,74.6978454 67.3977195,74.057462 66.9127586,73.6049063 C66.3683,73.1719539 65.6800711,72.9612716 64.9865517,73.0152511 L64.5410345,73.0152511 L64.5475862,77.7259408 Z" id="Shape"></path>
                <path d="M73.4251724,76.8189655 L70.6013793,76.8189655 L69.8675862,78.4175862 L68.7931034,78.4175862 L72.0689655,71.4137931 L75.2137931,78.4175862 L74.1262069,78.4175862 L73.4251724,76.8189655 Z M73.0189655,75.882069 L72.0427586,73.6413793 L71.0206897,75.882069 L73.0189655,75.882069 Z" id="Shape"></path>
                <polygon id="Shape" points="76.1834483 75.81 74.0344828 72.0689655 75.167931 72.0689655 76.6748276 74.6896552 78.1882759 72.0689655 79.3348276 72.0689655 77.1727586 75.81 77.1727586 78.66 76.1768966 78.66"></polygon>
            </g>
        </g>
    </g>
</svg>