<?xml version="1.0" encoding="UTF-8"?>
<svg width="148px" height="100px" viewBox="0 0 148 100" version="1.1" xmlns="http://www.w3.org/2000/svg" xmlns:xlink="http://www.w3.org/1999/xlink">
    <!-- Generator: Sketch 42 (36781) - http://www.bohemiancoding.com/sketch -->
    <title>sticker_knockoff_black</title>
    <desc>Created with Sketch.</desc>
    <defs>
        <polygon id="path-1" points="0 99.2126 147.722 99.2126 147.722 -0.0004 0 -0.0004"></polygon>
    </defs>
    <g id="Page-1" stroke="none" stroke-width="1" fill="none" fill-rule="evenodd">
        <g id="stickers-white" transform="translate(-17.000000, -138.000000)">
            <g id="sticker_knockoff_black" transform="translate(17.000000, 138.000000)">
                <polygon id="Fill-1" fill="#000000" points="32.3897 49.5272 37.3437 44.4492 39.9077 44.4492 34.1537 50.2112 39.9407 57.1762 37.3687 57.1762 32.7857 51.5142 32.3897 51.9092 32.3897 57.1762 30.4687 57.1762 30.4687 44.4492 32.3897 44.4492"></polygon>
                <polygon id="Fill-2" fill="#000000" points="41.6544 57.1766 41.6544 43.5836 50.9364 53.2936 50.9364 44.4496 52.8564 44.4496 52.8564 57.9516 43.5754 48.2656 43.5754 57.1766"></polygon>
                <path d="M57.209,50.7757 C57.209,52.1817 57.682,53.3377 58.627,54.2437 C59.567,55.1497 60.651,55.6027 61.883,55.6027 C63.219,55.6027 64.346,55.1407 65.263,54.2177 C66.181,53.2847 66.64,52.1487 66.64,50.8087 C66.64,49.4527 66.187,48.3167 65.279,47.3997 C64.378,46.4767 63.263,46.0157 61.933,46.0157 C60.608,46.0157 59.489,46.4767 58.578,47.3997 C57.665,48.3107 57.209,49.4367 57.209,50.7757 Z M55.272,50.7547 C55.272,48.9637 55.929,47.4247 57.242,46.1387 C58.55,44.8537 60.122,44.2107 61.957,44.2107 C63.771,44.2107 65.326,44.8587 66.623,46.1557 C67.925,47.4527 68.577,49.0107 68.577,50.8297 C68.577,52.6597 67.923,54.2127 66.615,55.4867 C65.301,56.7677 63.716,57.4067 61.858,57.4067 C60.215,57.4067 58.74,56.8377 57.432,55.7007 C55.992,54.4427 55.272,52.7947 55.272,50.7547 Z" id="Fill-3" fill="#000000"></path>
                <path d="M80.3975,45.1297 L80.3975,47.4007 C79.2875,46.4717 78.1385,46.0077 76.9515,46.0077 C75.6435,46.0077 74.5425,46.4777 73.6465,47.4177 C72.7445,48.3517 72.2935,49.4947 72.2935,50.8457 C72.2935,52.1807 72.7445,53.3077 73.6465,54.2257 C74.5465,55.1427 75.6525,55.6027 76.9595,55.6027 C77.6355,55.6027 78.2095,55.4927 78.6825,55.2727 C78.9465,55.1627 79.2195,55.0137 79.5025,54.8277 C79.7855,54.6407 80.0845,54.4147 80.3975,54.1507 L80.3975,56.4717 C79.2975,57.0957 78.1435,57.4067 76.9345,57.4067 C75.1165,57.4067 73.5635,56.7727 72.2775,55.5037 C70.9975,54.2227 70.3565,52.6787 70.3565,50.8707 C70.3565,49.2497 70.8925,47.8047 71.9645,46.5347 C73.2835,44.9797 74.9895,44.2017 77.0835,44.2017 C78.2265,44.2017 79.3315,44.5107 80.3975,45.1297" id="Fill-5" fill="#000000"></path>
                <polygon id="Fill-7" fill="#000000" points="84.7413 49.5272 89.6953 44.4492 92.2593 44.4492 86.5053 50.2112 92.2923 57.1762 89.7203 57.1762 85.1373 51.5142 84.7413 51.9092 84.7413 57.1762 82.8203 57.1762 82.8203 44.4492 84.7413 44.4492"></polygon>
                <path d="M1.9376,64.3749 C1.9376,65.7809 2.4096,66.9369 3.3556,67.8429 C4.2946,68.7489 5.3796,69.2019 6.6116,69.2019 C7.9466,69.2019 9.0736,68.7409 9.9906,67.8179 C10.9096,66.8849 11.3676,65.7479 11.3676,64.4089 C11.3676,63.0519 10.9146,61.9159 10.0066,60.9989 C9.1066,60.0759 7.9906,59.6149 6.6616,59.6149 C5.3356,59.6149 4.2176,60.0759 3.3056,60.9989 C2.3936,61.9099 1.9376,63.0359 1.9376,64.3749 M0.0006,64.3539 C0.0006,62.5629 0.6576,61.0249 1.9696,59.7379 C3.2776,58.4529 4.8496,57.8099 6.6856,57.8099 C8.4996,57.8099 10.0546,58.4579 11.3506,59.7549 C12.6536,61.0519 13.3046,62.6099 13.3046,64.4289 C13.3046,66.2589 12.6506,67.8119 11.3426,69.0859 C10.0296,70.3669 8.4436,71.0069 6.5856,71.0069 C4.9436,71.0069 3.4676,70.4379 2.1606,69.2999 C0.7196,68.0419 0.0006,66.3939 0.0006,64.3539" id="Fill-9" fill="#000000"></path>
                <polygon id="Fill-11" fill="#000000" points="22.0753 59.8539 17.6393 59.8539 17.6393 62.9119 21.9193 62.9119 21.9193 64.7179 17.6393 64.7179 17.6393 70.7759 15.7203 70.7759 15.7203 58.0479 22.0753 58.0479"></polygon>
                <polygon id="Fill-13" fill="#000000" points="30.6563 59.8539 26.2213 59.8539 26.2213 62.9119 30.5003 62.9119 30.5003 64.7179 26.2213 64.7179 26.2213 70.7759 24.3013 70.7759 24.3013 58.0479 30.6563 58.0479"></polygon>
                <polygon id="Fill-15" fill="#000000" points="44.4473 59.8539 40.0113 59.8539 40.0113 62.9119 44.2913 62.9119 44.2913 64.7179 40.0113 64.7179 40.0113 70.7759 38.0923 70.7759 38.0923 58.0479 44.4473 58.0479"></polygon>
                <path d="M48.5928,63.8929 L49.2038,63.8929 C51.0228,63.8929 51.9318,63.1979 51.9318,61.8079 C51.9318,60.5049 51.0468,59.8539 49.2778,59.8539 L48.5928,59.8539 L48.5928,63.8929 Z M50.9838,65.3519 L54.9238,70.7759 L52.5748,70.7759 L48.9398,65.5669 L48.5928,65.5669 L48.5928,70.7759 L46.6728,70.7759 L46.6728,58.0479 L48.9238,58.0479 C50.6058,58.0479 51.8198,58.3649 52.5678,58.9969 C53.3908,59.6999 53.8028,60.6289 53.8028,61.7829 C53.8028,62.6839 53.5448,63.4589 53.0288,64.1069 C52.5118,64.7559 51.8298,65.1709 50.9838,65.3519 L50.9838,65.3519 Z" id="Fill-17" fill="#000000"></path>
                <mask id="mask-2" fill="white">
                    <use xlink:href="#path-1"></use>
                </mask>
                <g id="Clip-20"></g>
                <polygon id="Fill-19" fill="#000000" mask="url(#mask-2)" points="56.837 70.7766 58.757 70.7766 58.757 58.0486 56.837 58.0486"></polygon>
                <path d="M63.7354,68.9711 L64.6014,68.9711 C65.4644,68.9711 66.1814,68.8801 66.7534,68.6991 C67.3244,68.5071 67.8404,68.2021 68.3024,67.7841 C69.2474,66.9211 69.7204,65.7971 69.7204,64.4121 C69.7204,63.0171 69.2544,61.8851 68.3194,61.0161 C67.4784,60.2421 66.2394,59.8541 64.6014,59.8541 L63.7354,59.8541 L63.7354,68.9711 Z M61.8154,70.7761 L61.8154,58.0481 L64.4864,58.0481 C65.7664,58.0481 66.7774,58.1751 67.5194,58.4281 C68.3164,58.6751 69.0394,59.0961 69.6874,59.6891 C71.0014,60.8881 71.6574,62.4621 71.6574,64.4121 C71.6574,66.3691 70.9734,67.9511 69.6044,69.1601 C68.9184,69.7651 68.1984,70.1851 67.4454,70.4211 C66.7424,70.6581 65.7444,70.7761 64.4534,70.7761 L61.8154,70.7761 Z" id="Fill-21" fill="#000000" mask="url(#mask-2)"></path>
                <path d="M79.753,65.8797 L77.865,61.5517 L75.887,65.8797 L79.753,65.8797 Z M80.536,67.6847 L75.087,67.6847 L73.67,70.7757 L71.601,70.7757 L77.899,57.2497 L83.974,70.7757 L81.871,70.7757 L80.536,67.6847 Z" id="Fill-22" fill="#000000" mask="url(#mask-2)"></path>
                <polygon id="Fill-23" fill="#000000" mask="url(#mask-2)" points="86.4483 65.2782 82.2943 58.0482 84.5023 58.0482 87.4123 63.1352 90.3313 58.0482 92.5393 58.0482 88.3693 65.2782 88.3693 70.7762 86.4483 70.7762"></polygon>
                <path d="M99.4454,90.8451 C97.7444,90.1291 93.2604,88.7141 93.2604,88.7141 C90.5244,87.8631 88.9394,87.8491 88.9394,87.8491 C88.6284,88.5671 89.2594,90.3821 89.2594,90.3821 L92.9424,91.5971 L98.5184,93.5391 C99.6504,94.0291 102.5844,94.8141 102.5844,94.8141 C103.4514,95.2111 103.2984,94.5081 103.2984,94.5081 C103.3554,93.5041 103.5734,92.3951 103.5734,92.3951 C103.1154,92.2921 99.4454,90.8451 99.4454,90.8451" id="Fill-24" fill="#000000" mask="url(#mask-2)"></path>
                <path d="M115.9405,90.5453 C115.9405,90.5453 113.9815,92.3293 112.1105,91.9133 C112.1105,91.9133 110.3595,91.4273 109.4855,90.4493 C109.4855,90.4493 107.1535,88.6153 105.8265,88.8103 C105.8265,88.8103 105.6205,93.1323 105.3115,94.4663 C105.3115,94.4663 104.6985,98.4543 105.0425,99.2093 C105.0425,99.2093 105.5395,99.3153 106.9465,98.3883 C106.9465,98.3883 109.4955,95.7103 111.0815,95.0663 C111.0815,95.0663 112.6835,94.7713 113.9095,95.6513 C113.9095,95.6513 116.0655,97.2053 116.6355,97.3543 C116.6355,97.3543 117.5055,97.7133 118.0075,97.7033 C118.0075,97.7033 118.8055,95.9303 119.4805,90.8613 L119.6335,89.5183 C119.6335,89.5183 118.6095,89.1893 115.9405,90.5453" id="Fill-25" fill="#000000" mask="url(#mask-2)"></path>
                <path d="M122.9883,58.2201 C123.2383,57.7051 124.0653,57.2241 124.7043,57.1861 C125.3703,57.1231 125.9563,57.3681 127.0283,57.7641 C128.1063,58.1371 128.9973,58.8441 128.9383,59.6541 C128.8533,60.4801 128.6473,61.2481 128.2723,61.7891 C127.9183,62.3071 126.6143,62.6571 125.9063,62.5351 C125.2223,62.4051 124.6243,61.8051 123.8173,60.9161 C123.0243,60.0251 122.7973,59.3171 122.7973,58.9071 C122.7973,58.5111 122.8823,58.4141 122.9883,58.2201 M117.9973,56.7521 C117.3733,57.6211 116.4833,58.1141 115.8593,58.4901 C115.2343,58.8441 113.7873,58.9881 112.1293,59.0131 C110.4713,59.0311 109.5933,58.6801 108.8993,57.9331 C108.1893,57.1861 108.3913,55.7561 108.5863,54.8671 C108.7673,53.9761 109.1213,53.6231 109.4133,53.2941 C110.1593,52.4421 111.2313,51.8381 112.1683,52.0871 C113.1043,52.3141 114.9083,53.0661 115.7733,53.4751 C116.6423,53.8921 117.3513,54.3481 117.7823,54.6601 C118.1993,54.9641 118.6123,55.8791 117.9973,56.7521 M118.0563,71.1541 C117.9973,72.5411 117.5373,73.1651 117.2053,73.2271 C116.8713,73.2871 116.2513,73.1271 115.2593,72.7561 C114.2383,72.3841 113.6233,72.2361 113.1043,71.3851 C112.5863,70.5531 113.1213,69.9291 113.5963,69.5001 C114.0913,69.0611 115.4623,68.1751 116.1703,67.7521 C116.8713,67.3601 117.6133,67.8631 117.7643,68.4031 C117.9283,68.9341 118.1203,70.2081 118.0563,71.1541 M147.7193,2.2011 C128.9133,9.0091 117.1703,24.4431 112.2593,32.1581 C112.6473,10.7821 94.5423,0.0001 94.5423,0.0001 C92.7023,26.5741 103.7503,39.2561 106.3803,41.8761 C105.7593,42.5691 105.2413,43.2361 104.9803,43.7741 C104.1483,45.4561 102.6143,49.3961 102.1153,51.2011 C101.6343,52.9811 100.9343,56.3981 100.5433,58.8231 C100.1253,61.2061 99.1453,65.0871 98.6553,66.7231 C98.1763,68.3351 97.5093,69.9801 97.5093,70.7821 C97.5093,71.0551 97.3843,72.2611 97.2953,73.2321 L96.3953,72.9901 C96.3953,72.9901 88.1603,80.0221 88.7533,81.1411 C88.7533,81.1411 88.8573,84.9851 94.7363,86.4101 C94.7363,86.4101 99.0123,87.9971 100.9043,88.8171 C100.9043,88.8171 103.4093,89.7151 104.0263,89.5981 C104.0263,89.5981 104.6533,89.0901 104.2013,87.1271 L103.8623,85.6881 C103.8623,85.6881 106.8533,86.8571 109.2243,88.3401 C109.2243,88.3401 111.2943,89.4241 113.0043,90.1111 C113.0043,90.1111 113.5543,90.2531 114.0973,87.8561 C114.0973,87.8561 114.2673,86.2431 114.0363,84.7221 C115.0193,85.0341 116.2443,85.6681 117.3933,85.7481 C118.1403,85.7891 118.5963,85.3931 119.8793,84.8951 C120.6043,84.3821 121.0803,84.3341 122.1343,83.2591 C123.0243,82.3261 123.8393,81.4581 124.3783,79.8961 C124.9113,78.3701 125.9063,76.2321 126.4033,74.9451 C126.9053,73.6411 127.8343,71.1541 128.8083,69.3901 C129.7813,67.6561 130.4543,65.5551 131.0063,64.0661 C131.5843,62.5481 133.0373,60.0671 133.7473,57.3341 C134.4303,54.6171 134.6343,51.2351 134.3453,49.1001 C134.0583,46.9921 132.7863,43.8201 132.0643,42.2671 C131.3423,40.7071 130.5923,37.7031 128.4303,36.4881 C126.3843,35.3161 124.3373,34.8141 122.2873,34.6801 C148.4403,24.6191 147.7193,2.2011 147.7193,2.2011" id="Fill-26" fill="#000000" mask="url(#mask-2)"></path>
            </g>
        </g>
    </g>
</svg>