<?xml version="1.0" encoding="UTF-8"?>
<svg width="363px" height="31px" viewBox="0 0 363 31" version="1.1" xmlns="http://www.w3.org/2000/svg" xmlns:xlink="http://www.w3.org/1999/xlink">
    <!-- Generator: Sketch 42 (36781) - http://www.bohemiancoding.com/sketch -->
    <title>sticker_neverrunalone_black</title>
    <desc>Created with Sketch.</desc>
    <defs>
        <polygon id="path-1" points="5.42101086e-20 0.0405 5.42101086e-20 17.2135 10.2185 17.2135 10.2185 0.0405 0 0.0405"></polygon>
    </defs>
    <g id="Page-1" stroke="none" stroke-width="1" fill="none" fill-rule="evenodd">
        <g id="stickers-white" transform="translate(-270.000000, -572.000000)">
            <g id="sticker_neverrunalone_black" transform="translate(270.000000, 571.000000)">
                <g id="Group-3" transform="translate(0.000000, 5.423800)">
                    <mask id="mask-2" fill="white">
                        <use xlink:href="#path-1"></use>
                    </mask>
                    <g id="Clip-2"></g>
                    <path d="M8.3505,0.1905 C8.7655,0.1335 9.3885,0.0845 10.2185,0.0405 C10.1615,0.3265 10.0905,0.6065 10.0045,0.8775 C9.4605,1.4215 8.9945,2.1795 8.6095,3.1525 L6.5465,9.8495 L6.5465,14.5945 C6.5465,15.3815 6.7465,15.9755 7.1485,16.3765 C7.2625,16.7915 7.3355,17.0715 7.3635,17.2135 C6.4465,17.1565 5.8265,17.1065 5.4965,17.0625 L5.1305,16.9565 L4.7875,17.0625 C4.4585,17.1065 3.8355,17.1565 2.9185,17.2135 C2.9915,16.9275 3.0635,16.6485 3.1355,16.3765 C3.6075,15.8185 3.8145,15.0165 3.7565,13.9715 L3.7565,9.8495 L1.8245,3.3895 C1.7245,3.0455 1.4885,2.5945 1.1175,2.0365 C0.7865,1.5365 0.4805,1.1495 0.1935,0.8775 C0.0935,0.4485 0.0285,0.1695 -0.0005,0.0405 C0.8165,0.0845 1.4395,0.1335 1.8695,0.1905 L2.2115,0.2975 L2.5545,0.1905 C2.9845,0.1335 3.6075,0.0845 4.4235,0.0405 C4.3785,0.3265 4.3165,0.6065 4.2305,0.8775 C3.9565,1.1345 3.8295,1.5495 3.8425,2.1235 L5.1515,7.0595 L6.3115,2.6365 C6.4395,1.8075 6.3315,1.2205 5.9895,0.8775 C5.8745,0.4485 5.8095,0.1695 5.7955,0.0405 C6.6125,0.0845 7.2355,0.1335 7.6635,0.1905 L8.0075,0.2975 L8.3505,0.1905 Z" id="Fill-1" fill="#000000" mask="url(#mask-2)"></path>
                </g>
                <path d="M19.5771,8.5762 C19.5771,8.3762 19.5081,8.2042 19.3621,8.0602 C19.2211,7.9192 19.0551,7.8472 18.8701,7.8472 L18.1401,7.8472 C17.9531,7.8472 17.7901,7.9192 17.6451,8.0602 C17.5031,8.2042 17.4311,8.3762 17.4311,8.5762 L17.4311,19.5032 C17.4311,19.7032 17.5031,19.8762 17.6451,20.0182 C17.7901,20.1622 17.9531,20.2332 18.1401,20.2332 L18.8701,20.2332 C19.0551,20.2332 19.2211,20.1622 19.3621,20.0182 C19.5081,19.8762 19.5771,19.7032 19.5771,19.5032 L19.5771,8.5762 Z M21.2641,6.4632 C21.9301,7.1282 22.2611,7.9262 22.2611,8.8552 L22.2611,19.2462 C22.2611,20.1762 21.9301,20.9732 21.2641,21.6392 C20.5971,22.3052 19.7991,22.6382 18.8701,22.6382 L18.1401,22.6382 C17.2091,22.6382 16.4111,22.3052 15.7461,21.6392 C15.0811,20.9732 14.7481,20.1762 14.7481,19.2462 L14.7481,8.8552 C14.7481,7.9262 15.0811,7.1282 15.7461,6.4632 C16.4111,5.7972 17.2091,5.4642 18.1401,5.4642 L18.8701,5.4642 C19.7991,5.4642 20.5971,5.7972 21.2641,6.4632 L21.2641,6.4632 Z" id="Fill-4" fill="#000000"></path>
                <path d="M35.6337,5.6143 C36.0637,5.5573 36.6797,5.5083 37.4797,5.4643 C37.4237,5.7503 37.3517,6.0213 37.2647,6.2793 C36.8627,6.6953 36.6627,7.3023 36.6627,8.1043 L36.6627,19.1803 C36.6627,20.1393 36.3237,20.9563 35.6437,21.6283 C34.9647,22.3013 34.1527,22.6373 33.2077,22.6373 L32.4777,22.6373 C31.5187,22.6373 30.6987,22.3013 30.0207,21.6283 C29.3387,20.9563 29.0007,20.1393 29.0007,19.1803 L29.0007,8.3183 C29.0007,7.3753 28.8007,6.6953 28.3997,6.2793 C28.2847,5.8643 28.2117,5.5933 28.1847,5.4643 C29.0007,5.5083 29.6137,5.5573 30.0297,5.6143 L30.3747,5.7213 L30.7177,5.6143 C31.1477,5.5573 31.7637,5.5083 32.5637,5.4643 C32.5077,5.7503 32.4357,6.0213 32.3487,6.2793 C31.9467,6.6803 31.7487,7.2743 31.7487,8.0603 L31.7487,19.4383 C31.7487,19.6383 31.8197,19.8143 31.9637,19.9653 C32.1067,20.1153 32.2767,20.1893 32.4777,20.1893 L33.2077,20.1893 C33.4077,20.1893 33.5807,20.1153 33.7237,19.9653 C33.8647,19.8143 33.9377,19.6383 33.9377,19.4383 L33.9377,8.1043 C33.9377,7.3173 33.7307,6.7093 33.3147,6.2793 C33.1997,5.8643 33.1357,5.5933 33.1207,5.4643 C33.9237,5.5083 34.5297,5.5573 34.9457,5.6143 L35.2907,5.7213 L35.6337,5.6143 Z" id="Fill-6" fill="#000000"></path>
                <polygon id="Fill-8" fill="#000000" points="44.5653 6.7471 42.4813 12.4371 41.3873 12.1371 42.8253 6.2331"></polygon>
                <path d="M57.3368,16.4981 C57.4378,16.4981 57.5368,16.5061 57.6378,16.5191 L57.6378,22.4011 L51.1538,22.4011 L50.9178,22.4861 C50.5308,22.5301 49.9008,22.5801 49.0278,22.6381 C49.0868,22.3521 49.1568,22.0721 49.2428,21.8001 C49.5438,21.5001 49.7378,21.0141 49.8238,20.3401 L49.8238,8.0191 C49.8238,7.2741 49.6238,6.7021 49.2228,6.3021 C49.1078,5.8871 49.0428,5.6071 49.0278,5.4641 C49.9318,5.5211 50.5518,5.5711 50.8978,5.6141 L51.2398,5.7221 L51.6048,5.6141 C51.9338,5.5711 52.5568,5.5211 53.4738,5.4641 L53.2468,6.3021 C52.7518,6.8591 52.5418,7.6611 52.6138,8.7051 L52.6138,19.9111 L54.6528,19.9111 C55.5988,19.7261 56.0698,19.1161 56.0698,18.0871 C56.1258,17.0271 56.5478,16.4981 57.3368,16.4981" id="Fill-10" fill="#000000"></path>
                <path d="M71.2909,16.4981 C71.3919,16.4981 71.4919,16.5061 71.5929,16.5191 L71.5929,22.4011 L65.1079,22.4011 L64.8729,22.4861 C64.4849,22.5301 63.8549,22.5801 62.9829,22.6381 C63.0409,22.3521 63.1109,22.0721 63.1969,21.8001 C63.4989,21.5001 63.6919,21.0141 63.7779,20.3401 L63.7779,8.0191 C63.7779,7.2741 63.5779,6.7021 63.1769,6.3021 C63.0619,5.8871 62.9969,5.6071 62.9829,5.4641 C63.8859,5.5211 64.5069,5.5711 64.8519,5.6141 L65.1949,5.7221 L65.5589,5.6141 C65.8879,5.5711 66.5109,5.5211 67.4279,5.4641 L67.2009,6.3021 C66.7069,6.8591 66.4969,7.6611 66.5689,8.7051 L66.5689,19.9111 L68.6079,19.9111 C69.5529,19.7261 70.0239,19.1161 70.0239,18.0871 C70.0799,17.0271 70.5029,16.4981 71.2909,16.4981" id="Fill-12" fill="#000000"></path>
                <path d="M99.539,5.6143 C99.882,5.5713 100.505,5.5213 101.407,5.4643 C101.335,5.7503 101.263,6.0303 101.192,6.3013 C100.719,6.8593 100.518,7.6613 100.591,8.7053 L100.57,8.7053 L100.57,21.0923 C100.654,21.8073 100.848,22.3223 101.148,22.6373 L97.801,22.6373 L97.779,22.5933 L97.779,19.3743 L95.567,13.5363 L95.567,19.3953 C95.567,20.4403 95.775,21.2423 96.19,21.8003 C96.291,22.2153 96.353,22.4953 96.384,22.6373 C95.567,22.5803 94.944,22.5303 94.516,22.4863 L94.173,22.3803 L93.829,22.4863 C93.428,22.5303 92.806,22.5803 91.961,22.6373 C92.018,22.3363 92.082,22.0563 92.154,21.7993 C92.569,21.3963 92.777,20.8013 92.777,20.0113 L92.777,7.1643 C92.777,6.4323 92.576,5.8653 92.175,5.4643 L94.795,5.5083 L97.779,13.4713 L97.779,8.0603 C97.779,7.2893 97.579,6.7023 97.178,6.3013 C97.063,5.8863 96.998,5.6073 96.983,5.4643 C97.887,5.5213 98.508,5.5713 98.852,5.6143 L99.195,5.7213 L99.539,5.6143 Z" id="Fill-14" fill="#000000"></path>
                <path d="M114.6942,16.7764 C115.5252,17.1914 115.9752,17.8494 116.0462,18.7514 C115.8022,19.9674 115.7892,20.8834 116.0042,21.5004 C115.5022,21.5434 115.0382,21.6924 114.6082,21.9504 C114.0202,22.3944 113.2992,22.6234 112.4402,22.6374 L111.4742,22.6374 C111.4442,22.6374 111.2602,22.6234 110.9172,22.5934 C110.3572,22.5374 109.9582,22.5024 109.7142,22.4864 L109.3702,22.3804 L109.0072,22.4864 C108.6052,22.5304 107.9822,22.5804 107.1372,22.6374 C107.2102,22.3514 107.2802,22.0724 107.3522,21.7994 C107.8262,21.2424 108.0312,20.4404 107.9752,19.3954 L107.9752,8.7054 L107.9542,8.7054 C108.0242,7.6614 107.8262,6.8594 107.3522,6.3014 C107.2382,5.8724 107.1662,5.5924 107.1372,5.4634 C108.0412,5.5214 108.6612,5.5714 109.0072,5.6144 L109.3492,5.7214 L115.7472,5.7214 L115.7472,11.5824 C115.6462,11.5964 115.5462,11.6034 115.4462,11.6034 C114.6572,11.6034 114.2352,11.0744 114.1782,10.0144 C114.1062,8.7974 113.5482,8.1834 112.5042,8.1684 L110.7452,8.1684 L110.7452,12.0334 L111.1532,12.0334 C111.6692,12.1044 112.0672,11.8964 112.3542,11.4104 C112.5552,11.3094 112.6902,11.2464 112.7622,11.2164 C112.7492,11.7174 112.7252,12.3404 112.6972,13.0844 L112.6342,13.4284 L112.6972,13.7714 C112.7252,14.5024 112.7492,15.1254 112.7622,15.6384 C112.6182,15.5954 112.4822,15.5314 112.3542,15.4464 C112.1962,15.1314 111.8452,14.9304 111.3022,14.8444 L110.7452,14.8444 L110.7452,20.1894 L112.3762,20.1894 C113.1332,20.1894 113.5132,19.6314 113.5132,18.5154 C113.5132,18.0154 113.4142,17.4494 113.2132,16.8194 L113.2132,16.3694 C113.7432,16.3984 114.2352,16.5344 114.6942,16.7764" id="Fill-16" fill="#000000"></path>
                <path d="M128.6044,5.6143 C129.0204,5.5573 129.6434,5.5083 130.4734,5.4643 C130.4154,5.7503 130.3424,6.0303 130.2584,6.3013 C130.0004,6.5583 129.7784,6.9673 129.5914,7.5243 L126.9294,20.9843 C127.0434,21.3433 127.1954,21.6143 127.3814,21.8003 C127.4974,22.2153 127.5664,22.4953 127.5964,22.6373 C126.6664,22.5803 126.0424,22.5303 125.7284,22.4863 L125.3644,22.3803 L125.0214,22.4863 C124.6754,22.5303 124.0554,22.5803 123.1524,22.6373 C123.2104,22.3363 123.2804,22.0573 123.3674,21.8003 C123.5674,21.6003 123.7234,21.3063 123.8404,20.9203 L121.3934,7.6753 C121.2204,7.0463 120.9924,6.5883 120.7054,6.3013 C120.5904,5.8723 120.5184,5.5933 120.4904,5.4643 C121.3214,5.5083 121.9434,5.5573 122.3594,5.6143 L122.7024,5.7213 L123.0664,5.6143 C123.4814,5.5573 124.0974,5.5083 124.9144,5.4643 C124.8694,5.7503 124.8064,6.0303 124.7194,6.3013 C124.4474,6.5583 124.2324,6.9733 124.0764,7.5473 L125.4504,15.9403 L126.8664,7.6973 C126.7384,7.0393 126.5234,6.5733 126.2224,6.3013 C126.1224,5.8723 126.0564,5.5933 126.0294,5.4643 C126.8594,5.5083 127.4804,5.5573 127.8954,5.6143 L128.2614,5.7213 L128.6044,5.6143 Z" id="Fill-18" fill="#000000"></path>
                <path d="M143.5673,16.7764 C144.3973,17.1914 144.8483,17.8494 144.9183,18.7514 C144.6753,19.9674 144.6613,20.8834 144.8763,21.5004 C144.3753,21.5434 143.9103,21.6924 143.4803,21.9504 C142.8923,22.3944 142.1713,22.6234 141.3133,22.6374 L140.3473,22.6374 C140.3173,22.6374 140.1323,22.6234 139.7903,22.5934 C139.2293,22.5374 138.8313,22.5024 138.5863,22.4864 L138.2433,22.3804 L137.8793,22.4864 C137.4773,22.5304 136.8543,22.5804 136.0093,22.6374 C136.0833,22.3514 136.1523,22.0724 136.2243,21.7994 C136.6983,21.2424 136.9043,20.4404 136.8473,19.3954 L136.8473,8.7054 L136.8273,8.7054 C136.8963,7.6614 136.6983,6.8594 136.2243,6.3014 C136.1103,5.8724 136.0383,5.5924 136.0093,5.4634 C136.9133,5.5214 137.5343,5.5714 137.8793,5.6144 L138.2213,5.7214 L144.6193,5.7214 L144.6193,11.5824 C144.5193,11.5964 144.4193,11.6034 144.3183,11.6034 C143.5303,11.6034 143.1073,11.0744 143.0513,10.0144 C142.9793,8.7974 142.4213,8.1834 141.3763,8.1684 L139.6173,8.1684 L139.6173,12.0334 L140.0253,12.0334 C140.5413,12.1044 140.9403,11.8964 141.2273,11.4104 C141.4273,11.3094 141.5633,11.2464 141.6353,11.2164 C141.6213,11.7174 141.5973,12.3404 141.5703,13.0844 L141.5063,13.4284 L141.5703,13.7714 C141.5973,14.5024 141.6213,15.1254 141.6353,15.6384 C141.4913,15.5954 141.3553,15.5314 141.2273,15.4464 C141.0683,15.1314 140.7183,14.9304 140.1743,14.8444 L139.6173,14.8444 L139.6173,20.1894 L141.2483,20.1894 C142.0063,20.1894 142.3863,19.6314 142.3863,18.5154 C142.3863,18.0154 142.2863,17.4494 142.0863,16.8194 L142.0863,16.3694 C142.6153,16.3984 143.1073,16.5344 143.5673,16.7764" id="Fill-20" fill="#000000"></path>
                <path d="M156.4247,8.6407 C156.4247,8.4417 156.3557,8.2687 156.2127,8.1257 C156.0707,7.9827 155.9007,7.9117 155.7017,7.9117 L154.2367,7.9117 L154.2367,13.0637 L154.2997,13.0637 C155.0927,13.0637 155.6177,12.9277 155.8717,12.6557 C156.2407,12.2837 156.4247,11.5747 156.4247,10.5307 L156.4247,8.6407 Z M160.2887,22.6377 C159.6897,22.8517 159.1587,22.9587 158.6997,22.9587 C157.4427,22.9587 156.7607,22.2727 156.6607,20.8977 L156.5977,19.9117 C156.4397,17.7067 156.0637,16.2547 155.4707,15.5537 C155.2257,15.5817 154.8127,15.5957 154.2367,15.5957 L154.2367,19.3537 C154.1637,20.3837 154.3697,21.1777 154.8527,21.7357 C154.9547,22.1647 155.0237,22.4437 155.0507,22.5737 C154.1637,22.5157 153.5487,22.4657 153.2047,22.4227 L152.8617,22.3157 L152.5197,22.4227 C152.1737,22.4657 151.5537,22.5157 150.6507,22.5737 C150.6957,22.2867 150.7647,22.0067 150.8647,21.7357 C151.2667,21.3347 151.4667,20.7047 151.4667,19.8467 L151.4667,8.6837 C151.5237,7.6547 151.3157,6.8597 150.8447,6.3017 C150.7437,5.8717 150.6787,5.5927 150.6507,5.4637 C151.4527,5.5077 152.0737,5.5577 152.5197,5.6147 L152.8617,5.7217 L153.2047,5.6147 C154.0077,5.5147 154.5937,5.4637 154.9667,5.4637 L155.7177,5.4637 C156.6747,5.4637 157.4957,5.8037 158.1747,6.4837 C158.8537,7.1637 159.1947,7.9827 159.1947,8.9417 L159.1947,10.5307 C159.1947,12.1477 158.7927,13.3997 157.9927,14.2867 C158.8797,15.6187 159.3227,17.4427 159.3227,19.7607 C159.3667,21.3787 159.6897,22.3357 160.2887,22.6377 L160.2887,22.6377 Z" id="Fill-22" fill="#000000"></path>
                <path d="M186.7353,8.6407 C186.7353,8.4417 186.6653,8.2687 186.5223,8.1257 C186.3803,7.9827 186.2103,7.9117 186.0113,7.9117 L184.5473,7.9117 L184.5473,13.0637 L184.6093,13.0637 C185.4023,13.0637 185.9273,12.9277 186.1813,12.6557 C186.5503,12.2837 186.7353,11.5747 186.7353,10.5307 L186.7353,8.6407 Z M190.5983,22.6377 C189.9993,22.8517 189.4693,22.9587 189.0093,22.9587 C187.7523,22.9587 187.0713,22.2727 186.9703,20.8977 L186.9073,19.9117 C186.7493,17.7067 186.3733,16.2547 185.7803,15.5537 C185.5363,15.5817 185.1233,15.5957 184.5473,15.5957 L184.5473,19.3537 C184.4743,20.3837 184.6793,21.1777 185.1623,21.7357 C185.2643,22.1647 185.3333,22.4437 185.3603,22.5737 C184.4743,22.5157 183.8583,22.4657 183.5153,22.4227 L183.1723,22.3157 L182.8293,22.4227 C182.4843,22.4657 181.8633,22.5157 180.9603,22.5737 C181.0053,22.2867 181.0753,22.0067 181.1743,21.7357 C181.5763,21.3347 181.7773,20.7047 181.7773,19.8467 L181.7773,8.6837 C181.8333,7.6547 181.6253,6.8597 181.1543,6.3017 C181.0533,5.8717 180.9883,5.5927 180.9603,5.4637 C181.7623,5.5077 182.3833,5.5577 182.8293,5.6147 L183.1723,5.7217 L183.5153,5.6147 C184.3173,5.5147 184.9033,5.4637 185.2763,5.4637 L186.0283,5.4637 C186.9843,5.4637 187.8053,5.8037 188.4843,6.4837 C189.1643,7.1637 189.5043,7.9827 189.5043,8.9417 L189.5043,10.5307 C189.5043,12.1477 189.1033,13.3997 188.3023,14.2867 C189.1893,15.6187 189.6323,17.4427 189.6323,19.7607 C189.6763,21.3787 189.9993,22.3357 190.5983,22.6377 L190.5983,22.6377 Z" id="Fill-24" fill="#000000"></path>
                <path d="M202.6005,5.6143 C203.0295,5.5573 203.6455,5.5083 204.4455,5.4643 C204.3895,5.7503 204.3175,6.0213 204.2315,6.2793 C203.8295,6.6953 203.6285,7.3023 203.6285,8.1043 L203.6285,19.1803 C203.6285,20.1393 203.2905,20.9563 202.6095,21.6283 C201.9305,22.3013 201.1195,22.6373 200.1735,22.6373 L199.4435,22.6373 C198.4845,22.6373 197.6655,22.3013 196.9865,21.6283 C196.3055,20.9563 195.9665,20.1393 195.9665,19.1803 L195.9665,8.3183 C195.9665,7.3753 195.7665,6.6953 195.3655,6.2793 C195.2505,5.8643 195.1785,5.5933 195.1505,5.4643 C195.9665,5.5083 196.5805,5.5573 196.9965,5.6143 L197.3415,5.7213 L197.6845,5.6143 C198.1135,5.5573 198.7295,5.5083 199.5305,5.4643 C199.4735,5.7503 199.4015,6.0213 199.3155,6.2793 C198.9135,6.6803 198.7155,7.2743 198.7155,8.0603 L198.7155,19.4383 C198.7155,19.6383 198.7855,19.8143 198.9305,19.9653 C199.0725,20.1153 199.2435,20.1893 199.4435,20.1893 L200.1735,20.1893 C200.3735,20.1893 200.5465,20.1153 200.6895,19.9653 C200.8315,19.8143 200.9045,19.6383 200.9045,19.4383 L200.9045,8.1043 C200.9045,7.3173 200.6965,6.7093 200.2815,6.2793 C200.1665,5.8643 200.1015,5.5933 200.0875,5.4643 C200.8895,5.5083 201.4965,5.5573 201.9125,5.6143 L202.2565,5.7213 L202.6005,5.6143 Z" id="Fill-26" fill="#000000"></path>
                <path d="M217.7118,5.6143 C218.0548,5.5713 218.6778,5.5213 219.5808,5.4643 C219.5088,5.7503 219.4368,6.0303 219.3658,6.3013 C218.8928,6.8593 218.6908,7.6613 218.7648,8.7053 L218.7428,8.7053 L218.7428,21.0923 C218.8268,21.8073 219.0208,22.3223 219.3218,22.6373 L215.9738,22.6373 L215.9528,22.5933 L215.9528,19.3743 L213.7408,13.5363 L213.7408,19.3953 C213.7408,20.4403 213.9478,21.2423 214.3638,21.8003 C214.4638,22.2153 214.5268,22.4953 214.5578,22.6373 C213.7408,22.5803 213.1178,22.5303 212.6888,22.4863 L212.3458,22.3803 L212.0028,22.4863 C211.6018,22.5303 210.9788,22.5803 210.1338,22.6373 C210.1918,22.3363 210.2548,22.0563 210.3268,21.7993 C210.7428,21.3963 210.9498,20.8013 210.9498,20.0113 L210.9498,7.1643 C210.9498,6.4323 210.7498,5.8653 210.3488,5.4643 L212.9688,5.5083 L215.9528,13.4713 L215.9528,8.0603 C215.9528,7.2893 215.7518,6.7023 215.3508,6.3013 C215.2358,5.8863 215.1708,5.6073 215.1568,5.4643 C216.0608,5.5213 216.6808,5.5713 217.0258,5.6143 L217.3688,5.7213 L217.7118,5.6143 Z" id="Fill-28" fill="#000000"></path>
                <path d="M245.8329,16.0684 L245.0169,11.7964 L244.3729,16.0684 L245.8329,16.0684 Z M249.8909,22.6374 C249.0459,22.5804 248.4229,22.5304 248.0209,22.4864 L247.6789,22.3804 L247.3119,22.4864 C246.9129,22.5304 246.2909,22.5804 245.4459,22.6374 C245.5019,22.3364 245.5739,22.0574 245.6599,21.7994 C246.0759,21.3854 246.3539,20.6334 246.4979,19.5464 L246.2179,18.1304 L244.0509,18.1304 L243.7699,19.9114 C243.9299,20.8124 244.1929,21.4424 244.5659,21.7994 C244.6809,22.2144 244.7439,22.4954 244.7599,22.6374 C243.9299,22.5804 243.3129,22.5304 242.9119,22.4864 L242.5479,22.3804 L242.2049,22.4864 C241.7899,22.5304 241.1669,22.5804 240.3359,22.6374 C240.3809,22.3364 240.4509,22.0574 240.5509,21.7994 C241.0389,21.2424 241.3229,20.4404 241.4089,19.3954 L243.3619,7.1174 C243.2479,6.7584 243.1049,6.4874 242.9339,6.3014 C242.8179,5.8864 242.7489,5.6074 242.7189,5.4644 C243.6359,5.5214 244.2589,5.5714 244.5869,5.6144 L244.9309,5.7214 L245.2729,5.6144 C245.6029,5.5714 246.2259,5.5214 247.1429,5.4644 C247.0979,5.7504 247.0349,6.0304 246.9479,6.3014 C246.7329,6.5164 246.5679,6.8394 246.4539,7.2674 L249.0949,20.7494 C249.2539,21.2204 249.4449,21.5714 249.6759,21.7994 C249.7899,22.2144 249.8599,22.4954 249.8909,22.6374 L249.8909,22.6374 Z" id="Fill-30" fill="#000000"></path>
                <path d="M263.6933,16.4981 C263.7943,16.4981 263.8943,16.5061 263.9943,16.5191 L263.9943,22.4011 L257.5103,22.4011 L257.2753,22.4861 C256.8873,22.5301 256.2573,22.5801 255.3843,22.6381 C255.4433,22.3521 255.5133,22.0721 255.5993,21.8001 C255.9003,21.5001 256.0943,21.0141 256.1803,20.3401 L256.1803,8.0191 C256.1803,7.2741 255.9803,6.7021 255.5793,6.3021 C255.4643,5.8871 255.3993,5.6071 255.3843,5.4641 C256.2883,5.5211 256.9083,5.5711 257.2543,5.6141 L257.5963,5.7221 L257.9613,5.6141 C258.2903,5.5711 258.9133,5.5211 259.8303,5.4641 L259.6033,6.3021 C259.1083,6.8591 258.8983,7.6611 258.9703,8.7051 L258.9703,19.9111 L261.0103,19.9111 C261.9553,19.7261 262.4263,19.1161 262.4263,18.0871 C262.4823,17.0271 262.9053,16.4981 263.6933,16.4981" id="Fill-32" fill="#000000"></path>
                <path d="M274.1669,8.5762 C274.1669,8.3762 274.0969,8.2042 273.9519,8.0602 C273.8099,7.9192 273.6449,7.8472 273.4599,7.8472 L272.7299,7.8472 C272.5429,7.8472 272.3799,7.9192 272.2349,8.0602 C272.0929,8.2042 272.0209,8.3762 272.0209,8.5762 L272.0209,19.5032 C272.0209,19.7032 272.0929,19.8762 272.2349,20.0182 C272.3799,20.1622 272.5429,20.2332 272.7299,20.2332 L273.4599,20.2332 C273.6449,20.2332 273.8099,20.1622 273.9519,20.0182 C274.0969,19.8762 274.1669,19.7032 274.1669,19.5032 L274.1669,8.5762 Z M275.8539,6.4632 C276.5189,7.1282 276.8499,7.9262 276.8499,8.8552 L276.8499,19.2462 C276.8499,20.1762 276.5189,20.9732 275.8539,21.6392 C275.1869,22.3052 274.3889,22.6382 273.4599,22.6382 L272.7299,22.6382 C271.7989,22.6382 271.0009,22.3052 270.3359,21.6392 C269.6709,20.9732 269.3369,20.1762 269.3369,19.2462 L269.3369,8.8552 C269.3369,7.9262 269.6709,7.1282 270.3359,6.4632 C271.0009,5.7972 271.7989,5.4642 272.7299,5.4642 L273.4599,5.4642 C274.3889,5.4642 275.1869,5.7972 275.8539,6.4632 L275.8539,6.4632 Z" id="Fill-34" fill="#000000"></path>
                <path d="M290.3544,5.6143 C290.6974,5.5713 291.3204,5.5213 292.2224,5.4643 C292.1504,5.7503 292.0784,6.0303 292.0084,6.3013 C291.5354,6.8593 291.3334,7.6613 291.4064,8.7053 L291.3854,8.7053 L291.3854,21.0923 C291.4694,21.8073 291.6634,22.3223 291.9634,22.6373 L288.6164,22.6373 L288.5944,22.5933 L288.5944,19.3743 L286.3824,13.5363 L286.3824,19.3953 C286.3824,20.4403 286.5904,21.2423 287.0054,21.8003 C287.1064,22.2153 287.1684,22.4953 287.2004,22.6373 C286.3824,22.5803 285.7594,22.5303 285.3314,22.4863 L284.9884,22.3803 L284.6444,22.4863 C284.2444,22.5303 283.6214,22.5803 282.7764,22.6373 C282.8334,22.3363 282.8974,22.0563 282.9694,21.7993 C283.3844,21.3963 283.5924,20.8013 283.5924,20.0113 L283.5924,7.1643 C283.5924,6.4323 283.3914,5.8653 282.9914,5.4643 L285.6114,5.5083 L288.5944,13.4713 L288.5944,8.0603 C288.5944,7.2893 288.3944,6.7023 287.9934,6.3013 C287.8784,5.8863 287.8134,5.6073 287.7994,5.4643 C288.7024,5.5213 289.3234,5.5713 289.6674,5.6143 L290.0104,5.7213 L290.3544,5.6143 Z" id="Fill-36" fill="#000000"></path>
                <path d="M305.5077,16.7764 C306.3387,17.1914 306.7887,17.8494 306.8587,18.7514 C306.6157,19.9674 306.6027,20.8834 306.8167,21.5004 C306.3157,21.5434 305.8507,21.6924 305.4217,21.9504 C304.8337,22.3944 304.1117,22.6234 303.2537,22.6374 L302.2877,22.6374 C302.2577,22.6374 302.0727,22.6234 301.7307,22.5934 C301.1707,22.5374 300.7717,22.5024 300.5267,22.4864 L300.1837,22.3804 L299.8197,22.4864 C299.4177,22.5304 298.7957,22.5804 297.9507,22.6374 C298.0237,22.3514 298.0927,22.0724 298.1647,21.7994 C298.6387,21.2424 298.8447,20.4404 298.7877,19.3954 L298.7877,8.7054 L298.7677,8.7054 C298.8377,7.6614 298.6387,6.8594 298.1647,6.3014 C298.0507,5.8724 297.9787,5.5924 297.9507,5.4634 C298.8537,5.5214 299.4747,5.5714 299.8197,5.6144 L300.1627,5.7214 L306.5607,5.7214 L306.5607,11.5824 C306.4597,11.5964 306.3597,11.6034 306.2587,11.6034 C305.4707,11.6034 305.0477,11.0744 304.9917,10.0144 C304.9197,8.7974 304.3617,8.1834 303.3177,8.1684 L301.5577,8.1684 L301.5577,12.0334 L301.9657,12.0334 C302.4817,12.1044 302.8807,11.8964 303.1677,11.4104 C303.3677,11.3094 303.5037,11.2464 303.5757,11.2164 C303.5627,11.7174 303.5387,12.3404 303.5107,13.0844 L303.4467,13.4284 L303.5107,13.7714 C303.5387,14.5024 303.5627,15.1254 303.5757,15.6384 C303.4317,15.5954 303.2957,15.5314 303.1677,15.4464 C303.0087,15.1314 302.6587,14.9304 302.1147,14.8444 L301.5577,14.8444 L301.5577,20.1894 L303.1887,20.1894 C303.9467,20.1894 304.3267,19.6314 304.3267,18.5154 C304.3267,18.0154 304.2267,17.4494 304.0267,16.8194 L304.0267,16.3694 C304.5557,16.3984 305.0477,16.5344 305.5077,16.7764" id="Fill-38" fill="#000000"></path>
                <path d="M347.8124,8.0567 C347.6854,8.0357 347.4774,7.9997 347.3514,7.9787 C347.2244,7.9557 347.0164,7.9207 346.8894,7.8997 C346.7634,7.8777 346.5554,7.8417 346.4284,7.8207 C346.3014,7.7987 346.1984,8.1687 346.1984,8.6437 L346.1984,10.3677 L346.1984,12.0917 L346.1984,13.8167 C346.1984,14.2907 346.3014,14.6787 346.4284,14.6787 L346.8894,14.6787 L347.3514,14.6787 L347.8124,14.6787 C347.9394,14.6787 348.0424,14.3087 348.0424,13.8557 L348.0424,12.2097 L348.0424,10.5647 L348.0424,8.9187 C348.0424,8.4667 347.9394,8.0787 347.8124,8.0567" id="Fill-40" fill="#000000"></path>
                <path d="M338.1288,13.2676 L338.5858,13.2676 L339.0418,13.2676 L339.4978,13.2676 C339.6238,13.2676 339.7268,12.9586 339.7268,12.5816 L339.7268,11.2096 L339.7268,9.8386 L339.7268,8.4666 C339.7268,8.0896 339.6238,7.7986 339.4978,7.8216 C339.3728,7.8436 339.1678,7.8796 339.0418,7.9016 C338.9168,7.9236 338.7108,7.9596 338.5858,7.9826 C338.4598,8.0046 338.2548,8.0406 338.1288,8.0626 C338.0038,8.0846 337.9008,8.3936 337.9008,8.7486 L337.9008,10.0396 L337.9008,11.3306 L337.9008,12.6216 C337.9008,12.9776 338.0038,13.2676 338.1288,13.2676" id="Fill-42" fill="#000000"></path>
                <path d="M339.4989,15.2276 L339.0429,15.2276 L338.5859,15.2276 L338.1299,15.2276 C338.0039,15.2276 337.9009,15.6526 337.9009,16.1716 L337.9009,18.0606 L337.9009,19.9496 L337.9009,21.8376 C337.9009,22.3576 338.0039,22.8256 338.1299,22.8776 C338.2549,22.9306 338.4609,23.0166 338.5859,23.0696 C338.7119,23.1226 338.9169,23.2076 339.0429,23.2606 C339.1679,23.3136 339.3729,23.3996 339.4989,23.4526 C339.6239,23.5046 339.7279,23.0806 339.7279,22.5076 L339.7279,20.4276 L339.7279,18.3476 L339.7279,16.2676 C339.7279,15.6956 339.6239,15.2276 339.4989,15.2276" id="Fill-44" fill="#000000"></path>
                <path d="M343.953,23.9835 C343.953,24.0035 343.953,24.0045 343.953,23.9835" id="Fill-46" fill="#000000"></path>
                <path d="M356.0497,10.7471 C355.9087,10.7121 355.6807,10.6531 355.5397,10.6181 C355.4007,10.5821 355.1707,10.5241 355.0307,10.4881 C354.8907,10.4531 354.6607,10.3941 354.5217,10.3591 C354.3817,10.3231 354.2667,10.8511 354.2667,11.5301 L354.2667,14.0041 L354.2667,16.4761 L354.2667,18.9491 C354.2667,19.6301 354.3817,20.1421 354.5217,20.0861 C354.6607,20.0311 354.8907,19.9411 355.0307,19.8871 C355.1707,19.8321 355.4007,19.7421 355.5397,19.6871 C355.6807,19.6321 355.9087,19.5431 356.0497,19.4871 C356.1897,19.4331 356.3047,18.9051 356.3047,18.3151 L356.3047,16.1721 L356.3047,14.0281 L356.3047,11.8841 C356.3047,11.2951 356.1897,10.7831 356.0497,10.7471" id="Fill-48" fill="#000000"></path>
                <path d="M358.2636,11.2872 L358.2636,13.7912 L358.2636,13.8612 L358.2636,16.3662 L358.2636,16.4352 L358.2636,18.9402 L358.2636,19.0112 C358.2636,19.6992 358.2476,20.3032 358.2296,20.3512 C358.2106,20.4002 358.1806,20.4792 358.1616,20.5282 C358.1436,20.5772 358.1136,20.6572 358.0946,20.7062 C358.0766,20.7552 358.0456,20.8342 358.0276,20.8832 C358.0086,20.9322 357.7426,21.0702 357.4356,21.1912 C357.1286,21.3122 356.6266,21.5102 356.3206,21.6312 C356.0126,21.7512 355.5106,21.9492 355.2036,22.0692 C354.8976,22.1902 354.3956,22.3892 354.0886,22.5092 C353.7826,22.6302 353.4626,22.6682 353.3786,22.5942 C353.2946,22.5192 353.1586,22.3982 353.0746,22.3242 C352.9916,22.2502 352.8546,22.1292 352.7706,22.0552 C352.6866,21.9802 352.5496,21.8592 352.4656,21.7852 C352.3826,21.7112 352.3136,21.0872 352.3136,20.3982 L352.3136,19.7322 L352.3136,17.2272 L352.3136,16.5612 L352.3136,14.0572 L352.3136,13.3912 L352.3136,10.8862 L352.3136,10.2202 C352.3136,9.5312 352.3826,8.9062 352.4656,8.8322 C352.5496,8.7572 352.6866,8.6352 352.7706,8.5602 C352.8536,8.4862 352.9916,8.3642 353.0746,8.2892 C353.1586,8.2152 353.2946,8.0932 353.3786,8.0172 C353.4626,7.9432 353.5316,7.8822 353.5316,7.8822 C353.5316,7.8822 353.7696,7.9492 354.0606,8.0312 C354.3516,8.1132 354.8276,8.2472 355.1186,8.3292 C355.4096,8.4112 355.8866,8.5452 356.1776,8.6272 C356.4686,8.7092 356.9456,8.8432 357.2366,8.9252 C357.5276,9.0072 357.7926,9.1222 357.8266,9.1812 C357.8596,9.2392 357.9136,9.3362 357.9476,9.3942 C357.9806,9.4532 358.0346,9.5502 358.0676,9.6092 C358.1006,9.6682 358.1556,9.7652 358.1886,9.8232 C358.2216,9.8822 358.2486,9.9312 358.2486,9.9312 L358.2526,9.9342 C358.2536,9.9362 358.2576,9.9412 358.2586,9.9422 C358.2586,9.9442 358.2616,9.9502 358.2616,9.9512 C358.2626,9.9532 358.2636,9.9592 358.2636,9.9612 L358.2636,11.2172 L358.2636,11.2872 Z M351.8466,24.3442 C351.8466,24.3462 351.8436,24.3512 351.8426,24.3532 C351.8416,24.3552 351.8376,24.3612 351.8356,24.3622 C351.8346,24.3632 351.8296,24.3682 351.8276,24.3692 C351.8266,24.3702 351.8206,24.3732 351.8186,24.3732 C351.8166,24.3742 351.8096,24.3752 351.8076,24.3752 C351.8056,24.3762 351.7036,24.4132 351.5816,24.4582 C351.4596,24.5042 351.2606,24.5782 351.1386,24.6242 C351.0166,24.6692 350.8166,24.7442 350.6946,24.7892 C350.5726,24.8352 350.3716,24.9092 350.2496,24.9552 C350.1276,25.0002 349.8396,24.5932 349.6096,24.0502 C349.3786,23.5072 349.0006,22.6182 348.7706,22.0742 C348.5396,21.5312 348.1626,20.6422 347.9326,20.1002 C347.7016,19.5562 347.3246,18.6672 347.0936,18.1242 C346.8636,17.5812 346.6476,17.1372 346.6156,17.1372 L346.4956,17.1372 L346.3766,17.1372 L346.2576,17.1372 C346.2256,17.1372 346.1986,17.6602 346.1986,18.3022 L346.1986,20.6312 L346.1986,20.9162 L346.1986,20.9272 L346.1986,21.2122 L346.1986,22.6832 L346.1986,23.8542 C346.1976,23.8562 346.1966,23.8612 346.1956,23.8632 C346.1956,23.8642 346.1926,23.8702 346.1926,23.8712 C346.1916,23.8722 346.1876,23.8772 346.1866,23.8782 C346.1856,23.8802 346.1816,23.8832 346.1806,23.8842 C346.1786,23.8852 346.1746,23.8882 346.1726,23.8892 C346.1716,23.8902 346.1656,23.8912 346.1646,23.8912 C346.1626,23.8922 346.1586,23.8932 346.1566,23.8932 C346.1546,23.8932 346.0316,23.9182 345.8816,23.9472 C345.7336,23.9762 345.4896,24.0252 345.3396,24.0552 C345.1916,24.0842 344.9476,24.1322 344.7976,24.1622 C344.6486,24.1912 344.4056,24.2392 344.2556,24.2692 C344.1066,24.2992 343.9806,24.3222 343.9786,24.3222 C343.9776,24.3222 343.9716,24.3202 343.9706,24.3202 C343.9686,24.3192 343.9636,24.3172 343.9616,24.3162 C343.9606,24.3152 343.9556,24.3122 343.9546,24.3112 C343.9536,24.3102 343.9506,24.2472 343.9506,24.1742 C343.9506,24.1002 343.9496,23.8242 343.9496,23.7432 C343.9506,23.6612 343.9506,23.4842 343.9506,23.4922 C343.9506,23.5012 343.9516,23.7402 343.9516,23.9332 L343.9516,23.0582 L343.9506,22.2462 C343.9506,21.5582 343.9496,21.4752 343.9496,20.7862 L343.9476,18.4122 C343.9476,17.7242 343.9466,16.5972 343.9456,15.9072 L343.9446,13.5332 C343.9436,12.8452 343.9436,11.7182 343.9426,11.0292 L343.9416,8.6552 C343.9406,7.9662 343.9406,6.7802 343.9406,6.6062 C343.9406,6.4332 343.9426,5.9512 343.9426,5.8672 C343.9436,5.7842 343.9456,5.5722 343.9466,5.5462 C343.9476,5.5202 343.9506,5.4662 343.9506,5.4652 L343.9566,5.4592 C343.9586,5.4582 343.9636,5.4552 343.9646,5.4542 C343.9666,5.4532 343.9716,5.4512 343.9726,5.4512 C343.9746,5.4502 343.9806,5.4492 343.9816,5.4492 C343.9836,5.4492 344.2536,5.4882 344.5816,5.5372 C344.9096,5.5852 345.4486,5.6642 345.7766,5.7122 C346.1046,5.7602 346.6426,5.8392 346.9706,5.8872 C347.2986,5.9352 347.8366,6.0142 348.1646,6.0622 C348.4936,6.1102 348.7666,6.1512 348.7676,6.1512 C348.7686,6.1522 348.7736,6.1542 348.7756,6.1542 C348.7766,6.1552 348.7816,6.1572 348.7826,6.1572 C348.7846,6.1582 348.7886,6.1602 348.7896,6.1602 C348.7906,6.1612 348.8596,6.2212 348.9416,6.2942 C349.0226,6.3662 349.1566,6.4862 349.2386,6.5582 C349.3196,6.6322 349.4526,6.7512 349.5346,6.8242 C349.6176,6.8962 349.7496,7.0162 349.8316,7.0892 C349.9136,7.1622 349.9826,7.2252 349.9836,7.2272 C349.9836,7.2282 349.9866,7.2342 349.9876,7.2352 C349.9876,7.2372 349.9906,7.2422 349.9906,7.2442 C349.9916,7.2452 349.9926,7.2512 349.9936,7.2522 C349.9946,7.2542 349.9956,7.7402 349.9956,8.3332 L349.9956,10.4882 L349.9956,12.6432 L349.9956,14.7992 C349.9956,15.3912 349.9936,15.8812 349.9926,15.8832 C349.9926,15.8842 349.9906,15.8892 349.9896,15.8912 C349.9896,15.8912 349.9866,15.8972 349.9866,15.8982 C349.9856,15.9002 349.9836,15.9052 349.9826,15.9072 C349.9816,15.9082 349.9106,15.9752 349.8256,16.0562 C349.7396,16.1362 349.5986,16.2672 349.5126,16.3482 C349.4256,16.4292 349.2846,16.5592 349.1996,16.6412 C349.1136,16.7212 348.9726,16.8522 348.8866,16.9332 C348.8006,17.0132 348.9056,17.4852 349.1196,17.9832 C349.3336,18.4802 349.6846,19.2952 349.8996,19.7932 C350.1136,20.2902 350.4636,21.1042 350.6776,21.6022 C350.8926,22.1002 351.2426,22.9142 351.4566,23.4112 C351.6706,23.9092 351.8466,24.3162 351.8466,24.3162 C351.8476,24.3192 351.8476,24.3212 351.8486,24.3232 C351.8486,24.3252 351.8496,24.3312 351.8486,24.3332 C351.8486,24.3352 351.8476,24.3422 351.8466,24.3442 L351.8466,24.3442 Z M344.8256,26.6482 C344.4826,26.7822 343.9656,26.9492 343.8016,26.6252 C343.6746,26.4332 343.7726,26.1422 343.9446,25.8612 C344.0536,25.6822 344.1696,25.5672 344.3126,25.4022 C344.2546,25.5792 344.1246,25.8682 344.3596,26.0702 C344.5156,26.1792 344.6926,26.1502 345.0216,26.0782 L347.9626,25.2822 L344.8256,26.6482 Z M341.6856,9.0952 L341.6856,10.8032 L341.6856,12.5102 L341.6856,13.3642 L341.6856,13.3692 C341.6846,13.3702 341.6846,13.3752 341.6836,13.3772 C341.6836,13.3782 341.6816,13.3832 341.6806,13.3842 C341.6806,13.3852 341.6776,13.3902 341.6766,13.3912 C341.6766,13.3912 341.6366,13.4402 341.5886,13.4982 C341.5406,13.5572 341.4626,13.6512 341.4146,13.7102 C341.3676,13.7672 341.2876,13.8632 341.2406,13.9212 C341.1926,13.9792 341.1146,14.0742 341.0666,14.1332 C341.0186,14.1902 341.0186,14.2872 341.0666,14.3462 C341.1146,14.4052 341.1926,14.5032 341.2406,14.5622 C341.2876,14.6212 341.3666,14.7192 341.4136,14.7782 C341.4616,14.8382 341.5396,14.9342 341.5876,14.9942 C341.6356,15.0542 341.6766,15.1052 341.6766,15.1052 C341.6776,15.1082 341.6786,15.1132 341.6786,15.1132 C341.6796,15.1152 341.6816,15.1202 341.6816,15.1212 C341.6826,15.1232 341.6836,15.1272 341.6846,15.1292 C341.6856,15.1302 341.6856,15.6922 341.6856,16.3782 L341.6856,18.8702 L341.6856,21.3622 L341.6856,23.8542 C341.6856,24.5402 341.6166,25.1612 341.5326,25.2352 C341.4486,25.3092 341.3106,25.4312 341.2266,25.5052 C341.1426,25.5792 341.0046,25.7002 340.9206,25.7742 C340.8366,25.8492 340.6996,25.9702 340.6156,26.0442 C340.5316,26.1182 340.2106,26.0972 339.9046,25.9982 C339.5966,25.8982 339.0936,25.7362 338.7856,25.6372 C338.4796,25.5382 337.9766,25.3762 337.6686,25.2762 C337.3616,25.1772 336.8596,25.0152 336.5516,24.9162 C336.2436,24.8162 335.9886,24.7352 335.9876,24.7342 C335.9856,24.7342 335.9806,24.7332 335.9786,24.7322 C335.9776,24.7322 335.9716,24.7292 335.9706,24.7292 C335.9696,24.7282 335.9646,24.7252 335.9636,24.7242 L335.9576,24.7182 C335.9566,24.7162 335.9536,24.7122 335.9526,24.7102 C335.9516,24.7092 335.9506,24.7032 335.9506,24.7022 C335.9496,24.7002 335.9486,24.6952 335.9486,24.6932 L335.9486,23.4382 L335.9486,21.3182 L335.9486,18.8142 L335.9486,16.6942 L335.9486,14.1902 L335.9486,12.0702 L335.9486,9.5662 L335.9486,7.4462 C335.9486,6.7582 335.9486,6.1902 335.9496,6.1882 C335.9496,6.1862 335.9506,6.1822 335.9516,6.1802 C335.9516,6.1792 335.9526,6.1742 335.9536,6.1722 C335.9546,6.1712 335.9576,6.1662 335.9596,6.1652 L335.9656,6.1592 C335.9666,6.1582 335.9716,6.1552 335.9736,6.1542 C335.9746,6.1542 335.9796,6.1512 335.9816,6.1512 C335.9836,6.1512 335.9886,6.1502 335.9906,6.1492 C335.9916,6.1492 336.2436,6.1102 336.5516,6.0622 C336.8596,6.0142 337.3616,5.9352 337.6686,5.8872 C337.9766,5.8392 338.4796,5.7602 338.7856,5.7122 C339.0936,5.6642 339.5966,5.5852 339.9046,5.5372 C340.2116,5.4882 340.5316,5.5102 340.6156,5.5852 C340.7006,5.6592 340.8366,5.7812 340.9206,5.8552 C341.0056,5.9312 341.1426,6.0532 341.2266,6.1272 C341.3116,6.2022 341.4486,6.3232 341.5326,6.3982 C341.6166,6.4732 341.6856,6.9182 341.6856,7.3882 L341.6856,9.0952 Z M333.6276,24.1442 C333.6266,24.1462 333.6246,24.1532 333.6236,24.1552 C333.6226,24.1572 333.6186,24.1632 333.6176,24.1652 C333.6166,24.1662 333.6106,24.1712 333.6096,24.1722 C333.6076,24.1742 333.6006,24.1772 333.5986,24.1782 C333.5966,24.1782 333.5896,24.1802 333.5876,24.1802 C333.5856,24.1802 333.4876,24.1322 333.3676,24.0732 C333.2486,24.0152 333.0546,23.9192 332.9356,23.8602 C332.8176,23.8022 332.6226,23.7052 332.5036,23.6462 C332.3846,23.5882 332.1906,23.4922 332.0726,23.4332 C331.9526,23.3752 331.7286,22.8142 331.5726,22.1882 C331.4156,21.5612 331.1606,20.5372 331.0046,19.9112 C330.8486,19.2842 330.5936,18.2602 330.4376,17.6342 C330.2826,17.0072 330.0266,15.9822 329.8706,15.3562 C329.7146,14.7292 329.5946,14.6752 329.6046,15.2332 C329.6146,15.7922 329.6296,16.7062 329.6396,17.2652 C329.6486,17.8232 329.6636,18.7372 329.6736,19.2962 C329.6836,19.8542 329.6996,20.7682 329.7086,21.3272 C329.7186,21.8862 329.7256,22.3472 329.7256,22.3492 C329.7256,22.3502 329.7246,22.3552 329.7236,22.3572 C329.7226,22.3582 329.7206,22.3632 329.7196,22.3652 C329.7186,22.3662 329.7156,22.3712 329.7146,22.3722 C329.7136,22.3732 329.7086,22.3772 329.7076,22.3782 C329.7066,22.3792 329.7016,22.3822 329.7016,22.3832 C329.6996,22.3842 329.6946,22.3862 329.6926,22.3862 C329.6916,22.3862 329.6856,22.3872 329.6846,22.3882 C329.6826,22.3882 329.5696,22.3422 329.4316,22.2862 C329.2936,22.2302 329.0706,22.1392 328.9326,22.0832 C328.7946,22.0272 328.5706,21.9362 328.4336,21.8812 C328.2956,21.8252 328.0716,21.7332 327.9346,21.6782 C327.7966,21.6222 327.6806,21.5762 327.6796,21.5762 C327.6776,21.5752 327.6716,21.5742 327.6706,21.5742 C327.6686,21.5732 327.6636,21.5712 327.6626,21.5702 C327.6606,21.5692 327.6576,21.5662 327.6556,21.5652 C327.6546,21.5642 327.6506,21.5592 327.6496,21.5582 C327.6496,21.5582 327.6456,21.5532 327.6446,21.5522 C327.6446,21.5502 327.6426,21.5452 327.6416,21.5432 C327.6416,21.5422 327.6406,21.5362 327.6406,21.5342 L327.6406,20.2792 L327.6406,19.6272 L327.6406,17.1222 L327.6406,16.4702 L327.6406,13.9652 L327.6406,13.3122 L327.6406,10.8082 L327.6406,10.1552 L327.6406,8.8972 C327.6406,8.8962 327.6426,8.8912 327.6426,8.8902 C327.6436,8.8882 327.6456,8.8832 327.6466,8.8812 C327.6476,8.8802 327.6506,8.8752 327.6516,8.8742 C327.6526,8.8732 327.6566,8.8692 327.6586,8.8682 C327.6596,8.8672 327.6636,8.8642 327.6646,8.8632 C327.6666,8.8632 327.6716,8.8612 327.6736,8.8602 C327.6746,8.8602 327.6806,8.8592 327.6816,8.8592 C327.6836,8.8592 327.7906,8.8342 327.9206,8.8052 C328.0496,8.7742 328.2616,8.7252 328.3916,8.6952 C328.5216,8.6652 328.7336,8.6162 328.8636,8.5862 C328.9926,8.5572 329.2036,8.5072 329.3336,8.4772 C329.4636,8.4472 329.6956,8.8182 329.8486,9.3022 C330.0016,9.7852 330.2526,10.5752 330.4066,11.0582 C330.5596,11.5422 330.8106,12.3332 330.9636,12.8162 C331.1176,13.3002 331.3676,14.0912 331.5216,14.5732 C331.6746,15.0572 331.7936,15.0172 331.7846,14.4862 C331.7776,13.9562 331.7646,13.0872 331.7556,12.5562 C331.7476,12.0242 331.7346,11.1552 331.7266,10.6242 C331.7186,10.0942 331.7046,9.2242 331.6976,8.6932 C331.6896,8.1622 331.6826,7.7242 331.6826,7.7222 C331.6826,7.7212 331.6846,7.7152 331.6846,7.7132 C331.6856,7.7122 331.6876,7.7072 331.6886,7.7052 C331.6896,7.7042 331.6926,7.6992 331.6936,7.6982 C331.6946,7.6972 331.6986,7.6932 331.7006,7.6922 C331.7016,7.6912 331.7056,7.6882 331.7066,7.6872 C331.7086,7.6872 331.7136,7.6842 331.7146,7.6842 C331.7166,7.6842 331.7226,7.6832 331.7236,7.6832 C331.7256,7.6832 331.8306,7.6582 331.9576,7.6282 C332.0846,7.5992 332.2936,7.5492 332.4206,7.5192 C332.5476,7.4892 332.7566,7.4402 332.8836,7.4102 C333.0106,7.3802 333.2196,7.3312 333.3466,7.3012 C333.4736,7.2702 333.5816,7.2462 333.5836,7.2472 C333.5846,7.2472 333.5906,7.2482 333.5916,7.2492 C333.5936,7.2492 333.5986,7.2522 333.5996,7.2532 C333.6016,7.2532 333.6066,7.2572 333.6076,7.2582 L333.6136,7.2642 C333.6146,7.2662 333.6176,7.2692 333.6176,7.2712 C333.6176,7.2722 333.6196,7.2782 333.6196,7.2792 C333.6206,7.2812 333.6216,7.2862 333.6216,7.2882 L333.6216,8.5432 L333.6216,10.2442 L333.6216,12.7492 L333.6216,14.4492 L333.6216,16.9542 L333.6216,18.6542 L333.6216,21.1592 L333.6216,22.8602 L333.6216,24.1122 L333.6226,24.1132 L333.6226,24.1142 L333.6236,24.1152 C333.6256,24.1182 333.6256,24.1202 333.6266,24.1222 C333.6266,24.1242 333.6286,24.1312 333.6286,24.1342 C333.6286,24.1362 333.6276,24.1422 333.6276,24.1442 L333.6276,24.1442 Z M359.4246,6.9992 C358.9286,6.8322 356.9516,6.2212 356.3436,6.0412 C355.7356,5.8602 353.7576,5.2972 353.2146,5.1452 C352.6716,4.9942 351.0076,4.5302 350.3456,4.3402 C350.3456,4.3402 349.9966,4.2392 349.7706,4.1672 C349.5436,4.0952 349.3176,4.0252 349.0906,3.9612 C348.8646,3.8952 348.6376,3.8352 348.4116,3.7802 L348.1866,3.7252 C347.9376,3.6742 347.6806,3.6212 347.6146,3.6082 L347.3906,3.5722 C347.1656,3.5362 346.8396,3.4882 346.4276,3.4392 C346.0156,3.3912 345.5186,3.3432 344.9526,3.3072 C344.3886,3.2692 343.7566,3.1742 343.0746,3.1722 L343.0436,3.1722 C343.0336,3.1722 343.0236,3.1722 343.0126,3.1712 L342.9826,3.1712 L342.9516,3.1712 L342.9216,3.1712 L342.8906,3.1712 C342.8806,3.1722 342.8696,3.1722 342.8606,3.1722 L342.8296,3.1722 C342.1476,3.1742 341.5156,3.2692 340.9506,3.3072 C340.3856,3.3432 339.8886,3.3912 339.4766,3.4392 C339.0646,3.4882 338.7376,3.5362 338.5136,3.5722 C338.2896,3.6082 338.1686,3.6322 338.1686,3.6322 L337.9436,3.6762 C337.6986,3.7362 337.2956,3.8422 337.0496,3.9102 L336.8266,3.9772 C336.6016,4.0452 335.0336,4.5032 334.3556,4.6862 C333.6766,4.8712 332.9086,5.0852 332.9086,5.0852 C332.2446,5.2692 331.1596,5.5752 330.4976,5.7652 C330.4976,5.7652 329.5306,6.0422 328.4556,6.3682 C327.3816,6.6942 326.3676,7.0192 325.5766,7.3042 L325.5766,9.8822 L325.5766,12.3872 L325.5766,13.7122 L325.5766,16.2172 L325.5766,17.5422 L325.5766,20.0472 L325.5766,21.3722 C325.5766,22.0602 325.7296,22.7012 325.9156,22.7962 C326.1036,22.8902 327.8636,23.7272 328.4876,24.0192 L330.5756,24.9552 C331.2046,25.2342 332.2416,25.6792 332.8766,25.9412 C332.8766,25.9412 335.4136,26.9902 337.3596,27.6642 C339.3046,28.3372 341.2426,28.9012 342.9516,29.2092 C344.6856,28.8912 346.6386,28.3222 348.5926,27.6452 C350.5466,26.9692 352.5016,26.1852 354.2406,25.4412 C355.9786,24.6982 357.4526,24.0072 357.4526,24.0072 C358.0766,23.7152 358.9786,23.2842 359.4566,23.0502 C359.9356,22.8162 360.3266,22.0602 360.3266,21.3722 L360.3266,20.0472 L360.3266,17.5422 L360.3266,16.2172 L360.3266,13.7122 L360.3266,12.3872 L360.3266,9.8822 L360.3266,8.5572 C360.3266,7.8672 359.9206,7.1672 359.4246,6.9992 L359.4246,6.9992 Z" id="Fill-50" fill="#000000"></path>
                <g id="Group-54" transform="translate(323.000000, 0.423800)" fill="#000000">
                    <path d="M1.4745,22.9239 C1.8475,23.1119 3.5805,23.9639 4.2355,24.2789 L6.5255,25.3369 C7.2165,25.6539 8.3475,26.1539 9.0445,26.4519 C9.0725,26.4639 11.8475,27.6459 13.9495,28.3969 C16.2545,29.2209 18.2735,29.7989 19.9515,30.1159 C21.6515,29.7899 23.6885,29.2039 26.0075,28.3759 C27.8975,27.6999 29.9775,26.8629 32.1885,25.8869 C34.0715,25.0559 35.6925,24.2729 35.7085,24.2649 C36.3925,23.9339 37.3805,23.4459 37.9055,23.1819 C38.2435,23.0119 38.6205,22.3279 38.6205,21.6689 L38.6205,7.1259 C38.6205,6.4899 38.2525,5.8879 37.9225,5.7729 C37.3935,5.5879 35.2495,4.9029 34.5505,4.6899 C33.8725,4.4829 31.6915,3.8409 31.1175,3.6759 C30.5195,3.5039 28.6865,2.9769 27.9575,2.7609 C27.9575,2.7609 27.5675,2.6439 27.3135,2.5609 C27.0685,2.4799 26.8235,2.4029 26.5785,2.3299 C26.3345,2.2589 26.0915,2.1919 25.8495,2.1299 L25.6005,2.0679 C25.3455,2.0139 25.0635,1.9539 24.9915,1.9399 L24.7605,1.9019 C24.5415,1.8649 24.1835,1.8099 23.7215,1.7539 C23.2035,1.6919 22.6655,1.6419 22.1235,1.6049 C21.9035,1.5899 21.6735,1.5679 21.4365,1.5429 C21.0025,1.4999 20.5535,1.4539 20.0855,1.4529 L20.0465,1.4529 L19.9855,1.4519 L19.9385,1.4519 L19.8915,1.4519 C19.8905,1.4519 19.8385,1.4529 19.8375,1.4529 C19.3505,1.4539 18.9015,1.4999 18.4675,1.5429 C18.2295,1.5679 17.9995,1.5899 17.7805,1.6049 C17.2375,1.6419 16.7005,1.6919 16.1825,1.7539 C15.7205,1.8099 15.3625,1.8649 15.1435,1.9019 C14.9115,1.9409 14.7855,1.9659 14.7805,1.9669 L14.5295,2.0169 C14.2865,2.0789 13.8485,2.1969 13.5815,2.2739 L13.3455,2.3479 C13.1205,2.4179 11.3755,2.9439 10.6165,3.1559 C9.8705,3.3639 9.0285,3.6069 9.0285,3.6069 C8.2985,3.8169 7.1075,4.1629 6.3795,4.3779 C6.3795,4.3779 5.3185,4.6919 4.1415,5.0609 C2.9945,5.4199 2.0345,5.7389 1.2835,6.0109 L1.2835,21.6689 C1.2835,22.3159 1.4015,22.7829 1.4745,22.9239 M19.9525,30.9999 C19.9245,30.9999 19.8985,30.9969 19.8715,30.9919 C18.1325,30.6699 16.0405,30.0739 13.6545,29.2219 C11.5275,28.4619 8.7285,27.2699 8.7015,27.2569 C7.9975,26.9579 6.8585,26.4529 6.1595,26.1329 L3.8615,25.0709 C3.1955,24.7499 1.2405,23.7899 1.0155,23.6729 C0.4515,23.3789 0.4075,22.0649 0.4075,21.6689 L0.4075,5.7039 C0.4075,5.5219 0.5205,5.3579 0.6925,5.2939 C1.4955,4.9959 2.5675,4.6359 3.8785,4.2249 C5.0645,3.8539 6.1325,3.5379 6.1325,3.5379 C6.8615,3.3219 8.0555,2.9749 8.7865,2.7649 C8.7865,2.7649 9.6315,2.5219 10.3795,2.3129 C11.1335,2.1019 12.8615,1.5809 13.0845,1.5119 L13.3305,1.4349 C13.6145,1.3539 14.0625,1.2329 14.3355,1.1619 L14.6075,1.1089 C14.6075,1.1089 14.7455,1.0799 14.9995,1.0379 C15.2275,0.9999 15.5995,0.9429 16.0775,0.8849 C16.6105,0.8199 17.1625,0.7689 17.7215,0.7309 C17.9325,0.7169 18.1525,0.6949 18.3795,0.6719 C18.8135,0.6279 19.3055,0.5779 19.8165,0.5769 L19.8585,0.5769 C19.8605,0.5769 19.9155,0.5759 19.9185,0.5759 C19.9195,0.5759 19.9745,0.5779 19.9715,0.5759 L20.0255,0.5769 L20.0735,0.5769 C20.5985,0.5779 21.0895,0.6279 21.5235,0.6719 C21.7515,0.6949 21.9715,0.7169 22.1825,0.7309 C22.7405,0.7689 23.2935,0.8199 23.8275,0.8849 C24.3045,0.9429 24.6765,0.9999 24.9045,1.0379 L25.1505,1.0779 C25.2405,1.0969 25.5245,1.1559 25.7985,1.2139 L26.0635,1.2799 C26.3175,1.3449 26.5725,1.4149 26.8275,1.4899 C27.0795,1.5659 27.3325,1.6459 27.5865,1.7289 C27.8305,1.8089 28.2075,1.9209 28.2075,1.9209 C28.9345,2.1369 30.7625,2.6629 31.3595,2.8339 C31.9355,2.9999 34.1255,3.6449 34.8065,3.8529 C35.4405,4.0459 37.6425,4.7469 38.2115,4.9449 C38.9325,5.1959 39.4965,6.1539 39.4965,7.1259 L39.4965,21.6689 C39.4965,22.6169 38.9715,23.6249 38.2995,23.9639 C37.7725,24.2309 36.7785,24.7209 36.0895,25.0529 C36.0735,25.0609 34.4395,25.8509 32.5415,26.6879 C30.3115,27.6729 28.2115,28.5189 26.3025,29.1999 C23.9035,30.0579 21.7935,30.6599 20.0335,30.9919 C20.0055,30.9969 19.9795,30.9999 19.9525,30.9999" id="Fill-52"></path>
                </g>
            </g>
        </g>
    </g>
</svg>