<?xml version="1.0" encoding="UTF-8"?>
<svg width="307px" height="18px" viewBox="0 0 307 18" version="1.1" xmlns="http://www.w3.org/2000/svg" xmlns:xlink="http://www.w3.org/1999/xlink">
    <!-- Generator: Sketch 48.1 (47250) - http://www.bohemiancoding.com/sketch -->
    <title>sticker_neverrunalone_black</title>
    <desc>Created with Sketch.</desc>
    <defs>
        <polygon id="path-1" points="5.42101086e-20 0.0405 5.42101086e-20 17.2135 10.2185 17.2135 10.2185 0.0405 0 0.0405"></polygon>
    </defs>
    <g id="stickers-white" stroke="none" stroke-width="1" fill="none" fill-rule="evenodd" transform="translate(-284.000000, -698.000000)">
        <g id="sticker_neverrunalone_black" transform="translate(284.000000, 698.000000)">
            <g id="Group-3" transform="translate(0.000000, 0.423800)">
                <mask id="mask-2" fill="white">
                    <use xlink:href="#path-1"></use>
                </mask>
                <g id="Clip-2"></g>
                <path d="M8.3505,0.1905 C8.7655,0.1335 9.3885,0.0845 10.2185,0.0405 C10.1615,0.3265 10.0905,0.6065 10.0045,0.8775 C9.4605,1.4215 8.9945,2.1795 8.6095,3.1525 L6.5465,9.8495 L6.5465,14.5945 C6.5465,15.3815 6.7465,15.9755 7.1485,16.3765 C7.2625,16.7915 7.3355,17.0715 7.3635,17.2135 C6.4465,17.1565 5.8265,17.1065 5.4965,17.0625 L5.1305,16.9565 L4.7875,17.0625 C4.4585,17.1065 3.8355,17.1565 2.9185,17.2135 C2.9915,16.9275 3.0635,16.6485 3.1355,16.3765 C3.6075,15.8185 3.8145,15.0165 3.7565,13.9715 L3.7565,9.8495 L1.8245,3.3895 C1.7245,3.0455 1.4885,2.5945 1.1175,2.0365 C0.7865,1.5365 0.4805,1.1495 0.1935,0.8775 C0.0935,0.4485 0.0285,0.1695 -0.0005,0.0405 C0.8165,0.0845 1.4395,0.1335 1.8695,0.1905 L2.2115,0.2975 L2.5545,0.1905 C2.9845,0.1335 3.6075,0.0845 4.4235,0.0405 C4.3785,0.3265 4.3165,0.6065 4.2305,0.8775 C3.9565,1.1345 3.8295,1.5495 3.8425,2.1235 L5.1515,7.0595 L6.3115,2.6365 C6.4395,1.8075 6.3315,1.2205 5.9895,0.8775 C5.8745,0.4485 5.8095,0.1695 5.7955,0.0405 C6.6125,0.0845 7.2355,0.1335 7.6635,0.1905 L8.0075,0.2975 L8.3505,0.1905 Z" id="Fill-1" fill="#000000" mask="url(#mask-2)"></path>
            </g>
            <path d="M19.5771,3.5762 C19.5771,3.3762 19.5081,3.2042 19.3621,3.0602 C19.2211,2.9192 19.0551,2.8472 18.8701,2.8472 L18.1401,2.8472 C17.9531,2.8472 17.7901,2.9192 17.6451,3.0602 C17.5031,3.2042 17.4311,3.3762 17.4311,3.5762 L17.4311,14.5032 C17.4311,14.7032 17.5031,14.8762 17.6451,15.0182 C17.7901,15.1622 17.9531,15.2332 18.1401,15.2332 L18.8701,15.2332 C19.0551,15.2332 19.2211,15.1622 19.3621,15.0182 C19.5081,14.8762 19.5771,14.7032 19.5771,14.5032 L19.5771,3.5762 Z M21.2641,1.4632 C21.9301,2.1282 22.2611,2.9262 22.2611,3.8552 L22.2611,14.2462 C22.2611,15.1762 21.9301,15.9732 21.2641,16.6392 C20.5971,17.3052 19.7991,17.6382 18.8701,17.6382 L18.1401,17.6382 C17.2091,17.6382 16.4111,17.3052 15.7461,16.6392 C15.0811,15.9732 14.7481,15.1762 14.7481,14.2462 L14.7481,3.8552 C14.7481,2.9262 15.0811,2.1282 15.7461,1.4632 C16.4111,0.7972 17.2091,0.4642 18.1401,0.4642 L18.8701,0.4642 C19.7991,0.4642 20.5971,0.7972 21.2641,1.4632 L21.2641,1.4632 Z" id="Fill-4" fill="#000000"></path>
            <path d="M35.6337,0.6143 C36.0637,0.5573 36.6797,0.5083 37.4797,0.4643 C37.4237,0.7503 37.3517,1.0213 37.2647,1.2793 C36.8627,1.6953 36.6627,2.3023 36.6627,3.1043 L36.6627,14.1803 C36.6627,15.1393 36.3237,15.9563 35.6437,16.6283 C34.9647,17.3013 34.1527,17.6373 33.2077,17.6373 L32.4777,17.6373 C31.5187,17.6373 30.6987,17.3013 30.0207,16.6283 C29.3387,15.9563 29.0007,15.1393 29.0007,14.1803 L29.0007,3.3183 C29.0007,2.3753 28.8007,1.6953 28.3997,1.2793 C28.2847,0.8643 28.2117,0.5933 28.1847,0.4643 C29.0007,0.5083 29.6137,0.5573 30.0297,0.6143 L30.3747,0.7213 L30.7177,0.6143 C31.1477,0.5573 31.7637,0.5083 32.5637,0.4643 C32.5077,0.7503 32.4357,1.0213 32.3487,1.2793 C31.9467,1.6803 31.7487,2.2743 31.7487,3.0603 L31.7487,14.4383 C31.7487,14.6383 31.8197,14.8143 31.9637,14.9653 C32.1067,15.1153 32.2767,15.1893 32.4777,15.1893 L33.2077,15.1893 C33.4077,15.1893 33.5807,15.1153 33.7237,14.9653 C33.8647,14.8143 33.9377,14.6383 33.9377,14.4383 L33.9377,3.1043 C33.9377,2.3173 33.7307,1.7093 33.3147,1.2793 C33.1997,0.8643 33.1357,0.5933 33.1207,0.4643 C33.9237,0.5083 34.5297,0.5573 34.9457,0.6143 L35.2907,0.7213 L35.6337,0.6143 Z" id="Fill-6" fill="#000000"></path>
            <polygon id="Fill-8" fill="#000000" points="44.5653 1.7471 42.4813 7.4371 41.3873 7.1371 42.8253 1.2331"></polygon>
            <path d="M57.3368,11.4981 C57.4378,11.4981 57.5368,11.5061 57.6378,11.5191 L57.6378,17.4011 L51.1538,17.4011 L50.9178,17.4861 C50.5308,17.5301 49.9008,17.5801 49.0278,17.6381 C49.0868,17.3521 49.1568,17.0721 49.2428,16.8001 C49.5438,16.5001 49.7378,16.0141 49.8238,15.3401 L49.8238,3.0191 C49.8238,2.2741 49.6238,1.7021 49.2228,1.3021 C49.1078,0.8871 49.0428,0.6071 49.0278,0.4641 C49.9318,0.5211 50.5518,0.5711 50.8978,0.6141 L51.2398,0.7221 L51.6048,0.6141 C51.9338,0.5711 52.5568,0.5211 53.4738,0.4641 L53.2468,1.3021 C52.7518,1.8591 52.5418,2.6611 52.6138,3.7051 L52.6138,14.9111 L54.6528,14.9111 C55.5988,14.7261 56.0698,14.1161 56.0698,13.0871 C56.1258,12.0271 56.5478,11.4981 57.3368,11.4981" id="Fill-10" fill="#000000"></path>
            <path d="M71.2909,11.4981 C71.3919,11.4981 71.4919,11.5061 71.5929,11.5191 L71.5929,17.4011 L65.1079,17.4011 L64.8729,17.4861 C64.4849,17.5301 63.8549,17.5801 62.9829,17.6381 C63.0409,17.3521 63.1109,17.0721 63.1969,16.8001 C63.4989,16.5001 63.6919,16.0141 63.7779,15.3401 L63.7779,3.0191 C63.7779,2.2741 63.5779,1.7021 63.1769,1.3021 C63.0619,0.8871 62.9969,0.6071 62.9829,0.4641 C63.8859,0.5211 64.5069,0.5711 64.8519,0.6141 L65.1949,0.7221 L65.5589,0.6141 C65.8879,0.5711 66.5109,0.5211 67.4279,0.4641 L67.2009,1.3021 C66.7069,1.8591 66.4969,2.6611 66.5689,3.7051 L66.5689,14.9111 L68.6079,14.9111 C69.5529,14.7261 70.0239,14.1161 70.0239,13.0871 C70.0799,12.0271 70.5029,11.4981 71.2909,11.4981" id="Fill-12" fill="#000000"></path>
            <path d="M99.539,0.6143 C99.882,0.5713 100.505,0.5213 101.407,0.4643 C101.335,0.7503 101.263,1.0303 101.192,1.3013 C100.719,1.8593 100.518,2.6613 100.591,3.7053 L100.57,3.7053 L100.57,16.0923 C100.654,16.8073 100.848,17.3223 101.148,17.6373 L97.801,17.6373 L97.779,17.5933 L97.779,14.3743 L95.567,8.5363 L95.567,14.3953 C95.567,15.4403 95.775,16.2423 96.19,16.8003 C96.291,17.2153 96.353,17.4953 96.384,17.6373 C95.567,17.5803 94.944,17.5303 94.516,17.4863 L94.173,17.3803 L93.829,17.4863 C93.428,17.5303 92.806,17.5803 91.961,17.6373 C92.018,17.3363 92.082,17.0563 92.154,16.7993 C92.569,16.3963 92.777,15.8013 92.777,15.0113 L92.777,2.1643 C92.777,1.4323 92.576,0.8653 92.175,0.4643 L94.795,0.5083 L97.779,8.4713 L97.779,3.0603 C97.779,2.2893 97.579,1.7023 97.178,1.3013 C97.063,0.8863 96.998,0.6073 96.983,0.4643 C97.887,0.5213 98.508,0.5713 98.852,0.6143 L99.195,0.7213 L99.539,0.6143 Z" id="Fill-14" fill="#000000"></path>
            <path d="M114.6942,11.7764 C115.5252,12.1914 115.9752,12.8494 116.0462,13.7514 C115.8022,14.9674 115.7892,15.8834 116.0042,16.5004 C115.5022,16.5434 115.0382,16.6924 114.6082,16.9504 C114.0202,17.3944 113.2992,17.6234 112.4402,17.6374 L111.4742,17.6374 C111.4442,17.6374 111.2602,17.6234 110.9172,17.5934 C110.3572,17.5374 109.9582,17.5024 109.7142,17.4864 L109.3702,17.3804 L109.0072,17.4864 C108.6052,17.5304 107.9822,17.5804 107.1372,17.6374 C107.2102,17.3514 107.2802,17.0724 107.3522,16.7994 C107.8262,16.2424 108.0312,15.4404 107.9752,14.3954 L107.9752,3.7054 L107.9542,3.7054 C108.0242,2.6614 107.8262,1.8594 107.3522,1.3014 C107.2382,0.8724 107.1662,0.5924 107.1372,0.4634 C108.0412,0.5214 108.6612,0.5714 109.0072,0.6144 L109.3492,0.7214 L115.7472,0.7214 L115.7472,6.5824 C115.6462,6.5964 115.5462,6.6034 115.4462,6.6034 C114.6572,6.6034 114.2352,6.0744 114.1782,5.0144 C114.1062,3.7974 113.5482,3.1834 112.5042,3.1684 L110.7452,3.1684 L110.7452,7.0334 L111.1532,7.0334 C111.6692,7.1044 112.0672,6.8964 112.3542,6.4104 C112.5552,6.3094 112.6902,6.2464 112.7622,6.2164 C112.7492,6.7174 112.7252,7.3404 112.6972,8.0844 L112.6342,8.4284 L112.6972,8.7714 C112.7252,9.5024 112.7492,10.1254 112.7622,10.6384 C112.6182,10.5954 112.4822,10.5314 112.3542,10.4464 C112.1962,10.1314 111.8452,9.9304 111.3022,9.8444 L110.7452,9.8444 L110.7452,15.1894 L112.3762,15.1894 C113.1332,15.1894 113.5132,14.6314 113.5132,13.5154 C113.5132,13.0154 113.4142,12.4494 113.2132,11.8194 L113.2132,11.3694 C113.7432,11.3984 114.2352,11.5344 114.6942,11.7764" id="Fill-16" fill="#000000"></path>
            <path d="M128.6044,0.6143 C129.0204,0.5573 129.6434,0.5083 130.4734,0.4643 C130.4154,0.7503 130.3424,1.0303 130.2584,1.3013 C130.0004,1.5583 129.7784,1.9673 129.5914,2.5243 L126.9294,15.9843 C127.0434,16.3433 127.1954,16.6143 127.3814,16.8003 C127.4974,17.2153 127.5664,17.4953 127.5964,17.6373 C126.6664,17.5803 126.0424,17.5303 125.7284,17.4863 L125.3644,17.3803 L125.0214,17.4863 C124.6754,17.5303 124.0554,17.5803 123.1524,17.6373 C123.2104,17.3363 123.2804,17.0573 123.3674,16.8003 C123.5674,16.6003 123.7234,16.3063 123.8404,15.9203 L121.3934,2.6753 C121.2204,2.0463 120.9924,1.5883 120.7054,1.3013 C120.5904,0.8723 120.5184,0.5933 120.4904,0.4643 C121.3214,0.5083 121.9434,0.5573 122.3594,0.6143 L122.7024,0.7213 L123.0664,0.6143 C123.4814,0.5573 124.0974,0.5083 124.9144,0.4643 C124.8694,0.7503 124.8064,1.0303 124.7194,1.3013 C124.4474,1.5583 124.2324,1.9733 124.0764,2.5473 L125.4504,10.9403 L126.8664,2.6973 C126.7384,2.0393 126.5234,1.5733 126.2224,1.3013 C126.1224,0.8723 126.0564,0.5933 126.0294,0.4643 C126.8594,0.5083 127.4804,0.5573 127.8954,0.6143 L128.2614,0.7213 L128.6044,0.6143 Z" id="Fill-18" fill="#000000"></path>
            <path d="M143.5673,11.7764 C144.3973,12.1914 144.8483,12.8494 144.9183,13.7514 C144.6753,14.9674 144.6613,15.8834 144.8763,16.5004 C144.3753,16.5434 143.9103,16.6924 143.4803,16.9504 C142.8923,17.3944 142.1713,17.6234 141.3133,17.6374 L140.3473,17.6374 C140.3173,17.6374 140.1323,17.6234 139.7903,17.5934 C139.2293,17.5374 138.8313,17.5024 138.5863,17.4864 L138.2433,17.3804 L137.8793,17.4864 C137.4773,17.5304 136.8543,17.5804 136.0093,17.6374 C136.0833,17.3514 136.1523,17.0724 136.2243,16.7994 C136.6983,16.2424 136.9043,15.4404 136.8473,14.3954 L136.8473,3.7054 L136.8273,3.7054 C136.8963,2.6614 136.6983,1.8594 136.2243,1.3014 C136.1103,0.8724 136.0383,0.5924 136.0093,0.4634 C136.9133,0.5214 137.5343,0.5714 137.8793,0.6144 L138.2213,0.7214 L144.6193,0.7214 L144.6193,6.5824 C144.5193,6.5964 144.4193,6.6034 144.3183,6.6034 C143.5303,6.6034 143.1073,6.0744 143.0513,5.0144 C142.9793,3.7974 142.4213,3.1834 141.3763,3.1684 L139.6173,3.1684 L139.6173,7.0334 L140.0253,7.0334 C140.5413,7.1044 140.9403,6.8964 141.2273,6.4104 C141.4273,6.3094 141.5633,6.2464 141.6353,6.2164 C141.6213,6.7174 141.5973,7.3404 141.5703,8.0844 L141.5063,8.4284 L141.5703,8.7714 C141.5973,9.5024 141.6213,10.1254 141.6353,10.6384 C141.4913,10.5954 141.3553,10.5314 141.2273,10.4464 C141.0683,10.1314 140.7183,9.9304 140.1743,9.8444 L139.6173,9.8444 L139.6173,15.1894 L141.2483,15.1894 C142.0063,15.1894 142.3863,14.6314 142.3863,13.5154 C142.3863,13.0154 142.2863,12.4494 142.0863,11.8194 L142.0863,11.3694 C142.6153,11.3984 143.1073,11.5344 143.5673,11.7764" id="Fill-20" fill="#000000"></path>
            <path d="M156.4247,3.6407 C156.4247,3.4417 156.3557,3.2687 156.2127,3.1257 C156.0707,2.9827 155.9007,2.9117 155.7017,2.9117 L154.2367,2.9117 L154.2367,8.0637 L154.2997,8.0637 C155.0927,8.0637 155.6177,7.9277 155.8717,7.6557 C156.2407,7.2837 156.4247,6.5747 156.4247,5.5307 L156.4247,3.6407 Z M160.2887,17.6377 C159.6897,17.8517 159.1587,17.9587 158.6997,17.9587 C157.4427,17.9587 156.7607,17.2727 156.6607,15.8977 L156.5977,14.9117 C156.4397,12.7067 156.0637,11.2547 155.4707,10.5537 C155.2257,10.5817 154.8127,10.5957 154.2367,10.5957 L154.2367,14.3537 C154.1637,15.3837 154.3697,16.1777 154.8527,16.7357 C154.9547,17.1647 155.0237,17.4437 155.0507,17.5737 C154.1637,17.5157 153.5487,17.4657 153.2047,17.4227 L152.8617,17.3157 L152.5197,17.4227 C152.1737,17.4657 151.5537,17.5157 150.6507,17.5737 C150.6957,17.2867 150.7647,17.0067 150.8647,16.7357 C151.2667,16.3347 151.4667,15.7047 151.4667,14.8467 L151.4667,3.6837 C151.5237,2.6547 151.3157,1.8597 150.8447,1.3017 C150.7437,0.8717 150.6787,0.5927 150.6507,0.4637 C151.4527,0.5077 152.0737,0.5577 152.5197,0.6147 L152.8617,0.7217 L153.2047,0.6147 C154.0077,0.5147 154.5937,0.4637 154.9667,0.4637 L155.7177,0.4637 C156.6747,0.4637 157.4957,0.8037 158.1747,1.4837 C158.8537,2.1637 159.1947,2.9827 159.1947,3.9417 L159.1947,5.5307 C159.1947,7.1477 158.7927,8.3997 157.9927,9.2867 C158.8797,10.6187 159.3227,12.4427 159.3227,14.7607 C159.3667,16.3787 159.6897,17.3357 160.2887,17.6377 L160.2887,17.6377 Z" id="Fill-22" fill="#000000"></path>
            <path d="M186.7353,3.6407 C186.7353,3.4417 186.6653,3.2687 186.5223,3.1257 C186.3803,2.9827 186.2103,2.9117 186.0113,2.9117 L184.5473,2.9117 L184.5473,8.0637 L184.6093,8.0637 C185.4023,8.0637 185.9273,7.9277 186.1813,7.6557 C186.5503,7.2837 186.7353,6.5747 186.7353,5.5307 L186.7353,3.6407 Z M190.5983,17.6377 C189.9993,17.8517 189.4693,17.9587 189.0093,17.9587 C187.7523,17.9587 187.0713,17.2727 186.9703,15.8977 L186.9073,14.9117 C186.7493,12.7067 186.3733,11.2547 185.7803,10.5537 C185.5363,10.5817 185.1233,10.5957 184.5473,10.5957 L184.5473,14.3537 C184.4743,15.3837 184.6793,16.1777 185.1623,16.7357 C185.2643,17.1647 185.3333,17.4437 185.3603,17.5737 C184.4743,17.5157 183.8583,17.4657 183.5153,17.4227 L183.1723,17.3157 L182.8293,17.4227 C182.4843,17.4657 181.8633,17.5157 180.9603,17.5737 C181.0053,17.2867 181.0753,17.0067 181.1743,16.7357 C181.5763,16.3347 181.7773,15.7047 181.7773,14.8467 L181.7773,3.6837 C181.8333,2.6547 181.6253,1.8597 181.1543,1.3017 C181.0533,0.8717 180.9883,0.5927 180.9603,0.4637 C181.7623,0.5077 182.3833,0.5577 182.8293,0.6147 L183.1723,0.7217 L183.5153,0.6147 C184.3173,0.5147 184.9033,0.4637 185.2763,0.4637 L186.0283,0.4637 C186.9843,0.4637 187.8053,0.8037 188.4843,1.4837 C189.1643,2.1637 189.5043,2.9827 189.5043,3.9417 L189.5043,5.5307 C189.5043,7.1477 189.1033,8.3997 188.3023,9.2867 C189.1893,10.6187 189.6323,12.4427 189.6323,14.7607 C189.6763,16.3787 189.9993,17.3357 190.5983,17.6377 L190.5983,17.6377 Z" id="Fill-24" fill="#000000"></path>
            <path d="M202.6005,0.6143 C203.0295,0.5573 203.6455,0.5083 204.4455,0.4643 C204.3895,0.7503 204.3175,1.0213 204.2315,1.2793 C203.8295,1.6953 203.6285,2.3023 203.6285,3.1043 L203.6285,14.1803 C203.6285,15.1393 203.2905,15.9563 202.6095,16.6283 C201.9305,17.3013 201.1195,17.6373 200.1735,17.6373 L199.4435,17.6373 C198.4845,17.6373 197.6655,17.3013 196.9865,16.6283 C196.3055,15.9563 195.9665,15.1393 195.9665,14.1803 L195.9665,3.3183 C195.9665,2.3753 195.7665,1.6953 195.3655,1.2793 C195.2505,0.8643 195.1785,0.5933 195.1505,0.4643 C195.9665,0.5083 196.5805,0.5573 196.9965,0.6143 L197.3415,0.7213 L197.6845,0.6143 C198.1135,0.5573 198.7295,0.5083 199.5305,0.4643 C199.4735,0.7503 199.4015,1.0213 199.3155,1.2793 C198.9135,1.6803 198.7155,2.2743 198.7155,3.0603 L198.7155,14.4383 C198.7155,14.6383 198.7855,14.8143 198.9305,14.9653 C199.0725,15.1153 199.2435,15.1893 199.4435,15.1893 L200.1735,15.1893 C200.3735,15.1893 200.5465,15.1153 200.6895,14.9653 C200.8315,14.8143 200.9045,14.6383 200.9045,14.4383 L200.9045,3.1043 C200.9045,2.3173 200.6965,1.7093 200.2815,1.2793 C200.1665,0.8643 200.1015,0.5933 200.0875,0.4643 C200.8895,0.5083 201.4965,0.5573 201.9125,0.6143 L202.2565,0.7213 L202.6005,0.6143 Z" id="Fill-26" fill="#000000"></path>
            <path d="M217.7118,0.6143 C218.0548,0.5713 218.6778,0.5213 219.5808,0.4643 C219.5088,0.7503 219.4368,1.0303 219.3658,1.3013 C218.8928,1.8593 218.6908,2.6613 218.7648,3.7053 L218.7428,3.7053 L218.7428,16.0923 C218.8268,16.8073 219.0208,17.3223 219.3218,17.6373 L215.9738,17.6373 L215.9528,17.5933 L215.9528,14.3743 L213.7408,8.5363 L213.7408,14.3953 C213.7408,15.4403 213.9478,16.2423 214.3638,16.8003 C214.4638,17.2153 214.5268,17.4953 214.5578,17.6373 C213.7408,17.5803 213.1178,17.5303 212.6888,17.4863 L212.3458,17.3803 L212.0028,17.4863 C211.6018,17.5303 210.9788,17.5803 210.1338,17.6373 C210.1918,17.3363 210.2548,17.0563 210.3268,16.7993 C210.7428,16.3963 210.9498,15.8013 210.9498,15.0113 L210.9498,2.1643 C210.9498,1.4323 210.7498,0.8653 210.3488,0.4643 L212.9688,0.5083 L215.9528,8.4713 L215.9528,3.0603 C215.9528,2.2893 215.7518,1.7023 215.3508,1.3013 C215.2358,0.8863 215.1708,0.6073 215.1568,0.4643 C216.0608,0.5213 216.6808,0.5713 217.0258,0.6143 L217.3688,0.7213 L217.7118,0.6143 Z" id="Fill-28" fill="#000000"></path>
            <path d="M245.8329,11.0684 L245.0169,6.7964 L244.3729,11.0684 L245.8329,11.0684 Z M249.8909,17.6374 C249.0459,17.5804 248.4229,17.5304 248.0209,17.4864 L247.6789,17.3804 L247.3119,17.4864 C246.9129,17.5304 246.2909,17.5804 245.4459,17.6374 C245.5019,17.3364 245.5739,17.0574 245.6599,16.7994 C246.0759,16.3854 246.3539,15.6334 246.4979,14.5464 L246.2179,13.1304 L244.0509,13.1304 L243.7699,14.9114 C243.9299,15.8124 244.1929,16.4424 244.5659,16.7994 C244.6809,17.2144 244.7439,17.4954 244.7599,17.6374 C243.9299,17.5804 243.3129,17.5304 242.9119,17.4864 L242.5479,17.3804 L242.2049,17.4864 C241.7899,17.5304 241.1669,17.5804 240.3359,17.6374 C240.3809,17.3364 240.4509,17.0574 240.5509,16.7994 C241.0389,16.2424 241.3229,15.4404 241.4089,14.3954 L243.3619,2.1174 C243.2479,1.7584 243.1049,1.4874 242.9339,1.3014 C242.8179,0.8864 242.7489,0.6074 242.7189,0.4644 C243.6359,0.5214 244.2589,0.5714 244.5869,0.6144 L244.9309,0.7214 L245.2729,0.6144 C245.6029,0.5714 246.2259,0.5214 247.1429,0.4644 C247.0979,0.7504 247.0349,1.0304 246.9479,1.3014 C246.7329,1.5164 246.5679,1.8394 246.4539,2.2674 L249.0949,15.7494 C249.2539,16.2204 249.4449,16.5714 249.6759,16.7994 C249.7899,17.2144 249.8599,17.4954 249.8909,17.6374 L249.8909,17.6374 Z" id="Fill-30" fill="#000000"></path>
            <path d="M263.6933,11.4981 C263.7943,11.4981 263.8943,11.5061 263.9943,11.5191 L263.9943,17.4011 L257.5103,17.4011 L257.2753,17.4861 C256.8873,17.5301 256.2573,17.5801 255.3843,17.6381 C255.4433,17.3521 255.5133,17.0721 255.5993,16.8001 C255.9003,16.5001 256.0943,16.0141 256.1803,15.3401 L256.1803,3.0191 C256.1803,2.2741 255.9803,1.7021 255.5793,1.3021 C255.4643,0.8871 255.3993,0.6071 255.3843,0.4641 C256.2883,0.5211 256.9083,0.5711 257.2543,0.6141 L257.5963,0.7221 L257.9613,0.6141 C258.2903,0.5711 258.9133,0.5211 259.8303,0.4641 L259.6033,1.3021 C259.1083,1.8591 258.8983,2.6611 258.9703,3.7051 L258.9703,14.9111 L261.0103,14.9111 C261.9553,14.7261 262.4263,14.1161 262.4263,13.0871 C262.4823,12.0271 262.9053,11.4981 263.6933,11.4981" id="Fill-32" fill="#000000"></path>
            <path d="M274.1669,3.5762 C274.1669,3.3762 274.0969,3.2042 273.9519,3.0602 C273.8099,2.9192 273.6449,2.8472 273.4599,2.8472 L272.7299,2.8472 C272.5429,2.8472 272.3799,2.9192 272.2349,3.0602 C272.0929,3.2042 272.0209,3.3762 272.0209,3.5762 L272.0209,14.5032 C272.0209,14.7032 272.0929,14.8762 272.2349,15.0182 C272.3799,15.1622 272.5429,15.2332 272.7299,15.2332 L273.4599,15.2332 C273.6449,15.2332 273.8099,15.1622 273.9519,15.0182 C274.0969,14.8762 274.1669,14.7032 274.1669,14.5032 L274.1669,3.5762 Z M275.8539,1.4632 C276.5189,2.1282 276.8499,2.9262 276.8499,3.8552 L276.8499,14.2462 C276.8499,15.1762 276.5189,15.9732 275.8539,16.6392 C275.1869,17.3052 274.3889,17.6382 273.4599,17.6382 L272.7299,17.6382 C271.7989,17.6382 271.0009,17.3052 270.3359,16.6392 C269.6709,15.9732 269.3369,15.1762 269.3369,14.2462 L269.3369,3.8552 C269.3369,2.9262 269.6709,2.1282 270.3359,1.4632 C271.0009,0.7972 271.7989,0.4642 272.7299,0.4642 L273.4599,0.4642 C274.3889,0.4642 275.1869,0.7972 275.8539,1.4632 L275.8539,1.4632 Z" id="Fill-34" fill="#000000"></path>
            <path d="M290.3544,0.6143 C290.6974,0.5713 291.3204,0.5213 292.2224,0.4643 C292.1504,0.7503 292.0784,1.0303 292.0084,1.3013 C291.5354,1.8593 291.3334,2.6613 291.4064,3.7053 L291.3854,3.7053 L291.3854,16.0923 C291.4694,16.8073 291.6634,17.3223 291.9634,17.6373 L288.6164,17.6373 L288.5944,17.5933 L288.5944,14.3743 L286.3824,8.5363 L286.3824,14.3953 C286.3824,15.4403 286.5904,16.2423 287.0054,16.8003 C287.1064,17.2153 287.1684,17.4953 287.2004,17.6373 C286.3824,17.5803 285.7594,17.5303 285.3314,17.4863 L284.9884,17.3803 L284.6444,17.4863 C284.2444,17.5303 283.6214,17.5803 282.7764,17.6373 C282.8334,17.3363 282.8974,17.0563 282.9694,16.7993 C283.3844,16.3963 283.5924,15.8013 283.5924,15.0113 L283.5924,2.1643 C283.5924,1.4323 283.3914,0.8653 282.9914,0.4643 L285.6114,0.5083 L288.5944,8.4713 L288.5944,3.0603 C288.5944,2.2893 288.3944,1.7023 287.9934,1.3013 C287.8784,0.8863 287.8134,0.6073 287.7994,0.4643 C288.7024,0.5213 289.3234,0.5713 289.6674,0.6143 L290.0104,0.7213 L290.3544,0.6143 Z" id="Fill-36" fill="#000000"></path>
            <path d="M305.5077,11.7764 C306.3387,12.1914 306.7887,12.8494 306.8587,13.7514 C306.6157,14.9674 306.6027,15.8834 306.8167,16.5004 C306.3157,16.5434 305.8507,16.6924 305.4217,16.9504 C304.8337,17.3944 304.1117,17.6234 303.2537,17.6374 L302.2877,17.6374 C302.2577,17.6374 302.0727,17.6234 301.7307,17.5934 C301.1707,17.5374 300.7717,17.5024 300.5267,17.4864 L300.1837,17.3804 L299.8197,17.4864 C299.4177,17.5304 298.7957,17.5804 297.9507,17.6374 C298.0237,17.3514 298.0927,17.0724 298.1647,16.7994 C298.6387,16.2424 298.8447,15.4404 298.7877,14.3954 L298.7877,3.7054 L298.7677,3.7054 C298.8377,2.6614 298.6387,1.8594 298.1647,1.3014 C298.0507,0.8724 297.9787,0.5924 297.9507,0.4634 C298.8537,0.5214 299.4747,0.5714 299.8197,0.6144 L300.1627,0.7214 L306.5607,0.7214 L306.5607,6.5824 C306.4597,6.5964 306.3597,6.6034 306.2587,6.6034 C305.4707,6.6034 305.0477,6.0744 304.9917,5.0144 C304.9197,3.7974 304.3617,3.1834 303.3177,3.1684 L301.5577,3.1684 L301.5577,7.0334 L301.9657,7.0334 C302.4817,7.1044 302.8807,6.8964 303.1677,6.4104 C303.3677,6.3094 303.5037,6.2464 303.5757,6.2164 C303.5627,6.7174 303.5387,7.3404 303.5107,8.0844 L303.4467,8.4284 L303.5107,8.7714 C303.5387,9.5024 303.5627,10.1254 303.5757,10.6384 C303.4317,10.5954 303.2957,10.5314 303.1677,10.4464 C303.0087,10.1314 302.6587,9.9304 302.1147,9.8444 L301.5577,9.8444 L301.5577,15.1894 L303.1887,15.1894 C303.9467,15.1894 304.3267,14.6314 304.3267,13.5154 C304.3267,13.0154 304.2267,12.4494 304.0267,11.8194 L304.0267,11.3694 C304.5557,11.3984 305.0477,11.5344 305.5077,11.7764" id="Fill-38" fill="#000000"></path>
        </g>
    </g>
</svg>