<?xml version="1.0" encoding="UTF-8"?>
<svg width="97px" height="94px" viewBox="0 0 97 94" version="1.1" xmlns="http://www.w3.org/2000/svg" xmlns:xlink="http://www.w3.org/1999/xlink">
    <!-- Generator: Sketch 42 (36781) - http://www.bohemiancoding.com/sketch -->
    <title>sticker_run-repeat_black</title>
    <desc>Created with Sketch.</desc>
    <defs>
        <polygon id="path-1" points="18.6952 0.277 0.7812 0.277 0.7812 25.4317 18.6952 25.4317 18.6952 0.277"></polygon>
    </defs>
    <g id="Page-1" stroke="none" stroke-width="1" fill="none" fill-rule="evenodd">
        <g id="stickers-white" transform="translate(-338.000000, -438.000000)">
            <g id="sticker_run-repeat_black" transform="translate(338.000000, 437.000000)">
                <g id="Group-3" transform="translate(19.000000, 0.723000)">
                    <mask id="mask-2" fill="white">
                        <use xlink:href="#path-1"></use>
                    </mask>
                    <g id="Clip-2"></g>
                    <path d="M8.0202,11.9207 C9.8222,11.9207 10.7892,10.3527 10.7892,8.7177 C10.7892,6.5167 9.4552,5.5817 7.5862,5.6827 L7.5862,11.8867 L8.0202,11.9207 Z M11.3232,25.4317 L7.5532,14.9557 L7.4862,15.0227 C7.5192,16.2577 7.5862,17.4917 7.5862,18.7257 L7.5862,25.4317 L0.7812,25.4317 L0.7812,0.2767 L7.3532,0.2767 C13.2572,0.2767 17.5282,2.0127 17.5282,8.6507 C17.5282,11.4197 16.3272,13.8887 13.6242,14.9557 L18.6952,25.4317 L11.3232,25.4317 Z" id="Fill-1" fill="#000000" mask="url(#mask-2)"></path>
                </g>
                <path d="M55.1736,1.0001 L55.1736,17.4471 C55.1736,20.4821 54.5066,26.5871 46.6336,26.5871 C38.7616,26.5871 38.0936,20.4821 38.0936,17.4471 L38.0936,1.0001 L44.8996,1.0001 L44.8996,16.8131 C44.8996,17.4801 44.8656,18.3481 45.0666,19.0151 C45.2656,19.7151 45.6986,20.2491 46.6336,20.2491 C47.6016,20.2491 48.0346,19.7151 48.2006,19.0481 C48.4026,18.3481 48.3686,17.4801 48.3686,16.8471 L48.3686,1.0001 L55.1736,1.0001 Z" id="Fill-4" fill="#000000"></path>
                <path d="M57.3396,1.0001 L63.8126,1.0001 L69.2496,16.1461 L69.3166,16.0791 C69.0496,13.1771 68.5486,10.3081 68.5486,7.4051 L68.5486,1.0001 L75.0876,1.0001 L75.0876,26.1541 L68.5486,26.1541 L63.4786,11.6431 L63.4106,11.7091 C63.5786,14.0781 63.8786,16.4131 63.8786,18.7811 L63.8786,26.1541 L57.3396,26.1541 L57.3396,1.0001 Z" id="Fill-6" fill="#000000"></path>
                <path d="M13.4216,40.5655 L12.9216,40.5985 L12.9216,46.4035 C14.7896,46.5025 15.9576,45.4685 15.9576,43.6015 C15.9576,41.9995 15.0896,40.5655 13.4216,40.5655 L13.4216,40.5655 Z M6.1156,60.3145 L6.1156,35.1615 L12.3206,35.1615 C18.2596,35.1615 22.8296,37.0955 22.8296,43.7015 C22.8296,50.2395 18.8256,52.2415 12.9216,52.0745 L12.9216,60.3145 L6.1156,60.3145 Z" id="Fill-8" fill="#000000"></path>
                <path d="M32.3073,51.7403 L31.5733,45.9033 C31.3723,44.3353 31.2393,42.7333 31.0733,41.1663 L31.0053,41.1663 C30.8053,42.7333 30.6383,44.3353 30.3713,45.9033 L29.4373,51.7403 L32.3073,51.7403 Z M33.6083,60.3143 L33.1073,57.0783 L28.5373,57.0783 L27.9693,60.3143 L20.9633,60.3143 L27.0023,35.1613 L35.3093,35.1613 L40.6473,60.3143 L33.6083,60.3143 Z" id="Fill-10" fill="#000000"></path>
                <path d="M48.4509,46.8038 C50.2529,46.8038 51.2199,45.2358 51.2199,43.6018 C51.2199,41.3998 49.8849,40.4648 48.0169,40.5658 L48.0169,46.7698 L48.4509,46.8038 Z M51.7539,60.3148 L47.9839,49.8388 L47.9179,49.9068 C47.9499,51.1408 48.0169,52.3748 48.0169,53.6088 L48.0169,60.3148 L41.2119,60.3148 L41.2119,35.1608 L47.7839,35.1608 C53.6879,35.1608 57.9589,36.8958 57.9589,43.5338 C57.9589,46.3028 56.7579,48.7718 54.0549,49.8388 L59.1259,60.3148 L51.7539,60.3148 Z" id="Fill-12" fill="#000000"></path>
                <polygon id="Fill-14" fill="#000000" points="61.5993 60.3146 61.5993 41.2986 57.8633 41.2986 57.8633 35.1616 72.3063 35.1616 72.3063 41.2986 68.4043 41.2986 68.4043 60.3146"></polygon>
                <polygon id="Fill-16" fill="#000000" points="77.8435 60.3146 77.8435 49.6396 71.6375 35.1616 78.7105 35.1616 81.0455 42.9336 81.1125 42.9336 83.4815 35.1616 90.5205 35.1616 84.6485 49.6396 84.6485 60.3146"></polygon>
                <path d="M7.239,80.964 C9.041,80.964 10.008,79.396 10.008,77.762 C10.008,75.56 8.673,74.625 6.805,74.726 L6.805,80.931 L7.239,80.964 Z M10.542,94.475 L6.772,83.999 L6.705,84.067 C6.738,85.301 6.805,86.535 6.805,87.769 L6.805,94.475 L0,94.475 L0,69.321 L6.572,69.321 C12.476,69.321 16.747,71.057 16.747,77.694 C16.747,80.463 15.546,82.932 12.843,83.999 L17.914,94.475 L10.542,94.475 Z" id="Fill-18" fill="#000000"></path>
                <polygon id="Fill-20" fill="#000000" points="18.4792 69.3214 31.1222 69.3214 31.1222 75.2594 25.2852 75.2594 25.2852 78.7624 30.5222 78.7624 30.5222 84.7004 25.2852 84.7004 25.2852 88.5364 31.1222 88.5364 31.1222 94.4744 18.4792 94.4744"></polygon>
                <path d="M40.7614,74.7257 L40.2614,74.7587 L40.2614,80.5637 C42.1294,80.6637 43.2964,79.6297 43.2964,77.7617 C43.2964,76.1607 42.4304,74.7257 40.7614,74.7257 L40.7614,74.7257 Z M33.4554,94.4747 L33.4554,69.3217 L39.6604,69.3217 C45.5984,69.3217 50.1684,71.2557 50.1684,77.8617 C50.1684,84.4007 46.1654,86.4017 40.2614,86.2347 L40.2614,94.4747 L33.4554,94.4747 Z" id="Fill-22" fill="#000000"></path>
                <polygon id="Fill-24" fill="#000000" points="51.2683 69.3214 63.9123 69.3214 63.9123 75.2594 58.0743 75.2594 58.0743 78.7624 63.3113 78.7624 63.3113 84.7004 58.0743 84.7004 58.0743 88.5364 63.9123 88.5364 63.9123 94.4744 51.2683 94.4744"></polygon>
                <path d="M75.8523,85.9015 L75.1193,80.0625 C74.9183,78.4955 74.7863,76.8935 74.6183,75.3265 L74.5513,75.3265 C74.3513,76.8935 74.1843,78.4955 73.9173,80.0625 L72.9843,85.9015 L75.8523,85.9015 Z M77.1543,94.4745 L76.6543,91.2385 L72.0823,91.2385 L71.5163,94.4745 L64.5103,94.4745 L70.5483,69.3215 L78.8553,69.3215 L84.1933,94.4745 L77.1543,94.4745 Z" id="Fill-26" fill="#000000"></path>
                <polygon id="Fill-28" fill="#000000" points="85.4284 94.4747 85.4284 75.4587 81.6914 75.4587 81.6914 69.3217 96.1354 69.3217 96.1354 75.4587 92.2334 75.4587 92.2334 94.4747"></polygon>
            </g>
        </g>
    </g>
</svg>