<?xml version="1.0" encoding="UTF-8"?>
<svg width="128px" height="113px" viewBox="0 0 128 113" version="1.1" xmlns="http://www.w3.org/2000/svg" xmlns:xlink="http://www.w3.org/1999/xlink">
    <!-- Generator: Sketch 48.1 (47250) - http://www.bohemiancoding.com/sketch -->
    <title>sticker_long_white</title>
    <desc>Created with Sketch.</desc>
    <defs>
        <polygon id="path-1" points="0.00819456216 0.221245033 36.9876706 0.221245033 36.9876706 60.6776875 0.00819456216 60.6776875"></polygon>
        <polygon id="path-3" points="0.738924503 0.696116556 14.3976265 0.696116556 14.3976265 19.4966887 0.738924503 19.4966887"></polygon>
        <polygon id="path-5" points="0.302622517 0.696116556 13.9613245 0.696116556 13.9613245 19.4966887 0.302622517 19.4966887"></polygon>
        <polygon id="path-7" points="0.714002649 0.696116556 14.3727046 0.696116556 14.3727046 19.4966887 0.714002649 19.4966887"></polygon>
        <polygon id="path-9" points="0.27778543 0.696116556 13.9364874 0.696116556 13.9364874 19.4966887 0.27778543 19.4966887"></polygon>
        <polygon id="path-11" points="0.816741722 0.696031788 14.6055629 0.696031788 14.6055629 19.4966887 0.816741722 19.4966887"></polygon>
    </defs>
    <g id="stickers-black" stroke="none" stroke-width="1" fill="none" fill-rule="evenodd" transform="translate(-398.000000, -378.000000)">
        <g id="sticker_long_white" transform="translate(398.000000, 378.000000)">
            <g id="Group-3" transform="translate(46.622517, 0.626437)">
                <mask id="mask-2" fill="white">
                    <use xlink:href="#path-1"></use>
                </mask>
                <g id="Clip-2"></g>
                <path d="M5.32624106,32.2181934 C5.34404238,31.1373987 5.67887682,30.6440477 5.94928742,30.1930808 C6.6376053,29.032604 7.75993642,28.0942199 8.91024106,28.1823788 C10.0563073,28.2434119 12.3340291,28.7223523 13.4343205,29.013955 C14.5464795,29.3123391 15.4738437,29.6929483 16.0460291,29.9633589 C16.6021086,30.2269881 17.2819497,31.2077563 16.7555391,32.3656901 C16.2164132,33.5185377 15.2822675,34.2890808 14.6320954,34.8638093 C13.9793801,35.4198887 12.3179232,35.9056106 10.3826649,36.2955444 C8.44655894,36.677849 7.34287682,36.459147 6.36465166,35.7403126 C5.37032053,35.0206305 5.29402914,33.3023788 5.32624106,32.2181934 M18.3602013,39.2548026 C18.8086252,39.8524185 19.6486781,41.0713854 19.9097642,41.6071205 C20.1581351,42.1369219 20.3904,42.8447364 19.6673272,43.3592795 C18.9383205,43.8924715 18.3695258,43.8009219 17.3862146,43.7585377 C16.4257907,43.7254781 15.8536053,43.643253 15.5942146,43.4771073 C15.3373669,43.3101139 15.1678305,42.6268821 15.6001483,41.4477563 C15.875645,40.6305907 16.478347,39.6311735 16.8004662,39.2429351 C17.1132609,38.8419815 17.9126252,38.6809219 18.3602013,39.2548026 M20.9498702,29.9633589 C21.5212079,29.6929483 22.4494199,29.3123391 23.5615788,29.013955 C24.6627179,28.7223523 26.9387444,28.2434119 28.086506,28.1823788 C29.2359629,28.0942199 30.3574464,29.032604 31.0466119,30.1930808 C31.3170225,30.6440477 31.6527046,31.1373987 31.6696583,32.2181934 C31.7010225,33.3023788 31.6255788,35.0206305 30.6312477,35.7403126 C29.6530225,36.459147 28.5493404,36.677849 26.6132344,36.2955444 C24.6779762,35.9056106 23.0156715,35.4198887 22.3646517,34.8638093 C21.7136318,34.2890808 20.7794861,33.5185377 20.2395126,32.3656901 C19.7139497,31.2077563 20.3937907,30.2269881 20.9498702,29.9633589 M0.19437351,35.3808954 C0.463936424,37.6950675 0.363909934,40.7619815 0.330002649,42.3725775 C0.296943046,43.9679152 2.1999894,47.1136636 2.09741987,48.9785642 C2.13471788,51.0969219 2.40258543,54.4893457 2.9442543,55.8786967 C4.09710199,56.9688159 4.40904901,57.5927099 5.22451921,57.8809219 C6.70541987,58.3666437 7.08348609,58.6616371 7.47257219,59.2007629 C7.21233377,56.3330543 7.60057219,51.7903258 7.62006887,51.5538225 C7.62600265,51.4970278 7.6709298,51.4461669 7.73874437,51.4173457 C7.80910199,51.3910675 7.8938702,51.3893722 7.95744636,51.4131073 C8.12528742,51.4758358 8.22785695,51.5580609 8.26685033,51.6589351 C8.28973775,51.7174252 8.28549934,51.7742199 8.2685457,51.8208424 C8.43553907,52.5990146 8.65763179,57.323147 8.78732715,60.3942993 C9.46208212,60.6367364 10.3351947,60.7011603 11.2684927,60.6706437 C11.5456848,57.6189881 12.0212344,52.6202066 12.2340026,51.8225377 C12.2195921,51.7759152 12.217049,51.7191205 12.2424795,51.6614781 C12.2848636,51.560604 12.3942146,51.4817695 12.5629033,51.4232795 C12.6307179,51.3961536 12.7137907,51.4003921 12.7841483,51.4317563 C12.8494199,51.4614252 12.8926517,51.5139815 12.894347,51.5724715 C12.9053669,51.8513589 13.1325457,58.147094 12.3789563,60.6028291 C12.8994331,60.557902 13.4148238,60.501955 13.8963073,60.4493987 L15.9934728,60.2171338 C15.8341086,58.6014517 15.6493139,54.5486834 15.5391152,51.9344318 C15.5374199,51.8878093 15.5620026,51.8428821 15.6069298,51.8098225 C15.9460026,51.5563656 16.1596185,51.4758358 16.3605192,51.5334781 C16.4995391,51.5733192 16.5520954,51.669955 16.5537907,51.7403126 C17.1734464,53.4272 16.9310093,58.1038623 16.7911417,60.1289748 L18.0211285,59.9933457 C18.5127841,59.9102728 18.9739232,59.8305907 19.4181086,59.7517563 C19.7003868,56.7068821 20.1072742,52.5439152 20.3005457,51.8208424 C20.2852874,51.7742199 20.2835921,51.7174252 20.3090225,51.6597828 C20.3514066,51.560604 20.4582146,51.4800742 20.6252079,51.4215841 C20.7006517,51.397849 20.7786384,51.4003921 20.8481483,51.4300609 C20.9142675,51.4597298 20.9566517,51.5122861 20.958347,51.5707762 C20.9685192,51.8157563 21.1431417,56.6653457 20.6820026,59.5211868 C22.547751,59.1677033 23.9574464,58.8413457 25.0526517,58.5056636 C25.3196715,55.7015311 25.6426384,52.5566305 25.8070887,51.9378225 C25.7926781,51.8912 25.7901351,51.8344053 25.8155656,51.7759152 C25.8579497,51.6758887 25.9673007,51.5962066 26.1359894,51.5385642 C26.203804,51.509743 26.2885722,51.5165245 26.3572344,51.5461934 C26.422506,51.5758623 26.4648901,51.6284185 26.4665854,51.6869086 C26.4750623,51.8895046 26.5979762,55.2590411 26.3775788,58.0335046 C28.3196185,57.2188821 28.9621616,56.2669351 30.1268768,54.7292397 C31.2627709,53.0559152 30.7194066,50.5281272 31.0839099,49.640604 C31.4373934,48.7785113 33.4167311,47.6841536 33.6074596,45.7488954 C33.8015788,43.7848159 34.4593801,39.2064848 35.056996,36.475253 C35.7020821,33.7092662 36.4505854,29.749743 36.7176053,27.6339285 C36.9778437,25.485902 37.065155,20.5990146 36.9125722,18.4357298 C36.7777907,16.309743 34.5721219,11.7865113 33.7947974,10.144551 C33.0632477,8.52547815 30.6719364,5.49925298 28.819751,4.22518675 C26.9268768,2.95451126 25.1179232,2.06190199 22.7376318,1.2362596 C20.3870093,0.396206623 17.8668503,-0.0123761589 15.0279629,0.358060927 C12.1865325,0.710696689 10.0630887,3.59535894 8.60677086,4.94656424 C7.15553907,6.29183576 4.40226755,9.12394172 3.17143311,11.2541669 C1.92618808,13.4123656 0.663141722,17.1150411 0.201154967,20.3192795 C-0.243878146,23.5565775 0.22658543,26.8481272 0.180810596,28.7215046 C0.118082119,30.5567364 -0.0853615894,33.0972397 0.19437351,35.3808954" id="Fill-1" fill="#FFFFFF" mask="url(#mask-2)"></path>
            </g>
            <path d="M89.7774199,74.4303046 L88.4762278,74.7176689 C88.3567046,74.6583311 88.1651285,74.5616954 88.0473007,74.5023576 C87.9277775,74.4430199 87.7336583,74.3455364 87.6149828,74.2861987 C87.4963073,74.2260132 85.8780821,73.6529801 84.0208106,73.0104371 L83.8309298,72.9451656 C81.9728106,72.3034702 82.1838834,72.3755232 80.3257642,71.7338278 L80.1358834,71.6685563 C78.2786119,71.0268609 78.0243073,70.938702 76.1653404,70.2970066 L75.977155,70.2317351 C75.1896583,69.9596291 74.187698,69.6137748 73.1569166,69.2569007 C73.3993536,69.1755232 73.6299232,69.0975364 73.8435391,69.0263311 L75.4558305,68.4846623 C76.5942675,68.1032053 77.0664265,67.9446887 77.7793272,67.7047947 L77.7140556,67.7268344 C77.7649166,67.7098808 77.825102,67.6895364 77.878506,67.6717351 C78.0802543,67.6039205 78.299804,67.5301722 78.5261351,67.4547285 C78.6685457,67.4064106 78.8177377,67.3563974 78.9872742,67.2996026 C80.5639629,66.7698013 82.4839629,66.1255629 83.7749828,65.6923974 L84.4226119,65.4753907 C91.1320159,68.9152848 96.9360954,66.5061722 96.9360954,66.5061722 C114.158453,63.3748344 99.2833272,57.8725298 99.2833272,57.8725298 C97.571857,57.4232583 98.7153801,55.2769272 98.7153801,55.2769272 C100.175936,52.0235232 98.9959629,50.2077881 98.9959629,50.2077881 C89.1085987,46.693298 83.6190093,58.4972715 83.6190093,58.4972715 L83.2680689,59.437351 C83.1409166,59.458543 82.9357775,59.4941457 82.8086252,59.5161854 C82.6823205,59.5382252 82.4737907,59.5746755 82.3466384,59.5958675 C82.2194861,59.6179073 80.7521483,60.0943046 79.0856053,60.6537748 L78.9160689,60.7105695 C77.2495258,61.2700397 77.4368636,61.2064636 75.7711682,61.7667815 L75.6007841,61.8235762 C73.9350887,62.3830464 73.7062146,62.4593377 72.0396715,63.0188079 L71.8701351,63.0756026 C70.2035921,63.6350728 67.475751,64.5505695 65.8092079,65.1100397 L65.6388238,65.1676821 C64.7767311,65.4575894 64.0087311,65.7152848 63.4534993,65.9009272 L63.0847576,65.7754702 C61.2215523,65.1388609 58.1732874,64.0970596 56.3109298,63.4604503 L54.5087576,62.8450331 C53.2389298,62.4110199 52.7108238,62.2304636 51.9173934,61.960053 C51.8775523,61.9456424 51.8385589,61.9320795 51.8004132,61.9193642 C51.4859232,61.8117086 51.1400689,61.6938808 50.7772609,61.5701192 C50.7035126,61.5446887 50.6407841,61.5234967 50.561102,61.4963709 C48.7987709,60.8936689 46.6524397,60.1604238 45.2105325,59.6679205 L44.4866119,59.4203974 C43.1489695,53.8706225 36.1632212,51.8955232 36.1632212,51.8955232 C19.7834596,43.9281589 25.0484132,55.1175629 25.0484132,55.1175629 C25.8520159,56.3085563 22.6664265,56.7968212 22.6664265,56.7968212 C18.0440159,57.6894305 16.9674596,59.3008742 16.9674596,59.3008742 C20.6226649,66.6638411 37.5390093,63.5316556 37.5390093,63.5316556 L38.8224,63.2341192 C38.9419232,63.293457 39.1351947,63.3900927 39.2530225,63.4485828 C39.3733934,63.5079205 39.5700556,63.605404 39.6887311,63.6647417 C39.809102,63.7240795 41.4315656,64.2937219 43.2939232,64.9294834 L43.483804,64.994755 C45.3461616,65.6313642 45.1359364,65.5593113 46.998294,66.1959205 L47.1881748,66.2603444 C49.0505325,66.8969536 49.3056848,66.9842649 51.1680424,67.6200265 L51.3579232,67.685298 C52.2632477,67.994702 53.4500026,68.399894 54.6435391,68.8076291 C54.5528371,68.837298 54.454506,68.8695099 54.3697377,68.8983311 L52.7540556,69.4323709 C51.5859497,69.8189139 51.1197245,69.9731921 50.3763073,70.2198675 L50.3067974,70.242755 C50.3135788,70.2402119 50.3203603,70.2385166 50.3271417,70.2359735 C50.0609695,70.3241325 49.7625854,70.4224636 49.4582675,70.5233377 C49.3768901,70.5504636 49.3048371,70.5741987 49.2158305,70.6038675 C47.6349033,71.1268874 45.7106649,71.7634967 44.4179497,72.1915762 L43.7694728,72.4060397 C37.1795921,68.9059603 31.3526252,71.2938808 31.3526252,71.2938808 C14.1573934,74.3404503 28.8155126,79.9622781 28.8155126,79.9622781 C30.5057907,80.4251126 29.3190358,82.5773775 29.3190358,82.5773775 C27.7915126,85.840106 28.9206252,87.6736424 28.9206252,87.6736424 C38.6681219,91.2669669 44.4035391,79.4290861 44.4035391,79.4290861 L44.7748238,78.4856159 C44.9019762,78.4644238 45.1071152,78.4296689 45.2325722,78.4084768 C45.3597245,78.3872848 45.5674066,78.3525298 45.6937113,78.3313377 C45.8217113,78.309298 47.2915921,77.8396821 48.9615258,77.2869934 L49.1319099,77.2310464 C50.8018437,76.6783576 50.6128106,76.7410861 52.2835921,76.1875497 L52.4531285,76.1316026 C54.1222146,75.5789139 54.3510887,75.5034702 56.0218702,74.9507815 L56.1914066,74.8939868 C57.8621881,74.3421457 60.5942675,73.4368212 62.265049,72.8841325 L62.4345854,72.8281854 C63.198347,72.5755762 63.8875126,72.3475497 64.4207046,72.1703841 C66.2932344,72.8180132 69.1007576,73.7877616 70.8605457,74.3955497 L72.6584795,75.0169007 C73.9571285,75.4653245 74.4759099,75.6450331 75.3032477,75.930702 L75.3803868,75.9569801 C75.3736053,75.9544371 75.3659762,75.951894 75.358347,75.949351 C75.6541881,76.0519205 75.9856318,76.1663576 76.3247046,76.2833377 C76.4154066,76.314702 76.4959364,76.3426755 76.5942675,76.3765828 C78.3523603,76.9843709 80.494453,77.7235497 81.9321219,78.2211391 L82.654347,78.4703576 C83.8360159,83.9845298 90.8166781,85.9833642 90.8166781,85.9833642 C107.084546,93.981245 102.11289,82.8486358 102.11289,82.8486358 C101.338956,81.6627285 104.562691,81.1956556 104.562691,81.1956556 C109.246983,80.336106 110.380334,78.7424636 110.380334,78.7424636 C106.917552,71.4167947 89.7774199,74.4303046 89.7774199,74.4303046" id="Fill-4" fill="#FFFFFF"></path>
            <path d="M50.647396,61.5254464 C50.6923232,61.5407046 50.7330119,61.5551152 50.7770914,61.5695258 C50.9042437,61.6136053 51.0356344,61.6585325 51.1475285,61.6966781 L50.647396,61.5254464 Z" id="Fill-6" fill="#FFFFFF"></path>
            <polygon id="Fill-8" fill="#FFFFFF" points="8.47682119e-05 112.364842 8.47682119e-05 93.8752 3.60951523 93.8752 3.60951523 109.144498 11.9973298 109.144498 11.9973298 112.364842"></polygon>
            <g id="Group-12" transform="translate(15.258278, 93.023788)">
                <mask id="mask-4" fill="white">
                    <use xlink:href="#path-3"></use>
                </mask>
                <g id="Clip-11"></g>
                <path d="M10.7873483,10.0969113 C10.7873483,9.21362649 10.769547,8.4829245 10.7356397,7.90226225 C10.7008848,7.32244768 10.6491762,6.84181192 10.5805139,6.46120265 C10.511004,6.08059338 10.4194543,5.77288477 10.3075603,5.5389245 C10.1948185,5.30581192 10.0515603,5.09389139 9.87948079,4.90316291 C9.61924238,4.60816954 9.29458013,4.37081854 8.90464636,4.18856689 C8.51556026,4.00631523 8.06967947,3.91646093 7.56785166,3.91646093 C7.06517616,3.91646093 6.62014305,4.00631523 6.23020927,4.18856689 C5.84112318,4.37081854 5.50713642,4.60816954 5.22994437,4.90316291 C5.05701722,5.09389139 4.91460662,5.30581192 4.8018649,5.5389245 C4.68997086,5.77288477 4.59842119,6.08059338 4.52891126,6.46120265 C4.46024901,6.84181192 4.41193113,7.32244768 4.38650066,7.90226225 C4.3610702,8.4829245 4.34750728,9.21362649 4.34750728,10.0969113 C4.34750728,10.9793483 4.3610702,11.710898 4.38650066,12.2907126 C4.41193113,12.8705272 4.46024901,13.3469245 4.52891126,13.719057 C4.59842119,14.0911894 4.68997086,14.3938119 4.8018649,14.6277722 C4.91460662,14.8617325 5.05701722,15.073653 5.22994437,15.2643815 C5.50713642,15.5585272 5.84112318,15.8009642 6.23020927,15.990845 C6.62014305,16.1824212 7.06517616,16.2765139 7.56785166,16.2765139 C8.06967947,16.2765139 8.51556026,16.1824212 8.90464636,15.990845 C9.29458013,15.8009642 9.61924238,15.5585272 9.87948079,15.2643815 C10.0515603,15.073653 10.1948185,14.8617325 10.3075603,14.6277722 C10.4194543,14.3938119 10.511004,14.0911894 10.5805139,13.719057 C10.6491762,13.3469245 10.7008848,12.8705272 10.7356397,12.2907126 C10.769547,11.710898 10.7873483,10.9793483 10.7873483,10.0969113 M14.3976265,10.0969113 C14.3976265,10.9793483 14.3840636,11.7753219 14.3586331,12.4848318 C14.332355,13.1951894 14.2586066,13.8487523 14.1373881,14.4463682 C14.0170172,15.0431364 13.8305272,15.5932821 13.5796132,16.0951099 C13.3278517,16.5977854 12.9684344,17.0818119 12.5013616,17.5497325 C11.8783152,18.1719311 11.1679576,18.6534146 10.3728318,18.9907921 C9.57516291,19.3281695 8.64101722,19.4968583 7.56785166,19.4968583 C6.49468609,19.4968583 5.5554543,19.3281695 4.75015629,18.9907921 C3.94570596,18.6534146 3.23110993,18.1719311 2.60806358,17.5497325 C2.14014305,17.0818119 1.78072583,16.5977854 1.52981192,16.0951099 C1.27889801,15.5932821 1.09664636,15.0431364 0.9856,14.4463682 C0.872010596,13.8487523 0.803348344,13.1951894 0.777070199,12.4848318 C0.750792053,11.7753219 0.738924503,10.9793483 0.738924503,10.0969113 C0.738924503,9.21362649 0.750792053,8.41765298 0.777070199,7.70814305 C0.803348344,6.99778543 0.872010596,6.34422252 0.9856,5.74660662 C1.09664636,5.14983841 1.27889801,4.6005404 1.52981192,4.0978649 C1.78072583,3.59603709 2.14014305,3.11116291 2.60806358,2.64409007 C3.23110993,2.02104371 3.94570596,1.53956026 4.75015629,1.20303046 C5.5554543,0.864805298 6.49468609,0.696116556 7.56785166,0.696116556 C8.64101722,0.696116556 9.57516291,0.864805298 10.3728318,1.20303046 C11.1679576,1.53956026 11.8783152,2.02104371 12.5013616,2.64409007 C12.9684344,3.11116291 13.3278517,3.59603709 13.5796132,4.0978649 C13.8305272,4.6005404 14.0170172,5.14983841 14.1373881,5.74660662 C14.2586066,6.34422252 14.332355,6.99778543 14.3586331,7.70814305 C14.3840636,8.41765298 14.3976265,9.21362649 14.3976265,10.0969113" id="Fill-10" fill="#FFFFFF" mask="url(#mask-4)"></path>
            </g>
            <g id="Group-15" transform="translate(34.754967, 93.023788)">
                <mask id="mask-6" fill="white">
                    <use xlink:href="#path-5"></use>
                </mask>
                <g id="Clip-14"></g>
                <path d="M10.351894,10.0969113 C10.351894,9.21362649 10.3340927,8.4829245 10.2993377,7.90226225 C10.2645828,7.32244768 10.2128742,6.84181192 10.1442119,6.46120265 C10.074702,6.08059338 9.98315232,5.77288477 9.87210596,5.5389245 C9.75851656,5.30581192 9.61610596,5.09389139 9.44317881,4.90316291 C9.1829404,4.60816954 8.85827815,4.37081854 8.46919205,4.18856689 C8.07925828,4.00631523 7.63337748,3.91646093 7.13154967,3.91646093 C6.62887417,3.91646093 6.18384106,4.00631523 5.79475497,4.18856689 C5.40482119,4.37081854 5.07168212,4.60816954 4.79449007,4.90316291 C4.62156291,5.09389139 4.47830464,5.30581192 4.36556291,5.5389245 C4.25366887,5.77288477 4.16211921,6.08059338 4.09345695,6.46120265 C4.02394702,6.84181192 3.97647682,7.32244768 3.95019868,7.90226225 C3.92476821,8.4829245 3.9112053,9.21362649 3.9112053,10.0969113 C3.9112053,10.9793483 3.92476821,11.710898 3.95019868,12.2907126 C3.97647682,12.8705272 4.02394702,13.3469245 4.09345695,13.719057 C4.16211921,14.0911894 4.25366887,14.3938119 4.36556291,14.6277722 C4.47830464,14.8617325 4.62156291,15.073653 4.79449007,15.2643815 C5.07168212,15.5585272 5.40482119,15.8009642 5.79475497,15.990845 C6.18384106,16.1824212 6.62887417,16.2765139 7.13154967,16.2765139 C7.63337748,16.2765139 8.07925828,16.1824212 8.46919205,15.990845 C8.85827815,15.8009642 9.1829404,15.5585272 9.44317881,15.2643815 C9.61610596,15.073653 9.75851656,14.8617325 9.87210596,14.6277722 C9.98315232,14.3938119 10.074702,14.0911894 10.1442119,13.719057 C10.2128742,13.3469245 10.2645828,12.8705272 10.2993377,12.2907126 C10.3340927,11.710898 10.351894,10.9793483 10.351894,10.0969113 M13.9613245,10.0969113 C13.9613245,10.9793483 13.9486093,11.7753219 13.9223311,12.4848318 C13.8969007,13.1951894 13.8231523,13.8487523 13.7019338,14.4463682 C13.5807152,15.0431364 13.3942252,15.5932821 13.1433113,16.0951099 C12.8923974,16.5977854 12.5329801,17.0818119 12.0650596,17.5497325 C11.4420132,18.1719311 10.7325033,18.6534146 9.9365298,18.9907921 C9.13970861,19.3281695 8.20556291,19.4968583 7.13154967,19.4968583 C6.05838411,19.4968583 5.11915232,19.3281695 4.31470199,18.9907921 C3.50940397,18.6534146 2.79480795,18.1719311 2.17260927,17.5497325 C1.70468874,17.0818119 1.34527152,16.5977854 1.09435762,16.0951099 C0.842596026,15.5932821 0.661192053,15.0431364 0.549298013,14.4463682 C0.436556291,13.8487523 0.367046358,13.1951894 0.340768212,12.4848318 C0.315337748,11.7753219 0.302622517,10.9793483 0.302622517,10.0969113 C0.302622517,9.21362649 0.315337748,8.41765298 0.340768212,7.70814305 C0.367046358,6.99778543 0.436556291,6.34422252 0.549298013,5.74660662 C0.661192053,5.14983841 0.842596026,4.6005404 1.09435762,4.0978649 C1.34527152,3.59603709 1.70468874,3.11116291 2.17260927,2.64409007 C2.79480795,2.02104371 3.50940397,1.53956026 4.31470199,1.20303046 C5.11915232,0.864805298 6.05838411,0.696116556 7.13154967,0.696116556 C8.20556291,0.696116556 9.13970861,0.864805298 9.9365298,1.20303046 C10.7325033,1.53956026 11.4420132,2.02104371 12.0650596,2.64409007 C12.5329801,3.11116291 12.8923974,3.59603709 13.1433113,4.0978649 C13.3942252,4.6005404 13.5807152,5.14983841 13.7019338,5.74660662 C13.8231523,6.34422252 13.8969007,6.99778543 13.9223311,7.70814305 C13.9486093,8.41765298 13.9613245,9.21362649 13.9613245,10.0969113" id="Fill-13" fill="#FFFFFF" mask="url(#mask-6)"></path>
            </g>
            <g id="Group-18" transform="translate(53.403974, 93.023788)">
                <mask id="mask-8" fill="white">
                    <use xlink:href="#path-7"></use>
                </mask>
                <g id="Clip-17"></g>
                <path d="M10.7632742,10.0969113 C10.7632742,9.21362649 10.7454728,8.4829245 10.7107179,7.90226225 C10.6759629,7.32244768 10.6242543,6.84181192 10.5555921,6.46120265 C10.4860821,6.08059338 10.3945325,5.77288477 10.2834861,5.5389245 C10.1698967,5.30581192 10.0274861,5.09389139 9.85455894,4.90316291 C9.59432053,4.60816954 9.26965828,4.37081854 8.88057219,4.18856689 C8.49063841,4.00631523 8.04475762,3.91646093 7.5429298,3.91646093 C7.0402543,3.91646093 6.59522119,4.00631523 6.2061351,4.18856689 C5.81620132,4.37081854 5.48306225,4.60816954 5.2058702,4.90316291 C5.03294305,5.09389139 4.88968477,5.30581192 4.77694305,5.5389245 C4.66504901,5.77288477 4.57349934,6.08059338 4.50483709,6.46120265 C4.43532715,6.84181192 4.38785695,7.32244768 4.36157881,7.90226225 C4.33614834,8.4829245 4.32258543,9.21362649 4.32258543,10.0969113 C4.32258543,10.9793483 4.33614834,11.710898 4.36157881,12.2907126 C4.38785695,12.8705272 4.43532715,13.3469245 4.50483709,13.719057 C4.57349934,14.0911894 4.66504901,14.3938119 4.77694305,14.6277722 C4.88968477,14.8617325 5.03294305,15.073653 5.2058702,15.2643815 C5.48306225,15.5585272 5.81620132,15.8009642 6.2061351,15.990845 C6.59522119,16.1824212 7.0402543,16.2765139 7.5429298,16.2765139 C8.04475762,16.2765139 8.49063841,16.1824212 8.88057219,15.990845 C9.26965828,15.8009642 9.59432053,15.5585272 9.85455894,15.2643815 C10.0274861,15.073653 10.1698967,14.8617325 10.2834861,14.6277722 C10.3945325,14.3938119 10.4860821,14.0911894 10.5555921,13.719057 C10.6242543,13.3469245 10.6759629,12.8705272 10.7107179,12.2907126 C10.7454728,11.710898 10.7632742,10.9793483 10.7632742,10.0969113 M14.3727046,10.0969113 C14.3727046,10.9793483 14.3599894,11.7753219 14.3337113,12.4848318 C14.3082808,13.1951894 14.2345325,13.8487523 14.1133139,14.4463682 C13.9920954,15.0431364 13.8056053,15.5932821 13.5546914,16.0951099 C13.3037775,16.5977854 12.9443603,17.0818119 12.4764397,17.5497325 C11.8533934,18.1719311 11.1438834,18.6534146 10.3479099,18.9907921 C9.55108874,19.3281695 8.61694305,19.4968583 7.5429298,19.4968583 C6.46976424,19.4968583 5.53053245,19.3281695 4.72608212,18.9907921 C3.92078411,18.6534146 3.20618808,18.1719311 2.5839894,17.5497325 C2.11606887,17.0818119 1.75665166,16.5977854 1.50573775,16.0951099 C1.25397616,15.5932821 1.07257219,15.0431364 0.960678146,14.4463682 C0.847936424,13.8487523 0.77842649,13.1951894 0.752148344,12.4848318 C0.726717881,11.7753219 0.714002649,10.9793483 0.714002649,10.0969113 C0.714002649,9.21362649 0.726717881,8.41765298 0.752148344,7.70814305 C0.77842649,6.99778543 0.847936424,6.34422252 0.960678146,5.74660662 C1.07257219,5.14983841 1.25397616,4.6005404 1.50573775,4.0978649 C1.75665166,3.59603709 2.11606887,3.11116291 2.5839894,2.64409007 C3.20618808,2.02104371 3.92078411,1.53956026 4.72608212,1.20303046 C5.53053245,0.864805298 6.46976424,0.696116556 7.5429298,0.696116556 C8.61694305,0.696116556 9.55108874,0.864805298 10.3479099,1.20303046 C11.1438834,1.53956026 11.8533934,2.02104371 12.4764397,2.64409007 C12.9443603,3.11116291 13.3037775,3.59603709 13.5546914,4.0978649 C13.8056053,4.6005404 13.9920954,5.14983841 14.1133139,5.74660662 C14.2345325,6.34422252 14.3082808,6.99778543 14.3337113,7.70814305 C14.3599894,8.41765298 14.3727046,9.21362649 14.3727046,10.0969113" id="Fill-16" fill="#FFFFFF" mask="url(#mask-8)"></path>
            </g>
            <g id="Group-21" transform="translate(72.900662, 93.023788)">
                <mask id="mask-10" fill="white">
                    <use xlink:href="#path-9"></use>
                </mask>
                <g id="Clip-20"></g>
                <path d="M10.327057,10.0969113 C10.327057,9.21362649 10.3092556,8.4829245 10.2745007,7.90226225 C10.2397457,7.32244768 10.1880371,6.84181192 10.1193748,6.46120265 C10.0498649,6.08059338 9.95831523,5.77288477 9.84726887,5.5389245 C9.73367947,5.30581192 9.59126887,5.09389139 9.41834172,4.90316291 C9.15810331,4.60816954 8.83344106,4.37081854 8.44435497,4.18856689 C8.05442119,4.00631523 7.6085404,3.91646093 7.10671258,3.91646093 C6.60403709,3.91646093 6.15900397,4.00631523 5.76991788,4.18856689 C5.37998411,4.37081854 5.04684503,4.60816954 4.76965298,4.90316291 C4.59672583,5.09389139 4.45346755,5.30581192 4.34072583,5.5389245 C4.22883179,5.77288477 4.13728212,6.08059338 4.06861987,6.46120265 C3.99910993,6.84181192 3.95163974,7.32244768 3.92536159,7.90226225 C3.89993113,8.4829245 3.88636821,9.21362649 3.88636821,10.0969113 C3.88636821,10.9793483 3.89993113,11.710898 3.92536159,12.2907126 C3.95163974,12.8705272 3.99910993,13.3469245 4.06861987,13.719057 C4.13728212,14.0911894 4.22883179,14.3938119 4.34072583,14.6277722 C4.45346755,14.8617325 4.59672583,15.073653 4.76965298,15.2643815 C5.04684503,15.5585272 5.37998411,15.8009642 5.76991788,15.990845 C6.15900397,16.1824212 6.60403709,16.2765139 7.10671258,16.2765139 C7.6085404,16.2765139 8.05442119,16.1824212 8.44435497,15.990845 C8.83344106,15.8009642 9.15810331,15.5585272 9.41834172,15.2643815 C9.59126887,15.073653 9.73367947,14.8617325 9.84726887,14.6277722 C9.95831523,14.3938119 10.0498649,14.0911894 10.1193748,13.719057 C10.1880371,13.3469245 10.2397457,12.8705272 10.2745007,12.2907126 C10.3092556,11.710898 10.327057,10.9793483 10.327057,10.0969113 M13.9364874,10.0969113 C13.9364874,10.9793483 13.9237722,11.7753219 13.897494,12.4848318 C13.8720636,13.1951894 13.7983152,13.8487523 13.6770967,14.4463682 C13.5558781,15.0431364 13.3693881,15.5932821 13.1184742,16.0951099 C12.8675603,16.5977854 12.508143,17.0818119 12.0402225,17.5497325 C11.4171762,18.1719311 10.7076662,18.6534146 9.91169272,18.9907921 C9.11487152,19.3281695 8.18072583,19.4968583 7.10671258,19.4968583 C6.03354702,19.4968583 5.09431523,19.3281695 4.2898649,18.9907921 C3.48456689,18.6534146 2.76997086,18.1719311 2.14777219,17.5497325 C1.67985166,17.0818119 1.32043444,16.5977854 1.06952053,16.0951099 C0.81775894,15.5932821 0.636354967,15.0431364 0.524460927,14.4463682 C0.411719205,13.8487523 0.342209272,13.1951894 0.315931126,12.4848318 C0.290500662,11.7753219 0.27778543,10.9793483 0.27778543,10.0969113 C0.27778543,9.21362649 0.290500662,8.41765298 0.315931126,7.70814305 C0.342209272,6.99778543 0.411719205,6.34422252 0.524460927,5.74660662 C0.636354967,5.14983841 0.81775894,4.6005404 1.06952053,4.0978649 C1.32043444,3.59603709 1.67985166,3.11116291 2.14777219,2.64409007 C2.76997086,2.02104371 3.48456689,1.53956026 4.2898649,1.20303046 C5.09431523,0.864805298 6.03354702,0.696116556 7.10671258,0.696116556 C8.18072583,0.696116556 9.11487152,0.864805298 9.91169272,1.20303046 C10.7076662,1.53956026 11.4171762,2.02104371 12.0402225,2.64409007 C12.508143,3.11116291 12.8675603,3.59603709 13.1184742,4.0978649 C13.3693881,4.6005404 13.5558781,5.14983841 13.6770967,5.74660662 C13.7983152,6.34422252 13.8720636,6.99778543 13.897494,7.70814305 C13.9237722,8.41765298 13.9364874,9.21362649 13.9364874,10.0969113" id="Fill-19" fill="#FFFFFF" mask="url(#mask-10)"></path>
            </g>
            <polygon id="Fill-22" fill="#FFFFFF" points="104.053913 112.364842 96.7307868 101.016922 96.7307868 112.364842 93.122204 112.364842 93.122204 93.8752 96.3417007 93.8752 103.664826 105.19769 103.664826 93.8752 107.274257 93.8752 107.274257 112.364842"></polygon>
            <g id="Group-26" transform="translate(112.741722, 93.023788)">
                <mask id="mask-12" fill="white">
                    <use xlink:href="#path-11"></use>
                </mask>
                <g id="Clip-25"></g>
                <path d="M14.6059868,11.7582834 C14.6059868,13.0916874 14.4805298,14.1911311 14.2296159,15.0566146 C13.9778543,15.922098 13.5150199,16.7011179 12.8402649,17.3928265 C12.0603974,18.207449 11.2423841,18.7618331 10.3853775,19.0551311 C9.52921854,19.3492768 8.6069404,19.4967735 7.62023841,19.4967735 C6.56402649,19.4967735 5.63750993,19.3280848 4.84153642,18.9907073 C4.04556291,18.6533298 3.32672848,18.1718464 2.68588079,17.5496477 C2.21880795,17.0817272 1.85939073,16.5977007 1.60847682,16.0950252 C1.35756291,15.5931974 1.17531126,15.0430517 1.06341722,14.4462834 C0.950675497,13.8486675 0.882013245,13.1951046 0.855735099,12.484747 C0.829456954,11.7760848 0.816741722,10.9792636 0.816741722,10.0968265 C0.816741722,9.21354172 0.829456954,8.41756821 0.855735099,7.70805828 C0.882013245,6.99770066 0.950675497,6.34413775 1.06341722,5.74652185 C1.17531126,5.14975364 1.35756291,4.60045563 1.60847682,4.09778013 C1.85939073,3.59595232 2.21880795,3.11107815 2.68588079,2.6440053 C3.32672848,2.02095894 4.04556291,1.5394755 4.84153642,1.2029457 C5.63750993,0.86472053 6.56402649,0.696031788 7.62023841,0.696031788 C8.69340397,0.696031788 9.63687417,0.861329801 10.4514967,1.18938278 C11.2644238,1.51828344 11.9569801,1.95568742 12.5283179,2.50074702 C13.0996556,3.0466543 13.5540132,3.67393907 13.8913907,4.38344901 C14.2296159,5.09380662 14.4584901,5.83807152 14.5797086,6.61709139 L10.9448477,6.61709139 C10.5286358,4.81661457 9.42071523,3.91637616 7.62023841,3.91637616 C7.1184106,3.91637616 6.67676821,4.00623046 6.29531126,4.18848212 C5.91470199,4.37073377 5.58580132,4.60808477 5.30860927,4.90307815 C5.13568212,5.09380662 4.99327152,5.30572715 4.8805298,5.53883974 C4.76863576,5.7728 4.67708609,6.08050861 4.60757616,6.46111788 C4.53891391,6.84172715 4.49059603,7.32236291 4.46516556,7.90217748 C4.4397351,8.48283974 4.42617219,9.21354172 4.42617219,10.0968265 C4.42617219,10.9792636 4.4397351,11.7108132 4.46516556,12.2906278 C4.49059603,12.8704424 4.53891391,13.3510781 4.60757616,13.7316874 C4.67708609,14.1122967 4.76863576,14.4250914 4.8805298,14.6675285 C4.99327152,14.9099656 5.13568212,15.1261245 5.30860927,15.3160053 C5.58580132,15.6109987 5.91470199,15.8441113 6.29531126,16.0170384 C6.67676821,16.1908132 7.1184106,16.2764291 7.62023841,16.2764291 C8.17377483,16.2764291 8.66712583,16.1865748 9.10029139,16.0043232 C9.53345695,15.8220715 9.8962649,15.5669192 10.1912583,15.2380185 C10.485404,14.8921642 10.6981722,14.5157934 10.8270199,14.1080583 C10.9567152,13.7020185 11.0219868,13.2561377 11.0219868,12.7712636 L11.0219868,12.0956609 L7.62023841,12.0956609 L7.62023841,9.05756821 L14.6059868,9.05756821 L14.6059868,11.7582834 Z" id="Fill-24" fill="#FFFFFF" mask="url(#mask-12)"></path>
            </g>
        </g>
    </g>
</svg>