<?xml version="1.0" encoding="UTF-8"?>
<svg width="132px" height="135px" viewBox="0 0 132 135" version="1.1" xmlns="http://www.w3.org/2000/svg" xmlns:xlink="http://www.w3.org/1999/xlink">
    <!-- Generator: Sketch 48.1 (47250) - http://www.bohemiancoding.com/sketch -->
    <title>sticker_sunday_black</title>
    <desc>Created with Sketch.</desc>
    <defs>
        <polygon id="path-1" points="0.224960135 0.758 60.8114567 0.758 60.8114567 54.2492 0.224960135 54.2492"></polygon>
    </defs>
    <g id="stickers-white" stroke="none" stroke-width="1" fill="none" fill-rule="evenodd" transform="translate(-550.000000, -460.000000)">
        <g id="sticker_sunday_black" transform="translate(550.000000, 459.000000)">
            <g id="Group-3" transform="translate(1.000000, 0.242000)">
                <mask id="mask-2" fill="white">
                    <use xlink:href="#path-1"></use>
                </mask>
                <g id="Clip-2"></g>
                <path d="M50.9956,27.8672 C49.5426,27.7762 48.0446,27.7762 46.5916,27.7762 C26.7926,27.7762 3.4066,40.5812 3.1346,48.2102 C3.0426,50.3452 6.8576,51.0262 8.2206,51.0262 C16.1216,51.0262 26.3386,47.7562 34.7836,43.3972 C43.9576,38.7202 51.0416,32.8622 51.1786,28.8662 C51.1786,28.5482 51.0866,28.1842 50.9956,27.8672 M60.5316,29.2292 C58.2156,28.6842 55.8086,28.3212 53.4026,28.0482 C53.9476,29.0482 54.1746,30.1372 54.1296,31.3182 C53.9476,36.6312 47.3176,42.3522 39.2806,46.5752 C30.3346,51.2982 19.6176,54.2492 13.4416,54.2492 C9.2196,54.2492 0.0466,51.4342 0.2276,46.1212 C0.5916,35.9952 25.6116,26.3232 43.9116,26.3232 C46.0466,26.3232 48.1806,26.4592 50.3136,26.6862 C48.3166,24.1892 43.0946,22.4182 38.1446,21.0102 C34.5116,19.9662 30.9256,19.0122 28.6536,18.1042 C27.4746,17.6492 26.7926,17.0592 26.3386,16.4692 C24.6126,14.2442 26.7926,11.0652 30.1976,8.4312 C35.5566,4.2542 44.9106,0.7572 52.5406,0.7572 C57.3076,0.7572 60.6226,3.8452 60.4416,8.4772 C60.3056,12.3822 48.4526,18.8302 45.6386,18.8302 C45.3186,18.8302 45.0936,18.5572 45.5916,18.2852 C50.4506,15.1982 57.8526,8.5682 57.9886,5.0712 C58.0336,4.0722 57.3526,3.3002 55.5366,3.3002 C43.9116,3.3002 27.2466,13.6082 30.8796,17.1502 C31.5156,17.7402 34.8756,18.5132 38.9166,19.6482 C44.0026,21.1012 50.0876,23.2802 52.7216,26.9592 C55.3546,27.3672 57.8976,27.9572 60.4416,28.7292 C60.8946,28.8662 60.9396,29.3202 60.5316,29.2292" id="Fill-1" fill="#000000" mask="url(#mask-2)"></path>
            </g>
            <path d="M82.9712,26.8372 C78.9282,31.7872 73.7972,39.4622 73.7072,40.4152 C73.7072,40.5512 73.7522,40.6422 73.8882,40.6422 C74.7972,40.6422 82.4262,34.4212 88.3742,28.5632 C88.6922,28.2452 89.0562,28.5632 88.8282,28.8812 C87.7832,30.1982 85.6052,32.6952 82.6072,35.8282 C79.6562,38.9622 74.2522,44.0022 72.9812,44.0022 C71.3462,44.0022 69.3472,41.0052 69.4382,39.2792 C69.4842,37.8262 73.1162,32.9682 75.3872,29.8352 C70.1192,35.5112 62.4002,42.5492 59.8572,43.9112 C59.7212,43.9572 59.6742,43.9572 59.6292,43.9572 C58.7672,43.9572 57.9942,43.3662 57.1772,42.4582 C56.1782,41.2322 55.4512,39.8702 55.4972,38.5982 C55.5882,36.9182 61.0372,29.9712 65.7592,23.6582 C66.5322,22.7052 67.3492,21.4792 67.5312,20.7522 C67.7122,20.1162 67.3032,19.8442 66.8502,19.7542 C66.9412,19.7082 67.7582,19.3902 68.7122,20.3892 C70.4822,22.1142 70.7092,24.0222 70.6182,24.6582 C70.6182,24.7482 70.5742,24.8392 70.5292,24.9302 C70.5292,24.9302 67.3492,28.5632 65.5342,30.6972 C62.0352,35.1022 59.4932,39.1432 59.4492,40.0512 C59.4492,40.2332 59.5382,40.5062 59.8112,40.5062 C61.2642,40.5062 76.4772,28.1092 79.9282,23.8402 C80.6552,22.9322 81.5622,21.5692 81.5172,20.3892 C81.5622,20.0262 81.4262,19.7992 81.2002,19.6632 C81.1552,19.6632 82.0172,19.4812 83.0612,20.4802 C84.6512,22.0692 85.1052,23.7042 85.0132,24.3392 C85.0132,24.4312 84.9682,24.5222 84.9232,24.6122 C84.9232,24.6122 84.0152,25.5202 82.9712,26.8372" id="Fill-4" fill="#000000"></path>
            <path d="M103.4976,32.786 C100.9086,36.283 98.8666,39.462 98.7746,40.415 C98.7746,40.551 98.8196,40.642 99.0026,40.642 C99.9556,40.642 107.4026,34.466 113.4876,28.563 C113.8056,28.245 114.0776,28.609 113.8956,28.926 C112.8976,30.198 110.4916,33.013 107.7206,35.828 C104.7686,38.826 99.5016,44.002 98.0486,44.002 C96.4136,44.002 94.1886,41.005 94.4156,39.28 C94.4156,39.143 94.4616,38.962 94.5066,38.826 C94.8696,37.917 96.6406,34.92 100.5006,29.653 C102.6356,26.701 106.2226,22.433 106.2226,22.297 C106.2226,22.205 106.1316,22.205 106.1316,22.205 C105.8136,22.205 100.9086,24.567 95.4606,29.835 C91.1456,33.967 83.5186,41.641 83.8806,43.049 C83.9266,43.14 83.9716,43.23 84.0626,43.23 C84.4716,43.367 83.9266,43.685 83.4266,43.594 C82.9726,43.503 81.0196,40.779 81.2926,39.416 C81.8376,36.873 88.1036,29.244 91.7816,23.75 C92.8716,21.978 93.5526,20.253 92.7816,19.844 C92.7346,19.844 93.1436,19.481 94.1886,20.435 C95.0516,21.207 96.3686,23.386 96.3226,24.022 C96.2776,24.931 91.3726,30.924 87.6946,36.011 C89.6476,33.603 92.2356,30.97 94.5516,28.699 C96.4136,26.837 104.7246,19.617 106.6316,19.617 C107.2216,19.617 107.6756,20.072 108.1296,20.571 C109.0826,21.616 110.3536,23.795 110.2646,24.34 C110.2646,24.431 110.2196,24.522 110.1726,24.612 C107.9476,27.246 106.4036,28.835 103.4976,32.786" id="Fill-6" fill="#000000"></path>
            <path d="M75.9722,41.9608 C62.4862,39.8268 41.8252,54.8568 41.9602,63.3938 C41.9602,64.4388 42.5512,65.0288 43.7322,65.0288 C48.6822,65.0288 60.5782,58.8988 68.1172,52.6778 C68.7982,51.9968 68.7522,52.6778 68.2072,53.3588 C60.1242,62.5318 51.8152,67.3448 46.8202,67.3448 C42.3252,67.3448 39.0542,62.8038 39.0542,59.8518 C39.0542,50.5888 58.0352,38.2368 72.7032,39.0098 C78.5612,39.3268 84.8272,44.3218 84.0562,50.9068 C83.7392,54.1308 76.7892,62.3048 70.4322,69.9338 C74.6562,70.5688 78.2882,71.8398 80.5132,73.2488 C80.5602,73.2938 80.5132,73.3848 80.4232,73.3848 C77.1542,72.6128 73.6572,71.8398 68.8882,71.6128 C61.1692,81.0588 54.1762,89.9138 54.1762,94.0458 C54.1762,94.1368 54.2222,94.3178 54.2672,94.3178 C56.3562,94.1368 63.8032,87.9158 66.7542,84.6908 C66.8912,84.5098 67.5262,84.2368 67.2542,84.7368 C64.8922,89.2778 58.5802,96.1348 56.3562,96.1348 C55.4932,96.1348 54.4932,95.8168 53.7672,95.2718 C52.0872,94.0918 50.9512,92.4108 50.9972,90.8218 C50.9972,87.1888 56.3112,80.1058 63.1672,71.6128 C46.6382,72.3398 33.1062,78.4248 33.0612,81.0588 C33.0612,81.9668 36.6482,83.2378 39.5082,83.2378 L39.5082,83.2838 C39.5542,83.5558 36.6932,84.5548 34.6502,84.5548 C33.1062,84.5548 31.1992,84.0558 31.1992,82.1038 C31.2892,77.5168 34.5592,74.3378 38.4182,72.6578 C44.9582,69.8428 55.9932,68.4808 65.0752,69.3428 C69.1162,64.3478 73.7022,58.5808 76.8812,54.1308 C79.5602,50.1798 80.8772,47.9098 80.8772,45.8208 C80.8772,42.8228 77.7432,42.2328 75.9722,41.9608" id="Fill-8" fill="#000000"></path>
            <path d="M100.5903,66.3001 C96.5483,71.2501 91.4173,78.9251 91.3263,79.8781 C91.3263,80.0141 91.3713,80.1051 91.5073,80.1051 C92.4163,80.1051 100.0453,73.8841 105.9933,68.0261 C106.3113,67.7081 106.6753,68.0261 106.4473,68.3441 C105.4033,69.6611 103.2243,72.1581 100.2263,75.2911 C97.2753,78.4251 91.8713,83.4651 90.6003,83.4651 C88.9653,83.4651 86.9663,80.4681 87.0573,78.7421 C87.1043,77.2891 90.7363,72.4311 93.0063,69.2981 C87.7383,74.9741 80.0193,82.0121 77.4763,83.3741 C77.3403,83.4201 77.2943,83.4201 77.2483,83.4201 C76.3863,83.4201 75.6143,82.8291 74.7973,81.9211 C73.7973,80.6951 73.0703,79.3331 73.1173,78.0611 C73.2073,76.3811 78.6573,69.4341 83.3793,63.1211 C84.1513,62.1681 84.9683,60.9421 85.1503,60.2161 C85.3323,59.5791 84.9233,59.3071 84.4703,59.2171 C84.5603,59.1711 85.3773,58.8531 86.3313,59.8521 C88.1023,61.5771 88.3283,63.4851 88.2383,64.1211 C88.2383,64.2111 88.1933,64.3021 88.1483,64.3931 C88.1483,64.3931 84.9683,68.0261 83.1533,70.1601 C79.6553,74.5651 77.1123,78.6061 77.0683,79.5141 C77.0683,79.6961 77.1583,79.9691 77.4313,79.9691 C78.8833,79.9691 94.0963,67.5721 97.5473,63.3031 C98.2743,62.3951 99.1823,61.0321 99.1363,59.8521 C99.1823,59.4891 99.0463,59.2621 98.8193,59.1261 C98.7743,59.1261 99.6363,58.9441 100.6803,59.9431 C102.2703,61.5321 102.7243,63.1671 102.6323,63.8021 C102.6323,63.8941 102.5873,63.9851 102.5423,64.0751 C102.5423,64.0751 101.6343,64.9831 100.5903,66.3001" id="Fill-10" fill="#000000"></path>
            <path d="M121.1167,72.2489 C118.5277,75.7459 116.4857,78.9249 116.3937,79.8779 C116.3937,80.0139 116.4387,80.1049 116.6217,80.1049 C117.5757,80.1049 125.0217,73.9299 131.1067,68.0259 C131.4257,67.7079 131.6977,68.0719 131.5147,68.3899 C130.5167,69.6609 128.1107,72.4769 125.3407,75.2909 C122.3877,78.2889 117.1207,83.4649 115.6687,83.4649 C114.0327,83.4649 111.8077,80.4679 112.0357,78.7429 C112.0357,78.6059 112.0807,78.4249 112.1257,78.2889 C112.4887,77.3799 114.2607,74.3829 118.1207,69.1159 C120.2547,66.1639 123.8417,61.8959 123.8417,61.7599 C123.8417,61.6689 123.7507,61.6689 123.7507,61.6689 C123.4327,61.6689 118.5277,64.0299 113.0797,69.2979 C108.7647,73.4299 101.1367,81.1039 101.5007,82.5119 C101.5457,82.6029 101.5907,82.6929 101.6817,82.6929 C102.0907,82.8299 101.5457,83.1479 101.0457,83.0569 C100.5917,82.9659 98.6387,80.2419 98.9117,78.8789 C99.4567,76.3359 105.7227,68.7069 109.4017,63.2129 C110.4917,61.4409 111.1717,59.7159 110.4007,59.3069 C110.3537,59.3069 110.7627,58.9439 111.8077,59.8979 C112.6707,60.6699 113.9877,62.8499 113.9417,63.4849 C113.8967,64.3939 108.9927,70.3869 105.3137,75.4739 C107.2667,73.0659 109.8557,70.4329 112.1717,68.1619 C114.0327,66.2999 122.3437,59.0799 124.2507,59.0799 C124.8407,59.0799 125.2947,59.5349 125.7497,60.0339 C126.7017,61.0789 127.9737,63.2579 127.8837,63.8029 C127.8837,63.8939 127.8387,63.9849 127.7917,64.0749 C125.5667,66.7089 124.0227,68.2979 121.1167,72.2489" id="Fill-12" fill="#000000"></path>
            <path d="M54.9917,100.7318 C52.1757,100.6418 49.0877,100.6418 45.5007,100.6418 C42.0497,100.6418 38.1437,101.1868 34.3757,101.8678 C29.1527,107.9528 24.1577,114.4008 20.7067,120.1678 C33.9217,117.0798 47.6357,109.8588 54.9917,100.7318 M28.0627,103.1388 C13.8497,106.3178 0.8177,114.3098 2.9057,118.8968 C3.7237,120.8488 6.8107,121.6208 8.3547,121.6208 C10.6267,121.6668 13.1687,121.6208 15.8027,121.2118 C17.7557,117.5798 19.8447,114.6278 22.6137,110.6768 C24.1577,108.4518 25.9737,105.9548 28.0627,103.1388 M45.8637,79.3438 C45.9537,78.6178 45.8637,78.2538 45.5467,78.0728 C45.5007,78.0268 45.6807,77.9368 45.8187,77.9818 C46.0917,78.0268 46.4537,78.2088 47.2257,78.9358 C48.3607,80.1158 49.4967,82.4318 49.3147,83.2038 C49.1797,83.8388 46.4537,87.1998 42.6397,91.8768 C40.5057,94.4658 38.1437,97.4168 36.6447,99.1888 C39.4617,98.9608 42.5037,98.8698 45.0917,98.8698 C47.2707,98.8698 51.6307,99.0518 55.9897,99.4608 C58.5327,95.9638 60.1227,92.2408 60.4847,88.3808 C61.3027,78.7988 50.2687,75.3928 43.5477,74.9848 C29.7437,74.2118 16.0747,82.7948 15.8937,87.6998 C15.8467,88.5628 16.5737,89.7878 21.2977,90.9238 C21.6597,91.0148 21.7067,91.3778 21.1617,91.3328 C18.0727,91.1958 16.4387,90.6508 15.0297,90.0158 C14.0317,89.5158 12.1237,88.0628 12.1697,85.8368 C12.3957,79.2078 26.4287,70.9428 42.5487,72.1698 C52.4027,72.8958 63.3457,79.2078 62.9377,92.1048 C62.8457,94.7828 61.9837,97.4168 60.6677,100.0058 C63.2557,100.3688 65.5257,100.8228 66.8427,101.3678 C67.6147,101.6858 67.7067,101.9128 66.5247,101.7318 C64.3457,101.3678 62.3017,101.1408 60.1227,100.9598 C52.9927,112.9478 33.8297,123.2098 17.9817,124.8898 C16.9377,127.2968 16.4387,129.1128 16.8917,129.9758 C16.9377,130.4758 13.5327,128.0688 13.8047,125.2078 L13.5777,125.2078 C9.4897,125.1628 0.6807,122.3468 0.0457,116.7618 C-0.9083,109.4058 13.2137,102.3668 30.6057,99.9148 C31.1047,99.2788 36.9177,92.0588 39.4617,88.8798 C42.9577,84.5208 45.6807,81.2968 45.8637,79.3438" id="Fill-14" fill="#000000"></path>
            <path d="M81.7886,96.2821 C81.7436,96.2821 82.0606,96.0091 82.6516,96.5091 C82.7876,96.6001 82.9246,96.6911 83.3326,97.1451 C84.5146,95.5551 84.8766,94.2391 84.7396,93.3761 C84.6036,92.6041 84.0596,92.3771 83.3776,92.3771 C83.0156,92.3771 82.6056,92.4221 82.2876,92.5131 C79.1096,93.2391 75.2036,96.0551 71.5716,99.4151 C66.4846,104.2291 62.2176,109.6331 62.1716,111.1761 C62.1716,111.3121 62.2176,111.4941 62.5346,111.4941 C64.1706,111.4941 81.4716,100.1421 81.9706,96.6001 C81.9706,96.5091 81.9256,96.3721 81.7886,96.2821 M83.8326,97.7811 C84.4676,98.7341 85.1486,100.0061 85.0596,100.4141 C85.0596,100.5051 85.0126,100.5511 84.9676,100.6411 L83.8776,101.9121 C79.8816,106.4081 77.4756,110.3591 77.3846,111.1761 C77.3846,111.3121 77.3846,111.4031 77.6106,111.4031 C78.6096,111.4031 86.3296,105.0911 92.2786,99.2791 C92.5966,98.9611 92.8686,99.3241 92.6876,99.6421 C90.5076,102.6391 79.8366,113.8561 77.0656,114.6731 C76.9756,114.7181 76.9306,114.7181 76.8856,114.7181 C75.1586,114.7181 72.8426,111.8571 73.0246,110.1321 C73.0246,109.9951 73.0696,109.8141 73.1146,109.6781 C73.4346,108.9061 75.1136,106.5441 78.5646,102.1401 L75.5226,104.9101 C70.5276,109.5871 64.2156,114.6731 62.5346,114.6731 C61.3096,114.6731 58.5386,111.7671 58.6306,109.5871 C58.7206,106.6801 63.1256,101.0951 68.2116,96.7811 C72.5696,93.1031 77.4756,90.1971 80.5626,90.1971 C84.0596,90.1971 86.7386,92.5581 86.6476,95.2831 C86.6476,95.9641 85.1936,97.0991 83.8326,97.7811" id="Fill-16" fill="#000000"></path>
            <path d="M95.7778,101.3226 C92.2818,105.7266 89.0128,110.2226 88.9658,111.1306 C88.9658,111.3126 89.0578,111.5846 89.3308,111.5846 C91.0998,111.5846 105.2238,100.1866 109.9918,94.6466 C110.8088,93.6936 111.6718,92.4216 111.6268,91.0146 C111.6268,90.6966 111.5358,90.4696 111.3538,90.3326 C111.3078,90.3326 111.6718,89.9696 112.7608,90.9236 C113.6248,91.6956 115.1688,94.0106 115.1228,94.6466 C115.1228,94.7386 115.0318,94.8286 114.9868,94.9196 C114.9868,94.9196 112.1258,98.5976 110.3088,101.0046 C107.1308,105.1826 102.8168,111.2666 99.2288,117.0796 C104.1788,111.0856 113.8048,102.0946 116.2578,100.0056 C116.5758,99.7336 116.8478,100.2786 116.7118,100.4146 C115.1688,101.8676 106.0868,111.5396 100.0468,118.8046 C97.3678,122.0746 93.5078,126.8876 91.7818,130.7026 C91.0998,132.2006 90.7828,133.5176 90.7378,134.3356 C90.7378,134.6986 90.8288,134.9706 90.9198,135.1526 C90.9198,135.7886 86.2878,132.9276 87.6038,129.7486 C89.6928,124.5266 97.2768,112.8116 101.0908,106.9526 C102.0458,105.4546 103.9068,102.6846 105.4958,100.5506 C100.2278,106.2266 92.8718,113.2646 90.3298,114.6276 C90.1928,114.6736 90.1478,114.6736 90.1018,114.6736 C89.2388,114.6736 88.4658,114.0826 87.6498,113.1746 C86.6048,111.9476 85.8328,109.9956 85.8798,108.7246 C85.9238,107.0436 91.1468,100.6416 96.0498,94.3746 C96.8228,93.4666 97.6398,92.1956 97.8218,91.4686 C98.0038,90.8326 97.5938,90.5596 97.1398,90.4696 C97.0948,90.4696 98.0488,90.1066 99.0028,91.1046 C100.7728,92.8306 100.8638,94.6466 100.7728,95.2826 C100.7728,95.3736 100.7278,95.4646 100.6828,95.5556 C100.6828,95.5556 97.5938,99.1886 95.7778,101.3226" id="Fill-18" fill="#000000"></path>
        </g>
    </g>
</svg>