<?xml version="1.0" encoding="UTF-8"?>
<svg width="113px" height="150px" viewBox="0 0 113 150" version="1.1" xmlns="http://www.w3.org/2000/svg" xmlns:xlink="http://www.w3.org/1999/xlink">
    <!-- Generator: Sketch 42 (36781) - http://www.bohemiancoding.com/sketch -->
    <title>sticker_bloodymonday_black</title>
    <desc>Created with Sketch.</desc>
    <defs>
        <polygon id="path-1" points="0 0.41712102 0 150 81.4889373 150 81.4889373 0.41712102 2.71050543e-20 0.41712102"></polygon>
        <polygon id="path-3" points="2.631 0.7446 2.631 3.7126 0.7694 3.7126 0.7694 0.7446 2.631 0.7446"></polygon>
    </defs>
    <g id="Page-1" stroke="none" stroke-width="1" fill="none" fill-rule="evenodd">
        <g id="stickers-white" transform="translate(-338.000000, -17.000000)">
            <g id="sticker_bloodymonday_black" transform="translate(338.000000, 16.000000)">
                <path d="M59.6235,114.965 C60.2655,114.965 60.9015,114.706 61.0195,113.957 C61.1285,113.27 60.7005,112.981 60.0595,112.981 L59.7535,112.981 L59.4395,114.965 L59.6235,114.965 Z M58.9815,119.518 C59.6685,119.518 60.3325,119.182 60.4555,118.403 C60.5785,117.623 60.0335,117.303 59.3155,117.303 L59.0715,117.303 L58.7215,119.518 L58.9815,119.518 Z M57.0305,110.49 L60.6965,110.49 C62.5295,110.49 64.5425,111.285 64.1495,113.774 C63.9445,115.072 62.9455,116.08 61.6315,116.08 L61.6265,116.111 C63.1345,116.234 63.7945,117.18 63.5515,118.723 C63.3275,120.144 62.1775,122.007 59.3975,122.007 L55.2125,122.007 L57.0305,110.49 Z" id="Fill-1" fill="#000000"></path>
                <polygon id="Fill-3" fill="#000000" points="63.7617 122.007 65.5797 110.49 68.6957 110.49 67.3067 119.288 69.6437 119.288 69.2147 122.007"></polygon>
                <path d="M74.1899,119.3029 C75.3659,119.3029 75.7809,116.9669 75.8939,116.2479 C76.0069,115.5319 76.3309,113.1939 75.1539,113.1939 C73.9789,113.1939 73.5639,115.5319 73.4499,116.2479 C73.3369,116.9669 73.0139,119.3029 74.1899,119.3029 M75.6119,110.2909 C78.7739,110.2909 79.5149,113.4379 79.0709,116.2479 C78.6269,119.0589 76.8939,122.2049 73.7319,122.2049 C70.5699,122.2049 69.8299,119.0589 70.2729,116.2479 C70.7169,113.4379 72.4509,110.2909 75.6119,110.2909" id="Fill-5" fill="#000000"></path>
                <path d="M83.3647,119.3029 C84.5407,119.3029 84.9557,116.9669 85.0687,116.2479 C85.1817,115.5319 85.5057,113.1939 84.3287,113.1939 C83.1537,113.1939 82.7387,115.5319 82.6247,116.2479 C82.5117,116.9669 82.1887,119.3029 83.3647,119.3029 M84.7867,110.2909 C87.9487,110.2909 88.6897,113.4379 88.2457,116.2479 C87.8017,119.0589 86.0687,122.2049 82.9067,122.2049 C79.7447,122.2049 79.0047,119.0589 79.4477,116.2479 C79.8917,113.4379 81.6257,110.2909 84.7867,110.2909" id="Fill-7" fill="#000000"></path>
                <path d="M91.6201,119.2267 C93.0431,119.2117 93.5671,117.4397 93.7381,116.3557 C93.9361,115.1037 93.9661,113.3617 92.5461,113.3617 L91.6201,119.2267 Z M89.8831,110.4907 L92.3881,110.4907 C95.9321,110.4907 97.4891,112.7207 96.9391,116.2037 C96.1001,121.5177 92.6781,122.0067 90.7841,122.0067 L88.0651,122.0067 L89.8831,110.4907 Z" id="Fill-9" fill="#000000"></path>
                <polygon id="Fill-11" fill="#000000" points="98.7988 122.007 99.5698 117.119 97.7758 110.49 101.0138 110.49 101.5208 114.049 101.5518 114.049 103.1978 110.49 106.4208 110.49 102.6858 117.119 101.9148 122.007"></polygon>
                <path d="M60.9409,134.007 L61.7939,126.768 L61.7629,126.768 C61.4929,127.608 61.2529,128.447 60.9679,129.287 L59.3369,134.007 L56.8019,134.007 L56.8599,126.768 L56.8299,126.768 C56.6789,127.622 56.5619,128.463 56.3809,129.319 L55.3809,134.007 L52.0359,134.007 L55.1979,122.49 L59.0779,122.49 L58.9969,128.615 L59.0269,128.615 C59.2329,127.898 59.4199,127.195 59.6699,126.477 L61.0479,122.49 L64.8819,122.49 L64.1789,134.007 L60.9409,134.007 Z" id="Fill-13" fill="#000000"></path>
                <path d="M69.0293,131.3029 C70.2053,131.3029 70.6203,128.9669 70.7333,128.2479 C70.8463,127.5319 71.1703,125.1939 69.9933,125.1939 C68.8183,125.1939 68.4033,127.5319 68.2893,128.2479 C68.1763,128.9669 67.8533,131.3029 69.0293,131.3029 M70.4513,122.2909 C73.6133,122.2909 74.3543,125.4379 73.9103,128.2479 C73.4663,131.0589 71.7333,134.2049 68.5713,134.2049 C65.4093,134.2049 64.6693,131.0589 65.1123,128.2479 C65.5563,125.4379 67.2903,122.2909 70.4513,122.2909" id="Fill-15" fill="#000000"></path>
                <path d="M75.5478,122.4904 L78.5108,122.4904 L79.9058,129.4254 L79.9418,129.3944 C80.0288,128.0654 80.0068,126.7524 80.2168,125.4234 L80.6798,122.4904 L83.6728,122.4904 L81.8558,134.0074 L78.8618,134.0074 L77.5888,127.3634 L77.5538,127.3924 C77.4588,128.4774 77.4278,129.5474 77.2558,130.6314 L76.7238,134.0074 L73.7298,134.0074 L75.5478,122.4904 Z" id="Fill-17" fill="#000000"></path>
                <path d="M86.4751,131.2267 C87.8981,131.2117 88.4221,129.4397 88.5931,128.3557 C88.7911,127.1037 88.8211,125.3617 87.4011,125.3617 L86.4751,131.2267 Z M84.7381,122.4907 L87.2431,122.4907 C90.7871,122.4907 92.3441,124.7207 91.7941,128.2037 C90.9551,133.5177 87.5331,134.0067 85.6391,134.0067 L82.9201,134.0067 L84.7381,122.4907 Z" id="Fill-19" fill="#000000"></path>
                <path d="M96.6255,130.0822 L96.7115,127.4082 C96.7325,126.6902 96.7875,125.9572 96.8245,125.2402 L96.7935,125.2402 C96.5885,125.9572 96.3965,126.6902 96.1615,127.4082 L95.3125,130.0822 L96.6255,130.0822 Z M96.6015,134.0072 L96.6065,132.5252 L94.5135,132.5252 L94.0205,134.0072 L90.8125,134.0072 L95.3955,122.4902 L99.1985,122.4902 L99.8245,134.0072 L96.6015,134.0072 Z" id="Fill-21" fill="#000000"></path>
                <polygon id="Fill-23" fill="#000000" points="101.2881 134.007 102.0591 129.119 100.2651 122.49 103.5031 122.49 104.0101 126.049 104.0411 126.049 105.6871 122.49 108.9101 122.49 105.1751 129.119 104.4041 134.007"></polygon>
                <g id="Group-27" transform="translate(0.000000, 0.583000)">
                    <mask id="mask-2" fill="white">
                        <use xlink:href="#path-1"></use>
                    </mask>
                    <g id="Clip-26"></g>
                    <path d="M57.7895,69.3044 C56.1285,67.8684 54.3655,66.5964 52.8425,65.1384 C53.0485,64.1274 52.7555,62.6214 53.6235,62.2754 C54.6405,62.9224 55.3345,63.9894 56.0975,64.8774 C57.6245,66.6574 59.3225,68.2434 61.0435,69.9534 C61.8405,70.7464 62.8665,71.5634 63.2555,72.6874 C61.0135,72.3774 59.3705,70.6694 57.7895,69.3044 M45.2945,75.6814 C45.4395,73.5984 47.3685,72.2124 48.4195,70.6054 C51.2905,71.2484 53.2675,72.7834 56.0975,73.4684 C53.8445,75.4714 48.6615,75.2244 45.2945,75.6814 M43.6835,37.3844 L42.4825,38.2994 C42.4165,38.3264 42.2705,38.3594 42.0185,38.3104 C41.4925,38.2064 40.4155,37.7114 39.1345,35.5694 C39.0985,35.5064 39.1145,35.4274 39.1735,35.3864 C39.2365,35.3464 39.3155,35.3624 39.3575,35.4194 C39.3685,35.4294 40.3895,36.7674 43.6175,37.1444 C43.6865,37.1564 43.7195,37.1904 43.7325,37.2424 C43.7455,37.2954 43.7275,37.3514 43.6835,37.3844 M36.5195,26.8334 C36.5195,26.8334 38.3365,22.7864 41.9715,25.7064 C41.9715,25.7064 42.6995,28.5134 40.3985,29.6734 C40.3985,29.6734 37.2955,29.0604 36.5195,26.8334 M49.0295,28.2834 C49.0295,28.2834 49.9285,28.7244 50.1095,29.8134 C50.1095,29.8134 50.5045,31.1414 48.7985,32.4494 C48.7985,32.4494 46.5575,32.1384 46.3045,31.7584 L46.0235,31.1764 C46.0235,31.1764 47.1365,27.8764 49.0295,28.2834 M81.4775,81.9294 C81.2845,78.5134 77.4835,76.0094 74.8395,75.1604 C72.7545,74.4914 70.1545,74.7624 68.3315,73.5984 C66.0135,72.1184 64.5275,69.0214 62.6045,66.4394 C61.7745,65.3234 60.9065,64.1194 59.8715,62.6654 C59.1015,61.5814 57.3875,59.7124 57.3995,58.6314 C57.4115,57.6134 58.4995,57.3074 58.9325,55.8984 C59.6595,53.3704 58.2545,52.2134 54.6645,48.8694 C55.5925,47.9144 57.5165,46.7664 56.6185,44.8344 C55.8805,44.3594 55.5035,46.4784 54.9265,45.7454 C55.4285,44.9344 56.2505,42.1384 54.7965,41.7094 C54.2555,41.7864 54.3955,42.8974 53.4945,42.7524 C53.1155,42.6894 50.9285,39.1674 50.7605,38.8474 C49.8095,37.0224 50.4585,35.6474 50.7605,33.9004 C52.2095,30.8384 54.7855,28.6064 55.1865,24.7894 C55.2535,24.1484 55.2545,23.5334 55.2145,22.9374 C61.2215,18.8644 62.4815,13.6904 62.5415,13.4254 C62.5515,13.3854 62.5565,13.3444 62.5585,13.3034 C62.5955,12.4324 62.2805,11.9084 61.6215,11.7464 C60.6695,11.5124 59.7625,12.2934 59.2855,12.8074 C56.8175,15.0084 54.8145,16.4134 53.2455,17.3234 C51.8995,15.2364 50.0965,13.4774 48.5475,11.9044 C47.6895,11.3794 47.1585,10.5694 46.5675,9.8524 C48.0545,4.6924 47.4595,2.3474 47.2835,1.8354 C47.0575,0.9234 46.6335,0.4454 46.0275,0.4184 C45.1145,0.3754 44.4795,1.4284 44.2785,1.8064 C43.7635,2.9064 42.6175,5.6264 42.5995,5.6774 C42.0405,6.8094 41.5505,7.6934 41.1265,8.3904 C39.6095,8.5784 38.1415,8.9584 37.2255,9.3014 C35.0345,10.1214 32.8345,12.0804 31.2375,13.8564 C27.9095,17.5614 25.6845,22.6494 23.8175,27.5224 C22.1545,31.8724 20.6715,36.3174 17.7015,38.9764 C17.8055,39.3514 18.5745,39.0584 18.4825,39.6274 C15.7795,43.8344 22.1615,45.6184 21.3455,49.5194 C20.1995,50.1544 19.4595,48.8044 18.4825,49.2594 C18.3265,50.9784 20.2075,50.6574 21.7355,50.6904 C22.4225,53.0884 25.7315,55.4314 23.9495,58.2404 C22.2105,58.9394 21.6275,57.4694 20.9565,56.6784 C18.9235,58.7794 21.7245,60.8654 22.9085,62.2754 C23.4065,62.8694 24.1565,64.0534 24.6005,64.2274 C27.1135,65.2074 28.3435,62.9544 29.8075,61.4944 C30.6355,61.4894 30.9985,61.9504 31.8885,61.8844 C32.4035,61.6504 32.3785,60.4784 33.1895,60.4514 C33.7375,60.4354 35.0555,62.1014 35.6635,62.7974 C36.2755,63.4974 37.3055,64.8434 37.4865,65.7884 C37.9715,68.3444 37.0775,69.7994 35.9225,71.1264 C33.2735,73.3314 29.6025,74.2394 26.9415,76.2014 C22.8495,79.2224 19.0745,86.2004 21.8675,92.3424 C23.4245,94.1034 24.4725,95.6464 26.2905,96.6364 C28.3145,97.7374 32.9165,98.7084 35.9225,98.4574 C40.0885,98.1124 44.2175,97.2014 47.7685,95.9864 C52.1825,94.4754 55.7225,91.8504 59.3525,90.3884 C60.7955,89.8064 62.8155,89.1304 64.2985,89.7374 C63.3715,93.6514 59.6585,96.3334 56.2275,98.5894 C51.4155,101.7534 46.9355,105.0344 40.4795,106.0084 C33.0895,105.8714 30.8515,100.6374 24.6005,99.6304 C19.6685,98.8344 16.2755,101.1204 13.6655,102.8834 C9.5395,105.6744 6.2705,110.0094 -0.0005,109.9114 C3.4055,116.6294 11.1305,121.3154 21.4755,119.4134 C23.9095,118.5684 27.1145,117.1014 29.5455,117.3324 C27.7825,121.4114 25.0905,125.2714 24.3385,130.2174 C23.0635,138.6054 27.3135,144.5294 31.3695,148.0484 C32.3225,148.8764 33.3555,149.7734 34.4925,150.0004 C32.9265,144.4084 37.0935,141.7514 39.5685,138.6774 C41.0505,136.8324 42.5025,134.4344 43.4725,132.1684 C45.9835,126.3044 44.1225,119.7134 43.4725,112.3854 C51.4105,105.8224 64.3165,101.4924 73.0185,95.0744 C76.0555,92.8354 79.1865,90.0864 80.5675,86.8734 C81.1135,85.6044 81.5675,83.5044 81.4775,81.9294" id="Fill-25" fill="#000000" mask="url(#mask-2)"></path>
                </g>
                <path d="M49.7881,139.0963 C49.7881,138.8173 49.5631,138.5963 49.2791,138.5963 L48.6801,138.5963 C48.6431,138.5963 48.6311,138.6123 48.6311,138.6413 L48.6311,139.6043 C48.6311,139.6393 48.6431,139.6533 48.6801,139.6533 L49.2791,139.6533 C49.5671,139.6533 49.7881,139.4333 49.7881,139.1433 L49.7881,139.0963 Z M50.1101,141.2583 C50.1101,141.2803 50.0891,141.2953 50.0621,141.2953 L49.8081,141.2953 C49.7811,141.2873 49.7671,141.2773 49.7651,141.2623 L49.3101,139.9513 C49.3061,139.9453 49.2981,139.9323 49.2751,139.9233 L48.6801,139.9233 C48.6431,139.9233 48.6311,139.9353 48.6311,139.9713 L48.6311,141.2483 C48.6311,141.2803 48.6171,141.2953 48.5851,141.2953 L48.3641,141.2953 C48.3301,141.2953 48.3141,141.2803 48.3141,141.2483 L48.3141,138.3733 C48.3141,138.3413 48.3301,138.3273 48.3641,138.3273 L49.2791,138.3273 C49.7811,138.3273 50.1041,138.6473 50.1041,139.1433 L50.1041,139.1943 C50.1041,139.3613 50.0051,139.5573 49.8201,139.7153 C49.7171,139.8003 49.6281,139.8073 49.6281,139.8563 C49.6281,139.8573 49.6351,139.8673 49.6351,139.8703 L50.1041,141.2343 C50.1101,141.2453 50.1101,141.2483 50.1101,141.2583 L50.1101,141.2583 Z" id="Fill-28" fill="#000000"></path>
                <path d="M52.4834,141.3424 L52.3384,141.3424 C51.8384,141.3424 51.5164,141.0284 51.5164,140.5704 L51.5164,138.3734 C51.5164,138.3414 51.5304,138.3274 51.5624,138.3274 L51.7904,138.3274 C51.8244,138.3274 51.8384,138.3414 51.8384,138.3734 L51.8384,140.5704 C51.8384,140.8544 52.0604,141.0724 52.3384,141.0724 L52.4834,141.0724 C52.7574,141.0724 52.9894,140.8464 52.9894,140.5704 L52.9894,138.3734 C52.9894,138.3414 53.0024,138.3274 53.0364,138.3274 L53.2624,138.3274 C53.2944,138.3274 53.3104,138.3414 53.3104,138.3734 L53.3104,140.5704 C53.3104,141.0284 52.9834,141.3424 52.4834,141.3424" id="Fill-30" fill="#000000"></path>
                <path d="M56.7627,141.2956 L56.5527,141.2956 L56.5107,141.2736 L55.2467,138.9466 L55.2387,138.9466 L55.2607,141.2486 C55.2607,141.2806 55.2467,141.2956 55.2137,141.2956 L54.9927,141.2956 C54.9577,141.2956 54.9447,141.2806 54.9447,141.2486 L54.9447,138.3736 C54.9447,138.3416 54.9577,138.3276 54.9927,138.3276 L55.1947,138.3276 L55.2387,138.3526 L56.5057,140.6926 L56.5177,140.6926 L56.4877,138.3736 C56.4877,138.3416 56.5017,138.3276 56.5367,138.3276 L56.7627,138.3276 C56.7957,138.3276 56.8107,138.3416 56.8107,138.3736 L56.8107,141.2486 C56.8107,141.2806 56.7957,141.2956 56.7627,141.2956" id="Fill-32" fill="#000000"></path>
                <path d="M60.3354,141.2956 L60.1294,141.2956 L60.0874,141.2736 L58.8204,138.9466 L58.8104,138.9466 L58.8364,141.2486 C58.8364,141.2806 58.8204,141.2956 58.7874,141.2956 L58.5654,141.2956 C58.5334,141.2956 58.5174,141.2806 58.5174,141.2486 L58.5174,138.3736 C58.5174,138.3416 58.5334,138.3276 58.5654,138.3276 L58.7684,138.3276 L58.8104,138.3526 L60.0814,140.6926 L60.0924,140.6926 L60.0634,138.3736 C60.0634,138.3416 60.0744,138.3276 60.1084,138.3276 L60.3354,138.3276 C60.3694,138.3276 60.3804,138.3416 60.3804,138.3736 L60.3804,141.2486 C60.3804,141.2806 60.3694,141.2956 60.3354,141.2956" id="Fill-34" fill="#000000"></path>
                <path d="M63.6889,141.2956 L62.1399,141.2956 C62.1059,141.2956 62.0939,141.2806 62.0939,141.2486 L62.0939,138.3736 C62.0939,138.3416 62.1059,138.3276 62.1399,138.3276 L63.6889,138.3276 C63.7239,138.3276 63.7349,138.3416 63.7349,138.3736 L63.7349,138.5486 C63.7349,138.5826 63.7239,138.5956 63.6889,138.5956 L62.4559,138.5956 C62.4209,138.5956 62.4099,138.6126 62.4099,138.6416 L62.4099,139.6046 C62.4099,139.6396 62.4209,139.6526 62.4559,139.6526 L63.4659,139.6526 C63.5009,139.6526 63.5139,139.6676 63.5139,139.7006 L63.5139,139.8756 C63.5139,139.9086 63.5009,139.9226 63.4659,139.9226 L62.4559,139.9226 C62.4209,139.9226 62.4099,139.9356 62.4099,139.9716 L62.4099,140.9796 C62.4099,141.0096 62.4209,141.0256 62.4559,141.0256 L63.6889,141.0256 C63.7239,141.0256 63.7349,141.0466 63.7349,141.0726 L63.7349,141.2486 C63.7349,141.2806 63.7239,141.2956 63.6889,141.2956" id="Fill-36" fill="#000000"></path>
                <path d="M66.7729,139.0963 C66.7729,138.8173 66.5449,138.5963 66.2629,138.5963 L65.6619,138.5963 C65.6299,138.5963 65.6159,138.6123 65.6159,138.6413 L65.6159,139.6043 C65.6159,139.6393 65.6299,139.6533 65.6619,139.6533 L66.2629,139.6533 C66.5509,139.6533 66.7729,139.4333 66.7729,139.1433 L66.7729,139.0963 Z M67.0949,141.2583 C67.0949,141.2803 67.0729,141.2953 67.0469,141.2953 L66.7909,141.2953 C66.7659,141.2873 66.7539,141.2773 66.7479,141.2623 L66.2939,139.9513 C66.2909,139.9453 66.2809,139.9323 66.2559,139.9233 L65.6619,139.9233 C65.6299,139.9233 65.6159,139.9353 65.6159,139.9713 L65.6159,141.2483 C65.6159,141.2803 65.6019,141.2953 65.5669,141.2953 L65.3459,141.2953 C65.3149,141.2953 65.2979,141.2803 65.2979,141.2483 L65.2979,138.3733 C65.2979,138.3413 65.3149,138.3273 65.3459,138.3273 L66.2629,138.3273 C66.7659,138.3273 67.0879,138.6473 67.0879,139.1433 L67.0879,139.1943 C67.0879,139.3613 66.9869,139.5573 66.8039,139.7153 C66.7009,139.8003 66.6089,139.8073 66.6089,139.8563 C66.6089,139.8573 66.6169,139.8673 66.6169,139.8703 L67.0879,141.2343 C67.0949,141.2453 67.0949,141.2483 67.0949,141.2583 L67.0949,141.2583 Z" id="Fill-38" fill="#000000"></path>
                <path d="M68.7983,139.0353 C68.7983,139.2463 68.9433,139.4033 69.2463,139.5443 C69.4843,139.6593 69.6993,139.7473 69.8713,139.8753 C70.0893,140.0443 70.1983,140.2783 70.1983,140.5703 C70.1983,141.0283 69.8813,141.3423 69.3743,141.3423 L69.1713,141.3423 C68.7223,141.3423 68.4403,141.0783 68.4403,140.9333 C68.4403,140.9113 68.4483,140.9033 68.4673,140.8963 L68.6653,140.7893 C68.6733,140.7863 68.6833,140.7863 68.6903,140.7863 C68.7093,140.7863 68.7123,140.7923 68.7303,140.8113 C68.8613,140.9443 68.9543,141.0733 69.1713,141.0733 L69.3743,141.0733 C69.6573,141.0733 69.8833,140.8563 69.8833,140.5703 C69.8833,140.2513 69.6423,140.1293 69.2433,139.9353 C68.7553,139.7003 68.4763,139.5303 68.4763,139.0493 C68.4763,138.5893 68.7983,138.2763 69.2983,138.2763 L69.3743,138.2763 C69.8183,138.2763 70.1103,138.5393 70.1103,138.6913 C70.1103,138.7063 70.0963,138.7123 70.0783,138.7233 L69.8813,138.8223 C69.8713,138.8273 69.8603,138.8273 69.8573,138.8273 C69.8413,138.8273 69.8333,138.8223 69.8193,138.8093 C69.6883,138.6733 69.5933,138.5483 69.3743,138.5483 L69.2983,138.5483 C69.0203,138.5483 68.7983,138.7613 68.7983,139.0353" id="Fill-40" fill="#000000"></path>
                <path d="M74.8252,139.049 C74.8252,138.773 74.6072,138.549 74.3212,138.549 L74.1772,138.549 C73.8922,138.549 73.6752,138.769 73.6752,139.049 L73.6752,140.57 C73.6752,140.855 73.8972,141.073 74.1772,141.073 L74.3212,141.073 C74.5962,141.073 74.8252,140.846 74.8252,140.57 L74.8252,139.049 Z M74.3212,141.342 L74.1772,141.342 C73.6752,141.342 73.3542,141.028 73.3542,140.57 L73.3542,139.049 C73.3542,138.589 73.6752,138.277 74.1772,138.277 L74.3212,138.277 C74.8242,138.277 75.1502,138.593 75.1502,139.049 L75.1502,140.57 C75.1502,141.028 74.8242,141.342 74.3212,141.342 L74.3212,141.342 Z" id="Fill-42" fill="#000000"></path>
                <path d="M78.2646,138.5958 L77.0326,138.5958 C76.9986,138.5958 76.9846,138.6128 76.9846,138.6408 L76.9846,139.6048 C76.9846,139.6388 76.9986,139.6528 77.0326,139.6528 L78.0436,139.6528 C78.0776,139.6528 78.0906,139.6668 78.0906,139.6998 L78.0906,139.8758 C78.0906,139.9088 78.0776,139.9228 78.0436,139.9228 L77.0326,139.9228 C76.9986,139.9228 76.9846,139.9348 76.9846,139.9708 L76.9846,141.2478 C76.9846,141.2808 76.9736,141.2958 76.9386,141.2958 L76.7166,141.2958 C76.6846,141.2958 76.6696,141.2808 76.6696,141.2478 L76.6696,138.3728 C76.6696,138.3418 76.6846,138.3278 76.7166,138.3278 L78.2646,138.3278 C78.2986,138.3278 78.3096,138.3418 78.3096,138.3728 L78.3096,138.5488 C78.3096,138.5818 78.2986,138.5958 78.2646,138.5958" id="Fill-44" fill="#000000"></path>
                <path d="M83.143,140.9279 C83.143,141.0779 82.855,141.3429 82.412,141.3429 L82.265,141.3429 C81.765,141.3429 81.445,141.0289 81.445,140.5699 L81.445,139.0489 C81.445,138.5889 81.765,138.2769 82.265,138.2769 L82.412,138.2769 C82.847,138.2769 83.148,138.5299 83.148,138.6839 C83.148,138.6989 83.135,138.7119 83.115,138.7229 L82.916,138.8229 C82.908,138.8279 82.898,138.8279 82.891,138.8279 C82.879,138.8279 82.874,138.8229 82.861,138.8099 C82.719,138.6729 82.613,138.5489 82.412,138.5489 L82.265,138.5489 C81.983,138.5489 81.765,138.7689 81.765,139.0489 L81.765,140.5699 C81.765,140.8549 81.987,141.0729 82.265,141.0729 L82.412,141.0729 C82.521,141.0729 82.643,141.0259 82.719,140.9539 C82.825,140.8559 82.866,140.7869 82.891,140.7869 C82.898,140.7869 82.908,140.7869 82.916,140.7899 L83.115,140.8889 C83.138,140.8999 83.143,140.9079 83.143,140.9279" id="Fill-46" fill="#000000"></path>
                <path d="M85.9809,139.049 C85.9809,138.773 85.7609,138.549 85.4749,138.549 L85.3299,138.549 C85.0459,138.549 84.8309,138.769 84.8309,139.049 L84.8309,140.57 C84.8309,140.855 85.0519,141.073 85.3299,141.073 L85.4749,141.073 C85.7519,141.073 85.9809,140.846 85.9809,140.57 L85.9809,139.049 Z M85.4749,141.342 L85.3299,141.342 C84.8309,141.342 84.5119,141.028 84.5119,140.57 L84.5119,139.049 C84.5119,138.589 84.8309,138.277 85.3299,138.277 L85.4749,138.277 C85.9749,138.277 86.3039,138.593 86.3039,139.049 L86.3039,140.57 C86.3039,141.028 85.9749,141.342 85.4749,141.342 L85.4749,141.342 Z" id="Fill-48" fill="#000000"></path>
                <path d="M89.2964,139.0963 C89.2964,138.8173 89.0704,138.5963 88.7854,138.5963 L88.1884,138.5963 C88.1534,138.5963 88.1404,138.6123 88.1404,138.6413 L88.1404,139.6043 C88.1404,139.6393 88.1534,139.6533 88.1884,139.6533 L88.7854,139.6533 C89.0754,139.6533 89.2964,139.4333 89.2964,139.1433 L89.2964,139.0963 Z M89.6124,139.1203 C89.6124,139.5963 89.2824,139.9233 88.7854,139.9233 L88.1884,139.9233 C88.1534,139.9233 88.1404,139.9353 88.1404,139.9713 L88.1404,141.2483 C88.1404,141.2803 88.1274,141.2953 88.0934,141.2953 L87.8724,141.2953 C87.8384,141.2953 87.8234,141.2803 87.8234,141.2483 L87.8234,138.3733 C87.8234,138.3413 87.8384,138.3273 87.8724,138.3273 L88.7854,138.3273 C89.2884,138.3273 89.6124,138.6583 89.6124,139.1203 L89.6124,139.1203 Z" id="Fill-50" fill="#000000"></path>
                <path d="M92.5966,141.2956 L91.0486,141.2956 C91.0166,141.2956 91.0026,141.2806 91.0026,141.2486 L91.0026,138.3736 C91.0026,138.3416 91.0166,138.3276 91.0486,138.3276 L92.5966,138.3276 C92.6306,138.3276 92.6446,138.3416 92.6446,138.3736 L92.6446,138.5486 C92.6446,138.5826 92.6306,138.5956 92.5966,138.5956 L91.3656,138.5956 C91.3336,138.5956 91.3186,138.6126 91.3186,138.6416 L91.3186,139.6046 C91.3186,139.6396 91.3336,139.6526 91.3656,139.6526 L92.3756,139.6526 C92.4096,139.6526 92.4226,139.6676 92.4226,139.7006 L92.4226,139.8756 C92.4226,139.9086 92.4096,139.9226 92.3756,139.9226 L91.3656,139.9226 C91.3336,139.9226 91.3186,139.9356 91.3186,139.9716 L91.3186,140.9796 C91.3186,141.0096 91.3336,141.0256 91.3656,141.0256 L92.5966,141.0256 C92.6306,141.0256 92.6446,141.0466 92.6446,141.0726 L92.6446,141.2486 C92.6446,141.2806 92.6306,141.2956 92.5966,141.2956" id="Fill-52" fill="#000000"></path>
                <path d="M96.0263,141.2956 L95.8193,141.2956 L95.7763,141.2736 L94.5103,138.9466 L94.5003,138.9466 L94.5263,141.2486 C94.5263,141.2806 94.5103,141.2956 94.4763,141.2956 L94.2553,141.2956 C94.2213,141.2956 94.2073,141.2806 94.2073,141.2486 L94.2073,138.3736 C94.2073,138.3416 94.2213,138.3276 94.2553,138.3276 L94.4573,138.3276 L94.5003,138.3526 L95.7683,140.6926 L95.7793,140.6926 L95.7533,138.3736 C95.7533,138.3416 95.7663,138.3276 95.7983,138.3276 L96.0263,138.3276 C96.0593,138.3276 96.0733,138.3416 96.0733,138.3736 L96.0733,141.2486 C96.0733,141.2806 96.0593,141.2956 96.0263,141.2956" id="Fill-54" fill="#000000"></path>
                <path d="M99.5976,141.2956 L99.3716,141.2956 C99.3396,141.2956 99.3266,141.2806 99.3266,141.2486 L99.3266,139.9716 C99.3266,139.9356 99.3116,139.9226 99.2796,139.9226 L98.1456,139.9226 C98.1126,139.9226 98.0996,139.9356 98.0996,139.9716 L98.0996,141.2486 C98.0996,141.2806 98.0816,141.2956 98.0506,141.2956 L97.8296,141.2956 C97.7976,141.2956 97.7816,141.2806 97.7816,141.2486 L97.7816,138.3736 C97.7816,138.3416 97.7976,138.3276 97.8296,138.3276 L98.0506,138.3276 C98.0816,138.3276 98.0996,138.3416 98.0996,138.3736 L98.0996,139.6046 C98.0996,139.6396 98.1126,139.6526 98.1456,139.6526 L99.2796,139.6526 C99.3116,139.6526 99.3266,139.6396 99.3266,139.6046 L99.3266,138.3736 C99.3266,138.3416 99.3396,138.3276 99.3716,138.3276 L99.5976,138.3276 C99.6316,138.3276 99.6456,138.3416 99.6456,138.3736 L99.6456,141.2486 C99.6456,141.2806 99.6316,141.2956 99.5976,141.2956" id="Fill-56" fill="#000000"></path>
                <path d="M102.0937,139.0421 C102.0907,139.0201 102.0707,138.9581 102.0407,138.8571 L102.0217,138.8571 C102.0057,138.9321 101.9847,138.9921 101.9717,139.0421 L101.6367,140.2511 C101.6367,140.2601 101.6307,140.2671 101.6307,140.2711 C101.6307,140.3031 101.6497,140.3131 101.6797,140.3131 L102.3637,140.3131 C102.3957,140.3131 102.4137,140.3031 102.4137,140.2711 C102.4137,140.2671 102.4087,140.2571 102.4087,140.2511 L102.0937,139.0421 Z M103.0407,141.2541 C103.0407,141.2801 103.0237,141.2951 102.9897,141.2951 L102.7497,141.2951 C102.7227,141.2951 102.7077,141.2871 102.7017,141.2621 L102.5197,140.6111 C102.5137,140.5861 102.4987,140.5841 102.4727,140.5841 L101.5847,140.5841 C101.5537,140.5841 101.5417,140.5861 101.5377,140.6111 L101.3507,141.2621 C101.3487,141.2871 101.3247,141.2951 101.3057,141.2951 L101.0637,141.2951 C101.0317,141.2951 101.0117,141.2801 101.0117,141.2541 C101.0117,141.2481 101.0167,141.2461 101.0167,141.2341 L101.8907,138.3611 C101.8997,138.3371 101.9077,138.3281 101.9377,138.3281 L102.1167,138.3281 C102.1427,138.3281 102.1547,138.3371 102.1637,138.3611 L103.0377,141.2341 C103.0377,141.2461 103.0407,141.2481 103.0407,141.2541 L103.0407,141.2541 Z" id="Fill-58" fill="#000000"></path>
                <path d="M105.2578,141.3424 L105.1118,141.3424 C104.6098,141.3424 104.2898,141.0284 104.2898,140.5704 L104.2898,139.0494 C104.2898,138.5894 104.6098,138.2764 105.1118,138.2764 L105.3458,138.2764 C105.7858,138.2764 106.0778,138.5294 106.0778,138.6844 C106.0778,138.6994 106.0638,138.7124 106.0458,138.7224 L105.8478,138.8224 C105.8388,138.8274 105.8258,138.8274 105.8258,138.8274 C105.8088,138.8274 105.8018,138.8224 105.7898,138.8094 C105.6588,138.6734 105.5608,138.5484 105.3458,138.5484 L105.1118,138.5484 C104.8298,138.5484 104.6098,138.7684 104.6098,139.0494 L104.6098,140.5704 C104.6098,140.8544 104.8308,141.0724 105.1118,141.0724 L105.2578,141.0724 C105.5318,141.0724 105.7618,140.8464 105.7618,140.5704 L105.7618,140.1924 C105.7618,140.1614 105.7418,140.1444 105.7148,140.1444 L105.2198,140.1444 C105.1858,140.1444 105.1738,140.1294 105.1738,140.0964 L105.1738,139.9184 C105.1738,139.8834 105.1858,139.8704 105.2198,139.8704 L106.0378,139.8704 C106.0638,139.8704 106.0828,139.8834 106.0828,139.9184 L106.0828,140.5704 C106.0828,141.0284 105.7598,141.3424 105.2578,141.3424" id="Fill-60" fill="#000000"></path>
                <path d="M109.1552,141.2956 L107.6092,141.2956 C107.5762,141.2956 107.5632,141.2806 107.5632,141.2486 L107.5632,138.3736 C107.5632,138.3416 107.5762,138.3276 107.6092,138.3276 L109.1552,138.3276 C109.1892,138.3276 109.2052,138.3416 109.2052,138.3736 L109.2052,138.5486 C109.2052,138.5826 109.1892,138.5956 109.1552,138.5956 L107.9262,138.5956 C107.8922,138.5956 107.8792,138.6126 107.8792,138.6416 L107.8792,139.6046 C107.8792,139.6396 107.8922,139.6526 107.9262,139.6526 L108.9362,139.6526 C108.9702,139.6526 108.9832,139.6676 108.9832,139.7006 L108.9832,139.8756 C108.9832,139.9086 108.9702,139.9226 108.9362,139.9226 L107.9262,139.9226 C107.8922,139.9226 107.8792,139.9356 107.8792,139.9716 L107.8792,140.9796 C107.8792,141.0096 107.8922,141.0256 107.9262,141.0256 L109.1552,141.0256 C109.1892,141.0256 109.2052,141.0466 109.2052,141.0726 L109.2052,141.2486 C109.2052,141.2806 109.1892,141.2956 109.1552,141.2956" id="Fill-62" fill="#000000"></path>
                <g id="Group-66" transform="translate(110.000000, 137.583000)">
                    <mask id="mask-4" fill="white">
                        <use xlink:href="#path-3"></use>
                    </mask>
                    <g id="Clip-65"></g>
                    <path d="M2.5844,3.7126 L2.3784,3.7126 L2.3364,3.6906 L1.0704,1.3636 L1.0624,1.3636 L1.0854,3.6656 C1.0854,3.6976 1.0704,3.7126 1.0364,3.7126 L0.8144,3.7126 C0.7834,3.7126 0.7694,3.6976 0.7694,3.6656 L0.7694,0.7906 C0.7694,0.7586 0.7834,0.7446 0.8144,0.7446 L1.0194,0.7446 L1.0624,0.7696 L2.3304,3.1096 L2.3404,3.1096 L2.3124,0.7906 C2.3124,0.7586 2.3254,0.7446 2.3594,0.7446 L2.5844,0.7446 C2.6184,0.7446 2.6314,0.7586 2.6314,0.7906 L2.6314,3.6656 C2.6314,3.6976 2.6184,3.7126 2.5844,3.7126" id="Fill-64" fill="#000000" mask="url(#mask-4)"></path>
                </g>
            </g>
        </g>
    </g>
</svg>