<?xml version="1.0" encoding="UTF-8"?>
<svg width="69px" height="142px" viewBox="0 0 69 142" version="1.1" xmlns="http://www.w3.org/2000/svg" xmlns:xlink="http://www.w3.org/1999/xlink">
    <!-- Generator: Sketch 48.1 (47250) - http://www.bohemiancoding.com/sketch -->
    <title>sticker_foamfinger_white</title>
    <desc>Created with Sketch.</desc>
    <defs></defs>
    <g id="stickers-black" stroke="none" stroke-width="1" fill="none" fill-rule="evenodd" transform="translate(-165.000000, -575.000000)">
        <g id="sticker_foamfinger_white" transform="translate(165.000000, 574.000000)" fill="#FFFFFF" fill-rule="nonzero">
            <path d="M40.68,86.22 C40.3398186,85.5413318 40.0393133,84.8434918 39.78,84.13 L38.64,83.89 C38.64,83.89 39.06,85.58 39.38,86.38 C39.7,87.18 41,86.68 40.68,86.22 Z" id="Shape"></path>
            <path d="M40.82,89 C41.32,89.1 41.64,88.5 41.64,88.5 C41.3661172,88.2169993 40.9579131,88.1091718 40.58,88.22 C39.84,88.38 38.52,86.86 38.2,86.07 C37.94908,85.2680472 37.755262,84.4493331 37.62,83.62 L35.62,83.2 C36.4187443,84.6511334 37.3281019,86.0385722 38.34,87.35 C38.979832,88.139188 39.8448966,88.714735 40.82,89 Z" id="Shape"></path>
            <rect id="Rectangle-path" transform="translate(55.482853, 112.630318) rotate(-11.260000) translate(-55.482853, -112.630318) " x="54.2278535" y="108.335318" width="2.51" height="8.59"></rect>
            <path d="M66.28,113.67 C66.28,113.67 65.62,109.94 65.28,108.95 C64.94,107.96 66.72,103.51 67.18,100.32 C67.6995905,96.9984237 67.6114938,93.6100881 66.92,90.32 C66.18,87.49 65.14,83.18 64,81.81 C62.5737623,79.6234406 61.7906632,77.0801014 61.74,74.47 C61.7427647,69.9598395 61.3950514,65.4562831 60.7,61 C60,57.92 50.36,14.07 49,10.1 C47.64,6.13 45.84,0.41 38.66,1 C35.9518853,1.19377635 33.4528176,2.52637878 31.7829114,4.66713749 C30.1130052,6.8078962 29.4287734,9.55616755 29.9,12.23 C30.58,16.23 36.58,50.74 36.58,50.74 C36.58,50.74 37.98,55.74 35.8,53.95 C33.62,52.16 30,49 25.18,51.52 C20.36,54.04 18,58.1 17.59,60 C17.18,61.9 16.25,62 15.41,62.11 C14.57,62.22 8.25,64.11 7.05,68.87 C5.85,73.63 6.05,73.06 4.65,73.49 C3.25,73.92 -1.35,77.26 0.39,85.61 C2.13,93.96 3.39,101.7 5.93,107.06 C8.47,112.42 12.61,118.06 13.61,121.19 C14.61,124.32 16.75,137.95 16.75,137.95 C16.75,137.95 17.41,142.61 19.21,142.77 C21.01,142.93 66.46,133.62 66.46,133.62 C66.46,133.62 68.76,133.08 68.88,129.62 C69,126.16 66.28,113.67 66.28,113.67 Z M31.5,124.24 L29.33,124.67 C29.3122222,124.683333 29.2877778,124.683333 29.27,124.67 L25.34,118.56 L26.66,125.18 L26.66,125.18 L24.42,125.63 L24.42,125.63 L21.82,112.63 L21.82,112.63 L24.03,112.19 C24.0485641,112.179282 24.0714359,112.179282 24.09,112.19 L27.97,118.26 L26.66,111.7 L26.66,111.7 L28.9,111.25 L28.9,111.25 L31.49,124.25 L31.49,124.25 C31.502915,124.26139 31.5103137,124.27778 31.5103137,124.295 C31.5103137,124.31222 31.502915,124.32861 31.49,124.34 L31.5,124.24 Z M40.8,121.05 L39.61,122.61 L39.61,122.61 L34.23,123.68 L34.23,123.68 L34.23,123.68 L31.63,110.68 L31.63,110.68 L37,109.48 L37,109.48 L38.7,110.48 L39.52,114.59 L38.88,115.78 L39.93,116.66 L39.93,116.66 L40.77,120.9 C40.7967949,120.894641 40.8244134,120.903984 40.8424519,120.92451 C40.8604904,120.945035 40.8662083,120.973625 40.8574519,120.99951 C40.8486955,121.025394 40.8267949,121.044641 40.8,121.05 L40.8,121.05 Z M50.94,120.37 L48.52,120.85 C48.5014359,120.860718 48.4785641,120.860718 48.46,120.85 L45.46,115.85 L44.89,115.96 L46,121.3 L46,121.3 L43.74,121.75 L43.74,121.75 L41.14,108.75 L41.14,108.75 L46.56,107.67 L46.56,107.67 L48.25,108.67 L49.25,113.51 L48,115.23 L51,120.29 C51.0089316,120.30547 51.0089316,120.32453 51,120.34 C50.9896397,120.357971 50.970732,120.369315 50.95,120.37 L50.94,120.37 Z M60.12,117.2 L58.92,118.76 L58.92,118.76 L54.73,119.6 L54.73,119.6 L53.04,118.6 L50.95,108.12 L52.13,106.55 L52.13,106.55 L56.32,105.71 L56.32,105.71 L58.03,106.71 L60.12,117.19 C60.1237903,117.192843 60.1271573,117.19621 60.13,117.2 L60.12,117.2 Z M64.56,128 C63.76,127.94 63.02,121.22 63.02,121.22 C63.02,121.22 62.02,112.39 61.56,109.64 C61.1,106.89 62.46,99.89 63.02,96.72 C63.58,93.55 61.56,88 60.78,85.92 C60,83.84 57.68,81.69 55.18,80.44 C53.5702453,79.6231474 52.0256915,78.683711 50.56,77.63 C50.56,77.63 46.4,74.5 45.66,73.22 C44.92,71.94 44.54,72.22 44.32,72.84 C44.1,73.46 43.54,74.1 43.22,73.74 C42.9,73.38 43.6,71.45 43.22,70.87 C42.84,70.29 42.44,73.16 42.22,74.04 C42,74.92 41.06,74.72 41.64,72.88 C42.1506591,71.6411541 41.9352191,70.2215582 41.08,69.19 C40.56,68.77 40.54,70.31 40.34,71.3 C40.14,72.29 39.66,70.14 39.66,70.14 C39.66,70.14 39.5,69.4 38,69.28 C36.4188771,69.3153391 34.8504197,69.571139 33.34,70.04 C32.48,70.26 32.22,71.04 32.62,72.04 C32.885695,73.5781429 32.5256635,75.1586813 31.62,76.43 C30.86,77.09 29.62,76.83 27.52,76.49 C25.42,76.15 26.52,78.44 28.86,79.84 C31.2,81.24 39.14,82 40.24,82.12 C41.2529597,82.1532627 42.2476919,82.3985391 43.16,82.84 C43.58,83.24 41.86,83.7 41.86,83.7 C41.86,83.7 42.08,85.08 42.94,88.34 C43.8,91.6 46.88,93.98 48.12,95.89 C49.36,97.8 46.92,96.25 45.54,95.55 C44.16,94.85 42.12,90.61 42.12,90.61 C41.2845805,90.9271966 40.3428519,90.7664137 39.66,90.19 C38.44,89.19 38.46,90.05 38.46,90.05 C38.46,90.05 37.74,94.51 36.12,96.11 C34.3494813,97.7232926 31.8280858,98.2167767 29.58,97.39 C27.5,96.55 28.58,98.21 28.32,100 C28.06,101.79 26.42,102.77 24.64,103.93 C23.1299725,104.881036 21.1810232,104.760233 19.8,103.63 C18.57,102.75 14,97.3 14,97.3 C14,97.3 10,92.16 9.45,91.64 C8.9,91.12 7.45,90.64 6.65,89.41 C5.85,88.18 9.55,90.21 10.47,90.71 C11.39,91.21 13.27,94 13.27,94 C13.27,94 16.07,97.77 19.19,101.39 C22.31,105.01 23.63,102.63 24.85,102.17 C26.07,101.71 27.05,99.96 27.17,97.94 C27.29,95.92 22.48,91 19.51,86.14 C17.1509677,82.5847281 14.283865,79.394192 11,76.67 C8.3824129,75.8697124 5.58537676,77.1902945 4.54,79.72 C3,83.55 6.77,95.37 6.77,95.37 C6.77,95.37 9.61,103.37 11.65,107.77 C13.69,112.17 17.91,117.48 19.31,119.53 C20.71,121.58 20.73,125.47 20.73,125.47 C20.73,125.47 21.97,134.24 22.27,135.74 C22.57,137.24 21.39,136.98 20.91,136.88 C20.43,136.78 20.19,135.88 20.19,135.88 C20.19,135.88 18.87,126.49 18.73,124.7 C18.59,122.91 17.51,119.7 15.99,118.28 C14.47,116.86 12.85,113.22 11.53,111.28 C10.21,109.34 6.19,98.24 4.39,92.62 C2.99644331,88.6515424 2.52118691,84.4186833 3,80.24 C3.48,76.69 7.9,74.9 9,74.74 C10.1,74.58 10.64,74.88 10.34,74.4 C9.98079458,73.0989982 9.84553169,71.7463692 9.94,70.4 C10.02,69.08 10.94,67.73 12.56,66.13 C14.18,64.53 18.8,63.64 19.92,63.78 C21.04,63.92 20.72,63.44 20.72,63.44 C20.72,63.44 19.08,57.86 25.12,54.44 C31.16,51.02 35.38,56.19 37.94,58.57 C40.5,60.95 39.4,53.57 39.02,50.48 C38.64,47.39 37.22,35.55 36.7,33.18 C36.18,30.81 32.3,15.56 32,10.68 C31.7,5.8 35.78,4.3 39.48,4.16 C43.18,4.02 45,8.49 46.12,11.51 C47.24,14.53 48.52,25 50.76,32.88 C53,40.76 56.58,55.94 57.2,57.88 C57.82,59.82 58.86,72.47 58.94,74.54 C59.1593699,77.579568 60.0471688,80.5332065 61.54,83.19 C63.1,85.58 63.08,87.1 63.8,88.99 C64.52,90.88 65.4,97.52 64.7,100.35 C64.0191663,103.259762 63.5710839,106.219112 63.36,109.2 C63.4950499,111.679057 63.9110458,114.134774 64.6,116.52 C64.98,117.62 66.16,126.17 66.26,127.22 C66.36,128.27 65.36,128.08 64.56,128 Z M6.43,84.45 C6.61,84.93 6.43,86.24 5.43,84.81 C4.56615558,83.3944918 4.49061158,81.6343165 5.23,80.15 C5.96057896,78.7920124 7.14166706,77.7311548 8.57,77.15 C9.57,76.73 9.89,77.15 10.03,77.45 C10.17,77.75 8.35,78.45 7.93,78.73 C7.14471068,79.3585559 6.56067788,80.2033177 6.25,81.16 C5.92676068,82.2443696 5.9903897,83.4073668 6.43,84.45 L6.43,84.45 Z M18.95,88.14 C18.13,88.54 16.01,89.34 15.09,90.59 C14.5405887,91.2626706 14.1937699,92.0776948 14.09,92.94 C14.09,93.08 12.85,93.94 13.37,91.76 C13.9116913,90.3324879 14.9287959,89.1352711 16.25,88.37 C18.35,87.27 18.97,86.72 19.33,87.17 C19.69,87.62 19.77,87.76 18.95,88.14 Z M18.55,90.07 C18.05,90.37 17.21,90.51 16.71,91.17 C16.21,91.83 16.07,93.46 15.47,93.17 C14.87,92.88 15.15,91.36 16.33,90.06 C16.9126269,89.5799582 17.5963904,89.2380764 18.33,89.06 C19.25,89 19,89.77 18.55,90.07 L18.55,90.07 Z M16.77,87.48 C16.4228194,87.5372234 16.0859037,87.6450364 15.77,87.8 C15.4161711,87.9819191 15.097806,88.2257732 14.83,88.52 C14.3896891,88.9188017 14.0239719,89.3928796 13.75,89.92 C13.57,90.3 12.83,90.4 12.83,89.48 C12.83,89.48 12.77,88.54 14.15,87.59 C15.53,86.64 15.81,86.51 16.49,86.59 C17.17,86.67 17,87.48 16.77,87.48 Z M19.93,96.81 C20.7134284,95.3527093 22.4858662,94.7430255 24,95.41 C25.4968689,95.8891577 26.5506385,97.2321197 26.66,98.8 C26.66,98.8 26.92,99.52 25.14,100.99 C23.36,102.46 22.3,103.62 21.14,102.09 C19.98,100.56 19.17,98.5 19.93,96.81 Z" id="Shape"></path>
            <rect id="Rectangle-path" transform="translate(45.243752, 111.835194) rotate(-11.260000) translate(-45.243752, -111.835194) " x="44.1087518" y="110.320194" width="2.27" height="3.03"></rect>
            <rect id="Rectangle-path" transform="translate(35.765688, 113.723642) rotate(-11.270000) translate(-35.765688, -113.723642) " x="34.6406883" y="112.208642" width="2.25" height="3.03"></rect>
            <path d="M54.82,53.19 C54.18,50.38 52.3,45.68 51.54,42.98 C50.78,40.28 47.64,25.86 46.04,19.38 C44.44,12.9 43.84,9.79 42.16,7.6 C40.48,5.41 37.38,5.6 35.16,6.96 C32.94,8.32 34,12.45 34,12.45 C34,12.45 38,31.64 38.24,33.32 C38.48,35 40.48,49.05 40.48,49.05 C40.48,49.05 41.54,57.16 40.68,59.34 C39.82,61.52 40.48,62.27 40.48,62.27 L43.12,68.27 C43.12,68.27 47.94,73.07 49.28,74.47 C50.62,75.87 53.58,76.92 54.82,77.8 C55.7726703,78.4167698 56.8012303,78.9075207 57.88,79.26 C57.88,79.26 56.72,70.11 56.68,68.86 C56.64,67.61 55.46,56 54.82,53.19 Z" id="Shape"></path>
            <rect id="Rectangle-path" transform="translate(36.840199, 119.118448) rotate(-11.270000) translate(-36.840199, -119.118448) " x="35.7151992" y="117.543448" width="2.25" height="3.15"></rect>
            <path d="M33,56.22 C31.0208013,54.9796845 28.5430368,54.8437096 26.44,55.86 C25.38,56.54 21.22,59.37 21.94,62.7 C22.2951333,64.5949374 23.2154802,66.3380187 24.58,67.7 L26.4,69.7 L29.2,69.48 L32,69.26 C32.7135107,68.7880526 33.4784371,68.3988795 34.28,68.1 C34.6677227,67.9945383 35.0618856,67.9143695 35.46,67.86 C36.0284257,67.1405484 36.7722176,66.5792611 37.62,66.23 C38.7,65.95 39.32,66.13 38.94,66.71 C38.56,67.29 38.24,66.89 37.44,67.63 L37.84,67.63 L40.9,67.55 C40.3992898,66.2434479 39.7624481,64.9932272 39,63.82 C38.12,62.62 35.66,57.78 33,56.22 Z M28.06,56.92 C26.7139949,57.8737795 25.5376489,59.0467452 24.58,60.39 C23.8626181,61.3786852 23.6007275,62.6263028 23.86,63.82 C23.86,65.61 23.58,65.45 22.72,63.88 C22.0223316,62.5849381 22.075823,61.0145854 22.86,59.77 C23.2,59.03 25.66,56.4 27.42,56.06 C29.18,55.72 28.08,56.92 28.08,56.92 L28.06,56.92 Z M35.06,66.51 C34.3208324,66.7929681 33.6421381,67.2137585 33.06,67.75 C32.7,68.23 31.3,69.11 32.26,67.23 C32.9169955,66.5800577 33.6816385,66.0488676 34.52,65.66 C35.26,65.52 35.7,65.18 35.94,65.44 C36.18,65.7 35.7,66.19 35.08,66.51 L35.06,66.51 Z" id="Shape"></path>
            <path d="M24.42,71.11 C24.0356832,71.8532597 24.0356832,72.7367403 24.42,73.48 C25.06,74.84 25.42,75.73 30.1,75.19 C30.1,75.19 30.84,75.03 31.1,73.66 C31.2757809,72.6932982 31.3628098,71.7125494 31.36,70.73 L24.42,71.11 Z" id="Shape"></path>
            <path d="M31.28,94.69 C32.4150895,93.8990817 33.4912523,93.0267883 34.5,92.08 C35.1206156,91.5557091 35.5728136,90.8600199 35.8,90.08 C35.8195475,90.0079693 35.8195475,89.9320307 35.8,89.86 C35.550062,89.3390591 35.2117209,88.8653816 34.8,88.46 C34.1637082,87.8745327 33.3840923,87.4674766 32.54,87.28 C31.7948044,87.0936704 31.0057246,87.2239772 30.36,87.64 C29.9519206,87.8633629 29.628641,88.2147537 29.44,88.64 C29.2723724,88.9542146 29.1511149,89.2910409 29.08,89.64 C28.9509288,91.0366397 29.2214369,92.441201 29.86,93.69 C30.44,94.65 30.76,95 31.28,94.69 Z" id="Shape"></path>
            <path d="M23.16,82.61 C22.9,83.29 22.72,83.31 22.42,83.11 C22.12,82.91 22.3,82.11 22.42,81.79 C23.1423873,80.5124593 24.2676788,79.5102465 25.62,78.94 C25.48,78.78 25.36,78.62 25.22,78.44 C24.0479578,78.8989487 23.033815,79.6873406 22.3,80.71 C21.9649633,81.3117626 21.7286275,81.963374 21.6,82.64 C21.7,83.52 20.9,84.15 20.72,82.76 C20.6803471,81.6357481 21.1159397,80.5467666 21.92,79.76 C22.5838545,79.0913987 23.3219819,78.5008968 24.12,78 C24.3230961,77.879475 24.5374397,77.7790014 24.76,77.7 C23.8376925,75.8308186 23.223123,73.8250258 22.94,71.76 C22.76,70.19 24.56,69.95 24.56,69.95 C21.88,65.7 21.08,66.04 19.7,65.76 C18.32,65.48 15.54,66.62 15.54,66.62 C15.54,66.62 12.09,68 11.41,70.73 C10.73,73.46 13.69,76.95 15.19,78.6 C16.69,80.25 23.19,88.87 23.19,88.87 L27,93.46 C27,93.46 29.2,96.17 31.18,96.46 C33.16,96.75 35.38,94.37 35.38,94.37 C36.2657604,93.2051937 36.9115664,91.8761928 37.28,90.46 C37.388104,89.1295036 36.9958527,87.8065469 36.18,86.75 L33.94,83.3 C33.24,82.24 32.48,82.48 30.72,82.12 C29.1198567,81.73896 27.6581501,80.9180489 26.5,79.75 C25.818557,79.9685011 25.1668996,80.2708164 24.56,80.65 C23.96042,81.1973695 23.4833236,81.8653044 23.16,82.61 L23.16,82.61 Z M22.06,77.53 C22.06,77.53 23.7,76.29 24.18,76.85 C24.66,77.41 23.76,77.73 23.18,78.03 C22.5233762,78.3720124 21.9862827,78.9056182 21.64,79.56 C21.36,80.16 20.86,80.1 20.8,79.38 C20.74,78.66 22.06,77.53 22.06,77.53 Z M15.4,68.53 C14.6205097,69.088903 13.9777581,69.8171268 13.52,70.66 C13.1993969,71.5004439 13.1504328,72.4202694 13.38,73.29 C13.84,76.76 11.9,74.03 11.76,72.21 C11.7664306,70.5393065 12.6068835,68.9822173 14,68.06 C15,67.26 16.42,66.72 17.28,67 C18.14,67.28 15.87,68.3 15.41,68.5 L15.4,68.53 Z M27.86,89.29 C27.9588098,88.6001445 28.2499246,87.9520677 28.7,87.42 C29.1787294,86.7689477 29.8400146,86.2747239 30.6,86 C31.6856823,85.7257087 32.8315175,85.8170943 33.86,86.26 C34.89264,87.0064653 35.780497,87.9349876 36.48,89 C36.8721513,89.7658794 36.7864247,90.6893892 36.26,91.37 C35.44,92.37 33.8,94.6 33.12,94.92 C32.44,95.24 31.2,96.77 30.12,95.36 C29.04,93.95 27.44,92.22 27.86,89.29 Z" id="Shape"></path>
            <path d="M22.48,101.61 C23.1172092,101.062604 23.7849478,100.551784 24.48,100.08 C25.8,99.18 25.66,98.57 25.66,98.57 C25.5730533,97.6827449 25.047415,96.8980419 24.26,96.48 C23.3692774,95.9409897 22.2475007,95.9643601 21.38,96.54 C20.9737768,97.0190983 20.7165503,97.6065479 20.64,98.23 C20.6473789,99.242822 20.9459129,100.23215 21.5,101.08 C22.1,102 22.48,101.61 22.48,101.61 Z" id="Shape"></path>
        </g>
    </g>
</svg>