<?xml version="1.0" encoding="UTF-8"?>
<svg width="58px" height="98px" viewBox="0 0 58 98" version="1.1" xmlns="http://www.w3.org/2000/svg" xmlns:xlink="http://www.w3.org/1999/xlink">
    <!-- Generator: Sketch 42 (36781) - http://www.bohemiancoding.com/sketch -->
    <title>sticker_bunny_black</title>
    <desc>Created with Sketch.</desc>
    <defs>
        <polygon id="path-1" points="57.9666809 0.459613836 57.9666809 88.5070613 0.257219484 88.5070613 0.257219484 0.459613836 57.9666809 0.459613836"></polygon>
    </defs>
    <g id="Page-1" stroke="none" stroke-width="1" fill="none" fill-rule="evenodd">
        <g id="stickers-white" transform="translate(-58.000000, -261.000000)">
            <g id="sticker_bunny_black" transform="translate(58.000000, 261.000000)">
                <path d="M26.8799766,88.9291447 C26.8799766,88.9291447 24.9647426,90.672805 23.1346574,90.2660126 C23.1346574,90.2660126 21.4211894,89.790805 20.5666149,88.8354591 C20.5666149,88.8354591 18.2854872,87.0443396 16.9872745,87.2341761 C16.9872745,87.2341761 16.7855085,91.4574214 16.4844021,92.7610063 C16.4844021,92.7610063 15.8840404,96.6569686 16.220317,97.3941258 C16.220317,97.3941258 16.7065298,97.4989057 18.0824872,96.5928679 C18.0824872,96.5928679 20.5758702,93.9752201 22.1264447,93.3465409 C22.1264447,93.3465409 23.6942957,93.0580881 24.8931681,93.9185157 C24.8931681,93.9185157 27.0021468,95.4365912 27.559934,95.5826667 C27.559934,95.5826667 28.4114234,95.9327547 28.9025723,95.9228931 C28.9025723,95.9228931 29.6831043,94.190327 30.3427,89.2385535 L30.4926362,87.9257233 C30.4926362,87.9257233 29.4899766,87.6046038 26.8799766,88.9291447" id="Fill-787" fill="#000000"></path>
                <g id="Group-791">
                    <mask id="mask-2" fill="white">
                        <use xlink:href="#path-1"></use>
                    </mask>
                    <g id="Clip-790"></g>
                    <path d="M33.7740787,57.3452239 C34.0184191,56.8422805 34.827334,56.3726201 35.4523766,56.3350226 C36.103334,56.2740038 36.6765468,56.5119157 37.7261,56.8989849 C38.7805894,57.2638654 39.6512064,57.9547962 39.5938234,58.7461925 C39.5111426,59.5536138 39.3093766,60.3043308 38.9422489,60.8319283 C38.5961,61.3379535 37.320717,61.6806453 36.6284191,61.5616893 C35.9589511,61.4341044 35.3740149,60.8479535 34.5848447,59.9788969 C33.809866,59.1092239 33.5865043,58.4170604 33.5865043,58.0164314 C33.5865043,57.6293623 33.6704191,57.5350604 33.7740787,57.3452239 M28.8922064,55.9109723 C28.2819723,56.7596893 27.4113553,57.2422931 26.8011213,57.6084063 C26.1896532,57.9547962 24.7742064,58.0953245 23.1520574,58.120595 C21.5311426,58.1372365 20.6722489,57.7945447 19.9935255,57.0647836 C19.2993766,56.3350226 19.4968234,54.9377522 19.686866,54.0686956 C19.8645681,53.1990226 20.2101,52.8532491 20.4957809,52.5315132 C21.2251,51.6988214 22.2740362,51.1095887 23.1903128,51.3524314 C24.1065894,51.5749346 25.8706532,52.3090101 26.7172064,52.7090226 C27.5668447,53.1164314 28.2603766,53.5620541 28.6818021,53.8671484 C29.0896532,54.1636138 29.4931851,55.0573245 28.8922064,55.9109723 M28.9502064,69.9822931 C28.8922064,71.3376516 28.4417809,71.9472239 28.1166106,72.0082428 C27.7895894,72.0667962 27.1836745,71.9102428 26.213717,71.5472113 C25.2153766,71.1847962 24.6131638,71.0399535 24.1065894,70.2084943 C23.5987809,69.3955258 24.1226319,68.7859535 24.587866,68.3662176 C25.0716106,67.9378528 26.4123979,67.0712616 27.1046957,66.6595384 C27.7895894,66.2755509 28.5170574,66.7667836 28.6651426,67.2943811 C28.8249511,67.8133497 29.0125255,69.0583811 28.9502064,69.9822931 M57.9650149,2.61006667 C39.5685255,9.26235597 28.0826745,24.3420289 23.2803979,31.8806327 C23.6592489,10.994922 5.94950426,0.459613836 5.94950426,0.459613836 C4.14965319,26.4240667 14.9567809,38.8158277 17.5291426,41.3761547 C16.9226106,42.0529094 16.4148021,42.7043937 16.1599723,43.2295258 C15.3461213,44.8733371 13.8455255,48.723073 13.3574617,50.4876893 C12.8872915,52.2264189 12.2023979,55.5645824 11.8192277,57.9338403 C11.4101426,60.2630352 10.4531426,64.054834 9.9731,65.6530352 C9.50416383,67.2278151 8.85197234,68.8352616 8.85197234,69.6186453 C8.85197234,69.8867585 8.73103617,71.0639912 8.64280213,72.0137899 L7.76292979,71.7764943 C7.76292979,71.7764943 -0.2929,78.6475887 0.2871,79.7409975 C0.2871,79.7409975 0.388908511,83.4964314 6.14016383,84.8893874 C6.14016383,84.8893874 10.3229511,86.4401296 12.1721638,87.2413874 C12.1721638,87.2413874 14.6223553,88.1184566 15.2270362,88.0044314 C15.2270362,88.0044314 15.8391213,87.5076516 15.397334,85.5895635 L15.0653766,84.1836642 C15.0653766,84.1836642 17.9925255,85.3257648 20.3112915,86.7741925 C20.3112915,86.7741925 22.3357383,87.8337019 24.007866,88.5055258 C24.007866,88.5055258 24.5465255,88.6435887 25.0771638,86.3014503 C25.0771638,86.3014503 25.2443766,84.7260541 25.0179298,83.2406453 C25.9792489,83.5445069 27.1775043,84.1639409 28.301717,84.2422176 C29.0322702,84.2822805 29.4783766,83.8952113 30.7327809,83.4089094 C31.4423553,82.9071987 31.9075894,82.860356 32.9386319,81.8094755 C33.809866,80.8985069 34.6058234,80.0504063 35.1333766,78.5243182 C35.6541426,77.0327459 36.6284191,74.9439283 37.1146319,73.6865698 C37.6045468,72.4131862 38.5134191,69.9822931 39.466717,68.2589723 C40.4187809,66.5646201 41.0765255,64.5121673 41.6164191,63.0569597 C42.1816106,61.5734 43.6038447,59.1499031 44.2979936,56.4792491 C44.9662277,53.8246201 45.1655255,50.520356 44.8829298,48.4346201 C44.6021851,46.3741547 43.3570362,43.2751358 42.6517809,41.7576767 C41.9452915,40.2334377 41.2116532,37.2989849 39.0977383,36.1112742 C37.0961213,34.9660918 35.0932702,34.4754755 33.0879511,34.3441925 C58.6702702,24.5146075 57.9650149,2.61006667 57.9650149,2.61006667" id="Fill-789" fill="#000000" mask="url(#mask-2)"></path>
                </g>
            </g>
        </g>
    </g>
</svg>