<?xml version="1.0" encoding="UTF-8"?>
<svg width="67px" height="65px" viewBox="0 0 67 65" version="1.1" xmlns="http://www.w3.org/2000/svg" xmlns:xlink="http://www.w3.org/1999/xlink">
    <!-- Generator: Sketch 42 (36781) - http://www.bohemiancoding.com/sketch -->
    <title>sticker_run-repeat_black</title>
    <desc>Created with Sketch.</desc>
    <defs></defs>
    <g id="Page-1" stroke="none" stroke-width="1" fill="none" fill-rule="evenodd">
        <g id="stickers-white" transform="translate(-319.000000, -155.000000)" fill="#1A1918">
            <g id="sticker_run-repeat_black" transform="translate(319.000000, 155.000000)">
                <path d="M18.6636443,8.03530986 C19.9083247,8.03530986 20.5762526,6.95316901 20.5762526,5.82478873 C20.5762526,4.30578873 19.6541392,3.66050704 18.3645619,3.73021127 L18.3645619,8.01184507 L18.6636443,8.03530986 Z M20.9450979,17.3598028 L18.3410773,10.1305775 L18.294799,10.1761268 C18.3175928,11.0284507 18.3645619,11.8800845 18.3645619,12.7317183 L18.3645619,17.3598028 L13.6635103,17.3598028 L13.6635103,0 L18.202933,0 C22.2816443,0 25.2310258,1.19739437 25.2310258,5.77923944 C25.2310258,7.69023944 24.4007784,9.39350704 22.5351392,10.1305775 L26.0370979,17.3598028 L20.9450979,17.3598028 Z" id="Fill-2004"></path>
                <path d="M38.1100144,6.90140845e-05 L38.1100144,11.3508155 C38.1100144,13.4460831 37.6493031,17.6587028 32.2112515,17.6587028 C26.7732,17.6587028 26.3117979,13.4460831 26.3117979,11.3508155 L26.3117979,6.90140845e-05 L31.0128495,6.90140845e-05 L31.0128495,10.9132662 C31.0128495,11.3735901 30.9900557,11.9719423 31.1282,12.4322662 C31.2663443,12.9160549 31.5654268,13.2845901 32.2112515,13.2845901 C32.8791794,13.2845901 33.1789526,12.9160549 33.2936124,12.455731 C33.4324474,11.9719423 33.4096536,11.3735901 33.4096536,10.9360408 L33.4096536,6.90140845e-05 L38.1100144,6.90140845e-05 Z" id="Fill-2005"></path>
                <path d="M39.6061175,6.90140845e-05 L44.076468,6.90140845e-05 L47.8326124,10.4529423 L47.8788907,10.4067028 C47.6937773,8.40322394 47.3484165,6.4239 47.3484165,4.42042113 L47.3484165,6.90140845e-05 L51.8650454,6.90140845e-05 L51.8650454,17.3598718 L47.3484165,17.3598718 L43.845767,7.34454789 L43.7994887,7.39078732 C43.9155299,9.02504085 44.1227464,10.6372099 44.1227464,12.2714634 L44.1227464,17.3598718 L39.6061175,17.3598718 L39.6061175,6.90140845e-05 Z" id="Fill-2006"></path>
                <path d="M9.27100412,27.3052845 L8.9256433,27.3287493 L8.9256433,31.3343268 C10.2159113,31.4033408 11.0226742,30.6897352 11.0226742,29.4005521 C11.0226742,28.2949465 10.4231278,27.3052845 9.27100412,27.3052845 L9.27100412,27.3052845 Z M4.22459175,40.9348761 L4.22459175,23.5757634 L8.51051959,23.5757634 C12.6120247,23.5757634 15.7693134,24.9111859 15.7693134,29.4695662 C15.7693134,33.981707 13.0036639,35.363369 8.9256433,35.2488056 L8.9256433,40.9348761 L4.22459175,40.9348761 Z" id="Fill-2007"></path>
                <path d="M22.3152825,35.0180225 L21.8082928,30.9889803 C21.6694577,29.9075296 21.5775918,28.8019239 21.462932,27.7197831 L21.4166536,27.7197831 C21.2785093,28.8019239 21.1631588,29.9075296 20.9787361,30.9889803 L20.3329113,35.0180225 L22.3152825,35.0180225 Z M23.2139113,40.9346 L22.8678598,38.7013042 L19.7112619,38.7013042 L19.3196227,40.9346 L14.4804268,40.9346 L18.6510041,23.5754873 L24.3888289,23.5754873 L28.075901,40.9346 L23.2139113,40.9346 Z" id="Fill-2008"></path>
                <path d="M33.4662237,31.6107972 C34.7109041,31.6107972 35.378832,30.5286563 35.378832,29.4009662 C35.378832,27.8812761 34.4567186,27.2359944 33.1671412,27.3050085 L33.1671412,31.5873324 L33.4662237,31.6107972 Z M35.7476773,40.9346 L33.1436567,33.7060648 L33.0980691,33.7523042 C33.1208629,34.603938 33.1671412,35.456262 33.1671412,36.3072056 L33.1671412,40.9346 L28.4660897,40.9346 L28.4660897,23.5754873 L33.0055124,23.5754873 C37.0842237,23.5754873 40.0336052,24.7728817 40.0336052,29.3547268 C40.0336052,31.2650366 39.2040485,32.9689944 37.3377186,33.7060648 L40.8396773,40.9346 L35.7476773,40.9346 Z" id="Fill-2009"></path>
                <polygon id="Fill-2010" points="42.5479701 40.9348761 42.5479701 27.8118479 39.967434 27.8118479 39.967434 23.5757634 49.9442175 23.5757634 49.9442175 27.8118479 47.2483309 27.8118479 47.2483309 40.9348761"></polygon>
                <polygon id="Fill-2011" points="53.7681216 40.9348761 53.7681216 33.5683127 49.4821938 23.5757634 54.3669773 23.5757634 55.9805031 28.9402282 56.0260907 28.9402282 57.6624103 23.5757634 62.5244 23.5757634 58.4684825 33.5683127 58.4684825 40.9348761"></polygon>
                <path d="M5.00013402,55.1859394 C6.24481443,55.1859394 6.91274227,54.1037986 6.91274227,52.9761085 C6.91274227,51.4564183 5.99062887,50.8118268 4.70105155,50.8808408 L4.70105155,55.1631648 L5.00013402,55.1859394 Z M7.28158763,64.5104324 L4.67756701,57.281207 L4.63128866,57.3274465 C4.6547732,58.1790803 4.70105155,59.0314042 4.70105155,59.8823479 L4.70105155,64.5104324 L0,64.5104324 L0,47.1513197 L4.53942268,47.1513197 C8.61813402,47.1513197 11.5675155,48.3487141 11.5675155,52.929869 C11.5675155,54.840869 10.7379588,56.5441366 8.87162887,57.281207 L12.3735876,64.5104324 L7.28158763,64.5104324 Z" id="Fill-2012"></path>
                <polygon id="Fill-2013" points="12.7642598 47.1512507 21.4970536 47.1512507 21.4970536 51.249307 17.4646206 51.249307 17.4646206 53.6668704 21.0826206 53.6668704 21.0826206 57.7649268 17.4646206 57.7649268 17.4646206 60.412307 21.4970536 60.412307 21.4970536 64.5103634 12.7642598 64.5103634"></polygon>
                <path d="M28.1549887,50.8809099 L27.8096278,50.9036845 L27.8096278,54.9099521 C29.0998959,54.9789662 29.905968,54.2653606 29.905968,52.9761775 C29.905968,51.8705718 29.3078031,50.8809099 28.1549887,50.8809099 L28.1549887,50.8809099 Z M23.1085763,64.5105014 L23.1085763,47.1513887 L27.3951948,47.1513887 C31.4960093,47.1513887 34.6532979,48.4861211 34.6532979,53.0451915 C34.6532979,57.5573324 31.8876485,58.9389944 27.8096278,58.8237408 L27.8096278,64.5105014 L23.1085763,64.5105014 Z" id="Fill-2014"></path>
                <polygon id="Fill-2015" points="35.4126082 47.1512507 44.1454021 47.1512507 44.1454021 51.249307 40.1129691 51.249307 40.1129691 53.6668704 43.7309691 53.6668704 43.7309691 57.7649268 40.1129691 57.7649268 40.1129691 60.412307 44.1454021 60.412307 44.1454021 64.5103634 35.4126082 64.5103634"></polygon>
                <path d="M52.3931021,58.5937859 L51.8861124,54.5647437 C51.747968,53.4826028 51.6561021,52.3769972 51.5407515,51.2955465 L51.4944732,51.2955465 C51.3563289,52.3769972 51.2409784,53.4826028 51.0572464,54.5647437 L50.4121124,58.5937859 L52.3931021,58.5937859 Z M53.2917309,64.5103634 L52.9463701,62.2770676 L49.7890814,62.2770676 L49.398133,64.5103634 L44.5589371,64.5103634 L48.7295144,47.1512507 L54.4673392,47.1512507 L58.1537206,64.5103634 L53.2917309,64.5103634 Z" id="Fill-2016"></path>
                <polygon id="Fill-2017" points="59.0071763 64.5105014 59.0071763 51.3867831 56.4266402 51.3867831 56.4266402 47.1513887 66.4034237 47.1513887 66.4034237 51.3867831 63.7075371 51.3867831 63.7075371 64.5105014"></polygon>
            </g>
        </g>
    </g>
</svg>