<?xml version="1.0" encoding="UTF-8"?>
<svg width="89px" height="69px" viewBox="0 0 89 69" version="1.1" xmlns="http://www.w3.org/2000/svg" xmlns:xlink="http://www.w3.org/1999/xlink">
    <!-- Generator: Sketch 48.1 (47250) - http://www.bohemiancoding.com/sketch -->
    <title>sticker_btg_black</title>
    <desc>Created with Sketch.</desc>
    <defs></defs>
    <g id="stickers-white" stroke="none" stroke-width="1" fill="none" fill-rule="evenodd" transform="translate(-144.000000, -492.000000)">
        <g id="sticker_btg_black" transform="translate(144.000000, 492.000000)" fill-rule="nonzero">
            <g id="Asset-2">
                <g id="Layer_2">
                    <g id="Layer_1-2">
                        <polygon id="Shape" fill="#000000" points="31.0690385 56.7803226 29.9751923 56.7803226 29.9751923 34.9433065 26.5569231 34.9433065 26.5569231 0.909241935 0.760384615 0.909241935 0.760384615 63.410629 2.03653846 63.410629 2.03653846 68.4342742 2.92528846 68.4342742 29.9751923 68.4342742 31.2513462 68.4342742 31.2513462 60.3783387 59.9192308 60.3783387 59.9192308 3.24003226 31.0690385 3.24003226"></polygon>
                        <rect id="Rectangle-path" fill="#000000" x="62.6310577" y="1.27130645" width="26.3434615" height="61.4378226"></rect>
                        <g id="Group" transform="translate(3.278846, 4.525806)" fill="#FFFFFF">
                            <path d="M18.9938462,30.4175 C18.4062858,29.8655946 17.7650734,29.3728895 17.0796154,28.9466129 C19.3198876,27.8602291 20.7869722,25.6489833 20.9080769,23.1762097 L20.9080769,11.1149355 C21.060092,8.54685776 20.0876463,6.03873731 18.2405716,4.23493729 C16.393497,2.43113728 13.851832,1.50747822 11.2685577,1.70125806 L0.102211538,1.70125806 L0.102211538,30.5306452 L1.53788462,30.5306452 L1.53788462,57.097129 L13.2511538,57.097129 C17.5353846,57.097129 22.3665385,54.8342258 22.3665385,48.3170645 L22.3665385,30.4175 L18.9938462,30.4175 Z M9.21759615,10.1645161 L10.5393269,10.1645161 C11.4964423,10.1645161 12.0889423,10.798129 12.0889423,12.4274194 L12.0889423,22.7462581 C12.0889423,24.3302903 11.4964423,25.0091613 10.5393269,25.0091613 L9.21759615,25.0091613 L9.21759615,10.1645161 Z M12.4991346,49.3127419 L10.5393269,49.3127419 L10.5393269,30.5306452 L14.1171154,30.5306452 L14.1171154,47.2987581 C14.1171154,48.7696452 13.5246154,49.358 12.5219231,49.358 L12.4991346,49.3127419 Z" id="Shape"></path>
                            <polygon id="Shape" points="44.0383654 9.03306452 44.0383654 52.0961129 36.1535577 52.0961129 36.1535577 9.03306452 28.8840385 9.03306452 28.8840385 1.27130645 51.2395192 1.27130645 51.2395192 9.03306452"></polygon>
                            <path d="M77.8336538,52.2771452 L77.1272115,51.2362097 C75.511895,52.3909569 73.5559679,52.9799979 71.5668269,52.9107581 C66.0975962,52.9107581 62.5653846,49.2448548 62.5653846,43.4518226 L62.5653846,9.50827419 C62.8198547,4.22439785 67.2081522,0.0702134478 72.5353365,0.0702134478 C77.8625209,0.0702134478 82.2508184,4.22439785 82.5052885,9.50827419 L82.5052885,20.8227903 L74.2558654,20.8227903 L74.2558654,9.80245161 C74.2558654,8.87762408 73.5008625,8.12790323 72.5695192,8.12790323 C71.638176,8.12790323 70.8831731,8.87762408 70.8831731,9.80245161 L70.8831731,43.9044032 C70.8831731,44.8292308 71.638176,45.5789516 72.5695192,45.5789516 C73.5008625,45.5789516 74.2558654,44.8292308 74.2558654,43.9044032 L74.2558654,33.925 L72.5695192,33.925 L72.5695192,27.1362903 L82.8926923,27.1362903 L82.8926923,52.2771452 L77.8336538,52.2771452 Z" id="Shape"></path>
                        </g>
                    </g>
                </g>
            </g>
        </g>
    </g>
</svg>