<?xml version="1.0" encoding="UTF-8"?>
<svg width="114px" height="89px" viewBox="0 0 114 89" version="1.1" xmlns="http://www.w3.org/2000/svg" xmlns:xlink="http://www.w3.org/1999/xlink">
    <!-- Generator: Sketch 42 (36781) - http://www.bohemiancoding.com/sketch -->
    <title>nbro</title>
    <desc>Created with Sketch.</desc>
    <defs></defs>
    <g id="Page-1" stroke="none" stroke-width="1" fill="none" fill-rule="evenodd">
        <g id="stickers-black" transform="translate(-30.000000, -30.000000)" fill="#FFFFFF">
            <g id="nbro" transform="translate(30.000000, 30.000000)">
                <path d="M70.7908,20.4695 C71.1588,20.5325 71.4598,21.6575 71.4598,22.9705 L71.4598,27.7435 L71.4598,32.5165 L71.4598,37.2895 C71.4598,38.6025 71.1588,39.6765 70.7908,39.6765 L69.4538,39.6765 L68.1158,39.6765 L66.7788,39.6765 C66.4108,39.6765 66.1098,38.5505 66.1098,37.1755 L66.1098,32.1735 L66.1098,27.1715 L66.1098,22.1695 C66.1098,20.7945 66.4108,19.7205 66.7788,19.7835 C67.1468,19.8465 67.7478,19.9495 68.1158,20.0125 C68.4838,20.0745 69.0858,20.1775 69.4538,20.2405 C69.8208,20.3035 70.4228,20.4065 70.7908,20.4695 Z" id="Fill-1"></path>
                <path d="M42.7039,35.5834 L44.0279,35.5834 L45.3519,35.5834 L46.6759,35.5834 C47.0399,35.5834 47.3379,34.6884 47.3379,33.5944 L47.3379,29.6154 L47.3379,25.6364 L47.3379,21.6584 C47.3379,20.5644 47.0399,19.7214 46.6759,19.7854 C46.3119,19.8504 45.7159,19.9554 45.3519,20.0194 C44.9879,20.0834 44.3919,20.1884 44.0279,20.2524 C43.6639,20.3174 43.0679,20.4224 42.7039,20.4864 C42.3399,20.5504 42.0419,21.4454 42.0419,22.4754 L42.0419,26.2204 L42.0419,29.9654 L42.0419,33.7114 C42.0419,34.7404 42.3399,35.5834 42.7039,35.5834" id="Fill-3"></path>
                <path d="M46.6772,41.2685 L45.3532,41.2685 L44.0292,41.2685 L42.7052,41.2685 C42.3412,41.2685 42.0432,42.5015 42.0432,44.0075 L42.0432,49.4855 L42.0432,54.9635 L42.0432,60.4415 C42.0432,61.9475 42.3412,63.3055 42.7052,63.4585 C43.0692,63.6115 43.6652,63.8615 44.0292,64.0135 C44.3932,64.1665 44.9892,64.4165 45.3532,64.5695 C45.7172,64.7225 46.3132,64.9725 46.6772,65.1255 C47.0412,65.2775 47.3392,64.0455 47.3392,62.3865 L47.3392,56.3525 L47.3392,50.3185 L47.3392,44.2855 C47.3392,42.6265 47.0412,41.2685 46.6772,41.2685" id="Fill-5"></path>
                <path d="M59.5955,66.6648 C59.5955,66.7218 59.5955,66.7248 59.5955,66.6648" id="Fill-7"></path>
                <path d="M94.6842,28.2733 C94.2782,28.1703 93.6132,28.0013 93.2062,27.8973 C92.8002,27.7943 92.1352,27.6253 91.7292,27.5223 C91.3232,27.4183 90.6582,27.2493 90.2512,27.1463 C89.8452,27.0433 89.5122,28.5723 89.5122,30.5453 L89.5122,37.7183 L89.5122,44.8913 L89.5122,52.0643 C89.5122,54.0373 89.8452,55.5213 90.2512,55.3613 C90.6582,55.2023 91.3232,54.9423 91.7292,54.7833 C92.1352,54.6233 92.8002,54.3633 93.2062,54.2043 C93.6132,54.0443 94.2782,53.7843 94.6842,53.6253 C95.0902,53.4663 95.4232,51.9363 95.4232,50.2263 L95.4232,44.0073 L95.4232,37.7893 L95.4232,31.5703 C95.4232,29.8603 95.0902,28.3763 94.6842,28.2733" id="Fill-9"></path>
                <path d="M101.1063,29.8377 L101.1063,37.1027 L101.1063,37.3057 L101.1063,44.5707 L101.1063,44.7737 L101.1063,52.0387 L101.1063,52.2417 C101.1063,54.2397 101.0623,55.9897 101.0083,56.1307 C100.9543,56.2727 100.8663,56.5037 100.8123,56.6447 C100.7583,56.7867 100.6703,57.0177 100.6163,57.1587 C100.5623,57.3007 100.4733,57.5317 100.4193,57.6727 C100.3663,57.8147 99.5933,58.2167 98.7033,58.5667 C97.8143,58.9177 96.3583,59.4907 95.4683,59.8407 C94.5783,60.1917 93.1223,60.7647 92.2323,61.1147 C91.3423,61.4657 89.8863,62.0387 88.9963,62.3887 C88.1063,62.7397 87.1803,62.8497 86.9373,62.6347 C86.6943,62.4197 86.2973,62.0687 86.0553,61.8537 C85.8123,61.6387 85.4153,61.2867 85.1723,61.0717 C84.9293,60.8567 84.5323,60.5057 84.2893,60.2907 C84.0473,60.0757 83.8483,58.2647 83.8483,56.2667 L83.8483,54.3347 L83.8483,47.0697 L83.8483,45.1367 L83.8483,37.8727 L83.8483,35.9397 L83.8483,28.6747 L83.8483,26.7427 C83.8483,24.7447 84.0473,22.9327 84.2893,22.7167 C84.5323,22.5007 84.9293,22.1457 85.1723,21.9297 C85.4143,21.7137 85.8123,21.3597 86.0543,21.1427 C86.2973,20.9267 86.6943,20.5727 86.9373,20.3557 C87.1793,20.1397 87.3783,19.9627 87.3783,19.9627 L87.3783,19.9627 L87.3793,19.9627 L87.3793,19.9627 C87.3793,19.9627 88.0703,20.1567 88.9153,20.3947 C89.7593,20.6317 91.1413,21.0207 91.9853,21.2577 C92.8303,21.4957 94.2113,21.8847 95.0563,22.1217 C95.9003,22.3597 97.2823,22.7477 98.1273,22.9857 C98.9713,23.2237 99.7413,23.5577 99.8373,23.7287 C99.9333,23.8987 100.0913,24.1787 100.1873,24.3497 C100.2843,24.5207 100.4413,24.7997 100.5383,24.9707 C100.6343,25.1417 100.7913,25.4217 100.8883,25.5927 C100.9843,25.7627 101.0633,25.9027 101.0633,25.9027 C101.0703,25.9097 101.0723,25.9127 101.0753,25.9167 C101.0783,25.9207 101.0883,25.9347 101.0903,25.9397 C101.0933,25.9437 101.0993,25.9597 101.1013,25.9647 C101.1023,25.9697 101.1053,25.9877 101.1053,25.9927 C101.1063,25.9977 101.1063,27.6367 101.1063,29.6347 L101.1063,29.8377 Z M82.4943,67.7107 C82.4923,67.7167 82.4853,67.7347 82.4823,67.7397 C82.4793,67.7447 82.4673,67.7607 82.4633,67.7647 C82.4593,67.7687 82.4443,67.7807 82.4393,67.7837 C82.4343,67.7867 82.4163,67.7947 82.4113,67.7967 C82.4053,67.7977 82.3863,67.8027 82.3803,67.8027 C82.3743,67.8027 82.0793,67.9117 81.7253,68.0437 C81.3713,68.1757 80.7923,68.3917 80.4383,68.5237 C80.0843,68.6557 79.5043,68.8717 79.1503,69.0037 C78.7963,69.1357 78.2173,69.3517 77.8633,69.4837 C77.5093,69.6157 76.6723,68.4347 76.0033,66.8587 C75.3343,65.2827 74.2403,62.7047 73.5713,61.1287 C72.9023,59.5537 71.8083,56.9747 71.1393,55.3997 C70.4703,53.8237 69.3763,51.2457 68.7073,49.6697 C68.0383,48.0937 67.4133,46.8047 67.3183,46.8047 L66.9733,46.8047 L66.6273,46.8047 L66.2823,46.8047 C66.1873,46.8047 66.1093,48.3257 66.1093,50.1837 L66.1093,56.9427 L66.1093,57.7667 L66.1093,57.7997 L66.1093,58.6267 L66.1093,62.8967 C66.1093,64.7557 66.1093,66.2877 66.1083,66.2927 C66.1073,66.2967 66.1033,66.3127 66.1023,66.3167 C66.1003,66.3217 66.0933,66.3357 66.0903,66.3397 C66.0883,66.3437 66.0793,66.3577 66.0753,66.3607 C66.0723,66.3637 66.0613,66.3747 66.0573,66.3777 C66.0533,66.3807 66.0393,66.3897 66.0353,66.3917 C66.0313,66.3937 66.0163,66.3997 66.0123,66.4007 C66.0073,66.4017 65.9913,66.4047 65.9873,66.4047 C65.9823,66.4047 65.6253,66.4757 65.1923,66.5607 C64.7603,66.6467 64.0523,66.7867 63.6203,66.8717 C63.1873,66.9577 62.4803,67.0977 62.0473,67.1827 C61.6153,67.2687 60.9073,67.4087 60.4753,67.4947 C60.0423,67.5797 59.6763,67.6497 59.6713,67.6487 C59.6663,67.6477 59.6513,67.6447 59.6463,67.6427 C59.6423,67.6407 59.6273,67.6347 59.6233,67.6317 C59.6193,67.6297 59.6063,67.6207 59.6023,67.6177 C59.5993,67.6147 59.5893,67.4307 59.5883,67.2167 C59.5873,67.0027 59.5863,66.2037 59.5863,65.9677 C59.5873,65.7317 59.5903,65.2167 59.5913,65.2417 C59.5923,65.2657 59.5943,65.9597 59.5953,66.5187 C59.5953,66.1327 59.5943,65.2157 59.5933,63.9797 L59.5893,61.6267 C59.5883,59.6287 59.5853,59.3887 59.5843,57.3917 L59.5803,50.5047 C59.5783,48.5077 59.5763,45.2387 59.5753,43.2407 L59.5703,36.3547 C59.5693,34.3567 59.5673,31.0877 59.5663,29.0897 L59.5613,22.2037 C59.5603,20.2057 59.5603,16.7667 59.5603,16.2617 C59.5613,15.7577 59.5653,14.3607 59.5663,14.1177 C59.5683,13.8757 59.5743,13.2617 59.5763,13.1867 C59.5793,13.1117 59.5873,12.9537 59.5903,12.9497 C59.5933,12.9467 59.6053,12.9357 59.6093,12.9327 C59.6133,12.9297 59.6273,12.9217 59.6313,12.9187 C59.6353,12.9167 59.6503,12.9117 59.6543,12.9097 C59.6593,12.9087 59.6753,12.9057 59.6803,12.9057 C59.6843,12.9057 60.4683,13.0197 61.4203,13.1597 C62.3733,13.2987 63.9323,13.5277 64.8853,13.6677 C65.8383,13.8067 67.3973,14.0357 68.3503,14.1757 C69.3023,14.3147 70.8613,14.5437 71.8143,14.6837 C72.7673,14.8227 73.5573,14.9417 73.5613,14.9427 C73.5653,14.9447 73.5793,14.9497 73.5833,14.9517 C73.5873,14.9527 73.6013,14.9577 73.6053,14.9597 C73.6093,14.9607 73.6233,14.9667 73.6273,14.9677 C73.6313,14.9697 73.8283,15.1437 74.0653,15.3547 C74.3023,15.5667 74.6893,15.9127 74.9263,16.1237 C75.1633,16.3347 75.5513,16.6807 75.7873,16.8927 C76.0243,17.1037 76.4123,17.4497 76.6493,17.6617 C76.8863,17.8727 77.0853,18.0577 77.0873,18.0627 C77.0893,18.0667 77.0963,18.0827 77.0983,18.0867 C77.1003,18.0907 77.1073,18.1067 77.1093,18.1107 C77.1113,18.1157 77.1183,18.1307 77.1203,18.1357 C77.1223,18.1397 77.1233,19.5507 77.1233,21.2697 L77.1233,27.5217 L77.1233,33.7737 L77.1233,40.0257 C77.1233,41.7447 77.1183,43.1637 77.1163,43.1677 C77.1143,43.1717 77.1083,43.1867 77.1063,43.1917 C77.1043,43.1957 77.0983,43.2107 77.0963,43.2147 C77.0943,43.2197 77.0873,43.2347 77.0853,43.2387 C77.0833,43.2437 76.8783,43.4377 76.6283,43.6707 C76.3793,43.9037 75.9713,44.2857 75.7213,44.5187 C75.4723,44.7517 75.0643,45.1327 74.8143,45.3657 C74.5653,45.5987 74.1573,45.9807 73.9073,46.2137 C73.6583,46.4467 73.9623,47.8187 74.5843,49.2617 C75.2053,50.7047 76.2223,53.0667 76.8433,54.5097 C77.4653,55.9537 78.4813,58.3147 79.1033,59.7587 C79.7243,61.2017 80.7413,63.5637 81.3623,65.0067 C81.9843,66.4497 82.4923,67.6307 82.4923,67.6307 C82.4963,67.6407 82.4963,67.6447 82.4973,67.6507 C82.4983,67.6557 82.5003,67.6757 82.4993,67.6807 C82.4993,67.6867 82.4963,67.7057 82.4943,67.7107 L82.4943,67.7107 Z M62.1293,74.3967 C61.1333,74.7847 59.6343,75.2667 59.1583,74.3267 C58.7903,73.7737 59.0733,72.9277 59.5713,72.1117 C59.8873,71.5917 60.2263,71.2597 60.6403,70.7807 C60.4723,71.2937 60.0953,72.1327 60.7763,72.7197 C61.2273,73.0337 61.7413,72.9507 62.6953,72.7407 L71.2283,70.4347 L62.1293,74.3967 Z M53.0193,23.4807 L53.0193,28.4337 L53.0193,33.3867 L53.0193,35.8627 C53.0193,35.8707 53.0193,35.8737 53.0183,35.8777 C53.0183,35.8817 53.0153,35.8957 53.0143,35.8997 C53.0133,35.9037 53.0083,35.9167 53.0063,35.9207 C53.0043,35.9237 52.9973,35.9367 52.9953,35.9397 C52.9923,35.9427 52.8773,36.0837 52.7383,36.2527 C52.5993,36.4207 52.3723,36.6967 52.2333,36.8657 C52.0953,37.0347 51.8683,37.3107 51.7293,37.4787 C51.5903,37.6477 51.3633,37.9237 51.2243,38.0917 C51.0853,38.2607 51.0853,38.5397 51.2243,38.7117 C51.3633,38.8837 51.5903,39.1657 51.7283,39.3387 C51.8673,39.5107 52.0943,39.7927 52.2323,39.9647 C52.3713,40.1367 52.5983,40.4187 52.7373,40.5907 C52.8753,40.7627 52.9933,40.9147 52.9933,40.9147 C52.9953,40.9227 53.0003,40.9357 53.0003,40.9357 C53.0033,40.9437 53.0083,40.9567 53.0093,40.9607 C53.0103,40.9647 53.0153,40.9777 53.0163,40.9817 C53.0183,40.9857 53.0193,42.6157 53.0193,44.6037 L53.0193,51.8337 L53.0193,59.0627 L53.0193,66.2927 C53.0193,68.2807 52.8193,70.0827 52.5763,70.2977 C52.3323,70.5127 51.9333,70.8647 51.6893,71.0797 C51.4453,71.2937 51.0463,71.6457 50.8023,71.8607 C50.5593,72.0757 50.1603,72.4267 49.9163,72.6417 C49.6723,72.8567 48.7433,72.7967 47.8523,72.5087 C46.9603,72.2207 45.5023,71.7507 44.6103,71.4627 C43.7193,71.1747 42.2603,70.7037 41.3693,70.4157 C40.4783,70.1287 39.0193,69.6577 38.1283,69.3697 C37.2363,69.0817 36.4953,68.8457 36.4903,68.8447 C36.4863,68.8447 36.4703,68.8407 36.4663,68.8387 C36.4613,68.8377 36.4473,68.8307 36.4433,68.8287 C36.4393,68.8257 36.4263,68.8167 36.4223,68.8137 C36.4193,68.8107 36.4083,68.7987 36.4053,68.7947 C36.4023,68.7917 36.3933,68.7777 36.3913,68.7737 C36.3893,68.7697 36.3833,68.7547 36.3823,68.7497 C36.3813,68.7457 36.3783,68.7297 36.3783,68.7257 L36.3783,65.0847 L36.3783,58.9367 L36.3783,51.6717 L36.3783,45.5237 L36.3783,38.2597 L36.3783,32.1117 L36.3783,24.8467 L36.3783,18.6987 C36.3783,16.7007 36.3783,15.0547 36.3793,15.0497 C36.3803,15.0457 36.3833,15.0297 36.3853,15.0257 C36.3863,15.0207 36.3933,15.0067 36.3953,15.0027 C36.3983,14.9987 36.4073,14.9857 36.4103,14.9817 C36.4133,14.9787 36.4253,14.9677 36.4293,14.9647 C36.4323,14.9617 36.4463,14.9527 36.4503,14.9507 C36.4543,14.9487 36.4693,14.9427 36.4743,14.9417 C36.4783,14.9407 36.4943,14.9377 36.4993,14.9377 C36.5033,14.9377 37.2363,14.8227 38.1283,14.6837 C39.0193,14.5437 40.4783,14.3147 41.3693,14.1757 C42.2613,14.0357 43.7193,13.8067 44.6113,13.6677 C45.5023,13.5277 46.9613,13.2987 47.8523,13.1597 C48.7433,13.0197 49.6723,13.0827 49.9163,13.2987 C50.1603,13.5147 50.5593,13.8687 50.8033,14.0847 C51.0463,14.3017 51.4453,14.6557 51.6893,14.8717 C51.9333,15.0877 52.3323,15.4417 52.5763,15.6577 C52.8193,15.8747 53.0193,17.1657 53.0193,18.5277 L53.0193,23.4807 Z M29.6463,67.1327 C29.6453,67.1387 29.6383,67.1587 29.6353,67.1637 C29.6333,67.1697 29.6213,67.1867 29.6173,67.1917 C29.6133,67.1957 29.5973,67.2097 29.5923,67.2137 C29.5873,67.2167 29.5693,67.2267 29.5633,67.2287 C29.5573,67.2307 29.5373,67.2347 29.5313,67.2357 C29.5253,67.2357 29.2383,67.0967 28.8933,66.9267 C28.5493,66.7567 27.9853,66.4787 27.6403,66.3077 C27.2953,66.1377 26.7313,65.8597 26.3873,65.6897 C26.0423,65.5187 25.4783,65.2407 25.1333,65.0707 C24.7893,64.9007 24.1373,63.2747 23.6843,61.4577 C23.2323,59.6417 22.4913,56.6687 22.0393,54.8527 C21.5873,53.0357 20.8463,50.0637 20.3943,48.2467 C19.9423,46.4297 19.2013,43.4577 18.7493,41.6407 C18.2963,39.8247 17.9493,39.6637 17.9773,41.2837 C18.0043,42.9047 18.0503,45.5557 18.0783,47.1767 C18.1053,48.7967 18.1513,51.4487 18.1793,53.0687 C18.2063,54.6887 18.2523,57.3407 18.2803,58.9607 C18.3073,60.5807 18.3293,61.9187 18.3293,61.9237 L18.3233,61.9477 C18.3213,61.9527 18.3143,61.9667 18.3123,61.9707 C18.3093,61.9747 18.2993,61.9887 18.2963,61.9917 C18.2933,61.9947 18.2813,62.0067 18.2773,62.0087 C18.2743,62.0117 18.2603,62.0207 18.2563,62.0227 C18.2523,62.0247 18.2373,62.0307 18.2333,62.0317 C18.2283,62.0327 18.2133,62.0357 18.2083,62.0357 C18.2033,62.0357 17.8733,61.9037 17.4753,61.7427 C17.0773,61.5807 16.4263,61.3157 16.0283,61.1537 C15.6303,60.9927 14.9783,60.7277 14.5803,60.5657 C14.1823,60.4047 13.5313,60.1397 13.1333,59.9777 C12.7353,59.8157 12.3973,59.6827 12.3923,59.6827 C12.3883,59.6817 12.3723,59.6777 12.3683,59.6767 C12.3633,59.6747 12.3493,59.6687 12.3453,59.6657 C12.3413,59.6637 12.3283,59.6547 12.3243,59.6507 C12.3213,59.6477 12.3093,59.6367 12.3063,59.6327 C12.3063,59.6327 12.2953,59.6157 12.2933,59.6107 C12.2913,59.6067 12.2853,59.5917 12.2843,59.5877 C12.2833,59.5827 12.2803,59.5677 12.2803,59.5627 L12.2803,55.9217 L12.2803,54.0297 L12.2803,46.7647 L12.2803,44.8717 L12.2803,37.6077 L12.2803,35.7147 L12.2803,28.4497 L12.2803,26.5567 C12.2803,24.5587 12.2803,22.9127 12.2813,22.9077 C12.2813,22.9037 12.2853,22.8877 12.2863,22.8837 C12.2883,22.8787 12.2943,22.8647 12.2973,22.8607 C12.2993,22.8567 12.3093,22.8437 12.3123,22.8397 C12.3153,22.8367 12.3273,22.8257 12.3313,22.8227 C12.3343,22.8197 12.3483,22.8117 12.3523,22.8087 C12.3563,22.8067 12.3713,22.8017 12.3763,22.7997 C12.3803,22.7987 12.3963,22.7957 12.4013,22.7957 C12.4053,22.7957 12.7163,22.7237 13.0923,22.6367 C13.4683,22.5497 14.0833,22.4077 14.4593,22.3207 C14.8353,22.2337 15.4503,22.0917 15.8263,22.0047 C16.2023,21.9177 16.8173,21.7757 17.1923,21.6887 C17.5683,21.6017 18.2403,22.6767 18.6853,24.0787 C19.1293,25.4807 19.8573,27.7747 20.3023,29.1767 C20.7473,30.5787 21.4753,32.8727 21.9203,34.2737 C22.3643,35.6757 23.0923,37.9697 23.5373,39.3717 C23.9823,40.7737 24.3273,40.6607 24.3033,39.1197 C24.2803,37.5797 24.2413,35.0587 24.2183,33.5177 C24.1943,31.9777 24.1563,29.4567 24.1323,27.9167 C24.1093,26.3757 24.0703,23.8547 24.0473,22.3147 C24.0233,20.7747 24.0053,19.5017 24.0053,19.4967 C24.0063,19.4927 24.0093,19.4767 24.0113,19.4727 C24.0123,19.4687 24.0193,19.4537 24.0213,19.4497 C24.0243,19.4457 24.0333,19.4327 24.0363,19.4287 C24.0403,19.4257 24.0513,19.4147 24.0553,19.4117 C24.0583,19.4087 24.0723,19.4007 24.0763,19.3987 C24.0803,19.3967 24.0953,19.3907 24.0993,19.3887 C24.1043,19.3877 24.1193,19.3847 24.1243,19.3847 C24.1283,19.3847 24.4343,19.3127 24.8033,19.2257 C25.1723,19.1387 25.7773,18.9967 26.1463,18.9097 C26.5153,18.8227 27.1193,18.6797 27.4883,18.5927 C27.8583,18.5057 28.4623,18.3637 28.8313,18.2767 C29.2003,18.1897 29.5143,18.1187 29.5193,18.1197 C29.5233,18.1197 29.5393,18.1237 29.5433,18.1257 C29.5483,18.1267 29.5623,18.1337 29.5663,18.1357 C29.5703,18.1387 29.5843,18.1477 29.5873,18.1507 C29.5913,18.1537 29.6023,18.1657 29.6043,18.1687 C29.6073,18.1727 29.6153,18.1867 29.6173,18.1907 C29.6193,18.1947 29.6253,18.2097 29.6263,18.2137 C29.6273,18.2187 29.6303,18.2347 29.6303,18.2387 L29.6303,21.8797 L29.6303,26.8127 L29.6303,34.0777 L29.6303,39.0117 L29.6303,46.2757 L29.6303,51.2097 L29.6303,58.4737 L29.6303,63.4077 C29.6303,65.4057 29.6313,67.0407 29.6313,67.0407 L29.6333,67.0427 L29.6343,67.0447 L29.6363,67.0467 L29.6363,67.0477 C29.6413,67.0577 29.6433,67.0627 29.6443,67.0687 C29.6463,67.0747 29.6493,67.0947 29.6493,67.1007 C29.6493,67.1067 29.6483,67.1267 29.6463,67.1327 L29.6463,67.1327 Z M104.4743,17.4017 C103.0353,16.9157 97.2993,15.1437 95.5363,14.6217 C93.7743,14.0997 88.0363,12.4637 86.4613,12.0247 C84.8863,11.5867 80.0593,10.2407 78.1393,9.6877 C78.1393,9.6877 77.1273,9.3957 76.4703,9.1857 C75.8123,8.9767 75.1553,8.7757 74.4983,8.5877 C73.8423,8.3997 73.1863,8.2237 72.5303,8.0637 L71.8753,7.9037 C71.1553,7.7557 70.4083,7.6037 70.2153,7.5657 L69.5663,7.4607 C68.9173,7.3567 67.9693,7.2167 66.7743,7.0767 C65.5793,6.9367 64.1363,6.7967 62.4983,6.6897 C60.8603,6.5837 59.0263,6.3047 57.0483,6.3007 C57.0183,6.3007 56.9893,6.2997 56.9593,6.2997 C56.9303,6.2987 56.9003,6.2987 56.8703,6.2977 C56.8403,6.2977 56.8103,6.2967 56.7813,6.2967 C56.7513,6.2967 56.7223,6.2957 56.6933,6.2957 C56.6633,6.2957 56.6343,6.2967 56.6053,6.2967 C56.5753,6.2967 56.5453,6.2977 56.5153,6.2977 C56.4863,6.2987 56.4563,6.2987 56.4263,6.2997 C56.3973,6.2997 56.3673,6.3007 56.3383,6.3007 C54.3593,6.3047 52.5253,6.5837 50.8873,6.6897 C49.2493,6.7967 47.8073,6.9367 46.6123,7.0767 C45.4163,7.2167 44.4693,7.3567 43.8193,7.4607 C43.1703,7.5657 42.8203,7.6347 42.8203,7.6347 L42.1663,7.7597 C41.4523,7.9367 40.2863,8.2437 39.5743,8.4407 L38.9233,8.6367 C38.2723,8.8337 33.7253,10.1597 31.7563,10.6937 C29.7883,11.2277 27.5603,11.8477 27.5603,11.8477 C25.6363,12.3837 22.4903,13.2717 20.5693,13.8217 C20.5693,13.8217 17.7603,14.6247 14.6443,15.5717 C11.5283,16.5177 8.5903,17.4597 6.2953,18.2857 L6.2953,25.7627 L6.2953,33.0277 L6.2953,36.8727 L6.2953,44.1367 L6.2953,47.9827 L6.2953,55.2467 L6.2953,59.0917 C6.2953,61.0897 6.7383,62.9477 7.2793,63.2207 C7.8213,63.4937 12.9263,65.9247 14.7363,66.7717 L20.7933,69.4837 C22.6193,70.2947 25.6243,71.5827 27.4703,72.3457 C27.4703,72.3457 34.8283,75.3887 40.4713,77.3417 C46.1133,79.2947 51.7333,80.9297 56.6933,81.8217 C61.7223,80.9037 67.3863,79.2507 73.0543,77.2887 C78.7223,75.3257 84.3933,73.0537 89.4353,70.8957 C94.4783,68.7377 98.7563,66.7327 98.7563,66.7327 C100.5653,65.8857 103.1803,64.6367 104.5683,63.9577 C105.9553,63.2797 107.0913,61.0897 107.0913,59.0917 L107.0913,55.2467 L107.0913,47.9827 L107.0913,44.1367 L107.0913,36.8727 L107.0913,33.0277 L107.0913,25.7627 L107.0913,21.9177 C107.0913,19.9197 105.9133,17.8877 104.4743,17.4017 L104.4743,17.4017 Z" id="Fill-11"></path>
                <path d="M3.098,64.822 C4.179,65.367 9.207,67.837 11.105,68.754 L17.747,71.822 C19.754,72.742 23.034,74.193 25.055,75.055 C25.136,75.089 33.184,78.519 39.281,80.696 C45.969,83.085 51.825,84.763 56.691,85.684 C61.623,84.737 67.532,83.039 74.258,80.636 C79.74,78.677 85.772,76.248 92.187,73.416 C97.647,71.005 102.35,68.733 102.397,68.711 C104.38,67.751 107.248,66.338 108.769,65.571 C109.749,65.076 110.845,63.094 110.845,61.182 L110.845,18.997 C110.845,17.154 109.776,15.405 108.821,15.072 C107.286,14.537 101.065,12.551 99.039,11.932 C97.073,11.331 90.745,9.47 89.078,8.991 C87.344,8.493 82.029,6.964 79.916,6.335 C79.916,6.335 78.782,5.997 78.045,5.755 L78.044,5.755 C77.334,5.521 76.624,5.297 75.914,5.088 C75.208,4.879 74.503,4.684 73.799,4.507 L73.079,4.325 C72.337,4.169 71.519,3.998 71.309,3.954 L70.641,3.844 C70.006,3.739 68.967,3.578 67.627,3.416 C66.126,3.235 64.566,3.089 62.992,2.984 C62.353,2.941 61.688,2.874 60.998,2.805 C59.74,2.678 58.439,2.547 57.081,2.545 C57.076,2.545 56.973,2.544 56.967,2.543 L56.79,2.54 L56.655,2.54 L56.517,2.541 C56.514,2.542 56.364,2.544 56.361,2.544 C54.947,2.547 53.646,2.678 52.387,2.805 C51.698,2.874 51.032,2.941 50.394,2.984 C48.82,3.089 47.26,3.235 45.759,3.416 C44.419,3.578 43.38,3.739 42.745,3.844 C42.073,3.956 41.705,4.03 41.691,4.033 L40.963,4.177 C40.258,4.359 38.991,4.703 38.217,4.924 L37.53,5.139 C36.876,5.342 31.818,6.865 29.613,7.482 C27.452,8.087 25.007,8.79 25.007,8.79 C22.893,9.398 19.437,10.405 17.327,11.027 C17.327,11.027 14.246,11.936 10.833,13.007 C7.505,14.05 4.721,14.975 2.541,15.763 L2.541,61.182 C2.541,63.057 2.886,64.415 3.098,64.822 M56.693,88.247 C56.615,88.247 56.538,88.24 56.461,88.225 C51.417,87.289 45.349,85.561 38.426,83.088 C32.257,80.885 24.139,77.426 24.058,77.391 C22.02,76.522 18.713,75.059 16.685,74.13 L10.02,71.051 C8.088,70.118 2.417,67.333 1.766,66.994 C0.128,66.142 0,62.33 0,61.182 L0,14.875 C0,14.344 0.331,13.869 0.828,13.684 C3.156,12.82 6.266,11.776 10.072,10.583 C13.51,9.505 16.608,8.591 16.608,8.591 C18.723,7.966 22.186,6.957 24.305,6.349 C24.305,6.349 26.76,5.643 28.928,5.036 C31.114,4.425 36.126,2.915 36.774,2.713 L37.49,2.49 C38.31,2.255 39.609,1.904 40.402,1.7 L41.192,1.542 C41.192,1.542 41.592,1.461 42.328,1.338 C42.989,1.228 44.067,1.062 45.454,0.894 C47,0.707 48.605,0.558 50.223,0.449 C50.836,0.408 51.473,0.344 52.133,0.277 C53.391,0.151 54.817,0.007 56.3,0.004 L56.422,0.003 C56.428,0.003 56.59,0 56.596,0 C56.599,0 56.758,0.006 56.751,0 L56.907,0.002 L57.045,0.003 C58.569,0.007 59.995,0.151 61.252,0.277 C61.913,0.344 62.55,0.408 63.162,0.449 C64.782,0.558 66.386,0.707 67.932,0.894 C69.319,1.062 70.398,1.228 71.058,1.338 L71.772,1.457 C72.032,1.509 72.856,1.683 73.651,1.851 L74.42,2.043 C75.158,2.229 75.896,2.433 76.634,2.652 C77.368,2.869 78.103,3.1 78.838,3.342 C79.548,3.576 80.641,3.901 80.641,3.901 C82.748,4.527 88.05,6.052 89.78,6.55 C91.453,7.031 97.806,8.899 99.781,9.502 C101.62,10.064 108.008,12.098 109.657,12.673 C111.748,13.402 113.386,16.179 113.386,18.997 L113.386,61.182 C113.386,63.932 111.861,66.856 109.913,67.838 C108.384,68.611 105.499,70.032 103.503,70.997 C103.455,71.02 98.715,73.31 93.213,75.739 C86.742,78.597 80.653,81.049 75.113,83.028 C68.155,85.514 62.037,87.262 56.928,88.225 C56.85,88.24 56.772,88.247 56.693,88.247" id="Fill-13"></path>
            </g>
        </g>
    </g>
</svg>