<?xml version="1.0" encoding="UTF-8"?>
<svg width="81px" height="143px" viewBox="0 0 81 143" version="1.1" xmlns="http://www.w3.org/2000/svg" xmlns:xlink="http://www.w3.org/1999/xlink">
    <!-- Generator: Sketch 42 (36781) - http://www.bohemiancoding.com/sketch -->
    <title>sticker_intowild_white</title>
    <desc>Created with Sketch.</desc>
    <defs></defs>
    <g id="Page-1" stroke="none" stroke-width="1" fill="none" fill-rule="evenodd">
        <g id="stickers-black" transform="translate(-30.000000, -220.000000)">
            <g id="sticker_intowild_white" transform="translate(30.000000, 220.000000)">
                <g id="Asset-1">
                    <path d="M6.36,83.37 L6.36,83.37 C6.36,83.37 6.35,83.39 6.36,83.37 Z" id="Shape" fill="#FFFFFF" fill-rule="nonzero"></path>
                    <path d="M78.91,46 C77.5010843,45.3077512 76.1869853,44.4372866 75,43.41 C73.67,42.49 72.46,41.26 71,40.7 C69.1671475,40.1558261 67.2898758,39.7743484 65.39,39.56 C65.7608363,37.9952644 66.8207809,36.6828722 68.2724361,35.9910526 C69.7240912,35.299233 71.4110545,35.3025232 72.86,36 C74.13,36.65 74.69,35.85 75.4,35.76 C76.63,35.61 76.54,34.36 75.89,33.33 C75.84,33.25 76.22,32.89 76.54,32.47 L74.32,31.87 L74.64,31.51 L69.64,27.3 C70.16,26.71 70.82,26.07 71.35,25.3 C71.9277702,24.6093824 72.7796007,24.2072307 73.68,24.2 C75.81,23.81 76.92,26.12 78.83,25.65 L79.64,21.13 L77.69,18.8 C78.1,18.61 78.27,18.55 78.42,18.47 C78.57,18.39 78.77,18.25 79.04,18.07 C76.1,15.87 74.26,11.94 69.54,13.07 L73.35,11 L72.55,9.08 C71.82,8.93 70.77,9.03 70.55,8.61 C69.17,6.45 66.77,6.55 64.79,5.77 C63.1335277,5.08803922 61.2256291,5.59054784 60.12,7 C59.5506879,7.64095271 58.8427532,8.14368892 58.05,8.47 C57.18,8.98 56.6,9.59 55.41,8.67 C54.67,8.1 53.64,7.79 53.18,6.89 C52.72,5.99 52.18,4.94 50.95,4.57 C50.1313339,4.20640168 49.3646217,3.7356135 48.67,3.17 C48.3368236,3.37113981 47.936419,3.42885577 47.56,3.33 L45.71,3.33 L45.29,1.82 L42.42,1.82 C41.55,1.82 40.89,2.24 40.22,1.17 C39.29,-0.37 35.79,-0.32 34.53,1 C33.94,1.6 33.31,2.15 32.89,2.54 L33.64,5.27 C30.55,4.68 28.58,5.88 26.83,7.86 L29.54,8.79 L27.26,9.14 L27.26,9.6 L28.26,9.99 L25.68,12.52 C24.04,11.97 22.1,11.43 20.24,10.68 C17.24,9.48 12.24,11.59 11.49,14.49 C9.94309366,14.1099831 8.34137223,14.8649611 7.65,16.3 C7.41,16.75 6.83,17.3 6.44,17.3 C5,17.23 4.76,18.3 4.64,19.2 C4.56124969,20.4238214 4.59472276,21.6522829 4.74,22.87 C5.54,22.71 6.16,22.37 6.58,22.54 C8.39,23.29 10.1,23.63 11.74,22.05 L11.89,23.05 L14.38,21.37 C14.75,22.66 14.81,23.7 16.61,22.95 C18.41,22.2 20.79,23.33 22.61,21.74 C22.7,21.66 23.12,21.97 23.39,22.07 L23.96,22.3 L23.9,22.3 L23.9,24.12 C22.5,24.12 21.09,24.72 19.66,24.57 C18.1632155,24.5181901 16.6755836,24.8232575 15.32,25.46 C14.27,25.89 13.53,27.1 12.48,27.54 C10.65,28.29 10.01,29.87 9.13,31.17 L10.39,32.76 L9.16,33.59 C9.58,33.81 10.04,34.25 10.42,34.19 C11.2957004,34.0060281 12.1577293,33.7621207 13,33.46 C13.12,33.46 13.28,33.53 13.57,33.61 L12.37,34.61 C13.64,35.89 14.89,36.32 16.43,35.36 C16.8262964,35.1191054 17.2767334,34.9815674 17.74,34.96 C19.6045408,35.0416897 21.4725233,34.9915649 23.33,34.81 C23.52,34.81 23.71,34.76 23.89,34.74 L23.89,35.82 C22.77,35.28 21.64,35.89 20.52,36.25 C20.37,36.25 20.18,36.17 20,36.15 C17.3062886,35.680028 14.7212518,37.4180903 14.14,40.09 C14.03,40.57 13.49,40.95 13.14,41.36 C12.14,42.48 10,42.54 10.06,44.68 C10.22,44.79 10.36,44.94 10.52,44.97 C12.01,45.2 13.84,44.27 14.84,46.28 C15.2892875,46.2823324 15.7310919,46.1649781 16.12,45.94 C16.5860379,45.5953922 17.018009,45.206953 17.41,44.78 C17.87,45 18.24,45.19 18.63,45.34 C19.02,45.49 19.55,45.67 20.02,45.84 C19.5669258,46.1496867 19.0846263,46.4142815 18.58,46.63 C17.3,47.05 15.96,47.3 14.69,47.76 C12.9699237,48.4277859 11.0896947,48.5670622 9.29,48.16 C8.29198906,48.0708022 7.28801094,48.0708022 6.29,48.16 C4.36,48.08 3.57,49.69 2.46,50.76 C1.93361717,51.4621461 1.51873539,52.2413143 1.23,53.07 L1.63,53.39 L0,53.39 L0,54.12 C1.01180748,54.3256069 1.94860228,54.8026464 2.71,55.5 C3.94,56.32 4.94,56.84 4.47,58.5 C4.47,58.58 4.81,58.85 5.02,58.89 C6.92,59.25 8.83,60.18 10.71,58.89 L11.47,60.3 L13.84,58.94 L16.26,60.16 C16.82,59.33 17.26,59.36 18.79,60.67 C16.98,60.12 15.79,62.53 14.12,60.81 C14.12,60.81 13.88,60.81 13.79,60.9 C12.7679177,61.5747165 11.8311255,62.3704862 11,63.27 C9.98662092,64.8160711 9.06825724,66.4223727 8.25,68.08 C9.16,69.97 9.16,70.08 11.59,69.88 C12.9023168,69.6859059 14.203979,69.4255734 15.49,69.1 C15.93,69.02 16.72,68.99 16.82,69.21 C17.66,70.85 18.82,70.21 20.07,69.91 C20.8338979,69.6162582 21.6545715,69.4999961 22.47,69.57 C25.0075278,70.0729698 27.5095145,70.741057 29.96,71.57 C36.34,73.91 37.71,78.35 36.72,85.19 L34.29,82.19 C34.707868,82.1609915 35.1226176,82.0974411 35.53,82 C35.7011499,80.9234264 35.7011499,79.8265736 35.53,78.75 C35,76.82 30.23,75 28,76.12 C27.26,76.49 26.21,76.21 25.32,76.33 C24.06,76.49 22.8,76.7 21.56,76.97 C20.88,77.12 20.23,77.67 19.56,77.65 C17.2419611,77.6748331 14.9253611,77.5244045 12.63,77.2 C10.53,76.84 9.54,78.1 8.77,79.47 C8,80.84 6.34,81.47 6.39,83.24 C6.39971187,83.2861614 6.39971187,83.3338386 6.39,83.38 C7.74,85.96 9.89,85.17 12.25,84.52 L11.46,87 L16.94,87 L17.33,88.15 C19.05,87.33 20.68,86.6 22.27,88.26 C22.7760002,88.5165748 23.3739998,88.5165748 23.88,88.26 C25.12,87.55 26.26,86.67 27.58,85.76 C27.83,87.53 28.91,88.22 30.26,87.46 C31.96,86.46 30.04,85.51 29.77,84.01 C32.02,85.01 33.95,85.77 35.85,86.62 C36.7801936,86.9788569 37.3224171,87.9498151 37.14,88.93 C37.03,90.41 36.79,93.99 36.56,97.69 L38,97.52 C39,97.46 40,97.29 41.19,97.29 L41.61,97.29 C42.77,97.29 43.84,97.46 44.8,97.52 L45.05,97.52 C45.18,94.06 45.35,90.79 45.49,89.45 C45.9201705,86.3498419 46.5616645,83.2826988 47.41,80.27 C47.64,79.34 48.17,78.41 49.65,78.78 C50.7671148,79.0495262 51.9349635,79.0254113 53.04,78.71 C54.2231926,78.274874 55.5472927,78.4829469 56.54,79.26 C56.8564672,79.4074353 57.1937545,79.5052487 57.54,79.55 L57.54,78.55 C59.85,78.72 62.01,78.89 64.18,79.01 C64.47,79.01 64.78,78.76 65.08,78.62 C64.22,77.2 66.01,76.95 66.18,75.84 C69.18,77.49 70.74,75.27 72.64,73.84 C68,69.4 62.27,69.41 56.41,69.84 C58.2,68.62 59.88,67.84 62.06,68.18 C64.0481827,68.4675565 66.0656497,68.4910936 68.06,68.25 C68.96,68.16 70.41,67.64 69.3,66.06 C68.86,65.43 68.06,64.8 68.05,64.16 C68.1053545,63.5648553 67.9194753,62.9724009 67.5340616,62.5155447 C67.148648,62.0586885 66.5959655,61.7756772 66,61.73 C64.8594314,61.6175539 63.7105686,61.6175539 62.57,61.73 C61.13,61.73 59.67,62.32 58.28,61.38 L58.07,61.25 L58.07,57.95 C60.97,56.53 63.72,55.19 66.5,53.95 C68.93,52.86 71.36,51.69 74.27,52.19 C75.7633652,52.379057 77.2800714,52.1613975 78.66,51.56 C79.6,51.17 80.9,49.83 80.78,49.13 C80.59,48.09 80.57,46.57 78.91,46 Z M22.08,60.35 C21.1971126,60.2861336 20.3188622,60.1692562 19.45,60 L19.52,58.83 L22.37,58.83 C22.3098358,59.3429542 22.21292,59.8509268 22.08,60.35 L22.08,60.35 Z M23.86,59.65 C22.9799745,58.4840864 22.9799745,56.8759136 23.86,55.71 L23.86,59.65 Z M23.86,48.12 C22.6150952,47.6973097 21.4565735,47.0536865 20.44,46.22 C21.75,46.31 22.85,46.31 23.86,46.41 L23.86,48.12 Z M34.41,18.74 L38.12,21 L35.84,22.33 L31.67,22.33 C31.85,22.07 32.06,21.87 32.22,21.87 C34.24,22 34.1,20.47 34.41,18.74 Z M28.3,22.37 C28.3766231,21.8266347 28.5421696,21.2995886 28.79,20.81 L29.51,22.37 L28.3,22.37 Z M28.48,14.92 L28,14.19 L31.82,12.71 L32.28,13.26 L28.48,14.92 Z M34.07,72 L31.07,69.23 L32.37,67.42 L34.46,71.68 L34.07,72 Z M37.28,73.39 L34.48,66.86 L38.4,66.18 C39,68.49 38.5,70.89 37.28,73.43 L37.28,73.39 Z M43.85,82.67 L43.67,82.67 L43.67,75.57 C43.67,75.19 44.2,74.83 44.49,74.46 C44.8,74.94 45.44,75.46 45.36,75.9 C45,78.2 44.39,80.45 43.86,82.71 L43.85,82.67 Z M44.04,69.59 L43.41,69.33 C43.51,68.21 43.24,66.39 43.78,66.1 C44.92,65.5 46.48,65.7 48.03,65.56 C48,68.73 44.77,67.74 44.05,69.63 L44.04,69.59 Z M53.69,19.49 L49.29,17.49 L54.29,14.81 L52.62,13.53 L59.89,14.33 L59.54,15.58 C56.16,14.92 53,16.79 53.7,19.53 L53.69,19.49 Z M58.05,41.58 L59.14,41.35 L59.28,41.96 L58.05,42.22 L58.05,41.58 Z M58.05,55.97 L58.05,54.34 L59.85,54.2 C59.292843,54.8413657 58.6913657,55.442843 58.05,56 L58.05,55.97 Z M58.05,27.69 L58.05,25.46 C59.12,25.35 59.54,24.46 59.48,22.75 C61.48,23.99 60.78,26.16 61.48,27.33 C60.33,27.49 59.15,27.52 58.05,27.74 L58.05,27.69 Z M62.59,25.69 L61.93,25.63 L62.3,21 L63.38,21.1 L62.59,25.69 Z M70.36,22.59 C70.6,24.79 69.57,26.28 67.11,26.82 C68.13,25.12 67.73,22.78 70.36,22.65 L70.36,22.59 Z M64.25,23.54 C64.48,22.92 64.71,21.83 65.86,22.82 C66.05,22.98 66.78,22.51 67.86,22.12 L65.86,26.91 L63.66,26.23 C63.803129,25.3413222 64.0035468,24.4628244 64.26,23.6 L64.25,23.54 Z M63.82,37 C63.91,36.57 63.87,35.88 64.12,35.76 C64.9175963,35.4391422 65.7404125,35.1849389 66.58,35 L67.15,35.85 C66.4975544,36.3699197 65.805444,36.8380137 65.08,37.25 C64.76,37.37 64.25,37.11 63.82,37 Z" id="Shape" fill="#FFFFFF" fill-rule="nonzero"></path>
                    <path d="M48.76,108.9 L48.1,108.79 L47.44,108.68 L46.78,108.57 C46.6,108.57 46.45,109.07 46.45,109.75 L46.45,117.16 C46.45,117.84 46.6,118.39 46.78,118.39 L48.78,118.39 C48.96,118.39 49.11,117.86 49.11,117.21 L49.11,110.14 C49.09,109.48 48.94,108.93 48.76,108.9 Z" id="_Path_" fill="#FFFFFF" fill-rule="nonzero"></path>
                    <path d="M34.89,116.36 L36.89,116.36 C37.07,116.36 37.22,115.92 37.22,115.36 L37.22,109.47 C37.22,108.93 37.07,108.47 36.89,108.55 L36.24,108.67 L35.59,108.79 L34.94,108.91 C34.76,108.91 34.61,109.38 34.61,109.91 L34.61,115.46 C34.57,115.94 34.71,116.36 34.89,116.36 Z" id="_Path_2" fill="#FFFFFF" fill-rule="nonzero"></path>
                    <path d="M36.86,119.16 L34.86,119.16 C34.68,119.16 34.53,119.77 34.53,120.51 L34.53,128.62 C34.53,129.36 34.68,130.03 34.86,130.11 L35.51,130.38 L36.16,130.65 L36.81,130.92 C36.99,131 37.14,130.39 37.14,129.57 L37.14,120.63 C37.18,119.83 37,119.16 36.86,119.16 Z" id="_Path_3" fill="#FFFFFF" fill-rule="nonzero"></path>
                    <path d="M60.56,112.75 L59.83,112.56 L59.1,112.37 L58.37,112.18 C58.17,112.13 58.01,112.88 58.01,113.86 L58.01,124.49 C58.01,125.49 58.17,126.2 58.37,126.12 L59.1,125.83 L59.83,125.54 L60.56,125.25 C60.76,125.17 60.92,124.42 60.92,123.57 L60.92,114.36 C60.92,113.53 60.76,112.8 60.56,112.75 Z" id="_Path_5" fill="#FFFFFF" fill-rule="nonzero"></path>
                    <path d="M65.39,107.38 C64.68,107.14 61.85,106.27 60.98,106.01 L56.5,104.73 L52.39,103.58 L51.57,103.33 L50.57,103.03 L49.57,102.77 L49.25,102.69 L48.43,102.52 L48.11,102.47 C47.79,102.42 47.32,102.35 46.73,102.28 C46.14,102.21 45.43,102.14 44.62,102.09 C43.81,102.04 43,101.9 42,101.9 L41.65,101.9 C40.65,101.9 39.77,102.04 38.96,102.09 C38.15,102.14 37.44,102.21 36.85,102.28 C36.26,102.35 35.79,102.42 35.47,102.47 L34.98,102.56 L34.66,102.62 L33.38,102.96 L33.06,103.06 C32.74,103.16 30.49,103.81 29.52,104.06 L27.45,104.63 L24,105.63 C24,105.63 22.61,106.03 21.07,106.49 C19.53,106.95 18.07,107.42 16.95,107.83 L16.95,128 C16.95,129 17.17,129.9 17.44,130 L21.12,131.75 L24.12,133.09 C25.02,133.49 26.5,134.09 27.42,134.5 C27.42,134.5 31.05,136 33.84,136.97 C36.4476567,137.905662 39.1218258,138.644401 41.84,139.18 C44.5848921,138.633631 47.2855975,137.884921 49.92,136.94 C52.72,135.94 55.52,134.85 58.01,133.78 C60.5,132.71 62.61,131.72 62.61,131.72 L65.48,130.35 C66.2741067,129.811426 66.7439051,128.909413 66.73,127.95 L66.73,109.61 C66.757372,108.668708 66.2339838,107.797697 65.39,107.38 L65.39,107.38 Z M28.45,131.93 L28.45,131.93 L28.4,131.93 L28.09,131.78 L27.47,131.47 L26.85,131.16 L26.23,130.85 C25.8638948,130.315827 25.6182278,129.708483 25.51,129.07 L24.7,125.81 L23.89,122.55 L23.08,119.29 C22.86,118.39 22.69,118.29 22.7,119.11 L22.7,122.02 L22.7,124.93 L22.7,127.84 L22.7,129.3 L22.8,129.3 L22.44,129.16 L21.73,128.87 L21.02,128.58 L20.31,128.29 L19.94,128.14 L19.88,128.14 L19.88,126.34 L19.88,111.9 L19.88,110.1 L19.94,110.1 L20.28,110.02 L20.95,109.86 L21.62,109.7 L22.29,109.54 C22.48,109.54 22.81,110.03 23.03,110.72 L23.83,113.24 L24.63,115.76 L25.43,118.28 C25.65,118.97 25.82,118.92 25.81,118.16 L25.81,115.39 L25.81,112.62 L25.81,109.85 L25.81,108.46 L25.87,108.46 L26.21,108.38 L26.87,108.22 L27.53,108.06 L28.19,107.9 L28.53,107.82 L28.58,107.82 L28.58,109.62 L28.58,130.12 L28.58,131.91 L28.58,131.91 L28.58,131.91 L28.45,131.93 Z M40,110.38 L40,116.49 L40,116.49 L39.87,116.64 L39.62,116.94 L39.37,117.24 L39.12,117.54 C39.0482006,117.630861 39.0482006,117.759139 39.12,117.85 L39.37,118.16 L39.62,118.47 L39.87,118.78 L40,119 L40,119 L40,120.79 L40,131.5 C40.0498134,132.174515 39.9752415,132.852441 39.78,133.5 L39.34,133.89 L38.9,134.28 L38.46,134.67 C38.1285864,134.762863 37.7752441,134.738129 37.46,134.6 L35.86,134.08 L34.26,133.56 L32.66,133.04 L31.85,132.78 L31.79,132.78 L31.79,130.98 L31.79,108 L31.79,106.2 L31.85,106.2 L32.65,106.07 L34.25,105.82 L35.85,105.57 L37.45,105.32 C37.7828897,105.243525 38.1310111,105.267893 38.45,105.39 L38.89,105.78 L39.33,106.17 L39.77,106.56 C39.9531764,107.00967 40.0285206,107.495983 39.99,107.98 L40,110.38 Z M44.5,135.52 C44.01,135.71 43.27,135.95 43.03,135.52 C42.85,135.25 43.03,134.83 43.23,134.43 C43.3867589,134.194728 43.5641237,133.973859 43.76,133.77 C43.68,134.02 43.49,134.44 43.83,134.77 C44.17,135.1 44.31,134.88 44.78,134.77 L49,133.56 L44.5,135.52 Z M54.56,132.22 L54.5,132.22 L54.18,132.34 L53.54,132.58 L52.9,132.82 L52.26,133.06 C52.09,133.13 51.67,132.54 51.34,131.76 L50.13,129 L48.93,126.17 L47.73,123.34 C47.5341555,122.837366 47.2896602,122.355074 47,121.9 L46.49,121.9 C46.4037822,122.45221 46.3736288,123.011723 46.4,123.57 L46.4,129.85 L46.4,131.53 L46.34,131.53 L45.95,131.61 L45.17,131.76 L44.39,131.91 L43.61,132.06 L43.21,132.14 L43.21,132.14 L43.21,131.94 L43.21,131.32 L43.21,130.96 L43.21,131.59 L43.21,129.17 L43.21,127.08 L43.21,109.75 L43.21,106.82 L43.21,105.76 L43.21,105.3 L43.21,105.18 L43.21,105.18 L44.07,105.31 L45.78,105.56 L47.49,105.81 L49.2,106.06 L50.06,106.19 L50.06,106.19 L50.28,106.38 L50.71,106.76 L51.14,107.14 L51.57,107.52 L51.79,107.72 L51.79,107.72 L51.79,109.27 L51.79,118.53 L51.79,120.08 L51.79,120.08 L51.56,120.29 L51.11,120.71 L50.66,121.13 L50.21,121.55 C50.09,121.67 50.21,122.34 50.54,123.05 L51.66,125.64 L52.78,128.23 L54,130.88 L54.56,132.18 L54.56,132.18 L54.56,132.18 L54.56,132.22 Z M63.75,113.52 L63.75,124.58 L63.75,126.5 L63.65,126.75 L63.55,127 L63.45,127.25 C63.1943443,127.444877 62.9067181,127.593766 62.6,127.69 L61,128.32 L59.4,128.95 L57.8,129.58 C57.36,129.75 56.9,129.81 56.8,129.7 L56.36,129.31 L55.92,128.92 L55.48,128.53 C55.2863028,127.882127 55.2117622,127.204486 55.26,126.53 L55.26,112 C55.211984,111.325519 55.2865202,110.647917 55.48,110 L55.92,109.61 L56.36,109.22 L56.8,108.83 L57.02,108.64 L57.02,108.64 L57.78,108.85 L59.3,109.28 L60.82,109.71 L62.34,110.14 C62.6425381,110.204029 62.9285416,110.330006 63.18,110.51 L63.35,110.82 L63.52,111.13 L63.69,111.44 L63.78,111.59 L63.78,111.59 L63.78,113.39 L63.75,113.52 Z" id="_Compound_Path_" fill="#FFFFFF" fill-rule="nonzero"></path>
                    <path d="M52.54,101 L51.47,100.66 L50.4,100.37 L50.04,100.28 L49.14,100.09 L48.79,100.03 C48.44,99.97 47.92,99.89 47.27,99.81 C46.62,99.73 45.84,99.65 44.95,99.59 C44.06,99.53 43.06,99.37 41.95,99.37 L41.56,99.37 C40.49,99.37 39.49,99.53 38.56,99.59 C37.63,99.65 36.89,99.73 36.24,99.81 C35.59,99.89 35.08,99.97 34.72,100.03 L34.18,100.13 L33.82,100.2 L32.41,100.58 L32.06,100.69 C31.71,100.8 29.24,101.54 28.17,101.84 L25.89,102.49 L22.09,103.6 C22.09,103.6 20.57,104.05 18.87,104.6 C17.17,105.15 15.58,105.66 14.34,106.12 L14.34,129 C14.34,130.12 14.58,131.16 14.87,131.31 L18.87,133.31 L22.16,134.83 C23.16,135.28 24.78,136.01 25.79,136.43 C25.79,136.43 29.79,138.13 32.85,139.23 C35.7177394,140.292012 38.6631478,141.131169 41.66,141.74 C44.6800372,141.119373 47.648575,140.270264 50.54,139.2 C53.62,138.1 56.7,136.83 59.43,135.62 C62.16,134.41 64.49,133.29 64.49,133.29 L67.65,131.74 C68.5911538,131.145998 69.164252,130.112913 69.17,129 L69.17,108.17 C69.2162137,107.125271 68.6658768,106.144741 67.75,105.64 C66.97,105.37 63.85,104.37 62.9,104.08 C61.95,103.79 58.83,102.87 57.97,102.63 L53.45,101.32 L52.54,101 Z" id="_Path_6" stroke="#FFFFFF" stroke-width="1.25" stroke-linecap="round" stroke-linejoin="round"></path>
                    <polygon id="_Compound_Path_2" fill="#000000" fill-rule="nonzero" points="28.56 25.07 28.56 37.27 26.15 37.27 26.15 25.07"></polygon>
                    <path d="M32.58,25.07 L35.58,32.43 L35.58,32.43 C35.4425716,31.8265937 35.3787732,31.2087566 35.39,30.59 L35.39,25.07 L37.8,25.07 L37.8,37.27 L35.56,37.27 L32.56,29.91 L32.56,29.91 L32.67,31.14 L32.67,31.64 L32.67,37.24 L30.27,37.24 L30.27,25.07 L32.58,25.07 Z" id="_Compound_Path_3" fill="#000000" fill-rule="nonzero"></path>
                    <polygon id="_Compound_Path_4" fill="#000000" fill-rule="nonzero" points="45.13 25.07 45.13 27.33 43.22 27.33 43.22 37.26 40.81 37.26 40.81 27.34 38.92 27.34 38.92 25.07"></polygon>
                    <path d="M53.72,31.17 C53.72,35.75 51.58,37.46 49.43,37.46 C47.28,37.46 45.14,35.75 45.14,31.17 C45.14,26.59 47.27,24.88 49.43,24.88 C51.59,24.88 53.72,26.59 53.72,31.17 Z M49.43,35.23 C51.03,35.23 51.14,32.14 51.14,31.17 C51.14,30.2 51.03,27.11 49.43,27.11 C47.83,27.11 47.72,30.11 47.72,31.17 C47.72,32.23 47.83,35.23 49.44,35.23 L49.43,35.23 Z" id="_Compound_Path_5" fill="#000000" fill-rule="nonzero"></path>
                    <polygon id="_Compound_Path_6" fill="#000000" fill-rule="nonzero" points="31.66 38.16 31.66 40.42 29.75 40.42 29.75 50.35 27.34 50.35 27.34 40.43 25.45 40.43 25.45 38.16"></polygon>
                    <polygon id="_Compound_Path_7" fill="#000000" fill-rule="nonzero" points="35.17 38.16 35.17 42.93 37.61 42.93 37.61 38.16 40 38.16 40 50.36 37.61 50.36 37.61 45.2 35.17 45.2 35.17 50.36 32.76 50.36 32.76 38.16"></polygon>
                    <polygon id="_Compound_Path_8" fill="#000000" fill-rule="nonzero" points="46.59 38.16 46.59 40.42 44.15 40.42 44.15 43.07 46.3 43.07 46.3 45.33 44.15 45.33 44.15 48.1 46.62 48.1 46.62 50.36 41.74 50.36 41.74 38.16"></polygon>
                    <path d="M27.79,51.26 L28.79,57.08 C28.94,57.94 28.97,58.81 29.05,59.67 L29.05,59.67 C29.16,58.81 29.23,57.94 29.41,57.08 L30.62,51.26 L32.6,51.26 L34.15,59.67 L34.15,59.67 C34.23,58.81 34.25,57.97 34.39,57.11 L35.39,51.26 L37.9,51.26 L35.38,63.45 L33.29,63.45 L32,57 C31.92,56.26 31.77,55.51 31.66,54.77 L31.66,54.77 C31.53,55.51 31.45,56.26 31.27,57 L29.9,63.45 L27.8,63.45 L25.34,51.26 L27.79,51.26 Z" id="_Compound_Path_9" fill="#000000" fill-rule="nonzero"></path>
                    <polygon id="_Compound_Path_10" fill="#000000" fill-rule="nonzero" points="41.3 51.26 41.3 63.45 38.89 63.45 38.89 51.26"></polygon>
                    <polygon id="_Compound_Path_11" fill="#000000" fill-rule="nonzero" points="45.42 51.26 45.42 61.19 47.94 61.19 47.94 63.45 43 63.45 43 51.26"></polygon>
                    <path d="M49,63.45 L49,51.26 L50.83,51.26 C51.25,51.26 56.3,50.65 56.3,57.45 C56.3,60.93 54.96,63.45 51.16,63.45 L49,63.45 Z M53.88,57.45 C53.88,55.9 53.39,53.45 51.41,53.45 L51.41,61.31 C53.4,61.38 53.93,59 53.93,57.44 L53.88,57.45 Z" id="_Compound_Path_12" fill="#000000" fill-rule="nonzero"></path>
                    <rect id="_Path_7" fill="#FFFFFF" fill-rule="nonzero" x="60.34" y="28.48" width="1.15" height="0.29"></rect>
                    <polygon id="_Path_8" fill="#FFFFFF" fill-rule="nonzero" points="61.49 78.86 60.34 78.86 60.34 79.44 60.51 79.44 60.51 79.98 61.66 79.98 61.66 79.41 61.49 79.41"></polygon>
                    <polygon id="_Path_9" fill="#FFFFFF" fill-rule="nonzero" points="61.49 76.56 60.34 76.56 60.34 77.13 60.51 77.13 60.51 77.68 61.66 77.68 61.66 77.1 61.49 77.1"></polygon>
                    <polygon id="_Path_10" fill="#FFFFFF" fill-rule="nonzero" points="61.49 77.71 60.34 77.71 60.34 78.28 60.51 78.28 60.51 78.83 61.66 78.83 61.66 78.25 61.49 78.25"></polygon>
                    <polygon id="_Path_11" fill="#FFFFFF" fill-rule="nonzero" points="61.49 80.01 60.34 80.01 60.34 80.59 60.51 80.59 60.51 81.14 61.66 81.14 61.66 80.56 61.49 80.56"></polygon>
                    <polygon id="_Path_12" fill="#FFFFFF" fill-rule="nonzero" points="61.49 82.31 60.34 82.31 60.34 82.89 60.51 82.89 60.51 83.44 61.66 83.44 61.66 82.87 61.49 82.87"></polygon>
                    <polygon id="_Path_13" fill="#FFFFFF" fill-rule="nonzero" points="61.49 81.16 60.34 81.16 60.34 81.74 60.51 81.74 60.51 82.29 61.66 82.29 61.66 81.71 61.49 81.71"></polygon>
                    <polygon id="_Path_14" fill="#FFFFFF" fill-rule="nonzero" points="61.49 74.25 60.34 74.25 60.34 74.83 60.51 74.83 60.51 75.37 61.66 75.37 61.66 74.79 61.49 74.79"></polygon>
                    <polygon id="_Path_15" fill="#FFFFFF" fill-rule="nonzero" points="61.49 69.65 60.34 69.65 60.34 70.22 60.51 70.22 60.51 70.76 61.66 70.76 61.66 70.18 61.49 70.18"></polygon>
                    <polygon id="_Path_16" fill="#FFFFFF" fill-rule="nonzero" points="61.49 70.8 60.34 70.8 60.34 71.38 60.51 71.38 60.51 71.91 61.66 71.91 61.66 71.33 61.49 71.33"></polygon>
                    <polygon id="_Path_17" fill="#FFFFFF" fill-rule="nonzero" points="61.49 68.5 60.34 68.5 60.34 69.07 60.51 69.07 60.51 69.61 61.66 69.61 61.66 69.03 61.49 69.03"></polygon>
                    <polygon id="_Path_18" fill="#FFFFFF" fill-rule="nonzero" points="61.49 71.95 60.34 71.95 60.34 72.53 60.51 72.53 60.51 73.06 61.66 73.06 61.66 72.49 61.49 72.49"></polygon>
                    <polygon id="_Path_19" fill="#FFFFFF" fill-rule="nonzero" points="61.49 83.47 60.34 83.47 60.34 84.04 60.51 84.04 60.51 84.59 61.66 84.59 61.66 84.02 61.49 84.02"></polygon>
                    <polygon id="_Path_20" fill="#FFFFFF" fill-rule="nonzero" points="61.49 73.1 60.34 73.1 60.34 73.68 60.51 73.68 60.51 74.22 61.66 74.22 61.66 73.64 61.49 73.64"></polygon>
                    <polygon id="_Path_21" fill="#FFFFFF" fill-rule="nonzero" points="61.49 75.41 60.34 75.41 60.34 75.98 60.51 75.98 60.51 76.52 61.66 76.52 61.66 75.95 61.49 75.95"></polygon>
                    <polygon id="_Path_22" fill="#FFFFFF" fill-rule="nonzero" points="61.49 93.83 60.34 93.83 60.34 94.41 60.51 94.41 60.51 94.97 61.66 94.97 61.66 94.4 61.49 94.4"></polygon>
                    <rect id="_Path_23" fill="#FFFFFF" fill-rule="nonzero" x="60.34" y="32.8" width="1.15" height="0.58"></rect>
                    <polygon id="_Path_24" fill="#FFFFFF" fill-rule="nonzero" points="61.49 94.98 60.34 94.98 60.34 95.56 60.51 95.56 60.51 95.84 61.66 95.84 61.66 95.55 61.49 95.55"></polygon>
                    <polygon id="_Path_25" fill="#FFFFFF" fill-rule="nonzero" points="61.49 67.35 60.34 67.35 60.34 67.92 60.51 67.92 60.51 68.45 61.66 68.45 61.66 67.88 61.49 67.88"></polygon>
                    <rect id="_Path_26" fill="#FFFFFF" fill-rule="nonzero" x="60.34" y="31.65" width="1.15" height="0.58"></rect>
                    <rect id="_Path_27" fill="#FFFFFF" fill-rule="nonzero" x="60.34" y="30.5" width="1.15" height="0.58"></rect>
                    <rect id="_Path_28" fill="#FFFFFF" fill-rule="nonzero" x="60.34" y="29.35" width="1.15" height="0.58"></rect>
                    <polygon id="_Path_29" fill="#FFFFFF" fill-rule="nonzero" points="61.49 92.68 60.34 92.68 60.34 93.25 60.51 93.25 60.51 93.82 61.66 93.82 61.66 93.24 61.49 93.24"></polygon>
                    <polygon id="_Path_30" fill="#FFFFFF" fill-rule="nonzero" points="61.49 88.07 60.34 88.07 60.34 88.65 60.51 88.65 60.51 89.21 61.66 89.21 61.66 88.63 61.49 88.63"></polygon>
                    <polygon id="_Path_31" fill="#FFFFFF" fill-rule="nonzero" points="61.49 86.92 60.34 86.92 60.34 87.5 60.51 87.5 60.51 88.05 61.66 88.05 61.66 87.48 61.49 87.48"></polygon>
                    <polygon id="_Path_32" fill="#FFFFFF" fill-rule="nonzero" points="61.49 85.77 60.34 85.77 60.34 86.34 60.51 86.34 60.51 86.9 61.66 86.9 61.66 86.32 61.49 86.32"></polygon>
                    <polygon id="_Path_33" fill="#FFFFFF" fill-rule="nonzero" points="61.49 90.38 60.34 90.38 60.34 90.95 60.51 90.95 60.51 91.51 61.66 91.51 61.66 90.94 61.49 90.94"></polygon>
                    <polygon id="_Path_34" fill="#FFFFFF" fill-rule="nonzero" points="61.49 89.22 60.34 89.22 60.34 89.8 60.51 89.8 60.51 90.36 61.66 90.36 61.66 89.78 61.49 89.78"></polygon>
                    <polygon id="_Path_35" fill="#FFFFFF" fill-rule="nonzero" points="61.49 84.62 60.34 84.62 60.34 85.19 60.51 85.19 60.51 85.75 61.66 85.75 61.66 85.17 61.49 85.17"></polygon>
                    <polygon id="_Path_36" fill="#FFFFFF" fill-rule="nonzero" points="61.49 91.53 60.34 91.53 60.34 92.1 60.51 92.1 60.51 92.67 61.66 92.67 61.66 92.09 61.49 92.09"></polygon>
                    <polygon id="_Path_37" fill="#FFFFFF" fill-rule="nonzero" points="61.49 44.32 60.34 44.32 60.34 44.89 60.51 44.89 60.51 45.39 61.66 45.39 61.66 44.81 61.49 44.81"></polygon>
                    <polygon id="_Path_38" fill="#FFFFFF" fill-rule="nonzero" points="61.49 43.16 60.34 43.16 60.34 43.74 60.51 43.74 60.51 44.24 61.66 44.24 61.66 43.66 61.49 43.66"></polygon>
                    <polygon id="_Path_39" fill="#FFFFFF" fill-rule="nonzero" points="61.49 42.01 60.34 42.01 60.34 42.59 60.51 42.59 60.51 43.08 61.66 43.08 61.66 42.51 61.49 42.51"></polygon>
                    <polygon id="_Path_40" fill="#FFFFFF" fill-rule="nonzero" points="61.49 40.86 60.34 40.86 60.34 41.44 60.51 41.44 60.51 41.93 61.66 41.93 61.66 41.35 61.49 41.35"></polygon>
                    <polygon id="_Path_41" fill="#FFFFFF" fill-rule="nonzero" points="61.49 47.77 60.34 47.77 60.34 48.34 60.51 48.34 60.51 48.85 61.66 48.85 61.66 48.27 61.49 48.27"></polygon>
                    <polygon id="_Path_42" fill="#FFFFFF" fill-rule="nonzero" points="61.49 46.62 60.34 46.62 60.34 47.19 60.51 47.19 60.51 47.7 61.66 47.7 61.66 47.12 61.49 47.12"></polygon>
                    <polygon id="_Path_43" fill="#FFFFFF" fill-rule="nonzero" points="61.49 45.47 60.34 45.47 60.34 46.04 60.51 46.04 60.51 46.54 61.66 46.54 61.66 45.97 61.49 45.97"></polygon>
                    <polygon id="_Path_44" fill="#FFFFFF" fill-rule="nonzero" points="61.49 33.95 60.34 33.95 60.34 34.53 60.51 34.53 60.51 35.01 61.66 35.01 61.66 34.44 61.49 34.44"></polygon>
                    <polygon id="_Path_45" fill="#FFFFFF" fill-rule="nonzero" points="61.49 35.1 60.34 35.1 60.34 35.68 60.51 35.68 60.51 36.16 61.66 36.16 61.66 35.59 61.49 35.59"></polygon>
                    <polygon id="_Path_46" fill="#FFFFFF" fill-rule="nonzero" points="61.49 48.92 60.34 48.92 60.34 49.5 60.51 49.5 60.51 50 61.66 50 61.66 49.42 61.49 49.42"></polygon>
                    <polygon id="_Path_47" fill="#FFFFFF" fill-rule="nonzero" points="61.49 36.26 60.34 36.26 60.34 36.83 60.51 36.83 60.51 37.32 61.66 37.32 61.66 36.74 61.49 36.74"></polygon>
                    <polygon id="_Path_48" fill="#FFFFFF" fill-rule="nonzero" points="61.49 38.56 60.34 38.56 60.34 39.13 60.51 39.13 60.51 39.62 61.66 39.62 61.66 39.05 61.49 39.05"></polygon>
                    <polygon id="_Path_49" fill="#FFFFFF" fill-rule="nonzero" points="61.49 39.71 60.34 39.71 60.34 40.28 60.51 40.28 60.51 40.78 61.66 40.78 61.66 40.2 61.49 40.2"></polygon>
                    <polygon id="_Path_50" fill="#FFFFFF" fill-rule="nonzero" points="61.49 37.41 60.34 37.41 60.34 37.98 60.51 37.98 60.51 38.47 61.66 38.47 61.66 37.9 61.49 37.9"></polygon>
                    <polygon id="_Path_51" fill="#FFFFFF" fill-rule="nonzero" points="61.49 63.89 60.34 63.89 60.34 64.47 60.51 64.47 60.51 64.99 61.66 64.99 61.66 64.42 61.49 64.42"></polygon>
                    <polygon id="_Path_52" fill="#FFFFFF" fill-rule="nonzero" points="61.49 60.44 60.34 60.44 60.34 61.01 60.51 61.01 60.51 61.53 61.66 61.53 61.66 60.96 61.49 60.96"></polygon>
                    <polygon id="_Path_53" fill="#FFFFFF" fill-rule="nonzero" points="61.49 59.28 60.34 59.28 60.34 59.86 60.51 59.86 60.51 60.38 61.66 60.38 61.66 59.8 61.49 59.8"></polygon>
                    <polygon id="_Path_54" fill="#FFFFFF" fill-rule="nonzero" points="61.49 61.59 60.34 61.59 60.34 62.16 60.51 62.16 60.51 62.69 61.66 62.69 61.66 62.11 61.49 62.11"></polygon>
                    <polygon id="_Path_55" fill="#FFFFFF" fill-rule="nonzero" points="61.49 58.13 60.34 58.13 60.34 58.71 60.51 58.71 60.51 59.23 61.66 59.23 61.66 58.65 61.49 58.65"></polygon>
                    <polygon id="_Path_56" fill="#FFFFFF" fill-rule="nonzero" points="61.49 65.04 60.34 65.04 60.34 65.62 60.51 65.62 60.51 66.14 61.66 66.14 61.66 65.57 61.49 65.57"></polygon>
                    <polygon id="_Path_57" fill="#FFFFFF" fill-rule="nonzero" points="61.49 62.74 60.34 62.74 60.34 63.31 60.51 63.31 60.51 63.84 61.66 63.84 61.66 63.26 61.49 63.26"></polygon>
                    <polygon id="_Path_58" fill="#FFFFFF" fill-rule="nonzero" points="61.49 66.19 60.34 66.19 60.34 66.77 60.51 66.77 60.51 67.3 61.66 67.3 61.66 66.72 61.49 66.72"></polygon>
                    <polygon id="_Path_59" fill="#FFFFFF" fill-rule="nonzero" points="61.49 53.53 60.34 53.53 60.34 54.1 60.51 54.1 60.51 54.62 61.66 54.62 61.66 54.04 61.49 54.04"></polygon>
                    <polygon id="_Path_60" fill="#FFFFFF" fill-rule="nonzero" points="61.49 52.38 60.34 52.38 60.34 52.95 60.51 52.95 60.51 53.46 61.66 53.46 61.66 52.88 61.49 52.88"></polygon>
                    <polygon id="_Path_61" fill="#FFFFFF" fill-rule="nonzero" points="61.49 51.23 60.34 51.23 60.34 51.8 60.51 51.8 60.51 52.31 61.66 52.31 61.66 51.73 61.49 51.73"></polygon>
                    <polygon id="_Path_62" fill="#FFFFFF" fill-rule="nonzero" points="61.49 50.07 60.34 50.07 60.34 50.65 60.51 50.65 60.51 51.16 61.66 51.16 61.66 50.58 61.49 50.58"></polygon>
                    <polygon id="_Path_63" fill="#FFFFFF" fill-rule="nonzero" points="61.49 56.98 60.34 56.98 60.34 57.56 60.51 57.56 60.51 58.07 61.66 58.07 61.66 57.5 61.49 57.5"></polygon>
                    <polygon id="_Path_64" fill="#FFFFFF" fill-rule="nonzero" points="61.49 54.68 60.34 54.68 60.34 55.26 60.51 55.26 60.51 55.77 61.66 55.77 61.66 55.19 61.49 55.19"></polygon>
                    <polygon id="_Path_65" fill="#FFFFFF" fill-rule="nonzero" points="61.49 55.83 60.34 55.83 60.34 56.41 60.51 56.41 60.51 56.92 61.66 56.92 61.66 56.34 61.49 56.34"></polygon>
                    <rect id="_Path_66" fill="#FFFFFF" fill-rule="nonzero" x="60.22" y="96.32" width="1.59" height="0.76"></rect>
                    <path d="M61.81,97.37 L60.22,97.37 C60.1430872,97.37 60.0693246,97.3394465 60.014939,97.285061 C59.9605535,97.2306754 59.93,97.1569128 59.93,97.08 L59.93,96.32 C59.93,96.1598374 60.0598374,96.03 60.22,96.03 L61.81,96.03 C61.9701626,96.03 62.1,96.1598374 62.1,96.32 L62.1,97.08 C62.1,97.1569128 62.0694465,97.2306754 62.015061,97.285061 C61.9606754,97.3394465 61.8869128,97.37 61.81,97.37 Z M60.51,96.79 L61.51,96.79 L61.51,96.6 L60.51,96.6 L60.51,96.79 Z" id="_Compound_Path_13" fill="#FFFFFF" fill-rule="nonzero"></path>
                    <rect id="_Path_67" fill="#FFFFFF" fill-rule="nonzero" x="60.51" y="33.57" width="1.15" height="0.29"></rect>
                    <polyline id="_Path_68" fill="#FFFFFF" fill-rule="nonzero" points="61.66 97.05 60.51 97.05 60.51 97.62 61.66 97.62"></polyline>
                    <polygon id="_Path_69" fill="#FFFFFF" fill-rule="nonzero" points="20.19 101.54 20.52 101.45 20.52 97.36 22.6 98.36 22.6 100.86 24.28 100.39 24.4 100.39 24.4 95.1 28.82 97.21 28.82 99.12 30.62 98.6 30.62 93.46 29.33 93.46 24.4 91.11 24.4 90.29 22.6 90.29 22.6 95.91 20.52 94.91 20.52 94.41 19.42 94.41 19.42 101.76"></polygon>
                </g>
            </g>
        </g>
    </g>
</svg>