<?xml version="1.0" encoding="UTF-8"?>
<svg width="118px" height="142px" viewBox="0 0 118 142" version="1.1" xmlns="http://www.w3.org/2000/svg" xmlns:xlink="http://www.w3.org/1999/xlink">
    <!-- Generator: Sketch 42 (36781) - http://www.bohemiancoding.com/sketch -->
    <title>sticker_runner_white</title>
    <desc>Created with Sketch.</desc>
    <defs>
        <polygon id="path-1" points="0 141.732 117.246 141.732 117.246 0 0 0"></polygon>
    </defs>
    <g id="Page-1" stroke="none" stroke-width="1" fill="none" fill-rule="evenodd">
        <g id="stickers-black" transform="translate(-353.000000, -483.000000)">
            <g id="sticker_runner_white" transform="translate(353.000000, 483.000000)">
                <path d="M35.823,101.5342 C37.446,101.5342 37.509,98.3092 37.509,97.3192 C37.509,96.3282 37.446,93.1022 35.823,93.1022 C34.199,93.1022 34.136,96.3282 34.136,97.3192 C34.136,98.3092 34.199,101.5342 35.823,101.5342 Z M35.823,89.0982 C40.185,89.0982 41.893,93.4392 41.893,97.3192 C41.893,101.1972 40.185,105.5402 35.823,105.5402 C31.459,105.5402 29.752,101.1972 29.752,97.3192 C29.752,93.4392 31.459,89.0982 35.823,89.0982 Z" id="Fill-1" fill="#FFFFFF"></path>
                <path d="M42.3786,89.3721 L46.4696,89.3721 L49.9046,98.9421 L49.9466,98.9001 C49.7776,97.0661 49.4616,95.2541 49.4616,93.4191 L49.4616,89.3721 L53.5936,89.3721 L53.5936,105.2671 L49.4616,105.2671 L46.2576,96.0971 L46.2166,96.1381 C46.3206,97.6351 46.5106,99.1111 46.5106,100.6071 L46.5106,105.2671 L42.3786,105.2671 L42.3786,89.3721 Z" id="Fill-3" fill="#FFFFFF"></path>
                <polygon id="Fill-5" fill="#FFFFFF" points="60.0661 105.2667 60.0661 93.2497 57.7061 93.2497 57.7061 89.3717 66.8341 89.3717 66.8341 93.2497 64.3671 93.2497 64.3671 105.2667"></polygon>
                <polygon id="Fill-7" fill="#FFFFFF" points="73.7487 105.2667 73.7487 98.8157 71.7037 98.8157 71.7037 105.2667 67.4037 105.2667 67.4037 89.3717 71.7037 89.3717 71.7037 95.0647 73.7487 95.0647 73.7487 89.3717 78.0487 89.3717 78.0487 105.2667"></polygon>
                <polygon id="Fill-9" fill="#FFFFFF" points="79.0192 89.3721 87.0082 89.3721 87.0082 93.1241 83.3192 93.1241 83.3192 95.3381 86.6292 95.3381 86.6292 99.0891 83.3192 99.0891 83.3192 101.5141 87.0082 101.5141 87.0082 105.2671 79.0192 105.2671"></polygon>
                <path d="M21.8669,114.8243 C23.0049,114.8243 23.6159,113.8343 23.6159,112.8013 C23.6159,111.4103 22.7729,110.8203 21.5929,110.8833 L21.5929,114.8033 L21.8669,114.8243 Z M23.9539,123.3613 L21.5709,116.7433 L21.5299,116.7853 C21.5509,117.5653 21.5929,118.3453 21.5929,119.1253 L21.5929,123.3613 L17.2919,123.3613 L17.2919,107.4683 L21.4439,107.4683 C25.1769,107.4683 27.8749,108.5643 27.8749,112.7593 C27.8749,114.5093 27.1159,116.0673 25.4079,116.7433 L28.6119,123.3613 L23.9539,123.3613 Z" id="Fill-11" fill="#FFFFFF"></path>
                <path d="M39.1325,107.4678 L39.1325,117.8608 C39.1325,119.7778 38.7095,123.6368 33.7365,123.6368 C28.7605,123.6368 28.3395,119.7778 28.3395,117.8608 L28.3395,107.4678 L32.6395,107.4678 L32.6395,117.4588 C32.6395,117.8818 32.6175,118.4288 32.7455,118.8518 C32.8705,119.2928 33.1455,119.6308 33.7365,119.6308 C34.3465,119.6308 34.6205,119.2928 34.7265,118.8718 C34.8525,118.4288 34.8315,117.8818 34.8315,117.4808 L34.8315,107.4678 L39.1325,107.4678 Z" id="Fill-13" fill="#FFFFFF"></path>
                <path d="M39.9763,107.4678 L44.0663,107.4678 L47.5013,117.0388 L47.5433,116.9958 C47.3743,115.1608 47.0593,113.3488 47.0593,111.5158 L47.0593,107.4678 L51.1913,107.4678 L51.1913,123.3618 L47.0593,123.3618 L43.8553,114.1928 L43.8123,114.2348 C43.9173,115.7308 44.1083,117.2058 44.1083,118.7028 L44.1083,123.3618 L39.9763,123.3618 L39.9763,107.4678 Z" id="Fill-15" fill="#FFFFFF"></path>
                <path d="M56.1032,118.0079 C56.6942,118.8939 57.7262,119.7779 58.8232,119.7779 C59.4142,119.7779 60.0872,119.4209 60.0872,118.7249 C60.0872,118.3449 59.9612,118.0709 59.7502,117.8389 C59.5602,117.6069 59.3082,117.4169 59.0332,117.2279 C58.1902,116.5729 57.4532,115.9629 56.9042,115.2039 C56.3772,114.4659 56.0412,113.5799 56.0412,112.4219 C56.0412,110.5669 57.2202,107.1939 60.8882,107.1939 C61.9222,107.1939 63.0392,107.5099 63.9452,107.9939 L63.9452,112.8219 C63.4392,112.0209 62.4062,111.1149 61.4152,111.1149 C60.9102,111.1149 60.2972,111.4739 60.2972,112.0839 C60.2972,112.4219 60.4882,112.7169 60.7202,112.9699 C60.9522,113.2229 61.2682,113.4329 61.4992,113.6229 C62.4062,114.2549 63.1232,114.8459 63.6082,115.5629 C64.1142,116.2789 64.3872,117.1219 64.3872,118.3239 C64.3872,121.2759 62.3222,123.6369 59.3292,123.6369 C58.2332,123.6369 57.1152,123.4039 56.1032,122.9829 L56.1032,118.0079 Z" id="Fill-17" fill="#FFFFFF"></path>
                <mask id="mask-2" fill="white">
                    <use xlink:href="#path-1"></use>
                </mask>
                <g id="Clip-20"></g>
                <polygon id="Fill-19" fill="#FFFFFF" mask="url(#mask-2)" points="64.874 123.362 69.174 123.362 69.174 107.468 64.874 107.468"></polygon>
                <path d="M70.1228,107.4678 L74.2118,107.4678 L77.6468,117.0388 L77.6898,116.9958 C77.5208,115.1608 77.2058,113.3488 77.2058,111.5158 L77.2058,107.4678 L81.3368,107.4678 L81.3368,123.3618 L77.2058,123.3618 L74.0018,114.1928 L73.9598,114.2348 C74.0638,115.7308 74.2538,117.2058 74.2538,118.7028 L74.2538,123.3618 L70.1228,123.3618 L70.1228,107.4678 Z" id="Fill-21" fill="#FFFFFF" mask="url(#mask-2)"></path>
                <path d="M90.9929,112.127 C90.3829,111.536 89.8759,111.198 88.9899,111.198 C86.7559,111.198 86.2069,113.665 86.2069,115.414 C86.2069,117.27 86.7559,119.631 88.9059,119.631 C89.8759,119.631 90.4869,119.251 91.1819,118.618 L90.9299,123.066 C90.0649,123.446 89.2859,123.637 88.3379,123.637 C84.8169,123.637 81.8229,120.958 81.8229,115.521 C81.8229,108.396 86.7149,107.193 88.8009,107.193 C89.5599,107.193 90.2969,107.299 90.9929,107.573 L90.9929,112.127 Z" id="Fill-22" fill="#FFFFFF" mask="url(#mask-2)"></path>
                <polygon id="Fill-23" fill="#FFFFFF" mask="url(#mask-2)" points="91.9616 107.4678 99.9516 107.4678 99.9516 111.2198 96.2646 111.2198 96.2646 113.4328 99.5726 113.4328 99.5726 117.1858 96.2646 117.1858 96.2646 119.6098 99.9516 119.6098 99.9516 123.3618 91.9616 123.3618"></polygon>
                <path d="M38.9646,130.7911 C38.9646,127.6071 41.1146,125.2891 44.3396,125.2891 C47.3536,125.2891 49.3566,127.5661 49.3566,130.4951 C49.3566,133.4891 47.2696,135.9991 45.2036,137.8951 L45.2456,137.9371 C45.9626,137.8951 46.6796,137.7901 47.3966,137.7901 L49.1666,137.7901 L49.1666,141.4571 L38.2056,141.4571 L42.4006,135.8711 C43.5806,134.2911 45.1616,132.2881 45.1616,130.2441 C45.1616,129.6321 44.9086,128.8311 44.1716,128.8311 C43.2426,128.8311 43.1386,130.1161 43.1386,130.7701 L43.1386,131.3601 L38.9856,131.3601 L38.9646,130.7911 Z" id="Fill-24" fill="#FFFFFF" mask="url(#mask-2)"></path>
                <path d="M53.5524,133.5098 C53.5524,135.3028 53.6364,138.0638 54.9434,138.0638 C56.2504,138.0638 56.3354,135.3028 56.3354,133.5098 C56.3354,131.7188 56.2504,128.9558 54.9434,128.9558 C53.6364,128.9558 53.5524,131.7188 53.5524,133.5098 M60.5714,133.5098 C60.5714,137.0308 59.3704,141.7328 54.9434,141.7328 C50.5164,141.7328 49.3154,137.0308 49.3154,133.5098 C49.3154,129.9898 50.5164,125.2888 54.9434,125.2888 C59.3704,125.2888 60.5714,129.9898 60.5714,133.5098" id="Fill-25" fill="#FFFFFF" mask="url(#mask-2)"></path>
                <polygon id="Fill-26" fill="#FFFFFF" mask="url(#mask-2)" points="62.0056 141.4571 62.0056 129.2311 60.2976 129.2311 60.2976 125.5621 66.3066 125.5621 66.3066 141.4571"></polygon>
                <path d="M72.0612,133.5098 C72.0612,135.3028 72.1462,138.0638 73.4532,138.0638 C74.7592,138.0638 74.8442,135.3028 74.8442,133.5098 C74.8442,131.7188 74.7592,128.9558 73.4532,128.9558 C72.1462,128.9558 72.0612,131.7188 72.0612,133.5098 M79.0822,133.5098 C79.0822,137.0308 77.8792,141.7328 73.4532,141.7328 C69.0272,141.7328 67.8252,137.0308 67.8252,133.5098 C67.8252,129.9898 69.0272,125.2888 73.4532,125.2888 C77.8792,125.2888 79.0822,129.9898 79.0822,133.5098" id="Fill-27" fill="#FFFFFF" mask="url(#mask-2)"></path>
                <path d="M68.1999,14.9766 C67.9889,14.6376 68.2069,14.3846 68.4009,14.2066 C68.6009,14.0306 69.1599,13.6686 69.4489,13.4976 C69.7329,13.3366 70.0369,13.5416 70.0969,13.7616 C70.1649,13.9786 70.2419,14.4966 70.2169,14.8826 C70.1929,15.4476 70.0049,15.7016 69.8699,15.7256 C69.7329,15.7496 69.4809,15.6866 69.0779,15.5346 C68.6629,15.3826 68.4109,15.3236 68.1999,14.9766 M66.4869,9.4976 C66.1979,9.1936 66.2809,8.6116 66.3589,8.2476 C66.4329,7.8856 66.5769,7.7416 66.6959,7.6076 C67.0009,7.2606 67.4369,7.0156 67.8179,7.1176 C68.1999,7.2096 68.9349,7.5146 69.2869,7.6816 C69.6419,7.8516 69.9289,8.0386 70.1049,8.1646 C70.2749,8.2896 70.4419,8.6616 70.1929,9.0176 C69.9379,9.3716 69.5759,9.5716 69.3209,9.7236 C69.0669,9.8696 68.4769,9.9276 67.8029,9.9376 C67.1279,9.9446 66.7699,9.8006 66.4869,9.4976 M72.2239,9.6146 C72.3289,9.4056 72.6649,9.2096 72.9249,9.1936 C73.1949,9.1676 73.4339,9.2676 73.8709,9.4296 C74.3099,9.5806 74.6739,9.8696 74.6489,10.1976 C74.6139,10.5366 74.5309,10.8486 74.3769,11.0696 C74.2329,11.2796 73.7029,11.4216 73.4139,11.3726 C73.1359,11.3196 72.8909,11.0756 72.5639,10.7116 C72.2399,10.3496 72.1469,10.0606 72.1469,9.8946 C72.1469,9.7326 72.1819,9.6936 72.2239,9.6146 M116.6339,85.1836 C116.2229,85.0676 115.8889,84.9976 115.1749,85.3766 C114.4669,85.7576 113.5299,86.6246 112.7189,87.3516 C111.9079,88.0876 111.1659,88.6026 110.5129,88.8296 C109.8679,89.0666 108.6239,89.3286 107.9379,89.5316 C107.2629,89.7246 106.8929,89.8746 106.2889,89.8256 C105.6719,89.7826 105.3909,89.7436 104.8929,89.8606 C104.7239,89.6166 103.8299,88.7046 103.3499,87.8326 C102.8659,86.9726 100.2409,83.2416 99.0759,81.2486 C97.9209,79.2566 94.8809,74.3196 93.8189,72.4696 C92.7549,70.6276 91.6829,68.6696 91.4289,67.9536 C91.1759,67.2446 90.8319,66.6626 90.5039,66.1476 C90.1699,65.6336 89.6749,65.4216 89.3369,65.2356 C89.0069,65.0516 88.4749,64.6356 87.2159,63.7776 C85.9589,62.9066 84.9709,62.1626 84.0159,61.5466 C84.0849,61.0656 83.6609,60.7276 83.4759,60.5316 C83.3019,60.3496 82.7089,60.0776 82.0649,59.8076 C81.4349,59.5296 80.7839,59.1316 79.8889,58.6956 C79.4669,58.3046 78.9609,58.1706 78.9609,58.1706 C78.9609,58.1706 78.8099,57.9756 78.2039,57.4526 C77.5849,56.9276 75.9409,56.0076 75.3219,55.6396 C74.7169,55.2686 73.9029,54.6416 73.4339,54.2196 C72.9589,53.7986 72.0819,53.2506 71.8119,53.0806 C71.8519,52.4726 71.8959,51.7216 71.9209,50.9696 C71.9439,50.2256 71.8519,48.8436 71.7349,47.7466 C71.6089,46.6396 71.5669,45.6956 71.6329,44.9426 C71.6919,44.1836 71.8389,43.4986 71.8879,43.0176 C71.9379,42.5476 72.0149,41.9206 72.1559,41.3966 C72.2939,40.8726 72.3419,40.5286 72.5179,39.5996 C73.0189,39.8596 74.2189,40.3776 74.6809,40.4526 C75.1459,40.5286 75.7879,40.6966 76.2459,40.7746 C76.7059,40.8586 77.3409,40.9516 77.3409,40.9516 L77.5329,40.6816 C77.5329,40.6816 78.1829,40.9316 79.2479,41.2796 C80.3129,41.6276 81.1399,41.8766 81.4859,42.0226 C81.8319,42.1746 82.1189,42.3866 82.6829,42.3076 C83.2429,42.2256 84.0099,41.8766 85.6059,41.3146 C87.1989,40.7476 89.4349,39.5166 91.6729,37.7446 C93.9099,35.9716 95.5229,34.5766 96.3169,34.0286 C97.1199,33.4796 98.0139,32.6956 99.4569,31.6226 C100.9019,30.5426 101.5419,30.1116 102.0329,29.4456 C102.5029,28.7786 102.5379,28.3476 102.5379,27.7406 C102.5379,27.1236 102.6219,26.5576 102.3259,26.0276 C101.9209,25.6616 101.1639,24.8526 100.4709,24.5976 C99.7709,24.3536 99.0869,24.4816 98.6119,24.9356 C98.2409,25.1646 97.9799,25.5776 97.6089,25.9936 C97.3139,26.1116 96.9299,26.4736 96.8629,27.0406 C96.7979,27.6056 96.8969,28.3286 97.1019,29.1656 C96.4079,29.7476 96.1219,30.1456 94.9919,30.7036 C93.8589,31.2656 89.5629,32.8126 87.5949,33.7586 C85.6199,34.7126 83.9759,35.4616 83.3679,35.6826 C82.7619,35.9086 82.3379,35.7326 81.8809,35.6326 C81.4249,35.5216 80.7949,35.2776 80.3869,35.1436 C80.4369,35.0406 80.4899,34.8896 80.4229,34.8066 C80.2449,34.6016 79.5779,34.1986 78.8769,33.7146 C78.1829,33.2346 77.5679,32.5346 77.2579,32.3646 C76.9349,32.2056 76.1919,31.7496 75.7109,31.5706 C75.2309,31.3856 74.6489,31.0906 74.1829,30.4066 C73.7179,29.7296 73.1359,28.7196 72.5879,27.7226 C72.4099,26.9136 71.8119,26.1256 71.4299,25.6616 C71.0499,25.2056 70.3349,23.8576 70.0559,23.1636 C69.7679,22.4616 69.5219,21.7526 68.7889,21.1216 C69.1699,20.8766 69.2029,20.7736 69.9469,20.8286 C70.2519,20.8426 70.4369,20.6806 70.9589,20.4796 C71.2549,20.2696 71.4479,20.2506 71.8779,19.8136 C72.2399,19.4326 72.5719,19.0786 72.7919,18.4436 C73.0079,17.8216 73.4139,16.9506 73.6169,16.4256 C73.8209,15.8966 74.1989,14.8826 74.5959,14.1646 C74.9919,13.4566 75.2649,12.6016 75.4909,11.9956 C75.7259,11.3776 76.3199,10.3686 76.6079,9.2526 C76.8859,8.1466 76.9689,6.7706 76.8509,5.9006 C76.7349,5.0406 76.2169,3.7496 75.9229,3.1176 C75.6289,2.4816 75.3219,1.2566 74.4429,0.7626 C73.5669,0.2616 72.6909,0.0586 71.8119,0.0176 C70.9259,-0.0314 70.2169,0.0176 69.4289,0.1786 C68.6549,0.3466 67.4709,1.0136 67.0149,1.4436 C66.5429,1.8746 65.2189,3.0546 64.8899,3.7296 C64.5519,4.4146 63.9269,6.0196 63.7239,6.7546 C63.5279,7.4806 63.2429,8.8716 63.0839,9.8596 C62.9129,10.8306 62.5149,12.4106 62.3149,13.0776 C62.1189,13.7336 61.8479,14.4036 61.8479,14.7316 C61.8479,15.0696 61.6899,15.1036 62.0369,15.7256 C61.3259,15.4816 61.1749,15.6426 60.4909,15.6916 C59.8169,15.7446 58.9889,15.9126 57.7209,16.2086 C56.6599,16.3766 54.9709,17.0526 54.4909,17.1886 C54.0099,17.3136 52.8259,18.1926 51.8459,18.8686 C51.0779,19.3486 48.6879,20.3286 48.1499,20.5816 C47.5949,20.8286 46.5379,21.4246 46.2349,21.7136 C45.9369,21.9916 45.8529,21.8406 45.4809,22.1836 C45.3139,22.3546 45.2309,22.4876 45.2309,22.4876 C45.2309,22.4876 43.5429,23.3496 41.6519,24.2946 C39.7509,25.2406 37.0659,26.8856 36.1039,27.5946 C35.1409,28.3146 34.2799,28.9066 33.6969,29.3276 C33.1169,29.7396 33.1669,30.4636 33.0299,31.3346 C32.9029,32.1976 32.8739,33.9196 32.9029,35.9446 C32.9379,37.9686 33.4369,41.4306 33.7239,43.2276 C34.0029,45.0196 34.3469,48.5746 34.4649,49.5196 C34.5869,50.4646 34.6519,51.0466 34.5529,51.5276 C34.4509,52.0086 34.1709,52.6426 33.9179,53.1056 C33.6729,53.5696 33.4029,54.2636 33.5189,54.6516 C33.6369,55.0296 33.7589,55.4116 34.2039,56.0946 C34.1549,56.3726 34.2209,56.6596 34.3469,57.0206 C34.4839,57.3846 34.8809,58.0696 35.0999,58.4986 C35.3099,58.9296 35.5469,59.0986 35.9939,59.1176 C36.3249,59.2686 36.7559,59.2446 37.0929,58.9806 C37.4229,58.7186 38.2819,57.9026 38.9659,57.2506 C39.6399,56.6096 39.4639,56.2186 39.3949,55.2746 C39.3279,54.3286 39.1759,53.4356 38.9989,52.5226 C38.8139,51.6116 38.7719,50.2876 38.8829,48.6236 C38.9889,46.9596 39.1829,43.2476 39.2279,41.2546 C39.2779,39.2716 39.1829,36.1726 39.1689,35.3026 C39.1419,34.4416 39.2099,33.9786 40.0709,33.6466 C40.9329,33.3086 43.1449,32.5436 44.5619,31.8096 C45.9799,31.0806 47.3989,30.4336 47.3989,30.4336 C47.3989,30.4336 47.4589,30.8796 47.9289,30.9046 C48.3189,30.8126 49.5599,30.3306 50.2019,30.0616 C50.8429,29.7916 52.2879,29.2836 54.2789,28.5146 C54.0759,30.2376 53.6959,33.7336 53.6959,35.3946 C53.6959,37.0486 53.8299,39.7946 53.7909,40.3006 C53.7469,40.8146 53.8299,41.4556 53.6089,41.9206 C53.3929,42.3866 53.1049,43.9286 52.9289,44.7226 C52.7519,45.5256 51.8459,47.4936 51.3569,48.9526 C50.8679,50.4116 50.5639,52.3356 50.5639,52.3356 C50.5639,52.3356 51.0039,52.5656 51.4939,52.7426 C50.9599,53.2506 50.6759,54.1626 50.3629,54.5586 C50.0489,54.9556 49.8299,55.6396 49.5019,56.5256 C49.1729,57.4126 47.8549,60.5076 47.2639,61.4716 C46.6659,62.4326 46.0239,63.4806 45.3889,64.3666 C44.4869,65.6236 44.6549,65.7496 44.6299,66.2146 C44.2819,66.5936 42.7559,68.7046 41.9539,69.7266 C41.1639,70.7486 39.9889,72.4296 39.0829,73.3976 C37.7999,72.8006 34.8809,72.5376 32.4489,72.6496 C30.0089,72.7576 26.4039,72.7826 24.0419,72.4946 C21.6709,72.2086 20.0509,71.9056 18.6879,71.7526 C17.3319,71.6076 16.2839,71.4746 15.4389,71.3236 C14.5949,71.1706 13.7599,70.6136 13.4489,70.3596 C13.1259,70.1146 12.4179,69.5666 11.7659,69.1016 C11.1259,68.6386 10.2149,68.1646 9.4119,67.9056 C8.7339,67.7776 8.4319,67.6416 8.0189,67.7776 C7.7899,68.1906 6.5749,70.4266 5.8319,71.9396 C5.0919,73.4506 3.4179,76.4806 2.7619,77.6926 C2.0959,78.9186 0.9879,81.2236 0.6269,82.2696 C0.2679,83.3176 0.0109,84.3966 -0.0001,84.8126 C0.0579,84.8786 0.2199,85.1996 0.5399,85.4046 C0.8519,85.5386 1.6049,85.6066 1.9759,85.3516 C2.3469,85.0906 2.6479,84.8366 3.1319,84.3636 C3.3259,84.1626 3.9939,83.6036 4.3329,83.2896 C4.6609,82.9886 6.3809,81.1286 7.2269,80.4206 C8.0699,79.7136 9.3269,78.5556 9.9699,78.2706 C10.6099,77.9816 11.3789,77.5866 12.2069,77.2726 C12.9169,77.2326 14.8159,77.2326 17.9399,77.6926 C21.0529,78.1596 26.3219,79.9906 30.2539,81.1496 C34.1959,82.2956 36.7359,82.8306 37.9529,82.8046 C39.1689,82.7746 40.9919,82.9886 41.7609,82.9616 C42.5199,82.9476 43.2279,82.6516 43.8609,82.4226 C44.4959,82.1876 45.0009,81.5106 45.6679,81.0296 C46.3349,80.5476 48.1259,79.3316 50.4119,77.5416 C52.6999,75.7456 54.9459,73.6436 55.7219,73.0776 C55.9749,73.1976 56.4729,73.3556 56.7179,73.1096 C56.9719,72.8656 58.0939,72.1656 59.0539,71.4506 C60.0189,70.7316 61.1509,69.5066 62.0459,68.4256 C62.9409,67.3476 63.9849,66.1716 63.9849,66.1716 C63.9849,66.1716 65.1179,66.4166 65.9439,66.8046 C66.5249,67.2356 67.5719,67.6506 68.4509,68.0626 C69.3309,68.4776 70.6539,69.3216 71.4889,69.7366 C72.3179,70.1586 73.2969,70.6906 73.5249,70.7546 C73.7619,70.8146 73.9239,70.7316 74.3439,70.4516 C74.7549,70.1666 75.1199,69.7516 75.1199,69.7516 C75.1199,69.7516 75.3639,69.8696 77.2039,70.4866 C79.0539,71.1026 79.8969,71.6946 81.0469,72.3116 C82.1839,72.9246 82.6349,73.3556 83.2179,74.2376 C83.7989,75.1126 84.6779,76.5236 86.4829,78.7596 C88.2979,81.0036 92.6119,85.3696 94.7209,87.8096 C96.8229,90.2386 99.7609,94.1716 100.5639,95.2716 C100.5639,95.8526 100.8749,96.5036 101.2209,97.1796 C101.5739,97.8616 102.3699,99.2556 103.0779,99.9306 C103.7959,100.6136 104.6829,101.4586 105.0879,101.7386 C105.5009,102.0236 105.7039,102.3126 106.3039,102.0576 C106.9289,101.5426 107.6299,100.8246 108.6089,99.2716 C109.5889,97.7086 110.5339,96.4176 111.6989,95.0006 C112.8539,93.6006 113.9659,92.0286 115.3599,90.0286 C116.7529,88.0186 117.1829,86.7856 117.2349,86.1976 C117.2849,85.5966 117.1679,85.4296 116.6339,85.1836" id="Fill-28" fill="#FFFFFF" mask="url(#mask-2)"></path>
            </g>
        </g>
    </g>
</svg>