<?xml version="1.0" encoding="UTF-8"?>
<svg width="128px" height="139px" viewBox="0 0 128 139" version="1.1" xmlns="http://www.w3.org/2000/svg" xmlns:xlink="http://www.w3.org/1999/xlink">
    <!-- Generator: Sketch 48.1 (47250) - http://www.bohemiancoding.com/sketch -->
    <title>sticker_bloody_black</title>
    <desc>Created with Sketch.</desc>
    <defs>
        <polygon id="path-1" points="0.0937019608 0.8212 16.5226431 0.8212 16.5226431 23 0.0937019608 23"></polygon>
        <polygon id="path-3" points="0.588517647 0.856904348 17.0174588 0.856904348 17.0174588 24 0.588517647 24"></polygon>
        <polygon id="path-5" points="0.461585185 0.00525454545 18.4426667 0.00525454545 18.4426667 22.4771939 0.461585185 22.4771939"></polygon>
    </defs>
    <g id="stickers-white" stroke="none" stroke-width="1" fill="none" fill-rule="evenodd" transform="translate(-550.000000, -22.000000)">
        <g id="sticker_bloody_black" transform="translate(550.000000, 22.000000)">
            <path d="M81.4609126,54.0951556 C80.1637955,52.9625163 78.7856087,51.9586553 77.5969225,50.809792 C77.7621023,50.0168432 77.5371335,48.8335039 78.2191333,48.5658076 C79.0136175,49.0758502 79.5547586,49.9164571 80.1496083,50.6151038 C81.3413346,52.0174673 82.6668261,53.2687447 84.0105583,54.6163521 C84.6317558,55.2409768 85.4343469,55.8858815 85.7353186,56.7690764 C83.9781304,56.5186182 82.6952005,55.1720247 81.4609126,54.0951556 M71.6403178,59.0556489 C71.7609091,57.4210791 73.2779281,56.340154 74.1088937,55.0827926 C76.3575677,55.5979052 77.9029611,56.8096365 80.1192071,57.3561831 C78.3458049,58.9207867 74.2821804,58.7088605 71.6403178,59.0556489 M70.5114206,28.9986287 L69.5669572,29.7124854 C69.5152752,29.7337794 69.3997507,29.7591295 69.2031564,29.7195834 C68.7907138,29.6364353 67.9475877,29.2440169 66.9504289,27.5587471 C66.9220545,27.5090611 66.9362417,27.447207 66.9818435,27.414759 C67.0314988,27.3843389 67.0933145,27.3965069 67.1257424,27.441123 C67.1338494,27.449235 67.9303603,28.5037961 70.460752,28.8100245 C70.5144607,28.8201645 70.539795,28.8465285 70.5499288,28.8881025 C70.5600625,28.9296766 70.5458753,28.9732786 70.5114206,28.9986287 M64.9307772,20.6949738 C64.9307772,20.6949738 66.3697664,17.5252064 69.2102501,19.8300308 C69.2102501,19.8300308 69.7706452,22.0344692 67.9627883,22.9369302 C67.9627883,22.9369302 65.5317072,22.4441256 64.9307772,20.6949738 M74.7361714,21.877299 C74.7361714,21.877299 75.439452,22.2251014 75.5772707,23.0809183 C75.5772707,23.0809183 75.8822959,24.1243254 74.5405904,25.1444105 C74.5405904,25.1444105 72.7834022,24.8929383 72.5868079,24.5938079 L72.3679194,24.1364934 C72.3679194,24.1364934 73.2525937,21.5497767 74.7361714,21.877299 M99.9924591,64.0850943 C99.8526137,61.4040754 96.8814049,59.4257593 94.8110845,58.7504345 C93.1785411,58.218084 91.1386219,58.4218982 89.7138199,57.5011852 C87.8998827,56.332042 86.7456512,53.8974253 85.246873,51.8643532 C84.6003412,50.9852142 83.9234083,50.0381372 83.1167636,48.89333 C82.516847,48.0405551 81.179195,46.5672115 81.1933822,45.7195066 C81.2055427,44.9204737 82.0598159,44.6842115 82.4043626,43.5799643 C82.9829984,41.5996202 81.8855158,40.6860052 79.0825269,38.0496024 C79.8131686,37.3032976 81.326134,36.4099626 80.6289336,34.889975 C80.0513112,34.5147946 79.7493261,36.1767424 79.2993886,35.5987617 C79.694604,34.9639971 80.3492428,32.7737547 79.2112252,32.4320363 C78.7866221,32.4908484 78.8920128,33.3618753 78.1867054,33.2452652 C77.8897872,33.1955792 76.1863077,30.4233002 76.056596,30.1718279 C75.3168339,28.7370164 75.8306139,27.6601472 76.0738233,26.2892178 C77.2209612,23.8921192 79.2477066,22.1500653 79.5760394,19.1557201 C79.6317749,18.6527756 79.634815,18.1711251 79.6044138,17.7026565 C84.3297707,14.5278191 85.3360498,10.4728288 85.3846917,10.2649586 C85.3917853,10.2335245 85.3958388,10.2010765 85.3978655,10.1696425 C85.4302935,9.48620574 85.1840439,9.0735073 84.6682372,8.94472916 C83.9223949,8.75815296 83.2089805,9.36655362 82.8330192,9.76911205 C80.8903838,11.4868299 79.3135759,12.5829651 78.0803013,13.2907378 C77.0324739,11.6490701 75.6248992,10.2619166 74.4149322,9.02280725 C73.7440795,8.6070668 73.3306234,7.97027412 72.8695389,7.40547551 C74.0541716,3.36163918 73.5961271,1.5191992 73.4593218,1.11664077 C73.2850217,0.400756006 72.9546622,0.0245616028 72.4793904,0.00123957776 C71.7639493,-0.0362784625 71.2623298,0.788104421 71.1032303,1.08419274 C70.6958544,1.94507966 69.7868591,4.07549594 69.7726719,4.11504199 C69.3308414,5.00127894 68.9427197,5.69384168 68.6083067,6.23937426 C67.4186071,6.38133442 66.265389,6.67336673 65.5458944,6.94004901 C63.8251875,7.5768417 62.0923202,9.10494134 60.8337113,10.4931088 C58.2111028,13.3890959 56.4478343,17.3741202 54.9672968,21.1908203 C53.6488989,24.5978639 52.4693331,28.0809577 50.1304689,30.1566179 C50.2115387,30.4516922 50.8155088,30.223542 50.7415326,30.6707164 C48.6063564,33.962164 53.6053239,35.3837935 52.9516985,38.4420208 C52.0508102,38.9368533 51.4752145,37.8741802 50.707078,38.2280665 C50.5783796,39.576688 52.0548637,39.3312997 53.2536836,39.3627338 C53.7836775,41.2467478 56.3698046,43.0962858 54.9622299,45.2946401 C53.5962035,45.8361167 53.1442393,44.6811695 52.621339,44.0585728 C51.0191968,45.7002406 53.2090952,47.3459643 54.1322777,48.4573095 C54.5203994,48.924764 55.1051155,49.856631 55.4516889,49.9955492 C57.4186453,50.773288 58.3914831,49.0089261 59.5447013,47.8681749 C60.1952865,47.8671609 60.4780175,48.2301733 61.1762313,48.1815012 C61.580567,47.999995 61.5653664,47.080296 62.2017645,47.062044 C62.6304211,47.051904 63.6589944,48.3630074 64.1322395,48.911582 C64.6105514,49.4631986 65.4131426,50.5228297 65.5519746,51.2650785 C65.922869,53.2717867 65.2165483,54.4115239 64.3065396,55.447833 C62.2210186,57.1696069 59.34,57.8682536 57.246372,59.3983812 C54.0258736,61.7549198 51.041491,67.2163296 53.2101085,72.0460168 C54.4251424,73.4331703 55.2409074,74.6479436 56.6636827,75.4317664 C58.2475842,76.3027934 61.8521509,77.0795182 64.2112825,76.893956 C67.4783961,76.6384277 70.7201754,75.937753 73.5079637,74.99676 C76.9747117,73.8266027 79.7604732,71.7793345 82.612104,70.6456813 C83.746068,70.1934368 85.3319963,69.6702122 86.4933214,70.1508488 C85.752546,73.2192161 82.8309925,75.3111003 80.132381,77.0693782 C76.3484473,79.5354288 72.8239371,82.0937536 67.758087,82.8349884 C61.9626085,82.7011402 60.2256877,78.5863238 55.3270441,77.7751229 C51.463054,77.1332602 48.7948437,78.9148602 46.7417506,80.2888316 C43.4959178,82.464878 40.9168843,85.8536696 36,85.7563255 C38.6469295,91.0392712 44.6876441,94.7424031 52.8077996,93.2873116 C54.7190205,92.6322669 57.238265,91.4925296 59.1434057,91.6821478 C57.7459647,94.8772653 55.6209222,97.8969605 55.0149253,101.774501 C53.9853386,108.352326 57.298054,113.014703 60.4648437,115.791038 C61.210686,116.444054 62.0163173,117.151827 62.9070719,117.333333 C61.6991316,112.940681 64.9763789,110.87009 66.9281347,108.466908 C68.0965535,107.023984 69.2436914,105.148082 70.0128412,103.37358 C72.0031052,98.7801554 70.5661427,93.6016519 70.0817506,87.8502377 C76.3302066,82.7275042 86.4659604,79.3752167 93.3123063,74.3701073 C95.7018391,72.6239974 98.1673749,70.4773571 99.2618174,67.9616204 C99.6945276,66.9678994 100.057315,65.3221756 99.9924591,64.0850943" id="Fill-1" fill="#000000"></path>
            <path d="M8.80622509,133.385476 C9.69494528,133.385476 10.3974189,133.137111 10.9146581,132.637264 C11.4308851,132.139495 11.6900108,131.454673 11.6900108,130.584877 C11.6900108,129.714041 11.4308851,129.034415 10.9146581,128.547038 C10.3974189,128.058622 9.69494528,127.815453 8.80622509,127.815453 L4.30998925,127.815453 L4.30998925,133.385476 L8.80622509,133.385476 Z M8.52685519,123.835381 C9.41557538,123.835381 10.1140001,123.602604 10.620105,123.134972 C11.1262099,122.668378 11.3792624,122.031359 11.3792624,121.224953 C11.3792624,120.418546 11.1262099,119.781527 10.620105,119.314934 C10.1140001,118.84834 9.41557538,118.614524 8.52685519,118.614524 L4.30998925,118.614524 L4.30998925,123.835381 L8.52685519,123.835381 Z M12.9613462,125.713185 C13.3955842,125.948041 13.7255646,126.148603 13.9533118,126.31799 C14.181059,126.488416 14.407794,126.690018 14.6355412,126.922795 C15.1112798,127.453817 15.4574556,128.037838 15.6750807,128.674858 C15.8916936,129.310838 16,130.032031 16,130.839477 C16,131.837093 15.8451319,132.732869 15.5343835,133.528883 C15.2246473,134.324898 14.7752262,135.004524 14.1861201,135.566722 C13.597014,136.12892 12.8834061,136.564338 12.0463086,136.870897 C11.2092111,137.179534 10.2739293,137.333333 9.24046309,137.333333 L0,137.333333 L0,114.666667 L8.8689821,114.666667 C9.90244828,114.666667 10.841779,114.816309 11.6900108,115.112476 C12.5372303,115.409683 13.2558993,115.828474 13.8450054,116.369888 C14.4341115,116.911303 14.8885937,117.56391 15.2094642,118.328749 C15.5303347,119.091509 15.6902638,119.950914 15.6902638,120.905923 C15.6902638,123.071581 14.7802872,124.674002 12.9613462,125.713185 Z" id="Fill-3" fill="#000000"></path>
            <polygon id="Fill-5" fill="#000000" points="24 137.333333 24 114.666667 28.4125392 114.666667 28.4125392 133.385476 38.6666667 133.385476 38.6666667 137.333333"></polygon>
            <g id="Group-9" transform="translate(42.666667, 114.666667)">
                <mask id="mask-2" fill="white">
                    <use xlink:href="#path-1"></use>
                </mask>
                <g id="Clip-8"></g>
                <path d="M12.1811529,11.9112 C12.1811529,10.8692 12.1597412,10.0072 12.1189569,9.3222 C12.0771529,8.6382 12.0139373,8.0712 11.931349,7.6222 C11.8477412,7.1732 11.7386431,6.8102 11.6040549,6.5342 C11.4674275,6.2592 11.2961333,6.0092 11.0881333,5.7842 C10.7761333,5.4362 10.3856235,5.1562 9.91660392,4.9412 C9.44860392,4.7262 8.91127059,4.6202 8.30868235,4.6202 C7.7040549,4.6202 7.16774118,4.7262 6.69974118,4.9412 C6.23174118,5.1562 5.83001569,5.4362 5.49660392,5.7842 C5.28860392,6.0092 5.1173098,6.2592 4.98170196,6.5342 C4.84609412,6.8102 4.73699608,7.1732 4.65338824,7.6222 C4.5708,8.0712 4.51268235,8.6382 4.48209412,9.3222 C4.45048627,10.0072 4.43519216,10.8692 4.43519216,11.9112 C4.43519216,12.9522 4.45048627,13.8152 4.48209412,14.4992 C4.51268235,15.1832 4.5708,15.7452 4.65338824,16.1842 C4.73699608,16.6232 4.84609412,16.9802 4.98170196,17.2562 C5.1173098,17.5322 5.28860392,17.7822 5.49660392,18.0072 C5.83001569,18.3542 6.23174118,18.6402 6.69974118,18.8642 C7.16774118,19.0902 7.7040549,19.2012 8.30868235,19.2012 C8.91127059,19.2012 9.44860392,19.0902 9.91660392,18.8642 C10.3856235,18.6402 10.7761333,18.3542 11.0881333,18.0072 C11.2961333,17.7822 11.4674275,17.5322 11.6040549,17.2562 C11.7386431,16.9802 11.8477412,16.6232 11.931349,16.1842 C12.0139373,15.7452 12.0771529,15.1832 12.1189569,14.4992 C12.1597412,13.8152 12.1811529,12.9522 12.1811529,11.9112 M16.5226431,11.9112 C16.5226431,12.9522 16.507349,13.8912 16.4757412,14.7282 C16.4451529,15.5662 16.3564471,16.3372 16.2106431,17.0422 C16.0648392,17.7462 15.8405255,18.3952 15.5387216,18.9872 C15.2369176,19.5802 14.8046039,20.1512 14.2428,20.7032 C13.4933882,21.4372 12.6389569,22.0052 11.6815451,22.4032 C10.7231137,22.8012 9.59950588,23.0002 8.30868235,23.0002 C7.01683922,23.0002 5.88813333,22.8012 4.91950588,22.4032 C3.95087843,22.0052 3.09134902,21.4372 2.34295686,20.7032 C1.78013333,20.1512 1.34781961,19.5802 1.04601569,18.9872 C0.744211765,18.3952 0.524996078,17.7462 0.390407843,17.0422 C0.2548,16.3372 0.171192157,15.5662 0.140603922,14.7282 C0.108996078,13.8912 0.0937019608,12.9522 0.0937019608,11.9112 C0.0937019608,10.8692 0.108996078,9.9302 0.140603922,9.0932 C0.171192157,8.2552 0.2548,7.4842 0.390407843,6.7792 C0.524996078,6.0752 0.744211765,5.4272 1.04601569,4.8342 C1.34781961,4.2422 1.78013333,3.6702 2.34295686,3.1192 C3.09134902,2.3842 3.95087843,1.8162 4.91950588,1.4192 C5.88813333,1.0202 7.01683922,0.8212 8.30868235,0.8212 C9.59950588,0.8212 10.7231137,1.0202 11.6815451,1.4192 C12.6389569,1.8162 13.4933882,2.3842 14.2428,3.1192 C14.8046039,3.6702 15.2369176,4.2422 15.5387216,4.8342 C15.8405255,5.4272 16.0648392,6.0752 16.2106431,6.7792 C16.3564471,7.4842 16.4451529,8.2552 16.4757412,9.0932 C16.507349,9.9302 16.5226431,10.8692 16.5226431,11.9112" id="Fill-7" fill="#000000" mask="url(#mask-2)"></path>
            </g>
            <g id="Group-12" transform="translate(65.333333, 114.666667)">
                <mask id="mask-4" fill="white">
                    <use xlink:href="#path-3"></use>
                </mask>
                <g id="Clip-11"></g>
                <path d="M12.6759686,12.4290783 C12.6759686,11.3417739 12.6545569,10.4422957 12.6137725,9.72751304 C12.5719686,9.01377391 12.5087529,8.42212174 12.4261647,7.9536 C12.3425569,7.48507826 12.2334588,7.10629565 12.0988706,6.81829565 C11.9622431,6.53133913 11.790949,6.27046957 11.582949,6.03568696 C11.270949,5.67255652 10.8804392,5.38038261 10.4114196,5.15603478 C9.94341961,4.93168696 9.40608627,4.82107826 8.80349804,4.82107826 C8.19887059,4.82107826 7.66255686,4.93168696 7.19455686,5.15603478 C6.72655686,5.38038261 6.32483137,5.67255652 5.99141961,6.03568696 C5.78341961,6.27046957 5.61212549,6.53133913 5.47651765,6.81829565 C5.3409098,7.10629565 5.23181176,7.48507826 5.14820392,7.9536 C5.06561569,8.42212174 5.00749804,9.01377391 4.9769098,9.72751304 C4.94530196,10.4422957 4.93000784,11.3417739 4.93000784,12.4290783 C4.93000784,13.5153391 4.94530196,14.4158609 4.9769098,15.1296 C5.00749804,15.8433391 5.06561569,16.4297739 5.14820392,16.8878609 C5.23181176,17.3459478 5.3409098,17.7184696 5.47651765,18.0064696 C5.61212549,18.2944696 5.78341961,18.5553391 5.99141961,18.7901217 C6.32483137,19.1522087 6.72655686,19.4506435 7.19455686,19.6843826 C7.66255686,19.9202087 8.19887059,20.0360348 8.80349804,20.0360348 C9.40608627,20.0360348 9.94341961,19.9202087 10.4114196,19.6843826 C10.8804392,19.4506435 11.270949,19.1522087 11.582949,18.7901217 C11.790949,18.5553391 11.9622431,18.2944696 12.0988706,18.0064696 C12.2334588,17.7184696 12.3425569,17.3459478 12.4261647,16.8878609 C12.5087529,16.4297739 12.5719686,15.8433391 12.6137725,15.1296 C12.6545569,14.4158609 12.6759686,13.5153391 12.6759686,12.4290783 M17.0174588,12.4290783 C17.0174588,13.5153391 17.0021647,14.4951652 16.9705569,15.3685565 C16.9399686,16.2429913 16.8512627,17.047513 16.7054588,17.7831652 C16.5596549,18.5177739 16.3353412,19.1949913 16.0335373,19.8127304 C15.7317333,20.431513 15.2994196,21.0273391 14.7376157,21.6033391 C13.9882039,22.3692522 13.1337725,22.9619478 12.1763608,23.3772522 C11.2179294,23.7925565 10.0943216,24.0002087 8.80349804,24.0002087 C7.5116549,24.0002087 6.38294902,23.7925565 5.41432157,23.3772522 C4.44569412,22.9619478 3.58616471,22.3692522 2.83777255,21.6033391 C2.27494902,21.0273391 1.84263529,20.431513 1.54083137,19.8127304 C1.23902745,19.1949913 1.01981176,18.5177739 0.885223529,17.7831652 C0.749615686,17.047513 0.666007843,16.2429913 0.635419608,15.3685565 C0.603811765,14.4951652 0.588517647,13.5153391 0.588517647,12.4290783 C0.588517647,11.3417739 0.603811765,10.3619478 0.635419608,9.48855652 C0.666007843,8.61412174 0.749615686,7.8096 0.885223529,7.07394783 C1.01981176,6.33933913 1.23902745,5.66316522 1.54083137,5.04438261 C1.84263529,4.42664348 2.27494902,3.82977391 2.83777255,3.25481739 C3.58616471,2.48786087 4.44569412,1.89516522 5.41432157,1.48090435 C6.38294902,1.06455652 7.5116549,0.856904348 8.80349804,0.856904348 C10.0943216,0.856904348 11.2179294,1.06455652 12.1763608,1.48090435 C13.1337725,1.89516522 13.9882039,2.48786087 14.7376157,3.25481739 C15.2994196,3.82977391 15.7317333,4.42664348 16.0335373,5.04438261 C16.3353412,5.66316522 16.5596549,6.33933913 16.7054588,7.07394783 C16.8512627,7.8096 16.9399686,8.61412174 16.9705569,9.48855652 C17.0021647,10.3619478 17.0174588,11.3417739 17.0174588,12.4290783" id="Fill-10" fill="#000000" mask="url(#mask-4)"></path>
            </g>
            <path d="M101.03178,126.00052 C101.03178,125.108859 101.020668,124.338789 101.000463,123.691348 C100.980258,123.044947 100.938839,122.493115 100.877215,122.036893 C100.814581,121.58067 100.726691,121.193037 100.613545,120.873993 C100.5004,120.555989 100.339774,120.269161 100.133687,120.014549 C99.4113735,119.08132 98.3385108,118.614705 96.9150987,118.614705 L93.6348866,118.614705 L93.6348866,133.385295 L96.9150987,133.385295 C98.3385108,133.385295 99.4113735,132.91868 100.133687,131.985451 C100.339774,131.730839 100.5004,131.444011 100.613545,131.126007 C100.726691,130.806963 100.814581,130.420369 100.877215,129.963107 C100.938839,129.507924 100.980258,128.956092 101.000463,128.308652 C101.020668,127.661211 101.03178,126.891141 101.03178,126.00052 M105.333333,126.00052 C105.333333,126.933749 105.323231,127.789036 105.302016,128.563263 C105.281812,129.33749 105.22928,130.049363 105.147451,130.695765 C105.064613,131.344245 104.925201,131.937646 104.730227,132.478046 C104.533232,133.019486 104.270573,133.534944 103.940228,134.023383 C103.156291,135.168615 102.227891,136.007275 101.155028,136.538322 C100.082165,137.068329 98.7931136,137.333333 97.2868628,137.333333 L89.3333333,137.333333 L89.3333333,114.666667 L97.2868628,114.666667 C98.7931136,114.666667 100.082165,114.93271 101.155028,115.461678 C102.227891,115.992725 103.156291,116.831385 103.940228,117.976617 C104.270573,118.466095 104.533232,118.980514 104.730227,119.521954 C104.925201,120.062354 105.064613,120.656794 105.147451,121.304235 C105.22928,121.951676 105.281812,122.66251 105.302016,123.436737 C105.323231,124.212003 105.333333,125.06729 105.333333,126.00052" id="Fill-13" fill="#000000"></path>
            <g id="Group-17" transform="translate(109.333333, 114.666667)">
                <mask id="mask-6" fill="white">
                    <use xlink:href="#path-5"></use>
                </mask>
                <g id="Clip-16"></g>
                <polygon id="Fill-15" fill="#000000" mask="url(#mask-6)" points="11.6439556 13.2611333 11.6439556 22.4771939 7.25936296 22.4771939 7.25936296 13.2611333 0.461585185 0.00525454545 5.25891852 0.00525454545 9.48380741 9.06367879 13.645437 0.00525454545 18.4427704 0.00525454545"></polygon>
            </g>
        </g>
    </g>
</svg>