<?xml version="1.0" encoding="UTF-8"?>
<svg width="128px" height="142px" viewBox="0 0 128 142" version="1.1" xmlns="http://www.w3.org/2000/svg" xmlns:xlink="http://www.w3.org/1999/xlink">
    <!-- Generator: Sketch 42 (36781) - http://www.bohemiancoding.com/sketch -->
    <title>sticker_longsaturday_white</title>
    <desc>Created with Sketch.</desc>
    <defs>
        <polygon id="path-1" points="0.614998261 0.844 51.2480222 0.844 51.2480222 83.6225548 0.614998261 83.6225548 0.614998261 0.844"></polygon>
        <polygon id="path-3" points="127.901 0.819125277 127.901 55.3726456 0.0008 55.3726456 0.0008 0.819125277 127.901 0.819125277"></polygon>
        <polygon id="path-5" points="0 142.156 127.901 142.156 127.901 1 0 1"></polygon>
    </defs>
    <g id="Page-1" stroke="none" stroke-width="1" fill="none" fill-rule="evenodd">
        <g id="stickers-black" transform="translate(-324.000000, -312.000000)">
            <g id="sticker_longsaturday_white" transform="translate(324.000000, 311.000000)">
                <polygon id="Fill-1" fill="#FFFFFF" points="52.2835 125.8327 45.8225 125.8327 45.8225 111.7167 48.4375 111.7167 48.4375 123.2277 52.2835 123.2277"></polygon>
                <path d="M57.067,123.227 L60.041,123.227 L60.041,114.322 L57.067,114.322 L57.067,123.227 Z M62.657,124.359 L60.976,125.833 L56.124,125.833 L54.461,124.359 L54.461,113.199 L56.124,111.717 L60.976,111.717 L62.657,113.199 L62.657,124.359 Z" id="Fill-2" fill="#FFFFFF"></path>
                <polygon id="Fill-3" fill="#FFFFFF" points="70.2796 125.8327 67.4306 118.4367 67.4306 125.8327 64.8346 125.8327 64.8346 111.7167 67.6296 111.7167 70.4866 119.1207 70.4866 111.7167 73.0746 111.7167 73.0746 125.8147 73.0836 125.8327"></polygon>
                <polygon id="Fill-4" fill="#FFFFFF" points="83.3031 124.3591 81.6151 125.8331 76.9241 125.8331 75.2611 124.3591 75.2611 113.1991 76.9501 111.7161 81.6151 111.7161 83.3031 113.1991 83.3031 115.4101 80.6981 115.4101 80.6981 114.3221 77.8761 114.3221 77.8761 123.2271 80.6981 123.2271 80.6981 120.0821 78.9181 120.0821 78.9181 117.4671 83.3031 117.4671"></polygon>
                <polygon id="Fill-5" fill="#FFFFFF" points="27.6066 128.0395 25.9266 129.5215 25.9266 134.9225 27.6066 136.4045 31.1656 136.4045 31.1656 139.5505 28.5326 139.5505 28.5326 138.4095 25.9266 138.4095 25.9266 140.6825 27.6066 142.1565 32.1086 142.1565 33.7706 140.6825 33.7706 135.2725 32.1086 133.7905 28.5326 133.7905 28.5326 130.6445 31.1656 130.6445 31.1656 131.7065 33.7706 131.7065 33.7706 129.5135 32.1086 128.0395"></polygon>
                <path d="M38.4111,128.0395 L35.5891,142.1565 L38.2491,142.1565 L38.8781,139.0115 L41.6101,139.0115 L42.2391,142.1565 L44.8991,142.1565 L42.0781,128.0395 L38.4111,128.0395 Z M40.2441,132.1825 L41.0891,136.4045 L39.3991,136.4045 L40.2441,132.1825 Z" id="Fill-6" fill="#FFFFFF"></path>
                <polygon id="Fill-7" fill="#FFFFFF" points="44.6058 128.0395 44.6058 130.6445 47.1928 130.6445 47.1928 142.1565 49.8078 142.1565 49.8078 130.6445 52.3958 130.6445 52.3958 128.0395"></polygon>
                <polygon id="Fill-8" fill="#FFFFFF" points="60.1002 128.0395 60.1002 139.5505 57.1792 139.5505 57.1792 128.0395 54.5732 128.0395 54.5732 140.6825 56.2452 142.1565 60.9982 142.1565 62.7052 140.6735 62.7052 128.0395"></polygon>
                <path d="M64.8837,128.0395 L64.8837,142.1565 L67.4987,142.1565 L67.4987,136.4045 L68.2727,136.4045 L70.4907,142.1565 L73.2857,142.1565 L71.0297,136.3685 L72.8087,134.7065 L72.8087,129.5215 L71.1467,128.0395 L64.8837,128.0395 Z M67.4987,133.7895 L70.2037,133.7895 L70.2037,130.6355 L67.4987,130.6355 L67.4987,133.7895 Z" id="Fill-9" fill="#FFFFFF"></path>
                <path d="M75.4632,128.0395 L75.4632,142.1565 L81.8792,142.1565 L83.5682,140.6735 L83.5682,129.5305 L81.8792,128.0395 L75.4632,128.0395 Z M78.0782,139.5505 L80.9622,139.5505 L80.9622,130.6445 L78.0782,130.6445 L78.0782,139.5505 Z" id="Fill-10" fill="#FFFFFF"></path>
                <path d="M88.209,128.0395 L85.387,142.1565 L88.047,142.1565 L88.676,139.0115 L91.408,139.0115 L92.037,142.1565 L94.696,142.1565 L91.876,128.0395 L88.209,128.0395 Z M90.042,132.1825 L90.887,136.4045 L89.197,136.4045 L90.042,132.1825 Z" id="Fill-11" fill="#FFFFFF"></path>
                <polygon id="Fill-12" fill="#FFFFFF" points="100.4328 128.0395 98.6818 133.2965 96.9018 128.0395 94.2238 128.0395 97.3508 136.9355 97.3508 142.1565 99.9928 142.1565 99.9928 136.9545 103.2008 128.0395"></polygon>
                <g id="Group-15" transform="translate(40.000000, 0.156000)">
                    <mask id="mask-2" fill="white">
                        <use xlink:href="#path-1"></use>
                    </mask>
                    <g id="Clip-14"></g>
                    <path d="M7.8968,44.6552 C7.9198,43.1752 8.3778,42.4992 8.7498,41.8832 C9.6928,40.2942 11.2288,39.0092 12.8028,39.1292 C14.3738,39.2122 17.4918,39.8692 18.9988,40.2682 C20.5208,40.6762 21.7908,41.1982 22.5738,41.5682 C23.3348,41.9292 24.2668,43.2712 23.5458,44.8572 C22.8068,46.4362 21.5288,47.4902 20.6378,48.2772 C19.7448,49.0392 17.4688,49.7032 14.8198,50.2372 C12.1678,50.7612 10.6568,50.4622 9.3188,49.4772 C7.9568,48.4922 7.8528,46.1392 7.8968,44.6552 M21.9628,57.2922 C22.3418,56.1732 23.1668,54.8042 23.6078,54.2732 C24.0368,53.7252 25.1288,53.5042 25.7428,54.2892 C26.3568,55.1082 27.5068,56.7772 27.8658,57.5102 C28.2048,58.2362 28.5218,59.2042 27.5328,59.9102 C26.5338,60.6402 25.7548,60.5142 24.4098,60.4562 C23.0938,60.4112 22.3108,60.2982 21.9568,60.0712 C21.6028,59.8422 21.3718,58.9072 21.9628,57.2922 M28.3158,44.8572 C27.5948,43.2712 28.5278,41.9292 29.2888,41.5682 C30.0718,41.1982 31.3418,40.6762 32.8638,40.2682 C34.3718,39.8692 37.4898,39.2122 39.0588,39.1292 C40.6338,39.0092 42.1698,40.2942 43.1138,41.8832 C43.4838,42.4992 43.9428,43.1752 43.9658,44.6552 C44.0098,46.1392 43.9068,48.4922 42.5438,49.4772 C41.2058,50.4622 39.6938,50.7612 37.0428,50.2372 C34.3938,49.7032 32.1178,49.0392 31.2248,48.2772 C30.3338,47.4902 29.0558,46.4362 28.3158,44.8572 M0.8508,39.8672 C0.7648,42.3802 0.4878,45.8582 0.8708,48.9862 C1.2388,52.1542 1.1008,56.3532 1.0548,58.5582 C1.0098,60.7422 3.6158,65.0502 3.4758,67.6032 C3.5268,70.5042 3.8928,75.1492 4.6348,77.0512 C6.2128,78.5442 6.6408,79.3982 7.7568,79.7932 C9.7848,80.4572 10.3028,80.8622 10.8348,81.6002 C10.4788,77.6732 11.0098,71.4532 11.0378,71.1292 C11.0448,71.0512 11.1068,70.9822 11.1998,70.9432 C11.2948,70.9062 11.4128,70.9042 11.5008,70.9372 C11.7288,71.0232 11.8698,71.1352 11.9218,71.2732 C11.9548,71.3542 11.9488,71.4322 11.9248,71.4962 C12.1538,72.5612 12.4578,79.0302 12.6348,83.2342 C13.5588,83.5662 14.7538,83.6542 16.0328,83.6132 C16.4128,79.4352 17.0638,72.5902 17.3558,71.4982 C17.3348,71.4342 17.3318,71.3562 17.3668,71.2772 C17.4248,71.1392 17.5738,71.0302 17.8048,70.9512 C17.8978,70.9142 18.0118,70.9202 18.1078,70.9632 C18.1978,71.0032 18.2558,71.0752 18.2588,71.1552 C18.2738,71.5372 18.5848,80.1582 17.5538,83.5192 C18.2648,83.4582 18.9708,83.3822 19.6308,83.3092 L22.5018,82.9912 C22.2838,80.7792 22.0308,75.2302 21.8798,71.6512 C21.8768,71.5872 21.9128,71.5252 21.9728,71.4812 C22.4378,71.1332 22.7298,71.0232 23.0038,71.1022 C23.1958,71.1562 23.2668,71.2882 23.2698,71.3852 C24.1178,73.6942 23.7868,80.0982 23.5938,82.8712 L25.2778,82.6852 C25.9518,82.5722 26.5838,82.4632 27.1918,82.3552 C27.5778,78.1852 28.1358,72.4852 28.3998,71.4962 C28.3778,71.4322 28.3758,71.3542 28.4108,71.2752 C28.4688,71.1392 28.6148,71.0292 28.8428,70.9492 C28.9478,70.9162 29.0528,70.9202 29.1488,70.9612 C29.2398,71.0012 29.2978,71.0732 29.2998,71.1532 C29.3138,71.4882 29.5528,78.1292 28.9218,82.0392 C31.4768,81.5552 33.4078,81.1082 34.9068,80.6482 C35.2708,76.8082 35.7128,72.5022 35.9398,71.6552 C35.9178,71.5912 35.9168,71.5132 35.9508,71.4342 C36.0088,71.2962 36.1578,71.1872 36.3888,71.1082 C36.4818,71.0692 36.5988,71.0792 36.6918,71.1192 C36.7818,71.1602 36.8398,71.2322 36.8428,71.3122 C36.8538,71.5892 37.0218,76.2032 36.7198,80.0012 C39.3798,78.8872 40.2588,77.5832 41.8538,75.4772 C43.4098,73.1862 42.6658,69.7252 43.1648,68.5092 C43.6478,67.3302 46.3588,65.8312 46.6208,63.1812 C46.8848,60.4922 47.7858,54.2232 48.6038,50.4842 C49.4868,46.6962 50.5128,41.2752 50.8778,38.3782 C51.2338,35.4362 51.3548,28.7462 51.1448,25.7832 C50.9598,22.8722 47.9398,16.6792 46.8758,14.4312 C45.8748,12.2142 42.6008,8.0712 40.0648,6.3262 C37.4728,4.5872 34.9958,3.3642 31.7368,2.2342 C28.5178,1.0832 25.0668,0.5242 21.1808,1.0312 C17.2898,1.5132 14.3818,5.4642 12.3888,7.3142 C10.4018,9.1552 6.6308,13.0342 4.9468,15.9502 C3.2418,18.9052 1.5118,23.9752 0.8788,28.3632 C0.2698,32.7952 0.9148,37.3012 0.8508,39.8672" id="Fill-13" fill="#FFFFFF" mask="url(#mask-2)"></path>
                </g>
                <path d="M112.7074,79.0803 C110.3644,78.4643 111.9304,75.5253 111.9304,75.5253 C113.9294,71.0713 112.3144,68.5843 112.3144,68.5843 C98.7754,63.7723 91.2614,79.9343 91.2614,79.9343 L90.7784,81.2223 C90.6044,81.2523 90.3234,81.3003 90.1504,81.3303 C89.9774,81.3603 89.6914,81.4103 89.5184,81.4403 C89.3444,81.4703 87.3344,82.1223 85.0524,82.8883 L84.8194,82.9653 C82.5374,83.7313 82.7964,83.6453 80.5144,84.4113 L80.2814,84.4893 C77.9994,85.2553 77.6874,85.3603 75.4054,86.1263 L75.1734,86.2043 C72.8914,86.9703 69.1564,88.2243 66.8744,88.9903 L66.6424,89.0683 C65.2284,89.5423 63.9734,89.9643 63.2204,90.2173 C62.7464,90.3643 62.2494,90.5233 61.7394,90.6913 L59.5274,91.4233 C57.2404,92.1803 53.4984,93.4193 51.2114,94.1763 L48.9994,94.9083 C47.4004,95.4373 46.7614,95.6483 45.7434,95.9853 L45.6484,96.0173 L45.6754,96.0083 C45.3114,96.1283 44.9034,96.2633 44.4864,96.4013 C44.3754,96.4383 44.2754,96.4713 44.1544,96.5113 C41.9904,97.2273 39.3544,98.1003 37.5854,98.6853 L36.6964,98.9793 C27.6744,94.1863 19.6954,97.4563 19.6954,97.4563 C-3.8486,101.6273 16.2224,109.3263 16.2224,109.3263 C18.5364,109.9593 16.9114,112.9063 16.9114,112.9063 C14.8194,117.3733 16.3654,119.8843 16.3654,119.8843 C29.7124,124.8043 37.5644,108.5953 37.5644,108.5953 L38.0734,107.3043 C38.2474,107.2743 38.5274,107.2273 38.7004,107.1983 C38.8744,107.1683 39.1584,107.1213 39.3324,107.0913 C39.5064,107.0623 41.5194,106.4193 43.8064,105.6623 L44.0394,105.5853 C46.3254,104.8293 46.0664,104.9143 48.3534,104.1573 L48.5864,104.0803 C50.8734,103.3233 51.1864,103.2203 53.4734,102.4633 L53.7054,102.3863 C55.9924,101.6293 59.7344,100.3913 62.0214,99.6343 L62.2544,99.5573 C63.5984,99.1123 64.7864,98.7193 65.5514,98.4663 C66.1224,98.2883 66.7364,98.0913 67.3684,97.8783 L69.5764,97.1383 C71.8584,96.3723 75.5934,95.1183 77.8754,94.3513 L80.0824,93.6103 C81.6424,93.0873 82.2874,92.8703 83.2644,92.5423 L83.1744,92.5733 C83.2444,92.5493 83.3264,92.5213 83.3994,92.4973 C83.8314,92.3523 84.3074,92.1923 84.8114,92.0223 L84.1994,92.2283 C84.4164,92.1563 84.6544,92.0763 84.9174,91.9873 C87.0764,91.2623 89.7064,90.3803 91.4734,89.7873 L92.3594,89.4893 C101.5474,94.1993 109.4934,90.9013 109.4934,90.9013 C133.0744,86.6133 112.7074,79.0803 112.7074,79.0803" id="Fill-16" fill="#FFFFFF"></path>
                <g id="Group-20" transform="translate(0.000000, 66.156000)">
                    <mask id="mask-4" fill="white">
                        <use xlink:href="#path-3"></use>
                    </mask>
                    <g id="Clip-19"></g>
                    <path d="M11.0638,9.1513 C12.1648,10.7823 7.8018,11.4513 7.8018,11.4513 C1.4738,12.6733 0.0008,14.8803 0.0008,14.8803 C5.0038,24.9613 28.1668,20.6723 28.1668,20.6723 L29.9218,20.2653 C30.0868,20.3463 30.3518,20.4783 30.5138,20.5583 C30.6778,20.6403 30.9468,20.7733 31.1108,20.8543 C31.2748,20.9363 33.4958,21.7153 36.0458,22.5873 L36.3058,22.6753 C38.8558,23.5473 38.5678,23.4483 41.1188,24.3193 L41.3778,24.4083 C43.9288,25.2803 44.2778,25.3993 46.8288,26.2703 L47.0868,26.3593 C49.6378,27.2313 53.8118,28.6563 56.3628,29.5283 L56.6228,29.6173 C58.2038,30.1573 59.6058,30.6363 60.4468,30.9233 C60.9638,31.1103 61.5108,31.3053 62.0778,31.5013 L64.5398,32.3513 C67.0838,33.2303 71.2468,34.6683 73.7908,35.5473 L76.2518,36.3983 C78.0308,37.0123 78.7418,37.2573 79.8748,37.6493 L79.9798,37.6853 C79.9688,37.6823 79.9598,37.6783 79.9498,37.6753 C80.3538,37.8153 80.8088,37.9723 81.2728,38.1323 C81.3968,38.1753 81.5058,38.2133 81.6418,38.2603 C84.0488,39.0913 86.9808,40.1043 88.9508,40.7853 L89.9388,41.1263 C91.5568,48.6773 101.1148,51.4143 101.1148,51.4143 C123.3888,62.3643 116.5818,47.1223 116.5818,47.1223 C115.5218,45.4973 119.9368,44.8583 119.9368,44.8583 C126.3498,43.6803 127.9018,41.5003 127.9018,41.5003 C123.1598,31.4683 99.6918,35.5943 99.6918,35.5943 L97.9108,35.9883 C97.7478,35.9063 97.4848,35.7753 97.3228,35.6943 C97.1608,35.6123 96.8938,35.4793 96.7308,35.3973 C96.5688,35.3163 94.3538,34.5293 91.8098,33.6513 L91.5498,33.5613 C89.0058,32.6823 89.2938,32.7813 86.7508,31.9023 L86.4918,31.8133 C83.9468,30.9343 83.5988,30.8143 81.0548,29.9353 L80.7958,29.8453 C78.2518,28.9663 74.0878,27.5283 71.5438,26.6493 L71.2858,26.5603 C69.7918,26.0443 68.4678,25.5863 67.6178,25.2933 C66.9948,25.0673 66.3178,24.8283 65.6118,24.5873 L63.1438,23.7433 C60.5928,22.8723 56.4188,21.4463 53.8688,20.5743 L51.4008,19.7323 C49.6588,19.1363 48.9368,18.8893 47.8448,18.5173 L47.9458,18.5513 C47.8678,18.5243 47.7748,18.4933 47.6938,18.4653 C47.2098,18.3003 46.6788,18.1183 46.1148,17.9253 L46.7988,18.1593 C46.5568,18.0773 46.2918,17.9853 45.9978,17.8853 C43.5838,17.0613 40.6438,16.0563 38.6698,15.3823 L37.6788,15.0433 C35.8468,7.4433 26.2828,4.7393 26.2828,4.7393 C3.8548,-6.1697 11.0638,9.1513 11.0638,9.1513" id="Fill-18" fill="#FFFFFF" mask="url(#mask-4)"></path>
                </g>
                <polygon id="Fill-21" fill="#FFFFFF" points="13.6429 56.4196 12.6609 57.2916 9.9979 57.2916 9.0039 56.4196 9.0039 55.0756 10.5449 55.0756 10.5449 55.7506 12.1019 55.7506 12.1019 53.8906 9.9979 53.8906 9.0039 53.0136 9.0039 49.8206 9.9979 48.9436 12.6609 48.9436 13.6429 49.8156 13.6429 51.1116 12.1019 51.1116 12.1019 50.4846 10.5449 50.4846 10.5449 52.3446 12.6609 52.3446 13.6429 53.2206"></polygon>
                <mask id="mask-6" fill="white">
                    <use xlink:href="#path-5"></use>
                </mask>
                <g id="Clip-24"></g>
                <polygon id="Fill-23" fill="#FFFFFF" mask="url(#mask-6)" points="14.931 57.291 16.477 57.291 16.477 48.943 14.931 48.943"></polygon>
                <polygon id="Fill-25" fill="#FFFFFF" mask="url(#mask-6)" points="20.9857 57.2912 19.3007 52.9182 19.3007 57.2912 17.7657 57.2912 17.7657 48.9432 19.4187 48.9432 21.1077 53.3222 21.1077 48.9432 22.6377 48.9432 22.6377 57.2802 22.6437 57.2912"></polygon>
                <polygon id="Fill-26" fill="#FFFFFF" mask="url(#mask-6)" points="28.6712 56.4196 27.6612 57.2916 24.9142 57.2916 23.9312 56.4196 23.9312 49.8206 24.9142 48.9436 27.6612 48.9436 28.6712 49.8256 28.6712 51.1116 27.1302 51.1116 27.1302 50.4846 25.4722 50.4846 25.4722 55.7506 27.1302 55.7506 27.1302 55.0756 28.6712 55.0756"></polygon>
                <polygon id="Fill-27" fill="#FFFFFF" mask="url(#mask-6)" points="33.9818 57.2912 29.9598 57.2912 29.9598 48.9432 33.9498 48.9432 33.9498 50.4842 31.5008 50.4842 31.5008 52.3442 33.6098 52.3442 33.6098 53.8902 31.5008 53.8902 31.5008 55.7502 33.9818 55.7502"></polygon>
                <polygon id="Fill-28" fill="#FFFFFF" mask="url(#mask-6)" points="99.0121 53.0178 97.9971 53.8938 95.8881 53.8938 95.8881 55.7538 99.0121 55.7538 99.0121 57.2948 94.3471 57.2948 94.3471 53.2198 95.3401 52.3488 97.4711 52.3488 97.4711 50.4888 95.9041 50.4888 95.9041 51.1158 94.3471 51.1158 94.3471 49.8188 95.3401 48.9478 98.0241 48.9478 99.0121 49.8188"></polygon>
                <path d="M101.842,55.754 L103.488,55.754 L103.488,50.488 L101.842,50.488 L101.842,55.754 Z M105.029,56.424 L104.03,57.295 L101.278,57.295 L100.3,56.424 L100.3,49.824 L101.299,48.947 L104.03,48.947 L105.029,49.824 L105.029,56.424 Z" id="Fill-29" fill="#FFFFFF" mask="url(#mask-6)"></path>
                <polygon id="Fill-30" fill="#FFFFFF" mask="url(#mask-6)" points="110.9242 50.4885 109.3942 50.4885 109.3942 57.2955 107.8472 57.2955 107.8472 50.4885 106.3172 50.4885 106.3172 48.9475 110.9242 48.9475"></polygon>
                <polygon id="Fill-31" fill="#FFFFFF" mask="url(#mask-6)" points="116.2347 57.2951 112.2127 57.2951 112.2127 48.9471 116.2027 48.9471 116.2027 50.4881 113.7537 50.4881 113.7537 52.3481 115.8627 52.3481 115.8627 53.8941 113.7537 53.8941 113.7537 55.7541 116.2347 55.7541"></polygon>
                <polygon id="Fill-32" fill="#FFFFFF" mask="url(#mask-6)" points="120.7425 57.2951 119.0575 52.9221 119.0575 57.2951 117.5225 57.2951 117.5225 48.9471 119.1755 48.9471 120.8645 53.3261 120.8645 48.9471 122.3945 48.9471 122.3945 57.2841 122.4005 57.2951"></polygon>
            </g>
        </g>
    </g>
</svg>