<?xml version="1.0" encoding="UTF-8"?>
<svg width="97px" height="107px" viewBox="0 0 97 107" version="1.1" xmlns="http://www.w3.org/2000/svg" xmlns:xlink="http://www.w3.org/1999/xlink">
    <!-- Generator: Sketch 42 (36781) - http://www.bohemiancoding.com/sketch -->
    <title>sticker_run-repeat_white</title>
    <desc>Created with Sketch.</desc>
    <defs>
        <polygon id="path-1" points="18.6952 0.277 0.7812 0.277 0.7812 25.4317 18.6952 25.4317 18.6952 0.277"></polygon>
        <polygon id="path-3" points="1.7913 4 0.0333 4 0.0333 0.9341 1.7913 0.9341 1.7913 4"></polygon>
    </defs>
    <g id="Page-1" stroke="none" stroke-width="1" fill="none" fill-rule="evenodd">
        <g id="stickers-black" transform="translate(-529.000000, -471.000000)">
            <g id="sticker_run-repeat_white" transform="translate(529.000000, 470.000000)">
                <g id="Group-3" transform="translate(19.000000, 0.723000)">
                    <mask id="mask-2" fill="white">
                        <use xlink:href="#path-1"></use>
                    </mask>
                    <g id="Clip-2"></g>
                    <path d="M8.0202,11.9207 C9.8222,11.9207 10.7892,10.3527 10.7892,8.7177 C10.7892,6.5167 9.4552,5.5817 7.5862,5.6827 L7.5862,11.8867 L8.0202,11.9207 Z M11.3232,25.4317 L7.5532,14.9557 L7.4862,15.0227 C7.5192,16.2577 7.5862,17.4917 7.5862,18.7257 L7.5862,25.4317 L0.7812,25.4317 L0.7812,0.2767 L7.3532,0.2767 C13.2572,0.2767 17.5282,2.0127 17.5282,8.6507 C17.5282,11.4197 16.3272,13.8887 13.6242,14.9557 L18.6952,25.4317 L11.3232,25.4317 Z" id="Fill-1" fill="#FFFFFF" mask="url(#mask-2)"></path>
                </g>
                <path d="M55.1736,1.0001 L55.1736,17.4471 C55.1736,20.4821 54.5066,26.5871 46.6336,26.5871 C38.7616,26.5871 38.0936,20.4821 38.0936,17.4471 L38.0936,1.0001 L44.8996,1.0001 L44.8996,16.8131 C44.8996,17.4801 44.8656,18.3481 45.0666,19.0151 C45.2656,19.7151 45.6986,20.2491 46.6336,20.2491 C47.6016,20.2491 48.0346,19.7151 48.2006,19.0481 C48.4026,18.3481 48.3686,17.4801 48.3686,16.8471 L48.3686,1.0001 L55.1736,1.0001 Z" id="Fill-4" fill="#FFFFFF"></path>
                <path d="M57.3396,1.0001 L63.8126,1.0001 L69.2496,16.1461 L69.3166,16.0791 C69.0496,13.1771 68.5486,10.3081 68.5486,7.4051 L68.5486,1.0001 L75.0876,1.0001 L75.0876,26.1541 L68.5486,26.1541 L63.4786,11.6431 L63.4106,11.7091 C63.5786,14.0781 63.8786,16.4131 63.8786,18.7811 L63.8786,26.1541 L57.3396,26.1541 L57.3396,1.0001 Z" id="Fill-6" fill="#FFFFFF"></path>
                <path d="M13.4216,40.5655 L12.9216,40.5985 L12.9216,46.4035 C14.7896,46.5025 15.9576,45.4685 15.9576,43.6015 C15.9576,41.9995 15.0896,40.5655 13.4216,40.5655 L13.4216,40.5655 Z M6.1156,60.3145 L6.1156,35.1615 L12.3206,35.1615 C18.2596,35.1615 22.8296,37.0955 22.8296,43.7015 C22.8296,50.2395 18.8256,52.2415 12.9216,52.0745 L12.9216,60.3145 L6.1156,60.3145 Z" id="Fill-8" fill="#FFFFFF"></path>
                <path d="M32.3073,51.7403 L31.5733,45.9033 C31.3723,44.3353 31.2393,42.7333 31.0733,41.1663 L31.0053,41.1663 C30.8053,42.7333 30.6383,44.3353 30.3713,45.9033 L29.4373,51.7403 L32.3073,51.7403 Z M33.6083,60.3143 L33.1073,57.0783 L28.5373,57.0783 L27.9693,60.3143 L20.9633,60.3143 L27.0023,35.1613 L35.3093,35.1613 L40.6473,60.3143 L33.6083,60.3143 Z" id="Fill-10" fill="#FFFFFF"></path>
                <path d="M48.4509,46.8038 C50.2529,46.8038 51.2199,45.2358 51.2199,43.6018 C51.2199,41.3998 49.8849,40.4648 48.0169,40.5658 L48.0169,46.7698 L48.4509,46.8038 Z M51.7539,60.3148 L47.9839,49.8388 L47.9179,49.9068 C47.9499,51.1408 48.0169,52.3748 48.0169,53.6088 L48.0169,60.3148 L41.2119,60.3148 L41.2119,35.1608 L47.7839,35.1608 C53.6879,35.1608 57.9589,36.8958 57.9589,43.5338 C57.9589,46.3028 56.7579,48.7718 54.0549,49.8388 L59.1259,60.3148 L51.7539,60.3148 Z" id="Fill-12" fill="#FFFFFF"></path>
                <polygon id="Fill-14" fill="#FFFFFF" points="61.5993 60.3146 61.5993 41.2986 57.8633 41.2986 57.8633 35.1616 72.3063 35.1616 72.3063 41.2986 68.4043 41.2986 68.4043 60.3146"></polygon>
                <polygon id="Fill-16" fill="#FFFFFF" points="77.8435 60.3146 77.8435 49.6396 71.6375 35.1616 78.7105 35.1616 81.0455 42.9336 81.1125 42.9336 83.4815 35.1616 90.5205 35.1616 84.6485 49.6396 84.6485 60.3146"></polygon>
                <path d="M7.239,80.964 C9.041,80.964 10.008,79.396 10.008,77.762 C10.008,75.56 8.673,74.625 6.805,74.726 L6.805,80.931 L7.239,80.964 Z M10.542,94.475 L6.772,83.999 L6.705,84.067 C6.738,85.301 6.805,86.535 6.805,87.769 L6.805,94.475 L0,94.475 L0,69.321 L6.572,69.321 C12.476,69.321 16.747,71.057 16.747,77.694 C16.747,80.463 15.546,82.932 12.843,83.999 L17.914,94.475 L10.542,94.475 Z" id="Fill-18" fill="#FFFFFF"></path>
                <polygon id="Fill-20" fill="#FFFFFF" points="18.4792 69.3214 31.1222 69.3214 31.1222 75.2594 25.2852 75.2594 25.2852 78.7624 30.5222 78.7624 30.5222 84.7004 25.2852 84.7004 25.2852 88.5364 31.1222 88.5364 31.1222 94.4744 18.4792 94.4744"></polygon>
                <path d="M40.7614,74.7257 L40.2614,74.7587 L40.2614,80.5637 C42.1294,80.6637 43.2964,79.6297 43.2964,77.7617 C43.2964,76.1607 42.4304,74.7257 40.7614,74.7257 L40.7614,74.7257 Z M33.4554,94.4747 L33.4554,69.3217 L39.6604,69.3217 C45.5984,69.3217 50.1684,71.2557 50.1684,77.8617 C50.1684,84.4007 46.1654,86.4017 40.2614,86.2347 L40.2614,94.4747 L33.4554,94.4747 Z" id="Fill-22" fill="#FFFFFF"></path>
                <polygon id="Fill-24" fill="#FFFFFF" points="51.2683 69.3214 63.9123 69.3214 63.9123 75.2594 58.0743 75.2594 58.0743 78.7624 63.3113 78.7624 63.3113 84.7004 58.0743 84.7004 58.0743 88.5364 63.9123 88.5364 63.9123 94.4744 51.2683 94.4744"></polygon>
                <path d="M75.8523,85.9015 L75.1193,80.0625 C74.9183,78.4955 74.7863,76.8935 74.6183,75.3265 L74.5513,75.3265 C74.3513,76.8935 74.1843,78.4955 73.9173,80.0625 L72.9843,85.9015 L75.8523,85.9015 Z M77.1543,94.4745 L76.6543,91.2385 L72.0823,91.2385 L71.5163,94.4745 L64.5103,94.4745 L70.5483,69.3215 L78.8553,69.3215 L84.1933,94.4745 L77.1543,94.4745 Z" id="Fill-26" fill="#FFFFFF"></path>
                <polygon id="Fill-28" fill="#FFFFFF" points="85.4284 94.4747 85.4284 75.4587 81.6914 75.4587 81.6914 69.3217 96.1354 69.3217 96.1354 75.4587 92.2334 75.4587 92.2334 94.4747"></polygon>
                <path d="M16.3806,105.4767 C16.3806,105.1977 16.1556,104.9767 15.8716,104.9767 L15.2736,104.9767 C15.2356,104.9767 15.2236,104.9937 15.2236,105.0217 L15.2236,105.9857 C15.2236,106.0197 15.2356,106.0337 15.2736,106.0337 L15.8716,106.0337 C16.1596,106.0337 16.3806,105.8137 16.3806,105.5237 L16.3806,105.4767 Z M16.7026,107.6387 C16.7026,107.6617 16.6826,107.6757 16.6546,107.6757 L16.4006,107.6757 C16.3736,107.6677 16.3596,107.6587 16.3586,107.6427 L15.9026,106.3317 C15.8986,106.3257 15.8906,106.3127 15.8676,106.3027 L15.2736,106.3027 C15.2356,106.3027 15.2236,106.3157 15.2236,106.3517 L15.2236,107.6287 C15.2236,107.6617 15.2096,107.6757 15.1786,107.6757 L14.9566,107.6757 C14.9226,107.6757 14.9066,107.6617 14.9066,107.6287 L14.9066,104.7537 C14.9066,104.7217 14.9226,104.7077 14.9566,104.7077 L15.8716,104.7077 C16.3736,104.7077 16.6966,105.0277 16.6966,105.5237 L16.6966,105.5757 C16.6966,105.7427 16.5976,105.9387 16.4126,106.0957 C16.3096,106.1807 16.2216,106.1887 16.2216,106.2377 C16.2216,106.2387 16.2286,106.2477 16.2286,106.2507 L16.6966,107.6157 C16.7026,107.6257 16.7026,107.6287 16.7026,107.6387 L16.7026,107.6387 Z" id="Fill-30" fill="#FFFFFF"></path>
                <path d="M19.0759,107.7228 L18.9309,107.7228 C18.4309,107.7228 18.1089,107.4098 18.1089,106.9508 L18.1089,104.7538 C18.1089,104.7218 18.1239,104.7078 18.1549,104.7078 L18.3839,104.7078 C18.4169,104.7078 18.4309,104.7218 18.4309,104.7538 L18.4309,106.9508 C18.4309,107.2358 18.6529,107.4528 18.9309,107.4528 L19.0759,107.4528 C19.3499,107.4528 19.5819,107.2268 19.5819,106.9508 L19.5819,104.7538 C19.5819,104.7218 19.5949,104.7078 19.6299,104.7078 L19.8549,104.7078 C19.8879,104.7078 19.9029,104.7218 19.9029,104.7538 L19.9029,106.9508 C19.9029,107.4098 19.5759,107.7228 19.0759,107.7228" id="Fill-32" fill="#FFFFFF"></path>
                <path d="M23.3552,107.6759 L23.1452,107.6759 L23.1032,107.6539 L21.8392,105.3269 L21.8322,105.3269 L21.8532,107.6289 C21.8532,107.6609 21.8392,107.6759 21.8062,107.6759 L21.5852,107.6759 C21.5502,107.6759 21.5372,107.6609 21.5372,107.6289 L21.5372,104.7539 C21.5372,104.7219 21.5502,104.7079 21.5852,104.7079 L21.7872,104.7079 L21.8322,104.7339 L23.0982,107.0729 L23.1112,107.0729 L23.0802,104.7539 C23.0802,104.7219 23.0942,104.7079 23.1292,104.7079 L23.3552,104.7079 C23.3882,104.7079 23.4032,104.7219 23.4032,104.7539 L23.4032,107.6289 C23.4032,107.6609 23.3882,107.6759 23.3552,107.6759" id="Fill-34" fill="#FFFFFF"></path>
                <path d="M26.9284,107.6759 L26.7224,107.6759 L26.6804,107.6539 L25.4124,105.3269 L25.4034,105.3269 L25.4294,107.6289 C25.4294,107.6609 25.4124,107.6759 25.3794,107.6759 L25.1584,107.6759 C25.1264,107.6759 25.1104,107.6609 25.1104,107.6289 L25.1104,104.7539 C25.1104,104.7219 25.1264,104.7079 25.1584,104.7079 L25.3614,104.7079 L25.4034,104.7339 L26.6734,107.0729 L26.6854,107.0729 L26.6564,104.7539 C26.6564,104.7219 26.6664,104.7079 26.7014,104.7079 L26.9284,104.7079 C26.9614,104.7079 26.9734,104.7219 26.9734,104.7539 L26.9734,107.6289 C26.9734,107.6609 26.9614,107.6759 26.9284,107.6759" id="Fill-36" fill="#FFFFFF"></path>
                <path d="M30.282,107.6759 L28.732,107.6759 C28.699,107.6759 28.686,107.6609 28.686,107.6289 L28.686,104.7539 C28.686,104.7219 28.699,104.7079 28.732,104.7079 L30.282,104.7079 C30.316,104.7079 30.328,104.7219 30.328,104.7539 L30.328,104.9289 C30.328,104.9629 30.316,104.9769 30.282,104.9769 L29.049,104.9769 C29.014,104.9769 29.003,104.9929 29.003,105.0219 L29.003,105.9859 C29.003,106.0199 29.014,106.0329 29.049,106.0329 L30.059,106.0329 C30.094,106.0329 30.106,106.0479 30.106,106.0809 L30.106,106.2559 C30.106,106.2889 30.094,106.3029 30.059,106.3029 L29.049,106.3029 C29.014,106.3029 29.003,106.3159 29.003,106.3519 L29.003,107.3599 C29.003,107.3899 29.014,107.4059 29.049,107.4059 L30.282,107.4059 C30.316,107.4059 30.328,107.4269 30.328,107.4529 L30.328,107.6289 C30.328,107.6609 30.316,107.6759 30.282,107.6759" id="Fill-38" fill="#FFFFFF"></path>
                <path d="M33.3659,105.4767 C33.3659,105.1977 33.1369,104.9767 32.8559,104.9767 L32.2549,104.9767 C32.2229,104.9767 32.2089,104.9937 32.2089,105.0217 L32.2089,105.9857 C32.2089,106.0197 32.2229,106.0337 32.2549,106.0337 L32.8559,106.0337 C33.1439,106.0337 33.3659,105.8137 33.3659,105.5237 L33.3659,105.4767 Z M33.6879,107.6387 C33.6879,107.6617 33.6659,107.6757 33.6389,107.6757 L33.3839,107.6757 C33.3589,107.6677 33.3459,107.6587 33.3409,107.6427 L32.8869,106.3317 C32.8839,106.3257 32.8739,106.3127 32.8479,106.3027 L32.2549,106.3027 C32.2229,106.3027 32.2089,106.3157 32.2089,106.3517 L32.2089,107.6287 C32.2089,107.6617 32.1939,107.6757 32.1599,107.6757 L31.9389,107.6757 C31.9079,107.6757 31.8899,107.6617 31.8899,107.6287 L31.8899,104.7537 C31.8899,104.7217 31.9079,104.7077 31.9389,104.7077 L32.8559,104.7077 C33.3589,104.7077 33.6809,105.0277 33.6809,105.5237 L33.6809,105.5757 C33.6809,105.7427 33.5799,105.9387 33.3969,106.0957 C33.2939,106.1807 33.2019,106.1887 33.2019,106.2377 C33.2019,106.2387 33.2099,106.2477 33.2099,106.2507 L33.6809,107.6157 C33.6879,107.6257 33.6879,107.6287 33.6879,107.6387 L33.6879,107.6387 Z" id="Fill-40" fill="#FFFFFF"></path>
                <g id="Group-44" transform="translate(35.000000, 103.723000)">
                    <mask id="mask-4" fill="white">
                        <use xlink:href="#path-3"></use>
                    </mask>
                    <g id="Clip-43"></g>
                    <path d="M0.3913,1.6931 C0.3913,1.9041 0.5363,2.0601 0.8383,2.2021 C1.0773,2.3161 1.2923,2.4051 1.4633,2.5331 C1.6823,2.7021 1.7913,2.9351 1.7913,3.2271 C1.7913,3.6861 1.4733,4.0001 0.9673,4.0001 L0.7643,4.0001 C0.3153,4.0001 0.0333,3.7361 0.0333,3.5901 C0.0333,3.5691 0.0403,3.5601 0.0603,3.5531 L0.2583,3.4471 C0.2653,3.4441 0.2763,3.4441 0.2833,3.4441 C0.3023,3.4441 0.3043,3.4501 0.3233,3.4691 C0.4543,3.6021 0.5473,3.7301 0.7643,3.7301 L0.9673,3.7301 C1.2493,3.7301 1.4763,3.5131 1.4763,3.2271 C1.4763,2.9091 1.2353,2.7861 0.8353,2.5921 C0.3483,2.3581 0.0693,2.1881 0.0693,1.7071 C0.0693,1.2471 0.3913,0.9341 0.8913,0.9341 L0.9673,0.9341 C1.4113,0.9341 1.7033,1.1971 1.7033,1.3481 C1.7033,1.3641 1.6893,1.3701 1.6703,1.3811 L1.4733,1.4801 C1.4633,1.4851 1.4533,1.4851 1.4503,1.4851 C1.4343,1.4851 1.4253,1.4801 1.4123,1.4671 C1.2813,1.3311 1.1863,1.2061 0.9673,1.2061 L0.8913,1.2061 C0.6133,1.2061 0.3913,1.4191 0.3913,1.6931" id="Fill-42" fill="#FFFFFF" mask="url(#mask-4)"></path>
                </g>
                <path d="M41.4177,105.4298 C41.4177,105.1538 41.1997,104.9288 40.9137,104.9288 L40.7707,104.9288 C40.4847,104.9288 40.2687,105.1498 40.2687,105.4298 L40.2687,106.9508 C40.2687,107.2358 40.4897,107.4528 40.7707,107.4528 L40.9137,107.4528 C41.1887,107.4528 41.4177,107.2268 41.4177,106.9508 L41.4177,105.4298 Z M40.9137,107.7228 L40.7707,107.7228 C40.2687,107.7228 39.9467,107.4088 39.9467,106.9508 L39.9467,105.4298 C39.9467,104.9698 40.2687,104.6578 40.7707,104.6578 L40.9137,104.6578 C41.4167,104.6578 41.7427,104.9738 41.7427,105.4298 L41.7427,106.9508 C41.7427,107.4088 41.4167,107.7228 40.9137,107.7228 L40.9137,107.7228 Z" id="Fill-45" fill="#FFFFFF"></path>
                <path d="M44.8571,104.9767 L43.6261,104.9767 C43.5911,104.9767 43.5771,104.9937 43.5771,105.0217 L43.5771,105.9857 C43.5771,106.0197 43.5911,106.0337 43.6261,106.0337 L44.6361,106.0337 C44.6701,106.0337 44.6831,106.0477 44.6831,106.0807 L44.6831,106.2557 C44.6831,106.2887 44.6701,106.3027 44.6361,106.3027 L43.6261,106.3027 C43.5911,106.3027 43.5771,106.3157 43.5771,106.3517 L43.5771,107.6287 C43.5771,107.6617 43.5661,107.6757 43.5321,107.6757 L43.3091,107.6757 C43.2771,107.6757 43.2621,107.6617 43.2621,107.6287 L43.2621,104.7537 C43.2621,104.7217 43.2771,104.7077 43.3091,104.7077 L44.8571,104.7077 C44.8911,104.7077 44.9031,104.7217 44.9031,104.7537 L44.9031,104.9287 C44.9031,104.9627 44.8911,104.9767 44.8571,104.9767" id="Fill-47" fill="#FFFFFF"></path>
                <path d="M49.7361,107.3087 C49.7361,107.4587 49.4481,107.7227 49.0051,107.7227 L48.8581,107.7227 C48.3571,107.7227 48.0381,107.4097 48.0381,106.9507 L48.0381,105.4297 C48.0381,104.9697 48.3571,104.6577 48.8581,104.6577 L49.0051,104.6577 C49.4401,104.6577 49.7411,104.9107 49.7411,105.0647 C49.7411,105.0797 49.7271,105.0927 49.7081,105.1037 L49.5091,105.2037 C49.5011,105.2077 49.4911,105.2077 49.4831,105.2077 C49.4711,105.2077 49.4661,105.2037 49.4541,105.1907 C49.3111,105.0537 49.2061,104.9287 49.0051,104.9287 L48.8581,104.9287 C48.5761,104.9287 48.3571,105.1497 48.3571,105.4297 L48.3571,106.9507 C48.3571,107.2357 48.5801,107.4537 48.8581,107.4537 L49.0051,107.4537 C49.1141,107.4537 49.2361,107.4067 49.3111,107.3347 C49.4181,107.2367 49.4601,107.1667 49.4831,107.1667 C49.4911,107.1667 49.5011,107.1667 49.5091,107.1697 L49.7081,107.2697 C49.7311,107.2807 49.7361,107.2887 49.7361,107.3087" id="Fill-49" fill="#FFFFFF"></path>
                <path d="M52.5739,105.4298 C52.5739,105.1538 52.3539,104.9288 52.0669,104.9288 L51.9229,104.9288 C51.6389,104.9288 51.4239,105.1498 51.4239,105.4298 L51.4239,106.9508 C51.4239,107.2358 51.6439,107.4528 51.9229,107.4528 L52.0669,107.4528 C52.3449,107.4528 52.5739,107.2268 52.5739,106.9508 L52.5739,105.4298 Z M52.0669,107.7228 L51.9229,107.7228 C51.4239,107.7228 51.1039,107.4088 51.1039,106.9508 L51.1039,105.4298 C51.1039,104.9698 51.4239,104.6578 51.9229,104.6578 L52.0669,104.6578 C52.5669,104.6578 52.8969,104.9738 52.8969,105.4298 L52.8969,106.9508 C52.8969,107.4088 52.5669,107.7228 52.0669,107.7228 L52.0669,107.7228 Z" id="Fill-51" fill="#FFFFFF"></path>
                <path d="M55.8894,105.4767 C55.8894,105.1977 55.6624,104.9767 55.3784,104.9767 L54.7814,104.9767 C54.7464,104.9767 54.7334,104.9937 54.7334,105.0217 L54.7334,105.9857 C54.7334,106.0197 54.7464,106.0337 54.7814,106.0337 L55.3784,106.0337 C55.6674,106.0337 55.8894,105.8137 55.8894,105.5237 L55.8894,105.4767 Z M56.2044,105.5007 C56.2044,105.9777 55.8754,106.3027 55.3784,106.3027 L54.7814,106.3027 C54.7464,106.3027 54.7334,106.3157 54.7334,106.3517 L54.7334,107.6287 C54.7334,107.6617 54.7204,107.6757 54.6864,107.6757 L54.4654,107.6757 C54.4314,107.6757 54.4154,107.6617 54.4154,107.6287 L54.4154,104.7537 C54.4154,104.7217 54.4314,104.7077 54.4654,104.7077 L55.3784,104.7077 C55.8814,104.7077 56.2044,105.0387 56.2044,105.5007 L56.2044,105.5007 Z" id="Fill-53" fill="#FFFFFF"></path>
                <path d="M59.1892,107.6759 L57.6412,107.6759 C57.6092,107.6759 57.5952,107.6609 57.5952,107.6289 L57.5952,104.7539 C57.5952,104.7219 57.6092,104.7079 57.6412,104.7079 L59.1892,104.7079 C59.2232,104.7079 59.2382,104.7219 59.2382,104.7539 L59.2382,104.9289 C59.2382,104.9629 59.2232,104.9769 59.1892,104.9769 L57.9582,104.9769 C57.9262,104.9769 57.9112,104.9929 57.9112,105.0219 L57.9112,105.9859 C57.9112,106.0199 57.9262,106.0329 57.9582,106.0329 L58.9682,106.0329 C59.0022,106.0329 59.0152,106.0479 59.0152,106.0809 L59.0152,106.2559 C59.0152,106.2889 59.0022,106.3029 58.9682,106.3029 L57.9582,106.3029 C57.9262,106.3029 57.9112,106.3159 57.9112,106.3519 L57.9112,107.3599 C57.9112,107.3899 57.9262,107.4059 57.9582,107.4059 L59.1892,107.4059 C59.2232,107.4059 59.2382,107.4269 59.2382,107.4529 L59.2382,107.6289 C59.2382,107.6609 59.2232,107.6759 59.1892,107.6759" id="Fill-55" fill="#FFFFFF"></path>
                <path d="M62.6189,107.6759 L62.4119,107.6759 L62.3689,107.6539 L61.1029,105.3269 L61.0939,105.3269 L61.1189,107.6289 C61.1189,107.6609 61.1029,107.6759 61.0689,107.6759 L60.8479,107.6759 C60.8139,107.6759 60.7999,107.6609 60.7999,107.6289 L60.7999,104.7539 C60.7999,104.7219 60.8139,104.7079 60.8479,104.7079 L61.0509,104.7079 L61.0939,104.7339 L62.3609,107.0729 L62.3729,107.0729 L62.3459,104.7539 C62.3459,104.7219 62.3589,104.7079 62.3909,104.7079 L62.6189,104.7079 C62.6519,104.7079 62.6659,104.7219 62.6659,104.7539 L62.6659,107.6289 C62.6659,107.6609 62.6519,107.6759 62.6189,107.6759" id="Fill-57" fill="#FFFFFF"></path>
                <path d="M66.1902,107.6759 L65.9642,107.6759 C65.9322,107.6759 65.9192,107.6609 65.9192,107.6289 L65.9192,106.3519 C65.9192,106.3159 65.9042,106.3029 65.8732,106.3029 L64.7382,106.3029 C64.7062,106.3029 64.6932,106.3159 64.6932,106.3519 L64.6932,107.6289 C64.6932,107.6609 64.6742,107.6759 64.6432,107.6759 L64.4222,107.6759 C64.3902,107.6759 64.3742,107.6609 64.3742,107.6289 L64.3742,104.7539 C64.3742,104.7219 64.3902,104.7079 64.4222,104.7079 L64.6432,104.7079 C64.6742,104.7079 64.6932,104.7219 64.6932,104.7539 L64.6932,105.9859 C64.6932,106.0199 64.7062,106.0329 64.7382,106.0329 L65.8732,106.0329 C65.9042,106.0329 65.9192,106.0199 65.9192,105.9859 L65.9192,104.7539 C65.9192,104.7219 65.9322,104.7079 65.9642,104.7079 L66.1902,104.7079 C66.2242,104.7079 66.2392,104.7219 66.2392,104.7539 L66.2392,107.6289 C66.2392,107.6609 66.2242,107.6759 66.1902,107.6759" id="Fill-59" fill="#FFFFFF"></path>
                <path d="M68.6862,105.423 C68.6832,105.401 68.6632,105.339 68.6332,105.237 L68.6142,105.237 C68.5982,105.313 68.5772,105.373 68.5642,105.423 L68.2302,106.632 C68.2302,106.641 68.2232,106.648 68.2232,106.652 C68.2232,106.684 68.2432,106.694 68.2732,106.694 L68.9572,106.694 C68.9882,106.694 69.0062,106.684 69.0062,106.652 C69.0062,106.648 69.0012,106.638 69.0012,106.632 L68.6862,105.423 Z M69.6332,107.635 C69.6332,107.661 69.6172,107.676 69.5822,107.676 L69.3422,107.676 C69.3152,107.676 69.3002,107.668 69.2942,107.643 L69.1122,106.991 C69.1062,106.967 69.0912,106.964 69.0652,106.964 L68.1772,106.964 C68.1462,106.964 68.1342,106.967 68.1302,106.991 L67.9442,107.643 C67.9412,107.668 67.9172,107.676 67.8982,107.676 L67.6572,107.676 C67.6242,107.676 67.6052,107.661 67.6052,107.635 C67.6052,107.629 67.6092,107.626 67.6092,107.615 L68.4832,104.741 C68.4932,104.718 68.5002,104.708 68.5312,104.708 L68.7092,104.708 C68.7352,104.708 68.7472,104.718 68.7562,104.741 L69.6302,107.615 C69.6302,107.626 69.6332,107.629 69.6332,107.635 L69.6332,107.635 Z" id="Fill-61" fill="#FFFFFF"></path>
                <path d="M71.8503,107.7228 L71.7043,107.7228 C71.2023,107.7228 70.8823,107.4098 70.8823,106.9508 L70.8823,105.4298 C70.8823,104.9698 71.2023,104.6578 71.7043,104.6578 L71.9393,104.6578 C72.3783,104.6578 72.6703,104.9098 72.6703,105.0648 C72.6703,105.0798 72.6573,105.0928 72.6383,105.1038 L72.4413,105.2028 C72.4313,105.2078 72.4183,105.2078 72.4183,105.2078 C72.4013,105.2078 72.3943,105.2028 72.3823,105.1908 C72.2523,105.0538 72.1543,104.9288 71.9393,104.9288 L71.7043,104.9288 C71.4223,104.9288 71.2023,105.1498 71.2023,105.4298 L71.2023,106.9508 C71.2023,107.2358 71.4233,107.4528 71.7043,107.4528 L71.8503,107.4528 C72.1243,107.4528 72.3553,107.2268 72.3553,106.9508 L72.3553,106.5738 C72.3553,106.5418 72.3343,106.5248 72.3073,106.5248 L71.8123,106.5248 C71.7793,106.5248 71.7663,106.5088 71.7663,106.4778 L71.7663,106.2988 C71.7663,106.2628 71.7793,106.2508 71.8123,106.2508 L72.6303,106.2508 C72.6573,106.2508 72.6753,106.2628 72.6753,106.2988 L72.6753,106.9508 C72.6753,107.4098 72.3523,107.7228 71.8503,107.7228" id="Fill-63" fill="#FFFFFF"></path>
                <path d="M75.7478,107.6759 L74.2018,107.6759 C74.1688,107.6759 74.1558,107.6609 74.1558,107.6289 L74.1558,104.7539 C74.1558,104.7219 74.1688,104.7079 74.2018,104.7079 L75.7478,104.7079 C75.7818,104.7079 75.7988,104.7219 75.7988,104.7539 L75.7988,104.9289 C75.7988,104.9629 75.7818,104.9769 75.7478,104.9769 L74.5188,104.9769 C74.4848,104.9769 74.4718,104.9929 74.4718,105.0219 L74.4718,105.9859 C74.4718,106.0199 74.4848,106.0329 74.5188,106.0329 L75.5288,106.0329 C75.5628,106.0329 75.5758,106.0479 75.5758,106.0809 L75.5758,106.2559 C75.5758,106.2889 75.5628,106.3029 75.5288,106.3029 L74.5188,106.3029 C74.4848,106.3029 74.4718,106.3159 74.4718,106.3519 L74.4718,107.3599 C74.4718,107.3899 74.4848,107.4059 74.5188,107.4059 L75.7478,107.4059 C75.7818,107.4059 75.7988,107.4269 75.7988,107.4529 L75.7988,107.6289 C75.7988,107.6609 75.7818,107.6759 75.7478,107.6759" id="Fill-65" fill="#FFFFFF"></path>
                <path d="M79.1775,107.6759 L78.9715,107.6759 L78.9295,107.6539 L77.6635,105.3269 L77.6555,105.3269 L77.6785,107.6289 C77.6785,107.6609 77.6635,107.6759 77.6285,107.6759 L77.4075,107.6759 C77.3765,107.6759 77.3625,107.6609 77.3625,107.6289 L77.3625,104.7539 C77.3625,104.7219 77.3765,104.7079 77.4075,104.7079 L77.6125,104.7079 L77.6555,104.7339 L78.9235,107.0729 L78.9335,107.0729 L78.9055,104.7539 C78.9055,104.7219 78.9185,104.7079 78.9525,104.7079 L79.1775,104.7079 C79.2115,104.7079 79.2245,104.7219 79.2245,104.7539 L79.2245,107.6289 C79.2245,107.6609 79.2115,107.6759 79.1775,107.6759" id="Fill-67" fill="#FFFFFF"></path>
            </g>
        </g>
    </g>
</svg>