<?xml version="1.0" encoding="UTF-8"?>
<svg width="148px" height="100px" viewBox="0 0 148 100" version="1.1" xmlns="http://www.w3.org/2000/svg" xmlns:xlink="http://www.w3.org/1999/xlink">
    <!-- Generator: Sketch 42 (36781) - http://www.bohemiancoding.com/sketch -->
    <title>sticker_knockoff_white</title>
    <desc>Created with Sketch.</desc>
    <defs>
        <polygon id="path-1" points="0 99.2126 147.722 99.2126 147.722 -0.0004 0 -0.0004"></polygon>
    </defs>
    <g id="Page-1" stroke="none" stroke-width="1" fill="none" fill-rule="evenodd">
        <g id="stickers-black" transform="translate(-144.000000, -282.000000)">
            <g id="sticker_knockoff_white" transform="translate(144.000000, 282.000000)">
                <polygon id="Fill-1" fill="#FFFFFF" points="32.3897 49.5272 37.3437 44.4492 39.9077 44.4492 34.1537 50.2112 39.9407 57.1762 37.3687 57.1762 32.7857 51.5142 32.3897 51.9092 32.3897 57.1762 30.4687 57.1762 30.4687 44.4492 32.3897 44.4492"></polygon>
                <polygon id="Fill-2" fill="#FFFFFF" points="41.6544 57.1766 41.6544 43.5836 50.9364 53.2936 50.9364 44.4496 52.8564 44.4496 52.8564 57.9516 43.5754 48.2656 43.5754 57.1766"></polygon>
                <path d="M57.209,50.7757 C57.209,52.1817 57.682,53.3377 58.627,54.2437 C59.567,55.1497 60.651,55.6027 61.883,55.6027 C63.219,55.6027 64.346,55.1407 65.263,54.2177 C66.181,53.2847 66.64,52.1487 66.64,50.8087 C66.64,49.4527 66.187,48.3167 65.279,47.3997 C64.378,46.4767 63.263,46.0157 61.933,46.0157 C60.608,46.0157 59.489,46.4767 58.578,47.3997 C57.665,48.3107 57.209,49.4367 57.209,50.7757 Z M55.272,50.7547 C55.272,48.9637 55.929,47.4247 57.242,46.1387 C58.55,44.8537 60.122,44.2107 61.957,44.2107 C63.771,44.2107 65.326,44.8587 66.623,46.1557 C67.925,47.4527 68.577,49.0107 68.577,50.8297 C68.577,52.6597 67.923,54.2127 66.615,55.4867 C65.301,56.7677 63.716,57.4067 61.858,57.4067 C60.215,57.4067 58.74,56.8377 57.432,55.7007 C55.992,54.4427 55.272,52.7947 55.272,50.7547 Z" id="Fill-3" fill="#FFFFFF"></path>
                <path d="M80.3975,45.1297 L80.3975,47.4007 C79.2875,46.4717 78.1385,46.0077 76.9515,46.0077 C75.6435,46.0077 74.5425,46.4777 73.6465,47.4177 C72.7445,48.3517 72.2935,49.4947 72.2935,50.8457 C72.2935,52.1807 72.7445,53.3077 73.6465,54.2257 C74.5465,55.1427 75.6525,55.6027 76.9595,55.6027 C77.6355,55.6027 78.2095,55.4927 78.6825,55.2727 C78.9465,55.1627 79.2195,55.0137 79.5025,54.8277 C79.7855,54.6407 80.0845,54.4147 80.3975,54.1507 L80.3975,56.4717 C79.2975,57.0957 78.1435,57.4067 76.9345,57.4067 C75.1165,57.4067 73.5635,56.7727 72.2775,55.5037 C70.9975,54.2227 70.3565,52.6787 70.3565,50.8707 C70.3565,49.2497 70.8925,47.8047 71.9645,46.5347 C73.2835,44.9797 74.9895,44.2017 77.0835,44.2017 C78.2265,44.2017 79.3315,44.5107 80.3975,45.1297" id="Fill-5" fill="#FFFFFF"></path>
                <polygon id="Fill-7" fill="#FFFFFF" points="84.7413 49.5272 89.6953 44.4492 92.2593 44.4492 86.5053 50.2112 92.2923 57.1762 89.7203 57.1762 85.1373 51.5142 84.7413 51.9092 84.7413 57.1762 82.8203 57.1762 82.8203 44.4492 84.7413 44.4492"></polygon>
                <path d="M1.9376,64.3749 C1.9376,65.7809 2.4096,66.9369 3.3556,67.8429 C4.2946,68.7489 5.3796,69.2019 6.6116,69.2019 C7.9466,69.2019 9.0736,68.7409 9.9906,67.8179 C10.9096,66.8849 11.3676,65.7479 11.3676,64.4089 C11.3676,63.0519 10.9146,61.9159 10.0066,60.9989 C9.1066,60.0759 7.9906,59.6149 6.6616,59.6149 C5.3356,59.6149 4.2176,60.0759 3.3056,60.9989 C2.3936,61.9099 1.9376,63.0359 1.9376,64.3749 M0.0006,64.3539 C0.0006,62.5629 0.6576,61.0249 1.9696,59.7379 C3.2776,58.4529 4.8496,57.8099 6.6856,57.8099 C8.4996,57.8099 10.0546,58.4579 11.3506,59.7549 C12.6536,61.0519 13.3046,62.6099 13.3046,64.4289 C13.3046,66.2589 12.6506,67.8119 11.3426,69.0859 C10.0296,70.3669 8.4436,71.0069 6.5856,71.0069 C4.9436,71.0069 3.4676,70.4379 2.1606,69.2999 C0.7196,68.0419 0.0006,66.3939 0.0006,64.3539" id="Fill-9" fill="#FFFFFF"></path>
                <polygon id="Fill-11" fill="#FFFFFF" points="22.0753 59.8539 17.6393 59.8539 17.6393 62.9119 21.9193 62.9119 21.9193 64.7179 17.6393 64.7179 17.6393 70.7759 15.7203 70.7759 15.7203 58.0479 22.0753 58.0479"></polygon>
                <polygon id="Fill-13" fill="#FFFFFF" points="30.6563 59.8539 26.2213 59.8539 26.2213 62.9119 30.5003 62.9119 30.5003 64.7179 26.2213 64.7179 26.2213 70.7759 24.3013 70.7759 24.3013 58.0479 30.6563 58.0479"></polygon>
                <polygon id="Fill-15" fill="#FFFFFF" points="44.4473 59.8539 40.0113 59.8539 40.0113 62.9119 44.2913 62.9119 44.2913 64.7179 40.0113 64.7179 40.0113 70.7759 38.0923 70.7759 38.0923 58.0479 44.4473 58.0479"></polygon>
                <path d="M48.5928,63.8929 L49.2038,63.8929 C51.0228,63.8929 51.9318,63.1979 51.9318,61.8079 C51.9318,60.5049 51.0468,59.8539 49.2778,59.8539 L48.5928,59.8539 L48.5928,63.8929 Z M50.9838,65.3519 L54.9238,70.7759 L52.5748,70.7759 L48.9398,65.5669 L48.5928,65.5669 L48.5928,70.7759 L46.6728,70.7759 L46.6728,58.0479 L48.9238,58.0479 C50.6058,58.0479 51.8198,58.3649 52.5678,58.9969 C53.3908,59.6999 53.8028,60.6289 53.8028,61.7829 C53.8028,62.6839 53.5448,63.4589 53.0288,64.1069 C52.5118,64.7559 51.8298,65.1709 50.9838,65.3519 L50.9838,65.3519 Z" id="Fill-17" fill="#FFFFFF"></path>
                <mask id="mask-2" fill="white">
                    <use xlink:href="#path-1"></use>
                </mask>
                <g id="Clip-20"></g>
                <polygon id="Fill-19" fill="#FFFFFF" mask="url(#mask-2)" points="56.837 70.7766 58.757 70.7766 58.757 58.0486 56.837 58.0486"></polygon>
                <path d="M63.7354,68.9711 L64.6014,68.9711 C65.4644,68.9711 66.1814,68.8801 66.7534,68.6991 C67.3244,68.5071 67.8404,68.2021 68.3024,67.7841 C69.2474,66.9211 69.7204,65.7971 69.7204,64.4121 C69.7204,63.0171 69.2544,61.8851 68.3194,61.0161 C67.4784,60.2421 66.2394,59.8541 64.6014,59.8541 L63.7354,59.8541 L63.7354,68.9711 Z M61.8154,70.7761 L61.8154,58.0481 L64.4864,58.0481 C65.7664,58.0481 66.7774,58.1751 67.5194,58.4281 C68.3164,58.6751 69.0394,59.0961 69.6874,59.6891 C71.0014,60.8881 71.6574,62.4621 71.6574,64.4121 C71.6574,66.3691 70.9734,67.9511 69.6044,69.1601 C68.9184,69.7651 68.1984,70.1851 67.4454,70.4211 C66.7424,70.6581 65.7444,70.7761 64.4534,70.7761 L61.8154,70.7761 Z" id="Fill-21" fill="#FFFFFF" mask="url(#mask-2)"></path>
                <path d="M79.753,65.8797 L77.865,61.5517 L75.887,65.8797 L79.753,65.8797 Z M80.536,67.6847 L75.087,67.6847 L73.67,70.7757 L71.601,70.7757 L77.899,57.2497 L83.974,70.7757 L81.871,70.7757 L80.536,67.6847 Z" id="Fill-22" fill="#FFFFFF" mask="url(#mask-2)"></path>
                <polygon id="Fill-23" fill="#FFFFFF" mask="url(#mask-2)" points="86.4483 65.2782 82.2943 58.0482 84.5023 58.0482 87.4123 63.1352 90.3313 58.0482 92.5393 58.0482 88.3693 65.2782 88.3693 70.7762 86.4483 70.7762"></polygon>
                <path d="M99.4454,90.8451 C97.7444,90.1291 93.2604,88.7141 93.2604,88.7141 C90.5244,87.8631 88.9394,87.8491 88.9394,87.8491 C88.6284,88.5671 89.2594,90.3821 89.2594,90.3821 L92.9424,91.5971 L98.5184,93.5391 C99.6504,94.0291 102.5844,94.8141 102.5844,94.8141 C103.4514,95.2111 103.2984,94.5081 103.2984,94.5081 C103.3554,93.5041 103.5734,92.3951 103.5734,92.3951 C103.1154,92.2921 99.4454,90.8451 99.4454,90.8451" id="Fill-24" fill="#FFFFFF" mask="url(#mask-2)"></path>
                <path d="M115.9405,90.5453 C115.9405,90.5453 113.9815,92.3293 112.1105,91.9133 C112.1105,91.9133 110.3595,91.4273 109.4855,90.4493 C109.4855,90.4493 107.1535,88.6153 105.8265,88.8103 C105.8265,88.8103 105.6205,93.1323 105.3115,94.4663 C105.3115,94.4663 104.6985,98.4543 105.0425,99.2093 C105.0425,99.2093 105.5395,99.3153 106.9465,98.3883 C106.9465,98.3883 109.4955,95.7103 111.0815,95.0663 C111.0815,95.0663 112.6835,94.7713 113.9095,95.6513 C113.9095,95.6513 116.0655,97.2053 116.6355,97.3543 C116.6355,97.3543 117.5055,97.7133 118.0075,97.7033 C118.0075,97.7033 118.8055,95.9303 119.4805,90.8613 L119.6335,89.5183 C119.6335,89.5183 118.6095,89.1893 115.9405,90.5453" id="Fill-25" fill="#FFFFFF" mask="url(#mask-2)"></path>
                <path d="M122.9883,58.2201 C123.2383,57.7051 124.0653,57.2241 124.7043,57.1861 C125.3703,57.1231 125.9563,57.3681 127.0283,57.7641 C128.1063,58.1371 128.9973,58.8441 128.9383,59.6541 C128.8533,60.4801 128.6473,61.2481 128.2723,61.7891 C127.9183,62.3071 126.6143,62.6571 125.9063,62.5351 C125.2223,62.4051 124.6243,61.8051 123.8173,60.9161 C123.0243,60.0251 122.7973,59.3171 122.7973,58.9071 C122.7973,58.5111 122.8823,58.4141 122.9883,58.2201 M117.9973,56.7521 C117.3733,57.6211 116.4833,58.1141 115.8593,58.4901 C115.2343,58.8441 113.7873,58.9881 112.1293,59.0131 C110.4713,59.0311 109.5933,58.6801 108.8993,57.9331 C108.1893,57.1861 108.3913,55.7561 108.5863,54.8671 C108.7673,53.9761 109.1213,53.6231 109.4133,53.2941 C110.1593,52.4421 111.2313,51.8381 112.1683,52.0871 C113.1043,52.3141 114.9083,53.0661 115.7733,53.4751 C116.6423,53.8921 117.3513,54.3481 117.7823,54.6601 C118.1993,54.9641 118.6123,55.8791 117.9973,56.7521 M118.0563,71.1541 C117.9973,72.5411 117.5373,73.1651 117.2053,73.2271 C116.8713,73.2871 116.2513,73.1271 115.2593,72.7561 C114.2383,72.3841 113.6233,72.2361 113.1043,71.3851 C112.5863,70.5531 113.1213,69.9291 113.5963,69.5001 C114.0913,69.0611 115.4623,68.1751 116.1703,67.7521 C116.8713,67.3601 117.6133,67.8631 117.7643,68.4031 C117.9283,68.9341 118.1203,70.2081 118.0563,71.1541 M147.7193,2.2011 C128.9133,9.0091 117.1703,24.4431 112.2593,32.1581 C112.6473,10.7821 94.5423,0.0001 94.5423,0.0001 C92.7023,26.5741 103.7503,39.2561 106.3803,41.8761 C105.7593,42.5691 105.2413,43.2361 104.9803,43.7741 C104.1483,45.4561 102.6143,49.3961 102.1153,51.2011 C101.6343,52.9811 100.9343,56.3981 100.5433,58.8231 C100.1253,61.2061 99.1453,65.0871 98.6553,66.7231 C98.1763,68.3351 97.5093,69.9801 97.5093,70.7821 C97.5093,71.0551 97.3843,72.2611 97.2953,73.2321 L96.3953,72.9901 C96.3953,72.9901 88.1603,80.0221 88.7533,81.1411 C88.7533,81.1411 88.8573,84.9851 94.7363,86.4101 C94.7363,86.4101 99.0123,87.9971 100.9043,88.8171 C100.9043,88.8171 103.4093,89.7151 104.0263,89.5981 C104.0263,89.5981 104.6533,89.0901 104.2013,87.1271 L103.8623,85.6881 C103.8623,85.6881 106.8533,86.8571 109.2243,88.3401 C109.2243,88.3401 111.2943,89.4241 113.0043,90.1111 C113.0043,90.1111 113.5543,90.2531 114.0973,87.8561 C114.0973,87.8561 114.2673,86.2431 114.0363,84.7221 C115.0193,85.0341 116.2443,85.6681 117.3933,85.7481 C118.1403,85.7891 118.5963,85.3931 119.8793,84.8951 C120.6043,84.3821 121.0803,84.3341 122.1343,83.2591 C123.0243,82.3261 123.8393,81.4581 124.3783,79.8961 C124.9113,78.3701 125.9063,76.2321 126.4033,74.9451 C126.9053,73.6411 127.8343,71.1541 128.8083,69.3901 C129.7813,67.6561 130.4543,65.5551 131.0063,64.0661 C131.5843,62.5481 133.0373,60.0671 133.7473,57.3341 C134.4303,54.6171 134.6343,51.2351 134.3453,49.1001 C134.0583,46.9921 132.7863,43.8201 132.0643,42.2671 C131.3423,40.7071 130.5923,37.7031 128.4303,36.4881 C126.3843,35.3161 124.3373,34.8141 122.2873,34.6801 C148.4403,24.6191 147.7193,2.2011 147.7193,2.2011" id="Fill-26" fill="#FFFFFF" mask="url(#mask-2)"></path>
                <path d="M39.7579,76.9359 C39.7579,76.7409 39.6009,76.5859 39.4019,76.5859 L38.9829,76.5859 C38.9569,76.5859 38.9479,76.5979 38.9479,76.6179 L38.9479,77.2919 C38.9479,77.3159 38.9569,77.3259 38.9829,77.3259 L39.4019,77.3259 C39.6039,77.3259 39.7579,77.1719 39.7579,76.9689 L39.7579,76.9359 Z M39.9839,78.4499 C39.9839,78.4649 39.9689,78.4759 39.9489,78.4759 L39.7719,78.4759 C39.7529,78.4699 39.7429,78.4629 39.7419,78.4529 L39.4229,77.5349 C39.4199,77.5299 39.4149,77.5209 39.3999,77.5149 L38.9829,77.5149 C38.9569,77.5149 38.9479,77.5229 38.9479,77.5489 L38.9479,78.4429 C38.9479,78.4649 38.9389,78.4759 38.9159,78.4759 L38.7619,78.4759 C38.7369,78.4759 38.7269,78.4649 38.7269,78.4429 L38.7269,76.4299 C38.7269,76.4079 38.7369,76.3979 38.7619,76.3979 L39.4019,76.3979 C39.7529,76.3979 39.9789,76.6219 39.9789,76.9689 L39.9789,77.0049 C39.9789,77.1219 39.9099,77.2589 39.7799,77.3699 C39.7079,77.4289 39.6469,77.4349 39.6469,77.4679 C39.6469,77.4689 39.6519,77.4759 39.6519,77.4779 L39.9789,78.4329 C39.9839,78.4409 39.9839,78.4429 39.9839,78.4499 L39.9839,78.4499 Z" id="Fill-27" fill="#FFFFFF" mask="url(#mask-2)"></path>
                <path d="M41.6446,78.5087 L41.5426,78.5087 C41.1936,78.5087 40.9676,78.2887 40.9676,77.9677 L40.9676,76.4297 C40.9676,76.4077 40.9776,76.3977 40.9996,76.3977 L41.1596,76.3977 C41.1836,76.3977 41.1936,76.4077 41.1936,76.4297 L41.1936,77.9677 C41.1936,78.1667 41.3486,78.3197 41.5426,78.3197 L41.6446,78.3197 C41.8366,78.3197 41.9986,78.1607 41.9986,77.9677 L41.9986,76.4297 C41.9986,76.4077 42.0076,76.3977 42.0326,76.3977 L42.1906,76.3977 C42.2116,76.3977 42.2236,76.4077 42.2236,76.4297 L42.2236,77.9677 C42.2236,78.2887 41.9946,78.5087 41.6446,78.5087" id="Fill-28" fill="#FFFFFF" mask="url(#mask-2)"></path>
                <path d="M44.6407,78.4754 L44.4937,78.4754 L44.4637,78.4604 L43.5787,76.8314 L43.5737,76.8314 L43.5887,78.4424 C43.5887,78.4644 43.5787,78.4754 43.5557,78.4754 L43.4017,78.4754 C43.3767,78.4754 43.3677,78.4644 43.3677,78.4424 L43.3677,76.4304 C43.3677,76.4074 43.3767,76.3974 43.4017,76.3974 L43.5417,76.3974 L43.5737,76.4154 L44.4597,78.0534 L44.4687,78.0534 L44.4477,76.4304 C44.4477,76.4074 44.4577,76.3974 44.4827,76.3974 L44.6407,76.3974 C44.6627,76.3974 44.6737,76.4074 44.6737,76.4304 L44.6737,78.4424 C44.6737,78.4644 44.6627,78.4754 44.6407,78.4754" id="Fill-29" fill="#FFFFFF" mask="url(#mask-2)"></path>
                <path d="M47.1417,78.4754 L46.9967,78.4754 L46.9677,78.4604 L46.0797,76.8314 L46.0737,76.8314 L46.0917,78.4424 C46.0917,78.4644 46.0797,78.4754 46.0577,78.4754 L45.9027,78.4754 C45.8797,78.4754 45.8697,78.4644 45.8697,78.4424 L45.8697,76.4304 C45.8697,76.4074 45.8797,76.3974 45.9027,76.3974 L46.0437,76.3974 L46.0737,76.4154 L46.9627,78.0534 L46.9707,78.0534 L46.9507,76.4304 C46.9507,76.4074 46.9577,76.3974 46.9827,76.3974 L47.1417,76.3974 C47.1647,76.3974 47.1727,76.4074 47.1727,76.4304 L47.1727,78.4424 C47.1727,78.4644 47.1647,78.4754 47.1417,78.4754" id="Fill-30" fill="#FFFFFF" mask="url(#mask-2)"></path>
                <path d="M49.4883,78.4754 L48.4043,78.4754 C48.3813,78.4754 48.3723,78.4644 48.3723,78.4424 L48.3723,76.4304 C48.3723,76.4074 48.3813,76.3974 48.4043,76.3974 L49.4883,76.3974 C49.5123,76.3974 49.5203,76.4074 49.5203,76.4304 L49.5203,76.5534 C49.5203,76.5764 49.5123,76.5854 49.4883,76.5854 L48.6263,76.5854 C48.6013,76.5854 48.5933,76.5974 48.5933,76.6174 L48.5933,77.2924 C48.5933,77.3164 48.6013,77.3264 48.6263,77.3264 L49.3333,77.3264 C49.3573,77.3264 49.3653,77.3354 49.3653,77.3584 L49.3653,77.4814 C49.3653,77.5054 49.3573,77.5144 49.3333,77.5144 L48.6263,77.5144 C48.6013,77.5144 48.5933,77.5234 48.5933,77.5484 L48.5933,78.2544 C48.5933,78.2754 48.6013,78.2874 48.6263,78.2874 L49.4883,78.2874 C49.5123,78.2874 49.5203,78.3014 49.5203,78.3194 L49.5203,78.4424 C49.5203,78.4644 49.5123,78.4754 49.4883,78.4754" id="Fill-31" fill="#FFFFFF" mask="url(#mask-2)"></path>
                <path d="M51.6475,76.9359 C51.6475,76.7409 51.4885,76.5859 51.2905,76.5859 L50.8695,76.5859 C50.8475,76.5859 50.8375,76.5979 50.8375,76.6179 L50.8375,77.2919 C50.8375,77.3159 50.8475,77.3259 50.8695,77.3259 L51.2905,77.3259 C51.4925,77.3259 51.6475,77.1719 51.6475,76.9689 L51.6475,76.9359 Z M51.8735,78.4499 C51.8735,78.4649 51.8575,78.4759 51.8385,78.4759 L51.6605,78.4759 C51.6425,78.4699 51.6335,78.4629 51.6295,78.4529 L51.3125,77.5349 C51.3095,77.5299 51.3025,77.5209 51.2855,77.5149 L50.8695,77.5149 C50.8475,77.5149 50.8375,77.5229 50.8375,77.5489 L50.8375,78.4429 C50.8375,78.4649 50.8275,78.4759 50.8035,78.4759 L50.6485,78.4759 C50.6265,78.4759 50.6155,78.4649 50.6155,78.4429 L50.6155,76.4299 C50.6155,76.4079 50.6265,76.3979 50.6485,76.3979 L51.2905,76.3979 C51.6425,76.3979 51.8685,76.6219 51.8685,76.9689 L51.8685,77.0049 C51.8685,77.1219 51.7975,77.2589 51.6685,77.3699 C51.5965,77.4289 51.5335,77.4349 51.5335,77.4679 C51.5335,77.4689 51.5385,77.4759 51.5385,77.4779 L51.8685,78.4329 C51.8735,78.4409 51.8735,78.4429 51.8735,78.4499 L51.8735,78.4499 Z" id="Fill-32" fill="#FFFFFF" mask="url(#mask-2)"></path>
                <path d="M53.0655,76.8934 C53.0655,77.0414 53.1675,77.1504 53.3785,77.2494 C53.5445,77.3304 53.6965,77.3924 53.8155,77.4814 C53.9685,77.6004 54.0445,77.7634 54.0445,77.9674 C54.0445,78.2894 53.8225,78.5084 53.4685,78.5084 L53.3265,78.5084 C53.0115,78.5084 52.8145,78.3234 52.8145,78.2224 C52.8145,78.2064 52.8205,78.2014 52.8345,78.1964 L52.9725,78.1214 C52.9775,78.1194 52.9845,78.1194 52.9895,78.1194 C53.0035,78.1194 53.0045,78.1234 53.0175,78.1374 C53.1095,78.2294 53.1745,78.3194 53.3265,78.3194 L53.4685,78.3194 C53.6665,78.3194 53.8245,78.1674 53.8245,77.9674 C53.8245,77.7454 53.6565,77.6594 53.3775,77.5234 C53.0355,77.3584 52.8395,77.2404 52.8395,76.9034 C52.8395,76.5814 53.0655,76.3624 53.4155,76.3624 L53.4685,76.3624 C53.7795,76.3624 53.9835,76.5464 53.9835,76.6524 C53.9835,76.6634 53.9735,76.6664 53.9615,76.6744 L53.8225,76.7444 C53.8155,76.7484 53.8085,76.7484 53.8065,76.7484 C53.7955,76.7484 53.7895,76.7444 53.7805,76.7354 C53.6885,76.6404 53.6215,76.5534 53.4685,76.5534 L53.4155,76.5534 C53.2205,76.5534 53.0655,76.7024 53.0655,76.8934" id="Fill-33" fill="#FFFFFF" mask="url(#mask-2)"></path>
                <path d="M57.2842,76.9032 C57.2842,76.7102 57.1312,76.5532 56.9302,76.5532 L56.8302,76.5532 C56.6312,76.5532 56.4782,76.7072 56.4782,76.9032 L56.4782,77.9672 C56.4782,78.1672 56.6352,78.3202 56.8302,78.3202 L56.9302,78.3202 C57.1232,78.3202 57.2842,78.1612 57.2842,77.9672 L57.2842,76.9032 Z M56.9302,78.5082 L56.8302,78.5082 C56.4782,78.5082 56.2552,78.2892 56.2552,77.9672 L56.2552,76.9032 C56.2552,76.5812 56.4782,76.3622 56.8302,76.3622 L56.9302,76.3622 C57.2832,76.3622 57.5122,76.5842 57.5122,76.9032 L57.5122,77.9672 C57.5122,78.2892 57.2832,78.5082 56.9302,78.5082 L56.9302,78.5082 Z" id="Fill-34" fill="#FFFFFF" mask="url(#mask-2)"></path>
                <path d="M59.6915,76.5858 L58.8295,76.5858 C58.8045,76.5858 58.7955,76.5978 58.7955,76.6178 L58.7955,77.2928 C58.7955,77.3158 58.8045,77.3258 58.8295,77.3258 L59.5375,77.3258 C59.5605,77.3258 59.5695,77.3358 59.5695,77.3588 L59.5695,77.4818 C59.5695,77.5048 59.5605,77.5148 59.5375,77.5148 L58.8295,77.5148 C58.8045,77.5148 58.7955,77.5228 58.7955,77.5488 L58.7955,78.4428 C58.7955,78.4648 58.7885,78.4758 58.7635,78.4758 L58.6075,78.4758 C58.5865,78.4758 58.5755,78.4648 58.5755,78.4428 L58.5755,76.4298 C58.5755,76.4078 58.5865,76.3978 58.6075,76.3978 L59.6915,76.3978 C59.7145,76.3978 59.7235,76.4078 59.7235,76.4298 L59.7235,76.5528 C59.7235,76.5758 59.7145,76.5858 59.6915,76.5858" id="Fill-35" fill="#FFFFFF" mask="url(#mask-2)"></path>
                <path d="M63.1065,78.2181 C63.1065,78.3231 62.9055,78.5091 62.5945,78.5091 L62.4925,78.5091 C62.1415,78.5091 61.9185,78.2891 61.9185,77.9681 L61.9185,76.9031 C61.9185,76.5811 62.1415,76.3621 62.4925,76.3621 L62.5945,76.3621 C62.8995,76.3621 63.1105,76.5391 63.1105,76.6481 C63.1105,76.6581 63.1005,76.6671 63.0865,76.6751 L62.9475,76.7441 C62.9415,76.7481 62.9345,76.7481 62.9295,76.7481 C62.9215,76.7481 62.9185,76.7441 62.9095,76.7361 C62.8095,76.6401 62.7355,76.5531 62.5945,76.5531 L62.4925,76.5531 C62.2945,76.5531 62.1415,76.7071 62.1415,76.9031 L62.1415,77.9681 C62.1415,78.1671 62.2965,78.3201 62.4925,78.3201 L62.5945,78.3201 C62.6705,78.3201 62.7565,78.2871 62.8095,78.2371 C62.8835,78.1681 62.9135,78.1191 62.9295,78.1191 C62.9345,78.1191 62.9415,78.1191 62.9475,78.1211 L63.0865,78.1911 C63.1025,78.1981 63.1065,78.2041 63.1065,78.2181" id="Fill-36" fill="#FFFFFF" mask="url(#mask-2)"></path>
                <path d="M65.0928,76.9032 C65.0928,76.7102 64.9398,76.5532 64.7388,76.5532 L64.6368,76.5532 C64.4388,76.5532 64.2878,76.7072 64.2878,76.9032 L64.2878,77.9672 C64.2878,78.1672 64.4428,78.3202 64.6368,78.3202 L64.7388,78.3202 C64.9328,78.3202 65.0928,78.1612 65.0928,77.9672 L65.0928,76.9032 Z M64.7388,78.5082 L64.6368,78.5082 C64.2878,78.5082 64.0648,78.2892 64.0648,77.9672 L64.0648,76.9032 C64.0648,76.5812 64.2878,76.3622 64.6368,76.3622 L64.7388,76.3622 C65.0888,76.3622 65.3198,76.5842 65.3198,76.9032 L65.3198,77.9672 C65.3198,78.2892 65.0888,78.5082 64.7388,78.5082 L64.7388,78.5082 Z" id="Fill-37" fill="#FFFFFF" mask="url(#mask-2)"></path>
                <path d="M67.4141,76.9359 C67.4141,76.7409 67.2561,76.5859 67.0571,76.5859 L66.6391,76.5859 C66.6141,76.5859 66.6041,76.5979 66.6041,76.6179 L66.6041,77.2919 C66.6041,77.3159 66.6141,77.3259 66.6391,77.3259 L67.0571,77.3259 C67.2591,77.3259 67.4141,77.1719 67.4141,76.9689 L67.4141,76.9359 Z M67.6351,76.9539 C67.6351,77.2869 67.4041,77.5149 67.0571,77.5149 L66.6391,77.5149 C66.6141,77.5149 66.6041,77.5229 66.6041,77.5489 L66.6041,78.4429 C66.6041,78.4649 66.5961,78.4759 66.5721,78.4759 L66.4171,78.4759 C66.3931,78.4759 66.3831,78.4649 66.3831,78.4429 L66.3831,76.4299 C66.3831,76.4079 66.3931,76.3979 66.4171,76.3979 L67.0571,76.3979 C67.4081,76.3979 67.6351,76.6289 67.6351,76.9539 L67.6351,76.9539 Z" id="Fill-38" fill="#FFFFFF" mask="url(#mask-2)"></path>
                <path d="M69.7237,78.4754 L68.6407,78.4754 C68.6187,78.4754 68.6087,78.4644 68.6087,78.4424 L68.6087,76.4304 C68.6087,76.4074 68.6187,76.3974 68.6407,76.3974 L69.7237,76.3974 C69.7477,76.3974 69.7577,76.4074 69.7577,76.4304 L69.7577,76.5534 C69.7577,76.5764 69.7477,76.5854 69.7237,76.5854 L68.8627,76.5854 C68.8397,76.5854 68.8287,76.5974 68.8287,76.6174 L68.8287,77.2924 C68.8287,77.3164 68.8397,77.3264 68.8627,77.3264 L69.5697,77.3264 C69.5937,77.3264 69.6027,77.3354 69.6027,77.3584 L69.6027,77.4814 C69.6027,77.5054 69.5937,77.5144 69.5697,77.5144 L68.8627,77.5144 C68.8397,77.5144 68.8287,77.5234 68.8287,77.5484 L68.8287,78.2544 C68.8287,78.2754 68.8397,78.2874 68.8627,78.2874 L69.7237,78.2874 C69.7477,78.2874 69.7577,78.3014 69.7577,78.3194 L69.7577,78.4424 C69.7577,78.4644 69.7477,78.4754 69.7237,78.4754" id="Fill-39" fill="#FFFFFF" mask="url(#mask-2)"></path>
                <path d="M72.1251,78.4754 L71.9791,78.4754 L71.9491,78.4604 L71.0631,76.8314 L71.0571,76.8314 L71.0751,78.4424 C71.0751,78.4644 71.0631,78.4754 71.0401,78.4754 L70.8851,78.4754 C70.8611,78.4754 70.8521,78.4644 70.8521,78.4424 L70.8521,76.4304 C70.8521,76.4074 70.8611,76.3974 70.8851,76.3974 L71.0261,76.3974 L71.0571,76.4154 L71.9431,78.0534 L71.9521,78.0534 L71.9341,76.4304 C71.9341,76.4074 71.9421,76.3974 71.9651,76.3974 L72.1251,76.3974 C72.1481,76.3974 72.1571,76.4074 72.1571,76.4304 L72.1571,78.4424 C72.1571,78.4644 72.1481,78.4754 72.1251,78.4754" id="Fill-40" fill="#FFFFFF" mask="url(#mask-2)"></path>
                <path d="M74.6251,78.4754 L74.4671,78.4754 C74.4441,78.4754 74.4351,78.4644 74.4351,78.4424 L74.4351,77.5484 C74.4351,77.5234 74.4251,77.5144 74.4021,77.5144 L73.6081,77.5144 C73.5851,77.5144 73.5761,77.5234 73.5761,77.5484 L73.5761,78.4424 C73.5761,78.4644 73.5631,78.4754 73.5421,78.4754 L73.3871,78.4754 C73.3641,78.4754 73.3541,78.4644 73.3541,78.4424 L73.3541,76.4304 C73.3541,76.4074 73.3641,76.3974 73.3871,76.3974 L73.5421,76.3974 C73.5631,76.3974 73.5761,76.4074 73.5761,76.4304 L73.5761,77.2924 C73.5761,77.3164 73.5851,77.3264 73.6081,77.3264 L74.4021,77.3264 C74.4251,77.3264 74.4351,77.3164 74.4351,77.2924 L74.4351,76.4304 C74.4351,76.4074 74.4441,76.3974 74.4671,76.3974 L74.6251,76.3974 C74.6481,76.3974 74.6581,76.4074 74.6581,76.4304 L74.6581,78.4424 C74.6581,78.4644 74.6481,78.4754 74.6251,78.4754" id="Fill-41" fill="#FFFFFF" mask="url(#mask-2)"></path>
                <path d="M76.3721,76.8983 C76.3691,76.8823 76.3551,76.8393 76.3351,76.7693 L76.3211,76.7693 C76.3101,76.8203 76.2951,76.8633 76.2861,76.8983 L76.0531,77.7453 C76.0531,77.7513 76.0481,77.7553 76.0481,77.7583 C76.0481,77.7803 76.0611,77.7873 76.0821,77.7873 L76.5601,77.7873 C76.5831,77.7873 76.5971,77.7803 76.5971,77.7583 C76.5971,77.7553 76.5931,77.7493 76.5931,77.7453 L76.3721,76.8983 Z M77.0341,78.4463 C77.0341,78.4643 77.0231,78.4753 76.9991,78.4753 L76.8311,78.4753 C76.8121,78.4753 76.8021,78.4693 76.7981,78.4523 L76.6701,77.9963 C76.6661,77.9793 76.6551,77.9773 76.6371,77.9773 L76.0161,77.9773 C75.9941,77.9773 75.9851,77.9793 75.9821,77.9963 L75.8521,78.4523 C75.8511,78.4693 75.8341,78.4753 75.8201,78.4753 L75.6511,78.4753 C75.6291,78.4753 75.6141,78.4643 75.6141,78.4463 C75.6141,78.4423 75.6181,78.4403 75.6181,78.4333 L76.2291,76.4213 C76.2361,76.4043 76.2421,76.3983 76.2631,76.3983 L76.3891,76.3983 C76.4061,76.3983 76.4141,76.4043 76.4211,76.4213 L77.0331,78.4333 C77.0331,78.4403 77.0341,78.4423 77.0341,78.4463 L77.0341,78.4463 Z" id="Fill-42" fill="#FFFFFF" mask="url(#mask-2)"></path>
                <path d="M78.587,78.5087 L78.484,78.5087 C78.133,78.5087 77.909,78.2887 77.909,77.9677 L77.909,76.9037 C77.909,76.5807 78.133,76.3627 78.484,76.3627 L78.649,76.3627 C78.956,76.3627 79.161,76.5397 79.161,76.6477 C79.161,76.6587 79.151,76.6667 79.139,76.6747 L79,76.7447 C78.993,76.7487 78.984,76.7487 78.984,76.7487 C78.973,76.7487 78.968,76.7447 78.959,76.7357 C78.868,76.6397 78.799,76.5527 78.649,76.5527 L78.484,76.5527 C78.287,76.5527 78.133,76.7067 78.133,76.9037 L78.133,77.9677 C78.133,78.1667 78.288,78.3197 78.484,78.3197 L78.587,78.3197 C78.778,78.3197 78.94,78.1607 78.94,77.9677 L78.94,77.7037 C78.94,77.6817 78.926,77.6697 78.906,77.6697 L78.561,77.6697 C78.536,77.6697 78.527,77.6587 78.527,77.6367 L78.527,77.5117 C78.527,77.4867 78.536,77.4777 78.561,77.4777 L79.133,77.4777 C79.151,77.4777 79.164,77.4867 79.164,77.5117 L79.164,77.9677 C79.164,78.2887 78.939,78.5087 78.587,78.5087" id="Fill-43" fill="#FFFFFF" mask="url(#mask-2)"></path>
                <path d="M81.3155,78.4754 L80.2325,78.4754 C80.2105,78.4754 80.2005,78.4644 80.2005,78.4424 L80.2005,76.4304 C80.2005,76.4074 80.2105,76.3974 80.2325,76.3974 L81.3155,76.3974 C81.3385,76.3974 81.3505,76.4074 81.3505,76.4304 L81.3505,76.5534 C81.3505,76.5764 81.3385,76.5854 81.3155,76.5854 L80.4545,76.5854 C80.4305,76.5854 80.4205,76.5974 80.4205,76.6174 L80.4205,77.2924 C80.4205,77.3164 80.4305,77.3264 80.4545,77.3264 L81.1625,77.3264 C81.1855,77.3264 81.1945,77.3354 81.1945,77.3584 L81.1945,77.4814 C81.1945,77.5054 81.1855,77.5144 81.1625,77.5144 L80.4545,77.5144 C80.4305,77.5144 80.4205,77.5234 80.4205,77.5484 L80.4205,78.2544 C80.4205,78.2754 80.4305,78.2874 80.4545,78.2874 L81.3155,78.2874 C81.3385,78.2874 81.3505,78.3014 81.3505,78.3194 L81.3505,78.4424 C81.3505,78.4644 81.3385,78.4754 81.3155,78.4754" id="Fill-44" fill="#FFFFFF" mask="url(#mask-2)"></path>
                <path d="M83.7149,78.4754 L83.5709,78.4754 L83.5419,78.4604 L82.6549,76.8314 L82.6499,76.8314 L82.6659,78.4424 C82.6659,78.4644 82.6549,78.4754 82.6319,78.4754 L82.4769,78.4754 C82.4549,78.4754 82.4439,78.4644 82.4439,78.4424 L82.4439,76.4304 C82.4439,76.4074 82.4549,76.3974 82.4769,76.3974 L82.6199,76.3974 L82.6499,76.4154 L83.5379,78.0534 L83.5449,78.0534 L83.5249,76.4304 C83.5249,76.4074 83.5339,76.3974 83.5579,76.3974 L83.7149,76.3974 C83.7389,76.3974 83.7479,76.4074 83.7479,76.4304 L83.7479,78.4424 C83.7479,78.4644 83.7389,78.4754 83.7149,78.4754" id="Fill-45" fill="#FFFFFF" mask="url(#mask-2)"></path>
            </g>
        </g>
    </g>
</svg>