<?xml version="1.0" encoding="UTF-8"?>
<svg width="80px" height="101px" viewBox="0 0 80 101" version="1.1" xmlns="http://www.w3.org/2000/svg" xmlns:xlink="http://www.w3.org/1999/xlink">
    <!-- Generator: Sketch 42 (36781) - http://www.bohemiancoding.com/sketch -->
    <title>runner</title>
    <desc>Created with Sketch.</desc>
    <defs></defs>
    <g id="Page-1" stroke="none" stroke-width="1" fill="none" fill-rule="evenodd">
        <g id="stickers-black" transform="translate(-440.000000, -25.000000)" fill="#FFFFFF">
            <g id="runner" transform="translate(440.000000, 25.000000)">
                <path d="M24.3492824,72.218401 C25.4524531,72.218401 25.4952749,69.924563 25.4952749,69.220408 C25.4952749,68.5155418 25.4524531,66.2209925 24.3492824,66.2209925 C23.245432,66.2209925 23.2026102,68.5155418 23.2026102,69.220408 C23.2026102,69.924563 23.245432,72.218401 24.3492824,72.218401 M24.3492824,63.373077 C27.3148609,63.373077 28.4758071,66.4606897 28.4758071,69.220408 C28.4758071,71.9787038 27.3148609,75.067739 24.3492824,75.067739 C21.3823445,75.067739 20.2227577,71.9787038 20.2227577,69.220408 C20.2227577,66.4606897 21.3823445,63.373077 24.3492824,63.373077" id="Fill-1845"></path>
                <path d="M28.805195,63.5674665 L31.5852124,63.5674665 L33.920699,70.3750087 L33.9492468,70.3444242 C33.8343757,69.0399594 33.619587,67.7511425 33.619587,66.4466777 L33.619587,63.5674665 L36.4281523,63.5674665 L36.4281523,74.8730651 L33.619587,74.8730651 L31.4417934,68.3507411 L31.4139253,68.3799031 C31.4852949,69.4446707 31.6137603,70.495213 31.6137603,71.558558 L31.6137603,74.8730651 L28.805195,74.8730651 L28.805195,63.5674665 Z" id="Fill-1847"></path>
                <polygon id="Fill-1849" points="40.8277169 74.8727806 40.8277169 66.326189 39.2229195 66.326189 39.2229195 63.567182 45.428 63.567182 45.428 66.326189 43.7511533 66.326189 43.7511533 74.8727806"></polygon>
                <polygon id="Fill-1851" points="50.1277249 74.8727806 50.1277249 70.2843932 48.7377162 70.2843932 48.7377162 74.8727806 45.8149594 74.8727806 45.8149594 63.567182 48.7377162 63.567182 48.7377162 67.6164284 50.1277249 67.6164284 50.1277249 63.567182 53.0504816 63.567182 53.0504816 74.8727806"></polygon>
                <polygon id="Fill-1853" points="53.7103449 63.5674665 59.140555 63.5674665 59.140555 66.2361425 56.6331016 66.2361425 56.6331016 67.810889 58.8829446 67.810889 58.8829446 70.4788538 56.6331016 70.4788538 56.6331016 72.2036777 59.140555 72.2036777 59.140555 74.8730651 53.7103449 74.8730651"></polygon>
                <path d="M14.8628977,81.6712897 C15.6364086,81.6712897 16.0523917,80.9664235 16.0523917,80.2316841 C16.0523917,79.2423108 15.4793954,78.822663 14.6773366,78.8674728 L14.6773366,81.6563531 L14.8628977,81.6712897 Z M16.2814543,87.74267 L14.662383,83.035501 L14.6338351,83.0653742 C14.648109,83.6208742 14.6773366,84.1749517 14.6773366,84.7297404 L14.6773366,87.74267 L11.7532205,87.74267 L11.7532205,76.4384939 L14.5760597,76.4384939 C17.1127407,76.4384939 18.9466006,77.2187545 18.9466006,80.2018108 C18.9466006,81.4465291 18.4313797,82.5553953 17.2704336,83.035501 L19.4482272,87.74267 L16.2814543,87.74267 Z" id="Fill-1855"></path>
                <path d="M26.5985816,76.4386362 L26.5985816,83.8301291 C26.5985816,85.1936291 26.3117436,87.9391221 22.9308618,87.9391221 C19.5486205,87.9391221 19.2624622,85.1936291 19.2624622,83.8301291 L19.2624622,76.4386362 L22.1852189,76.4386362 L22.1852189,83.5449108 C22.1852189,83.845777 22.170945,84.2348404 22.2572683,84.5349953 C22.3429119,84.8493756 22.5291526,85.0897841 22.9308618,85.0897841 C23.3454854,85.0897841 23.5324059,84.8493756 23.6037755,84.549932 C23.6894191,84.2348404 23.6751452,83.845777 23.6751452,83.5605587 L23.6751452,76.4386362 L26.5985816,76.4386362 Z" id="Fill-1857"></path>
                <path d="M27.1722576,76.4386362 L29.952275,76.4386362 L32.2877616,83.2461784 L32.3163094,83.2155939 C32.2007586,81.9111291 31.9866497,80.621601 31.9866497,79.3178475 L31.9866497,76.4386362 L34.795215,76.4386362 L34.795215,87.7428122 L31.9866497,87.7428122 L29.808856,81.2219108 L29.7796285,81.2510728 C29.8516778,82.3158404 29.9808229,83.3656714 29.9808229,84.4297277 L29.9808229,87.7428122 L27.1722576,87.7428122 L27.1722576,76.4386362 Z" id="Fill-1859"></path>
                <path d="M38.1339547,83.9351834 C38.5356639,84.5653665 39.2378052,85.194127 39.9827683,85.194127 C40.3837977,85.194127 40.8419228,84.9402045 40.8419228,84.4451622 C40.8419228,84.1755918 40.756959,83.9799932 40.6128603,83.8156904 C40.4837152,83.6499651 40.3124281,83.5155355 40.1255076,83.3803946 C39.5525113,82.9152256 39.0515644,82.4806411 38.6784031,81.9415003 C38.3201955,81.4158735 38.0918127,80.7864017 38.0918127,79.9620425 C38.0918127,78.6426411 38.8938715,76.2435355 41.3863712,76.2435355 C42.0891923,76.2435355 42.8477496,76.4682961 43.4642474,76.8132608 L43.4642474,80.2465496 C43.1203137,79.6768242 42.4181723,79.033127 41.7445789,79.033127 C41.4013249,79.033127 40.9853418,79.2877608 40.9853418,79.7216341 C40.9853418,79.9620425 41.1138072,80.1718665 41.2721798,80.3518172 C41.4298727,80.5317679 41.6446614,80.6811341 41.8023543,80.8162749 C42.4181723,81.2665073 42.905525,81.6861552 43.2351848,82.1961341 C43.5791185,82.7054017 43.7653593,83.3050003 43.7653593,84.1599439 C43.7653593,86.2596059 42.3610766,87.9389087 40.3260223,87.9389087 C39.5817389,87.9389087 38.8218221,87.7731834 38.1339547,87.4730284 L38.1339547,83.9351834 Z" id="Fill-1861"></path>
                <polygon id="Fill-1863" points="44.095087 87.7428834 47.0185235 87.7428834 47.0185235 76.4387073 44.095087 76.4387073"></polygon>
                <path d="M47.6629573,76.4386362 L50.4422951,76.4386362 L52.7777816,83.2461784 L52.8063295,83.2155939 C52.692138,81.9111291 52.4773494,80.621601 52.4773494,79.3178475 L52.4773494,76.4386362 L55.285235,76.4386362 L55.285235,87.7428122 L52.4773494,87.7428122 L50.2995558,81.2219108 L50.2710079,81.2510728 C50.3416979,82.3158404 50.4715226,83.3656714 50.4715226,84.4297277 L50.4715226,87.7428122 L47.6629573,87.7428122 L47.6629573,76.4386362 Z" id="Fill-1865"></path>
                <path d="M61.8489989,79.7525742 C61.4336956,79.3322151 61.0897619,79.0918066 60.4875381,79.0918066 C58.9683843,79.0918066 58.5959027,80.8465038 58.5959027,82.0905108 C58.5959027,83.4106235 58.9683843,85.0892151 60.4304423,85.0892151 C61.0897619,85.0892151 61.5050652,84.8196446 61.978144,84.3701235 L61.8061771,87.5331306 C61.2182272,87.8034122 60.6887325,87.9385531 60.0436869,87.9385531 C57.6511046,87.9385531 55.6160503,86.0337784 55.6160503,82.1659052 C55.6160503,77.0981235 58.9405161,76.2431799 60.3590727,76.2431799 C60.8749733,76.2431799 61.3759202,76.3185742 61.8489989,76.5134615 L61.8489989,79.7525742 Z" id="Fill-1866"></path>
                <polygon id="Fill-1867" points="62.5077067 76.4386362 67.9385966 76.4386362 67.9385966 79.1073122 65.4318229 79.1073122 65.4318229 80.6813475 67.6809861 80.6813475 67.6809861 83.3500235 65.4318229 83.3500235 65.4318229 85.0741362 67.9385966 85.0741362 67.9385966 87.7428122 62.5077067 87.7428122"></polygon>
                <path d="M26.4844582,93.0273172 C26.4844582,90.7633524 27.9465162,89.1146341 30.1379041,89.1146341 C32.1865526,89.1146341 33.5480135,90.7341904 33.5480135,92.8174932 C33.5480135,94.9463172 32.1294569,96.7315989 30.7251743,98.0801622 L30.7537221,98.1107468 C31.2417545,98.0801622 31.7284275,98.0054791 32.2151005,98.0054791 L33.4195481,98.0054791 L33.4195481,100.614409 L25.9685576,100.614409 L28.819265,96.6405566 C29.6220035,95.5167538 30.6973061,94.0927961 30.6973061,92.6382538 C30.6973061,92.202958 30.5253393,91.6332327 30.0237126,91.6332327 C29.3922612,91.6332327 29.3215713,92.5479228 29.3215713,93.0123806 L29.3215713,93.4327397 L26.4987321,93.4327397 L26.4844582,93.0273172 Z" id="Fill-1868"></path>
                <path d="M36.4000803,94.9614672 C36.4000803,96.23677 36.4578557,98.2005799 37.3455581,98.2005799 C38.2339402,98.2005799 38.2917156,96.23677 38.2917156,94.9614672 C38.2917156,93.6875869 38.2339402,91.7223545 37.3455581,91.7223545 C36.4578557,91.7223545 36.4000803,93.6875869 36.4000803,94.9614672 M41.1709709,94.9614672 C41.1709709,97.4651291 40.3546381,100.809509 37.3455581,100.809509 C34.3364781,100.809509 33.5201453,97.4651291 33.5201453,94.9614672 C33.5201453,92.4578052 34.3364781,89.1141362 37.3455581,89.1141362 C40.3546381,89.1141362 41.1709709,92.4578052 41.1709709,94.9614672" id="Fill-1869"></path>
                <polygon id="Fill-1870" points="42.14622 100.614124 42.14622 91.9181665 40.9852739 91.9181665 40.9852739 89.3092369 45.0696565 89.3092369 45.0696565 100.614124"></polygon>
                <path d="M48.9811206,94.9614672 C48.9811206,96.23677 49.038896,98.2005799 49.9272781,98.2005799 C50.8149805,98.2005799 50.872756,96.23677 50.872756,94.9614672 C50.872756,93.6875869 50.8149805,91.7223545 49.9272781,91.7223545 C49.038896,91.7223545 48.9811206,93.6875869 48.9811206,94.9614672 M53.7526909,94.9614672 C53.7526909,97.4651291 52.9356784,100.809509 49.9272781,100.809509 C46.9181981,100.809509 46.1011857,97.4651291 46.1011857,94.9614672 C46.1011857,92.4578052 46.9181981,89.1141362 49.9272781,89.1141362 C52.9356784,89.1141362 53.7526909,92.4578052 53.7526909,94.9614672" id="Fill-1871"></path>
                <path d="M46.3562812,10.6523573 C46.2128622,10.4119489 46.3610391,10.2312869 46.492903,10.1053925 C46.6295249,9.97949816 47.0088036,9.72273056 47.20524,9.6011038 C47.3982779,9.48658971 47.60491,9.6316883 47.6463724,9.78887844 C47.691913,9.94251225 47.7442507,10.3109489 47.7265783,10.5862094 C47.7109449,10.9873644 47.5831593,11.1680263 47.4907186,11.185808 C47.3982779,11.2028784 47.2276705,11.1573573 46.9530673,11.0492446 C46.6703076,10.9418432 46.4997001,10.8991672 46.3562812,10.6523573 M45.1919364,6.75603337 C44.9955,6.53909675 45.051916,6.12513901 45.1056132,5.86694887 C45.1559118,5.60946999 45.2531104,5.50633619 45.333996,5.41102633 C45.5413078,5.16421647 45.8376618,4.98995591 46.0966316,5.06250521 C46.3562812,5.12865309 46.8558686,5.34487844 47.0951269,5.46366013 C47.3364242,5.5852869 47.532181,5.71758267 47.6511304,5.80791366 C47.7666812,5.89611084 47.8808726,6.16070239 47.7109449,6.41391366 C47.5376186,6.66570239 47.2915633,6.80795591 47.118237,6.91606859 C46.9455905,7.01991366 46.5452408,7.06187844 46.0864359,7.06827985 C45.6276311,7.07325873 45.3842946,6.97154746 45.1919364,6.75603337 M49.0921174,6.83854042 C49.1628073,6.68988549 49.3911902,6.55047704 49.5672353,6.53909675 C49.7514369,6.52131506 49.9145675,6.59244182 50.2109215,6.70695591 C50.5099943,6.81506859 50.7567293,7.01991366 50.7397365,7.25320943 C50.7159467,7.49432915 50.6595307,7.71695591 50.5548552,7.87343478 C50.4569768,8.02280098 50.0967301,8.12451225 49.9002936,8.08894887 C49.7106543,8.05125168 49.5454845,7.87770239 49.3225394,7.61951225 C49.1023131,7.36203337 49.0397797,7.15647704 49.0397797,7.03769535 C49.0397797,6.92318126 49.0628898,6.89473056 49.0921174,6.83854042 M79.2773973,60.5890334 C78.9980361,60.5058151 78.7716924,60.4567376 78.2856992,60.7255968 C77.8037841,60.997301 77.1675748,61.6132587 76.6156496,62.1310615 C76.0650837,62.6538432 75.5607383,63.0201461 75.1175668,63.1816038 C74.6784736,63.3501742 73.8329133,63.5358151 73.3673113,63.6809137 C72.9085065,63.8188996 72.6570135,63.9255897 72.2457884,63.8900263 C71.8257271,63.8594418 71.635408,63.8317024 71.296912,63.9149207 C71.1820409,63.7413714 70.5743794,63.0919841 70.2481181,62.4731813 C69.9191381,61.8607799 68.1348971,59.2070404 67.3430339,57.7901953 C66.5572881,56.372639 64.4909671,52.8611108 63.7697939,51.545977 C63.0465815,50.2358221 62.3186112,48.8431601 62.1459646,48.3331813 C61.9726383,47.8288925 61.7394975,47.4149348 61.5158726,47.0493432 C61.2895289,46.6830404 60.953072,46.532963 60.7233298,46.3999559 C60.4990252,46.2690827 60.1380987,45.9731953 59.281663,45.3629277 C58.4272665,44.7434137 57.7557121,44.2142306 57.1065882,43.7760897 C57.1534883,43.43397 56.8652909,43.1942728 56.7395444,43.0541531 C56.620595,42.9254137 56.2175264,42.7312376 55.781152,42.5399066 C55.3522545,42.341463 54.9097627,42.0590897 54.3021012,41.7482658 C54.0139038,41.4701601 53.6699701,41.3755615 53.6699701,41.3755615 C53.6699701,41.3755615 53.5686932,41.2361531 53.1561087,40.8641601 C52.7353676,40.4907446 51.617923,39.8370897 51.197182,39.574632 C50.7852772,39.3107517 50.2326722,38.8647869 49.9145675,38.564632 C49.5910252,38.2658996 48.9949187,37.8754137 48.8113968,37.7544982 C48.8385852,37.3220475 48.8684925,36.7878855 48.8854853,36.2530122 C48.9011186,35.7238291 48.8385852,34.7408573 48.7590591,33.9605968 C48.6734155,33.1732235 48.6448676,32.5017869 48.6890489,31.9669137 C48.7298315,31.4263503 48.829749,30.9398432 48.8630548,30.5970122 C48.8970404,30.2627165 48.9493781,29.817463 49.0452173,29.4447587 C49.1390174,29.0720545 49.1709639,28.8266672 49.2919524,28.1666108 C49.6318078,28.3508291 50.4474609,28.719977 50.762167,28.7726108 C51.0782326,28.8266672 51.5139272,28.9461601 51.8245551,29.001639 C52.1379018,29.0613855 52.5695182,29.1275334 52.5695182,29.1275334 L52.7000227,28.9354911 C52.7000227,28.9354911 53.1418347,29.1140193 53.8657268,29.3608291 C54.5896189,29.6083503 55.1524195,29.7861672 55.3869197,29.8900122 C55.6220997,29.9974137 55.8171767,30.1482024 56.2005336,30.0927235 C56.5811717,30.0336883 57.10251,29.7861672 58.1880082,29.3857235 C59.2701079,28.9817235 60.7906211,28.1068644 62.3111343,26.8464982 C63.8316476,25.5854207 64.9280212,24.5932024 65.4677116,24.2034277 C66.0135194,23.8129418 66.621181,23.255308 67.6020037,22.4928291 C68.5841859,21.7239489 69.0192009,21.4173925 69.3529389,20.9436883 C69.672403,20.4692728 69.6961929,20.1627165 69.6961929,19.730977 C69.6961929,19.2928362 69.7532886,18.8895475 69.5520942,18.5125756 C69.2768113,18.2522517 68.7622702,17.6768362 68.2912306,17.4961742 C67.815433,17.3219137 67.3505107,17.4129559 67.0276481,17.7358714 C66.7754753,17.899463 66.5980708,18.1925052 66.3458981,18.4883925 C66.1453833,18.5723221 65.8850541,18.8305122 65.8388337,19.2330897 C65.7946525,19.6349559 65.8619439,20.1492024 66.0012846,20.7452446 C65.5295653,21.1592024 65.335168,21.4415756 64.5670947,21.838463 C63.7969823,22.2389066 60.8769444,23.3385263 59.5392734,24.0113855 C58.1968445,24.6899348 57.0793998,25.2233855 56.6661356,25.3805756 C56.2535511,25.5406108 55.9653537,25.4154277 55.6554055,25.3450122 C55.3447777,25.2660615 54.9172395,25.091801 54.6399175,24.9964911 C54.673903,24.9239418 54.7099277,24.8165404 54.6637074,24.7567939 C54.5433986,24.6109841 54.0900314,24.3243432 53.6135541,23.980801 C53.1418347,23.6386813 52.7238126,23.1407939 52.5124225,23.0198784 C52.2935556,22.9074982 51.7885304,22.5824489 51.4615895,22.455132 C51.136008,22.3235475 50.7397365,22.1144348 50.423671,21.6272165 C50.1069257,21.1456883 49.7106543,20.4280193 49.3388524,19.7181742 C49.2178639,19.1427587 48.8113968,18.5829911 48.552427,18.2522517 C48.2934571,17.9279137 47.8074639,16.9691249 47.6185042,16.4755052 C47.4227475,15.9769066 47.2548589,15.4719066 46.7566309,15.0230968 C47.0156007,14.8488362 47.0380312,14.7755756 47.543736,14.8139841 C47.7510479,14.8246531 47.8767944,14.710139 48.2309237,14.566463 C48.4321181,14.4170968 48.5639821,14.4042939 48.8562577,14.0927587 C49.1023131,13.822477 49.3279771,13.569977 49.4768337,13.1183221 C49.624331,12.6766249 49.9002936,12.0563996 50.0382749,11.6836953 C50.1769359,11.3067235 50.4338667,10.5862094 50.7037119,10.074808 C50.9728774,9.57194182 51.1591181,8.96380802 51.3120531,8.53206859 C51.4717851,8.09321647 51.8755334,7.37483619 52.0712901,6.58177281 C52.2602498,5.79439957 52.3166658,4.81569535 52.2371396,4.19689253 C52.1576134,3.58591366 51.8048435,2.66695591 51.6056882,2.21743478 C51.4058532,1.76506859 51.197182,0.894477036 50.5997161,0.542399571 C50.0042894,0.186765768 49.4088627,0.0416671769 48.8113968,0.0132164727 C48.209173,-0.0223469076 47.7265783,0.0132164727 47.1916458,0.127730557 C46.6655496,0.246512247 45.8607719,0.72092774 45.5515035,1.02677281 C45.2300002,1.33404042 44.3300631,2.17262492 44.1071179,2.65344182 C43.8760162,3.14066013 43.4518766,4.28153337 43.3138953,4.80502633 C43.180672,5.32069535 42.9869544,6.31006859 42.8782006,7.01280098 C42.7626498,7.70344182 42.4921249,8.82724464 42.3568624,9.30166013 C42.2229594,9.76825168 42.0387577,10.244801 42.0387577,10.4780968 C42.0387577,10.7185052 41.9313634,10.7426883 42.1672231,11.185808 C41.6839487,11.0115475 41.5813123,11.1260615 41.1163901,11.1609137 C40.6589447,11.1986108 40.0954644,11.3173925 39.2342707,11.5293503 C38.5124177,11.6488432 37.3643861,12.1296601 37.0381249,12.2256813 C36.7111839,12.3145897 35.9064063,12.9397939 35.2402896,13.4206108 C34.7182717,13.7620193 33.0944424,14.4590615 32.7280783,14.6397235 C32.350159,14.8139841 31.6323843,15.2386108 31.426432,15.4448784 C31.2238781,15.6418996 31.1667824,15.5352094 30.91393,15.7791742 C30.8004182,15.9000897 30.7440022,15.9946883 30.7440022,15.9946883 C30.7440022,15.9946883 29.5966503,16.607801 28.311317,17.2799489 C27.0191867,17.952808 25.194163,19.1228432 24.5409609,19.627132 C23.8863993,20.1392446 23.3004885,20.5603151 22.9042171,20.8597587 C22.5099848,21.152801 22.5439703,21.66847 22.45085,22.2879841 C22.3652064,22.9010968 22.3448151,24.1266108 22.3652064,25.5662165 C22.3883166,27.0065334 22.7274923,29.4689418 22.923249,30.7470897 C23.1122086,32.02097 23.3460292,34.5495263 23.4255553,35.2223855 C23.5091598,35.8945334 23.553341,36.3077799 23.4860496,36.6498996 C23.4167191,36.9920193 23.2264,37.442963 23.0544332,37.7722799 C22.887904,38.102308 22.7043821,38.596639 22.7839083,38.8718996 C22.8641142,39.1407587 22.9463592,39.412463 23.2488305,39.89897 C23.2155247,40.0967024 23.2603856,40.3001249 23.3460292,40.5576038 C23.4391496,40.8157939 23.7089948,41.3030122 23.8585312,41.6088573 C24.0005907,41.9147024 24.1610025,42.0349066 24.465513,42.0484207 C24.6904973,42.1558221 24.9834526,42.1380404 25.2118355,41.950977 C25.4368198,41.7653362 26.0213711,41.1842306 26.4856137,40.7211953 C26.9437388,40.2645615 26.8241097,39.9871672 26.7772096,39.3150193 C26.731669,38.6421601 26.6283529,38.0077094 26.5080441,37.3576108 C26.3822976,36.7096461 26.3537498,35.7679277 26.4285179,34.5843784 C26.501247,33.4015404 26.6337906,30.7606038 26.6636979,29.3430475 C26.6976834,27.9333151 26.6337906,25.7283855 26.623595,25.1095827 C26.6052428,24.4971813 26.6514631,24.1678644 27.2366942,23.9317235 C27.8226049,23.6913151 29.3268051,23.1479066 30.2892757,22.6251249 C31.2537854,22.1073221 32.2182951,21.6464207 32.2182951,21.6464207 C32.2182951,21.6464207 32.2583981,21.9636461 32.5778622,21.9814277 C32.8429494,21.9159911 33.6864706,21.5738714 34.122845,21.3818291 C34.5585396,21.1897869 35.5400421,20.828463 36.8947059,20.2822094 C36.7560449,21.5070122 36.4984344,23.9936038 36.4984344,25.1750193 C36.4984344,26.3521672 36.588836,28.305308 36.5616476,28.6652094 C36.53242,29.0300897 36.588836,29.4867235 36.4392996,29.817463 C36.2918023,30.1482024 36.0960456,31.2456883 35.9757368,31.8104348 C35.8561077,32.3808714 35.2402896,33.7806461 34.907911,34.8183855 C34.5755324,35.8561249 34.36958,37.2253151 34.36958,37.2253151 C34.36958,37.2253151 34.6679731,37.3881953 35.0010314,37.5140897 C34.6380658,37.8754137 34.4450279,38.5240897 34.2322784,38.8057517 C34.0188492,39.0881249 33.8699925,39.574632 33.6470474,40.2048151 C33.4227428,40.8357094 32.5282433,43.0377939 32.1258544,43.7227446 C31.7187076,44.4062728 31.2836927,45.1516813 30.8513966,45.7818644 C30.2389771,46.676639 30.3524888,46.7662587 30.3348163,47.0969982 C30.0989566,47.3665686 29.0617178,48.8673432 28.5165897,49.59497 C27.9789384,50.3211742 27.1809579,51.5168151 26.5651398,52.2060334 C25.6930708,51.7814066 23.7089948,51.593632 22.0559379,51.6732939 C20.3974434,51.7501108 17.9470857,51.7678925 16.340929,51.5630475 C14.7300142,51.3603362 13.6282029,51.1441108 12.7024367,51.0359982 C11.7807488,50.9321531 11.0684118,50.8375545 10.4940561,50.7301531 C9.92038011,50.6220404 9.35282154,50.2251531 9.14143146,50.0444911 C8.92188485,49.8702306 8.44064955,49.4804559 7.99747807,49.1497165 C7.56246311,48.8211108 6.9425668,48.48397 6.39743868,48.2990404 C5.93659472,48.2079982 5.73200174,48.1112658 5.45060145,48.2079982 C5.29494766,48.5017517 4.46909895,50.0928573 3.96407378,51.1682939 C3.46040803,52.2430193 2.32325174,54.3981601 1.8766817,55.2602165 C1.42399427,56.1322306 0.671554337,57.7724137 0.426178714,58.5163996 C0.182162512,59.261808 0.00747681954,60.0292658 0,60.3244418 C0.0401029412,60.3720968 0.149536391,60.5997024 0.367043868,60.7455122 C0.579113659,60.8408221 1.09161565,60.8891883 1.34310867,60.7078151 C1.59528141,60.5221742 1.79987438,60.3422235 2.12885444,60.0050827 C2.26071834,59.8621179 2.7147652,59.4652306 2.94450748,59.2418925 C3.16813235,59.0270897 4.33723504,57.704132 4.91295015,57.2012658 C5.4852667,56.6976883 6.33966326,55.8740404 6.77603764,55.6720404 C7.2117323,55.4664841 7.73442996,55.1855334 8.29723056,54.9614841 C8.77982527,54.9337446 10.0705962,54.9337446 12.194013,55.2602165 C14.3099529,55.5923784 17.8913495,56.8947094 20.5639726,57.7197799 C23.2433928,58.5348925 24.9698584,58.9147094 25.7970666,58.8962165 C26.623595,58.8748784 27.8627079,59.0270897 28.3847258,59.0085968 C28.9013061,58.9979277 29.3825414,58.7873925 29.8134781,58.6252235 C30.2444148,58.4573644 30.5876687,57.9758362 31.0410359,57.6337165 C31.494403,57.2915968 32.7117652,56.4266953 34.2655842,55.1528151 C35.8207627,53.8753784 37.3473933,52.3810052 37.8755287,51.9777165 C38.0468158,52.0630686 38.3859915,52.1754489 38.5511613,52.000477 C38.7244875,51.8269277 39.4864434,51.3297517 40.1396456,50.8204841 C40.7955666,50.3090827 41.5649993,49.4384911 42.1733405,48.6688996 C42.7823614,47.9021531 43.4912999,47.0664137 43.4912999,47.0664137 C43.4912999,47.0664137 44.2614123,47.2406742 44.8228534,47.5159348 C45.2184452,47.8224911 45.9294227,48.1183784 46.5268886,48.4114207 C47.1250341,48.7058855 48.0249713,49.3061953 48.5918502,49.6013714 C49.1553305,49.9015263 49.8207674,50.2799207 49.9764212,50.3261531 C50.1375127,50.3681179 50.2469462,50.3090827 50.531745,50.1099277 C50.8117859,49.9079277 51.0598804,49.6127517 51.0598804,49.6127517 C51.0598804,49.6127517 51.2257298,49.69597 52.4763978,50.1348221 C53.7338629,50.5736742 54.3068592,50.9940334 55.0885267,51.4328855 C55.8613579,51.8696038 56.1672278,52.1754489 56.5634993,52.8027869 C56.959091,53.4251461 57.5565568,54.4287446 58.7834349,56.0198503 C60.0171102,57.6159348 62.9493829,60.7206179 64.3835728,62.4561108 C65.8116453,64.1837799 67.8079561,66.9819066 68.3544437,67.7635897 C68.3544437,68.1768362 68.5658337,68.6398714 68.800334,69.1206883 C69.0409516,69.6057728 69.5820015,70.5979911 70.0632368,71.0780968 C70.5505895,71.5631813 71.1548524,72.1642024 71.4294556,72.3633573 C71.7101762,72.5660686 71.8481575,72.7716249 72.2553043,72.590963 C72.6808033,72.2246601 73.1572807,71.7132587 73.8227176,70.6086601 C74.4881545,69.4976601 75.131161,68.5794137 75.9230242,67.5708362 C76.7080902,66.5757728 77.4639287,65.4569489 78.4114457,64.0344137 C79.3582829,62.6047658 79.6505586,61.7277728 79.6859035,61.3095475 C79.7198891,60.8820756 79.6403629,60.7640052 79.2773973,60.5890334" id="Fill-1872"></path>
            </g>
        </g>
    </g>
</svg>