<?xml version="1.0" encoding="UTF-8"?>
<svg width="95px" height="37px" viewBox="0 0 95 37" version="1.1" xmlns="http://www.w3.org/2000/svg" xmlns:xlink="http://www.w3.org/1999/xlink">
    <!-- Generator: Sketch 42 (36781) - http://www.bohemiancoding.com/sketch -->
    <title>sticker_midweek-text_black</title>
    <desc>Created with Sketch.</desc>
    <defs></defs>
    <g id="Page-1" stroke="none" stroke-width="1" fill="none" fill-rule="evenodd">
        <g id="stickers-white" transform="translate(-425.000000, -176.000000)" fill="#1A1918">
            <g id="sticker_midweek-text_black" transform="translate(425.000000, 176.000000)">
                <path d="M13.8918617,17.8050435 L15.2213118,6.61173913 L15.1742373,6.61173913 C14.7538129,7.90995652 14.3788397,9.20978261 13.9340664,10.508 L11.3904175,17.8050435 L7.43453218,17.8050435 L7.52543475,6.61173913 L7.4783602,6.61173913 C7.24298746,7.93408696 7.06118231,9.23391304 6.77873501,10.5562609 L5.21878187,17.8050435 L0,17.8050435 L4.93308805,0 L10.9846025,0 L10.8596114,9.46878261 L10.906686,9.46878261 C11.2264682,8.3603913 11.5186551,7.27291304 11.9098608,6.16291304 L14.0590575,0 L20.0391484,0 L18.9434477,17.8050435 L13.8918617,17.8050435 Z" id="Fill-1817"></path>
                <polygon id="Fill-1819" points="19.5302563 17.8050435 22.366092 0 27.2261334 0 24.3902976 17.8050435"></polygon>
                <path d="M31.6004952,13.507413 C33.8194921,13.4832826 34.6376153,10.7452826 34.9054532,9.06741304 C35.2138727,7.13215217 35.2609472,4.43919565 33.0451969,4.43919565 L31.6004952,13.507413 Z M28.8912738,0.000804347826 L32.7984613,0.000804347826 C38.3272859,0.000804347826 40.7556833,3.44823913 39.8986019,8.83093478 C38.5886308,17.0497609 33.251351,17.8042391 30.2970172,17.8042391 L26.0554381,17.8042391 L28.8912738,0.000804347826 Z" id="Fill-1821"></path>
                <path d="M49.2094607,17.8050435 L49.0503811,10.5787826 C49.0179159,9.139 49.1461535,7.88743478 49.1737489,6.6583913 L49.1266744,6.6583913 C48.8117619,7.88743478 48.5650263,9.139 48.120253,10.5787826 L45.9450842,17.8050435 L41.2278898,17.8050435 L40.0607656,0 L44.8493835,0 L44.77796,7.178 C44.7584809,8.50034783 44.6951738,9.80017391 44.6497225,11.1225217 L44.6984203,11.1225217 C45.052291,9.80017391 45.282794,8.50034783 45.7308138,7.178 L48.1381089,0 L52.3066413,0 L52.4040369,7.178 C52.41053,8.47782609 52.3504693,9.75191304 52.3342367,11.0517391 L52.3813113,11.0517391 C52.7027168,9.94173913 52.9673083,8.57113043 53.4039653,7.178 L55.6197156,0 L60.3612589,0 L53.9039294,17.8050435 L49.2094607,17.8050435 Z" id="Fill-1823"></path>
                <polygon id="Fill-1825" points="60.5904633 0.000160869565 69.6206603 0.000160869565 68.9518771 4.20368261 64.7817214 4.20368261 64.3872691 6.68268261 68.1272609 6.68268261 67.4584776 10.8862043 63.7168626 10.8862043 63.2850754 13.6016826 67.4552311 13.6016826 66.7848246 17.8052043 57.7546275 17.8052043"></polygon>
                <polygon id="Fill-1827" points="71.2836905 0.000160869565 80.3138876 0.000160869565 79.6451043 4.20368261 75.4749486 4.20368261 75.0804963 6.68268261 78.8204881 6.68268261 78.1517048 10.8862043 74.4100898 10.8862043 73.9783026 13.6016826 78.1468351 13.6016826 77.4780518 17.8052043 68.4478548 17.8052043"></polygon>
                <polygon id="Fill-1829" points="94.6527951 0.000160869565 89.3999248 8.59542174 92.269849 17.8052043 87.0510671 17.8052043 85.3271647 9.63463913 85.3498903 9.63463913 85.3028158 9.63463913 84.000961 17.8052043 79.1409197 17.8052043 81.9767554 0.000160869565 86.8367967 0.000160869565 85.6307143 7.58033478 85.65344 7.58033478 89.5297856 0.000160869565"></polygon>
                <path d="M14.9400008,36.3573261 L16.269451,25.1640217 L16.2223765,25.1640217 C15.801952,26.4622391 15.4269789,27.7620652 14.9822056,29.0602826 L12.4385567,36.3573261 L8.48267135,36.3573261 L8.57357393,25.1640217 L8.52649938,25.1640217 C8.29112664,26.4863696 8.10932148,27.7861957 7.82687419,29.1085435 L6.26692104,36.3573261 L1.04813918,36.3573261 L5.98122723,18.5522826 L12.0327416,18.5522826 L11.9077506,28.0210652 L11.9548251,28.0210652 C12.2746074,26.9126739 12.5667943,25.8251957 12.958,24.7151957 L15.1071966,18.5522826 L21.0872876,18.5522826 L19.9915869,36.3573261 L14.9400008,36.3573261 Z" id="Fill-1831"></path>
                <path d="M28.4073799,30.2888435 L28.5421105,26.1561043 C28.5745757,25.0461043 28.6606085,23.9135826 28.7174226,22.8035826 L28.6703481,22.8035826 C28.3505658,23.9135826 28.0502626,25.0461043 27.6834058,26.1561043 L26.3588254,30.2888435 L28.4073799,30.2888435 Z M28.3700449,36.3568435 L28.3781612,34.0676696 L25.1121615,34.0676696 L24.3427361,36.3568435 L19.3382246,36.3568435 L26.487063,18.5518 L32.4217026,18.5518 L33.3972821,36.3568435 L28.3700449,36.3568435 Z" id="Fill-1833"></path>
                <path d="M39.3413366,32.0598565 C41.5603335,32.0357261 42.3784567,29.2977261 42.6462946,27.6198565 C42.9547141,25.6845957 43.0017886,22.9916391 40.7860383,22.9916391 L39.3413366,32.0598565 Z M36.6321152,18.5532478 L40.5393027,18.5532478 C46.0681273,18.5532478 48.4965247,22.0006826 47.6394433,27.3833783 C46.3294722,35.6022043 40.9921924,36.3566826 38.0378586,36.3566826 L33.7962795,36.3566826 L36.6321152,18.5532478 Z" id="Fill-1835"></path>
                <path d="M49.7069899,18.5524435 L54.328412,18.5524435 L56.5068273,29.2727913 L56.5603949,29.2261391 C56.6967488,27.1718348 56.6642836,25.1400522 56.9905589,23.0857478 L57.7129097,18.5524435 L62.3830296,18.5524435 L59.5471939,36.357487 L54.877074,36.357487 L52.8918267,26.0859652 L52.8366358,26.1326174 C52.6889191,27.8088783 52.6402213,29.4626174 52.3723834,31.1388783 L51.5412741,36.357487 L46.8711542,36.357487 L49.7069899,18.5524435 Z" id="Fill-1837"></path>
                <polygon id="Fill-1839" points="64.0442742 18.5524435 73.0744713 18.5524435 72.405688 22.7559652 68.2355323 22.7559652 67.8410801 25.2349652 71.5810718 25.2349652 70.9122885 29.438487 67.1706736 29.438487 66.7388863 32.1539652 70.909042 32.1539652 70.2386355 36.357487 61.2084385 36.357487"></polygon>
                <path d="M72.4042271,30.359787 C72.9123076,31.3507435 73.9235987,32.3433087 75.1621463,32.3433087 C75.8293063,32.3433087 76.6555458,31.9411348 76.7789136,31.1625261 C76.8470905,30.7378304 76.7529414,30.4305696 76.5565269,30.1699609 C76.3828381,29.9109609 76.1312327,29.698613 75.8552785,29.4862652 C75.0192994,28.7527 74.2937021,28.0690043 73.8099705,27.2180043 C73.3457181,26.3927435 73.1233314,25.4001783 73.3294855,24.1019609 C73.6606306,22.0235261 75.5955568,18.2447 79.7413636,18.2447 C80.9101111,18.2447 82.1161935,18.598613 83.0544379,19.1423522 L82.1924867,24.550787 C81.763946,23.6531348 80.7575246,22.6380478 79.6390982,22.6380478 C79.0660874,22.6380478 78.3112713,23.038613 78.2025129,23.7239174 C78.1424523,24.1019609 78.303155,24.4317435 78.5206719,24.7148739 C78.7381888,24.999613 79.0579711,25.2360913 79.2868508,25.4484391 C80.1974998,26.1562652 80.903618,26.8174391 81.3240424,27.6201783 C81.7671925,28.4229174 81.926272,29.3672217 81.7120017,30.7137 C81.1860653,34.0195696 78.4281461,36.6642652 75.0452716,36.6642652 C73.806724,36.6642652 72.584409,36.4052652 71.5163037,35.9323087 L72.4042271,30.359787 Z" id="Fill-1841"></path>
                <path d="M82.4538316,30.359787 C82.9619121,31.3507435 83.9732033,32.3433087 85.2117509,32.3433087 C85.8789108,32.3433087 86.7051503,31.9411348 86.8285181,31.1625261 C86.8966951,30.7378304 86.802546,30.4305696 86.6061315,30.1699609 C86.4324426,29.9109609 86.1808373,29.698613 85.904883,29.4862652 C85.068904,28.7527 84.3433066,28.0690043 83.859575,27.2180043 C83.3953226,26.3927435 83.1729359,25.4001783 83.37909,24.1019609 C83.7102351,22.0235261 85.6467846,18.2447 89.7909682,18.2447 C90.9597156,18.2447 92.165798,18.598613 93.1040424,19.1423522 L92.2420912,24.550787 C91.8135505,23.6531348 90.8071291,22.6380478 89.6887028,22.6380478 C89.1156919,22.6380478 88.3608758,23.038613 88.2521174,23.7239174 C88.1920568,24.1019609 88.3527595,24.4317435 88.5702764,24.7148739 C88.7877933,24.999613 89.1075756,25.2360913 89.3364553,25.4484391 C90.2471043,26.1562652 90.9532225,26.8174391 91.373647,27.6201783 C91.816797,28.4229174 91.9758765,29.3672217 91.7616062,30.7137 C91.2356698,34.0195696 88.4777506,36.6642652 85.0948761,36.6642652 C83.8563285,36.6642652 82.6340135,36.4052652 81.5659082,35.9323087 L82.4538316,30.359787 Z" id="Fill-1843"></path>
            </g>
        </g>
    </g>
</svg>