<?xml version="1.0" encoding="UTF-8"?>
<svg width="88px" height="142px" viewBox="0 0 88 142" version="1.1" xmlns="http://www.w3.org/2000/svg" xmlns:xlink="http://www.w3.org/1999/xlink">
    <!-- Generator: Sketch 42 (36781) - http://www.bohemiancoding.com/sketch -->
    <title>sticker_deadpoets_white</title>
    <desc>Created with Sketch.</desc>
    <defs></defs>
    <g id="Page-1" stroke="none" stroke-width="1" fill="none" fill-rule="evenodd">
        <g id="stickers-black" transform="translate(-557.000000, -259.000000)">
            <g id="sticker_deadpoets_white" transform="translate(557.000000, 258.000000)">
                <g id="Asset-1">
                    <g id="Layer_2">
                        <g id="Layer_1-2">
                            <path d="M1.69,67.32 L1.69,55 L4.28,55 C5.27337493,54.9676277 6.26562229,55.0925024 7.22,55.37 C8.0021634,55.615104 8.71965386,56.0319318 9.32,56.59 C10.5580998,57.8034491 11.2490957,59.468481 11.2340052,61.2020098 C11.2189146,62.9355386 10.499037,64.5882888 9.24,65.78 C8.63668861,66.3288572 7.92457664,66.7445398 7.15,67 C6.20647602,67.2613136 5.22837991,67.375987 4.25,67.34 L1.69,67.32 Z M3.55,65.57 L4.39,65.57 C5.09579227,65.5892331 5.8004326,65.5015745 6.48,65.31 C8.25282995,64.7108246 9.42320798,63.0202786 9.36,61.15 C9.40750404,59.9046777 8.91113286,58.7002477 8,57.85 C6.98357402,57.0290406 5.69310783,56.6250997 4.39,56.72 L3.55,56.72 L3.55,65.57 Z" id="Shape" fill="#FFFFFF" fill-rule="nonzero"></path>
                            <polygon id="Shape" fill="#FFFFFF" fill-rule="nonzero" points="19.41 56.73 14.41 56.73 14.41 59.73 19.22 59.73 19.22 61.48 14.46 61.48 14.46 65.61 19.46 65.61 19.46 67.36 12.6 67.36 12.6 55 19.41 55"></polygon>
                            <path d="M29.11,64.32 L23.82,64.32 L22.45,67.32 L20.45,67.32 L26.55,54.2 L32.44,67.32 L30.44,67.32 L29.11,64.32 Z M28.35,62.57 L26.52,58.37 L24.6,62.57 L28.35,62.57 Z" id="Shape" fill="#FFFFFF" fill-rule="nonzero"></path>
                            <path d="M33.33,67.32 L33.33,55 L35.92,55 C36.9133749,54.9676277 37.9056223,55.0925024 38.86,55.37 C39.6545895,55.6037628 40.3861221,56.013968 41,56.57 C42.2380998,57.7834491 42.9290957,59.448481 42.9140052,61.1820098 C42.8989146,62.9155386 42.179037,64.5682888 40.92,65.76 C40.3068488,66.3209038 39.5805083,66.7437499 38.79,67 C37.846476,67.2613136 36.8683799,67.375987 35.89,67.34 L33.33,67.32 Z M35.19,65.57 L36,65.57 C36.7057923,65.5892331 37.4104326,65.5015745 38.09,65.31 C39.8747136,64.7214458 41.0590836,63.0283258 41,61.15 C41.0445689,59.9081192 40.5484424,58.7079309 39.64,57.86 C38.6158227,57.0316963 37.3131949,56.6273091 36,56.73 L35.2,56.73 L35.19,65.57 Z" id="Shape" fill="#FFFFFF" fill-rule="nonzero"></path>
                            <path d="M1.86,75.5 L1.86,80.5 L0,80.5 L0,68.17 L2.11,68.17 C2.89609617,68.1462951 3.68209729,68.2201927 4.45,68.39 C4.98402661,68.5343569 5.47043801,68.8172344 5.86,69.21 C6.56486781,69.8962067 6.94942395,70.8467134 6.92,71.83 C6.96716732,72.853072 6.54791754,73.8423543 5.78,74.52 C4.91866851,75.2201061 3.82854155,75.5763567 2.72,75.52 L1.86,75.5 Z M1.86,73.77 L2.56,73.77 C4.27333333,73.77 5.13,73.1033333 5.13,71.77 C5.13,70.4366667 4.24666667,69.81 2.48,69.89 L1.86,69.89 L1.86,73.77 Z" id="Shape" fill="#FFFFFF" fill-rule="nonzero"></path>
                            <path d="M7.25,74.29 C7.22472325,72.5938058 7.91864443,70.9661791 9.16,69.81 C10.3647587,68.5898032 12.0154545,67.9143543 13.73,67.94 C15.4363988,67.9164127 17.0763568,68.6006336 18.26,69.83 C19.4930465,71.0119236 20.1809811,72.6521045 20.16,74.36 C20.1904273,76.0668071 19.5007413,77.7075337 18.26,78.88 C15.8088827,81.2858243 11.9117385,81.3776762 9.35,79.09 C7.95877783,77.890905 7.18644027,76.125562 7.25,74.29 L7.25,74.29 Z M9.13,74.29 C9.100516,75.516894 9.56251702,76.7047019 10.413246,77.5892347 C11.263975,78.4737675 12.4328886,78.9816787 13.66,79 C14.8916849,79.0266206 16.0792911,78.54144 16.94,77.66 C18.7578603,75.8215585 18.7844428,72.8708947 17,71 C16.152721,70.1170348 14.9733788,69.6307829 13.75,69.66 C12.5103025,69.621593 11.3119721,70.1081878 10.45,71 C9.56815621,71.8713048 9.08974055,73.0709683 9.13,74.31 L9.13,74.29 Z" id="Shape" fill="#FFFFFF" fill-rule="nonzero"></path>
                            <polygon id="Shape" fill="#FFFFFF" fill-rule="nonzero" points="28 69.92 23 69.92 23 72.92 27.81 72.92 27.81 74.67 23 74.67 23 78.8 28 78.8 28 80.55 21.19 80.55 21.19 68.17 28 68.17"></polygon>
                            <polygon id="Shape" fill="#FFFFFF" fill-rule="nonzero" points="33.85 69.92 33.85 80.52 32 80.52 32 69.92 29.15 69.92 29.15 68.17 36.68 68.17 36.68 69.92"></polygon>
                            <path d="M44.35,70 L42.84,70.9 C42.6580624,70.5040578 42.3795308,70.1601917 42.03,69.9 C41.7272871,69.7221317 41.3810126,69.6321003 41.03,69.64 C40.5603817,69.6220802 40.1007855,69.7788417 39.74,70.08 C39.4109814,70.3452253 39.2227829,70.7474535 39.23,71.17 C39.23,71.77 39.6766667,72.2566667 40.57,72.63 L41.8,73.13 C42.6520265,73.4386928 43.4098478,73.9622785 44,74.65 C44.4754481,75.2638858 44.7228838,76.0238666 44.7,76.8 C44.7316537,77.8581631 44.3181227,78.8811082 43.56,79.62 C42.8054992,80.364727 41.779733,80.7692545 40.72,80.74 C39.7406254,80.7616706 38.7909011,80.403284 38.07,79.74 C37.3419453,79.0234916 36.8858726,78.0759916 36.78,77.06 L38.67,76.64 C38.6938631,77.1694832 38.8484637,77.6848187 39.12,78.14 C39.4915961,78.6064798 40.0417418,78.895802 40.636669,78.937618 C41.2315963,78.9794339 41.8168044,78.7699129 42.25,78.36 C42.6394996,77.9679826 42.8494383,77.4322768 42.83,76.88 C42.8329499,76.656014 42.7991689,76.4330589 42.73,76.22 C42.6628028,76.0185235 42.5575664,75.8318139 42.42,75.67 C42.2603253,75.4875954 42.0750681,75.3292847 41.87,75.2 C41.6159739,75.0371406 41.3483048,74.8966143 41.07,74.78 L39.88,74.28 C38.16,73.6 37.3,72.5733333 37.3,71.2 C37.2876223,70.3040026 37.6764199,69.4493814 38.36,68.87 C39.0906698,68.2361511 40.0331617,67.9005669 41,67.93 C42.4216136,67.9191125 43.7237449,68.7237131 44.35,70 L44.35,70 Z" id="Shape" fill="#FFFFFF" fill-rule="nonzero"></path>
                            <polygon id="Shape" fill="#FFFFFF" fill-rule="nonzero" points="13 84.19 12 84.19 12 90.07 11.38 90.07 11.38 84.19 10.38 84.19 10.38 83.62 13 83.62"></polygon>
                            <path d="M16.45,88.37 C16.4850473,88.8417246 16.365711,89.3120499 16.11,89.71 C15.8655994,90.0063233 15.493196,90.1664567 15.11,90.14 C14.7398888,90.1733354 14.3739371,90.0415927 14.11,89.78 C13.8312851,89.3654461 13.7041311,88.8674263 13.75,88.37 L13.75,83.62 L14.36,83.62 L14.36,88.37 C14.3329256,88.6928354 14.3915686,89.0170965 14.53,89.31 C14.6667963,89.4949716 14.8911796,89.5938523 15.12,89.57 C15.3484409,89.5842413 15.5638939,89.4628042 15.67,89.26 C15.7971639,88.9847842 15.8555062,88.682777 15.84,88.38 L15.84,83.62 L16.46,83.62 L16.45,88.37 Z" id="Shape" fill="#FFFFFF" fill-rule="nonzero"></path>
                            <polygon id="Shape" fill="#FFFFFF" fill-rule="nonzero" points="19.4 84.19 18 84.19 18 86.41 19.38 86.41 19.38 87 18 87 18 89.51 19.41 89.51 19.41 90.08 17.41 90.08 17.41 83.62 19.4 83.62"></polygon>
                            <path d="M22.89,88.37 C22.8987632,88.8182925 22.7461593,89.2548105 22.46,89.6 C22.1945499,89.9500121 21.7792683,90.153945 21.34,90.15 C21.1448955,90.1549062 20.9499685,90.1347413 20.76,90.09 C20.6151967,90.0505695 20.4770312,89.9899115 20.35,89.91 L20.23,89.83 L20.23,89.05 L20.31,89.12 C20.4270414,89.2199581 20.5544316,89.3071198 20.69,89.38 C20.8720048,89.4887682 21.0781786,89.5506204 21.29,89.56 C21.549408,89.5693493 21.8004617,89.4674724 21.98,89.28 C22.1730739,89.052102 22.2699042,88.7580249 22.25,88.46 C22.2514449,88.1754158 22.1601768,87.8981011 21.99,87.67 C21.7889545,87.419256 21.5452125,87.2059817 21.27,87.04 L21.13,86.94 C20.8198782,86.7531859 20.5483362,86.5087981 20.33,86.22 C20.129997,85.9252331 20.025282,85.5761832 20.03,85.22 C20.0210992,84.8041337 20.1632054,84.3991311 20.43,84.08 C20.7130899,83.7324033 21.1419147,83.5364747 21.59,83.55 C21.7613117,83.5531096 21.9306701,83.5869813 22.09,83.65 C22.2214778,83.7032159 22.3485406,83.7667473 22.47,83.84 L22.58,83.89 L22.58,84.67 L22.43,84.52 C22.3387444,84.422711 22.2344135,84.3385732 22.12,84.27 C22.0155743,84.2062309 21.9003321,84.1621677 21.78,84.14 L21.56,84.14 C21.3113411,84.1415713 21.0779343,84.2601272 20.93,84.46 C20.7599991,84.6650815 20.6679142,84.9236274 20.67,85.19 C20.6679016,85.4314647 20.7375065,85.6681212 20.87,85.87 C21.1247521,86.1818348 21.4328717,86.4459374 21.78,86.65 L21.87,86.72 C22.165984,86.9028081 22.42126,87.1444694 22.62,87.43 C22.7969985,87.7115329 22.8906132,88.037451 22.89,88.37 L22.89,88.37 Z" id="Shape" fill="#FFFFFF" fill-rule="nonzero"></path>
                            <path d="M26.46,86.68 C26.4721263,87.3019245 26.4353463,87.92384 26.35,88.54 C26.3164841,88.9016541 26.1851178,89.2473546 25.97,89.54 C25.8042423,89.7371446 25.5908108,89.8886121 25.35,89.98 C25.0529266,90.0752012 24.7418204,90.1191619 24.43,90.11 L23.77,90.11 L23.77,83.62 L24.27,83.62 C24.603062,83.6009804 24.936938,83.6009804 25.27,83.62 C25.4330826,83.6521329 25.5868666,83.7204814 25.72,83.82 C26.0152982,84.0423032 26.2239213,84.3605418 26.31,84.72 C26.4507665,85.363199 26.5012516,86.0228711 26.46,86.68 Z M25.83,86.68 L25.83,86.17 C25.892698,85.5927138 25.7775607,85.0100495 25.5,84.5 C25.2590023,84.2485117 24.9170079,84.1198041 24.57,84.15 L24.38,84.15 L24.38,89.45 L24.59,89.45 C24.9360005,89.4802726 25.2729284,89.3288443 25.48,89.05 C25.6665006,88.7483658 25.773181,88.4042355 25.79,88.05 C25.8233333,87.8166667 25.84,87.3766667 25.84,86.73 L25.83,86.68 Z" id="Shape" fill="#FFFFFF" fill-rule="nonzero"></path>
                            <path d="M30.23,90.07 L29.55,90.07 L29.32,88.74 L28,88.74 L27.77,90.07 L27.1,90.07 L28.4,83.62 L28.97,83.62 L30.23,90.07 Z M29.23,88.21 L28.62,84.46 L28.07,88.21 L29.23,88.21 Z" id="Shape" fill="#FFFFFF" fill-rule="nonzero"></path>
                            <polygon id="Shape" fill="#FFFFFF" fill-rule="nonzero" points="33.74 83.62 32.56 87.23 32.56 90.07 31.94 90.07 31.94 87.25 30.7 83.62 31.36 83.62 32.23 86.68 33.08 83.61"></polygon>
                            <path d="M87.18,97.76 C87.83,96.89 87.02,97.02 86.61,96.95 C83.44,96.35 80.26,95.78 77.1,95.09 C76.3613694,94.9258503 75.6744981,94.5824147 75.1,94.09 C74.17,93.33 72.97,92.75 73.1,91.24 C73.0929347,90.4547197 73.0159641,89.6716279 72.87,88.9 C72.7,87.39 72.87,85.83 72.28,84.38 C71.7509631,83.0414558 71.5024958,81.6085145 71.55,80.17 C71.5923277,78.9089629 71.3281053,77.65648 70.78,76.52 C70.39,75.71 69.78,75.02 69.5,74.16 C69.1978224,73.0562794 69.0167548,71.9229302 68.96,70.78 C68.6624714,68.6714283 68.4788715,66.5483455 68.41,64.42 C68.2016235,62.3503053 68.1348014,60.2687982 68.21,58.19 C68.2989982,57.1159982 68.9943959,56.1875063 70,55.8 C70.55,55.63 71.11,55.45 71.65,55.23 C71.9952953,55.113138 72.2774895,54.8596705 72.4306104,54.5288539 C72.5837312,54.1980374 72.5943557,53.8188719 72.46,53.48 C72.32,53.03 72.19,52.58 72.02,52.14 C71.8426429,51.7519764 71.9309927,51.2941638 72.24,51 C73.2400037,50.0098958 73.8384031,48.6848685 73.92,47.28 C74.3462921,43.3227449 74.3730939,39.3326247 74,35.37 C74.0498035,34.6275952 73.9230074,33.8839532 73.63,33.2 C73.2531326,32.4613064 73.0707265,31.6387584 73.1,30.81 C72.8795695,27.4310482 72.479,24.066265 71.9,20.73 C71.8026379,20.2186695 71.5595486,19.7463816 71.2,19.37 C70.3421203,18.5645281 69.3180805,17.9569312 68.2,17.59 C67.12,17.09 65.95,16.67 65.36,15.59 C65.0031092,14.7880004 64.3239075,14.1741764 63.49,13.9 C62.61,13.62 62.55,13.29 62.67,12.34 C62.892762,11.403879 63.3505111,10.5400068 64,9.83 C64.22,9.5 64.45,9.15 64.29,8.77 C63.9834575,7.69475467 63.9834575,6.55524533 64.29,5.48 C64.4659202,4.62703029 64.4488365,3.74551318 64.24,2.9 C63.8487329,1.97874501 62.9939596,1.33766506 62,1.22 C61.19,1 60.33,0.73 59.65,1.54 C59.559878,1.64810136 59.4097053,1.68462984 59.28,1.63 C58.9085103,1.54131663 58.5174324,1.59109017 58.18,1.77 C57.665577,1.97652398 57.189078,2.2671546 56.77,2.63 C55.9062742,3.08025277 55.4391693,4.04289491 55.62,5 C55.9807553,5.97054165 55.6784069,7.06302724 54.87,7.71 C54.1841869,8.3154855 54.0439245,9.33132486 54.54,10.1 C55.1581739,11.0167621 55.6179078,12.0308809 55.9,13.1 C55.9700087,13.2453422 55.9700087,13.4146578 55.9,13.56 C55.6312031,14.1942629 55.4787727,14.8717317 55.45,15.56 C55.3787262,16.5003524 54.7883753,17.3222134 53.92,17.69 C52.82,18.19 51.73,18.69 50.65,19.25 C49.8666265,19.5062085 49.2299172,20.0847044 48.9,20.84 C48.3311729,22.6053651 48.0278598,24.4454644 48,26.3 C48.06,29.61 48.33,32.92 48.24,36.25 C48.1970264,36.9371613 48.1169093,37.6214946 48,38.3 C47.8385146,40.4668477 47.4701711,42.6132856 46.9,44.71 C46.390122,45.7801692 46.3610193,47.0170342 46.82,48.11 C46.87,48.21 46.82,48.37 46.82,48.5 C46.63,49.5 46.44,50.44 46.26,51.41 C46.1164311,52.0348127 46.2675644,52.6909524 46.67,53.19 C47.1427287,53.7918215 47.7352249,54.2889735 48.41,54.65 C49.1272993,54.9846216 49.6221442,55.6645612 49.72,56.45 C49.8240568,57.1754061 49.8775192,57.9071728 49.88,58.64 C49.9888536,59.667124 49.9888536,60.702876 49.88,61.73 C49.75,62.59 49.75,63.47 49.7,64.35 C49.7,64.75 49.89,65.13 49.7,65.55 C49.4380156,66.4068546 49.2900757,67.294494 49.26,68.19 C49.07,70.19 48.92,72.19 48.61,74.14 C48.4774005,75.633221 48.5786181,77.1379885 48.91,78.6 C48.91,78.68 48.97,78.8 49.03,78.83 C49.38,78.98 49.36,79.19 49.17,79.46 C49.0449654,79.61088 48.9839469,79.8047035 49,80 C49.3976383,83.5603455 49.3741428,87.1551563 48.93,90.71 C48.6988775,92.5496645 47.9458732,94.2846973 46.76,95.71 C46.4681905,96.1087163 46.0479561,96.3947582 45.57,96.52 C44.71,96.74 43.84,96.91 42.97,97.06 C42.9841167,97.2230283 42.9841167,97.3869717 42.97,97.55 L42.97,115.2 C43.0236813,116.07898 42.6651267,116.932857 42,117.51 L41.25,117.91 L41.25,120.29 C41.25,122.15 41.11,124.02 41.19,125.88 C41.2970884,128.680554 40.1800997,131.389069 38.13,133.3 C37.89,133.55 37.58,133.74 37.81,134.14 C38.04,134.54 38.36,134.94 38.86,134.84 C39.93169,134.73502 40.9923027,134.537619 42.03,134.25 C42.5934588,134.067596 42.9893529,133.560851 43.03,132.97 C43.15,131.29 43.48,129.63 43.44,127.97 C43.396333,124.557504 43.8065946,121.154351 44.66,117.85 C44.8296191,117.009041 45.243563,116.236809 45.85,115.63 C46.57,114.95 47.2,115.07 47.54,115.99 C47.7884531,116.568334 47.9858713,117.16728 48.13,117.78 C48.24,118.38 48.67,118.87 48.67,119.45 C48.650995,119.984964 48.6811214,120.520542 48.76,121.05 C49.3636418,123.788149 49.8044151,126.559678 50.08,129.35 C50.27,132.24 50.69,135.1 51.08,137.96 C51.141361,138.866611 51.5368792,139.718223 52.19,140.35 C52.9684378,140.969004 53.7066029,141.637026 54.4,142.35 C54.831201,142.855195 55.5755252,142.9504 56.12,142.57 C56.51,142.24 56.53,141.63 56.17,140.96 C55.8925694,140.519531 55.5561084,140.119143 55.17,139.77 C54.6465613,139.305048 54.2856299,138.684807 54.14,138 C54.04,137.33 53.95,136.67 53.89,136 C53.4183758,131.653665 53.2679677,127.278463 53.44,122.91 L53.44,114.74 C53.4452598,114.199501 53.5191853,113.661861 53.66,113.14 C53.77,112.71 54.02,112.53 54.46,112.7 C54.9973261,112.866981 55.5726739,112.866981 56.11,112.7 C57.42,112.42 58.74,112.14 60.02,111.7 C62.0721692,111.217787 64.0981787,110.630345 66.09,109.94 C66.7179492,109.696119 67.3674887,109.511971 68.03,109.39 C68.83,109.21 68.97,109.39 69.03,110.15 C69.21,111.9 69.09,113.65 69.11,115.4 C69.11,118.47 69.11,121.55 68.93,124.62 C68.86,125.69 68.76,126.62 67.61,127.08 C67.5310158,127.120336 67.4625335,127.178546 67.41,127.25 C67.103875,127.566725 67.0207752,128.037625 67.2,128.44 C67.37,128.84 67.75,128.74 68.08,128.72 L69.02,128.65 C69.362126,128.646126 69.681768,128.478871 69.88,128.2 C70.3254597,127.618601 70.6053452,126.927525 70.69,126.2 C70.85,123.67 71.52,121.2 71.69,118.66 C71.7513944,117.899139 71.8683733,117.14379 72.04,116.4 C72.2358361,115.111672 72.6990972,113.87858 73.4,112.78 C73.84,112.16 74.33,111.53 75.16,111.61 C75.99,111.69 76.45,112.43 76.73,113.13 C77.5589189,115.165109 78.1007759,117.305613 78.34,119.49 C78.55,121.81 78.81,124.13 78.8,126.49 C78.8,128.33 78.8,130.17 78.87,132.01 C78.8446576,132.602767 79.0407013,133.183769 79.42,133.64 C80.0016285,134.262096 80.6158235,134.852925 81.26,135.41 C81.7365094,135.780324 82.4034906,135.780324 82.88,135.41 C83.33,134.92 83.01,134.49 82.75,134.02 C81.91,132.47 80.92,131.02 81.07,129.02 C81.17,127.64 81.07,126.24 81.07,124.85 C81.12,120.36 81.23,115.85 81.24,111.39 C81.24,109.66 81.42,107.94 81.42,106.21 C81.42,105.89 81.48,105.53 81.82,105.41 C82.56,105.15 83.23,104.71 83.97,104.49 C84.3967292,104.373285 84.7576869,104.088128 84.97,103.7 C85.5222226,102.643248 85.8201275,101.472174 85.84,100.28 C85.7983046,99.5803052 86.2467407,98.9450209 86.92,98.75 C87.27,98.64 87.45,98.42 87.27,98.03 C87.19,98 87.13,97.82 87.18,97.76 Z M65.8,93.45 C64.41,93.67 63.02,93.95 61.61,94.05 C60.38,94.15 59.18,94.5 57.99,94.52 C56.8,94.54 56.89,94.62 56.77,93.67 C56.4211951,91.8438678 56.2437574,89.9891422 56.24,88.13 C56.2336904,86.0257828 56.3405112,83.922748 56.56,81.83 C56.9091858,79.2392831 56.8416659,76.6093856 56.36,74.04 C56.2503806,72.4541107 56.3478679,70.8606978 56.65,69.3 C56.92,66.9 57.3,64.5 57.65,62.11 C57.6479177,61.3325192 58.0491387,60.6095644 58.71,60.2 C59.2,59.95 59.49,60.02 59.71,60.57 C60.2079928,62.1258493 60.6186332,63.7083174 60.94,65.31 C61.43,67.61 61.85,69.93 62.23,72.25 C62.51,73.95 62.69,75.67 62.89,77.38 C62.9758319,79.2645644 63.4996869,81.1031928 64.42,82.75 C64.8286436,83.4351491 64.9710148,84.2466652 64.82,85.03 C64.755593,85.6921432 64.8166606,86.3604935 65,87 C65.39,88.84 65.84,90.66 66.4,92.46 C66.53,93 66.42,93.35 65.8,93.45 Z" id="Shape" fill="#FFFFFF" fill-rule="nonzero"></path>
                            <g id="_Group_" transform="translate(0.000000, 1.000000)">
                                <g id="_Group_2" transform="translate(24.000000, 98.000000)" fill-rule="nonzero" fill="#FFFFFF">
                                    <path d="M2.32,0.71 L1.86,0.63 L1.4,0.55 L0.94,0.47 C0.81,0.47 0.71,0.82 0.71,1.29 L0.71,6.46 C0.71,6.93 0.81,7.32 0.94,7.32 L2.32,7.32 C2.45,7.32 2.55,6.95 2.55,6.5 L2.55,1.57 C2.55,1.12 2.45,0.73 2.32,0.71 Z" id="_Path_"></path>
                                </g>
                                <g id="_Group_3" transform="translate(16.000000, 98.000000)" fill-rule="nonzero" fill="#FFFFFF">
                                    <path d="M0.64,5.92 L2,5.92 C2.13,5.92 2.23,5.61 2.23,5.23 L2.23,1.12 C2.23,0.74 2.13,0.45 2,0.47 L1.54,0.55 L1.08,0.63 L0.62,0.71 C0.49,0.71 0.39,1.04 0.39,1.4 L0.39,5.27 C0.41,5.63 0.51,5.92 0.64,5.92 Z" id="_Path_2"></path>
                                </g>
                                <path d="M18,105.88 L16.64,105.88 C16.51,105.88 16.41,106.3 16.41,106.82 L16.41,112.49 C16.41,113.01 16.51,113.49 16.64,113.49 L17.1,113.68 L17.56,113.87 L18.02,114.06 C18.15,114.11 18.25,113.69 18.25,113.12 L18.25,106.88 C18.24,106.35 18.13,105.88 18,105.88 Z" id="_Path_3" fill="#FFFFFF" fill-rule="nonzero"></path>
                                <g id="_Group_4" transform="translate(16.000000, 105.000000)"></g>
                                <g id="_Group_5"></g>
                                <g id="_Group_6" transform="translate(32.000000, 101.000000)" fill-rule="nonzero" fill="#FFFFFF">
                                    <path d="M2.56,0.4 L2.05,0.27 L1.54,0.14 L1,0 C0.86,0 0.75,0.49 0.75,1.17 L0.75,8.59 C0.75,9.27 0.86,9.78 1,9.73 L1.51,9.53 L2.02,9.33 L2.53,9.13 C2.67,9.08 2.78,8.55 2.78,7.96 L2.78,1.53 C2.81,0.95 2.7,0.44 2.56,0.4 Z" id="_Path_5"></path>
                                </g>
                                <g id="_Group_7" transform="translate(4.000000, 93.000000)" fill-rule="nonzero" fill="#FFFFFF">
                                    <path d="M33.93,4.65 C33.43,4.48 31.46,3.87 30.85,3.65 L27.72,2.75 L24.85,2 L24.27,1.83 L23.59,1.62 L22.91,1.44 L22.68,1.38 L22.11,1.26 L21.89,1.26 L20.89,1.13 C20.48,1.13 19.98,1.03 19.42,1 C18.86,0.97 18.22,0.87 17.54,0.87 L17.3,0.87 C16.62,0.87 15.99,0.97 15.42,1 C14.85,1.03 14.4,1 14,1.09 L13,1.22 L12.66,1.28 L12.43,1.28 L11.54,1.51 L11.32,1.58 C11.1,1.65 9.53,2.11 8.85,2.29 L7.4,2.69 L5,3.42 L3,4 C1.93,4.33 0.91,4.65 0.12,4.94 L0.12,19 C0.12,19.69 0.27,20.33 0.46,20.42 L3,21.67 L5.09,22.61 L7.39,23.61 C7.39,23.61 9.93,24.61 11.87,25.33 C13.6921797,25.9824667 15.5607617,26.497246 17.46,26.87 C19.3758836,26.4897362 21.261024,25.9683144 23.1,25.31 C25.1,24.63 27.01,23.85 28.75,23.11 C30.49,22.37 32,21.66 32,21.66 L34,20.66 C34.5532776,20.2812388 34.8799461,19.6504306 34.87,18.98 L34.87,6.21 C34.8901745,5.55053269 34.5224745,4.94030702 33.93,4.65 L33.93,4.65 Z M8.14,21.8 L8.14,21.8 L7.92,21.69 L7.49,21.48 L7,21.3 L6.57,21.09 C6.31435156,20.7146855 6.14371283,20.2880887 6.07,19.84 L5.5,17.56 L4.93,15.28 L4.38,13 C4.22,12.37 4.1,12.32 4.11,12.88 L4.11,14.88 L4.11,16.88 L4.11,18.88 L4.11,19.88 L4.11,19.88 L3.86,19.78 L3.36,19.58 L2.86,19.38 L2.36,19.18 L2.1,19.08 L2.1,19.08 L2.1,17.82 L2.1,7.81 L2.1,6.55 L2.1,6.55 L2.34,6.5 L2.81,6.39 L3.28,6.28 L3.75,6.17 C3.88,6.17 4.11,6.51 4.26,6.99 L4.82,8.75 L5.38,10.51 L5.94,12.27 C6.09,12.75 6.21,12.71 6.2,12.18 L6.2,10.25 L6.2,8.32 L6.2,6.39 L6.2,5.39 L6.2,5.39 L6.43,5.34 L6.89,5.23 L7.35,5.12 L7.81,5.01 L8.05,4.96 L8.05,4.96 L8.05,6.22 L8.05,20.54 L8.05,21.79 L8.05,21.79 L8.14,21.8 Z M16.2,6.8 L16.2,11 L16.2,11 L16.11,11.11 L15.94,11.32 L15.77,11.53 L15.6,11.74 C15.5549359,11.8027472 15.5549359,11.8872528 15.6,11.95 L15.77,12.17 L15.94,12.39 L16.11,12.61 L16.2,12.72 L16.2,12.72 L16.2,13.97 L16.2,21.45 C16.2338027,21.9152849 16.1829811,22.3828438 16.05,22.83 L15.74,23.1 L15.43,23.37 L15.12,23.64 C14.8913003,23.7268449 14.6386997,23.7268449 14.41,23.64 L13.29,23.28 L12.17,22.92 L11.05,22.56 L10.49,22.38 L10.49,22.38 L10.49,21.12 L10.49,5.12 L10.49,3.86 L10.49,3.86 L11.05,3.77 L12.17,3.59 L13.29,3.41 L14.41,3.23 C14.6412488,3.15838331 14.8887512,3.15838331 15.12,3.23 L15.43,3.5 L15.74,3.77 L16.05,4.04 C16.1780502,4.35687025 16.2294454,4.69950541 16.2,5.04 L16.2,6.8 Z M19.34,24.35 C19,24.48 18.48,24.65 18.34,24.35 C18.2,24.05 18.34,23.87 18.48,23.59 C18.5894719,23.4260153 18.7132917,23.2720772 18.85,23.13 C18.79,23.31 18.66,23.6 18.85,23.8 C19.04,24 19.18,23.88 19.51,23.8 L22.45,23 L19.34,24.35 Z M26.34,22.05 L26.34,22.05 L26.11,22.13 L25.67,22.3 L25.23,22.47 L24.79,22.64 C24.67,22.64 24.38,22.28 24.15,21.74 L23.31,19.74 L22.47,17.74 L21.63,15.74 C21.5024288,15.3920493 21.3416888,15.0571743 21.15,14.74 L20.79,14.74 C20.7311673,15.1236779 20.7110662,15.5122997 20.73,15.9 L20.73,18.51 L20.73,18.51 L20.73,20.27 L20.73,21.44 L20.73,21.44 L20.46,21.49 L19.92,21.6 L19.38,21.71 L18.84,21.82 L18.56,21.87 L18.56,21.87 L18.56,21.73 L18.56,21.3 L18.56,21.05 L18.56,21.49 L18.56,19.9 L18.56,18.44 L18.56,6.31 L18.56,4.31 L18.56,3.57 L18.56,3.25 L18.56,3.17 L18.56,3.17 L19.16,3.26 L20.35,3.44 L21.54,3.62 L22.73,3.8 L23.33,3.89 L23.33,3.89 L23.48,4.02 L23.78,4.29 L24.08,4.56 L24.38,4.83 L24.53,4.97 L24.53,4.97 L24.53,6.05 L24.53,12.52 L24.53,13.6 L24.53,13.6 L24.37,13.75 L24,14 L23.69,14.29 L23.38,14.58 C23.29,14.66 23.38,15.13 23.61,15.63 L24.39,17.44 L25.17,19.25 L25.95,21.06 L26.34,21.96 L26.34,21.96 L26.34,22.05 Z M32.76,8.99 L32.76,16.71 L32.76,18.05 L32.69,18.23 L32.62,18.41 L32.55,18.59 C32.3727984,18.7267657 32.1731556,18.8316627 31.96,18.9 L30.84,19.34 L29.72,19.78 L28.6,20.22 C28.29,20.34 27.97,20.38 27.89,20.3 L27.59,20.03 L27.29,19.76 L26.99,19.49 C26.8566825,19.0394842 26.8058661,18.5685861 26.84,18.1 L26.84,7.87 C26.8105303,7.40413711 26.8647188,6.93676134 27,6.49 L27.3,6.22 L27.6,5.95 L27.9,5.68 L28.05,5.54 L28.05,5.54 L28.58,5.69 L29.64,5.99 L30.7,6.29 L31.76,6.59 C31.972536,6.6349162 32.1734384,6.72344945 32.35,6.85 L32.47,7.06 L32.59,7.27 L32.71,7.48 L32.77,7.59 L32.77,7.59 L32.77,8.85 L32.76,8.99 Z" id="_Compound_Path_"></path>
                                </g>
                            </g>
                            <g id="_Group_8" transform="translate(1.000000, 92.000000)" fill-rule="nonzero" fill="#FFFFFF">
                                <path d="M20.46,31.08 L20.38,31.08 C18.2639457,30.6520183 16.1843515,30.0602367 14.16,29.31 C12.03,28.55 9.23,27.31 9.16,27.31 C8.46,27.01 7.32,26.51 6.62,26.19 L4.32,25.13 L1.47,23.73 C0.91,23.44 0.86,22.12 0.86,21.73 L0.86,5.73 C0.861524098,5.54617073 0.977174561,5.3826649 1.15,5.32 C1.95,5.02 3.02,4.66 4.34,4.25 C5.66,3.84 6.59,3.56 6.59,3.56 L9.24,2.79 L10.83,2.34 C11.58,2.13 13.31,1.61 13.53,1.54 L13.78,1.46 L14.78,1.19 L15.05,1.14 L15.05,1.14 L15.44,1.07 L16.59,1 C17.12,0.94 17.68,0.88 18.23,0.85 L18.89,0.79 C19.32,0.79 19.82,0.7 20.33,0.7 L20.59,0.7 C21.12,0.7 21.59,0.75 22.04,0.79 L22.7,0.85 C23.26,0.85 23.81,0.94 24.34,1 L25.42,1.15 L25.67,1.15 L26.32,1.29 L26.58,1.36 L27.34,1.57 L28.1,1.81 L28.1,1.81 L28.72,2 L31.87,2.91 L35.32,3.91 C35.95,4.1 38.16,4.8 38.72,5 C39.5430642,5.4168692 40.0443497,6.27845368 40,7.2 L40,21.74 C40.0152143,22.6576749 39.5632169,23.5202367 38.8,24.03 L36.59,25.12 C36.59,25.12 34.94,25.92 33.04,26.75 C30.81,27.75 28.71,28.58 26.8,29.26 C24.7586907,30.0156417 22.6625779,30.6140535 20.53,31.05 L20.46,31.08 Z M2,23 L4.76,24.36 L7,25.42 C7.69,25.74 8.82,26.24 9.52,26.53 C9.52,26.53 12.32,27.72 14.42,28.48 C16.3736552,29.2041502 18.379404,29.7791315 20.42,30.2 C22.4805349,29.7718119 24.5061789,29.1901914 26.48,28.46 C28.37,27.78 30.48,26.95 32.66,25.97 C34.54,25.14 36.16,24.36 36.18,24.35 L38.38,23.27 C38.8430546,22.9070565 39.1094975,22.3482664 39.1,21.76 L39.1,7.2 C39.1247176,6.65723389 38.857844,6.14254897 38.4,5.85 C37.87,5.67 35.73,4.98 35.03,4.77 L31.6,3.77 L28.44,2.85 L27.79,2.65 L27.79,2.65 L27.06,2.42 L26.33,2.22 L26.08,2.16 L25.5,2 L25.27,2 L24.27,1.85 C23.75,1.79 23.21,1.74 22.67,1.7 L21.98,1.64 C21.55,1.64 21.1,1.55 20.63,1.55 L20.38,1.55 C19.9221134,1.55701697 19.4648694,1.5870549 19.01,1.64 L18.32,1.7 C17.78,1.7 17.24,1.79 16.72,1.85 L15.72,2 L15.36,2.07 L15.11,2.07 L14.16,2.33 L13.92,2.4 C13.69,2.47 11.92,3 11.19,3.21 L9.6,3.66 L6.95,4.43 C6.95,4.43 5.89,4.74 4.71,5.11 C3.53,5.48 2.6,5.79 1.85,6.11 L1.85,21.77 C1.82284328,22.1857671 1.87371863,22.6029449 2,23 L2,23 Z" id="_Compound_Path_2"></path>
                            </g>
                        </g>
                    </g>
                </g>
            </g>
        </g>
    </g>
</svg>