<?xml version="1.0" encoding="UTF-8"?>
<svg width="344px" height="100px" viewBox="0 0 344 100" version="1.1" xmlns="http://www.w3.org/2000/svg" xmlns:xlink="http://www.w3.org/1999/xlink">
    <!-- Generator: Sketch 48.1 (47250) - http://www.bohemiancoding.com/sketch -->
    <title>sticker_nbro_white</title>
    <desc>Created with Sketch.</desc>
    <defs>
        <polygon id="path-1" points="0.250815574 0.793260417 94.6302008 0.793260417 94.6302008 76.3621833 0.250815574 76.3621833"></polygon>
        <polygon id="path-3" points="0 0.494759048 47.84216 0.494759048 47.84216 82.482159 0 82.482159"></polygon>
    </defs>
    <g id="stickers-black" stroke="none" stroke-width="1" fill="none" fill-rule="evenodd" transform="translate(-33.000000, -12.000000)">
        <g id="sticker_nbro_white" transform="translate(33.000000, 12.000000)">
            <path d="M58.5717113,19.6844166 C59.4812872,19.9340399 60.2248479,20.4043911 60.7984964,21.096273 C61.850705,22.5787623 62.5911481,24.3100722 63.0182668,26.2853869 C63.2778116,27.4853444 63.4305767,28.6853019 63.5319005,29.8836541 L63.4360326,80.102879 C71.2527731,81.883953 80.5200027,80.8637885 92.9984169,78.3563187 C92.9586668,77.3875236 92.9150197,76.424347 92.9165785,75.3776951 L92.9999758,31.8260602 C93.002314,30.641353 92.8355195,29.4815279 92.5027098,28.3441768 C92.1675619,27.2100364 91.7622667,26.0975674 91.2860449,25.0091779 C89.9477915,22.042594 88.0351101,19.7205357 85.5456626,18.0349767 C83.0546562,16.3526282 80.1793989,15.2602255 76.92067,14.758571 C73.6611617,14.2585218 70.5933891,14.0056879 67.7165729,14.0000694 C64.8397568,13.9936482 62.1281763,14.4326962 59.5872875,15.3172134 C57.043281,16.1993226 54.6200836,17.6272319 52.3145777,19.5985334 C50.8742211,20.682107 49.7214682,21.7656807 48.8563189,22.8492544 C48.534421,23.2537885 48.2249937,23.741798 47.9163459,24.2273995 C43.8283207,36.4196099 37.7909818,53.4734541 46.3255624,67.6811115 L46.3770037,40.7683522 C46.379342,39.583645 46.4759893,38.1019584 46.673181,36.3248975 C46.867255,34.5478367 47.1829176,32.7474991 47.6178304,30.9198716 C48.0527433,29.0954546 48.5593622,27.3922373 49.1376872,25.8126277 C49.7167917,24.235426 50.4377494,23.0009547 51.3028987,22.1140296 C51.9739739,21.3258301 52.6941522,20.6604356 53.464213,20.1178461 C54.2319356,19.5776645 55.0479818,19.3063698 55.9115722,19.3079751 C56.7743832,19.3095804 57.6597973,19.4363986 58.5717113,19.6844166" id="Fill-1" fill="#FFFFFF"></path>
            <g id="Group-5" transform="translate(92.000000, 0.000000)">
                <mask id="mask-2" fill="white">
                    <use xlink:href="#path-1"></use>
                </mask>
                <g id="Clip-4"></g>
                <path d="M10.9328648,56.3221313 C10.9180697,64.0213292 12.3181516,70.5879854 15.1354467,76.0212979 C15.1992992,76.1424125 15.2717172,76.2418708 15.3355697,76.3621833 L40.7504057,69.3415479 C40.724709,68.716725 40.6787664,68.1296 40.6624139,67.4855271 C40.5720861,63.9322979 40.532373,60.2306833 40.5393811,56.3822875 C40.547168,52.5322875 40.6008975,48.831475 40.7044631,45.2790479 C40.8064713,41.7266208 41.0525369,38.4469021 41.4418811,35.4366833 C41.829668,32.4272667 42.3615123,29.7900167 43.0381926,27.5193188 C43.7117582,25.2510271 44.5776598,23.5249438 45.6351189,22.343475 C47.6503648,19.9781313 49.2349959,18.6009542 50.3851189,18.2071313 C51.5360205,17.8165167 52.3988074,17.6192042 52.9734795,17.6208083 C53.5489303,17.6216104 54.3852418,17.8221313 55.4878648,18.2175583 C56.5881516,18.6153917 58.1899139,19.9997875 60.294709,22.37235 C61.3451598,23.5586313 62.204832,25.288725 62.872168,27.560225 C63.5363893,29.8325271 64.03475,32.4721833 64.3656926,35.4832042 C64.6950779,38.494225 64.9279057,41.7747458 65.0657336,45.3287771 C65.2027828,48.8820063 65.2666352,52.5828188 65.259627,56.4320167 C65.2557336,58.5695688 65.2020041,60.5507146 65.1685205,62.5968292 L94.6302008,54.4588917 C94.4082746,47.657225 93.0782746,41.7611104 90.5210615,36.8676 C87.7037664,31.4840167 84.2868811,27.45435 80.2680697,24.7810063 C77.2039303,22.7028083 74.5976598,21.1194958 72.4430287,20.0286625 C70.2899549,18.9394333 68.2793811,18.1205063 66.4113074,17.5726833 C64.5440123,17.0288708 62.6759385,16.703225 60.8078648,16.6005583 C58.939791,16.4994958 56.7127418,16.44335 54.1259385,16.4385375 L51.8256926,16.4345271 C49.2388893,16.4289125 47.0110615,16.4754333 45.142209,16.568475 C43.2741352,16.664725 41.4052828,16.9815479 39.5356516,17.5189438 C38.8706516,17.7114438 38.1581516,17.9793396 37.4503238,18.2400167 L37.4830287,0.7931 C35.4701189,1.38102708 32.9541762,1.87029792 29.9352008,2.25850625 C26.9162254,2.64751667 24.0163893,2.93706875 21.2380287,3.12876667 C17.9792172,3.41831875 14.577127,3.65894375 11.0325369,3.84823542 L0.253151639,3.82657917 L0.250815574,5.01045417 L11.0302008,5.0329125 L10.9328648,56.3221313 Z" id="Fill-3" fill="#FFFFFF" mask="url(#mask-2)"></path>
            </g>
            <path d="M224.044185,64.2515126 L217.581695,67.0879643 L217.603991,55.5937199 C217.609565,52.8750504 217.646193,50.3475752 217.713079,48 L188.798295,55.8567129 L188.750519,80.4747898 L195.213009,77.6399516 L195.172399,98.7285985 L184.002389,98.7068168 L184,99.8983524 L234.997611,100 L235,98.8084644 L223.977299,98.7866828 L224.044185,64.2515126 Z" id="Fill-6" fill="#FFFFFF"></path>
            <path d="M91.2660118,91.7589911 C90.2003929,88.9918262 89.6007859,85.3766464 89.4168959,81 C76.8361493,83.4805231 67.4915521,84.4905184 59.6102161,82.7285848 L59.5834971,96.7517982 L58.0023576,96.7486221 L58,97.9213919 L85.2345776,97.9745913 L87.5654224,97.9793554 L97.9976424,98 L98,96.8280243 C94.8094303,96.8216721 92.5650295,95.1319944 91.2660118,91.7589911" id="Fill-8" fill="#FFFFFF"></path>
            <path d="M151.844763,65.9589595 C151.816955,67.5615768 151.815366,69.2434227 151.77008,70.7879912 C151.665206,74.263074 151.439568,77.4730151 151.090783,80.4154612 C150.741203,83.3602605 150.274038,85.965396 149.682136,88.2316521 C149.091823,90.4986926 148.355323,92.2597673 147.472634,93.510954 C145.413293,96.4039801 143.063959,97.8457865 140.424633,97.8410799 L139.251952,97.839511 C138.468576,97.8379421 137.368989,97.4512116 135.954781,96.6738285 C134.538984,95.9003677 133.147021,94.7864585 131.782866,93.3360232 C130.707909,92.0809143 129.830782,90.341804 129.153869,88.1186923 C128.472189,85.8979339 127.93908,83.3155472 127.555337,80.369179 C127.239126,77.9585854 127.048447,75.3236411 126.930861,72.5553414 L101,79.4215718 C103.833184,84.5565362 107.248735,88.3744207 111.256983,90.8352187 C114.380953,92.8684951 117.09099,94.4185547 119.386297,95.4838284 C121.680016,96.5522399 123.855355,97.3523718 125.907546,97.8857931 C127.960531,98.4192144 129.986504,98.7369139 131.991025,98.8388915 C133.993163,98.9369468 136.317073,98.9910734 138.956399,98.9965645 L140.423044,98.9997023 C142.032699,99.0028401 143.459619,98.9808757 144.796761,98.947929 L171.34177,87.5946843 C173.676802,85.3550993 175.793348,82.6119018 177.634997,79.2364432 C180.529357,73.9343924 181.984879,67.5168635 181.999975,59.9877788 C182.001564,59.2990377 181.927675,58.66913 181.904635,58 L151.844763,65.9589595 Z" id="Fill-10" fill="#FFFFFF"></path>
            <g id="Group-14" transform="translate(0.000000, 17.000000)">
                <mask id="mask-4" fill="white">
                    <use xlink:href="#path-3"></use>
                </mask>
                <g id="Clip-13"></g>
                <path d="M41.84696,15.3233019 C43.78536,13.1763686 45.76456,10.9907019 47.82616,8.67776857 L47.84216,0.494759048 C45.77336,1.07496857 42.99096,1.55715905 39.49736,1.9373781 C36.00136,2.32154952 32.28456,2.62983524 28.34856,2.86460667 C24.41016,3.10095905 20.47176,3.26458762 16.53576,3.35154 C12.59736,3.44323524 9.25016,3.48354952 6.49576,3.47880667 L6.49336,4.64554952 L17.71416,4.66768286 L17.64376,40.4240829 C16.46296,42.1362543 15.29176,43.8974352 14.13496,45.7653305 C13.09656,47.442721 12.10296,49.1248543 11.13576,50.8085686 L11.07576,81.2561305 L0.00216,81.2347876 L-0.00024,82.4015305 L41.19256,82.482159 L41.19496,81.3146257 L41.24696,55.1553971 C33.18376,42.2761686 37.79096,27.0326257 41.84696,15.3233019" id="Fill-12" fill="#FFFFFF" mask="url(#mask-4)"></path>
            </g>
            <path d="M319.302914,23.1435294 C318.943382,22.8950583 318.612296,22.6773504 318.283581,22.4627976 L344,11 L314.614774,18.867461 C315.159998,19.1498503 315.759745,19.4882442 316.361862,19.8297933 L297.418869,24.8836155 C298.049433,25.9027412 298.624684,27.0717383 299.079038,28.5720301 C299.285275,29.2527619 299.444892,30.0328821 299.618731,30.7814504 L302.253193,29.6069318 C302.54872,31.0788269 302.816591,32.613037 303.002283,34.3334032 C303.3389,37.4814919 303.577535,40.9111812 303.718187,44.6256261 C303.858839,48.340071 303.923634,52.2106978 303.915732,56.2335623 C303.90783,60.2580045 303.849357,64.1270536 303.746633,67.8422874 C303.639959,71.5567323 303.412387,74.9879991 303.062337,78.1329326 C302.710707,81.2810214 302.24213,84.0654747 301.647124,86.4878702 C301.053699,88.9126321 300.3133,90.7954904 299.426717,92.1325013 C297.358025,95.2245854 294.996967,96.7674723 292.345911,96.7619507 L291.166962,96.7595843 C290.379943,96.7580067 289.276061,96.3454659 287.855317,95.5148627 C286.432202,94.6874147 285.034373,93.49712 283.66341,91.9479228 C282.584814,90.6046016 281.703763,88.7469847 281.023417,86.3695506 C280.338331,83.9960605 279.804169,81.2360599 279.418561,78.0863936 C279.031373,74.9398825 278.791948,71.5078269 278.702658,67.7925931 C278.610207,64.0781482 278.569908,60.2083103 278.577019,56.1846569 C278.585711,52.1610036 278.641814,48.2911656 278.747698,44.5775095 C278.803801,42.5818531 278.910475,40.68243 279.051918,38.8508435 L274.645082,40.8567542 C274.755707,39.5804807 274.874234,38.3199831 275.033851,37.1320549 C275.351503,34.7412112 275.790843,32.6524769 276.30051,30.7357002 L226,44.2012533 C226.038719,47.8802024 226.674024,50.7238155 227.935152,52.6910751 C229.24369,54.7316929 231.598428,55.7555514 235.002525,55.7626505 C236.461197,55.7642281 238.040768,55.4289894 239.743607,54.7522016 C241.445655,54.0777802 243.004681,53.0365682 244.417523,51.630932 C244.430956,51.6175224 244.441229,51.5985913 244.454662,51.5859706 C244.343246,52.5285829 244.335344,53.5548078 244.26976,54.5337049 L250.776895,51.7208549 L248.428479,52.788886 C248.358153,53.8971457 248.232514,54.9596552 248.230143,56.1254971 C248.21434,64.1743814 249.648517,71.0400703 252.535836,76.7186197 C255.419994,82.4003243 258.924444,86.585681 263.043654,89.2762675 C266.18146,91.4486143 268.903631,93.1058768 271.210958,94.2441108 C273.515124,95.3862888 275.699182,96.2405559 277.761553,96.8116449 C279.823134,97.3803675 281.858638,97.7211278 283.872808,97.829193 C285.884607,97.934103 288.2188,97.992474 290.870645,97.9972068 L292.342751,97.9995732 C294.994596,98.0050947 297.278217,97.9569781 299.193614,97.8591673 C301.109011,97.7589901 303.024409,97.4261178 304.940596,96.8644943 C306.858364,96.3012933 308.921524,95.4549141 311.133239,94.3222017 C313.345744,93.1926444 316.024455,91.5464251 319.172534,89.3859102 C323.302806,86.7118885 326.82148,82.5399413 329.730133,76.8692799 C332.637207,71.2025625 334.100621,64.3416064 334.116424,56.2927221 C334.132228,48.2454154 332.69568,41.4081232 329.810732,35.7784793 C326.924203,30.1496241 323.422124,25.9366595 319.302914,23.1435294" id="Fill-15" fill="#FFFFFF"></path>
            <path d="M195.05187,53 L223.818737,45.1475533 C223.884489,42.8655216 223.978759,40.7544408 224.102341,38.821568 C224.352674,34.9034084 225.015739,32.2004507 226.092327,30.7135015 L227.412119,28.7822415 C228.584563,27.0977312 230.144389,26.257492 232.095558,26.2615239 C233.459713,26.263943 234.140206,27.604939 234.13466,30.2837054 C234.133868,30.7812367 233.93582,31.4505252 233.546062,32.2915707 C233.153134,33.1350354 232.71426,34.1010686 232.224685,35.191283 C231.733526,36.2831102 231.317626,37.4958931 230.974607,38.8352763 C230.630003,40.1738532 230.457305,41.538234 230.454136,42.9268059 C230.454136,43.0711464 230.46998,43.1904894 230.471565,43.3316044 L280.900128,29.5652283 C281.021333,29.1007583 281.121942,28.5830677 281.253446,28.1460143 C281.938692,25.8655954 282.819609,24.1294773 283.895406,22.9408856 C285.946391,20.5637021 287.557709,19.179162 288.728569,18.7832336 C289.898637,18.3905306 290.776385,18.1921632 291.361023,18.1937759 C291.946453,18.1945823 292.797267,18.3961752 293.919803,18.7937164 C295.038378,19.1936767 296.667917,20.5854741 298.809212,22.9707213 C299.160153,23.3626179 299.458017,23.905306 299.766972,24.4149329 L312,21.075748 C311.736992,20.9370521 311.419323,20.7402975 311.168991,20.6145035 C308.977788,19.5186445 306.932348,18.6961454 305.03188,18.1453936 C303.132203,17.5986737 301.232527,17.2712868 299.332058,17.1664585 C297.430798,17.065662 295.165129,17.0100224 292.533467,17.0043778 L290.193332,17.0003459 C287.56167,16.9955077 285.296001,17.0414709 283.394741,17.13501 C281.49348,17.232581 279.592219,17.5510977 277.690166,18.0913667 C275.788906,18.6340548 273.714155,19.4492965 271.471459,20.5354791 C269.225595,21.6240807 266.543233,23.2045691 263.420413,25.2817824 C259.698695,27.7065418 256.5022,31.3166675 253.782605,35.9928164 C253.611492,33.4333929 253.072801,31.2779616 252.121379,29.5749048 C250.955272,27.4896278 249.544378,25.9010757 247.890281,24.803604 C246.233016,23.7101641 244.479895,22.9884615 242.630919,22.6360771 C240.778774,22.2853055 239.218156,22.1070973 237.952233,22.1054846 C236.293383,22.1022591 234.661468,22.4473861 233.052526,23.1376402 C231.442792,23.8295071 229.562128,25.2140471 227.415288,27.2928731 L226.829066,27.7387966 C226.04638,28.6306436 225.411042,29.573292 224.923052,30.5635164 C224.431893,31.5545471 224.041343,32.5471905 223.747439,33.5366085 L223.779127,17.1656521 C221.730519,17.7567225 219.048157,18.2494156 215.733625,18.6380867 C212.418302,19.0291769 208.860568,19.3452746 205.058839,19.5847669 C201.25711,19.8250657 197.477562,19.9919846 193.725741,20.0822982 C189.972335,20.175031 186.730686,20.2169623 184.002377,20.2113177 L184,21.4015222 L195.112869,21.4249069 L195.05187,53 Z" id="Fill-17" fill="#FFFFFF"></path>
        </g>
    </g>
</svg>