<?xml version="1.0" encoding="UTF-8"?>
<svg width="128px" height="119px" viewBox="0 0 128 119" version="1.1" xmlns="http://www.w3.org/2000/svg" xmlns:xlink="http://www.w3.org/1999/xlink">
    <!-- Generator: Sketch 48.1 (47250) - http://www.bohemiancoding.com/sketch -->
    <title>sticker_mellow_white</title>
    <desc>Created with Sketch.</desc>
    <defs>
        <polygon id="path-1" points="0.733524088 0.0775474453 106.44942 0.0775474453 106.44942 92.1880638 0.733524088 92.1880638"></polygon>
        <polygon id="path-3" points="0.0497051095 0.767252555 15.1041869 0.767252555 15.1041869 21.4890511 0.0497051095 21.4890511"></polygon>
        <polygon id="path-5" points="0.855077372 0.00411094891 25.8989781 0.00411094891 25.8989781 20.3832058 0.855077372 20.3832058"></polygon>
    </defs>
    <g id="stickers-black" stroke="none" stroke-width="1" fill="none" fill-rule="evenodd" transform="translate(-551.000000, -176.000000)">
        <g id="sticker_mellow_white" transform="translate(551.000000, 176.000000)">
            <g id="Group-3" transform="translate(10.277372, 0.856759)">
                <mask id="mask-2" fill="white">
                    <use xlink:href="#path-1"></use>
                </mask>
                <g id="Clip-2"></g>
                <path d="M62.2267796,13.5812672 C62.036181,13.2757489 62.2333197,13.0477781 62.408035,12.8880117 C62.5892905,12.7282453 63.0919474,12.4021723 63.352619,12.2480117 C63.6095533,12.1031942 63.8833051,12.2872526 63.9384292,12.4862599 C63.9982248,12.6815299 64.0682978,13.1486832 64.0449401,13.4971796 C64.0234511,14.0054423 63.8543416,14.2343474 63.7319474,14.2567708 C63.6095533,14.2791942 63.3825168,14.2212672 63.0181372,14.0848584 C62.6434803,13.9475153 62.4173781,13.8933255 62.2267796,13.5812672 M60.6823708,8.64158832 C60.4216993,8.36690219 60.4964438,7.8418219 60.5674511,7.5148146 C60.6337869,7.18874161 60.7636555,7.05793869 60.8711007,6.93647883 C61.1457869,6.62348613 61.5391299,6.40298978 61.8829547,6.49548613 C62.2267796,6.57863942 62.8901372,6.85332555 63.2068672,7.00374891 C63.5273343,7.15790949 63.7861372,7.32515036 63.9449693,7.44007007 C64.0981956,7.55125255 64.2495533,7.88666861 64.0234511,8.20807007 C63.794546,8.52666861 63.4675387,8.70792409 63.2386336,8.84526715 C63.0087942,8.97700438 62.478108,9.02932555 61.8689401,9.03773431 C61.2597723,9.04427445 60.9383708,8.91440584 60.6823708,8.64158832 M65.8556263,8.74716496 C65.9499912,8.55843504 66.2527066,8.38185109 66.4872175,8.36690219 C66.7310715,8.34447883 66.9468964,8.43417226 67.3402394,8.57992409 C67.7363854,8.71633285 68.064327,8.97700438 68.0419036,9.27224526 C68.0101372,9.5768292 67.9353927,9.85992409 67.796181,10.0579971 C67.6663124,10.2476613 67.1888818,10.3765956 66.9282102,10.3308146 C66.6768818,10.283165 66.4573197,10.0636029 66.1620788,9.73659562 C65.8696409,9.40958832 65.7864876,9.14891679 65.7864876,8.99942774 C65.7864876,8.85274161 65.8173197,8.81723796 65.8556263,8.74716496 M105.898137,76.8842745 C105.528152,76.7796321 105.226371,76.7179679 104.582634,77.0580555 C103.943568,77.4028146 103.099889,78.1838949 102.367393,78.8397781 C101.636765,79.5031358 100.967801,79.9674861 100.379188,80.171165 C99.7971153,80.3851212 98.6759474,80.6205664 98.0583708,80.8046248 C97.4492029,80.9793401 97.1156555,81.1148146 96.5700204,81.0699679 C96.0131737,81.030727 95.7609109,80.9961577 95.3115095,81.1017343 C95.1592175,80.881238 94.3529109,80.0581139 93.920327,79.2732964 C93.4840058,78.4978219 91.116473,75.1324496 90.0663124,73.3376467 C89.0245606,71.5400409 86.2842394,67.0880701 85.3265752,65.4212672 C84.3670423,63.7610044 83.4019036,61.995165 83.1720642,61.3486248 C82.9431591,60.7095591 82.6339036,60.1844788 82.3367942,59.7210628 C82.0368818,59.2567124 81.5902832,59.0661139 81.284765,58.8979387 C80.9876555,58.7325664 80.5092905,58.3569752 79.3731737,57.5833693 C78.2389255,56.7976175 77.3485314,56.1277197 76.488035,55.5718073 C76.5496993,55.1382891 76.1675679,54.8337051 76.0012613,54.6561869 C75.8433635,54.4936175 75.3089401,54.2469606 74.7287358,54.0040409 C74.1606774,53.7527124 73.5739328,53.394873 72.766692,53.0005956 C72.3854949,52.648362 71.9295533,52.5278365 71.9295533,52.5278365 C71.9295533,52.5278365 71.7940788,52.3521869 71.2475095,51.880362 C70.6887942,51.4066686 69.2069839,50.5779387 68.6492029,50.2453255 C68.1026336,49.9108438 67.3692029,49.3455883 66.9468964,48.9653255 C66.5180496,48.5859971 65.726692,48.0917489 65.4837723,47.9375883 C65.5202102,47.3900847 65.5594511,46.7127124 65.5818745,46.0344058 C65.6033635,45.364508 65.5202102,44.1181431 65.4146336,43.1287124 C65.3015825,42.130873 65.2632759,41.2787854 65.3221372,40.6004788 C65.3753927,39.9165664 65.5080642,39.2989898 65.5529109,38.8645372 C65.5968234,38.4412964 65.6668964,37.8760409 65.793962,37.4042161 C65.9182248,36.9314569 65.9612029,36.6203328 66.1209693,35.7831942 C66.5722394,36.0177051 67.6541664,36.4848584 68.0708672,36.5511942 C68.4903708,36.6203328 69.0687066,36.7716905 69.4816701,36.8417635 C69.8965022,36.9183766 70.4682978,37.0015299 70.4682978,37.0015299 L70.6420788,36.7586102 C70.6420788,36.7586102 71.2288234,36.9847124 72.1892905,37.2977051 C73.1488234,37.6116321 73.8953343,37.8368 74.2064584,37.9685372 C74.5185168,38.104946 74.7773197,38.2955445 75.2855825,38.2254715 C75.7910423,38.150727 76.4824292,37.8368 77.9221956,37.3285372 C79.3572905,36.8174715 81.3744584,35.7084496 83.3916263,34.1098511 C85.4087942,32.5112526 86.8635095,31.2536759 87.5791883,30.7594277 C88.3032759,30.2642453 89.1095825,29.5579095 90.4101372,28.5909022 C91.7134949,27.6164204 92.2908964,27.2277489 92.7328234,26.6269898 C93.1569985,26.0262307 93.188765,25.6375591 93.188765,25.0900555 C93.188765,24.5341431 93.2635095,24.0230774 92.9972321,23.5456467 C92.6319182,23.2158365 91.9489401,22.4861431 91.3248234,22.257238 C90.6941664,22.0358073 90.0765898,22.1516613 89.6486774,22.5608876 C89.3141956,22.7683036 89.0787504,23.1401577 88.7442686,23.5138803 C88.4779912,23.6213255 88.1332321,23.9483328 88.0715679,24.4593985 C88.0127066,24.9685956 88.1024,25.6207416 88.2873927,26.3756613 C87.660473,26.9007416 87.4035387,27.258581 86.3842102,27.761238 C85.3630131,28.2695007 81.4893781,29.6634861 79.7141956,30.516508 C77.9343416,31.3770044 76.4525314,32.052508 75.9031591,32.2515153 C75.3565898,32.4551942 74.9744584,32.296362 74.5624292,32.2066686 C74.1504,32.1066978 73.5832759,31.8862015 73.2151591,31.7647416 C73.2609401,31.6722453 73.3085898,31.5367708 73.2469255,31.461092 C73.0871591,31.2760993 72.4864,30.9135883 71.8538745,30.4772672 C71.2288234,30.0437489 70.6738453,29.4121577 70.3935533,29.2589314 C70.1029839,29.1169168 69.4330861,28.7048876 68.9995679,28.5441869 C68.5669839,28.376946 68.0419036,28.1106686 67.6224,27.493092 C67.201962,26.8839241 66.6768818,25.9739095 66.1826336,25.0741723 C66.0228672,24.3444788 65.4837723,23.6344058 65.1399474,23.2158365 C64.7961226,22.8047416 64.1523854,21.5892088 63.9010569,20.9632234 C63.6413197,20.3306978 63.4189547,19.6916321 62.7584,19.1217051 C63.1012905,18.9012088 63.1311883,18.8087124 63.8029547,18.8572964 C64.0767066,18.8703766 64.2439474,18.7246248 64.7139036,18.5433693 C64.9811153,18.3537051 65.1558307,18.3368876 65.5426336,17.9426102 C65.8696409,17.5997197 66.1695533,17.2801869 66.366692,16.7074569 C66.561962,16.146873 66.9282102,15.3611212 67.1113343,14.888362 C67.2953927,14.4109314 67.6364146,13.4971796 67.9933197,12.8487708 C68.3511591,12.2115737 68.5978161,11.4398365 68.8014949,10.8932672 C69.0135825,10.3364204 69.5480058,9.42640584 69.8077431,8.42109197 C70.0581372,7.42325255 70.1338161,6.18249343 70.0282394,5.39767591 C69.9226628,4.62313577 69.4545752,3.45898978 69.1901664,2.88812847 C68.9248234,2.31539854 68.6492029,1.21104818 67.8559766,0.765383942 C67.0664876,0.314113869 66.2760642,0.130055474 65.4837723,0.0936175182 C64.6840058,0.0497051095 64.0449401,0.0936175182 63.3358015,0.238435036 C62.6369401,0.389792701 61.5690277,0.991486131 61.1588672,1.37922336 C60.7328234,1.76789489 59.5397139,2.83207007 59.2435387,3.44030365 C58.9370861,4.0588146 58.3736993,5.50512117 58.1915095,6.16847883 C58.0149255,6.82249343 57.7570569,8.07633285 57.614108,8.96766131 C57.4599474,9.84310657 57.1011737,11.2679241 56.9217869,11.8686832 C56.7442686,12.4600993 56.5004146,13.0645956 56.5004146,13.3607708 C56.5004146,13.6653547 56.3574657,13.6961869 56.6704584,14.2567708 C56.0295241,14.0362745 55.892181,14.1820263 55.276473,14.2259387 C54.6691737,14.2735883 53.9217285,14.424946 52.7790715,14.693092 C51.8214073,14.8444496 50.2994219,15.4536175 49.8659036,15.5760117 C49.4323854,15.6881285 48.364473,16.4813547 47.4815533,17.0905226 C46.7892321,17.5231066 44.6337869,18.4069606 44.1488818,18.6358657 C43.6471591,18.8572964 42.6951007,19.3954569 42.4222832,19.6561285 C42.1532029,19.9065226 42.0775241,19.7710482 41.742108,20.0803036 C41.5916847,20.2335299 41.5160058,20.3540555 41.5160058,20.3540555 C41.5160058,20.3540555 39.9949547,21.1313985 38.2898453,21.9834861 C36.5753927,22.8355737 34.1546044,24.3192526 33.2875679,24.9583182 C32.4195971,25.6076613 31.642254,26.1411504 31.1162394,26.5204788 C30.5948964,26.8923328 30.6388088,27.5463474 30.5164146,28.331165 C30.4014949,29.108508 30.3744,30.6622599 30.4014949,32.4869606 C30.4332613,34.3125956 30.8826628,37.4341139 31.1414657,39.0551358 C31.3927942,40.6696175 31.7039182,43.8752234 31.8085606,44.7273109 C31.9197431,45.5803328 31.9786044,46.1044788 31.8879766,46.5370628 C31.7964146,46.9715153 31.5441518,47.5433109 31.316181,47.9600117 C31.0956847,48.3795153 30.8508964,49.0055007 30.956473,49.3549314 C31.0639182,49.6959533 31.1722978,50.0397781 31.5740496,50.6564204 C31.5301372,50.9077489 31.5889985,51.1656175 31.7039182,51.4916905 C31.8263124,51.8186978 32.1841518,52.4362745 32.3831591,52.8240117 C32.5718891,53.2117489 32.7839766,53.3640409 33.1875971,53.3808584 C33.4856409,53.5182015 33.8752467,53.4957781 34.177962,53.2575299 C34.4760058,53.0220847 35.2514803,52.2858511 35.8671883,51.6981723 C36.4754219,51.1198365 36.3175241,50.7685372 36.2549255,49.9164496 C36.1941956,49.0634277 36.0568526,48.2589898 35.8970861,47.4349314 C35.7307796,46.6127416 35.6934073,45.4196321 35.7924438,43.9200701 C35.8886774,42.420508 36.064327,39.0719533 36.1045022,37.2752818 C36.1484146,35.487019 36.064327,32.6934423 36.0503124,31.9086248 C36.0269547,31.1322161 36.0876847,30.714581 36.8640934,30.4156029 C37.6423708,30.1100847 39.636181,29.4215007 40.9133781,28.7590774 C42.1924438,28.1022599 43.4715095,27.5183182 43.4715095,27.5183182 C43.4715095,27.5183182 43.5256993,27.9200701 43.9498745,27.9434277 C44.3002394,27.8602745 45.420473,27.4258219 45.9988088,27.1829022 C46.5771445,26.9399825 47.8795679,26.481238 49.6753051,25.7879825 C49.492181,27.3417343 49.1492905,30.4940847 49.1492905,31.9917781 C49.1492905,33.4829314 49.2698161,35.9597781 49.2343124,36.4157197 C49.1950715,36.8782015 49.2698161,37.4565372 49.0708088,37.8760409 C48.876473,38.2955445 48.6167358,39.686727 48.4569693,40.4024058 C48.2981372,41.1255591 47.4815533,42.8998073 47.0405606,44.2162453 C46.5995679,45.5317489 46.3258161,47.2676905 46.3258161,47.2676905 C46.3258161,47.2676905 46.721962,47.4741723 47.1629547,47.6330044 C46.6817869,48.0917489 46.4257869,48.9130044 46.1445606,49.2708438 C45.8605314,49.6286832 45.6633927,50.2453255 45.3672175,51.0441577 C45.070108,51.8448584 43.8835387,54.6346978 43.3500496,55.5045372 C42.8100204,56.3706394 42.232619,57.3152234 41.6598891,58.1140555 C40.846108,59.2483036 40.9974657,59.3622891 40.974108,59.7808584 C40.6611153,60.1228146 39.2848818,62.0259971 38.5617285,62.9472234 C37.8488526,63.8693839 36.7902832,65.3848292 35.972765,66.2574715 C34.8160934,65.7193109 32.1841518,65.4819971 29.9913343,65.5829022 C27.7919766,65.6800701 24.5415241,65.7024934 22.4103708,65.4427562 C20.2736117,65.1858219 18.8123562,64.9111358 17.5846774,64.774727 C16.3607358,64.6439241 15.4161518,64.5233985 14.654692,64.3869898 C13.8932321,64.2496467 13.140181,63.7469898 12.8598891,63.5180847 C12.5693197,63.296654 11.930254,62.8033401 11.3425752,62.3838365 C10.7651737,61.9671358 9.94391825,61.5392234 9.21983066,61.3056467 C8.60879416,61.190727 8.33691095,61.0673985 7.96412263,61.190727 C7.75764088,61.5616467 6.66169927,63.5788146 5.99180146,64.9429022 C5.32470657,66.3051212 3.81580146,69.0370336 3.22345109,70.1301723 C2.62269197,71.2354569 1.62485255,73.3142891 1.29877956,74.2570044 C0.975509489,75.2025226 0.742867153,76.1751358 0.733524088,76.5497927 C0.786779562,76.6095883 0.93159708,76.8992234 1.22029781,77.0832818 C1.50152409,77.2038073 2.18076496,77.2654715 2.51524672,77.0365664 C2.84972847,76.8011212 3.12067737,76.5712818 3.55793285,76.1443036 C3.73264818,75.9630482 4.33527591,75.4594569 4.63985985,75.1772964 C4.93696934,74.9054131 6.48698394,73.2283328 7.25031241,72.5902015 C8.01083796,71.9520701 9.14415182,70.9084496 9.72248759,70.6515153 C10.2998891,70.3908438 10.9940788,70.034873 11.7396555,69.7517781 C12.3796555,69.7153401 14.0922394,69.7153401 16.910108,70.1301723 C19.7158307,70.5506102 24.4667796,72.2015299 28.012473,73.247019 C31.5675095,74.280362 33.8574949,74.7624642 34.9543708,74.7391066 C36.0503124,74.7120117 37.694692,74.9054131 38.3870131,74.8811212 C39.0727942,74.8680409 39.7109255,74.6017635 40.2817869,74.3952818 C40.8545168,74.1822599 41.3095241,73.5721577 41.9102832,73.1386394 C42.5119766,72.7051212 44.1264584,71.6082453 46.188473,69.9937635 C48.2514219,68.3736759 50.2760642,66.4798365 50.9767942,65.9687708 C51.204765,66.0771504 51.6541664,66.219165 51.8737285,65.9977343 C52.1035679,65.7781723 53.1144876,65.146581 53.9805898,64.5009752 C54.8504292,63.8535007 55.870692,62.7491504 56.6779328,61.7746686 C57.486108,60.8029898 58.4269547,59.7425518 58.4269547,59.7425518 C58.4269547,59.7425518 59.4472175,59.9639825 60.1927942,60.3124788 C60.7169401,60.7011504 61.6615241,61.0758073 62.4538161,61.4476613 C63.246108,61.8213839 64.4401518,62.5819095 65.1932029,62.9565664 C65.9397139,63.3368292 66.8226336,63.8161285 67.0291153,63.8749898 C67.2430715,63.9282453 67.3878891,63.8535007 67.7662832,63.601238 C68.1372029,63.3443036 68.4660788,62.9696467 68.4660788,62.9696467 C68.4660788,62.9696467 68.6865752,63.0761577 70.3449693,63.6330044 C72.0136409,64.1889168 72.7741664,64.7224058 73.8103124,65.2783182 C74.836181,65.8314277 75.2416701,66.219165 75.7676847,67.0142599 C76.2918307,67.8037489 77.0841226,69.0753401 78.712619,71.092508 C80.3485898,73.1162161 84.2390423,77.0524496 86.1412905,79.2518073 C88.0360642,81.4418219 90.6838891,84.9893839 91.4079766,85.9806832 C91.4079766,86.5038949 91.6882686,87.0915737 92.000327,87.7007416 C92.3189255,88.3155153 93.0374073,89.573092 93.6755387,90.1813255 C94.3220788,90.7970336 95.1227796,91.5584934 95.4871591,91.8107562 C95.8599474,92.0686248 96.0421372,92.3292964 96.5831007,92.0994569 C97.1474219,91.6351066 97.7790131,90.9876321 98.6628672,89.5871066 C99.5448526,88.1781723 100.397874,87.0140263 101.448035,85.7368292 C102.489787,84.4736467 103.492298,83.0563036 104.749874,81.253092 C106.005582,79.4405372 106.39332,78.3287124 106.440035,77.7980263 C106.484882,77.2570628 106.379305,77.1066394 105.898137,76.8842745" id="Fill-1" fill="#FFFFFF" mask="url(#mask-2)"></path>
            </g>
            <polygon id="Fill-4" fill="#FFFFFF" points="14.4826861 118.407848 14.4826861 106.530009 10.590365 114.257658 7.89956204 114.257658 3.97827737 106.530009 3.97827737 118.407848 0 118.407848 0 98.0287533 3.92128467 98.0287533 9.2449635 109.047965 14.5406131 98.0287533 18.4609635 98.0287533 18.4609635 118.407848"></polygon>
            <polygon id="Fill-6" fill="#FFFFFF" points="26.0739737 118.407848 26.0739737 98.0287533 39.4980905 98.0287533 39.4980905 101.578184 30.0522511 101.578184 30.0522511 106.359031 38.0956964 106.359031 38.0956964 109.906593 30.0522511 109.906593 30.0522511 114.858418 39.4980905 114.858418 39.4980905 118.407848"></polygon>
            <polygon id="Fill-8" fill="#FFFFFF" points="46.2519124 118.407848 46.2519124 98.0287533 50.2311241 98.0287533 50.2311241 114.858418 59.4751533 114.858418 59.4751533 118.407848"></polygon>
            <polygon id="Fill-10" fill="#FFFFFF" points="65.5712234 118.407848 65.5712234 98.0287533 69.550435 98.0287533 69.550435 114.858418 78.7944642 114.858418 78.7944642 118.407848"></polygon>
            <g id="Group-14" transform="translate(83.153285, 97.090336)">
                <mask id="mask-4" fill="white">
                    <use xlink:href="#path-3"></use>
                </mask>
                <g id="Clip-13"></g>
                <path d="M11.1259095,11.1287124 C11.1259095,10.155165 11.1062891,9.3497927 11.0679825,8.7097927 C11.0296759,8.07072701 10.9726832,7.54097518 10.8970044,7.12147153 C10.8203912,6.70196788 10.7194861,6.3628146 10.597092,6.10494599 C10.4718949,5.84801168 10.3149314,5.61443504 10.1243328,5.40421606 C9.83750073,5.07907737 9.47966131,4.81747153 9.0508146,4.61659562 C8.62103358,4.41571971 8.12958832,4.31668321 7.57647883,4.31668321 C7.02243504,4.31668321 6.53192409,4.41571971 6.10307737,4.61659562 C5.67329635,4.81747153 5.30611387,5.07907737 5.00059562,5.40421606 C4.80999708,5.61443504 4.65209927,5.84801168 4.5278365,6.10494599 C4.40450803,6.3628146 4.30360292,6.70196788 4.22792409,7.12147153 C4.15131095,7.54097518 4.09898978,8.07072701 4.07002628,8.7097927 C4.04199708,9.3497927 4.02704818,10.155165 4.02704818,11.1287124 C4.02704818,12.1013255 4.04199708,12.9076321 4.07002628,13.5466978 C4.09898978,14.1857635 4.15131095,14.7108438 4.22792409,15.1210044 C4.30360292,15.531165 4.40450803,15.8647124 4.5278365,16.122581 C4.65209927,16.3804496 4.80999708,16.6140263 5.00059562,16.8242453 C5.30611387,17.1484496 5.67329635,17.4156613 6.10307737,17.624946 C6.53192409,17.8360993 7.02243504,17.9398073 7.57647883,17.9398073 C8.12958832,17.9398073 8.62103358,17.8360993 9.0508146,17.624946 C9.47966131,17.4156613 9.83750073,17.1484496 10.1243328,16.8242453 C10.3149314,16.6140263 10.4718949,16.3804496 10.597092,16.122581 C10.7194861,15.8647124 10.8203912,15.531165 10.8970044,15.1210044 C10.9726832,14.7108438 11.0296759,14.1857635 11.0679825,13.5466978 C11.1062891,12.9076321 11.1259095,12.1013255 11.1259095,11.1287124 M15.1041869,11.1287124 C15.1041869,12.1013255 15.0901723,12.9786394 15.0612088,13.760654 C15.0331796,14.5436029 14.9518949,15.2639533 14.8182891,15.9226394 C14.6846832,16.5803912 14.4791358,17.1867562 14.202581,17.7398657 C13.9260263,18.2939095 13.5298803,18.8273985 13.0141431,19.3431358 C12.3274277,20.0289168 11.5454131,20.5596029 10.6680993,20.9314569 C9.78985109,21.3033109 8.76024526,21.489238 7.57647883,21.489238 C6.39364672,21.489238 5.35843504,21.3033109 4.4717781,20.9314569 C3.58418686,20.5596029 2.79656642,20.0289168 2.1107854,19.3431358 C1.59504818,18.8273985 1.19890219,18.2939095 0.922347445,17.7398657 C0.644858394,17.1867562 0.444916788,16.5803912 0.321588321,15.9226394 C0.197325547,15.2639533 0.120712409,14.5436029 0.0917489051,13.760654 C0.063719708,12.9786394 0.0497051095,12.1013255 0.0497051095,11.1287124 C0.0497051095,10.155165 0.063719708,9.27785109 0.0917489051,8.4958365 C0.120712409,7.71288759 0.197325547,6.99253723 0.321588321,6.33385109 C0.444916788,5.67609927 0.644858394,5.07066861 0.922347445,4.51662482 C1.19890219,3.96351533 1.59504818,3.42909197 2.1107854,2.91428905 C2.79656642,2.22757372 3.58418686,1.69688759 4.4717781,1.32596788 C5.35843504,0.953179562 6.39364672,0.767252555 7.57647883,0.767252555 C8.76024526,0.767252555 9.78985109,0.953179562 10.6680993,1.32596788 C11.5454131,1.69688759 12.3274277,2.22757372 13.0141431,2.91428905 C13.5298803,3.42909197 13.9260263,3.96351533 14.202581,4.51662482 C14.4791358,5.07066861 14.6846832,5.67609927 14.8182891,6.33385109 C14.9518949,6.99253723 15.0331796,7.71288759 15.0612088,8.4958365 C15.0901723,9.27785109 15.1041869,10.155165 15.1041869,11.1287124" id="Fill-12" fill="#FFFFFF" mask="url(#mask-4)"></path>
            </g>
            <g id="Group-17" transform="translate(101.839416, 98.024642)">
                <mask id="mask-6" fill="white">
                    <use xlink:href="#path-5"></use>
                </mask>
                <g id="Clip-16"></g>
                <polygon id="Fill-15" fill="#FFFFFF" mask="url(#mask-6)" points="20.4325372 20.3832058 17.1120117 20.3832058 13.3626394 8.0185927 9.61326715 20.3832058 6.29274161 20.3832058 0.855077372 0.00411094891 5.00526715 0.00411094891 8.15294599 12.8554978 11.8742891 0.00411094891 14.8509898 0.00411094891 18.5723328 12.8554978 21.7489752 0.00411094891 25.899165 0.00411094891"></polygon>
            </g>
        </g>
    </g>
</svg>