<?xml version="1.0" encoding="UTF-8"?>
<svg width="55px" height="101px" viewBox="0 0 55 101" version="1.1" xmlns="http://www.w3.org/2000/svg" xmlns:xlink="http://www.w3.org/1999/xlink">
    <!-- Generator: Sketch 42 (36781) - http://www.bohemiancoding.com/sketch -->
    <title>mermaid</title>
    <desc>Created with Sketch.</desc>
    <defs></defs>
    <g id="Page-1" stroke="none" stroke-width="1" fill="none" fill-rule="evenodd">
        <g id="stickers-black" transform="translate(-338.000000, -30.000000)" fill="#FFFFFF">
            <g id="mermaid" transform="translate(338.000000, 30.000000)">
                <path d="M38.7609146,46.3841012 C37.6468293,45.4171945 36.4643293,44.5607145 35.4428049,43.5789945 C35.5809756,42.8982545 35.3844512,41.8842145 35.9673171,41.6512412 C36.6487805,42.0868878 37.1142683,42.8053345 37.6260366,43.4032545 C38.6509146,44.6011145 39.7891463,45.6696945 40.9441463,46.8217678 C41.4780488,47.3550478 42.1662195,47.9051612 42.4271341,48.6619878 C40.9233537,48.4539278 39.8213415,47.3032012 38.7609146,46.3841012 M30.3807927,50.6779478 C30.477378,49.2753945 31.7712195,48.3421545 32.4761585,47.2601078 C34.4018293,47.6930612 35.7278659,48.7273012 37.6260366,49.1878612 C36.114878,50.5365478 32.6378049,50.3702345 30.3807927,50.6779478 M29.2995732,24.8913012 L28.4940244,25.5074012 C28.4504268,25.5255812 28.3518293,25.5478012 28.1828049,25.5148078 C27.83,25.4447812 27.107622,25.1114812 26.2484146,23.6692012 C26.2242683,23.6267812 26.235,23.5735878 26.2745732,23.5459812 C26.3168293,23.5197212 26.3698171,23.5298212 26.3979878,23.5682012 C26.4046951,23.5749345 27.0901829,24.4765278 29.2553049,24.7297012 C29.3015854,24.7377812 29.3237195,24.7606745 29.332439,24.7963612 C29.3411585,24.8313745 29.3290854,24.8690812 29.2995732,24.8913012 M24.4944512,17.7869612 C24.4944512,17.7869612 25.7131707,15.0619812 28.1512805,17.0287878 C28.1512805,17.0287878 28.6395732,18.9188345 27.0968902,19.6992278 C27.0968902,19.6992278 25.014939,19.2864745 24.4944512,17.7869612 M32.8853049,18.7639678 C32.8853049,18.7639678 33.4882927,19.0602345 33.6096951,19.7934945 C33.6096951,19.7934945 33.8746341,20.6883545 32.7310366,21.5684012 C32.7310366,21.5684012 31.2272561,21.3589945 31.057561,21.1031278 L30.8690854,20.7112478 C30.8690854,20.7112478 31.6156098,18.4892478 32.8853049,18.7639678 M54.6492073,54.8849345 C54.5197561,52.5848278 51.9709756,50.8988012 50.1968902,50.3271412 C48.7984146,49.8766812 47.0545122,50.0591545 45.832439,49.2753945 C44.2770122,48.2788612 43.2803049,46.1935478 41.9904878,44.4550012 C41.4337805,43.7035612 40.8515854,42.8928678 40.157378,41.9138412 C39.6409146,41.1839478 38.4912805,39.9254878 38.4993293,39.1976145 C38.507378,38.5121612 39.2378049,38.3061212 39.527561,37.3573945 C40.0151829,35.6552078 39.0734756,34.8761612 36.6655488,32.6245345 C37.2873171,31.9815012 38.5778049,31.2085145 37.9754878,29.9076345 C37.4804878,29.5878012 37.227622,31.0145945 36.8406098,30.5210412 C37.1773171,29.9749678 37.7286585,28.0930012 36.7534146,27.8034678 C36.3905488,27.8559878 36.4844512,28.6033878 35.880122,28.5057545 C35.6259146,28.4633345 34.1590244,26.0918545 34.0463415,25.8770612 C33.4078049,24.6482278 33.8437805,23.7223945 34.0463415,22.5454078 C35.0189024,20.4836612 36.7460366,18.9807812 37.015,16.4106678 C37.059939,15.9790612 37.0612805,15.5649612 37.0337805,15.1636545 C41.0628659,12.4211678 41.9079878,8.93734117 41.9489024,8.75890784 C41.954939,8.73197451 41.9582927,8.70436784 41.9596341,8.67676117 C41.9844512,8.09028784 41.7731707,7.73746117 41.3311585,7.62838117 C40.692622,7.47149451 40.0842683,7.99669451 39.7643293,8.34346117 C38.1096341,9.82479451 36.7654878,10.7708278 35.7131098,11.3835612 C34.8103049,9.97831451 33.6009756,8.79392117 32.5620122,7.73476784 C31.9865244,7.38126784 31.6303659,6.83586784 31.2339634,6.35308784 C32.2313415,2.87868784 31.8322561,1.29972117 31.7142073,0.954974508 C31.5619512,0.340894508 31.2789024,0.0190411747 30.8717683,0.000861174696 C30.2593902,-0.0280921586 29.8334756,0.680927841 29.6986585,0.936121175 C29.3532317,1.67611451 28.5845732,3.50758117 28.5718293,3.54192117 C28.197561,4.30413451 27.8689024,4.89936117 27.5845122,5.36867451 C26.5676829,5.49526117 25.582378,5.75112784 24.9679878,5.98208117 C23.4984146,6.53488784 22.0228049,7.85327451 20.9516463,9.04911451 C18.7194512,11.5438145 17.2270732,14.9704078 15.9748171,18.2508878 C14.860061,21.1798878 13.8646951,24.1728545 11.872622,25.9632478 C11.942378,26.2157478 12.4581707,26.0184612 12.3964634,26.4015878 C10.5834756,29.2343012 14.8640854,30.4355278 14.3167683,33.0622012 C13.5481098,33.4897678 13.0517683,32.5807678 12.3964634,32.8871345 C12.2918293,34.0445945 13.5534756,33.8284545 14.5783537,33.8506745 C15.0391463,35.4653278 17.2585976,37.0429478 16.0633537,38.9343412 C14.8969512,39.4050012 14.5059146,38.4145278 14.0558537,37.8819212 C12.6922561,39.2972678 14.5709756,40.7018412 15.365122,41.6512412 C15.6991463,42.0512012 16.2021951,42.8484278 16.5,42.9655878 C18.1855488,43.6261278 19.0105488,42.1091078 19.9925,41.1253678 C20.5478659,41.1220012 20.7913415,41.4324078 21.3882927,41.3879678 C21.7337195,41.2304078 21.7169512,40.4412612 22.2609146,40.4237545 C22.6284756,40.4123078 23.5125,41.5340812 23.9203049,42.0027212 C24.3314634,42.4740545 25.0216463,43.3796878 25.1430488,44.0166612 C25.4683537,45.7377012 24.8687195,46.7174012 24.0940244,47.6109145 C22.3172561,49.0962878 19.8556707,49.7070012 18.0708537,51.0280812 C15.3255488,53.0622212 12.7935366,57.7607412 14.6668902,61.8963545 C15.7112195,63.0820945 16.4134756,64.1210478 17.6342073,64.7876478 C18.9917683,65.5289878 22.0778049,66.1827945 24.0940244,66.0137878 C26.8882927,65.7814878 29.6577439,65.1680812 32.0395122,64.3499812 C35.000122,63.3325745 37.3745122,61.5650745 39.8092683,60.5806612 C40.7778049,60.1887812 42.1320122,59.7336078 43.1267073,60.1423212 C42.504939,62.7777478 40.0145122,64.5836278 37.7132317,66.1026678 C34.4856707,68.2330945 31.4814634,70.4423012 27.1505488,71.0981278 C22.1938415,71.0058812 20.6927439,67.4816545 16.5,66.8036078 C13.1919512,66.2676345 10.9161585,67.8068745 9.16621951,68.9939612 C6.39878049,70.8732345 4.2054878,73.7921345 0,73.7268212 C2.28384146,78.2496012 7.4652439,81.4048412 14.4039634,80.1248345 C16.0365244,79.5551945 18.1868902,78.5674145 19.8167683,78.7229545 C18.6342683,81.4694812 16.8286585,84.0685478 16.3242683,87.3988545 C15.4697561,93.0467745 18.3196951,97.0356012 21.0401829,99.4050612 C21.6793902,99.9632545 22.3722561,100.566561 23.134878,100.719408 C22.0845122,96.9541278 24.8794512,95.1650812 26.5395122,93.0952545 C27.5335366,91.8529545 28.507439,90.2383012 29.1580488,88.7132012 C30.8422561,84.7641012 29.5940244,80.3261612 29.1580488,75.3919745 C34.4823171,70.9728878 43.1387805,68.0573545 48.9754878,63.7359012 C51.0125,62.2283078 53.112561,60.3773145 54.0395122,58.2145678 C54.405061,57.3594345 54.7095732,55.9454345 54.6492073,54.8849345" id="Fill-2075"></path>
            </g>
        </g>
    </g>
</svg>