<?xml version="1.0" encoding="UTF-8"?>
<svg width="148px" height="100px" viewBox="0 0 148 100" version="1.1" xmlns="http://www.w3.org/2000/svg" xmlns:xlink="http://www.w3.org/1999/xlink">
    <!-- Generator: Sketch 42 (36781) - http://www.bohemiancoding.com/sketch -->
    <title>sticker_fridaylove_black</title>
    <desc>Created with Sketch.</desc>
    <defs></defs>
    <g id="Page-1" stroke="none" stroke-width="1" fill="none" fill-rule="evenodd">
        <g id="stickers-white" transform="translate(-18.000000, -253.000000)" fill="#000000">
            <g id="sticker_fridaylove_black" transform="translate(18.000000, 253.000000)">
                <path d="M111.6895,73.0258 C111.8365,72.9188 111.8835,72.7708 111.7745,72.6248 C111.6645,72.4778 111.5515,72.5988 111.4525,72.6688 C110.9285,73.0328 110.3845,73.3648 109.8295,73.6768 C108.1005,74.6478 106.2795,75.2338 104.2625,74.9908 C104.0715,74.9678 103.8775,74.9768 103.6835,74.9758 C103.1055,74.9698 102.5805,75.1288 102.1085,75.4678 C101.8805,75.6308 101.6505,75.7898 101.4185,75.9448 C101.0475,76.1928 100.6415,76.2538 100.2025,76.2168 C99.8435,76.1868 99.5025,76.0728 99.1245,76.0378 C99.0215,76.0598 98.8975,76.0788 98.7775,76.1138 C98.1025,76.3108 97.6675,76.8208 97.2105,77.3078 C96.6585,77.8968 96.2515,78.6218 95.5695,79.0908 C95.5205,79.1238 95.4735,79.1658 95.4945,79.2328 C95.5185,79.3108 95.5905,79.3228 95.6585,79.3268 C95.9295,79.3418 96.1965,79.3038 96.4635,79.2548 C97.2445,79.1128 97.9435,78.7598 98.6465,78.4188 C99.5515,77.9798 100.4595,77.5478 101.4795,77.4508 C101.7305,77.4268 101.9075,77.2878 102.0725,77.1208 C102.4145,76.7758 102.8155,76.6908 103.2675,76.8538 C103.5805,76.9658 103.8645,76.9288 104.1565,76.7688 C104.7145,76.4638 105.2995,76.2098 105.8815,75.9498 C107.3715,75.2858 108.8975,74.6998 110.3215,73.8948 C110.7925,73.6288 111.2525,73.3438 111.6895,73.0258" id="Fill-1"></path>
                <path d="M113.9581,70.2856 C113.8871,70.3636 113.8221,70.4486 113.7631,70.5356 C113.5401,70.8686 113.4231,71.2746 113.0641,71.5146 C112.9671,71.5796 113.0091,71.6916 113.1171,71.7036 C113.5471,71.7536 113.9081,72.0086 114.3261,72.0866 C114.7041,72.1576 114.7651,72.1016 114.7411,71.7086 C114.7161,71.2206 114.5971,70.7576 114.3491,70.3326 C114.2371,70.1426 114.1051,70.1246 113.9581,70.2856" id="Fill-3"></path>
                <path d="M97.3702,37.516 C97.2622,37.572 97.1652,37.662 97.0832,37.755 C97.0032,37.846 96.8982,37.967 96.9842,38.09 C97.0782,38.225 97.2122,38.129 97.3232,38.082 C97.8372,37.866 98.2482,37.491 98.7112,37.197 C99.2602,36.849 99.5542,36.341 99.7932,35.774 C100.3292,34.499 100.5402,33.164 100.5582,31.708 C100.5332,30.384 100.3142,29.022 99.6632,27.756 C99.1082,26.678 98.2972,25.895 97.1022,25.564 C96.9682,25.526 96.8062,25.421 96.6992,25.561 C96.5922,25.702 96.7422,25.832 96.8092,25.95 C97.0212,26.318 97.3422,26.588 97.6822,26.827 C98.5042,27.406 99.0412,28.177 99.3252,29.141 C99.4942,29.716 99.6252,30.296 99.7422,30.883 C100.0962,32.645 99.7352,34.278 98.9112,35.834 C98.5462,36.524 98.0922,37.143 97.3702,37.516" id="Fill-5"></path>
                <path d="M108.171,77.8085 C107.661,78.3605 106.97,78.4645 106.282,78.5775 C105.243,78.7485 104.191,78.7995 103.148,78.9305 C101.877,79.0895 100.612,79.3745 99.322,79.1085 C99.258,79.0945 99.177,79.0865 99.152,79.1725 C99.13,79.2545 99.2,79.2915 99.257,79.3265 C99.332,79.3705 99.408,79.4125 99.485,79.4515 C100.481,79.9585 101.549,80.1315 102.669,80.1495 C103.959,80.1305 105.225,79.9035 106.438,79.4105 C107.181,79.1085 107.848,78.6945 108.374,78.0755 C108.449,77.9875 108.541,77.8895 108.427,77.7755 C108.341,77.6905 108.242,77.7315 108.171,77.8085" id="Fill-7"></path>
                <path d="M97.1339,71.2191 C97.7499,71.8151 98.4869,72.0921 99.5529,72.0891 C99.8109,72.0801 100.2769,72.0061 100.7369,71.8901 C101.8279,71.6171 102.8479,71.1521 103.8839,70.7281 C104.1729,70.6101 104.3859,70.4801 104.4479,70.1481 C104.4879,69.9391 104.6299,69.7671 104.7779,69.6101 C105.0289,69.3421 105.2919,69.0841 105.5929,68.8741 C106.5329,68.2171 107.1269,67.2881 107.6549,66.3021 C108.2639,65.1681 107.6249,64.1681 106.8019,63.7711 C106.1919,63.4771 105.5469,63.3771 104.8849,63.4411 C104.4989,63.4791 104.2759,63.3321 104.0839,63.0191 C103.6229,62.2611 103.1569,61.5041 102.6619,60.7671 C101.8429,59.5481 100.7549,58.7271 99.2409,58.6001 C98.9889,58.5791 98.8369,58.4711 98.7249,58.2531 C98.6319,58.0751 98.5199,57.9011 98.3879,57.7501 C97.8699,57.1561 97.5129,57.2121 97.2039,57.9361 C96.8909,58.6701 96.7599,59.4521 96.6349,60.2341 C96.4569,61.3391 96.3409,62.4531 96.1339,63.5541 C95.8919,64.8431 95.5719,66.1201 95.5079,67.4371 C95.4659,68.2871 95.5339,69.1181 96.0099,69.8611 C96.3289,70.3591 96.7069,70.8071 97.1339,71.2191" id="Fill-9"></path>
                <path d="M86.9249,75.5336 C86.8919,76.0246 86.8969,76.5176 86.8729,77.0086 C86.8669,77.1156 86.8959,77.2666 86.7549,77.3086 C86.6359,77.3446 86.5779,77.2146 86.4999,77.1486 C86.4559,77.1106 86.4179,77.0666 86.3729,77.0296 C86.2559,76.9326 86.1289,76.9316 85.9929,76.9896 C85.8619,77.0466 85.8099,77.1476 85.8039,77.2866 C85.7999,77.3766 85.8469,77.4796 85.7519,77.5546 C85.6439,77.5136 85.6629,77.4136 85.6509,77.3356 C85.5199,76.5246 85.4429,75.7086 85.4179,74.8876 C85.3959,74.1166 85.3629,73.3456 85.3499,72.5736 C85.3179,70.7986 84.6429,69.2956 83.4439,68.0096 C83.0099,67.5436 82.5839,67.0706 82.1519,66.6026 C81.7029,66.1186 81.3079,65.5936 81.0159,65.0016 C80.5529,64.0646 79.9669,63.2016 79.4159,62.3176 C79.0679,61.7586 78.7879,61.1676 78.6199,60.5256 C78.5569,60.2836 78.6219,60.2306 78.8569,60.2786 C79.4289,60.3956 79.8849,60.7076 80.2869,61.1096 C81.5709,62.3916 82.6519,63.8336 83.6379,65.3496 C84.4959,66.6706 85.2539,68.0486 85.8909,69.4906 C86.7409,71.4156 87.0669,73.4346 86.9249,75.5336 L86.9249,75.5336 Z M80.1229,66.0776 C79.4659,64.8396 78.6669,63.6906 77.8989,62.5226 C77.6969,62.2186 77.5559,61.8756 77.3889,61.5486 C77.3509,61.4746 77.2789,61.3796 77.3769,61.3176 C77.4849,61.2496 77.5609,61.3496 77.6109,61.4286 C77.8209,61.7626 78.0339,62.0966 78.2259,62.4426 C78.7379,63.3716 79.2059,64.3256 79.7479,65.2386 C80.0189,65.6946 80.3069,66.1376 80.6299,66.5656 C80.4069,66.4586 80.2349,66.2896 80.1229,66.0776 L80.1229,66.0776 Z M75.0849,55.5546 C75.0309,55.6006 74.9759,55.5646 74.9269,55.5356 C74.6449,55.3726 74.4139,55.1516 74.2549,54.8706 C74.1039,54.6026 73.9709,54.3226 73.8469,54.0406 C73.6969,53.6986 73.5389,53.3606 73.3649,53.0216 C73.7419,53.0926 73.9949,53.3216 74.2059,53.6026 C74.6149,54.1526 74.8299,54.7976 75.0869,55.4206 C75.1059,55.4656 75.1289,55.5166 75.0849,55.5546 L75.0849,55.5546 Z M61.6529,28.9646 C61.5059,29.0996 61.3379,29.1676 61.1489,29.1676 C61.0489,29.1676 60.9549,29.1496 60.8669,29.1126 C60.7809,29.0756 60.7049,29.0256 60.6399,28.9616 C60.5739,28.8976 60.5239,28.8226 60.4859,28.7356 C60.4489,28.6476 60.4309,28.5536 60.4309,28.4526 C60.4309,28.2556 60.4999,28.0866 60.6399,27.9476 C60.7819,27.8076 60.9559,27.7386 61.1599,27.7386 C61.3499,27.7386 61.5139,27.8096 61.6529,27.9526 C61.7909,28.0926 61.8609,28.2616 61.8609,28.4586 C61.8609,28.6566 61.7909,28.8256 61.6529,28.9646 L61.6529,28.9646 Z M61.8319,41.9146 L59.8349,41.9146 L59.8349,44.7446 L61.6059,44.7446 L61.6059,45.7636 L59.8349,45.7636 L59.8349,48.8146 L61.8319,48.8146 L61.8319,49.8336 L58.6309,49.8336 L58.6309,40.8956 L61.8319,40.8956 L61.8319,41.9146 Z M58.3829,29.0866 L57.1789,29.0866 L57.1789,25.2426 L55.3149,20.1486 L56.5879,20.1486 L57.1789,22.0946 C57.1979,22.1516 57.2169,22.2156 57.2369,22.2846 C57.2559,22.3546 57.2789,22.4296 57.3059,22.5106 C57.5269,23.2136 57.6759,23.8036 57.7569,24.2826 C57.8259,23.8036 57.8849,23.4696 57.9319,23.2806 L58.1159,22.4816 L58.1859,22.1696 L58.6839,20.1486 L59.9399,20.1486 L58.3829,25.2426 L58.3829,29.0866 Z M56.2169,49.8336 L55.2619,49.8336 L53.5369,40.8956 L54.7239,40.8956 L55.2619,44.1956 L55.3549,44.7916 L55.5449,46.0886 C55.5759,46.3076 55.6049,46.5086 55.6289,46.6906 C55.6539,46.8716 55.6769,47.0356 55.6959,47.1816 L55.7539,47.6226 C55.7659,47.5336 55.7759,47.4546 55.7829,47.3846 C55.7909,47.3156 55.7989,47.2576 55.8069,47.2116 L55.9619,46.1746 L56.1649,44.8146 C56.1849,44.6916 56.2029,44.5766 56.2199,44.4726 C56.2379,44.3686 56.2539,44.2756 56.2699,44.1956 L56.8479,40.8956 L57.9709,40.8956 L56.2169,49.8336 Z M52.5289,48.9476 C52.1779,49.6116 51.5889,49.9436 50.7639,49.9436 C49.8959,49.9436 49.2839,49.5866 48.9289,48.8726 C48.5769,48.1746 48.4019,46.9326 48.4019,45.1506 C48.4019,43.5606 48.5749,42.4356 48.9229,41.7756 C49.2739,41.1116 49.8679,40.7806 50.7049,40.7806 C51.4539,40.7806 52.0109,41.0366 52.3719,41.5506 C52.6119,41.8926 52.7859,42.3816 52.8939,43.0136 C53.0019,43.6006 53.0559,44.4576 53.0559,45.5846 C53.0559,47.1626 52.8809,48.2836 52.5289,48.9476 L52.5289,48.9476 Z M50.6609,80.5816 C49.6639,80.7746 48.8109,81.2836 47.9609,81.8036 C47.4419,82.1206 46.9069,82.4096 46.3249,82.5986 C46.2099,82.6366 46.0939,82.6876 46.0549,82.7986 C45.9639,83.0616 45.7439,83.1376 45.5199,83.2336 C44.4719,83.6776 43.4879,84.2636 42.4159,84.6556 C42.2719,84.7086 42.1869,84.8266 42.1089,84.9506 C41.7209,85.5706 41.1279,85.8886 40.4449,86.0626 C40.1649,86.1336 40.1239,86.0786 40.1319,85.7986 C40.1479,85.1756 40.4499,84.6756 40.7979,84.1946 C41.0979,83.7806 41.3729,83.3466 41.6809,82.9426 C41.8779,82.6836 42.2499,82.5586 42.3499,82.1936 C43.9729,81.1846 45.5739,80.1336 47.5069,79.7846 C47.8689,79.7196 48.2329,79.6856 48.5459,79.6976 C49.3249,79.6816 50.0199,79.8256 50.6899,80.0956 C50.7979,80.1396 50.9179,80.1776 50.9019,80.3286 C50.8869,80.4706 50.7989,80.5556 50.6609,80.5816 L50.6609,80.5816 Z M44.6559,49.8336 L44.6559,40.8956 L45.8609,40.8956 L45.8609,48.8146 L47.8289,48.8146 L47.8289,49.8336 L44.6559,49.8336 Z M44.9419,75.2046 C44.8519,75.4136 44.6399,75.3746 44.4669,75.2666 C44.1499,75.0686 43.8509,74.8286 43.4429,74.8486 C43.3709,74.8516 43.3119,74.8046 43.2809,74.7406 C43.0379,74.2176 42.7359,73.7156 42.6989,73.1186 C42.6849,72.8866 42.7319,72.7056 43.0129,72.7446 C43.1519,72.7366 43.2599,72.7636 43.3159,72.8886 C43.4579,73.2066 43.7169,73.4296 43.9589,73.6626 C44.1789,73.8746 44.3109,74.1276 44.3039,74.4316 C44.2969,74.7006 44.4249,74.8356 44.6619,74.9216 C44.7939,74.9686 45.0279,75.0036 44.9419,75.2046 L44.9419,75.2046 Z M43.0939,29.0866 L44.2979,29.0866 L44.2979,20.1486 L43.0939,20.1486 L43.0939,29.0866 Z M45.4239,30.5226 L44.2779,33.6716 L43.6689,33.4976 L44.4619,30.2386 L45.4239,30.5226 Z M45.6759,20.1486 L47.1579,20.1486 C47.6099,20.1486 47.9889,20.1996 48.2979,20.2996 C48.5829,20.3956 48.8379,20.5676 49.0619,20.8146 C49.3979,21.1846 49.6369,21.6676 49.7789,22.2626 C49.9229,22.8366 49.9939,23.6606 49.9939,24.7336 C49.9939,25.7176 49.9149,26.5206 49.7569,27.1416 C49.6029,27.7366 49.3479,28.1896 48.9919,28.5026 C48.5569,28.8916 47.7759,29.0866 46.6479,29.0866 L45.6759,29.0866 L45.6759,20.1486 Z M51.5009,30.5226 L52.3239,39.4596 L51.1719,39.4596 L50.9689,36.4266 C50.9619,36.2726 50.9549,36.1396 50.9489,36.0276 C50.9439,35.9156 50.9409,35.8226 50.9409,35.7496 L50.8889,34.5516 L50.8599,33.4506 C50.8599,33.4436 50.8589,33.4276 50.8569,33.4026 C50.8549,33.3776 50.8519,33.3436 50.8479,33.3006 L50.8199,33.4806 C50.7879,33.6926 50.7609,33.8776 50.7349,34.0356 C50.7089,34.1946 50.6879,34.3276 50.6679,34.4356 L50.5179,35.2516 L50.4599,35.5586 L49.7069,39.4596 L48.8979,39.4596 L48.1909,36.0916 C48.0949,35.6476 48.0079,35.1966 47.9329,34.7396 C47.8579,34.2816 47.7889,33.8026 47.7279,33.3006 L47.3799,39.4596 L46.2459,39.4596 L46.9809,30.5226 L48.0109,30.5226 L48.7989,34.1696 C48.8959,34.6246 48.9829,35.0806 49.0619,35.5386 C49.1409,35.9956 49.2139,36.4746 49.2789,36.9766 C49.2869,36.9106 49.2929,36.8606 49.2969,36.8236 C49.3009,36.7866 49.3039,36.7606 49.3079,36.7446 L49.4759,35.7206 L49.6269,34.7476 L49.7599,34.1056 L50.4599,30.5226 L51.5009,30.5226 Z M52.4659,20.1486 L53.4039,20.1486 L55.3199,29.0866 L54.1269,29.0866 L53.7909,27.3446 L52.0209,27.3446 L51.6789,29.0866 L50.5209,29.0866 L52.4659,20.1486 Z M41.2389,39.4596 L42.4429,39.4596 L42.4429,30.5216 L41.2389,30.5216 L41.2389,39.4596 Z M39.3029,24.7106 L39.3029,29.0866 L38.0989,29.0866 L38.0989,20.1486 L39.6849,20.1486 C40.3399,20.1486 40.8289,20.3046 41.1499,20.6176 C41.5549,21.0236 41.7569,21.6426 41.7569,22.4756 C41.7569,23.1166 41.6509,23.6306 41.4359,24.0186 C41.2219,24.4066 40.9159,24.6466 40.5189,24.7396 L42.1619,29.0866 L40.9409,29.0866 L39.3029,24.7106 Z M40.8189,49.8336 L39.6929,49.8336 L38.3469,45.8096 C38.2229,45.4356 38.1069,45.0516 37.9969,44.6586 C37.8859,44.2646 37.7849,43.8516 37.6929,43.4196 C37.6849,43.3656 37.6729,43.3006 37.6549,43.2226 C37.6379,43.1456 37.6169,43.0566 37.5949,42.9566 C37.6069,43.0566 37.6159,43.1426 37.6229,43.2136 C37.6309,43.2856 37.6369,43.3456 37.6409,43.3966 L37.7039,44.3056 L37.7739,45.4106 C37.7779,45.4726 37.7799,45.5476 37.7819,45.6366 C37.7849,45.7256 37.7859,45.8256 37.7859,45.9376 L37.8499,49.8336 L36.6569,49.8336 L36.6569,40.8956 L37.7799,40.8956 L38.9789,44.4616 C39.3259,45.4696 39.6319,46.5436 39.8989,47.6856 C39.8029,46.9956 39.7319,46.3696 39.6849,45.8096 C39.6379,45.2506 39.6139,44.7236 39.6139,44.2296 L39.6139,40.8956 L40.8189,40.8956 L40.8189,49.8336 Z M35.1579,25.0116 L35.1579,29.0866 L33.9539,29.0866 L33.9539,20.1486 L37.1719,20.1486 L37.1719,21.1676 L35.1579,21.1676 L35.1579,23.9926 L36.9759,23.9926 L36.9759,25.0116 L35.1579,25.0116 Z M34.0749,49.8336 L35.2789,49.8336 L35.2789,40.8956 L34.0749,40.8956 L34.0749,49.8336 Z M27.7229,64.1996 C27.5389,64.4706 27.3679,64.7476 27.2349,65.0496 C27.1889,65.1536 27.1799,65.3506 27.0159,65.2946 C26.8539,65.2386 26.6829,65.1216 26.7409,64.7956 C26.7769,64.5176 26.7879,64.1416 26.9439,63.7886 C27.1509,63.3136 27.4949,63.0386 28.0139,62.9806 C28.1879,62.9606 28.2459,63.0186 28.2079,63.1906 C28.1249,63.5656 27.9339,63.8876 27.7229,64.1996 L27.7229,64.1996 Z M23.8959,25.2716 C23.6249,26.4096 23.1959,27.4966 22.8209,28.6006 C22.5879,29.2856 22.3869,29.9806 22.1929,30.6766 C22.1729,30.7466 22.1959,30.8576 22.0999,30.8686 C21.9929,30.8816 21.9699,30.7686 21.9349,30.6936 C21.7849,30.3736 21.8469,30.0306 21.8199,29.6246 C21.8959,28.4196 22.0629,27.1626 22.4919,25.9506 C22.5879,25.6796 22.7179,25.4446 23.0089,25.3306 C23.1439,25.2776 23.2539,25.1756 23.3039,25.0276 C23.3439,24.9066 23.4379,24.8806 23.5519,24.8716 C23.9269,24.8446 23.9839,24.9026 23.8959,25.2716 L23.8959,25.2716 Z M17.6119,55.5576 C17.4379,55.6726 17.2349,55.6916 17.0339,55.7216 C16.9459,55.7246 16.8499,55.7336 16.8289,55.6166 C16.8149,55.5256 16.8839,55.4776 16.9579,55.4496 C17.1369,55.3796 17.3149,55.3046 17.4979,55.2516 C17.5929,55.2246 17.7319,55.1856 17.7769,55.3156 C17.8169,55.4336 17.6989,55.5006 17.6119,55.5576 L17.6119,55.5576 Z M17.1359,36.9336 C17.0449,37.0336 16.9579,37.2056 16.7919,37.1406 C16.6539,37.0866 16.6819,36.9096 16.6549,36.7816 C16.6459,36.7346 16.6489,36.6856 16.6439,36.6156 C16.7029,36.1466 16.7959,35.6686 17.1089,35.2616 C17.2619,35.0626 17.4579,34.9366 17.6979,34.8716 C17.8459,34.8316 17.9359,34.8736 17.9049,35.0366 C17.7799,35.7216 17.6249,36.3976 17.1359,36.9336 L17.1359,36.9336 Z M100.8719,23.9266 C100.9739,23.8686 101.0629,23.9916 101.1399,24.0576 C101.6399,24.4866 101.8529,25.0656 102.0039,25.6766 L101.9399,25.7116 C101.6869,25.4346 101.4279,25.1636 101.1829,24.8796 C101.0249,24.6966 100.8989,24.4866 100.8509,24.2446 C100.8289,24.1396 100.7509,23.9946 100.8719,23.9266 L100.8719,23.9266 Z M106.6919,29.0876 C106.7959,29.0896 106.8679,29.1586 106.9429,29.2186 C108.4529,30.4416 109.6879,31.8886 110.5389,33.6476 C110.5679,33.7056 110.6369,33.7656 110.5909,33.8316 C110.5339,33.9116 110.4479,33.8556 110.3769,33.8426 C108.7469,33.5396 107.7019,32.5206 107.0149,31.0746 C106.7619,30.5436 106.5579,29.9916 106.4199,29.4186 C106.3659,29.1946 106.4579,29.0796 106.6919,29.0876 L106.6919,29.0876 Z M116.2229,0.5176 C116.2349,0.2336 116.3309,0.0736 116.6329,0.1226 C116.8329,0.0656 116.9259,0.1466 116.9619,0.3366 C117.0079,0.5826 117.1059,0.8136 117.2059,1.0426 C117.2569,1.1576 117.3129,1.2716 117.3419,1.3916 C117.3889,1.5856 117.4729,1.8256 117.2849,1.9546 C117.1159,2.0726 116.9809,1.8566 116.8469,1.7636 C116.6639,1.6376 116.4789,1.5206 116.2629,1.4596 C116.1369,1.4246 116.0969,1.3646 116.1229,1.2296 C116.1699,0.9946 116.2139,0.7566 116.2229,0.5176 L116.2229,0.5176 Z M120.7059,50.8836 C120.8999,50.8716 121.0239,50.9366 121.0489,51.1426 C121.1049,51.5936 121.1809,52.0386 121.3369,52.4686 C121.4239,52.7066 121.5169,52.9486 121.6909,53.1266 C122.0039,53.4476 122.1009,53.8226 122.1009,54.2546 C122.1009,54.7666 122.1129,55.2766 121.9199,55.7636 C121.8919,55.8356 121.8629,55.9096 121.8169,55.9696 C121.6949,56.1286 121.5709,56.3516 121.3589,56.3176 C121.1769,56.2886 121.1899,56.0386 121.1429,55.8786 C120.7439,54.5096 120.5669,53.1066 120.5079,51.6846 C120.5079,51.5206 120.5119,51.3566 120.5069,51.1926 C120.5019,51.0406 120.4899,50.8966 120.7059,50.8836 L120.7059,50.8836 Z M123.4339,6.9696 C123.4719,6.9686 123.5109,6.9686 123.5489,6.9686 C124.0429,6.9686 124.3189,7.3896 124.1199,7.8436 C124.0489,8.0046 123.9559,8.0756 123.7899,7.9426 C123.5819,7.7746 123.3359,7.6466 123.1939,7.4076 C123.0069,7.0956 123.0749,6.9736 123.4339,6.9696 L123.4339,6.9696 Z M123.9609,55.7316 C123.9369,55.8026 123.9039,55.8716 123.8759,55.9416 C123.8119,55.1876 123.6539,54.4616 123.5289,53.7326 C123.4399,53.2166 123.4149,52.6996 123.4039,52.1796 C123.4029,52.1046 123.3689,52.0096 123.4579,51.9716 C123.5629,51.9276 123.6129,52.0236 123.6619,52.0906 C123.9499,52.4956 124.0709,52.9656 124.1299,53.4446 C124.2249,54.2146 124.2189,54.9846 123.9609,55.7316 L123.9609,55.7316 Z M126.4659,52.6316 C126.5819,52.4846 126.6749,52.5626 126.7739,52.6556 C126.8579,52.7346 126.9559,52.8026 126.9279,52.9426 C126.9049,53.0926 126.8899,53.2506 126.7779,53.3656 C126.6519,53.4946 126.4949,53.5356 126.3409,53.4196 C126.2479,53.3496 126.3499,52.7776 126.4659,52.6316 L126.4659,52.6316 Z M127.3829,13.8266 C127.8859,13.8596 128.2949,14.0666 128.5739,14.4916 C128.6989,14.6796 128.8579,14.8256 129.0289,14.9696 C129.7289,15.5596 130.3449,16.2176 130.6459,17.1086 C130.7019,17.2746 130.8369,17.4966 130.6729,17.6106 C130.5129,17.7216 130.3069,17.5756 130.1499,17.4616 C129.9299,17.3016 129.7549,17.0946 129.5839,16.8856 C129.3999,16.6596 129.1999,16.4526 128.9419,16.3106 C128.8639,16.2676 128.7919,16.2186 128.7559,16.1356 C128.5329,15.6246 128.1199,15.2696 127.7379,14.8896 C127.5029,14.6566 127.2999,14.4016 127.2069,14.0766 C127.1499,13.8756 127.1939,13.8196 127.3829,13.8266 L127.3829,13.8266 Z M131.6689,21.3206 C132.0649,21.5416 132.1779,21.9106 131.9849,22.3336 C131.9109,22.4936 131.8059,22.6306 131.6699,22.7446 C131.4479,22.9306 131.2239,23.1136 131.0729,23.3696 C131.0449,23.4166 130.9949,23.4746 130.9479,23.4816 C130.4709,23.5566 130.0269,23.7786 129.5399,23.8066 C129.1659,23.8276 129.0659,23.7236 129.1069,23.3506 C129.1469,22.9816 129.2379,22.6316 129.4979,22.3426 C129.6479,22.1756 129.6489,21.7386 129.5259,21.5496 C129.4419,21.4226 129.3139,21.4336 129.1889,21.4316 C128.4889,21.4206 128.4929,21.4196 128.3419,20.7436 C128.2299,20.2446 128.0709,19.7546 128.1179,19.2336 C128.1179,19.0506 128.1139,18.8666 128.1199,18.6836 C128.1259,18.4906 128.2169,18.4466 128.3829,18.5466 C128.7579,18.7706 129.0989,19.0386 129.4099,19.3446 C129.8509,19.7776 130.2909,20.2106 130.7369,20.6386 C131.0159,20.9086 131.3299,21.1306 131.6689,21.3206 L131.6689,21.3206 Z M132.3289,24.7946 C132.3459,24.9466 132.3319,25.1006 132.3319,25.2546 C132.3399,25.7596 132.2309,26.2466 132.1129,26.7336 C132.0949,26.8116 132.1059,26.9256 131.9909,26.9386 C131.9009,26.9486 131.8659,26.8576 131.8299,26.7936 C131.6639,26.5026 131.5219,26.2016 131.2299,25.9966 C131.0939,25.9016 131.1519,25.4056 131.2959,25.2076 C131.4779,24.9596 131.7369,24.7776 131.8939,24.5066 C131.9239,24.4546 131.9859,24.4226 132.0429,24.4556 C132.1769,24.5336 132.3109,24.6256 132.3289,24.7946 L132.3289,24.7946 Z M132.7559,43.8616 C133.1259,44.0326 133.1239,44.3646 133.1299,44.6966 C133.1289,44.9176 133.1099,45.1376 133.0529,45.3516 C133.0389,45.4066 133.0139,45.4656 132.9429,45.4666 C132.8859,45.4676 132.8629,45.4166 132.8419,45.3756 C132.6259,44.9516 132.4589,44.5126 132.4599,44.0296 C132.4609,43.8066 132.5499,43.7666 132.7559,43.8616 L132.7559,43.8616 Z M132.6259,35.9236 C132.6889,35.9016 132.7379,35.9416 132.7789,35.9826 C132.9309,36.1336 133.0609,36.3006 133.1659,36.4866 C133.4539,36.9896 133.6019,37.5336 133.6579,38.0996 C133.6189,38.2606 133.7059,38.4946 133.5399,38.5456 C133.4119,38.5846 133.3089,38.3716 133.2209,38.2486 C132.7649,37.6036 132.6129,36.8616 132.5509,36.0926 C132.5449,36.0246 132.5469,35.9506 132.6259,35.9236 L132.6259,35.9236 Z M133.6789,23.8536 C133.6939,23.7586 133.6939,23.6456 133.8149,23.6266 C133.9279,23.6086 133.9839,23.7026 134.0329,23.7866 C134.2019,24.0776 134.2569,24.4036 134.2929,24.7286 C134.3629,25.3436 134.3889,25.9596 134.3219,26.5776 C134.2879,26.8956 134.3269,27.2136 134.3489,27.5316 C134.3649,27.7936 134.3559,28.0556 134.1969,28.2836 C134.1429,28.3636 134.0769,28.4516 133.9699,28.4386 C133.8349,28.4236 133.8639,28.2966 133.8489,28.2086 C133.6709,27.2366 133.6239,26.2546 133.6129,25.2696 C133.6139,24.7966 133.6049,24.3236 133.6789,23.8536 L133.6789,23.8536 Z M131.1869,43.7516 C131.0759,43.9916 130.9409,43.9986 130.7909,43.7786 C130.6859,43.6216 130.6399,43.4416 130.6299,43.2596 C130.5989,42.6936 130.4639,42.1846 130.1199,41.7026 C129.7439,41.1736 129.6689,40.5016 129.4709,39.8886 C129.4579,39.8526 129.4459,39.8146 129.4429,39.7766 C129.4309,39.6646 129.2709,39.5206 129.4409,39.4506 C129.5969,39.3856 129.8059,39.4086 129.9099,39.5716 C130.2499,40.1016 130.6909,40.5506 131.0699,41.0486 C131.2229,41.2486 131.1659,41.4706 131.1579,41.6886 C131.1939,42.1016 131.2299,42.5136 131.2619,42.9266 C131.2829,43.2056 131.3069,43.4866 131.1869,43.7516 L131.1869,43.7516 Z M128.9189,26.0196 C128.8959,25.9196 128.7849,25.7736 128.9439,25.7186 C129.1009,25.6636 129.3549,25.6126 129.4279,25.7686 C129.7579,26.4786 130.2239,27.1386 130.3029,27.9496 C130.3089,28.1296 130.2689,28.2966 130.1829,28.4516 C130.0649,28.6676 129.9979,28.6716 129.8689,28.4626 C129.5029,27.8656 129.2889,27.2056 129.0759,26.5456 C129.0199,26.3716 128.9619,26.1976 128.9189,26.0196 L128.9189,26.0196 Z M134.3469,44.7396 C134.4449,44.6956 134.5039,44.7896 134.5639,44.8466 C134.8229,45.0926 134.9649,45.4096 135.0879,45.7366 C135.2429,46.1516 135.3709,46.5786 135.6499,46.9366 C135.6979,47.0006 135.7319,47.0756 135.6769,47.1496 C135.6149,47.2336 135.5269,47.2226 135.4399,47.1936 C135.2379,47.1256 135.1229,46.9786 135.0819,46.7756 C135.0559,46.6486 135.0129,46.5356 134.9109,46.4506 C134.4499,46.0656 134.3449,45.5286 134.2829,44.9626 C134.2879,44.8896 134.2479,44.7836 134.3469,44.7396 L134.3469,44.7396 Z M111.3269,43.9506 C111.1619,44.9946 110.4829,45.5736 109.5609,45.9046 C108.2939,46.3596 107.0089,46.3716 105.7279,45.9386 C105.6999,45.9296 105.6719,45.9216 105.6469,45.9086 C105.6309,45.8996 105.6189,45.8826 105.5689,45.8316 C105.9119,45.7136 106.2299,45.6076 106.5279,45.4536 C107.0539,45.1826 107.5489,44.8756 107.9249,44.3996 C108.4589,43.7246 108.6009,42.9886 108.3409,42.1686 C108.2139,41.7696 108.2299,41.7496 108.6239,41.6126 C110.2409,41.0476 111.5989,42.2286 111.3269,43.9506 L111.3269,43.9506 Z M85.9309,52.3206 C86.2789,51.5876 86.2449,50.8546 85.7509,50.1866 C85.5799,49.9556 85.6509,49.8746 85.8849,49.8206 C86.6359,49.6466 87.3909,49.6266 88.1559,49.7126 C89.3179,49.8436 90.4069,50.2326 91.5099,50.5836 C91.7069,50.6456 91.6959,50.7436 91.5909,50.8796 C91.4439,51.0736 91.2699,51.2386 91.0739,51.3816 C90.6249,51.7106 90.1239,51.9366 89.6049,52.1186 C88.4829,52.5136 87.3979,52.9856 86.3529,53.5536 C85.5579,53.9856 84.7319,54.3316 83.7919,54.2356 C83.5819,54.2146 83.3779,54.1826 83.1949,54.0786 C84.4829,54.0606 85.3899,53.4616 85.9309,52.3206 L85.9309,52.3206 Z M147.0609,80.3166 C145.9699,80.2986 144.8799,80.3116 143.7899,80.2006 C142.6359,80.0826 141.4909,79.9196 140.3699,79.6176 C139.9659,79.5086 139.8579,79.1926 140.1109,78.8546 C140.2199,78.7086 140.3639,78.5896 140.4879,78.4536 C140.5489,78.3866 140.6539,78.3106 140.5589,78.2116 C140.4819,78.1326 140.3969,78.2066 140.3269,78.2566 C140.0179,78.4766 139.7499,78.7416 139.5249,79.0456 C139.4099,79.1996 139.3059,79.2526 139.1119,79.1726 C138.7429,79.0206 138.3479,79.0766 137.9649,79.0966 C137.4799,79.1226 137.0369,79.0386 136.5989,78.8116 C135.9599,78.4816 135.2429,78.5456 134.5529,78.5206 C133.5399,78.4856 132.5239,78.5336 131.5219,78.3346 C131.0729,78.2446 130.6769,78.0616 130.4049,77.6716 C130.0299,77.1346 129.5389,76.8436 128.8609,76.8866 C128.4519,76.9126 128.0819,76.7836 127.7709,76.5016 C127.3039,76.0806 126.7059,76.0696 126.1339,76.0286 C125.4029,75.9766 124.6669,75.9896 123.9399,76.1236 C123.8559,76.1396 123.7529,76.1636 123.6829,76.1326 C123.3289,75.9726 122.9979,76.0486 122.6449,76.1556 C122.2179,76.2846 121.9459,76.1106 121.7119,75.6406 C121.6579,75.5336 121.6439,75.3746 121.4729,75.3986 C121.3299,75.4176 121.2819,75.5506 121.2379,75.6676 C121.2129,75.7296 121.2039,75.7976 121.1879,75.8636 C121.0619,76.3856 120.8239,76.5036 120.3239,76.2896 C120.0919,76.1916 119.9199,76.0236 119.8239,75.7906 C119.7499,75.6126 119.6219,75.5306 119.4369,75.4866 C118.3719,75.2356 117.5649,74.6796 117.2269,73.5826 C117.2009,73.4996 117.1739,73.4006 117.0699,73.3966 C116.9579,73.3916 116.9459,73.4976 116.9159,73.5776 C116.2099,75.4876 115.8929,77.4726 115.7499,79.4946 C115.6429,81.0276 115.6319,82.5616 115.5749,84.0956 C115.4789,86.7116 114.3439,88.7806 112.1319,90.2266 C111.9249,90.3616 111.7079,90.4336 111.4579,90.4586 C110.5479,90.5536 109.7639,90.9576 109.0349,91.4886 C108.5989,91.8076 108.1749,92.1476 107.7189,92.4366 C106.0349,93.5026 104.2869,93.4536 102.5139,92.6826 C101.6529,92.3076 100.8549,91.8156 100.0639,91.3136 C99.9099,91.2166 99.8109,91.0866 99.7389,90.9196 C99.0539,89.3266 98.7279,87.6596 98.7359,85.9296 C98.7379,85.5686 98.6159,85.3716 98.2979,85.2096 C97.7149,84.9106 97.1159,84.6336 96.5879,84.2366 C96.2689,83.9946 95.9839,83.7216 95.7959,83.3646 C95.7059,83.1936 95.5789,83.1396 95.3989,83.1396 C95.0009,83.1386 94.6069,83.1566 94.2149,83.2286 C93.7119,83.3206 93.2029,83.3766 92.6929,83.4146 C91.7659,83.4836 91.0139,82.9976 90.6939,82.1186 C90.5709,81.7806 90.5239,81.4256 90.4409,81.0776 C90.3889,80.8656 90.2929,80.7246 90.0579,80.7186 C89.9229,80.7156 89.8239,80.6396 89.7249,80.5596 C89.0939,80.0526 88.7979,79.3616 88.6619,78.5906 C88.4459,77.3706 88.5479,76.1446 88.6309,74.9216 C88.7419,73.2946 88.5739,71.7056 88.0619,70.1506 C87.3169,67.8926 86.0139,65.9686 84.5519,64.1316 C83.4329,62.7256 82.1939,61.4216 81.0939,59.9996 C81.0479,59.9406 81.0069,59.8776 80.9269,59.7626 C81.1909,59.7626 81.4059,59.7646 81.6209,59.7616 C84.3629,59.7246 86.6509,58.6806 88.5539,56.7116 C89.7779,55.4446 90.7409,53.9896 91.7529,52.5666 C92.1229,52.0476 92.5019,51.5346 92.8799,51.0216 C92.9209,50.9656 92.9519,50.8636 93.0529,50.9056 C93.1239,50.9346 93.1139,51.0186 93.1229,51.0846 C93.1549,51.3356 93.0709,51.5596 92.9529,51.7746 C92.8989,51.8736 92.7989,51.9746 92.8999,52.0876 C92.9859,52.1836 93.1009,52.1276 93.1959,52.0866 C93.7419,51.8536 93.9319,51.7726 93.9729,52.5516 C93.9789,52.6646 94.0199,52.7776 94.0539,52.8886 C94.2329,53.4716 94.7239,53.5906 95.1739,53.1586 C95.3159,53.0226 95.4179,52.8576 95.4859,52.6756 C95.5569,52.4806 95.6659,52.4616 95.8449,52.5446 C96.3149,52.7646 96.6549,53.1286 96.9699,53.5246 C97.2099,53.8266 97.4459,54.1326 97.6949,54.4276 C97.9539,54.7346 98.2789,54.9526 98.6399,55.1316 C98.8809,55.2506 99.0619,55.2356 99.2079,55.0016 C99.2959,54.8596 99.3669,54.8696 99.4599,55.0086 C99.5669,55.1686 99.6899,55.3186 99.8159,55.4646 C99.9419,55.6126 100.0919,55.7336 100.2669,55.8236 C100.8539,56.1236 101.3789,55.8286 101.3989,55.1696 C101.4139,54.6546 101.3089,54.1506 101.1739,53.6556 C100.8899,52.6086 100.3239,51.7166 99.6449,50.8876 C98.9499,50.0426 98.1809,49.2716 97.3689,48.5376 C96.9839,48.1886 96.6079,47.8246 96.2529,47.4426 C95.4119,46.5376 94.3209,46.1586 93.1539,45.9496 C91.6829,45.6866 90.2339,45.8956 88.7869,46.1906 C87.4599,46.4606 86.1649,46.8476 84.8589,47.1886 C84.2809,47.3396 83.7339,47.6036 83.1569,47.7586 C82.4749,47.9416 81.7819,47.9996 81.1649,47.5266 C80.9989,47.3996 80.8259,47.4116 80.6459,47.4926 C80.4519,47.5796 80.2599,47.6676 80.0619,47.7436 C79.9619,47.7816 79.8459,47.7996 79.7729,47.6896 C79.7079,47.5916 79.7229,47.4786 79.7849,47.3886 C79.8559,47.2866 79.9419,47.1916 80.0329,47.1086 C80.1629,46.9906 80.2819,46.8636 80.3569,46.7036 C80.4659,46.4696 80.4149,46.2736 80.1959,46.1256 C79.7159,45.8046 79.4809,45.8566 79.1469,46.3596 C78.9019,46.7276 78.7709,46.7616 78.4459,46.5466 C78.3609,46.4886 78.3029,46.4206 78.2919,46.3156 C78.1899,45.2686 77.6809,44.3976 77.0999,43.5556 C76.7209,43.0086 76.3349,42.4646 76.0579,41.8536 C75.6629,40.9866 75.5789,40.0926 75.7989,39.1666 C75.8209,39.0736 75.8469,38.9796 75.8669,38.8856 C75.8879,38.7926 75.9269,38.6916 75.8179,38.6256 C75.7209,38.5686 75.6299,38.6126 75.5449,38.6606 C75.3909,38.7466 75.2789,38.8826 75.1529,39.0016 C75.1049,39.0466 75.0579,39.1166 74.9829,39.0846 C74.8999,39.0496 74.9279,38.9666 74.9399,38.9046 C75.1429,37.8486 74.9039,36.8076 74.8399,35.7616 C74.8279,35.5686 74.8109,35.3766 74.8059,35.1836 C74.8039,35.1116 74.7709,35.0056 74.8619,34.9786 C74.9689,34.9466 75.0009,35.0636 75.0389,35.1336 C75.1089,35.2606 75.1619,35.3956 75.2209,35.5276 C75.2769,35.6506 75.3209,35.7806 75.3879,35.8966 C75.4719,36.0436 75.5449,36.2676 75.7389,36.2326 C75.9579,36.1936 75.9379,35.9416 75.9449,35.7726 C75.9579,35.4056 75.7749,35.1076 75.5369,34.8416 C75.2969,34.5736 74.9899,34.3826 74.7249,34.1446 C74.1049,33.5896 74.1139,33.1176 74.7649,32.5896 C75.1239,32.2976 75.5239,32.0566 75.8569,31.7306 C76.0929,31.4976 76.3049,31.2476 76.3969,30.9206 C76.4689,30.6606 76.3589,30.5286 76.0899,30.5506 C75.8529,30.5696 75.6789,30.7066 75.5299,30.8786 C75.3659,31.0686 75.2159,31.2706 75.0439,31.4536 C74.8149,31.7006 74.4079,31.8466 74.2719,31.7126 C74.0409,31.4886 74.1969,31.2216 74.2749,30.9856 C74.4039,30.5916 74.7169,30.3396 75.0329,30.0956 C75.4129,29.8016 75.8459,29.5626 76.0849,29.1186 C76.1469,29.0066 76.2819,28.8916 76.1839,28.7536 C76.0859,28.6166 75.9169,28.5976 75.7609,28.6256 C75.6399,28.6466 75.5209,28.6956 75.4089,28.7506 C75.2799,28.8146 75.1619,28.9026 75.0369,28.9746 C74.8599,29.0766 74.6619,29.1996 74.4669,29.0986 C74.2699,28.9966 74.3609,28.7666 74.3559,28.5936 C74.3269,27.3326 74.7539,26.1846 75.2499,25.0566 C75.6269,24.1996 76.0369,23.3566 76.2789,22.4466 C76.3179,22.3006 76.4049,22.2116 76.5699,22.2176 C76.6479,22.2206 76.7339,22.2166 76.7509,22.1166 C76.7699,22.0116 76.6999,21.9446 76.6109,21.9296 C76.3979,21.8936 76.4329,21.7876 76.5009,21.6426 C76.7179,21.1796 76.9299,20.7136 77.2349,20.2976 C77.5679,19.8426 77.9819,19.5166 78.5649,19.4636 C78.7549,19.4466 78.8789,19.3516 78.9809,19.1916 C79.1459,18.9316 79.2919,18.6546 79.5339,18.4536 C79.6869,18.3266 79.8389,18.2446 79.9129,18.5316 C79.9359,18.6196 79.9859,18.6976 80.0919,18.6866 C80.2159,18.6746 80.2339,18.5736 80.2469,18.4746 C80.2509,18.4456 80.2519,18.4166 80.2549,18.3876 C80.3199,17.7266 80.5989,17.4886 81.2649,17.5186 C81.3729,17.5236 81.4449,17.5776 81.5009,17.6616 C81.5499,17.7336 81.5909,17.8106 81.6429,17.8806 C81.7679,18.0466 81.9259,18.1636 82.1389,18.0676 C82.3409,17.9766 82.4009,17.7976 82.3579,17.5826 C82.3519,17.5546 82.3459,17.5266 82.3419,17.4976 C82.3259,17.3506 82.2279,17.1676 82.4209,17.0866 C82.6059,17.0096 82.7229,17.1636 82.8249,17.2936 C82.9089,17.3996 82.9779,17.5166 83.0639,17.6206 C83.1379,17.7096 83.2259,17.7986 83.3599,17.7576 C83.4999,17.7136 83.5949,17.6116 83.6099,17.4666 C83.6239,17.3146 83.6119,17.1596 83.6119,16.9736 C83.8599,17.0846 83.9999,17.2786 84.1509,17.4526 C84.7369,18.1346 84.7339,18.1376 85.5659,17.7966 C86.0559,17.5946 86.5599,17.4156 86.9819,17.0806 C87.1199,16.9706 87.2469,17.0086 87.3839,17.0816 C88.6299,17.7436 89.8389,18.4666 90.9719,19.3126 C92.9229,20.7716 94.6129,22.4776 95.9199,24.5446 C96.0389,24.7346 96.1419,24.7326 96.2689,24.5636 C96.4719,24.2946 96.5319,24.0126 96.3669,23.6996 C96.1779,23.3366 95.8979,23.0386 95.6679,22.7056 C95.5299,22.5056 95.3999,22.3036 95.3309,22.0686 C95.3109,21.9996 95.2519,21.9076 95.3479,21.8646 C95.4259,21.8286 95.4519,21.9256 95.4919,21.9756 C95.5279,22.0216 95.5579,22.0716 95.5959,22.1146 C95.6519,22.1766 95.7219,22.2096 95.8039,22.1766 C95.8729,22.1476 95.8969,22.0826 95.9039,22.0126 C95.9309,21.7626 95.8729,21.5336 95.7389,21.3216 C95.5459,21.0146 95.2869,20.7696 95.0019,20.5516 C94.5659,20.2166 94.1219,19.8956 93.8189,19.4156 C93.6939,19.2186 93.4449,19.1496 93.2389,19.0436 C92.4659,18.6436 91.6899,18.2486 91.0989,17.5826 C91.0479,17.5256 90.9949,17.4686 90.9489,17.4066 C90.9349,17.3876 90.9389,17.3546 90.9289,17.3006 C91.4419,17.3906 91.9049,17.5626 92.3369,17.8216 C92.8989,18.1586 93.3499,18.6216 93.8029,19.0856 C94.2889,19.5816 94.7649,20.0896 95.3319,20.5006 C95.5219,20.6386 95.6959,20.6806 95.9219,20.5926 C96.2929,20.4456 96.6639,20.5336 97.0289,20.6416 C97.1469,20.6766 97.2199,20.7676 97.2789,20.8696 C97.6729,21.5456 97.9949,22.2416 97.9079,23.0566 C97.9009,23.1356 97.8999,23.2166 97.9879,23.2556 C98.0689,23.2906 98.1369,23.2496 98.1999,23.2016 C98.3369,23.0996 98.4109,22.9536 98.4909,22.8096 C98.5519,22.7006 98.6179,22.5916 98.6999,22.4996 C98.8229,22.3616 98.9529,22.3596 99.0469,22.5346 C99.1529,22.7306 99.2489,22.9306 99.3479,23.1296 C99.8329,24.1056 100.2599,25.1136 100.9269,25.9906 C101.3349,26.5276 101.8139,26.9876 102.4159,27.2966 C102.6489,27.4166 102.7819,27.5906 102.8879,27.8176 C103.5509,29.2376 104.2939,30.6106 105.2439,31.8656 C106.1589,33.0726 107.2559,34.0756 108.5449,34.8686 C108.5929,34.8986 108.6549,34.9126 108.6779,34.9946 C108.5929,35.0856 108.4869,35.0276 108.3929,35.0176 C108.2439,35.0026 108.1179,35.0396 108.0469,35.1746 C107.9689,35.3196 108.0789,35.4066 108.1699,35.4936 C108.6089,35.9206 109.1369,36.1976 109.7109,36.3866 C110.4579,36.6336 111.2289,36.7556 112.0129,36.8046 C112.2649,36.8196 112.4879,37.1746 112.3879,37.4056 C112.3399,37.5156 112.2569,37.4556 112.1909,37.4346 C111.0769,37.0846 109.9619,37.1326 108.8459,37.4116 C108.2029,37.5736 107.5989,37.8226 107.0509,38.1996 C106.7109,38.4326 106.4309,38.7156 106.2959,39.1236 C106.1909,39.4436 105.9759,39.6716 105.6559,39.7916 C105.3159,39.9196 105.0339,40.1306 104.7729,40.3816 C103.7649,41.3486 102.9099,42.4216 102.4559,43.7656 C102.2249,44.4536 102.1899,45.1446 102.4759,45.8326 C102.6959,46.3596 102.7799,46.3866 103.2379,46.0596 C103.2899,46.0646 103.2979,46.1046 103.2959,46.1426 C103.2559,47.0566 103.6979,47.7586 104.3159,48.3626 C104.7639,48.8006 105.2539,49.1956 105.7249,49.6106 C105.8249,49.6996 105.9379,49.7376 106.0709,49.7226 C107.3949,49.5746 108.7219,49.4426 109.9879,48.9866 C111.4729,48.4526 112.4979,47.5016 112.8309,45.9056 C112.8999,45.5756 112.9439,45.5586 113.2599,45.6706 C113.6399,45.8046 113.9249,46.0526 114.1419,46.3876 C114.5409,47.0066 114.7759,47.7106 115.1579,48.3386 C115.4149,48.7586 115.6629,49.1846 115.8639,49.6356 C116.2359,50.4666 116.3429,51.3186 116.0829,52.2036 C115.9469,52.6686 115.9949,53.1316 116.1879,53.5636 C116.6909,54.6926 116.8949,55.8826 116.9879,57.1036 C117.0249,57.5736 117.1329,58.0376 117.2149,58.5026 C117.2349,58.6136 117.2589,58.7636 117.4119,58.7386 C117.5459,58.7156 117.5159,58.5716 117.5209,58.4706 C117.5599,57.6796 117.5739,56.8876 117.6889,56.1016 C117.7369,55.7636 117.8229,55.4386 117.9959,55.1436 C118.1779,54.8346 118.3599,54.7726 118.7019,54.8876 C118.8989,54.9526 119.0599,55.0736 119.2079,55.2156 C119.2829,55.2886 119.3189,55.3686 119.2959,55.4746 C119.0859,56.4876 119.0609,57.5276 118.8409,58.5376 C118.7999,58.7256 118.7389,58.9086 118.6859,59.0946 C118.6649,59.1676 118.6159,59.2526 118.6979,59.3056 C118.7899,59.3656 118.8629,59.2936 118.9219,59.2286 C119.1009,59.0306 119.2099,58.7956 119.2759,58.5396 C119.3689,58.1756 119.4459,57.8056 119.5549,57.4456 C119.6219,57.2196 119.7039,56.8956 119.9619,56.9136 C120.1959,56.9296 120.2289,57.2616 120.2729,57.4806 C120.4249,58.2566 120.2779,58.9986 119.9679,59.7136 C119.8289,60.0326 119.6679,60.3406 119.5289,60.6586 C119.4379,60.8716 119.2989,60.9786 119.0609,60.9626 C118.8849,60.9506 118.7359,60.9876 118.7089,61.2106 C118.6809,61.4506 118.5329,61.7106 118.8669,61.8586 C118.9109,61.8776 118.9549,61.9046 119.0009,61.9136 C119.5619,62.0226 119.4919,62.2476 119.3529,62.6696 C119.2919,62.8526 119.2039,63.0276 119.1919,63.2236 C119.1829,63.3636 119.1999,63.4986 119.3419,63.5736 C119.4899,63.6526 119.6299,63.6136 119.7379,63.5016 C119.8569,63.3796 119.9429,63.2196 120.1579,63.3446 C120.2119,63.3756 120.2799,63.3056 120.3249,63.2526 C120.8609,62.6066 121.5839,62.2356 122.3319,61.9176 C122.6959,61.7626 122.9559,61.5376 123.1719,61.2086 C123.8989,60.1026 124.6509,59.0136 125.2299,57.8186 C125.7019,56.8396 126.0629,55.8246 126.2479,54.7496 C126.2699,54.6246 126.2479,54.4526 126.4399,54.4416 C126.6129,54.4306 126.7289,54.5436 126.7979,54.6906 C126.9049,54.9186 126.8979,55.1646 126.8619,55.4036 C126.8089,55.7566 126.7309,56.1066 126.5279,56.4116 C126.4679,56.5016 126.4229,56.5976 126.4199,56.7076 C126.3959,57.9106 125.9149,58.9546 125.2839,59.9446 C124.9829,60.4166 124.6889,60.8936 124.4539,61.4046 C124.3809,61.5646 124.2619,61.6656 124.1079,61.7356 C123.9199,61.8216 123.7569,61.9396 123.6269,62.0996 C123.5709,62.1666 123.5099,62.2406 123.5629,62.3326 C123.6159,62.4276 123.7089,62.4066 123.7959,62.3936 C124.5149,62.2816 125.1359,61.9646 125.6669,61.4756 C126.4469,60.7596 126.9289,59.8516 127.3139,58.8816 C127.4589,58.5156 127.5769,58.1396 127.7219,57.7566 C127.8969,58.1106 127.9789,58.4896 128.0309,58.8716 C128.2989,60.8436 128.2139,62.8226 128.1209,64.7996 C128.0679,65.9476 128.0609,67.0966 128.0369,68.2446 C128.0259,68.8156 127.9679,69.3816 127.8249,69.9366 C127.8019,70.0276 127.7539,70.1346 127.8709,70.1926 C127.9629,70.2396 128.0339,70.1696 128.1009,70.1126 C128.1219,70.0936 128.1509,70.0746 128.1599,70.0496 C128.3799,69.5026 128.8209,69.0696 128.9179,68.4536 C129.1839,66.7556 129.5269,65.0716 129.9339,63.4016 C130.1949,62.3316 130.4869,61.2716 130.8459,60.2306 C130.8929,60.0956 130.8719,59.9666 130.8549,59.8316 C130.8009,59.4236 130.8209,59.0216 130.9939,58.6386 C131.0239,58.5726 131.0549,58.4726 131.1489,58.4916 C131.2479,58.5116 131.2169,58.6156 131.2199,58.6866 C131.2649,59.5666 131.2009,60.4456 131.1469,61.3216 C131.0929,62.1846 131.1959,63.0376 131.2439,63.8946 C131.2479,63.9706 131.2519,64.0636 131.3479,64.0786 C131.4669,64.0956 131.5149,63.9976 131.5549,63.9096 C131.8029,63.3586 131.9419,62.7806 132.0039,62.1796 C132.0969,61.2846 132.1119,60.3876 132.1129,59.4896 C132.1129,58.8616 132.1289,58.2346 132.1599,57.6076 C132.2149,56.5026 132.1499,55.4046 131.7799,54.3476 C131.6979,54.1126 131.7829,53.9806 131.9789,53.8776 C132.3199,53.6996 132.7219,53.7796 132.9849,54.0616 C133.5099,54.6256 134.1959,54.8736 134.9279,55.0116 C135.1439,55.0526 135.3219,55.1116 135.4749,55.2896 C135.7019,55.5556 136.0399,55.6506 136.3599,55.7616 C136.6089,55.8486 136.8489,55.9436 137.0109,56.1676 C137.0519,56.2246 137.1089,56.2696 137.1789,56.2726 C137.7319,56.2946 138.2549,56.4986 138.8049,56.5446 C138.8429,56.5476 138.8819,56.5516 138.9199,56.5486 C139.0319,56.5406 139.1769,56.5686 139.2029,56.4156 C139.2259,56.2836 139.0939,56.2506 139.0029,56.2006 C138.5689,55.9586 138.0969,55.8146 137.6139,55.7126 C137.2729,55.6406 136.9979,55.4936 136.7599,55.2216 C136.0339,54.3916 135.3199,53.5506 134.7259,52.6226 C133.8909,51.3176 133.7689,49.8986 134.2139,48.4226 C134.2759,48.2206 134.3959,48.1446 134.6009,48.1656 C134.7709,48.1826 134.9229,48.2386 135.0489,48.3486 C135.3269,48.5926 135.5619,48.8886 135.7379,49.1996 C135.9049,49.4906 135.8209,49.8616 135.7569,50.1926 C135.6349,50.8176 135.4869,51.4376 135.3599,52.0616 C135.3229,52.2406 135.3189,52.4266 135.3119,52.6086 C135.3079,52.7026 135.3139,52.8146 135.4269,52.8516 C135.5489,52.8906 135.5899,52.7806 135.6509,52.7086 C136.3009,51.9316 136.7809,51.0466 137.2169,50.1426 C137.4649,49.6296 137.7609,49.3876 138.3629,49.3436 C139.4879,49.2616 140.5709,48.9626 141.4819,48.2336 C141.9079,47.8916 142.2049,47.4606 142.3849,46.9476 C142.4129,46.8646 142.4509,46.7696 142.3629,46.7086 C142.2709,46.6436 142.2029,46.7306 142.1379,46.7836 C141.7769,47.0746 141.4219,47.3726 141.0559,47.6566 C140.3319,48.2166 139.5419,48.4576 138.6439,48.1196 C138.4649,48.0526 138.3049,48.0796 138.1599,48.2096 C138.0109,48.3456 137.8959,48.2966 137.7719,48.1536 C137.5399,47.8856 137.4039,47.6006 137.4569,47.2326 C137.6209,46.0886 137.3049,45.0576 136.7159,44.0866 C136.4609,43.6646 136.2679,43.2096 136.1539,42.7256 C136.0779,42.4066 136.1209,42.3586 136.4479,42.3496 C137.2789,42.3256 138.0739,42.1486 138.8409,41.8286 C139.2409,41.6606 139.6429,41.4936 140.0629,41.3756 C140.2419,41.3256 140.3549,41.2236 140.4249,41.0406 C140.5679,40.6646 140.8279,40.3616 141.0929,40.0656 C141.4369,39.6816 141.6799,39.2506 141.7239,38.7286 C141.7349,38.6036 141.7899,38.4296 141.6329,38.3656 C141.4929,38.3086 141.4179,38.4616 141.3329,38.5476 C141.0009,38.8876 140.8209,39.3196 140.6339,39.7416 C140.4939,40.0566 140.2909,40.2086 139.9419,40.2546 C138.2529,40.4776 136.5899,40.3996 134.9509,39.9176 C134.5439,39.7976 134.5339,39.7786 134.6109,39.3746 C134.9429,37.6146 134.6359,35.9366 133.9399,34.3146 C133.8329,34.0676 133.8409,33.8706 133.9799,33.6376 C134.4169,32.8986 134.8149,32.1356 135.3799,31.4776 C135.5969,31.2266 135.8289,31.0826 136.1839,31.0446 C137.4349,30.9086 138.5619,30.4706 139.4559,29.5406 C139.7539,29.2306 139.9669,28.8636 140.1819,28.4966 C140.2519,28.3756 140.2369,28.2626 140.1979,28.1366 C140.1229,27.8836 140.1009,27.6236 140.1639,27.3636 C140.1959,27.2316 140.2879,27.1476 140.3719,27.2966 C140.5479,27.6046 140.7749,27.6556 141.0759,27.5156 C141.3899,27.3706 141.6039,27.0296 141.5829,26.7026 C141.5599,26.3236 141.2909,26.0336 140.9119,25.9756 C140.5689,25.9236 140.3529,26.0556 140.2479,26.3856 C140.2279,26.4496 140.2179,26.5166 140.1979,26.5816 C140.1659,26.6846 140.1299,26.8006 139.9979,26.7936 C139.8629,26.7856 139.8369,26.6656 139.8289,26.5586 C139.8199,26.4146 139.8259,26.2696 139.8259,26.1246 C139.8269,26.0336 139.8759,25.9156 139.7429,25.8816 C139.6309,25.8536 139.5729,25.9506 139.5159,26.0276 C139.3389,26.2656 139.2259,26.5426 139.1909,26.8256 C139.1129,27.4366 138.8259,27.8636 138.2559,28.1066 C138.1079,28.1696 137.9549,28.2656 137.8549,28.3876 C137.5019,28.8166 137.0329,28.7436 136.5749,28.7106 C136.3039,28.6916 136.1729,28.5486 136.1739,28.2536 C136.1789,26.9596 136.1769,25.6656 136.1239,24.3726 C136.0699,23.0276 135.9059,21.6986 135.5719,20.3926 C135.5469,20.2896 135.5269,20.1796 135.4749,20.0906 C135.1549,19.5356 134.9879,18.9426 134.9339,18.3046 C134.9109,18.0486 134.7379,17.8256 134.6129,17.5966 C133.8569,16.1966 132.8589,14.9636 131.9169,13.6906 C131.6399,13.3156 131.3229,13.0376 130.8889,12.8476 C130.1229,12.5126 129.4679,11.9926 128.8359,11.4506 C127.9439,10.6816 127.0739,9.8846 126.0579,9.2736 C125.8659,9.1586 125.8859,9.0556 126.0069,8.8816 C126.2139,8.5836 126.4839,8.5466 126.7949,8.6166 C127.0209,8.6656 127.2419,8.7376 127.4669,8.7926 C127.5739,8.8196 127.7009,8.8906 127.7859,8.7676 C127.8609,8.6596 127.7609,8.5706 127.7119,8.4796 C127.0699,7.2936 126.0119,6.5746 124.8549,5.9846 C123.8649,5.4806 122.8539,5.0236 121.8559,4.5356 C121.6749,4.4476 121.4109,4.3926 121.4299,4.1226 C121.4489,3.8316 121.7049,3.7496 121.9399,3.6806 C122.2099,3.6016 122.4819,3.5346 122.6889,3.3246 C122.7439,3.2666 122.8229,3.2476 122.9029,3.2476 C123.4339,3.2466 123.9289,3.0736 124.4249,2.9166 C125.1349,2.6926 125.7929,2.7336 126.3909,3.2236 C126.5619,3.3646 126.7579,3.4716 126.9709,3.5456 C127.1009,3.5906 127.2339,3.6176 127.3689,3.5876 C127.5109,3.5556 127.6819,3.5246 127.6759,3.3396 C127.6689,3.1556 127.5009,3.1176 127.3539,3.1226 C127.1509,3.1286 127.0139,3.0276 126.8669,2.9076 C125.0839,1.4336 123.0589,0.9426 120.7959,1.4166 C120.5739,1.4626 120.3779,1.5626 120.1829,1.6696 C119.5339,2.0246 118.9759,1.8586 118.6389,1.1946 C118.4459,0.8156 118.3169,0.4096 118.2019,-0.0004 L112.4649,-0.0004 C112.2999,0.1676 112.1169,0.3066 111.9919,0.5266 C111.8839,0.7206 111.6219,0.6226 111.4309,0.6036 C111.2519,0.5866 111.2659,0.4216 111.2609,0.2866 C111.2579,0.1916 111.2529,0.0956 111.2479,-0.0004 L37.8279,-0.0004 C37.7809,0.3476 37.6479,0.6216 37.3389,0.8386 C36.7699,1.2386 36.5649,1.8766 36.3619,2.5056 C36.1899,3.0376 36.0639,3.5846 35.8249,4.0956 C35.6969,4.3716 35.5229,4.6086 35.3009,4.8156 C35.1239,4.9816 34.9809,4.9546 34.8429,4.7706 C34.6959,4.5736 34.6069,4.3516 34.5399,4.1176 C34.2119,2.9586 34.0889,1.7696 34.0059,0.5746 C33.9959,0.4366 34.0439,0.2526 33.8569,0.2076 C33.6659,0.1616 33.6029,0.3296 33.5199,0.4636 C33.4039,0.6526 33.3619,0.8486 33.3659,1.0696 C33.3779,1.6286 33.3509,2.1876 33.3949,2.7486 C33.4219,3.0986 33.4819,3.4356 33.6179,3.7606 C33.6479,3.8296 33.6799,3.9106 33.6709,3.9816 C33.5779,4.7396 33.7109,5.4846 33.7879,6.2326 C33.8099,6.4326 33.7469,6.5916 33.6339,6.7416 C33.4369,7.0046 33.2279,7.2596 33.1119,7.5726 C33.0799,7.6586 33.0069,7.7096 32.9289,7.7516 C32.5239,7.9676 32.2439,8.3086 32.0029,8.6876 C31.8369,8.9496 31.6619,9.2046 31.4129,9.3966 C31.1369,9.6076 30.9659,9.5906 30.7469,9.3156 C30.6459,9.1876 30.5719,9.0376 30.4769,8.9056 C30.4089,8.8116 30.3379,8.7166 30.2499,8.6446 C30.0649,8.4936 29.9529,8.5336 29.9099,8.7666 C29.8549,9.0626 29.8679,9.3636 29.9019,9.6616 C29.9419,10.0366 29.9379,10.4136 29.9339,10.7896 C29.9329,10.8666 29.9279,10.9446 29.9139,11.0206 C29.8149,11.5926 29.6409,11.6986 29.0839,11.5326 C28.4979,11.3586 27.9569,11.0776 27.4019,10.8296 C26.5789,10.4616 25.7679,10.3846 24.9709,10.8966 C24.8849,10.9516 24.7559,10.9776 24.7799,11.1176 C24.8009,11.2416 24.9149,11.2716 25.0149,11.3066 C25.2389,11.3846 25.4739,11.3576 25.7039,11.3696 C25.8569,11.3776 26.0359,11.3576 26.1209,11.5136 C26.2119,11.6806 26.0629,11.8056 25.9789,11.9246 C25.6489,12.3886 25.2919,12.8346 25.0009,13.3256 C24.6659,13.8906 24.4679,14.5006 24.4269,15.1596 C24.4219,15.2426 24.3909,15.3486 24.4959,15.3876 C24.5949,15.4246 24.6529,15.3376 24.7119,15.2746 C25.1179,14.8396 25.4039,14.3236 25.6889,13.8076 C25.8209,13.5686 25.9709,13.3756 26.2669,13.3436 C26.3609,13.3326 26.4669,13.3016 26.5349,13.2416 C26.8639,12.9596 27.1869,13.0926 27.5209,13.2266 C27.6969,13.2966 27.6359,13.3946 27.5879,13.5016 C27.3889,13.9426 27.1339,14.3526 26.8699,14.7576 C26.2949,15.6406 25.6329,16.4596 24.9969,17.2986 C24.9449,17.3676 24.8849,17.4586 24.7979,17.4536 C24.5089,17.4366 24.3739,17.6186 24.2359,17.8276 C24.1169,18.0066 23.9429,18.1376 23.7619,18.2486 C23.1309,18.6336 22.6609,19.1836 22.1979,19.7416 C21.7109,20.3286 21.2279,20.9206 20.6039,21.3736 C20.5069,21.4436 20.4389,21.5376 20.3849,21.6406 C19.6619,23.0396 18.7789,24.3476 18.0589,25.7486 C17.2809,27.2626 16.7039,28.8426 16.5489,30.5526 C16.5369,30.6736 16.5179,30.7896 16.4029,30.8496 C15.8789,31.1246 15.5889,31.6086 15.2969,32.0856 C15.0759,32.4446 14.8139,32.7526 14.4769,33.0106 C14.0889,33.3066 13.8199,33.7166 13.5359,34.1056 C12.7289,35.2146 11.9369,36.3366 11.3889,37.6036 C10.8899,38.7576 10.6879,39.9866 10.5249,41.2236 C10.4579,41.7276 10.4449,42.2466 10.1869,42.7076 L10.1869,43.5186 C10.3229,43.6296 10.3559,43.9366 10.5529,43.8726 C10.7779,43.7996 10.6389,43.5306 10.6359,43.3546 C10.6159,42.1156 10.9789,40.9536 11.3279,39.7876 C11.4589,39.3526 11.5869,38.9176 11.7169,38.4826 C11.7649,38.3206 11.8149,38.1756 12.0339,38.1716 C12.2389,38.1676 12.2499,37.9836 12.2849,37.8346 C12.4829,36.9986 12.9619,36.3786 13.7349,35.9836 C13.5809,36.4636 13.4349,36.9166 13.2929,37.3716 C12.9489,38.4726 12.7019,39.5956 12.6829,40.7516 C12.6669,41.6796 12.9059,42.5676 13.2119,43.4366 C13.2399,43.5196 13.2769,43.6226 13.3849,43.5926 C13.4959,43.5616 13.4589,43.4496 13.4479,43.3676 C13.3399,42.5006 13.3639,41.6296 13.4449,40.7646 C13.6379,38.6766 14.1529,36.6786 15.2359,34.8576 C15.2929,34.7616 15.3309,34.5546 15.4719,34.6216 C15.6109,34.6886 15.7479,34.8396 15.7359,35.0386 C15.7229,35.2416 15.6899,35.4426 15.6869,35.6446 C15.6759,36.3786 15.6749,37.1126 15.6659,37.8466 C15.6639,38.0506 15.7769,38.1906 15.9099,38.3206 C16.2639,38.6616 16.6829,38.9196 17.1369,39.0736 C17.7359,39.2756 17.8509,39.7036 17.8909,40.2526 C18.0259,42.0926 17.3809,43.7016 16.4669,45.2376 C16.0709,45.9006 15.6739,46.5636 15.2789,47.2266 C15.2349,47.3006 15.1629,47.3856 15.2559,47.4566 C15.3419,47.5236 15.4209,47.4506 15.4839,47.3906 C15.7229,47.1616 15.8939,46.8806 16.0849,46.6136 C16.2879,46.3286 16.5289,46.1006 16.9069,46.0916 C17.2789,46.0826 17.3689,46.2196 17.1899,46.5436 C16.9869,46.9066 16.7349,47.2416 16.5979,47.6376 C16.5539,47.7646 16.4269,47.9556 16.5709,48.0296 C16.7579,48.1236 16.8029,47.8846 16.8809,47.7676 C17.0679,47.4866 17.2359,47.1926 17.4199,46.9096 C17.5889,46.6506 17.8289,46.4796 18.1159,46.3666 C18.3069,46.2916 18.4139,46.3446 18.4549,46.5406 C18.5289,46.8996 18.6399,47.2566 18.6699,47.6186 C18.8289,49.4936 18.6609,51.3196 17.8209,53.0436 C17.4899,53.7236 16.9359,54.2076 16.4169,54.7216 C15.8979,55.2376 15.3619,55.7416 14.7509,56.1566 C14.6799,56.2046 14.5909,56.2616 14.6349,56.3626 C14.6829,56.4736 14.7949,56.4546 14.8899,56.4366 C15.0579,56.4046 15.1829,56.2966 15.3029,56.1816 C15.4559,56.0356 15.5929,55.8666 15.7869,55.7716 C15.9459,55.6936 16.1149,55.5606 16.2879,55.7316 C16.4569,55.8986 16.4579,56.1606 16.2869,56.3606 C16.0389,56.6496 15.8429,56.9696 15.6849,57.3126 C15.0069,58.7836 14.7749,60.3136 15.0929,61.9116 C15.1629,62.2626 15.2879,62.5986 15.4569,62.9156 C15.5039,63.0026 15.5379,63.1496 15.6759,63.0916 C15.7909,63.0426 15.7219,62.9166 15.7029,62.8306 C15.4979,61.9106 15.5119,60.9906 15.7009,60.0726 C15.9159,59.0356 16.3589,58.1166 17.1539,57.3926 C17.2419,57.3116 17.3209,57.1896 17.4719,57.2376 C17.5619,57.2656 17.6169,57.3366 17.6189,57.4326 C17.6219,57.5916 17.5569,57.7356 17.4089,57.7836 C17.1509,57.8676 17.1159,58.0446 17.1219,58.2786 C17.1329,58.6736 17.1199,59.0696 17.1189,59.4656 C17.1179,59.5486 17.0859,59.6586 17.2009,59.6846 C17.3059,59.7086 17.3499,59.6106 17.3909,59.5356 C17.5939,59.1626 17.7869,58.7836 17.9969,58.4146 C18.2909,57.8986 18.6419,57.4326 19.1559,57.1056 C19.4479,56.9186 19.7319,56.9116 20.0329,57.0516 C20.3239,57.1866 20.6049,57.3466 20.8319,57.5696 C21.6959,58.4136 22.6239,59.1886 23.4599,60.0606 C23.9149,60.5356 24.2339,61.0676 24.2179,61.7576 C24.2119,61.9866 24.1419,62.1606 23.9739,62.3176 C23.0299,63.2036 21.9039,63.7616 20.6809,64.1356 C18.8259,64.7026 16.9289,64.9336 14.9889,64.8066 C14.8439,64.7976 14.6009,64.7626 14.5829,64.9076 C14.5649,65.0566 14.8089,65.0286 14.9389,65.0556 C15.5239,65.1786 16.1229,65.2166 16.6969,65.4056 C16.9759,65.4966 17.2729,65.3976 17.5569,65.3436 C18.7229,65.1226 19.8869,64.8926 21.0539,64.6756 C21.5769,64.5776 22.1069,64.5306 22.6399,64.5576 C22.7849,64.5656 22.9849,64.5036 23.0559,64.6746 C23.1189,64.8266 22.9489,64.9256 22.8669,65.0386 C22.7989,65.1326 22.7189,65.2176 22.6499,65.3106 C22.5919,65.3876 22.5219,65.4796 22.5959,65.5716 C22.6779,65.6716 22.7759,65.5936 22.8559,65.5486 C23.2289,65.3376 23.5579,65.0736 23.8459,64.7546 C24.1599,64.4036 24.4909,64.0686 24.9499,63.8446 C24.9819,64.0956 24.8809,64.2976 24.8179,64.4986 C24.1489,66.6296 23.2529,68.6536 21.9119,70.4576 C21.1229,71.5176 20.2169,72.4616 19.1329,73.2256 C19.0479,73.2866 18.9289,73.3366 18.9749,73.4686 C19.0199,73.5976 19.1469,73.5586 19.2499,73.5646 C19.5499,73.5846 19.7669,73.4786 19.9709,73.2386 C20.8419,72.2086 21.9579,71.4726 23.0699,70.7366 C23.2309,70.6296 23.3939,70.5266 23.5579,70.4236 C23.6119,70.3896 23.6659,70.3246 23.7389,70.3726 C23.8049,70.4166 23.7859,70.4946 23.7829,70.5596 C23.7589,71.0106 23.6179,71.4296 23.4359,71.8386 C23.2269,72.3046 22.9819,72.7556 22.8279,73.2466 C22.7779,73.4076 22.6699,73.4766 22.5049,73.4806 C22.2899,73.4866 22.0739,73.4806 21.8829,73.3776 C21.6679,73.2616 21.5299,73.3316 21.3899,73.5076 C21.0839,73.8886 20.9409,74.3626 20.6539,74.7526 C20.5939,74.8366 20.6349,74.9206 20.7009,74.9876 C20.9049,75.1926 21.1059,75.4026 21.3199,75.5976 C21.4749,75.7406 21.6649,75.8146 21.8799,75.7476 C22.0719,75.6886 22.0949,75.7696 22.0729,75.9356 C21.9779,76.6726 21.8839,77.4096 21.7999,78.1476 C21.7109,78.9276 21.8269,79.6886 22.0369,80.4376 C22.0969,80.6506 22.1999,80.8196 22.4129,80.9236 C22.6429,81.0366 22.6809,81.2886 22.7649,81.5016 C23.2749,82.7826 24.2679,83.4846 25.5699,83.7546 C26.4999,83.9476 27.2449,83.5286 27.8429,82.8366 C28.0309,82.6186 28.1749,82.3626 28.3369,82.1216 C28.3849,82.0506 28.4469,81.9636 28.3789,81.8856 C28.2889,81.7826 28.2039,81.8806 28.1249,81.9236 C27.7699,82.1186 27.4219,82.3296 27.0589,82.5096 C26.5949,82.7386 26.1009,82.8636 25.5769,82.8506 C25.4329,82.8466 25.3159,82.8056 25.2209,82.6946 C25.0079,82.4416 24.7569,82.2306 24.4919,82.0346 C24.0589,81.7126 23.7799,81.3046 23.7959,80.7386 C23.7989,80.6196 23.7789,80.5026 23.6959,80.4136 C23.4269,80.1276 23.3559,79.7896 23.3619,79.4046 C23.3729,78.6806 23.3419,77.9556 23.3459,77.2326 C23.3479,76.6926 23.4639,76.1786 23.7859,75.7276 C23.8449,75.6466 23.8799,75.5576 23.8759,75.4576 C23.8499,74.7256 24.0939,74.0736 24.4629,73.4576 C24.8089,72.8826 25.1009,72.2866 25.1509,71.6016 C25.1569,71.5116 25.1949,71.4316 25.2659,71.3756 C25.6029,71.1076 25.7439,70.7286 25.8509,70.3336 C25.9509,69.9606 26.1209,69.6376 26.3289,69.3036 C26.7499,68.6256 27.2989,68.0226 27.5819,67.2616 C27.6029,67.2066 27.6279,67.1536 27.6609,67.1066 C27.7579,66.9716 27.7839,66.7386 27.9959,66.7496 C28.2069,66.7626 28.3209,66.9516 28.4009,67.1286 C28.4889,67.3206 28.5469,67.5266 28.6189,67.7256 C28.7389,68.0576 28.8809,68.3736 29.2349,68.5266 C29.3869,68.5926 29.5099,68.5976 29.5869,68.4136 C29.7049,68.1336 29.9649,68.0786 30.1919,68.2836 C30.2539,68.3396 30.3139,68.4156 30.3389,68.4936 C30.6279,69.3786 31.3539,69.8866 32.0329,70.4156 C32.7369,70.9626 33.5549,71.2876 34.4359,71.4426 C34.5239,71.4576 34.6459,71.5286 34.6879,71.4006 C34.7239,71.2906 34.6049,71.2416 34.5239,71.1926 C34.0159,70.8826 33.5709,70.4996 33.2089,70.0266 C32.9439,69.6816 32.8139,69.2976 32.9199,68.8606 C32.9829,68.6016 33.1359,68.5506 33.3379,68.7256 C33.4529,68.8256 33.5489,68.9516 33.6449,69.0726 C33.7559,69.2116 33.8809,69.3506 34.0559,69.3736 C34.2889,69.4036 34.4079,69.5346 34.5109,69.7236 C34.6679,70.0156 34.8829,70.2666 35.1469,70.4676 C35.3169,70.5976 35.3709,70.7546 35.3959,70.9596 C35.5529,72.3116 35.3709,73.6376 35.1079,74.9586 C34.8959,76.0186 34.6859,77.0786 34.6089,78.1596 C34.5869,78.4496 34.5639,78.7406 34.5999,79.0276 C34.6289,79.2656 34.5369,79.3946 34.3189,79.4566 C34.2999,79.4616 34.2819,79.4706 34.2649,79.4766 C34.0879,79.5456 33.8579,79.5746 33.8919,79.8396 C33.9269,80.1156 34.1379,80.2126 34.3859,80.2436 C34.8299,80.2996 34.8219,80.2996 34.8749,80.7546 C35.1149,82.8506 35.8129,84.7696 37.0899,86.4636 C37.1529,86.5466 37.2079,86.6646 37.3399,86.5956 C37.4649,86.5306 37.4609,86.4086 37.4249,86.2896 C37.3569,86.0686 37.2759,85.8606 37.1219,85.6736 C36.3929,84.7776 36.0569,83.7146 35.8759,82.5956 C35.6409,81.1346 35.6759,79.6666 35.8899,78.2096 C36.0839,76.8876 36.4269,75.5996 37.0609,74.4076 C37.1569,74.2256 37.2489,74.0486 37.2179,73.8326 C37.2099,73.7776 37.1989,73.7076 37.2579,73.6746 C37.3349,73.6306 37.3809,73.7066 37.4319,73.7446 C37.9409,74.1376 38.1759,74.6966 38.3509,75.2856 C38.4879,75.7476 38.6019,76.2176 38.7199,76.6856 C38.7569,76.8326 38.8159,76.9536 38.9519,77.0346 C39.0809,77.1106 39.1729,77.2316 39.2219,77.3676 C39.5099,78.1666 40.1659,78.4236 40.9209,78.5046 C41.4389,78.5606 41.9599,78.5996 42.4829,78.5516 C42.6359,78.5376 42.7919,78.5296 42.9459,78.5386 C43.3719,78.5656 43.7779,78.5656 44.1509,78.2816 C44.3559,78.1256 44.6379,78.1086 44.9039,78.1276 C45.0829,78.1396 45.1419,78.2366 45.1079,78.3996 C45.0639,78.6126 44.9469,78.7756 44.7449,78.8576 C44.5309,78.9446 44.3129,79.0246 44.0899,79.0866 C43.8029,79.1666 43.5499,79.2906 43.3609,79.5286 C43.3199,79.5796 43.2679,79.6386 43.2089,79.6566 C42.3759,79.9086 41.8789,80.5596 41.3899,81.2046 C40.7039,82.1096 40.2259,83.1386 39.6839,84.1296 C39.6099,84.2646 39.5399,84.4046 39.4529,84.5316 C39.2849,84.7776 39.1989,85.0336 39.2029,85.3426 C39.2119,85.8596 38.8969,86.2896 38.7499,86.7666 C38.7039,86.9146 38.5119,86.9526 38.3749,87.0216 C37.5569,87.4346 36.6839,87.7886 36.0579,88.4756 C35.6239,88.9506 35.1209,89.1616 34.5289,89.2976 C34.0599,89.4046 33.6099,89.5906 33.1359,89.6896 C33.0539,89.7066 32.9659,89.7466 32.9039,89.8016 C32.4439,90.2066 31.8849,90.4186 31.3219,90.6296 C30.8979,90.7896 30.4819,90.9726 30.1159,91.2506 C30.0389,91.3096 29.9589,91.3666 29.8609,91.3796 C28.7759,91.5256 27.8259,92.0316 26.8679,92.5126 C26.5579,92.6686 26.2409,92.8126 25.9119,92.9266 C25.7179,92.9936 25.5489,93.0936 25.3959,93.2346 C25.0349,93.5656 24.5899,93.7626 24.1589,93.9796 C23.6549,94.2336 23.1729,94.5136 22.8489,94.9976 C22.7659,95.1216 22.6319,95.1506 22.5019,95.1876 C21.9449,95.3456 21.3319,95.4366 20.8999,95.8246 C20.4259,96.2516 19.8749,96.3886 19.2989,96.5226 C19.1579,96.5546 19.0219,96.6036 18.8829,96.6466 C18.7839,96.6776 18.7039,96.7296 18.7029,96.8456 C18.7019,96.9706 18.7809,97.0366 18.8929,97.0706 C18.9469,97.0876 19.0049,97.0966 19.0619,97.1076 C19.2499,97.1426 19.3039,97.2326 19.1549,97.3766 C18.5689,97.9496 18.0009,98.5466 17.3019,98.9896 C17.2109,99.0466 17.1139,99.0926 17.0819,99.2076 C60.3209,99.2076 103.5609,99.2066 146.7989,99.2126 C147.0169,99.2126 147.0659,99.1636 147.0659,98.9466 C147.0589,92.7366 147.0609,86.5266 147.0609,80.3166 L147.0609,80.3166 Z" id="Fill-11"></path>
                <path d="M48.3506,27.3676 C48.6046,26.9236 48.7326,26.0616 48.7326,24.7806 C48.7326,23.4026 48.6106,22.4546 48.3686,21.9376 C48.1236,21.4206 47.6786,21.1616 47.0306,21.1616 L46.8796,21.1616 L46.8796,28.0336 C47.6136,28.0336 48.1036,27.8116 48.3506,27.3676" id="Fill-13"></path>
                <path d="M136.6153,35.9774 C136.4503,35.9784 136.2883,35.9974 136.1373,36.0704 C135.9563,36.1594 135.8553,36.3084 135.8553,36.5064 C135.8553,36.7094 136.0073,36.8104 136.1723,36.8784 C136.3793,36.9624 136.5893,36.9294 136.7913,36.8514 C136.9903,36.7744 137.2033,36.7084 137.1383,36.4134 C137.0603,36.0534 136.9693,35.9714 136.6153,35.9774" id="Fill-15"></path>
                <path d="M50.7344,41.8681 C50.3054,41.8681 50.0204,42.1011 49.8784,42.5691 C49.7394,43.0391 49.6704,43.9851 49.6704,45.4051 C49.6704,46.7131 49.7434,47.6201 49.8894,48.1251 C50.0404,48.6041 50.3214,48.8441 50.7344,48.8441 C51.1394,48.8441 51.4184,48.6201 51.5674,48.1721 C51.7184,47.7281 51.7944,46.9081 51.7944,45.7121 C51.7944,44.1641 51.7244,43.1381 51.5854,42.6321 C51.4464,42.1221 51.1624,41.8681 50.7344,41.8681" id="Fill-17"></path>
                <path d="M40.5215,21.9784 C40.4805,21.7814 40.4175,21.6214 40.3305,21.4984 C40.2435,21.3744 40.1315,21.2834 39.9955,21.2264 C39.8575,21.1674 39.6945,21.1384 39.5045,21.1384 L39.3025,21.1384 L39.3025,24.1084 C39.7695,24.1084 40.0995,24.0004 40.2925,23.7844 C40.4855,23.5684 40.5825,23.2034 40.5825,22.6904 C40.5825,22.4124 40.5615,22.1754 40.5215,21.9784" id="Fill-19"></path>
                <path d="M53.3516,24.9882 C53.1736,24.0202 53.0286,22.9862 52.9166,21.8852 C52.8636,22.4222 52.7936,22.9652 52.7086,23.5152 C52.6226,24.0652 52.5236,24.6492 52.4086,25.2662 L52.1876,26.4122 L53.6186,26.4122 L53.3516,24.9882 Z" id="Fill-21"></path>
                <path d="M14.7774,79.2128 C14.7004,79.1998 14.5744,79.1778 14.4984,79.1648 C14.4214,79.1518 14.2954,79.1298 14.2184,79.1168 C14.1414,79.1038 14.0164,79.0828 13.9394,79.0688 C13.8624,79.0558 13.7994,79.2808 13.7994,79.5678 L13.7994,80.6118 L13.7994,81.6558 L13.7994,82.6998 C13.7994,82.9868 13.8624,83.2218 13.9394,83.2218 L14.2184,83.2218 L14.4984,83.2218 L14.7774,83.2218 C14.8534,83.2218 14.9164,82.9978 14.9164,82.7238 L14.9164,81.7278 L14.9164,80.7308 L14.9164,79.7348 C14.9164,79.4608 14.8534,79.2258 14.7774,79.2128" id="Fill-23"></path>
                <path d="M8.9141,82.3676 L9.1901,82.3676 L9.4671,82.3676 L9.7431,82.3676 C9.8191,82.3676 9.8811,82.1806 9.8811,81.9516 L9.8811,81.1216 L9.8811,80.2916 L9.8811,79.4606 C9.8811,79.2326 9.8191,79.0566 9.7431,79.0696 C9.6671,79.0836 9.5431,79.1056 9.4671,79.1186 C9.3911,79.1326 9.2671,79.1546 9.1901,79.1676 C9.1141,79.1806 8.9901,79.2026 8.9141,79.2166 C8.8381,79.2296 8.7751,79.4166 8.7751,79.6316 L8.7751,80.4126 L8.7751,81.1946 L8.7751,81.9766 C8.7751,82.1916 8.8381,82.3676 8.9141,82.3676" id="Fill-25"></path>
                <path d="M9.7432,83.5541 L9.4672,83.5541 L9.1902,83.5541 L8.9142,83.5541 C8.8382,83.5541 8.7762,83.8111 8.7762,84.1261 L8.7762,85.2691 L8.7762,86.4131 L8.7762,87.5561 C8.7762,87.8711 8.8382,88.1541 8.9142,88.1861 C8.9902,88.2181 9.1142,88.2701 9.1902,88.3021 C9.2662,88.3341 9.3902,88.3861 9.4672,88.4181 C9.5432,88.4501 9.6672,88.5021 9.7432,88.5341 C9.8192,88.5661 9.8822,88.3081 9.8822,87.9621 L9.8822,86.7031 L9.8822,85.4431 L9.8822,84.1841 C9.8822,83.8381 9.8192,83.5541 9.7432,83.5541" id="Fill-27"></path>
                <path d="M12.4405,88.8554 C12.4405,88.8674 12.4405,88.8684 12.4405,88.8554" id="Fill-29"></path>
                <path d="M19.7647,80.8417 C19.6797,80.8207 19.5407,80.7847 19.4557,80.7627 C19.3707,80.7417 19.2327,80.7067 19.1477,80.6847 C19.0627,80.6627 18.9237,80.6277 18.8387,80.6067 C18.7537,80.5847 18.6847,80.9037 18.6847,81.3157 L18.6847,82.8137 L18.6847,84.3107 L18.6847,85.8077 C18.6847,86.2197 18.7537,86.5287 18.8387,86.4957 C18.9237,86.4627 19.0627,86.4087 19.1477,86.3757 C19.2327,86.3417 19.3707,86.2877 19.4557,86.2547 C19.5407,86.2207 19.6797,86.1667 19.7647,86.1337 C19.8497,86.1007 19.9187,85.7807 19.9187,85.4247 L19.9187,84.1257 L19.9187,82.8277 L19.9187,81.5297 C19.9187,81.1727 19.8497,80.8627 19.7647,80.8417" id="Fill-31"></path>
                <path d="M21.1055,81.1684 L21.1055,82.6844 L21.1055,82.7274 L21.1055,84.2434 L21.1055,84.2864 L21.1055,85.8024 L21.1055,85.8444 C21.1055,86.2614 21.0955,86.6274 21.0845,86.6564 C21.0735,86.6864 21.0545,86.7344 21.0435,86.7644 C21.0325,86.7934 21.0135,86.8414 21.0025,86.8714 C20.9915,86.9004 20.9725,86.9494 20.9615,86.9784 C20.9505,87.0084 20.7895,87.0924 20.6035,87.1654 C20.4185,87.2384 20.1145,87.3574 19.9275,87.4314 C19.7425,87.5044 19.4385,87.6244 19.2525,87.6974 C19.0675,87.7704 18.7625,87.8904 18.5775,87.9624 C18.3915,88.0364 18.1985,88.0594 18.1475,88.0144 C18.0965,87.9694 18.0135,87.8964 17.9625,87.8514 C17.9125,87.8064 17.8295,87.7324 17.7795,87.6884 C17.7285,87.6434 17.6455,87.5694 17.5945,87.5244 C17.5435,87.4804 17.5025,87.1024 17.5025,86.6854 L17.5025,86.2814 L17.5025,84.7654 L17.5025,84.3614 L17.5025,82.8454 L17.5025,82.4414 L17.5025,80.9254 L17.5025,80.5224 C17.5025,80.1054 17.5435,79.7274 17.5945,79.6814 C17.6455,79.6364 17.7285,79.5624 17.7795,79.5174 C17.8295,79.4724 17.9125,79.3984 17.9625,79.3534 C18.0135,79.3084 18.0965,79.2344 18.1475,79.1894 C18.1985,79.1444 18.2395,79.1064 18.2395,79.1064 C18.2395,79.1064 18.3835,79.1474 18.5605,79.1964 C18.7365,79.2464 19.0245,79.3274 19.2015,79.3774 C19.3765,79.4264 19.6665,79.5074 19.8415,79.5574 C20.0185,79.6074 20.3065,79.6884 20.4835,79.7374 C20.6595,79.7874 20.8205,79.8574 20.8395,79.8934 C20.8605,79.9284 20.8935,79.9864 20.9135,80.0224 C20.9335,80.0584 20.9655,80.1164 20.9865,80.1524 C21.0065,80.1884 21.0395,80.2464 21.0595,80.2824 C21.0795,80.3174 21.0955,80.3464 21.0955,80.3464 C21.0975,80.3484 21.0975,80.3494 21.0985,80.3494 C21.0995,80.3504 21.1015,80.3534 21.1015,80.3544 C21.1025,80.3554 21.1035,80.3584 21.1035,80.3594 C21.1045,80.3604 21.1045,80.3644 21.1045,80.3654 C21.1045,80.3664 21.1055,80.7094 21.1055,81.1264 L21.1055,81.1684 Z M17.2195,89.0744 C17.2195,89.0754 17.2175,89.0794 17.2175,89.0804 C17.2165,89.0814 17.2135,89.0844 17.2135,89.0854 C17.2125,89.0854 17.2095,89.0884 17.2085,89.0894 C17.2075,89.0894 17.2045,89.0914 17.2025,89.0914 C17.2015,89.0924 17.1975,89.0934 17.1965,89.0934 C17.1955,89.0934 17.1335,89.1154 17.0595,89.1434 C16.9855,89.1704 16.8645,89.2154 16.7915,89.2434 C16.7165,89.2714 16.5955,89.3164 16.5215,89.3434 C16.4485,89.3714 16.3275,89.4164 16.2525,89.4434 C16.1795,89.4714 16.0045,89.2254 15.8655,88.8964 C15.7255,88.5674 15.4975,88.0284 15.3575,87.7004 C15.2175,87.3714 14.9895,86.8334 14.8495,86.5034 C14.7095,86.1754 14.4815,85.6364 14.3415,85.3084 C14.2025,84.9794 14.0725,84.7104 14.0515,84.7104 L13.9795,84.7104 L13.9085,84.7104 L13.8355,84.7104 C13.8165,84.7104 13.7995,85.0274 13.7995,85.4154 L13.7995,86.8264 L13.7995,86.9984 L13.7995,87.0044 L13.7995,87.1774 L13.7995,88.0684 L13.7995,88.7774 C13.7985,88.7784 13.7985,88.7824 13.7975,88.7834 C13.7975,88.7844 13.7955,88.7874 13.7955,88.7874 C13.7945,88.7884 13.7935,88.7914 13.7935,88.7924 L13.7895,88.7954 C13.7885,88.7964 13.7855,88.7984 13.7845,88.7984 C13.7835,88.7984 13.7805,88.8004 13.7795,88.8004 C13.7785,88.8004 13.7755,88.8014 13.7745,88.8014 C13.7735,88.8014 13.6985,88.8154 13.6085,88.8344 C13.5175,88.8514 13.3705,88.8804 13.2805,88.8984 C13.1895,88.9164 13.0425,88.9454 12.9525,88.9634 C12.8615,88.9814 12.7135,89.0104 12.6245,89.0284 C12.5335,89.0464 12.4575,89.0614 12.4565,89.0614 C12.4555,89.0614 12.4515,89.0604 12.4505,89.0594 C12.4505,89.0594 12.4465,89.0584 12.4465,89.0574 C12.4455,89.0574 12.4425,89.0554 12.4415,89.0544 C12.4405,89.0534 12.4385,89.0154 12.4385,88.9704 L12.4385,88.7104 C12.4385,88.6614 12.4385,88.5534 12.4395,88.5584 L12.4395,88.8254 L12.4395,88.2944 L12.4385,87.8034 C12.4385,87.3864 12.4375,87.3364 12.4375,86.9194 L12.4365,85.4824 C12.4365,85.0654 12.4355,84.3824 12.4355,83.9654 L12.4345,82.5284 C12.4345,82.1114 12.4345,81.4294 12.4335,81.0124 L12.4325,79.5744 L12.4325,78.3344 C12.4325,78.2294 12.4335,77.9374 12.4335,77.8864 C12.4345,77.8364 12.4355,77.7084 12.4355,77.6924 C12.4365,77.6764 12.4385,77.6444 12.4395,77.6434 L12.4435,77.6394 C12.4435,77.6384 12.4465,77.6374 12.4475,77.6364 C12.4485,77.6364 12.4515,77.6344 12.4525,77.6344 C12.4535,77.6344 12.4575,77.6334 12.4585,77.6334 C12.4595,77.6334 12.6225,77.6574 12.8215,77.6874 C13.0195,77.7154 13.3455,77.7634 13.5435,77.7934 C13.7435,77.8214 14.0685,77.8694 14.2675,77.8984 C14.4655,77.9284 14.7925,77.9754 14.9905,78.0044 C15.1895,78.0344 15.3545,78.0584 15.3555,78.0594 C15.3565,78.0594 15.3595,78.0604 15.3595,78.0604 C15.3595,78.0604 15.3635,78.0624 15.3645,78.0624 C15.3655,78.0634 15.3685,78.0644 15.3695,78.0644 C15.3705,78.0644 15.4115,78.1014 15.4595,78.1454 C15.5095,78.1894 15.5905,78.2614 15.6405,78.3054 C15.6895,78.3494 15.7705,78.4214 15.8205,78.4664 C15.8695,78.5104 15.9505,78.5824 16.0005,78.6264 C16.0485,78.6704 16.0905,78.7094 16.0905,78.7104 C16.0915,78.7114 16.0925,78.7144 16.0935,78.7154 C16.0935,78.7164 16.0955,78.7194 16.0955,78.7204 C16.0965,78.7214 16.0975,78.7244 16.0975,78.7254 C16.0985,78.7264 16.0985,79.0214 16.0985,79.3794 L16.0985,80.6854 L16.0985,81.9894 L16.0985,83.2944 C16.0985,83.6534 16.0975,83.9494 16.0975,83.9504 C16.0965,83.9514 16.0955,83.9554 16.0955,83.9554 C16.0945,83.9564 16.0935,83.9604 16.0925,83.9604 C16.0925,83.9614 16.0915,83.9644 16.0905,83.9654 C16.0905,83.9664 16.0475,84.0074 15.9955,84.0554 C15.9435,84.1044 15.8585,84.1844 15.8065,84.2324 C15.7535,84.2814 15.6685,84.3604 15.6175,84.4094 C15.5645,84.4584 15.4795,84.5384 15.4275,84.5864 C15.3755,84.6354 15.4385,84.9214 15.5685,85.2224 C15.6985,85.5234 15.9105,86.0174 16.0405,86.3184 C16.1695,86.6194 16.3815,87.1124 16.5115,87.4144 C16.6415,87.7154 16.8535,88.2084 16.9835,88.5094 C17.1135,88.8104 17.2195,89.0574 17.2195,89.0574 C17.2205,89.0594 17.2205,89.0604 17.2205,89.0614 L17.2205,89.0674 C17.2205,89.0684 17.2205,89.0724 17.2195,89.0744 L17.2195,89.0744 Z M12.9685,90.4694 C12.7605,90.5504 12.4485,90.6514 12.3485,90.4554 C12.2715,90.3394 12.3315,90.1634 12.4345,89.9924 C12.5015,89.8844 12.5715,89.8144 12.6585,89.7144 C12.6235,89.8214 12.5435,89.9974 12.6865,90.1194 C12.7805,90.1854 12.8875,90.1674 13.0865,90.1244 L14.8685,89.6424 L12.9685,90.4694 Z M11.0675,79.8414 L11.0675,80.8754 L11.0675,81.9094 L11.0675,82.4254 L11.0675,82.4284 C11.0675,82.4304 11.0665,82.4324 11.0665,82.4334 C11.0665,82.4344 11.0645,82.4374 11.0645,82.4384 C11.0645,82.4394 11.0625,82.4414 11.0625,82.4414 C11.0615,82.4424 11.0375,82.4724 11.0085,82.5074 C10.9795,82.5424 10.9325,82.6004 10.9035,82.6354 C10.8745,82.6704 10.8275,82.7284 10.7975,82.7634 C10.7685,82.7984 10.7215,82.8554 10.6925,82.8914 C10.6645,82.9264 10.6645,82.9844 10.6925,83.0204 C10.7215,83.0564 10.7685,83.1154 10.7975,83.1514 C10.8275,83.1874 10.8745,83.2464 10.9035,83.2824 C10.9315,83.3174 10.9795,83.3764 11.0085,83.4134 C11.0375,83.4484 11.0615,83.4804 11.0615,83.4804 C11.0625,83.4814 11.0635,83.4844 11.0635,83.4844 C11.0635,83.4864 11.0645,83.4894 11.0655,83.4904 C11.0655,83.4904 11.0665,83.4934 11.0665,83.4944 C11.0675,83.4954 11.0675,83.8354 11.0675,84.2504 L11.0675,85.7594 L11.0675,87.2684 L11.0675,88.7774 C11.0675,89.1924 11.0255,89.5694 10.9745,89.6144 C10.9235,89.6584 10.8405,89.7324 10.7905,89.7764 C10.7385,89.8214 10.6555,89.8954 10.6045,89.9394 C10.5535,89.9844 10.4705,90.0584 10.4195,90.1034 C10.3685,90.1474 10.1745,90.1354 9.9885,90.0754 C9.8025,90.0154 9.4985,89.9174 9.3125,89.8564 C9.1265,89.7964 8.8215,89.6984 8.6355,89.6384 C8.4495,89.5784 8.1445,89.4804 7.9595,89.4204 C7.7725,89.3604 7.6185,89.3114 7.6175,89.3104 C7.6165,89.3104 7.6135,89.3104 7.6125,89.3094 L7.6075,89.3074 C7.6065,89.3064 7.6035,89.3044 7.6025,89.3044 L7.5995,89.3004 C7.5985,89.2994 7.5965,89.2964 7.5965,89.2954 C7.5955,89.2944 7.5945,89.2924 7.5945,89.2914 C7.5945,89.2904 7.5935,89.2864 7.5935,89.2854 L7.5935,88.5254 L7.5935,87.2424 L7.5935,85.7264 L7.5935,84.4424 L7.5935,82.9264 L7.5935,81.6434 L7.5935,80.1264 L7.5935,78.8434 L7.5935,78.0814 C7.5935,78.0804 7.5945,78.0774 7.5945,78.0764 C7.5955,78.0754 7.5965,78.0724 7.5975,78.0714 C7.5975,78.0704 7.5995,78.0674 7.6005,78.0674 C7.6005,78.0664 7.6035,78.0644 7.6045,78.0634 L7.6075,78.0614 C7.6095,78.0604 7.6125,78.0594 7.6135,78.0594 C7.6145,78.0584 7.6185,78.0584 7.6195,78.0584 C7.6205,78.0584 7.7725,78.0344 7.9595,78.0044 C8.1445,77.9754 8.4495,77.9284 8.6355,77.8984 C8.8215,77.8694 9.1265,77.8214 9.3125,77.7934 C9.4985,77.7634 9.8025,77.7154 9.9885,77.6874 C10.1745,77.6574 10.3685,77.6704 10.4195,77.7154 C10.4705,77.7614 10.5535,77.8354 10.6045,77.8794 C10.6555,77.9254 10.7385,77.9994 10.7905,78.0444 C10.8405,78.0894 10.9235,78.1634 10.9745,78.2084 C11.0255,78.2534 11.0675,78.5224 11.0675,78.8074 L11.0675,79.8414 Z M6.1885,88.9534 C6.1885,88.9544 6.1865,88.9584 6.1865,88.9604 C6.1855,88.9604 6.1825,88.9644 6.1825,88.9654 C6.1815,88.9664 6.1775,88.9694 6.1765,88.9704 L6.1705,88.9734 C6.1695,88.9734 6.1665,88.9744 6.1645,88.9744 C6.1635,88.9744 6.1035,88.9454 6.0315,88.9104 C5.9595,88.8754 5.8415,88.8164 5.7695,88.7814 C5.6975,88.7454 5.5805,88.6874 5.5075,88.6514 C5.4365,88.6164 5.3185,88.5584 5.2465,88.5224 C5.1745,88.4874 5.0385,88.1474 4.9445,87.7684 C4.8495,87.3894 4.6955,86.7694 4.6005,86.3894 C4.5055,86.0104 4.3515,85.3904 4.2565,85.0104 C4.1635,84.6314 4.0075,84.0114 3.9145,83.6324 C3.8195,83.2524 3.7475,83.2194 3.7525,83.5574 C3.7575,83.8964 3.7675,84.4494 3.7735,84.7874 C3.7795,85.1264 3.7895,85.6794 3.7945,86.0174 C3.8005,86.3554 3.8095,86.9094 3.8155,87.2474 C3.8215,87.5854 3.8265,87.8644 3.8265,87.8654 C3.8265,87.8664 3.8255,87.8704 3.8245,87.8714 C3.8245,87.8724 3.8235,87.8754 3.8225,87.8764 C3.8225,87.8764 3.8195,87.8794 3.8195,87.8804 C3.8185,87.8804 3.8165,87.8834 3.8155,87.8834 C3.8145,87.8844 3.8115,87.8864 3.8105,87.8864 L3.8055,87.8884 C3.8045,87.8884 3.8015,87.8894 3.8005,87.8894 C3.7995,87.8894 3.7305,87.8614 3.6475,87.8284 C3.5645,87.7944 3.4285,87.7394 3.3455,87.7054 C3.2625,87.6714 3.1265,87.6164 3.0435,87.5824 C2.9595,87.5484 2.8245,87.4934 2.7415,87.4604 C2.6585,87.4254 2.5875,87.3984 2.5865,87.3974 L2.5825,87.3974 L2.5775,87.3944 C2.5775,87.3944 2.5735,87.3924 2.5725,87.3914 L2.5685,87.3874 L2.5665,87.3834 C2.5655,87.3824 2.5645,87.3794 2.5645,87.3784 C2.5635,87.3774 2.5635,87.3744 2.5635,87.3744 L2.5635,86.6134 L2.5635,86.2184 L2.5635,84.7014 L2.5635,84.3064 L2.5635,82.7904 L2.5635,82.3954 L2.5635,80.8784 L2.5635,80.4834 L2.5635,79.7214 C2.5635,79.7204 2.5645,79.7174 2.5645,79.7164 C2.5655,79.7154 2.5665,79.7124 2.5665,79.7114 C2.5675,79.7104 2.5695,79.7084 2.5705,79.7074 C2.5705,79.7074 2.5735,79.7044 2.5745,79.7044 C2.5745,79.7034 2.5775,79.7014 2.5785,79.7014 C2.5795,79.7004 2.5825,79.6994 2.5835,79.6994 C2.5845,79.6984 2.5875,79.6984 2.5885,79.6984 C2.5895,79.6984 2.6545,79.6834 2.7325,79.6654 C2.8115,79.6474 2.9395,79.6174 3.0185,79.5994 C3.0965,79.5814 3.2245,79.5514 3.3035,79.5334 C3.3815,79.5154 3.5105,79.4854 3.5885,79.4674 C3.6675,79.4484 3.8075,79.6734 3.9005,79.9664 C3.9935,80.2584 4.1445,80.7374 4.2385,81.0304 C4.3315,81.3224 4.4825,81.8014 4.5755,82.0944 C4.6685,82.3874 4.8205,82.8654 4.9135,83.1584 C5.0055,83.4514 5.0785,83.4274 5.0735,83.1054 C5.0685,82.7844 5.0605,82.2584 5.0555,81.9364 C5.0505,81.6144 5.0425,81.0884 5.0375,80.7674 C5.0325,80.4454 5.0245,79.9194 5.0195,79.5974 C5.0145,79.2764 5.0105,79.0104 5.0105,79.0094 C5.0105,79.0084 5.0115,79.0054 5.0115,79.0044 C5.0125,79.0034 5.0135,79.0004 5.0145,79.0004 C5.0145,78.9994 5.0165,78.9964 5.0175,78.9954 L5.0215,78.9914 C5.0215,78.9914 5.0245,78.9894 5.0255,78.9894 C5.0265,78.9884 5.0295,78.9874 5.0305,78.9874 C5.0315,78.9864 5.0355,78.9864 5.0355,78.9864 C5.0355,78.9864 5.1005,78.9714 5.1775,78.9534 C5.2545,78.9354 5.3805,78.9054 5.4585,78.8874 C5.5355,78.8694 5.6615,78.8394 5.7385,78.8204 C5.8155,78.8024 5.9415,78.7724 6.0185,78.7544 C6.0955,78.7364 6.1615,78.7224 6.1625,78.7224 C6.1635,78.7224 6.1665,78.7234 6.1665,78.7234 C6.1675,78.7234 6.1705,78.7254 6.1715,78.7254 C6.1725,78.7264 6.1755,78.7284 6.1755,78.7284 C6.1765,78.7294 6.1785,78.7314 6.1785,78.7314 C6.1805,78.7334 6.1815,78.7364 6.1825,78.7364 C6.1825,78.7374 6.1835,78.7414 6.1845,78.7414 L6.1845,78.7474 L6.1845,79.5074 L6.1845,80.5374 L6.1845,82.0534 L6.1845,83.0834 L6.1845,84.5994 L6.1845,85.6294 L6.1845,87.1464 L6.1845,88.1754 C6.1845,88.5924 6.1855,88.9344 6.1855,88.9344 L6.1855,88.9344 L6.1855,88.9354 L6.1865,88.9354 C6.1875,88.9374 6.1875,88.9384 6.1875,88.9394 C6.1885,88.9404 6.1895,88.9454 6.1895,88.9464 C6.1895,88.9474 6.1885,88.9524 6.1885,88.9534 L6.1885,88.9534 Z M21.8075,78.5724 C21.5075,78.4704 20.3105,78.1014 19.9425,77.9924 C19.5745,77.8824 18.3765,77.5414 18.0475,77.4504 C17.7185,77.3584 16.7115,77.0774 16.3105,76.9614 C16.3105,76.9614 16.0995,76.9014 15.9615,76.8574 C15.8255,76.8134 15.6875,76.7724 15.5505,76.7324 C15.4145,76.6934 15.2775,76.6564 15.1395,76.6234 L15.0025,76.5894 C14.8525,76.5594 14.6975,76.5274 14.6575,76.5194 L14.5215,76.4974 C14.3855,76.4754 14.1875,76.4464 13.9385,76.4174 C13.6895,76.3874 13.3875,76.3584 13.0455,76.3364 C12.7045,76.3144 12.3215,76.2554 11.9085,76.2544 L11.8895,76.2544 L11.8715,76.2544 L11.8525,76.2544 L11.8345,76.2544 L11.8155,76.2544 L11.7965,76.2544 L11.7785,76.2544 L11.7595,76.2544 C11.3465,76.2554 10.9635,76.3144 10.6225,76.3364 C10.2805,76.3584 9.9795,76.3874 9.7295,76.4174 C9.4805,76.4464 9.2825,76.4754 9.1465,76.4974 C9.0115,76.5194 8.9385,76.5334 8.9385,76.5334 L8.8015,76.5594 C8.6525,76.5964 8.4095,76.6604 8.2605,76.7014 L8.1255,76.7424 C7.9895,76.7834 7.0405,77.0604 6.6285,77.1714 C6.2175,77.2834 5.7525,77.4134 5.7525,77.4134 C5.3515,77.5244 4.6945,77.7104 4.2935,77.8254 C4.2935,77.8254 3.7075,77.9924 3.0565,78.1904 C2.4065,78.3874 1.7935,78.5844 1.3145,78.7564 L1.3145,80.3174 L1.3145,81.8344 L1.3145,82.6364 L1.3145,84.1534 L1.3145,84.9554 L1.3145,86.4724 L1.3145,87.2744 C1.3145,87.6914 1.4065,88.0794 1.5195,88.1364 C1.6325,88.1934 2.6985,88.7014 3.0765,88.8774 L4.3405,89.4434 C4.7215,89.6134 5.3485,89.8824 5.7345,90.0414 C5.7345,90.0414 7.2705,90.6764 8.4485,91.0844 C9.6265,91.4914 10.7985,91.8334 11.8345,92.0194 C12.8835,91.8274 14.0665,91.4824 15.2495,91.0734 C16.4325,90.6634 17.6165,90.1894 18.6685,89.7384 C19.7215,89.2884 20.6145,88.8704 20.6145,88.8704 C20.9925,88.6924 21.5385,88.4324 21.8275,88.2904 C22.1175,88.1484 22.3545,87.6914 22.3545,87.2744 L22.3545,86.4724 L22.3545,84.9554 L22.3545,84.1534 L22.3545,82.6364 L22.3545,81.8344 L22.3545,80.3174 L22.3545,79.5154 C22.3545,79.0984 22.1085,78.6734 21.8075,78.5724 L21.8075,78.5724 Z" id="Fill-33"></path>
                <path d="M0.6465,88.4711 C0.8725,88.5851 1.9215,89.1001 2.3185,89.2911 L3.7045,89.9321 C4.1235,90.1241 4.8075,90.4271 5.2295,90.6071 C5.2475,90.6141 6.9265,91.3301 8.1995,91.7841 C9.5955,92.2831 10.8185,92.6331 11.8345,92.8251 C12.8635,92.6281 14.0965,92.2731 15.5005,91.7721 C16.6445,91.3631 17.9045,90.8561 19.2435,90.2641 C20.3825,89.7621 21.3645,89.2871 21.3745,89.2831 C21.7885,89.0821 22.3865,88.7871 22.7045,88.6271 C22.9095,88.5241 23.1375,88.1101 23.1375,87.7111 L23.1375,78.9051 C23.1375,78.5201 22.9155,78.1561 22.7145,78.0861 C22.3945,77.9741 21.0965,77.5601 20.6735,77.4301 C20.2625,77.3051 18.9425,76.9171 18.5945,76.8171 C18.2325,76.7121 17.1235,76.3931 16.6815,76.2621 C16.6815,76.2621 16.4455,76.1921 16.2915,76.1411 C16.1425,76.0921 15.9945,76.0461 15.8465,76.0021 C15.6995,75.9581 15.5515,75.9171 15.4055,75.8801 L15.2545,75.8431 C15.0995,75.8101 14.9285,75.7741 14.8845,75.7651 L14.7465,75.7421 C14.6135,75.7201 14.3965,75.6871 14.1165,75.6531 C13.8025,75.6151 13.4775,75.5851 13.1495,75.5621 C13.0155,75.5541 12.8765,75.5401 12.7325,75.5251 C12.4695,75.4991 12.1985,75.4711 11.9155,75.4711 L11.8915,75.4711 L11.8545,75.4701 L11.8265,75.4701 L11.7965,75.4701 L11.7655,75.4711 C11.4695,75.4711 11.1985,75.4991 10.9355,75.5251 C10.7915,75.5401 10.6525,75.5541 10.5195,75.5621 C10.1905,75.5851 9.8655,75.6151 9.5515,75.6531 C9.2725,75.6871 9.0545,75.7201 8.9225,75.7421 C8.7825,75.7651 8.7055,75.7811 8.7025,75.7821 L8.5505,75.8111 C8.4035,75.8501 8.1385,75.9211 7.9775,75.9681 L7.8335,76.0131 C7.6975,76.0551 6.6415,76.3731 6.1815,76.5021 C5.7305,76.6281 5.2195,76.7751 5.2195,76.7751 C4.7785,76.9011 4.0575,77.1121 3.6175,77.2421 C3.6175,77.2421 2.9735,77.4311 2.2605,77.6551 C1.5665,77.8721 0.9855,78.0661 0.5305,78.2301 L0.5305,87.7111 C0.5305,88.1021 0.6025,88.3861 0.6465,88.4711 M11.8345,93.3611 C11.8175,93.3611 11.8015,93.3591 11.7865,93.3561 C10.7325,93.1601 9.4655,92.8001 8.0215,92.2841 C6.7335,91.8241 5.0395,91.1021 5.0215,91.0951 C4.5965,90.9131 3.9065,90.6081 3.4825,90.4141 L2.0915,89.7711 C1.6885,89.5761 0.5035,88.9951 0.3685,88.9241 C0.0265,88.7461 0.0005,87.9501 0.0005,87.7111 L0.0005,78.0451 C0.0005,77.9341 0.0695,77.8351 0.1725,77.7961 C0.6595,77.6161 1.3075,77.3981 2.1025,77.1491 C2.8205,76.9241 3.4665,76.7331 3.4665,76.7331 C3.9085,76.6021 4.6305,76.3921 5.0735,76.2651 C5.0735,76.2651 5.5855,76.1171 6.0385,75.9911 C6.4945,75.8641 7.5415,75.5481 7.6755,75.5061 L7.8255,75.4591 C7.9975,75.4101 8.2675,75.3371 8.4335,75.2951 L8.5985,75.2621 C8.5985,75.2621 8.6815,75.2441 8.8355,75.2191 C8.9735,75.1961 9.1985,75.1611 9.4885,75.1261 C9.8105,75.0871 10.1455,75.0561 10.4835,75.0331 C10.6115,75.0251 10.7445,75.0121 10.8815,74.9971 C11.1445,74.9711 11.4425,74.9411 11.7515,74.9411 L11.7775,74.9401 L11.8135,74.9401 C11.8145,74.9401 11.8475,74.9411 11.8455,74.9401 L11.8785,74.9401 L11.9075,74.9401 C12.2255,74.9411 12.5235,74.9711 12.7865,74.9971 C12.9235,75.0121 13.0565,75.0251 13.1845,75.0331 C13.5225,75.0561 13.8575,75.0871 14.1795,75.1261 C14.4695,75.1611 14.6955,75.1961 14.8335,75.2191 L14.9815,75.2441 C15.0365,75.2551 15.2085,75.2911 15.3745,75.3261 L15.5345,75.3661 C15.6885,75.4051 15.8425,75.4481 15.9975,75.4931 C16.1495,75.5381 16.3035,75.5871 16.4575,75.6381 C16.6045,75.6861 16.8335,75.7541 16.8335,75.7541 C17.2725,75.8851 18.3795,76.2031 18.7415,76.3071 C19.0895,76.4081 20.4165,76.7971 20.8285,76.9231 C21.2115,77.0401 22.5455,77.4651 22.8895,77.5851 C23.3265,77.7371 23.6675,78.3171 23.6675,78.9051 L23.6675,87.7111 C23.6675,88.2851 23.3495,88.8951 22.9435,89.1001 C22.6245,89.2621 22.0215,89.5581 21.6055,89.7601 C21.5955,89.7641 20.6055,90.2421 19.4575,90.7501 C18.1065,91.3461 16.8355,91.8581 15.6785,92.2711 C14.2265,92.7901 12.9495,93.1551 11.8825,93.3561 C11.8675,93.3591 11.8505,93.3611 11.8345,93.3611" id="Fill-35"></path>
            </g>
        </g>
    </g>
</svg>