<?xml version="1.0" encoding="UTF-8"?>
<svg width="128px" height="132px" viewBox="0 0 128 132" version="1.1" xmlns="http://www.w3.org/2000/svg" xmlns:xlink="http://www.w3.org/1999/xlink">
    <!-- Generator: Sketch 48.1 (47250) - http://www.bohemiancoding.com/sketch -->
    <title>sticker_nbro_alt_black</title>
    <desc>Created with Sketch.</desc>
    <defs>
        <polygon id="path-1" points="0.0905322405 0.450726497 51.111942 0.450726497 51.111942 83.0754857 0.0905322405 83.0754857"></polygon>
        <polygon id="path-3" points="0 0.262886347 127.710637 0.262886347 127.710637 54.6001771 0 54.6001771"></polygon>
        <polygon id="path-5" points="0 131.522936 128 131.522936 128 1.17431193 0 1.17431193"></polygon>
    </defs>
    <g id="stickers-white" stroke="none" stroke-width="1" fill="none" fill-rule="evenodd" transform="translate(-199.000000, -131.000000)">
        <g id="sticker_nbro_alt_black" transform="translate(199.000000, 131.000000)">
            <g id="Group-3" transform="translate(39.926606, 0.000000)">
                <mask id="mask-2" fill="white">
                    <use xlink:href="#path-1"></use>
                </mask>
                <g id="Clip-2"></g>
                <path d="M7.42768961,44.1810202 C7.45185771,42.7033637 7.91438508,42.028925 8.28774051,41.4130972 C9.23779674,39.8281249 10.7862217,38.5444625 12.3729823,38.6641609 C13.9547426,38.747537 17.0974286,39.4038146 18.6158518,39.8008832 C20.1501093,40.2086834 21.4293516,40.7295779 22.218565,41.0994048 C22.9852771,41.4601511 23.9244993,42.7991225 23.198623,44.3816182 C22.4527455,45.95751 21.164336,47.0108561 20.2667828,47.7959127 C19.3675629,48.5570296 17.0740939,49.2199113 14.4047692,49.7523629 C11.7329444,50.275734 10.2103543,49.9769006 8.86110778,48.994548 C7.48852655,48.0105444 7.38352033,45.6619787 7.42768961,44.1810202 M25.411254,53.7965188 C26.0296239,54.6145956 27.1888592,56.2804675 27.5505473,57.0118662 C27.8922342,57.7358353 28.2114197,58.7033288 27.2146941,59.4066603 C26.2088012,60.136408 25.4245881,60.010931 24.0678411,59.95232 C22.7427627,59.9077427 21.9535493,59.7946483 21.5951948,59.567634 C21.2401738,59.3397943 21.0068266,58.4061465 21.6035286,56.7939325 C21.9843845,55.6778479 22.815267,54.3108093 23.2602933,53.7816597 C23.6919856,53.2343489 24.792884,53.0122877 25.411254,53.7965188 M28.9847988,41.0994048 C29.7731788,40.7295779 31.054088,40.2086834 32.5866787,39.8008832 C34.1067686,39.4038146 37.2477879,38.747537 38.8303815,38.6641609 C40.4171421,38.5444625 41.9647337,39.8281249 42.9156233,41.4130972 C43.2889788,42.028925 43.7506727,42.7033637 43.7748408,44.1810202 C43.8190101,45.6619787 43.7140039,48.0105444 42.3422561,48.994548 C40.9930095,49.9769006 39.469586,50.275734 36.7977612,49.7523629 C34.1284366,49.2199113 31.8349675,48.5570296 30.9357476,47.7959127 C30.0381945,47.0108561 28.7497849,45.95751 28.0039074,44.3816182 C27.2780311,42.7991225 28.2172534,41.4601511 28.9847988,41.0994048 M0.348103936,48.5025462 C0.718959219,51.6658867 0.580617698,55.8569828 0.534781651,58.0586083 C0.488945605,60.2387708 3.11410098,64.5371826 2.97409269,67.0863464 C3.02492903,69.9813973 3.39411755,74.6182668 4.14166179,76.516106 C5.7317559,78.0069706 6.16261474,78.8588932 7.28768133,79.2534853 C9.33030222,79.9171924 9.85283315,80.3200395 10.390365,81.0572167 C10.0303437,77.1377123 10.5662087,70.9290787 10.5937103,70.6063057 C10.6020442,70.5287081 10.6637145,70.45854 10.7570533,70.4197412 C10.8528923,70.3834189 10.9712327,70.3809424 11.0587379,70.4139627 C11.2895848,70.4998154 11.4320933,70.6120842 11.4845964,70.7499438 C11.5170983,70.8308434 11.5112646,70.908441 11.4879299,70.972005 C11.7179435,72.0344318 12.023795,78.4915428 12.2029722,82.6884174 C13.1346941,83.020271 14.338932,83.1077747 15.6265082,83.0656738 C16.0098642,78.896041 16.6657364,72.06415 16.9599204,70.973656 C16.9382525,70.910092 16.9357524,70.8324944 16.9707544,70.7524203 C17.0290912,70.6153862 17.1791001,70.5072449 17.4116139,70.4279963 C17.5066195,70.3908485 17.6207929,70.3966271 17.7174653,70.4395534 C17.808304,70.4800032 17.8674742,70.5518223 17.8699743,70.6310709 C17.8858086,71.0132803 18.1991605,79.6183591 17.1599323,82.9732171 C17.8766414,82.9121296 18.5883502,82.8361831 19.2525561,82.762713 L22.1460607,82.446544 C21.9252143,80.2374889 21.6710326,74.6991664 21.519357,71.1272002 C21.5160234,71.0628107 21.5510255,71.0008977 21.6126958,70.9571459 C22.0810569,70.6104332 22.3760743,70.4998154 22.651924,70.579064 C22.8444354,70.6335474 22.9169397,70.7648029 22.9194398,70.8613872 C23.7728237,73.166201 23.440304,79.5572716 23.2461258,82.3260201 L24.9437263,82.1394556 C25.6212664,82.0280123 26.2579708,81.9182199 26.8713404,81.8109041 C27.2605301,77.6487008 27.8230634,71.9584852 28.0889125,70.972005 C28.0680779,70.908441 28.0647444,70.8308434 28.0997464,70.7515948 C28.1589166,70.6153862 28.305592,70.5055939 28.5356056,70.4255198 C28.6406118,70.393325 28.7472848,70.3966271 28.8439571,70.4379024 C28.9356292,70.4775267 28.993966,70.5493457 28.9964662,70.6294199 C29.0098003,70.9629244 29.2514813,77.5925664 28.6156103,81.4955607 C31.1899293,81.0126394 33.1350445,80.5660404 34.6451338,80.1078844 C35.013489,76.2750582 35.4593487,71.9766463 35.6868621,71.1305022 C35.6651942,71.0669383 35.6626941,70.9901662 35.6976961,70.910092 C35.7560329,70.773058 35.9060418,70.6640911 36.1393889,70.584017 C36.2327278,70.5452182 36.3510681,70.5551243 36.444407,70.5963996 C36.5352457,70.6368494 36.5944159,70.7086685 36.596916,70.7879171 C36.6085834,71.0644617 36.7769267,75.6707875 36.4735754,79.4615129 C39.1529006,78.3495557 40.0396198,77.0469066 41.6463815,74.9468183 C43.2131409,72.6585146 42.4639299,69.2045958 42.967293,67.9911014 C43.4548219,66.8139293 46.1849835,65.3172861 46.4491658,62.6723636 C46.7166816,59.9886423 47.623402,53.7313038 48.4484508,49.9991893 C49.3376701,46.21837 50.3710646,40.80635 50.7402531,37.9154266 C51.0977743,34.9791003 51.2194481,28.301579 51.0077689,25.3437896 C50.8219246,22.438007 47.7792445,16.2574406 46.706681,14.0128887 C45.6974546,11.799706 42.3989261,7.66474441 39.8429415,5.92210039 C37.2319536,4.18688593 34.7359725,2.96678746 31.4516115,1.83832021 C28.2080862,0.689215297 24.7303803,0.131998474 20.8143152,0.6380339 C16.8932498,1.11930413 13.9639098,5.06192272 11.9554576,6.90858054 C9.95200568,8.7469833 6.15344753,12.6186083 4.45584706,15.5293439 C2.73741202,18.4788783 0.993975496,23.5392326 0.357271145,27.918544 C-0.257765256,32.3424328 0.392273217,36.8406172 0.328102752,39.4021636 C0.242264339,41.9100521 -0.0377522344,45.3813065 0.348103936,48.5025462" id="Fill-1" fill="#000000" mask="url(#mask-2)"></path>
            </g>
            <g id="Group-6" transform="translate(0.000000, 66.935780)">
                <mask id="mask-4" fill="white">
                    <use xlink:href="#path-3"></use>
                </mask>
                <g id="Clip-5"></g>
                <path d="M99.544031,34.9011201 L97.7652439,35.2932351 L97.1780955,34.9999726 C97.0154116,34.9184193 96.7495019,34.7849684 96.5876439,34.7042388 C96.42496,34.6226855 94.2134503,33.840103 91.6732697,32.9644343 L91.4139665,32.8754671 C88.8737858,32.0006222 89.1619923,32.0994747 86.6218116,31.2238061 L86.3625084,31.1348388 C83.8223277,30.2583464 83.4746632,30.1397234 80.9344826,29.263231 L80.6751794,29.1750875 C79.5999794,28.8035668 78.2299665,28.3315459 76.819489,27.8463448 C77.152289,27.7343119 77.4685729,27.6288692 77.7592568,27.5316642 L79.9633342,26.7927416 C81.5199794,26.2712945 82.1649342,26.0554665 83.1402116,25.7292532 L83.0501987,25.7589089 C83.1203923,25.7358434 83.2029729,25.7078351 83.2756439,25.6839458 C83.552289,25.5908596 83.8520568,25.4903596 84.1609084,25.3873882 C84.3549729,25.3223103 84.5597729,25.2539373 84.7909987,25.175679 C86.9471794,24.4540556 89.5732439,23.5750919 91.3371665,22.984448 L92.222431,22.6878905 C101.395489,27.3792666 109.331489,24.0948914 109.331489,24.0948914 C132.876883,19.8236385 112.539747,12.319908 112.539747,12.319908 C110.200237,11.7061985 111.764315,8.77934 111.764315,8.77934 C113.759463,4.34250911 112.147489,1.86542955 112.147489,1.86542955 C98.6290374,-2.92727044 91.1249342,13.1708635 91.1249342,13.1708635 L90.6443148,14.4526512 C90.4700697,14.4831308 90.1892955,14.5309095 90.0167019,14.561389 C89.8432826,14.5910448 89.5583794,14.6396473 89.3841342,14.6701268 C89.2107148,14.7006063 87.204831,15.3497379 84.9256052,16.1117261 L84.6935535,16.1899844 C82.4151535,16.9527964 82.6728052,16.8663004 80.3944052,17.6299362 L80.1623535,17.7073707 C77.8839535,18.4710064 77.5717987,18.5748016 75.2933987,19.3376136 L75.0613471,19.4158718 C72.7829471,20.1786838 69.0536052,21.4275207 66.7743794,22.1903327 L66.5431535,22.2677672 C65.3622503,22.6640011 64.3134761,23.0149276 63.5553858,23.268649 L63.0499923,23.0964809 C60.5032052,22.2282262 56.33536,20.8088687 53.7885729,19.940614 L51.3235406,19.1003675 C49.5893471,18.5097237 48.8675923,18.2634161 47.7816568,17.8935429 C47.7279794,17.8745962 47.6734761,17.8564732 47.6231019,17.8383503 C47.192031,17.691719 46.7196697,17.5310837 46.22336,17.3622106 C46.1234374,17.3276122 46.0367277,17.2987802 45.9285471,17.2617105 C43.5188439,16.4404108 40.5839277,15.439529 38.6127277,14.7681556 L37.6234116,14.4304094 C35.7942503,6.86077721 26.2437987,4.16786964 26.2437987,4.16786964 C3.84875355,-6.69849432 11.0473084,8.56186444 11.0473084,8.56186444 C12.145631,10.186341 7.79115355,10.8527717 7.79115355,10.8527717 C1.47125677,12.0694816 -0.000330322581,14.2673028 -0.000330322581,14.2673028 C4.99662452,24.3098957 28.1249858,20.0369952 28.1249858,20.0369952 L29.8781729,19.6316998 C30.0425084,19.7132532 30.3059406,19.8442328 30.4686245,19.9241386 C30.63296,20.0048681 30.9005213,20.1374953 31.064031,20.2190486 C31.2275406,20.2997782 33.4456568,21.0765943 35.9924439,21.9440252 L36.2509213,22.0329925 C38.7977084,22.9012472 38.5103277,22.8015709 41.0571148,23.6706493 L41.3164181,23.7587928 C43.8632052,24.6262237 44.2116955,24.7456705 46.7584826,25.6139252 L47.0177858,25.7020687 C48.2556697,26.1238395 49.8767277,26.6765899 51.5085213,27.2318116 C51.3854761,27.2730001 51.2508697,27.3174838 51.1352568,27.356201 L48.9262245,28.0852384 C47.3291148,28.6116281 46.6915923,28.8225135 45.6758503,29.1577883 L45.5800568,29.1890916 C45.5899665,29.1866203 45.5990503,29.184149 45.6081342,29.1808539 C45.2439535,29.3003007 44.836831,29.4353992 44.4197987,29.5721451 C44.3083148,29.6092148 44.2100439,29.6421657 44.0886503,29.6817067 C41.9275148,30.3950924 39.2964955,31.2641709 37.5292697,31.8474008 L36.6423535,32.1398395 C27.6328052,27.36691 19.6662503,30.623277 19.6662503,30.623277 C-3.84280774,34.7783782 16.1978632,42.4460392 16.1978632,42.4460392 C18.5092955,43.0770478 16.88576,46.0113203 16.88576,46.0113203 C14.7972955,50.4621553 16.3415535,52.9623004 16.3415535,52.9623004 C29.6684181,57.8637382 37.5086245,41.7178256 37.5086245,41.7178256 L38.0164955,40.4319189 C38.1907406,40.403087 38.470689,40.3553082 38.6424568,40.3264762 C38.8167019,40.2976443 39.1007794,40.2498655 39.2741987,40.2210335 C39.4476181,40.1913778 41.457631,39.5513077 43.7409858,38.7967334 L43.9730374,38.7209465 C46.2572181,37.9671959 45.9979148,38.0520444 48.2820955,37.2982939 L48.5141471,37.2208594 C50.7983277,36.4671089 51.1104826,36.3641375 53.3930116,35.610387 L53.625889,35.5337763 C55.9092439,34.7800257 59.6460181,33.5460167 61.9293729,32.7922662 L62.1614245,32.7164793 C63.2044181,32.372143 64.147489,32.0607575 64.8775019,31.8193926 C67.4358503,32.7016514 71.2758503,34.0254515 73.6814245,34.8533414 L76.1381987,35.7010018 C77.9145084,36.3130637 78.6238761,36.5577237 79.755231,36.9465436 L79.8601084,36.9827895 C79.8501987,36.9794945 79.8411148,36.9770231 79.8303794,36.9737281 C80.2350245,37.1129454 80.6883923,37.2686381 81.1516697,37.4284497 C81.2755406,37.4712858 81.3853729,37.5091792 81.5208052,37.5561342 C83.9239019,38.3840241 86.8513858,39.3931436 88.817631,40.0702834 L89.8044697,40.4105009 C91.4213987,47.9315306 100.964418,50.657389 100.964418,50.657389 C123.205037,61.5641178 116.40865,46.382841 116.40865,46.382841 C115.349966,44.7649547 119.758121,44.1273559 119.758121,44.1273559 C126.16225,42.9543059 127.710637,40.7828454 127.710637,40.7828454 C122.976289,30.7913263 99.544031,34.9011201 99.544031,34.9011201" id="Fill-4" fill="#000000" mask="url(#mask-4)"></path>
            </g>
            <path d="M45.7981651,83.3761468 C45.8850642,83.4055046 45.9660917,83.4336881 46.0506422,83.4630459 C46.2972477,83.5475963 46.554422,83.6344954 46.7704954,83.7084771 L45.7981651,83.3761468 Z" id="Fill-7" fill="#000000"></path>
            <polygon id="Fill-9" fill="#000000" points="13.0966771 57.5412844 14.0917431 56.6829455 14.0917431 53.5329881 13.0966771 52.6705773 10.9549399 52.6705773 10.9549399 50.8390742 12.5312987 50.8390742 12.5312987 51.4555472 14.0917431 51.4555472 14.0917431 50.1794399 13.0966771 49.3211009 10.4004502 49.3211009 9.39449541 50.1851404 9.39449541 53.3293972 10.4004502 54.1926224 12.5312987 54.1926224 12.5312987 56.0241255 10.9549399 56.0241255 10.9549399 55.3587907 9.39449541 55.3587907 9.39449541 56.6829455 10.4004502 57.5412844"></polygon>
            <mask id="mask-6" fill="white">
                <use xlink:href="#path-5"></use>
            </mask>
            <g id="Clip-12"></g>
            <polygon id="Fill-11" fill="#000000" mask="url(#mask-6)" points="15.266055 57.5412844 16.440367 57.5412844 16.440367 49.3211009 15.266055 49.3211009"></polygon>
            <polygon id="Fill-13" fill="#000000" mask="url(#mask-6)" points="19.093619 53.2349311 20.7151172 57.5412844 22.3119266 57.5412844 22.3063517 57.5306977 22.3063517 49.3211009 20.8337829 49.3211009 20.8337829 53.6323404 19.2059134 49.3211009 17.6146789 49.3211009 17.6146789 57.5412844 19.093619 57.5412844"></polygon>
            <polygon id="Fill-14" fill="#000000" mask="url(#mask-6)" points="27.1820842 57.5412844 28.1834862 56.6829455 28.1834862 55.3587907 26.6559793 55.3587907 26.6559793 56.0241255 25.0137455 56.0241255 25.0137455 50.8390742 26.6559793 50.8390742 26.6559793 51.4555472 28.1834862 51.4555472 28.1834862 50.1900266 27.1820842 49.3211009 24.4605978 49.3211009 23.4862385 50.1851404 23.4862385 56.6829455 24.4605978 57.5412844"></polygon>
            <polygon id="Fill-15" fill="#000000" mask="url(#mask-6)" points="32.8807339 56.0239752 30.7074238 56.0239752 30.7074238 54.1922906 32.5547374 54.1922906 32.5547374 52.6700947 30.7074238 52.6700947 30.7074238 50.8384101 32.8524809 50.8384101 32.8524809 49.3211009 29.3577982 49.3211009 29.3577982 57.5412844 32.8807339 57.5412844"></polygon>
            <polygon id="Fill-16" fill="#000000" mask="url(#mask-6)" points="98.6422018 56.0239752 95.4971026 56.0239752 95.4971026 54.1922906 97.6196491 54.1922906 98.6422018 53.3289799 98.6422018 50.1787105 97.6471281 49.3211009 94.9458568 49.3211009 93.9449541 50.1787105 93.9449541 51.4557587 95.5120912 51.4557587 95.5120912 50.8384101 97.090886 50.8384101 97.090886 52.6700947 94.9458568 52.6700947 93.9449541 53.5277043 93.9449541 57.5412844 98.6422018 57.5412844"></polygon>
            <path d="M101.346672,56.0233112 L102.982782,56.0233112 L102.982782,50.8382598 L101.346672,50.8382598 L101.346672,56.0233112 Z M103.521582,57.5412844 L104.513761,56.6829455 L104.513761,50.1843261 L103.521582,49.3211009 L100.808693,49.3211009 L99.8165138,50.1843261 L99.8165138,56.6829455 L100.78816,57.5412844 L103.521582,57.5412844 Z" id="Fill-17" fill="#000000" mask="url(#mask-6)"></path>
            <polygon id="Fill-18" fill="#000000" mask="url(#mask-6)" points="107.247921 57.5412844 108.824631 57.5412844 108.824631 50.8390742 110.385321 50.8390742 110.385321 49.3211009 105.688073 49.3211009 105.688073 50.8390742 107.247921 50.8390742"></polygon>
            <polygon id="Fill-19" fill="#000000" mask="url(#mask-6)" points="115.082569 56.0239752 112.909259 56.0239752 112.909259 54.1922906 114.756572 54.1922906 114.756572 52.6700947 112.909259 52.6700947 112.909259 50.8384101 115.054316 50.8384101 115.054316 49.3211009 111.559633 49.3211009 111.559633 57.5412844 115.082569 57.5412844"></polygon>
            <polygon id="Fill-20" fill="#000000" mask="url(#mask-6)" points="118.909587 53.2349311 120.53136 57.5412844 122.12844 57.5412844 122.123661 57.5298833 122.123661 49.3211009 120.650046 49.3211009 120.650046 53.6323404 119.022697 49.3211009 117.431193 49.3211009 117.431193 57.5412844 118.909587 57.5412844"></polygon>
            <path d="M86.617088,130.53093 C86.773646,130.305922 86.9054843,129.987297 87.010131,129.578341 C87.1147777,129.170206 87.1971766,128.700481 87.2581519,128.169167 C87.3199511,127.639494 87.3586786,127.059729 87.3759824,126.433977 C87.3932862,125.807404 87.4023501,125.155373 87.4023501,124.477064 C87.4023501,123.798755 87.3891662,123.145904 87.3627986,122.520151 C87.3372549,121.893578 87.2927594,121.315455 87.2317842,120.784962 C87.170809,120.253647 87.0793461,119.78885 86.9573957,119.388927 C86.8354452,118.988182 86.6780632,118.683518 86.4860736,118.474934 C86.1020945,118.057766 85.8095782,117.814692 85.6085247,117.74489 C85.4074713,117.675088 85.2558572,117.640598 85.1512105,117.640598 C85.0457398,117.640598 84.8883578,117.675088 84.6790645,117.74489 C84.4705951,117.814692 84.1821988,118.057766 83.8155234,118.474934 C83.6227098,118.683518 83.4661518,118.988182 83.3433774,119.388927 C83.2214269,119.78885 83.1258441,120.253647 83.055805,120.784962 C82.9865899,121.315455 82.9420944,121.893578 82.9256146,122.520151 C82.9074869,123.145904 82.898423,123.798755 82.898423,124.477064 C82.898423,125.155373 82.9074869,125.807404 82.9256146,126.433977 C82.9420944,127.059729 82.9865899,127.639494 83.055805,128.169167 C83.1258441,128.700481 83.2214269,129.165279 83.3433774,129.565202 C83.4661518,129.966767 83.6227098,130.278822 83.8155234,130.505473 C84.0594243,130.765792 84.3082692,130.966164 84.561234,131.104946 C84.8141988,131.24455 85.0111323,131.313531 85.1512105,131.313531 L85.3605039,131.313531 C85.8318259,131.313531 86.2504126,131.053211 86.617088,130.53093 M90.1256356,118.892924 C90.8581624,119.361827 91.4827465,120.072163 91.99774,121.019824 C92.5119095,121.967486 92.7706422,123.120447 92.7706422,124.477064 C92.7706422,125.833682 92.5119095,126.990749 91.99774,127.947443 C91.4827465,128.904959 90.8581624,129.609546 90.1256356,130.061205 C89.5669707,130.426638 89.0915287,130.705023 88.6984857,130.896362 C88.3062666,131.088522 87.9387673,131.232232 87.5984596,131.327491 C87.2581519,131.42275 86.9178442,131.478591 86.5775365,131.496657 C86.2372288,131.513081 85.8318259,131.522936 85.3605039,131.522936 L85.0976512,131.522936 C84.6271531,131.522936 84.2118624,131.513081 83.8542509,131.496657 C83.4966394,131.478591 83.134084,131.42275 82.7674086,131.327491 C82.4015573,131.232232 82.0126342,131.088522 81.6022874,130.896362 C81.1927645,130.705023 80.7082587,130.426638 80.1487697,130.061205 C79.416243,129.609546 78.7924829,128.904959 78.2774894,127.947443 C77.7624959,126.990749 77.5045872,125.833682 77.5045872,124.477064 C77.5045872,123.120447 77.7624959,121.967486 78.2774894,121.019824 C78.7924829,120.072163 79.416243,119.361827 80.1487697,118.892924 C80.7082587,118.527491 81.1878206,118.249105 81.5891035,118.057766 C81.9912104,117.866427 82.3620058,117.722718 82.7023135,117.626638 C83.0426212,117.531379 83.3829289,117.475537 83.7232366,117.457471 C84.0635443,117.441047 84.4705951,117.431193 84.9410932,117.431193 L85.3605039,117.431193 C85.8318259,117.431193 86.2372288,117.441047 86.5775365,117.457471 C86.9178442,117.475537 87.2581519,117.531379 87.5984596,117.626638 C87.9387673,117.722718 88.3062666,117.866427 88.6984857,118.057766 C89.0915287,118.249105 89.5669707,118.527491 90.1256356,118.892924" id="Fill-21" fill="#000000" mask="url(#mask-6)"></path>
            <path d="M76.9074584,117.121491 C77.1413158,117.121491 77.4295982,117.151987 77.7731559,117.21298 C78.1141625,117.275621 78.4390117,117.401727 78.7451522,117.592946 C79.0512928,117.785815 79.3123627,118.065226 79.5292122,118.431181 C79.7452114,118.797961 79.853211,119.278483 79.853211,119.871923 C79.853211,120.396129 79.7673216,120.849452 79.5963931,121.23354 C79.4246142,121.617628 79.208615,121.937427 78.9475452,122.189639 C78.6864753,122.442675 78.3981929,122.631423 78.0835484,122.752583 C77.7680536,122.874568 77.4755193,122.936385 77.2050951,122.936385 C76.5741054,122.936385 76.1378551,122.752583 75.8946434,122.386628 C75.6505813,122.019025 75.5298259,121.487401 75.5298259,120.78846 C75.5298259,120.543665 75.5604399,120.303816 75.6242192,120.068089 C75.6862977,119.832361 75.7628329,119.618887 75.8538246,119.426843 C75.943966,119.233975 76.0247531,119.064185 76.0970363,118.915825 C76.1684691,118.767464 76.2050359,118.649601 76.2050359,118.562233 C76.2050359,118.090777 76.0783277,117.855049 75.8266121,117.855049 C75.4660466,117.855049 75.1786146,118.00341 74.961765,118.300954 L74.7194038,118.641358 C74.5204124,118.902637 74.3988066,119.378214 74.3537359,120.068089 C74.3086652,120.757963 74.286555,121.573944 74.286555,122.516856 L74.286555,130.138447 L76.3130355,130.138447 L76.3130355,130.348624 L66.9357798,130.348624 L66.9357798,130.138447 L68.9894728,130.138447 L68.9894728,117.016814 L66.9357798,117.016814 L66.9357798,116.807462 C67.4400614,116.807462 68.0395866,116.798395 68.7335053,116.781087 C69.4265735,116.763778 70.1247441,116.733282 70.828017,116.689598 C71.5304395,116.646738 72.1877913,116.589043 72.8000725,116.519808 C73.413204,116.450573 73.9081313,116.362381 74.286555,116.256881 L74.286555,119.138365 C74.3401296,118.96363 74.4115624,118.788894 74.5025542,118.614983 C74.5926956,118.441072 74.7091991,118.273755 74.8537655,118.117152 L74.961765,118.038027 C75.358047,117.672072 75.7050063,117.427278 76.002643,117.305293 C76.2994292,117.183308 76.6013179,117.121491 76.9074584,117.121491" id="Fill-22" fill="#000000" mask="url(#mask-6)"></path>
            <path d="M63.7697598,125.382046 C63.7520685,125.99365 63.7124736,126.557961 63.6492902,127.07578 C63.5861069,127.594401 63.5027048,128.052904 63.3957143,128.451288 C63.2878814,128.850474 63.1547751,129.160685 62.9938681,129.381119 C62.6189802,129.890923 62.1901758,130.145023 61.7091398,130.145023 L61.4943163,130.145023 C61.3511007,130.145023 61.1505989,130.076889 60.8919683,129.941422 C60.6333377,129.805955 60.3789194,129.61037 60.1295557,129.355469 C59.9324236,129.135035 59.7723591,128.829633 59.6468348,128.438463 C59.522153,128.048095 59.4244294,127.594401 59.3528216,127.07578 C59.2812138,126.557961 59.2365642,125.99365 59.2197153,125.382046 C59.2011815,124.770442 59.1919146,124.133989 59.1919146,123.471885 C59.1919146,122.80898 59.2011815,122.172527 59.2197153,121.560923 C59.2365642,120.950121 59.2812138,120.38581 59.3528216,119.867189 C59.4244294,119.350171 59.522153,118.895676 59.6468348,118.505307 C59.7723591,118.114939 59.9324236,117.816752 60.1295557,117.613952 C60.5036012,117.205949 60.7984569,116.967881 61.0132804,116.899746 C61.2264189,116.832414 61.3873259,116.797946 61.4943163,116.797946 C61.6021493,116.797946 61.7571591,116.832414 61.9627157,116.899746 C62.1682722,116.967881 62.4664977,117.205949 62.8599194,117.613952 C63.0553666,117.816752 63.217116,118.114939 63.3417979,118.505307 C63.4664797,118.895676 63.5599911,119.350171 63.622332,119.867189 C63.6846729,120.38581 63.7293225,120.950121 63.7562807,121.560923 C63.7840814,122.172527 63.7967181,122.80898 63.7967181,123.471885 C63.7967181,124.133989 63.7874512,124.770442 63.7697598,125.382046 M68.4941904,120.09644 C67.9676624,119.171419 67.3307741,118.479657 66.5809982,118.020353 C66.0089782,117.664452 65.52373,117.392717 65.1210413,117.205949 C64.7200376,117.01838 64.3459921,116.878905 63.9980624,116.785121 C63.6492902,116.692138 63.3013605,116.636829 62.9534308,116.619194 C62.6055011,116.603162 62.1901758,116.594345 61.7091398,116.594345 L61.2803354,116.594345 C60.7984569,116.594345 60.3831316,116.603162 60.0352019,116.619194 C59.6872722,116.636829 59.3393425,116.692138 58.9914128,116.785121 C58.8675734,116.817985 58.7344671,116.865279 58.6030457,116.910167 L58.6030457,113.908257 C58.2281578,114.010057 57.7597584,114.095025 57.1978477,114.163159 C56.6350946,114.231293 56.0959299,114.281792 55.5778263,114.315459 C54.971266,114.36676 54.3377475,114.410045 53.6781132,114.443711 L51.6697248,114.443711 L51.6697248,114.64651 L53.6781132,114.64651 L53.6781132,123.471885 C53.6781132,124.796894 53.940956,125.926317 54.467484,126.859354 C54.9931696,127.793994 55.6317428,128.480947 56.3806762,128.922616 C56.9518538,129.279319 57.4472114,129.551054 57.8667489,129.737821 C58.2862864,129.924589 58.6839204,130.064865 59.0579659,130.157848 C59.4336963,130.250831 59.8035296,130.306942 60.1699931,130.323775 C60.5347717,130.340608 60.9593639,130.348624 61.4403999,130.348624 L61.7091398,130.348624 C62.1901758,130.348624 62.6055011,130.340608 62.9534308,130.323775 C63.3013605,130.306942 63.6492902,130.250831 63.9980624,130.157848 C64.3459921,130.064865 64.7200376,129.924589 65.1210413,129.737821 C65.52373,129.551054 66.0089782,129.279319 66.5809982,128.922616 C67.3307741,128.480947 67.9676624,127.793994 68.4941904,126.859354 C69.0207184,125.926317 69.2844037,124.796894 69.2844037,123.471885 C69.2844037,122.146877 69.0207184,121.023064 68.4941904,120.09644" id="Fill-23" fill="#000000" mask="url(#mask-6)"></path>
            <path d="M52.7843693,129.259247 C52.5464234,128.670613 52.4261981,127.871522 52.4261981,126.863586 L52.4261981,119.330681 C52.4261981,119.126674 52.3953068,118.925894 52.3335244,118.728338 C52.2717419,118.532396 52.1966011,118.340485 52.1081019,118.152606 C51.8609721,117.640574 51.5069753,117.239013 51.0469465,116.947921 C50.5869177,116.658442 50.0559225,116.470563 49.4556308,116.384284 C48.8536693,116.299617 48.2876085,116.256881 47.7574482,116.256881 C47.2272879,116.256881 46.727184,116.333484 46.2588062,116.487496 C45.7895935,116.641509 45.343758,116.888251 44.9187949,117.230143 C44.6541322,117.418022 44.4420681,117.605901 44.2817677,117.793781 C44.123137,117.982466 43.9728554,118.221145 43.8309227,118.511431 L43.8309227,116.564099 C43.460228,116.666506 42.9601241,116.751979 42.3322807,116.819712 C41.7044374,116.888251 41.0373539,116.944696 40.3301952,116.986626 C39.6222017,117.029362 38.915043,117.060004 38.2078844,117.076937 C37.4998909,117.09387 36.8987643,117.101934 36.4036697,117.101934 L36.4036697,117.307553 L38.4199485,117.307553 L38.4199485,130.143005 L36.4303865,130.143005 L36.4303865,130.348624 L43.8309227,130.348624 L43.8309227,130.143005 L43.8309227,120.89419 C43.8309227,120.688571 43.8492905,120.432959 43.8843562,120.12574 C43.9202568,119.817715 43.9770299,119.506464 44.0571801,119.190376 C44.1364954,118.874287 44.2291691,118.57997 44.3352011,118.305812 C44.4420681,118.033266 44.573982,117.818777 44.7334475,117.665571 C44.8570124,117.529298 44.9897612,117.413991 45.1316939,117.319648 C45.2727916,117.226111 45.4239082,117.179343 45.5825388,117.179343 C45.7411694,117.179343 45.9048094,117.200308 46.0734589,117.243045 C46.2412734,117.285781 46.3781966,117.367222 46.4842287,117.485756 C46.6787599,117.742981 46.8165181,118.04133 46.8949985,118.383221 C46.9434226,118.591259 46.972644,118.797684 46.9918467,119.004916 L46.9918467,130.143005 L46.7021371,130.143005 L46.7021371,130.348624 L51.6839737,130.348624 L52.1097717,130.348624 L54.0183486,130.348624 L54.0183486,130.143005 C53.4347549,130.143005 53.0231502,129.847882 52.7843693,129.259247" id="Fill-24" fill="#000000" mask="url(#mask-6)"></path>
        </g>
    </g>
</svg>