<?xml version="1.0" encoding="UTF-8"?>
<svg width="88px" height="135px" viewBox="0 0 88 135" version="1.1" xmlns="http://www.w3.org/2000/svg" xmlns:xlink="http://www.w3.org/1999/xlink">
    <!-- Generator: Sketch 48.1 (47250) - http://www.bohemiancoding.com/sketch -->
    <title>sticker_tgit_white</title>
    <desc>Created with Sketch.</desc>
    <defs>
        <polygon id="path-1" points="7.81126269e-06 0.137 87.6977761 0.137 87.6977761 103.636063 7.81126269e-06 103.636063"></polygon>
        <polygon id="path-3" points="0.7152 0.8211 16.9822 0.8211 16.9822 23 0.7152 23"></polygon>
        <polygon id="path-5" points="0 135.863 87.698 135.863 87.698 1 0 1"></polygon>
    </defs>
    <g id="stickers-black" stroke="none" stroke-width="1" fill="none" fill-rule="evenodd" transform="translate(-438.000000, -28.000000)">
        <g id="sticker_tgit_white" transform="translate(438.000000, 27.000000)">
            <g id="Group-3" transform="translate(0.000000, 0.863000)">
                <mask id="mask-2" fill="white">
                    <use xlink:href="#path-1"></use>
                </mask>
                <g id="Clip-2"></g>
                <path d="M59.0428,87.8409 C58.2718,88.2279 56.8588,88.1159 55.8048,88.1639 C55.9428,87.3659 56.4518,86.9029 57.1298,86.3449 C60.6448,80.5599 61.9748,71.0929 57.7478,65.1299 C56.0858,63.3589 53.9858,61.6969 51.2768,62.0829 C50.2368,60.4609 52.9228,59.5469 53.1058,57.7799 C53.2008,56.0179 52.7798,54.4549 51.8478,53.2669 C49.9338,51.7719 47.3578,51.1849 44.9048,51.4729 C44.7118,51.0419 45.3388,51.2769 45.2268,50.8409 C46.3578,50.5259 47.5838,50.3829 48.8128,50.3259 C51.1168,50.7509 53.7408,52.3899 54.5418,54.5499 C54.9028,56.7319 55.0158,59.1879 54.0458,61.0789 C56.6378,62.0159 59.4378,63.5609 60.7898,66.3099 C63.6278,72.6889 63.7918,82.0859 59.0428,87.8409 M45.7018,39.9199 C48.9868,40.6489 51.9648,42.3589 55.1888,43.6189 C56.3468,42.0719 56.9828,40.5499 58.4048,38.9909 C58.9168,38.6149 59.8938,38.8359 59.9248,39.5349 L56.8788,46.0069 L56.1008,46.2169 C52.9858,43.5439 48.6018,41.8969 44.7528,40.4029 C45.0068,40.1269 45.2638,39.9399 45.7018,39.9199 M87.4058,91.0359 C87.8968,90.2219 87.6668,89.0039 87.4508,88.1329 C86.7228,87.5519 85.5218,88.2199 84.7118,87.8189 C82.4528,87.6209 79.9518,87.7159 77.4498,87.7269 C76.4178,70.0769 79.1878,51.0539 72.2018,36.0509 C68.9668,28.7249 67.3558,20.2709 66.8878,11.9409 C68.9718,9.3849 67.2518,6.3849 66.3418,3.7889 C67.0208,3.2309 66.9838,2.4409 66.8588,1.6549 C65.4218,0.6749 63.7058,0.9209 61.9128,0.9419 C62.0028,1.6679 61.9648,2.3759 61.3368,2.8919 C62.2828,5.5929 64.0728,8.7139 61.9038,11.3729 C62.3908,20.0389 64.0668,28.8339 67.4338,36.4559 C74.3488,51.3089 72.0818,69.9449 72.7698,87.5349 C72.4658,87.5029 72.1578,87.4779 71.8588,87.4339 L71.4078,87.1919 C70.3408,69.4809 73.1628,50.3629 66.1488,35.2989 C62.9138,27.9719 61.3018,19.5179 60.8338,11.1879 C62.9188,8.6319 61.1978,5.6329 60.2888,3.0359 C60.9668,2.4789 60.9308,1.6889 60.8058,0.9029 C58.9928,-0.3331 56.7378,0.3869 54.4408,0.1369 C52.7038,0.5699 50.7458,0.0419 49.3128,1.4249 C49.3958,2.7239 49.9568,2.6569 50.0068,3.2809 C50.2188,5.9559 47.7008,8.7079 50.0228,11.2389 C49.6848,15.3859 49.0638,19.1069 48.8958,23.1589 C51.3728,23.4869 54.2028,23.8859 56.8638,24.3779 C57.3068,24.4469 57.7718,25.0409 57.3508,25.4119 C54.6078,27.0309 51.4288,24.7139 48.3098,25.7339 C45.5418,34.4779 42.3138,42.7979 42.9248,52.3529 C43.3098,64.7309 43.5578,75.9729 43.7578,88.0939 C43.0988,89.0929 41.8258,88.1819 41.0538,88.5699 L34.5528,88.6879 L34.4998,88.6299 L18.9528,88.6299 C18.9378,88.7089 18.9298,88.7939 18.9128,88.8709 C12.4298,89.3419 6.6718,88.4599 0.3118,89.6309 C-0.1962,90.0909 0.0228,91.0499 0.2268,91.6559 C1.2638,93.1919 3.9468,92.2769 4.4678,94.0109 C3.8788,94.6529 2.7108,94.0909 2.3208,95.1639 C2.8828,97.4979 2.1398,100.0859 3.1278,102.0529 C3.2798,102.3599 3.4778,102.6509 3.7268,102.9249 C4.7768,103.5349 8.5958,103.5419 11.2298,103.4379 C16.2248,103.5869 19.1538,103.4689 25.1188,103.5349 C42.8758,103.5199 57.9148,103.6289 76.1098,103.5919 C77.8778,103.6229 79.8108,103.6759 81.1658,103.5869 C82.5638,103.4959 84.2128,103.1039 84.3848,101.8989 C84.5548,100.6929 84.7418,96.1679 84.9788,93.6949 C84.3718,93.8989 84.0838,93.3849 83.7168,93.0489 C83.7268,91.2909 86.2168,91.9689 87.4058,91.0359" id="Fill-1" fill="#FFFFFF" mask="url(#mask-2)"></path>
            </g>
            <polygon id="Fill-4" fill="#FFFFFF" points="24.8396 117.6667 24.8396 135.6797 20.5816 135.6797 20.5816 117.6667 14.8836 117.6667 14.8836 113.8677 30.5376 113.8677 30.5376 117.6667"></polygon>
            <g id="Group-8" transform="translate(35.000000, 112.863000)">
                <mask id="mask-4" fill="white">
                    <use xlink:href="#path-3"></use>
                </mask>
                <g id="Clip-7"></g>
                <path d="M16.9822,13.8711 C16.9822,15.4441 16.8342,16.7411 16.5382,17.7621 C16.2412,18.7831 15.6952,19.7021 14.8992,20.5181 C13.9792,21.4791 13.0142,22.1331 12.0032,22.4791 C10.9932,22.8261 9.9052,23.0001 8.7412,23.0001 C7.4952,23.0001 6.4022,22.8011 5.4632,22.4031 C4.5242,22.0051 3.6762,21.4371 2.9202,20.7031 C2.3692,20.1511 1.9452,19.5801 1.6492,18.9871 C1.3532,18.3951 1.1382,17.7461 1.0062,17.0421 C0.8732,16.3371 0.7922,15.5661 0.7612,14.7281 C0.7302,13.8921 0.7152,12.9521 0.7152,11.9111 C0.7152,10.8691 0.7302,9.9301 0.7612,9.0931 C0.7922,8.2551 0.8732,7.4841 1.0062,6.7791 C1.1382,6.0751 1.3532,5.4271 1.6492,4.8341 C1.9452,4.2421 2.3692,3.6701 2.9202,3.1191 C3.6762,2.3841 4.5242,1.8161 5.4632,1.4191 C6.4022,1.0201 7.4952,0.8211 8.7412,0.8211 C10.0072,0.8211 11.1202,1.0161 12.0812,1.4031 C13.0402,1.7911 13.8572,2.3071 14.5312,2.9501 C15.2052,3.5941 15.7412,4.3341 16.1392,5.1711 C16.5382,6.0091 16.8082,6.8871 16.9512,7.8061 L12.6632,7.8061 C12.1722,5.6821 10.8652,4.6201 8.7412,4.6201 C8.1492,4.6201 7.6282,4.7261 7.1782,4.9411 C6.7292,5.1561 6.3412,5.4361 6.0142,5.7841 C5.8102,6.0091 5.6422,6.2591 5.5092,6.5341 C5.3772,6.8101 5.2692,7.1731 5.1872,7.6221 C5.1062,8.0711 5.0492,8.6381 5.0192,9.3221 C4.9892,10.0071 4.9732,10.8691 4.9732,11.9111 C4.9732,12.9521 4.9892,13.8151 5.0192,14.4991 C5.0492,15.1831 5.1062,15.7501 5.1872,16.1991 C5.2692,16.6481 5.3772,17.0171 5.5092,17.3031 C5.6422,17.5891 5.8102,17.8441 6.0142,18.0681 C6.3412,18.4161 6.7292,18.6911 7.1782,18.8951 C7.6282,19.1001 8.1492,19.2011 8.7412,19.2011 C9.3942,19.2011 9.9762,19.0951 10.4872,18.8801 C10.9982,18.6651 11.4262,18.3641 11.7742,17.9761 C12.1212,17.5681 12.3722,17.1241 12.5242,16.6431 C12.6772,16.1641 12.7542,15.6381 12.7542,15.0661 L12.7542,14.2691 L8.7412,14.2691 L8.7412,10.6851 L16.9822,10.6851 L16.9822,13.8711 Z" id="Fill-6" fill="#FFFFFF" mask="url(#mask-4)"></path>
            </g>
            <mask id="mask-6" fill="white">
                <use xlink:href="#path-5"></use>
            </mask>
            <g id="Clip-10"></g>
            <polygon id="Fill-9" fill="#FFFFFF" mask="url(#mask-6)" points="59.394 135.68 63.653 135.68 63.653 113.868 59.394 113.868"></polygon>
            <polygon id="Fill-11" fill="#FFFFFF" mask="url(#mask-6)" points="80.1336 117.6667 80.1336 135.6797 75.8756 135.6797 75.8756 117.6667 70.1776 117.6667 70.1776 113.8677 85.8316 113.8677 85.8316 117.6667"></polygon>
        </g>
    </g>
</svg>