<?xml version="1.0" encoding="UTF-8"?>
<svg width="100px" height="108px" viewBox="0 0 100 108" version="1.1" xmlns="http://www.w3.org/2000/svg" xmlns:xlink="http://www.w3.org/1999/xlink">
    <!-- Generator: Sketch 42 (36781) - http://www.bohemiancoding.com/sketch -->
    <title>sticker_wakeup_black</title>
    <desc>Created with Sketch.</desc>
    <defs>
        <polygon id="path-1" points="0.870767161 10 8.9183 10 8.9183 0.4521 0.870767161 0.4521 0.870767161 10"></polygon>
        <polygon id="path-3" points="0.7364 10 8.62992952 10 8.62992952 0.4523 0.7364 0.4523 0.7364 10"></polygon>
    </defs>
    <g id="Page-1" stroke="none" stroke-width="1" fill="none" fill-rule="evenodd">
        <g id="stickers-white" transform="translate(-564.000000, -383.000000)">
            <g id="sticker_wakeup_black" transform="translate(564.000000, 383.000000)">
                <polygon id="Fill-1" fill="#000000" points="50.4604 21.3924 44.9994 21.3334 45.0084 20.4764 48.1374 12.9824 45.3514 12.9524 45.3704 11.0624 50.5504 11.1184 50.5394 12.1514 47.4914 19.4634 50.4814 19.4964"></polygon>
                <polygon id="Fill-2" fill="#000000" points="43.6567 15.617 38.8357 15.038 38.9267 14.282 42.4147 7.958 39.9547 7.663 40.1547 5.994 44.7287 6.543 44.6197 7.455 41.2187 13.625 43.8577 13.942"></polygon>
                <polygon id="Fill-3" fill="#000000" points="37.3657 10.8348 33.7197 11.2048 33.6637 10.6318 35.1877 5.4018 33.3287 5.5898 33.2017 4.3288 36.6587 3.9788 36.7287 4.6688 35.2427 9.7708 37.2377 9.5688"></polygon>
                <polygon id="Fill-4" fill="#000000" points="24.891 9.9725 21.039 9.9115 21.049 9.3075 23.283 4.0305 21.317 3.9995 21.337 2.6655 24.992 2.7235 24.981 3.4525 22.804 8.6015 24.912 8.6345"></polygon>
                <polygon id="Fill-5" fill="#000000" points="25.3485 0.8876 25.5195 1.9486 27.0835 1.6956 26.0565 6.1996 26.1345 6.6806 29.2015 6.1836 29.0285 5.1206 27.3515 5.3916 28.3505 0.9976 28.2565 0.4166"></polygon>
                <polygon id="Fill-6" fill="#000000" points="15.9672 10.6932 12.8782 10.3702 12.9282 9.8852 15.0982 5.8082 13.5212 5.6432 13.6332 4.5732 16.5642 4.8802 16.5022 5.4642 14.3882 9.4432 16.0782 9.6202"></polygon>
                <polygon id="Fill-7" fill="#000000" points="0.7551 0.0002 0.6441 1.0692 2.2201 1.2342 0.0511 5.3122 0.0001 5.7962 3.0901 6.1192 3.2011 5.0462 1.5101 4.8692 3.6241 0.8902 3.6861 0.3062"></polygon>
                <g id="Group-44" transform="translate(0.000000, 13.804000)">
                    <path d="M58.0258,13.978 C57.7278,13.766 57.8238,13.474 57.9248,13.255 C58.0338,13.034 58.3798,12.531 58.5648,12.285 C58.7498,12.048 59.0798,12.115 59.2088,12.28 C59.3408,12.44 59.5888,12.852 59.7038,13.189 C59.8818,13.676 59.8118,13.957 59.7058,14.026 C59.5988,14.095 59.3628,14.129 58.9668,14.143 C58.5608,14.16 58.3268,14.198 58.0258,13.978 M56.6948,7.264 C56.7698,7.205 56.8968,7.199 56.9988,7.189 C57.2548,7.166 57.6278,7.183 57.9388,7.256 C58.2518,7.33 58.8468,7.494 59.1328,7.578 C59.4198,7.661 59.6478,7.737 59.7888,7.787 C59.9298,7.837 60.0548,7.931 59.8338,7.963 C59.6128,7.994 59.3048,7.98 59.0888,7.972 C58.8748,7.963 58.3868,7.89 57.8288,7.794 C57.2698,7.698 56.9818,7.62 56.7558,7.52 C56.5348,7.421 56.6208,7.322 56.6948,7.264 M61.4898,8.37 C61.5858,8.345 61.8688,8.357 62.0858,8.392 C62.3048,8.425 62.4958,8.478 62.8538,8.572 C63.2138,8.666 63.5038,8.773 63.4688,8.832 C63.4338,8.892 63.3488,8.938 63.2218,8.959 C63.0918,8.978 62.6508,8.929 62.4178,8.879 C62.1858,8.828 61.9898,8.746 61.7358,8.63 C61.4798,8.514 61.4168,8.446 61.4218,8.414 C61.4278,8.382 61.4548,8.379 61.4898,8.37 M98.7018,71.526 C98.3538,71.431 98.0778,71.374 97.4788,71.693 C96.8818,72.011 96.1018,72.735 95.4208,73.348 C94.7428,73.958 94.1158,74.389 93.5738,74.585 C93.0308,74.779 91.9878,75.003 91.4218,75.168 C90.8488,75.335 90.5428,75.458 90.0298,75.418 C89.5158,75.378 89.2788,75.349 88.8628,75.446 C88.7228,75.238 87.9708,74.474 87.5688,73.75 C87.1668,73.028 84.9698,69.902 83.9958,68.235 C83.0228,66.565 80.4768,62.424 79.5898,60.881 C78.6988,59.34 77.7948,57.697 77.5858,57.098 C77.3778,56.502 77.0848,56.014 76.8088,55.584 C76.5288,55.152 76.1138,54.972 75.8358,54.819 C75.5548,54.665 75.1128,54.317 74.0548,53.594 C72.9998,52.869 72.1778,52.244 71.3788,51.73 C71.4338,51.327 71.0798,51.041 70.9268,50.88 C70.7738,50.72 70.2798,50.498 69.7448,50.269 C69.2108,50.04 68.6688,49.704 67.9168,49.337 C67.5628,49.009 67.1388,48.896 67.1388,48.896 C67.1388,48.896 67.0138,48.737 66.5018,48.299 C65.9848,47.861 64.6088,47.09 64.0938,46.775 C63.5808,46.463 62.9058,45.941 62.5108,45.587 C62.1128,45.233 61.3768,44.773 61.1538,44.634 C61.1898,44.127 61.2228,43.494 61.2438,42.868 C61.2658,42.242 61.1878,41.087 61.0858,40.162 C60.9788,39.238 60.9448,38.445 61.0018,37.814 C61.0558,37.181 61.1738,36.611 61.2158,36.208 C61.2548,35.805 61.3208,35.285 61.4388,34.847 C61.5538,34.409 61.5958,34.121 61.7458,33.343 C62.1638,33.56 63.1658,33.996 63.5568,34.058 C63.9478,34.121 64.4798,34.259 64.8668,34.327 C65.2508,34.397 65.7828,34.476 65.7828,34.476 L65.9488,34.248 C65.9488,34.248 66.4908,34.457 67.3788,34.747 C68.2698,35.04 68.9648,35.248 69.2558,35.373 C69.5468,35.498 69.7858,35.678 70.2568,35.609 C70.7298,35.54 71.3688,35.248 72.7028,34.775 C74.0398,34.301 75.9148,33.272 77.7908,31.786 C79.6668,30.299 81.0158,29.131 81.6818,28.671 C82.3488,28.212 83.1008,27.56 84.3088,26.655 C85.5168,25.751 86.0588,25.392 86.4638,24.833 C86.8668,24.278 86.8928,23.917 86.8928,23.404 C86.8928,22.889 86.9618,22.415 86.7128,21.97 C86.3788,21.665 85.7398,20.984 85.1568,20.775 C84.5718,20.567 84.0028,20.678 83.6008,21.054 C83.2938,21.249 83.0718,21.595 82.7638,21.944 C82.5138,22.041 82.1958,22.346 82.1398,22.82 C82.0828,23.292 82.1678,23.903 82.3398,24.599 C81.7568,25.091 81.5138,25.419 80.5698,25.891 C79.6248,26.365 76.0248,27.657 74.3718,28.45 C72.7168,29.244 71.3418,29.875 70.8348,30.063 C70.3258,30.251 69.9718,30.104 69.5898,30.015 C69.2078,29.925 68.6768,29.721 68.3388,29.605 C68.3798,29.52 68.4218,29.394 68.3678,29.326 C68.2178,29.153 67.6578,28.812 67.0728,28.41 C66.4908,28.006 65.9738,27.423 65.7108,27.284 C65.4458,27.145 64.8208,26.768 64.4198,26.616 C64.0148,26.463 63.5278,26.214 63.1408,25.644 C62.7498,25.073 62.2628,24.226 61.8048,23.392 C61.6508,22.712 61.1508,22.058 60.8318,21.669 C60.5108,21.281 59.9138,20.154 59.6768,19.572 C59.4418,18.987 59.2328,18.389 58.6208,17.86 C58.9348,17.659 58.9658,17.572 59.5878,17.612 C59.8438,17.628 60.0008,17.49 60.4348,17.328 C60.6838,17.145 60.8478,17.13 61.2058,16.762 C61.5138,16.446 61.7898,16.15 61.9688,15.621 C62.1518,15.094 62.4978,14.372 62.6658,13.927 C62.8338,13.482 63.1508,12.634 63.4828,12.037 C63.8188,11.438 64.0408,10.729 64.2358,10.215 C64.4288,9.701 64.9288,8.853 65.1658,7.921 C65.4028,6.991 65.4708,5.836 65.3738,5.114 C65.2778,4.391 64.8438,3.307 64.5948,2.777 C64.3448,2.251 64.0938,1.223 63.3568,0.806 C62.6198,0.388 61.8838,0.22 61.1478,0.18 C60.4108,0.139 59.8138,0.18 59.1608,0.32 C58.5068,0.458 57.5198,1.014 57.1308,1.376 C56.7418,1.738 55.6288,2.725 55.3508,3.295 C55.0728,3.864 54.5468,5.212 54.3798,5.824 C54.2128,6.436 53.9768,7.603 53.8388,8.425 C53.6968,9.244 53.3668,10.564 53.1988,11.12 C53.0338,11.675 52.8098,12.232 52.8098,12.511 C52.8098,12.789 52.6718,12.816 52.9618,13.344 C52.3658,13.136 52.2398,13.273 51.6708,13.317 C51.0998,13.359 50.4068,13.498 49.3488,13.748 C48.4598,13.887 47.0458,14.452 46.6428,14.565 C46.2408,14.675 45.2438,15.406 44.4248,15.975 C43.7858,16.379 41.7828,17.2 41.3258,17.407 C40.8648,17.616 39.9758,18.117 39.7268,18.354 C39.4758,18.59 39.4038,18.461 39.0968,18.752 C38.9528,18.897 38.8798,19.006 38.8798,19.006 C38.8798,19.006 37.4668,19.727 35.8818,20.52 C34.2968,21.311 32.0448,22.688 31.2388,23.287 C30.4328,23.884 29.7108,24.385 29.2228,24.732 C28.7378,25.08 28.7788,25.692 28.6678,26.415 C28.5578,27.136 28.5298,28.581 28.5578,30.278 C28.5858,31.974 29.0038,34.878 29.2408,36.38 C29.4768,37.881 29.7678,40.856 29.8668,41.648 C29.9638,42.442 30.0198,42.929 29.9368,43.333 C29.8508,43.736 29.6178,44.264 29.4088,44.653 C29.1998,45.043 28.9758,45.628 29.0728,45.948 C29.1708,46.268 29.2688,46.586 29.6438,47.157 C29.6018,47.395 29.6578,47.63 29.7708,47.935 C29.8808,48.243 30.2148,48.813 30.3958,49.174 C30.5768,49.537 30.7708,49.676 31.1458,49.69 C31.4238,49.815 31.7848,49.8 32.0638,49.579 C32.3408,49.355 33.0628,48.672 33.6338,48.13 C34.2038,47.589 34.0508,47.269 33.9968,46.475 C33.9388,45.682 33.8138,44.931 33.6608,44.167 C33.5078,43.402 33.4708,42.292 33.5628,40.903 C33.6568,39.511 33.8218,36.398 33.8578,34.73 C33.8958,33.062 33.8218,30.468 33.8018,29.745 C33.7838,29.02 33.8398,28.632 34.5608,28.354 C35.2858,28.075 37.1378,27.427 38.3248,26.816 C39.5098,26.204 40.6968,25.665 40.6968,25.665 C40.6968,25.665 40.7508,26.037 41.1418,26.056 C41.4728,25.981 42.5118,25.574 43.0498,25.351 C43.5878,25.127 44.7928,24.702 46.4608,24.054 C46.2928,25.499 45.9768,28.426 45.9788,29.817 C45.9768,31.207 46.0908,33.503 46.0528,33.932 C46.0158,34.358 46.0908,34.894 45.9058,35.285 C45.7198,35.672 45.4788,36.97 45.3318,37.637 C45.1838,38.305 44.4228,39.953 44.0158,41.178 C43.6088,42.403 43.3498,44.015 43.3498,44.015 C43.3498,44.015 43.7188,44.202 44.1288,44.349 C43.6828,44.777 43.4418,45.537 43.1818,45.871 C42.9218,46.206 42.7378,46.779 42.4618,47.521 C42.1828,48.263 41.0848,50.857 40.5858,51.665 C40.0838,52.472 39.5488,53.35 39.0168,54.089 C38.2588,55.142 38.4028,55.251 38.3828,55.639 C38.0878,55.954 36.8078,57.728 36.1398,58.58 C35.4738,59.433 34.4938,60.842 33.7328,61.657 C32.6598,61.157 30.2128,60.935 28.1728,61.029 C26.1338,61.121 23.1138,61.139 21.1298,60.901 C19.1478,60.66 17.7898,60.405 16.6508,60.277 C15.5108,60.154 14.6358,60.044 13.9258,59.916 C13.2168,59.792 12.5198,59.321 12.2568,59.111 C11.9928,58.902 11.3948,58.444 10.8538,58.054 C10.3118,57.665 9.5458,57.273 8.8798,57.054 C8.3098,56.943 8.0588,56.832 7.7118,56.943 C7.5188,57.29 6.5038,59.167 5.8778,60.435 C5.2538,61.698 3.8578,64.238 3.3028,65.257 C2.7468,66.279 1.8208,68.21 1.5188,69.087 C1.2158,69.962 1.0018,70.871 0.9928,71.217 C1.0448,71.274 1.1728,71.542 1.4448,71.715 C1.7078,71.822 2.3378,71.879 2.6498,71.666 C2.9618,71.454 3.2128,71.24 3.6178,70.839 C3.7798,70.674 4.3408,70.207 4.6198,69.947 C4.8968,69.687 6.3408,68.13 7.0458,67.537 C7.7508,66.944 8.8058,65.98 9.3448,65.74 C9.8808,65.497 10.5288,65.166 11.2148,64.905 C11.8098,64.869 13.4038,64.868 16.0168,65.254 C18.6278,65.644 23.0398,67.182 26.3398,68.145 C29.6378,69.109 31.7698,69.552 32.7888,69.535 C33.8078,69.516 35.3338,69.687 35.9718,69.671 C36.6108,69.657 37.2088,69.408 37.7378,69.215 C38.2648,69.02 38.6948,68.448 39.2528,68.045 C39.8078,67.644 41.3088,66.627 43.2258,65.129 C45.1448,63.624 47.0218,61.86 47.6738,61.387 C47.8808,61.484 48.2998,61.624 48.5058,61.415 C48.7168,61.207 49.6608,60.623 50.4678,60.023 C51.2738,59.424 52.2178,58.397 52.9678,57.493 C53.7198,56.588 54.5958,55.6 54.5958,55.6 C54.5958,55.6 55.5408,55.809 56.2348,56.129 C56.7228,56.49 57.5978,56.838 58.3348,57.185 C59.0718,57.532 60.1808,58.242 60.8798,58.59 C61.5738,58.938 62.3958,59.383 62.5878,59.439 C62.7848,59.493 62.9218,59.423 63.2698,59.188 C63.6168,58.951 63.9228,58.603 63.9228,58.603 C63.9228,58.603 64.1308,58.7 65.6718,59.214 C67.2168,59.729 67.9268,60.228 68.8838,60.745 C69.8438,61.257 70.2198,61.62 70.7068,62.355 C71.1938,63.093 71.9298,64.274 73.4458,66.15 C74.9608,68.028 78.5748,71.681 80.3398,73.726 C82.1068,75.767 84.5678,79.062 85.2348,79.98 C85.2348,80.465 85.4998,81.008 85.7908,81.576 C86.0848,82.146 86.7508,83.313 87.3468,83.883 C87.9448,84.455 88.6838,85.164 89.0298,85.397 C89.3768,85.635 89.5448,85.873 90.0448,85.665 C90.5718,85.232 91.1558,84.633 91.9748,83.328 C92.7958,82.02 93.5888,80.938 94.5618,79.754 C95.5348,78.575 96.4638,77.266 97.6318,75.586 C98.7988,73.904 99.1608,72.874 99.2048,72.374 C99.2438,71.874 99.1478,71.733 98.7018,71.526" id="Fill-8" fill="#000000"></path>
                    <path d="M29.478,83.7617 L26.983,83.7617 L27.156,80.4167 C27.188,79.7697 27.23,79.2087 27.281,78.7347 C27.307,78.4987 27.327,78.3037 27.342,78.1467 C27.357,77.9907 27.371,77.8707 27.381,77.7877 C27.322,77.9577 27.217,78.2727 27.069,78.7347 C26.997,78.9697 26.916,79.2167 26.831,79.4767 C26.745,79.7367 26.649,80.0107 26.544,80.2987 L25.298,83.7617 L22.886,83.7617 L22.96,74.2137 L25.508,74.2137 L25.323,76.8427 C25.243,77.8887 25.164,78.7127 25.087,79.3097 L24.974,80.1817 L25.226,79.4337 C25.512,78.5587 25.811,77.7287 26.124,76.9417 L27.217,74.2137 L29.362,74.2137 L29.252,76.5087 C29.205,77.5757 29.086,78.8397 28.898,80.2987 C29.094,79.6437 29.278,79.0627 29.449,78.5547 C29.618,78.0477 29.785,77.5887 29.945,77.1767 L31.097,74.2137 L33.614,74.2137 L29.478,83.7617 Z" id="Fill-10" fill="#000000"></path>
                    <path d="M35.3461,80.5405 L35.4361,79.4265 C35.4331,79.4235 35.4381,79.3675 35.4501,79.2605 C35.4621,79.1685 35.5011,78.8115 35.5681,78.1845 C35.5751,78.1135 35.5871,78.0185 35.6031,77.8965 C35.6191,77.7745 35.6381,77.6215 35.6601,77.4365 L35.7871,76.5335 C35.7601,76.6195 35.7261,76.7165 35.6861,76.8245 C35.6481,76.9305 35.6051,77.0485 35.5591,77.1765 C35.4711,77.4325 35.4091,77.6095 35.3741,77.7085 C35.3391,77.8075 35.3171,77.8675 35.3081,77.8875 L34.8631,79.0435 L34.2581,80.5405 L35.3461,80.5405 Z M37.7631,83.7615 L35.0981,83.7615 L35.1861,82.5495 L33.4491,82.5495 L32.9581,83.7615 L30.2931,83.7615 L34.7881,74.2135 L37.9421,74.2135 L37.7631,83.7615 Z" id="Fill-12" fill="#000000"></path>
                    <polygon id="Fill-14" fill="#000000" points="44.9477 83.7617 42.1647 83.7617 41.4677 79.3597 40.5197 83.7617 37.9417 83.7617 40.1427 74.2137 42.7207 74.2137 41.7097 78.3077 44.1747 74.2137 46.8947 74.2137 43.7747 78.8207"></polygon>
                    <polygon id="Fill-16" fill="#000000" points="45.1196 83.7617 47.3206 74.2137 52.1126 74.2137 51.5856 76.5027 49.3716 76.5027 49.0916 77.7207 51.0766 77.7207 50.5486 80.0087 48.5626 80.0087 48.2256 81.4737 50.4396 81.4737 49.9116 83.7617"></polygon>
                    <path d="M63.4194,83.7617 L60.8104,83.7617 L61.7094,79.4087 L62.0254,77.6717 C61.9184,78.0057 61.8114,78.3237 61.7024,78.6267 C61.5944,78.9287 61.4794,79.2227 61.3574,79.5077 L59.5334,83.7617 L57.3914,83.7617 L57.6814,79.5007 C57.6964,79.2537 57.7384,78.8287 57.8084,78.2277 C57.8194,78.1367 57.8444,77.9507 57.8804,77.6717 L57.4114,79.4337 L56.1854,83.7617 L53.4404,83.7617 L56.7544,74.2137 L59.9634,74.2137 L59.7604,77.4297 C59.7444,77.6937 59.7184,77.9807 59.6824,78.2897 C59.6464,78.5977 59.6014,78.9347 59.5454,79.2977 C59.7374,78.6917 59.9354,78.1487 60.1384,77.6717 L61.5764,74.2137 L64.6924,74.2137 L63.4194,83.7617 Z" id="Fill-18" fill="#000000"></path>
                    <polygon id="Fill-20" fill="#000000" points="64.0805 83.7617 66.2815 74.2137 71.0735 74.2137 70.5465 76.5027 68.3325 76.5027 68.0525 77.7207 70.0375 77.7207 69.5095 80.0087 67.5235 80.0087 67.1865 81.4737 69.4005 81.4737 68.8725 83.7617"></polygon>
                    <g id="Group-24" transform="translate(4.000000, 84.000000)">
                        <mask id="mask-2" fill="white">
                            <use xlink:href="#path-1"></use>
                        </mask>
                        <g id="Clip-23"></g>
                        <path d="M6.3403,0.4521 L8.9183,0.4521 L7.3893,7.0891 C7.2613,7.6431 7.0683,8.0941 6.8123,8.4381 C6.5563,8.7991 6.1923,9.1241 5.7203,9.4161 C5.0863,9.8061 4.3803,10.0001 3.6013,10.0001 C2.7193,10.0001 2.0283,9.7851 1.5293,9.3551 C0.8983,8.8081 0.7203,7.9341 0.9973,6.7301 L2.4443,0.4521 L5.0233,0.4521 L3.6113,6.5751 C3.5163,6.9891 3.4993,7.2821 3.5603,7.4541 C3.6223,7.6251 3.7723,7.7121 4.0113,7.7121 C4.2583,7.7121 4.4473,7.6321 4.5793,7.4721 C4.7133,7.3041 4.8293,7.0071 4.9283,6.5801 L6.3403,0.4521 Z" id="Fill-22" fill="#000000" mask="url(#mask-2)"></path>
                    </g>
                    <g id="Group-27" transform="translate(11.000000, 84.000000)">
                        <mask id="mask-4" fill="white">
                            <use xlink:href="#path-3"></use>
                        </mask>
                        <g id="Clip-26"></g>
                        <path d="M4.4994,4.8613 L4.6154,4.8673 C4.9294,4.8673 5.2014,4.7713 5.4314,4.5803 C5.6594,4.3883 5.8124,4.1253 5.8904,3.7913 C5.9664,3.4623 5.9374,3.1943 5.8044,2.9883 C5.6704,2.7783 5.4644,2.6723 5.1844,2.6723 L5.0044,2.6723 L4.4994,4.8613 Z M3.3144,10.0003 L0.7364,10.0003 L2.9374,0.4523 L5.4364,0.4523 C6.6814,0.4523 7.5454,0.7063 8.0304,1.2143 C8.6024,1.8113 8.7644,2.6423 8.5194,3.7053 C8.2524,4.8633 7.6764,5.7273 6.7914,6.2963 C6.1864,6.6793 5.4024,6.8713 4.4384,6.8713 L4.0364,6.8713 L3.3144,10.0003 Z" id="Fill-25" fill="#000000" mask="url(#mask-4)"></path>
                    </g>
                    <path d="M26.6049,90.7788 L26.6949,89.6648 C26.6919,89.6618 26.6969,89.6058 26.7089,89.4988 C26.7209,89.4068 26.7599,89.0498 26.8269,88.4228 C26.8339,88.3518 26.8459,88.2568 26.8619,88.1348 C26.8779,88.0128 26.8969,87.8598 26.9189,87.6748 L27.0459,86.7718 C27.0179,86.8578 26.9839,86.9548 26.9449,87.0628 C26.9069,87.1688 26.8639,87.2868 26.8179,87.4148 C26.7299,87.6708 26.6679,87.8478 26.6329,87.9468 C26.5979,88.0458 26.5759,88.1058 26.5669,88.1258 L26.1219,89.2818 L25.5169,90.7788 L26.6049,90.7788 Z M29.0219,93.9998 L26.3569,93.9998 L26.4449,92.7878 L24.7079,92.7878 L24.2169,93.9998 L21.5519,93.9998 L26.0469,84.4518 L29.2009,84.4518 L29.0219,93.9998 Z" id="Fill-28" fill="#000000"></path>
                    <path d="M29.4535,94 L31.6545,84.452 L34.1155,84.452 L34.6355,87.804 C34.6595,88.002 34.6865,88.229 34.7165,88.484 C34.7465,88.74 34.7765,89.034 34.8075,89.368 L34.8785,90.209 C34.9745,89.381 35.0655,88.672 35.1515,88.083 C35.2395,87.493 35.3275,86.998 35.4205,86.598 L35.9145,84.452 L38.4005,84.452 L36.1995,94 L33.7135,94 L33.1475,90.487 C33.0895,90.112 33.0405,89.761 32.9995,89.433 C32.9605,89.105 32.9305,88.793 32.9115,88.497 C32.8585,89.168 32.7995,89.754 32.7315,90.252 C32.6645,90.752 32.5875,91.189 32.5005,91.563 L31.9385,94 L29.4535,94 Z" id="Fill-30" fill="#000000"></path>
                    <path d="M40.2993,91.7119 C41.2343,91.6669 41.8783,90.8709 42.2353,89.3259 C42.4103,88.5629 42.4323,87.9609 42.2993,87.5199 C42.1663,87.0749 41.9013,86.8529 41.5003,86.8529 L41.4203,86.8529 L40.2993,91.7119 Z M37.1943,93.9999 L39.3953,84.4519 L41.6203,84.4519 C42.8953,84.4519 43.8073,84.7949 44.3593,85.4789 C45.0843,86.3739 45.2613,87.6249 44.8913,89.2329 C44.5263,90.8159 43.8513,92.0379 42.8633,92.8989 C42.0233,93.6329 40.9373,93.9999 39.6053,93.9999 L37.1943,93.9999 Z" id="Fill-32" fill="#000000"></path>
                    <path d="M52.6616,88.4785 L56.2606,88.4785 L56.1716,88.8625 C55.7606,90.6475 55.1896,91.9315 54.4616,92.7155 C53.6656,93.5715 52.6826,93.9995 51.5126,93.9995 C50.3616,93.9995 49.5556,93.5825 49.0926,92.7455 C48.6356,91.9025 48.5776,90.7435 48.9176,89.2715 C49.2616,87.7785 49.8596,86.6025 50.7146,85.7425 C51.5676,84.8825 52.5626,84.4525 53.7006,84.4525 C55.2096,84.4525 56.1236,85.2365 56.4416,86.8025 L53.7336,87.7175 C53.7656,87.4165 53.7346,87.1785 53.6406,87.0035 C53.5476,86.8285 53.3996,86.7405 53.1976,86.7405 C52.4886,86.7405 51.9236,87.6565 51.5016,89.4875 C51.3216,90.2655 51.2686,90.8315 51.3456,91.1835 C51.4206,91.5365 51.6286,91.7115 51.9716,91.7115 C52.1066,91.7115 52.2376,91.6825 52.3626,91.6245 C52.4876,91.5665 52.5996,91.4845 52.7006,91.3785 C52.8016,91.2725 52.8906,91.1455 52.9696,90.9935 C53.0476,90.8425 53.1076,90.6735 53.1506,90.4875 L52.1986,90.4875 L52.6616,88.4785 Z" id="Fill-34" fill="#000000"></path>
                    <path d="M60.9457,89.2808 C61.3367,87.5878 61.2257,86.7408 60.6167,86.7408 C60.3107,86.7408 60.0167,86.9628 59.7327,87.4078 C59.4607,87.8208 59.2317,88.4268 59.0477,89.2268 C58.8657,90.0148 58.8087,90.6258 58.8757,91.0598 C58.9427,91.4948 59.1237,91.7118 59.4207,91.7118 C59.7247,91.7118 60.0097,91.4978 60.2737,91.0688 C60.5457,90.6408 60.7697,90.0448 60.9457,89.2808 M63.6287,89.2588 C63.3037,90.6648 62.7087,91.8058 61.8417,92.6868 C60.9807,93.5618 60.0197,93.9998 58.9617,93.9998 C58.0207,93.9998 57.2937,93.6638 56.7757,92.9908 C56.1287,92.1388 55.9997,90.8618 56.3917,89.1578 C56.7687,87.5258 57.4977,86.2778 58.5787,85.4148 C59.3827,84.7728 60.2327,84.4518 61.1317,84.4518 C62.2317,84.4518 63.0087,84.8858 63.4597,85.7538 C63.9107,86.6218 63.9667,87.7908 63.6287,89.2588" id="Fill-36" fill="#000000"></path>
                    <polygon id="Fill-38" fill="#000000" points="66.5795 91.52 63.4755 91.52 63.9035 89.665 67.0075 89.665"></polygon>
                    <path d="M71.4594,88.4785 L75.0584,88.4785 L74.9694,88.8625 C74.5584,90.6475 73.9874,91.9315 73.2594,92.7155 C72.4634,93.5715 71.4804,93.9995 70.3104,93.9995 C69.1594,93.9995 68.3534,93.5825 67.8904,92.7455 C67.4334,91.9025 67.3754,90.7435 67.7154,89.2715 C68.0594,87.7785 68.6574,86.6025 69.5124,85.7425 C70.3654,84.8825 71.3604,84.4525 72.4984,84.4525 C74.0074,84.4525 74.9214,85.2365 75.2394,86.8025 L72.5314,87.7175 C72.5634,87.4165 72.5324,87.1785 72.4384,87.0035 C72.3454,86.8285 72.1974,86.7405 71.9954,86.7405 C71.2864,86.7405 70.7214,87.6565 70.2994,89.4875 C70.1194,90.2655 70.0664,90.8315 70.1434,91.1835 C70.2184,91.5365 70.4264,91.7115 70.7694,91.7115 C70.9044,91.7115 71.0354,91.6825 71.1604,91.6245 C71.2854,91.5665 71.3974,91.4845 71.4984,91.3785 C71.5994,91.2725 71.6884,91.1455 71.7674,90.9935 C71.8454,90.8425 71.9054,90.6735 71.9484,90.4875 L70.9964,90.4875 L71.4594,88.4785 Z" id="Fill-40" fill="#000000"></path>
                    <path d="M79.7436,89.2808 C80.1346,87.5878 80.0236,86.7408 79.4146,86.7408 C79.1086,86.7408 78.8146,86.9628 78.5306,87.4078 C78.2586,87.8208 78.0296,88.4268 77.8456,89.2268 C77.6636,90.0148 77.6066,90.6258 77.6736,91.0598 C77.7406,91.4948 77.9216,91.7118 78.2186,91.7118 C78.5226,91.7118 78.8076,91.4978 79.0716,91.0688 C79.3436,90.6408 79.5676,90.0448 79.7436,89.2808 M82.4266,89.2588 C82.1016,90.6648 81.5066,91.8058 80.6396,92.6868 C79.7786,93.5618 78.8176,93.9998 77.7596,93.9998 C76.8186,93.9998 76.0916,93.6638 75.5736,92.9908 C74.9266,92.1388 74.7976,90.8618 75.1896,89.1578 C75.5666,87.5258 76.2956,86.2778 77.3766,85.4148 C78.1806,84.7728 79.0306,84.4518 79.9296,84.4518 C81.0296,84.4518 81.8066,84.8858 82.2576,85.7538 C82.7086,86.6218 82.7646,87.7908 82.4266,89.2588" id="Fill-42" fill="#000000"></path>
                </g>
            </g>
        </g>
    </g>
</svg>