<?xml version="1.0" encoding="UTF-8"?>
<svg width="118px" height="128px" viewBox="0 0 118 128" version="1.1" xmlns="http://www.w3.org/2000/svg" xmlns:xlink="http://www.w3.org/1999/xlink">
    <!-- Generator: Sketch 42 (36781) - http://www.bohemiancoding.com/sketch -->
    <title>sticker_pacer_black</title>
    <desc>Created with Sketch.</desc>
    <defs></defs>
    <g id="Page-1" stroke="none" stroke-width="1" fill="none" fill-rule="evenodd">
        <g id="stickers-white" transform="translate(-18.000000, -366.000000)" fill="#000000">
            <g id="sticker_pacer_black" transform="translate(18.000000, 366.000000)">
                <path d="M14.9678,98.8615 C14.9678,98.4645 14.8258,98.1155 14.5458,97.8175 C14.2638,97.5175 13.9118,97.3695 13.4898,97.3695 L10.6178,97.3695 L10.6178,107.6475 L10.7438,107.6475 C12.2928,107.6475 13.3348,107.3785 13.8688,106.8375 C14.6018,106.0975 14.9678,104.6905 14.9678,102.6155 L14.9678,98.8615 Z M18.4228,94.5335 C19.7868,95.8835 20.4698,97.5255 20.4698,99.4595 L20.4698,102.6155 C20.4698,106.1125 19.5458,108.7285 17.6968,110.4625 C16.1338,111.9695 13.7738,112.7225 10.6178,112.7225 L10.6178,120.1865 C10.5038,122.2615 10.9048,123.8545 11.8218,124.9635 C12.0158,125.8155 12.1398,126.3705 12.1958,126.6265 C10.3758,126.4845 9.1388,126.3845 8.4858,126.3285 L7.8028,126.1145 L7.1198,126.3285 C6.4658,126.3845 5.2298,126.4845 3.4098,126.6265 C3.5238,126.0295 3.6658,125.4745 3.8368,124.9635 C4.6328,124.1385 5.0298,122.8735 5.0298,121.1675 L5.0298,98.9475 C5.1728,96.8725 4.7608,95.2795 3.7938,94.1705 C3.5948,93.3175 3.4668,92.7625 3.4098,92.5075 C5.0588,92.5925 6.2958,92.6925 7.1198,92.8055 L7.8028,93.0185 L8.4858,92.8055 C10.1068,92.6065 11.2718,92.5075 11.9828,92.5075 L13.4758,92.5075 C15.4078,92.5075 17.0578,93.1825 18.4228,94.5335 L18.4228,94.5335 Z" id="Fill-1"></path>
                <path d="M29.5538,113.5754 L27.9328,105.0894 L26.6528,113.5754 L29.5538,113.5754 Z M37.6138,126.6264 C35.9358,126.5134 34.6998,126.4134 33.9038,126.3284 L33.2208,126.1144 L32.4948,126.3284 C31.6998,126.4134 30.4628,126.5134 28.7848,126.6264 C28.8988,126.0294 29.0418,125.4744 29.2118,124.9634 C30.0358,124.1384 30.5908,122.6454 30.8748,120.4844 L30.3208,117.6704 L26.0128,117.6704 L25.4588,121.2104 C25.7718,123.0014 26.2968,124.2524 27.0358,124.9634 C27.2638,125.7884 27.3918,126.3424 27.4198,126.6264 C25.7718,126.5134 24.5488,126.4134 23.7528,126.3284 L23.0288,126.1144 L22.3448,126.3284 C21.5208,126.4134 20.2828,126.5134 18.6348,126.6264 C18.7208,126.0294 18.8628,125.4744 19.0618,124.9634 C20.0278,123.8544 20.5968,122.2624 20.7678,120.1864 L24.6488,95.7914 C24.4198,95.0804 24.1368,94.5404 23.7948,94.1704 C23.5678,93.3454 23.4258,92.7924 23.3688,92.5074 C25.1888,92.6214 26.4248,92.7204 27.0798,92.8054 L27.7618,93.0184 L28.4448,92.8054 C29.0978,92.7204 30.3348,92.6214 32.1558,92.5074 C32.0698,93.0764 31.9418,93.6314 31.7718,94.1704 C31.3438,94.5964 31.0168,95.2364 30.7898,96.0904 L36.0348,122.8734 C36.3478,123.8114 36.7318,124.5094 37.1868,124.9634 C37.4138,125.7884 37.5568,126.3424 37.6138,126.6264 L37.6138,126.6264 Z" id="Fill-3"></path>
                <path d="M49.2989,103.6809 C49.6409,102.4879 49.8119,101.4069 49.8119,100.4399 C49.8119,98.3079 49.0859,97.2419 47.6359,97.2419 L45.8879,97.2419 C45.5179,97.2419 45.1909,97.3839 44.9059,97.6679 C44.6219,97.9519 44.4799,98.2929 44.4799,98.6919 L44.4799,120.4429 C44.4799,120.8409 44.6219,121.1819 44.9059,121.4659 C45.1909,121.7499 45.5179,121.8929 45.8879,121.8929 L47.6359,121.8929 C49.0859,121.8929 49.8119,120.8269 49.8119,118.6939 C49.8119,117.7279 49.6409,116.6469 49.2989,115.4519 L49.2989,114.5999 C50.2309,114.6279 51.1039,114.8699 51.9209,115.3249 C53.3599,116.1499 54.1489,117.4289 54.2889,119.1629 C53.8339,121.4659 53.8059,123.2139 54.2039,124.4089 C53.2369,124.5229 52.3419,124.8219 51.5169,125.3039 C50.3799,126.1579 49.1289,126.5979 47.7639,126.6259 L45.8879,126.6259 C44.0389,126.6259 42.4539,125.9659 41.1319,124.6429 C39.8109,123.3209 39.1489,121.7369 39.1489,119.8879 L39.1489,99.2449 C39.1489,97.3979 39.8109,95.8129 41.1319,94.4909 C42.4539,93.1679 44.0389,92.5069 45.8879,92.5069 L47.7639,92.5069 C49.1289,92.5349 50.3799,92.9769 51.5169,93.8289 C52.6829,94.2849 53.5779,94.5829 54.2039,94.7249 C53.7779,95.9189 53.8059,97.6679 54.2889,99.9709 C54.1489,101.7049 53.3599,102.9849 51.9209,103.8089 C51.1319,104.2359 50.2579,104.4919 49.2989,104.5769 L49.2989,103.6809 Z" id="Fill-5"></path>
                <path d="M71.9454,114.9836 C73.5934,115.8076 74.4904,117.1156 74.6334,118.9076 C74.1484,121.3236 74.1204,123.1436 74.5474,124.3666 C73.5514,124.4516 72.6284,124.7506 71.7744,125.2616 C70.6084,126.1426 69.1734,126.5976 67.4674,126.6266 L65.5484,126.6266 C65.4914,126.6266 65.1224,126.5976 64.4394,126.5416 C63.3304,126.4276 62.5344,126.3566 62.0504,126.3286 L61.3684,126.1146 L60.6434,126.3286 C59.8474,126.4136 58.6104,126.5126 56.9324,126.6266 C57.0754,126.0576 57.2164,125.5036 57.3594,124.9626 C58.2984,123.8546 58.7104,122.2616 58.5964,120.1866 L58.5964,98.9476 L58.5534,98.9476 C58.6954,96.8726 58.2984,95.2796 57.3594,94.1706 C57.1324,93.3176 56.9894,92.7626 56.9324,92.5066 C58.7244,92.6216 59.9614,92.7206 60.6434,92.8056 L61.3264,93.0186 L74.0354,93.0186 L74.0354,104.6626 C73.8364,104.6906 73.6364,104.7056 73.4384,104.7056 C71.8744,104.7056 71.0354,103.6536 70.9224,101.5486 C70.7794,99.1316 69.6714,97.9096 67.5954,97.8806 L64.0974,97.8806 L64.0974,105.5576 L64.9084,105.5576 C65.9314,105.7006 66.7274,105.2886 67.2974,104.3216 C67.6944,104.1226 67.9654,103.9946 68.1074,103.9366 C68.0784,104.9326 68.0364,106.1696 67.9794,107.6476 L67.8514,108.3306 L67.9794,109.0116 C68.0364,110.4626 68.0784,111.6996 68.1074,112.7226 C67.8224,112.6376 67.5524,112.5096 67.2974,112.3386 C66.9834,111.7136 66.2874,111.3156 65.2074,111.1446 L64.0974,111.1446 L64.0974,121.7646 L67.3404,121.7646 C68.8454,121.7646 69.5994,120.6556 69.5994,118.4376 C69.5994,117.4426 69.4004,116.3196 69.0034,115.0686 L69.0034,114.1726 C70.0544,114.2296 71.0354,114.5006 71.9454,114.9836" id="Fill-7"></path>
                <path d="M88.962,98.8195 C88.962,98.4215 88.82,98.0805 88.54,97.7965 C88.258,97.5115 87.92,97.3695 87.526,97.3695 L84.612,97.3695 L84.612,107.6045 L84.738,107.6045 C86.316,107.6045 87.357,107.3355 87.864,106.7955 C88.596,106.0555 88.962,104.6485 88.962,102.5725 L88.962,98.8195 Z M96.639,126.6265 C95.445,127.0525 94.393,127.2655 93.483,127.2655 C90.981,127.2655 89.63,125.9015 89.432,123.1725 L89.304,121.2105 C88.987,116.8315 88.242,113.9455 87.066,112.5515 C86.577,112.6095 85.76,112.6375 84.612,112.6375 L84.612,120.1005 C84.469,122.1485 84.879,123.7265 85.838,124.8355 C86.043,125.6875 86.174,126.2425 86.233,126.4985 C84.469,126.3845 83.247,126.2855 82.565,126.2005 L81.883,125.9865 L81.2,126.2005 C80.518,126.2855 79.281,126.3845 77.489,126.4985 C77.575,125.9295 77.717,125.3755 77.916,124.8355 C78.712,124.0395 79.11,122.7885 79.11,121.0825 L79.11,98.9045 C79.224,96.8575 78.812,95.2795 77.873,94.1705 C77.674,93.3175 77.546,92.7625 77.489,92.5075 C79.082,92.5925 80.318,92.6925 81.2,92.8055 L81.883,93.0185 L82.565,92.8055 C84.157,92.6065 85.322,92.5075 86.063,92.5075 L87.555,92.5075 C89.46,92.5075 91.087,93.1825 92.438,94.5335 C93.788,95.8835 94.464,97.5115 94.464,99.4165 L94.464,102.5725 C94.464,105.7855 93.668,108.2735 92.075,110.0365 C93.838,112.6795 94.72,116.3045 94.72,120.9115 C94.805,124.1245 95.445,126.0295 96.639,126.6265 L96.639,126.6265 Z" id="Fill-9"></path>
                <path d="M68.2003,14.9768 C67.9883,14.6388 68.2073,14.3848 68.4003,14.2078 C68.6013,14.0318 69.1593,13.6698 69.4483,13.4988 C69.7333,13.3378 70.0363,13.5418 70.0973,13.7628 C70.1653,13.9788 70.2423,14.4978 70.2163,14.8838 C70.1923,15.4478 70.0053,15.7018 69.8693,15.7268 C69.7333,15.7508 69.4813,15.6868 69.0773,15.5358 C68.6623,15.3838 68.4103,15.3238 68.2003,14.9768 M66.4873,9.4978 C66.1983,9.1948 66.2803,8.6118 66.3593,8.2488 C66.4333,7.8868 66.5773,7.7428 66.6963,7.6078 C67.0013,7.2608 67.4373,7.0158 67.8183,7.1188 C68.2003,7.2108 68.9353,7.5148 69.2873,7.6828 C69.6413,7.8528 69.9293,8.0398 70.1043,8.1658 C70.2753,8.2898 70.4423,8.6628 70.1923,9.0178 C69.9383,9.3728 69.5763,9.5728 69.3213,9.7248 C69.0673,9.8708 68.4773,9.9288 67.8033,9.9378 C67.1283,9.9448 66.7703,9.8018 66.4873,9.4978 M72.2243,9.6158 C72.3293,9.4068 72.6643,9.2098 72.9243,9.1948 C73.1953,9.1688 73.4343,9.2688 73.8713,9.4298 C74.3103,9.5818 74.6743,9.8708 74.6493,10.1988 C74.6143,10.5368 74.5313,10.8498 74.3773,11.0698 C74.2323,11.2808 73.7023,11.4228 73.4143,11.3728 C73.1353,11.3198 72.8913,11.0768 72.5633,10.7128 C72.2403,10.3508 72.1473,10.0618 72.1473,9.8948 C72.1473,9.7338 72.1823,9.6938 72.2243,9.6158 M116.6343,85.1848 C116.2233,85.0678 115.8893,84.9988 115.1753,85.3768 C114.4663,85.7588 113.5303,86.6248 112.7193,87.3528 C111.9083,88.0878 111.1663,88.6028 110.5133,88.8308 C109.8683,89.0668 108.6243,89.3288 107.9383,89.5318 C107.2633,89.7258 106.8933,89.8758 106.2893,89.8268 C105.6713,89.7838 105.3903,89.7448 104.8923,89.8618 C104.7233,89.6178 103.8293,88.7048 103.3503,87.8338 C102.8653,86.9738 100.2403,83.2418 99.0763,81.2498 C97.9203,79.2568 94.8803,74.3198 93.8183,72.4708 C92.7553,70.6288 91.6833,68.6708 91.4293,67.9548 C91.1753,67.2458 90.8323,66.6638 90.5033,66.1488 C90.1703,65.6338 89.6753,65.4228 89.3373,65.2368 C89.0073,65.0518 88.4753,64.6368 87.2163,63.7788 C85.9583,62.9068 84.9713,62.1638 84.0153,61.5468 C84.0843,61.0668 83.6613,60.7288 83.4753,60.5328 C83.3013,60.3508 82.7083,60.0788 82.0653,59.8088 C81.4353,59.5298 80.7843,59.1328 79.8893,58.6968 C79.4663,58.3048 78.9603,58.1718 78.9603,58.1718 C78.9603,58.1718 78.8103,57.9768 78.2043,57.4538 C77.5853,56.9288 75.9403,56.0088 75.3223,55.6398 C74.7163,55.2688 73.9033,54.6428 73.4343,54.2198 C72.9593,53.7998 72.0813,53.2508 71.8113,53.0808 C71.8523,52.4728 71.8963,51.7218 71.9213,50.9698 C71.9443,50.2258 71.8523,48.8448 71.7353,47.7478 C71.6093,46.6408 71.5663,45.6958 71.6323,44.9438 C71.6913,44.1838 71.8393,43.4998 71.8883,43.0178 C71.9373,42.5478 72.0143,41.9218 72.1563,41.3978 C72.2933,40.8738 72.3413,40.5298 72.5183,39.6008 C73.0183,39.8608 74.2193,40.3788 74.6813,40.4538 C75.1463,40.5298 75.7883,40.6978 76.2453,40.7748 C76.7063,40.8588 77.3413,40.9528 77.3413,40.9528 L77.5333,40.6818 C77.5333,40.6818 78.1833,40.9328 79.2483,41.2808 C80.3123,41.6278 81.1403,41.8778 81.4853,42.0238 C81.8323,42.1748 82.1193,42.3868 82.6823,42.3088 C83.2433,42.2258 84.0103,41.8778 85.6063,41.3148 C87.1993,40.7478 89.4353,39.5178 91.6733,37.7448 C93.9103,35.9718 95.5223,34.5778 96.3163,34.0298 C97.1203,33.4808 98.0143,32.6968 99.4573,31.6228 C100.9023,30.5428 101.5423,30.1128 102.0323,29.4458 C102.5033,28.7798 102.5383,28.3478 102.5383,27.7418 C102.5383,27.1248 102.6223,26.5578 102.3263,26.0278 C101.9213,25.6628 101.1633,24.8528 100.4713,24.5988 C99.7713,24.3538 99.0873,24.4818 98.6123,24.9368 C98.2413,25.1648 97.9803,25.5788 97.6083,25.9938 C97.3133,26.1118 96.9303,26.4748 96.8633,27.0408 C96.7983,27.6058 96.8973,28.3298 97.1023,29.1668 C96.4073,29.7488 96.1223,30.1468 94.9923,30.7038 C93.8593,31.2668 89.5623,32.8138 87.5953,33.7588 C85.6193,34.7128 83.9763,35.4628 83.3683,35.6838 C82.7613,35.9098 82.3373,35.7338 81.8813,35.6338 C81.4243,35.5228 80.7953,35.2788 80.3873,35.1438 C80.4373,35.0408 80.4903,34.8908 80.4223,34.8068 C80.2443,34.6018 79.5783,34.1998 78.8773,33.7158 C78.1833,33.2348 77.5683,32.5348 77.2573,32.3658 C76.9353,32.2068 76.1913,31.7498 75.7113,31.5718 C75.2313,31.3858 74.6493,31.0918 74.1833,30.4068 C73.7183,29.7308 73.1353,28.7208 72.5873,27.7238 C72.4093,26.9148 71.8113,26.1258 71.4303,25.6628 C71.0503,25.2058 70.3353,23.8588 70.0563,23.1648 C69.7683,22.4628 69.5213,21.7528 68.7893,21.1228 C69.1703,20.8768 69.2023,20.7748 69.9473,20.8288 C70.2523,20.8428 70.4363,20.6818 70.9583,20.4808 C71.2543,20.2708 71.4483,20.2508 71.8783,19.8138 C72.2403,19.4338 72.5723,19.0798 72.7913,18.4448 C73.0083,17.8228 73.4143,16.9518 73.6173,16.4268 C73.8213,15.8968 74.1983,14.8838 74.5963,14.1648 C74.9923,13.4578 75.2653,12.6028 75.4913,11.9968 C75.7263,11.3788 76.3203,10.3698 76.6073,9.2538 C76.8863,8.1478 76.9693,6.7718 76.8513,5.9008 C76.7353,5.0418 76.2163,3.7498 75.9233,3.1178 C75.6293,2.4828 75.3223,1.2578 74.4423,0.7628 C73.5673,0.2628 72.6903,0.0588 71.8113,0.0188 C70.9263,-0.0302 70.2163,0.0188 69.4293,0.1798 C68.6553,0.3478 67.4713,1.0148 67.0153,1.4448 C66.5433,1.8758 65.2193,3.0558 64.8903,3.7308 C64.5523,4.4148 63.9273,6.0208 63.7233,6.7558 C63.5283,7.4808 63.2433,8.8728 63.0833,9.8608 C62.9133,10.8308 62.5143,12.4118 62.3153,13.0778 C62.1193,13.7338 61.8473,14.4048 61.8473,14.7328 C61.8473,15.0708 61.6903,15.1048 62.0373,15.7268 C61.3263,15.4818 61.1753,15.6438 60.4903,15.6928 C59.8173,15.7458 58.9893,15.9128 57.7213,16.2098 C56.6593,16.3778 54.9713,17.0538 54.4913,17.1898 C54.0103,17.3148 52.8253,18.1928 51.8453,18.8698 C51.0783,19.3488 48.6883,20.3288 48.1503,20.5828 C47.5943,20.8288 46.5383,21.4248 46.2353,21.7148 C45.9363,21.9928 45.8523,21.8418 45.4813,22.1848 C45.3143,22.3548 45.2303,22.4888 45.2303,22.4888 C45.2303,22.4888 43.5433,23.3498 41.6523,24.2948 C39.7513,25.2408 37.0663,26.8858 36.1043,27.5948 C35.1413,28.3158 34.2793,28.9078 33.6963,29.3278 C33.1173,29.7408 33.1673,30.4648 33.0303,31.3358 C32.9033,32.1988 32.8743,33.9208 32.9033,35.9448 C32.9383,37.9698 33.4373,41.4318 33.7243,43.2288 C34.0033,45.0198 34.3473,48.5748 34.4643,49.5208 C34.5873,50.4658 34.6513,51.0468 34.5533,51.5278 C34.4503,52.0098 34.1713,52.6438 33.9183,53.1058 C33.6733,53.5708 33.4023,54.2648 33.5193,54.6528 C33.6373,55.0308 33.7593,55.4128 34.2043,56.0958 C34.1543,56.3738 34.2203,56.6608 34.3473,57.0218 C34.4843,57.3848 34.8813,58.0698 35.1003,58.4998 C35.3103,58.9308 35.5463,59.0988 35.9943,59.1178 C36.3243,59.2698 36.7563,59.2448 37.0923,58.9808 C37.4233,58.7198 38.2823,57.9038 38.9663,57.2518 C39.6393,56.6108 39.4643,56.2198 39.3943,55.2758 C39.3283,54.3298 39.1763,53.4368 38.9983,52.5238 C38.8133,51.6118 38.7723,50.2888 38.8823,48.6238 C38.9893,46.9608 39.1833,43.2478 39.2273,41.2548 C39.2773,39.2728 39.1833,36.1728 39.1693,35.3028 C39.1413,34.4418 39.2103,33.9798 40.0713,33.6478 C40.9333,33.3098 43.1453,32.5448 44.5613,31.8098 C45.9803,31.0808 47.3993,30.4338 47.3993,30.4338 C47.3993,30.4338 47.4593,30.8798 47.9293,30.9058 C48.3183,30.8128 49.5593,30.3318 50.2023,30.0628 C50.8433,29.7918 52.2873,29.2848 54.2793,28.5158 C54.0753,30.2388 53.6963,33.7348 53.6963,35.3958 C53.6963,37.0498 53.8303,39.7958 53.7903,40.3018 C53.7473,40.8158 53.8303,41.4558 53.6093,41.9218 C53.3933,42.3868 53.1053,43.9298 52.9283,44.7238 C52.7523,45.5268 51.8453,47.4948 51.3563,48.9528 C50.8683,50.4128 50.5643,52.3368 50.5643,52.3368 C50.5643,52.3368 51.0043,52.5668 51.4933,52.7438 C50.9603,53.2508 50.6763,54.1628 50.3633,54.5588 C50.0493,54.9558 49.8303,55.6398 49.5023,56.5258 C49.1723,57.4138 47.8553,60.5088 47.2633,61.4718 C46.6653,62.4328 46.0243,63.4808 45.3893,64.3668 C44.4873,65.6248 44.6553,65.7508 44.6293,66.2158 C44.2823,66.5948 42.7563,68.7058 41.9543,69.7278 C41.1633,70.7488 39.9893,72.4298 39.0833,73.3988 C37.8003,72.8018 34.8813,72.5388 32.4483,72.6508 C30.0093,72.7578 26.4033,72.7838 24.0413,72.4958 C21.6713,72.2098 20.0503,71.9058 18.6883,71.7538 C17.3313,71.6088 16.2843,71.4758 15.4383,71.3238 C14.5953,71.1718 13.7603,70.6148 13.4483,70.3608 C13.1263,70.1148 12.4173,69.5678 11.7653,69.1028 C11.1263,68.6398 10.2143,68.1648 9.4123,67.9058 C8.7343,67.7788 8.4323,67.6428 8.0183,67.7788 C7.7903,68.1918 6.5753,70.4278 5.8313,71.9408 C5.0913,73.4508 3.4183,76.4818 2.7613,77.6938 C2.0953,78.9188 0.9883,81.2248 0.6273,82.2708 C0.2673,83.3188 0.0113,84.3978 0.0003,84.8138 C0.0583,84.8798 0.2203,85.2008 0.5393,85.4048 C0.8523,85.5398 1.6053,85.6078 1.9753,85.3528 C2.3463,85.0908 2.6473,84.8378 3.1323,84.3648 C3.3263,84.1628 3.9943,83.6048 4.3323,83.2908 C4.6613,82.9898 6.3813,81.1288 7.2273,80.4218 C8.0703,79.7138 9.3273,78.5558 9.9693,78.2718 C10.6103,77.9828 11.3793,77.5878 12.2073,77.2738 C12.9173,77.2338 14.8163,77.2338 17.9403,77.6938 C21.0533,78.1598 26.3213,79.9908 30.2543,81.1508 C34.1963,82.2968 36.7363,82.8308 37.9533,82.8048 C39.1693,82.7758 40.9923,82.9898 41.7603,82.9628 C42.5203,82.9478 43.2283,82.6528 43.8613,82.4238 C44.4963,82.1878 45.0013,81.5108 45.6683,81.0308 C46.3353,80.5488 48.1253,79.3328 50.4123,77.5418 C52.7003,75.7458 54.9453,73.6448 55.7223,73.0788 C55.9743,73.1988 56.4733,73.3568 56.7173,73.1108 C56.9713,72.8668 58.0943,72.1658 59.0543,71.4508 C60.0183,70.7318 61.1503,69.5078 62.0463,68.4258 C62.9413,67.3488 63.9853,66.1728 63.9853,66.1728 C63.9853,66.1728 65.1173,66.4178 65.9433,66.8048 C66.5253,67.2368 67.5723,67.6518 68.4513,68.0638 C69.3303,68.4788 70.6543,69.3218 71.4893,69.7368 C72.3173,70.1598 73.2973,70.6918 73.5253,70.7558 C73.7623,70.8158 73.9243,70.7318 74.3443,70.4528 C74.7553,70.1678 75.1203,69.7518 75.1203,69.7518 C75.1203,69.7518 75.3643,69.8708 77.2043,70.4878 C79.0543,71.1038 79.8963,71.6958 81.0473,72.3118 C82.1843,72.9258 82.6353,73.3568 83.2183,74.2378 C83.7993,75.1138 84.6783,76.5238 86.4833,78.7608 C88.2983,81.0048 92.6123,85.3708 94.7213,87.8098 C96.8233,90.2398 99.7603,94.1728 100.5633,95.2728 C100.5633,95.8528 100.8753,96.5038 101.2203,97.1798 C101.5743,97.8618 102.3703,99.2568 103.0783,99.9318 C103.7953,100.6148 104.6833,101.4588 105.0883,101.7398 C105.5013,102.0248 105.7033,102.3138 106.3043,102.0588 C106.9293,101.5438 107.6303,100.8258 108.6093,99.2728 C109.5883,97.7098 110.5333,96.4178 111.6983,95.0008 C112.8533,93.6018 113.9663,92.0298 115.3603,90.0298 C116.7533,88.0188 117.1823,86.7858 117.2353,86.1978 C117.2853,85.5968 117.1683,85.4308 116.6343,85.1848" id="Fill-11"></path>
            </g>
        </g>
    </g>
</svg>