<?xml version="1.0" encoding="UTF-8"?>
<svg width="140px" height="101px" viewBox="0 0 140 101" version="1.1" xmlns="http://www.w3.org/2000/svg" xmlns:xlink="http://www.w3.org/1999/xlink">
    <!-- Generator: Sketch 42 (36781) - http://www.bohemiancoding.com/sketch -->
    <title>Asset 2</title>
    <desc>Created with Sketch.</desc>
    <defs></defs>
    <g id="Page-1" stroke="none" stroke-width="1" fill="none" fill-rule="evenodd">
        <g id="stickers-white" transform="translate(-30.000000, -309.000000)" fill-rule="nonzero" fill="#000000">
            <g id="Asset-2" transform="translate(30.000000, 309.000000)">
                <g id="Layer_2">
                    <g>
                        <g id="Layer_1-2">
                            <path d="M103.33,74.1 C103.402862,74.0635105 103.455346,73.9960656 103.472818,73.9164723 C103.49029,73.836879 103.47088,73.7536523 103.42,73.69 C103.31,73.54 103.19,73.69 103.09,73.69 C102.56,74.06 102.01,74.4 101.44,74.69 C99.7523394,75.7381923 97.7680218,76.2052971 95.79,76.02 C95.5934825,76.0091678 95.3965175,76.0091678 95.2,76.02 C94.626302,76.006949 94.0641854,76.1826104 93.6,76.52 L92.9,77 C92.5354651,77.2345521 92.1001418,77.33365 91.67,77.28 C91.31,77.28 90.96,77.13 90.58,77.1 L90.23,77.18 C89.5988096,77.4294366 89.048639,77.8481198 88.64,78.39 C88.1634151,79.0684376 87.6134199,79.6922126 87,80.25 C87,80.25 86.9,80.33 86.92,80.39 C86.94,80.45 87.02,80.48 87.09,80.49 C87.3651472,80.4994683 87.6404388,80.4759678 87.91,80.42 C88.6818872,80.2384669 89.4254069,79.9524978 90.12,79.57 C91.0117063,79.0654204 91.987472,78.7266129 93,78.57 C93.2326033,78.5340378 93.4450678,78.4171823 93.6,78.24 C93.9047949,77.9017036 94.3903035,77.793367 94.81,77.97 C95.1072001,78.0851402 95.4414851,78.0517117 95.71,77.88 C96.28,77.57 96.87,77.31 97.46,77.05 C98.97,76.38 100.52,75.78 101.96,74.96 C102.432302,74.6990305 102.88968,74.4119178 103.33,74.1 L103.33,74.1 Z" id="Shape"></path>
                            <path d="M105.63,71.32 C105.557127,71.3981731 105.49027,71.4817447 105.43,71.57 C105.2,71.91 105.08,72.32 104.72,72.57 C104.62,72.64 104.66,72.75 104.77,72.76 C105.21,72.76 105.57,73.07 106,73.15 C106.43,73.23 106.44,73.15 106.42,72.77 C106.403654,72.2775668 106.266275,71.7967393 106.02,71.37 C105.92,71.17 105.78,71.16 105.63,71.32 Z" id="Shape"></path>
                            <path d="M88.8,38.07 C88.689012,38.1309205 88.5906021,38.2123631 88.51,38.31 C88.43,38.4 88.32,38.53 88.41,38.65 C88.5,38.77 88.64,38.65 88.75,38.65 C89.2446208,38.3904397 89.7163143,38.0893587 90.16,37.75 C90.6700948,37.3987957 91.0553169,36.8945049 91.26,36.31 C91.7894651,34.9981399 92.05454,33.594602 92.04,32.18 C92.0486298,30.7943928 91.7372076,29.4255042 91.13,28.18 C90.627922,27.0967234 89.6785705,26.2861233 88.53,25.96 C88.39,25.96 88.23,25.82 88.12,25.96 C88.01,26.1 88.12,26.23 88.23,26.35 C88.4545441,26.7075892 88.7549708,27.0114299 89.11,27.24 C89.9240641,27.8042285 90.5149058,28.6356525 90.78,29.59 C90.95,30.17 91.08,30.76 91.2,31.36 C91.521011,33.0735514 91.2233373,34.8454191 90.36,36.36 C90.031606,37.0791035 89.486019,37.6771508 88.8,38.07 L88.8,38.07 Z" id="Shape"></path>
                            <path d="M99.76,79 C99.2302033,79.4754031 98.5512419,79.7512312 97.84,79.78 C96.79,79.95 95.72,80.01 94.66,80.14 C93.3856565,80.4152027 92.0743495,80.4760366 90.78,80.32 C90.71,80.32 90.63,80.32 90.61,80.39 C90.59,80.46 90.61,80.51 90.72,80.55 L90.95,80.68 C91.9569932,81.1640782 93.0628282,81.4071565 94.18,81.39 C95.488975,81.3805318 96.7846148,81.1261523 98,80.64 C98.766882,80.3600263 99.4535434,79.8965298 100,79.29 C100.08,79.2 100.17,79.1 100.05,78.98 C99.93,78.86 99.83,78.87 99.76,79 Z" id="Shape"></path>
                            <path d="M88.56,72.27 C89.2208038,72.8945272 90.1130052,73.2136886 91.02,73.15 C91.425244,73.1199165 91.8269043,73.0529731 92.22,72.95 C93.3101248,72.63328 94.376182,72.2389391 95.41,71.77 C95.7,71.65 95.92,71.52 95.98,71.18 C96.0356128,70.9690802 96.150065,70.7783265 96.31,70.63 C96.5597498,70.3517344 96.8379311,70.1003658 97.14,69.88 C98.0353333,69.1896248 98.7520425,68.2945957 99.23,67.27 C99.4883039,66.8198288 99.5409295,66.2804326 99.3745093,65.7888237 C99.2080892,65.2972148 98.8386379,64.9007006 98.36,64.7 C97.7565314,64.4119611 97.0847648,64.2976915 96.42,64.37 C96.0847799,64.4206112 95.7558977,64.2460194 95.61,63.94 C95.14,63.17 94.67,62.4 94.17,61.65 C93.4315185,60.4041324 92.1418448,59.5864718 90.7,59.45 C90.4739019,59.4426697 90.2719016,59.306708 90.18,59.1 C90.0871717,58.9171889 89.9730455,58.7459996 89.84,58.59 C89.32,57.99 88.95,58.04 88.64,58.78 C88.3519887,59.5299872 88.1571966,60.3125139 88.06,61.11 C87.88,62.23 87.76,63.36 87.55,64.48 C87.2467371,65.7771366 87.0329009,67.0935661 86.91,68.42 C86.8113938,69.2734919 86.9902172,70.1360521 87.42,70.88 C87.7440502,71.3865268 88.1266915,71.8530807 88.56,72.27 L88.56,72.27 Z" id="Shape"></path>
                            <path d="M139.22,81.5 C138.11,81.5 137.01,81.5 135.9,81.38 C134.729327,81.2771411 133.568882,81.0798321 132.43,80.79 C132.25759,80.7694866 132.112361,80.6516158 132.056815,80.4871143 C132.00127,80.3226127 132.045316,80.1408308 132.17,80.02 C132.28,79.87 132.43,79.75 132.55,79.61 C132.67,79.47 132.72,79.46 132.62,79.36 C132.52,79.26 132.46,79.36 132.39,79.36 C132.079925,79.5827847 131.806619,79.8527162 131.58,80.16 C131.543848,80.2351754 131.478029,80.2919045 131.398343,80.3165694 C131.318657,80.3412342 131.232299,80.3316074 131.16,80.29 C130.784206,80.1767856 130.387778,80.1494457 130,80.21 C129.518806,80.2431233 129.037806,80.1427709 128.61,79.92 C127.948021,79.6649602 127.237068,79.5624189 126.53,79.62 C125.49988,79.6402815 124.469817,79.5767387 123.45,79.43 C122.998772,79.3671058 122.591672,79.1257275 122.32,78.76 C121.989721,78.2182591 121.382413,77.9088025 120.75,77.96 C120.341842,77.9901899 119.939576,77.8488532 119.64,77.57 C119.159023,77.222441 118.572242,77.0527693 117.98,77.09 C117.235446,77.0279907 116.486016,77.0615974 115.75,77.19 C115.664984,77.2139192 115.575016,77.2139192 115.49,77.19 C115.152855,77.0558458 114.777145,77.0558458 114.44,77.19 C114.01,77.32 113.73,77.19 113.49,76.67 C113.44,76.56 113.42,76.4 113.25,76.42 C113.08,76.44 113.06,76.57 113.01,76.69 C112.98897,76.7554992 112.972267,76.8223099 112.96,76.89 C112.83,77.42 112.59,77.54 112.08,77.32 C111.847671,77.2265006 111.663499,77.0423288 111.57,76.81 C111.504402,76.6446471 111.35589,76.526599 111.18,76.5 C110.171001,76.3326149 109.334472,75.6265532 109,74.66 C109,74.58 108.95,74.48 108.84,74.47 C108.73,74.46 108.71,74.57 108.68,74.65 C108.002808,76.5835642 107.605456,78.6039943 107.5,80.65 C107.39,82.2 107.38,83.76 107.32,85.32 C107.302254,87.8551565 105.984475,90.2037477 103.83,91.54 C103.626588,91.6748412 103.392987,91.7572883 103.15,91.78 C102.254855,91.8855101 101.404877,92.2310297 100.69,92.78 C100.25,93.1 99.82,93.45 99.35,93.78 C97.7349328,94.8067235 95.6939126,94.8906533 94,94 C93.1351997,93.6019593 92.3026865,93.137223 91.51,92.61 C91.3605677,92.5148061 91.2450621,92.3747994 91.18,92.21 C90.4999258,90.6107617 90.159402,88.887711 90.18,87.15 C90.2119518,86.8359035 90.0326591,86.5384406 89.74,86.42 C89.1320142,86.1379182 88.5498055,85.8033155 88,85.42 C87.6712417,85.1897728 87.397946,84.8891475 87.2,84.54 C87.128777,84.3864078 86.9685718,84.2942899 86.8,84.31 C86.3980956,84.3034513 85.9964315,84.3335761 85.6,84.4 C85.0904315,84.490812 84.5763602,84.5542363 84.06,84.59 C83.1668705,84.6710811 82.3365779,84.123088 82.06,83.27 C81.9531128,82.9219353 81.8663032,82.5680193 81.8,82.21 C81.75,81.99 81.65,81.85 81.41,81.85 C81.2816215,81.8374172 81.1615231,81.7809003 81.07,81.69 C80.4721036,81.1822184 80.0866665,80.4684458 79.99,79.69 C79.8383943,78.4546339 79.8383943,77.2053661 79.99,75.97 C80.114859,74.3342652 79.9178093,72.6899192 79.41,71.13 C78.5974205,68.8972256 77.391741,66.8279274 75.85,65.02 C74.71,63.59 73.46,62.27 72.34,60.83 L72.17,60.59 L72.87,60.59 C75.5319836,60.5707984 78.0667431,59.448262 79.87,57.49 C81.0578646,56.1705611 82.144293,54.7632185 83.12,53.28 C83.49,52.75 83.88,52.28 84.26,51.71 C84.26,51.65 84.33,51.55 84.44,51.59 C84.55,51.63 84.5,51.71 84.51,51.77 C84.5312143,52.0156308 84.4715129,52.26146 84.34,52.47 C84.28,52.57 84.18,52.67 84.29,52.79 C84.4,52.91 84.49,52.79 84.59,52.79 C85.14,52.55 85.34,52.47 85.38,53.26 C85.392965,53.3761263 85.4198238,53.4902763 85.46,53.6 C85.64,54.19 86.14,54.31 86.6,53.87 C86.7430756,53.7335703 86.8526049,53.5658537 86.92,53.38 C86.99,53.18 87.1,53.16 87.28,53.25 C87.7335379,53.4887759 88.1241707,53.8314363 88.42,54.25 C88.66,54.56 88.9,54.87 89.16,55.17 C89.4391106,55.4750185 89.7800138,55.7170598 90.16,55.88 C90.4,56 90.59,55.99 90.74,55.75 C90.89,55.51 90.9,55.62 91,55.75 C91.1106491,55.9104269 91.230867,56.0640388 91.36,56.21 C91.4882612,56.3589842 91.6445575,56.4813031 91.82,56.57 C92.0522013,56.7350297 92.3591901,56.7499098 92.6062637,56.608111 C92.8533373,56.4663122 92.9953545,56.1937418 92.97,55.91 C92.9700096,55.3881099 92.8924971,54.8691131 92.74,54.37 C92.4300925,53.3333239 91.9015509,52.3751291 91.19,51.56 C90.480036,50.7105247 89.7079086,49.9149996 88.88,49.18 C88.49,48.83 88.11,48.46 87.75,48.07 C86.9025622,47.2267318 85.7970976,46.6916024 84.61,46.55 C83.131541,46.3467388 81.6278463,46.428203 80.18,46.79 C78.83,47.06 77.52,47.46 76.18,47.79 C75.59,47.94 75.04,48.21 74.45,48.37 C73.7855136,48.6224555 73.0398333,48.5367022 72.45,48.14 C72.2893461,48.0336249 72.0806539,48.0336249 71.92,48.14 L71.33,48.39 C71.23,48.39 71.11,48.45 71.04,48.34 C70.9747692,48.2469612 70.9747692,48.1230388 71.04,48.03 C71.1125459,47.9275681 71.1964089,47.8336416 71.29,47.75 C71.4264067,47.6368708 71.5386372,47.4974329 71.62,47.34 C71.6805021,47.2413669 71.6976319,47.1221425 71.6673466,47.0104653 C71.6370613,46.8987882 71.562044,46.8045528 71.46,46.75 C70.97,46.42 70.73,46.48 70.4,46.99 C70.07,47.5 70.02,47.4 69.69,47.18 C69.603087,47.133183 69.5436689,47.0477695 69.53,46.95 C69.3746049,45.9280159 68.9578028,44.9635151 68.32,44.15 C67.9160387,43.6059248 67.5613058,43.0269739 67.26,42.42 C66.8633421,41.5666031 66.7715637,40.6029297 67,39.69 L67.07,39.4 C67.07,39.31 67.13,39.2 67.02,39.14 C66.9346367,39.085452 66.8253633,39.085452 66.74,39.14 C66.5925764,39.2395082 66.4581971,39.3570901 66.34,39.49 C66.34,39.49 66.24,39.61 66.17,39.57 C66.1,39.53 66.12,39.45 66.17,39.39 C66.2723424,38.326737 66.2387383,37.2547652 66.07,36.2 L66.07,35.61 C66.07,35.41 66.07,35.43 66.13,35.4 C66.19,35.37 66.27,35.49 66.31,35.56 C66.35,35.63 66.43,35.83 66.49,35.96 C66.55,36.09 66.59,36.22 66.66,36.33 C66.73,36.44 66.82,36.71 67.02,36.67 C67.22,36.63 67.22,36.38 67.23,36.2 C67.2233828,35.8446968 67.075903,35.5065722 66.82,35.26 C66.5601231,35.0082244 66.2863619,34.7711872 66,34.55 C65.37,33.99 65.38,33.55 66,32.97 C66.36,32.67 66.77,32.43 67.11,32.1 C67.3631178,31.8805515 67.5530001,31.5974543 67.66,31.28 C67.73,31.02 67.66,30.88 67.35,30.9 C67.1229992,30.9278191 66.9171548,31.0469922 66.78,31.23 C66.61,31.42 66.46,31.63 66.29,31.81 C66.12,31.99 65.64,32.21 65.51,32.07 C65.38,31.93 65.43,31.57 65.51,31.33 C65.6699087,30.9591363 65.9383499,30.6453739 66.28,30.43 C66.7045008,30.1775871 67.0694863,29.8364791 67.35,29.43 C67.41,29.32 67.55,29.2 67.45,29.06 C67.3452714,28.9350132 67.1764318,28.8839687 67.02,28.93 C66.8944349,28.9560158 66.7732169,28.999789 66.66,29.06 C66.53,29.13 66.41,29.21 66.28,29.29 C66.15,29.37 65.9,29.52 65.7,29.42 C65.5,29.32 65.59,29.08 65.59,28.91 C65.6228014,27.6605805 65.9336717,26.4341801 66.5,25.32 C66.9010737,24.4637346 67.2354016,23.5777656 67.5,22.67 C67.5206421,22.5287119 67.6477236,22.4279232 67.79,22.44 C67.87,22.44 67.96,22.44 67.97,22.34 C67.9786686,22.2959654 67.9684445,22.2503145 67.9418219,22.2141839 C67.9151993,22.1780532 67.8746261,22.1547648 67.83,22.15 C67.61,22.15 67.65,22.01 67.72,21.86 C67.9215325,21.3803576 68.1693727,20.9215182 68.46,20.49 C68.758443,20.0172312 69.2546791,19.7047862 69.81,19.64 C69.9883106,19.6236085 70.1462884,19.51829 70.23,19.36 C70.3762767,19.0822404 70.5652428,18.8291608 70.79,18.61 C70.94,18.48 71.1,18.4 71.17,18.69 C71.17,18.78 71.24,18.86 71.35,18.85 C71.46,18.84 71.49,18.73 71.51,18.63 C71.53,18.53 71.51,18.57 71.51,18.54 C71.58,17.87 71.86,17.63 72.51,17.66 C72.608604,17.6628112 72.6990173,17.7155523 72.75,17.8 C72.75,17.87 72.84,17.95 72.89,18.02 C72.94,18.09 73.18,18.31 73.39,18.21 C73.578398,18.1275127 73.6735412,17.9156028 73.61,17.72 L73.61,17.63 C73.61,17.6 73.49,17.3 73.69,17.21 C73.89,17.12 74,17.29 74.1,17.42 C74.2,17.55 74.26,17.65 74.34,17.75 C74.42,17.85 74.5,17.93 74.64,17.89 C74.7781786,17.8526001 74.8781307,17.7326576 74.89,17.59 L74.89,17.09 C75.1091619,17.2080288 75.2975503,17.3758657 75.44,17.58 C76.03,18.27 76.03,18.28 76.88,17.93 C77.3921515,17.7560957 77.8769967,17.5103062 78.32,17.2 C78.4400889,17.1048027 78.6099111,17.1048027 78.73,17.2 C79.999508,17.858849 81.2164338,18.6144128 82.37,19.46 C84.3480467,20.9085708 86.0428901,22.7084944 87.37,24.77 C87.49,24.96 87.6,24.96 87.72,24.77 C87.9384664,24.5284039 87.9786879,24.1744546 87.82,23.89 C87.603545,23.5427675 87.3664524,23.2088343 87.11,22.89 C86.9624752,22.6930109 86.8476693,22.4735289 86.77,22.24 C86.77,22.17 86.69,22.08 86.77,22.03 C86.85,21.98 86.88,22.09 86.92,22.14 L87.03,22.28 C87.0784837,22.3450339 87.164477,22.3696034 87.24,22.34 C87.3041753,22.3082632 87.3434412,22.2415112 87.34,22.17 C87.3659396,21.9240316 87.3058667,21.6766726 87.17,21.47 C86.9693444,21.1666898 86.7152112,20.9023914 86.42,20.69 C85.9541816,20.3818448 85.5476894,19.9922898 85.22,19.54 C85.09,19.34 84.84,19.27 84.63,19.16 C83.8210271,18.8057184 83.0851387,18.3038222 82.46,17.68 L82.31,17.5 L82.31,17.39 C82.8154347,17.476364 83.3003674,17.6560943 83.74,17.92 C84.2896086,18.2808638 84.7904027,18.7110761 85.23,19.2 C85.7051125,19.7228726 86.2236299,20.2045921 86.78,20.64 C86.9460953,20.7827901 87.1793201,20.8177738 87.38,20.73 C87.7480453,20.6179319 88.1434049,20.6355819 88.5,20.78 C88.6101821,20.82106 88.6999164,20.9036155 88.75,21.01 C89.2014475,21.6595857 89.4263691,22.4397825 89.39,23.23 C89.39,23.31 89.39,23.39 89.47,23.43 C89.5468198,23.4574854 89.6326061,23.4379885 89.69,23.38 C89.8140374,23.2688295 89.9129082,23.132456 89.98,22.98 C90.0388426,22.8695324 90.1092364,22.7656178 90.19,22.67 C90.31,22.53 90.45,22.53 90.54,22.67 C90.63,22.81 90.74,23.07 90.84,23.27 C91.2803972,24.2851029 91.816132,25.2561224 92.44,26.17 C92.8362312,26.721862 93.3525284,27.1766139 93.95,27.5 C94.1698533,27.6114692 94.3407902,27.8002121 94.43,28.03 C95.0786757,29.4808716 95.87985,30.8586232 96.82,32.14 C97.7404397,33.3395785 98.8765296,34.3569725 100.17,35.14 C100.17,35.14 100.28,35.14 100.3,35.27 C100.32,35.4 100.11,35.27 100.01,35.27 C99.8707146,35.239385 99.7279803,35.3046349 99.66,35.43 C99.58,35.58 99.66,35.67 99.78,35.75 C100.223827,36.168293 100.757426,36.4795594 101.34,36.66 C102.098606,36.9003969 102.885143,37.0415702 103.68,37.08 C103.923505,37.0243669 104.169883,37.1608008 104.251941,37.3967163 C104.333998,37.6326317 104.225468,37.8925121 104,38 C104,38.11 103.87,38.05 103.8,38 C102.692543,37.6807908 101.517457,37.6807908 100.41,38 C99.7601976,38.1551587 99.1436773,38.4261566 98.59,38.8 C98.234293,39.0170979 97.9628154,39.3485121 97.82,39.74 C97.7301263,40.0607866 97.4864079,40.3157535 97.17,40.42 C96.8316683,40.5554814 96.5251873,40.759802 96.27,41.02 C95.2529687,41.9520759 94.4744994,43.1146357 94,44.41 C93.7366775,45.0852362 93.7366775,45.8347638 94,46.51 C94.22,47.04 94.31,47.07 94.77,46.74 C94.82,46.74 94.83,46.74 94.83,46.82 C94.8139862,47.6810206 95.180161,48.5049139 95.83,49.07 C96.28,49.51 96.83,49.91 97.26,50.34 C97.3543855,50.4270946 97.4827604,50.4674409 97.61,50.45 C98.9682682,50.3588033 100.310954,50.1070497 101.61,49.7 C103.079673,49.2771487 104.190667,48.0697142 104.49,46.57 C104.56,46.23 104.6,46.22 104.93,46.33 C105.301296,46.4646102 105.615357,46.7222106 105.82,47.06 C106.22,47.69 106.46,48.4 106.82,49.06 C107.088006,49.4841354 107.328501,49.9250425 107.54,50.38 C107.931862,51.1933265 108.010187,52.1225545 107.76,52.99 C107.631218,53.4484275 107.670223,53.937762 107.87,54.37 C108.345121,55.5109654 108.619166,56.7255604 108.68,57.96 C108.68,58.44 108.83,58.91 108.91,59.38 C108.91,59.49 108.91,59.64 109.11,59.62 C109.31,59.6 109.21,59.45 109.22,59.35 C109.22,58.55 109.27,57.74 109.39,56.95 C109.425539,56.5993142 109.530945,56.2592959 109.7,55.95 C109.753721,55.8137009 109.863462,55.7070867 110.001257,55.6573274 C110.139052,55.6075682 110.291591,55.6194701 110.42,55.69 C110.635635,55.744709 110.834704,55.8511077 111,56 C111.07522,56.0637348 111.10972,56.1634016 111.09,56.26 C110.88,57.26 110.85,58.34 110.63,59.37 C110.63,59.56 110.53,59.75 110.47,59.93 C110.41,60.11 110.4,60.09 110.47,60.14 C110.54,60.19 110.64,60.14 110.7,60.06 C110.875384,59.8595803 110.998988,59.6192394 111.06,59.36 C111.15,58.99 111.23,58.62 111.34,58.25 C111.45,57.88 111.49,57.69 111.75,57.71 C112.01,57.73 112.02,58.06 112.07,58.29 C112.204653,59.0605039 112.096316,59.8538134 111.76,60.56 C111.62,60.88 111.46,61.2 111.32,61.56 C111.257989,61.7673005 111.054459,61.8987469 110.84,61.87 C110.66,61.87 110.51,61.87 110.48,62.12 C110.45,62.37 110.3,62.63 110.64,62.78 C110.684272,62.8051799 110.731234,62.8253061 110.78,62.84 C111.35,62.95 111.28,63.18 111.14,63.61 C111.062842,63.7890221 111.009066,63.9772375 110.98,64.17 C110.946158,64.3098698 111.006854,64.4555419 111.13,64.53 C111.262957,64.6050905 111.430445,64.5757801 111.53,64.46 C111.65,64.34 111.74,64.17 111.96,64.3 C112.01,64.3 112.08,64.3 112.13,64.21 C112.679337,63.6067927 113.365122,63.1438877 114.13,62.86 C114.48127,62.7141621 114.778372,62.4624991 114.98,62.14 C115.751386,61.0404298 116.449561,59.8912793 117.07,58.7 C117.546765,57.7150522 117.883361,56.668236 118.07,55.59 C118.07,55.46 118.07,55.29 118.26,55.28 C118.420811,55.2787624 118.564989,55.3788861 118.62,55.53 C118.711626,55.7585821 118.732528,56.0094051 118.68,56.25 C118.640407,56.6040189 118.5244,56.9452156 118.34,57.25 C118.274976,57.3371951 118.236754,57.4414393 118.23,57.55 C118.161286,58.7294323 117.762834,59.8658842 117.08,60.83 C116.766625,61.3036299 116.485972,61.7981143 116.24,62.31 C116.170218,62.4632983 116.045256,62.5846895 115.89,62.65 C115.700231,62.733746 115.532495,62.860404 115.4,63.02 C115.34,63.09 115.28,63.16 115.34,63.26 C115.4,63.36 115.49,63.33 115.58,63.32 C116.292554,63.2084651 116.954805,62.8843106 117.48,62.39 C118.229887,61.6521106 118.801112,60.7525162 119.15,59.76 C119.3,59.39 119.42,59.01 119.56,58.62 C119.723846,58.9773933 119.828543,59.3590309 119.87,59.75 C120.082154,61.7431164 120.112278,63.7514171 119.96,65.75 C119.91,66.92 119.9,68.08 119.87,69.25 C119.882328,69.837988 119.825267,70.4253783 119.7,71 C119.7,71.09 119.63,71.2 119.7,71.26 C119.77,71.32 119.87,71.26 119.93,71.18 C119.99,71.1 119.98,71.18 119.99,71.12 C120.310295,70.6126076 120.568795,70.0687501 120.76,69.5 C121.03,67.78 121.38,66.07 121.76,64.37 C122.02,63.28 122.32,62.21 122.69,61.15 C122.723455,61.0153807 122.723455,60.8746193 122.69,60.74 C122.621304,60.3315429 122.669849,59.911979 122.83,59.53 C122.83,59.46 122.89,59.36 122.99,59.38 C123.09,59.4 123.06,59.51 123.06,59.58 C123.087003,60.470608 123.063632,61.3620304 122.99,62.25 C122.97121,63.1212161 123.004603,63.9927757 123.09,64.86 C123.09,64.94 123.09,65.03 123.2,65.05 C123.31,65.07 123.37,64.97 123.41,64.88 C123.657391,64.3220307 123.812737,63.7276619 123.87,63.12 C123.95355,62.2124945 123.990265,61.3012856 123.98,60.39 L123.98,58.48 C124.066569,57.3618016 123.934093,56.2374557 123.59,55.17 C123.544079,55.080881 123.539831,54.9760382 123.57839,54.8834958 C123.616949,54.7909533 123.694385,54.7201459 123.79,54.69 C124.128121,54.5211633 124.537364,54.5989195 124.79,54.88 C125.325786,55.428014 126.030117,55.7801796 126.79,55.88 C127.004946,55.9006041 127.204549,56.0004056 127.35,56.16 C127.601527,56.3978139 127.912383,56.5636041 128.25,56.64 C128.533771,56.6708474 128.798437,56.7978871 129,57 C129.03661,57.0609798 129.099373,57.1015912 129.17,57.11 C129.73,57.11 130.26,57.34 130.82,57.39 L131,57.39 C131.11,57.39 131.26,57.39 131.29,57.26 C131.32,57.13 131.18,57.09 131.09,57.04 C130.647166,56.8070339 130.171871,56.6418603 129.68,56.55 C129.341199,56.4881514 129.034001,56.3116004 128.81,56.05 C128.058283,55.2227507 127.369684,54.3402745 126.75,53.41 C125.935273,52.1438976 125.743753,50.5749068 126.23,49.15 C126.246886,49.0636145 126.297582,48.9875546 126.37082,48.9387297 C126.444057,48.8899048 126.533765,48.8723615 126.62,48.89 C126.786305,48.9042052 126.943838,48.9707191 127.07,49.08 C127.349086,49.3261762 127.585602,49.6167524 127.77,49.94 C127.885197,50.2633806 127.885197,50.6166194 127.77,50.94 C127.65,51.57 127.5,52.2 127.37,52.84 C127.355321,53.0230395 127.355321,53.2069605 127.37,53.39 C127.37,53.49 127.37,53.6 127.49,53.64 C127.61,53.68 127.66,53.57 127.72,53.49 C128.35582,52.6926585 128.889926,51.8192784 129.31,50.89 C129.489584,50.4042585 129.952126,50.081277 130.47,50.08 C131.614455,50.037157 132.717886,49.6425758 133.63,48.95 C134.056349,48.6109732 134.375797,48.1561068 134.55,47.64 C134.55,47.56 134.62,47.46 134.55,47.4 C134.48,47.34 134.39,47.4 134.32,47.48 C133.95,47.78 133.59,48.08 133.22,48.37 C132.554258,48.9700408 131.610529,49.1510829 130.77,48.84 C130.603444,48.7686027 130.410313,48.8040757 130.28,48.93 C130.13,49.07 130.01,49.02 129.89,48.87 C129.645647,48.6259207 129.527569,48.2827575 129.57,47.94 C129.708991,46.8212204 129.442946,45.6896408 128.82,44.75 C128.558886,44.3226973 128.366541,43.8570176 128.25,43.37 C128.17,43.05 128.25,43 128.55,42.99 C129.385808,42.9651431 130.20975,42.7854355 130.98,42.46 C131.383576,42.2815479 131.797681,42.1279282 132.22,42 C132.394482,41.9595052 132.534931,41.8304445 132.59,41.66 C132.752523,41.2872887 132.983133,40.9481574 133.27,40.66 C133.629621,40.291134 133.854995,39.8122149 133.91,39.3 C133.91,39.17 133.98,39 133.82,38.93 C133.66,38.86 133.6,39.03 133.52,39.11 C133.212318,39.4672289 132.97178,39.8771595 132.81,40.32 C132.699943,40.6164442 132.425597,40.8202438 132.11,40.84 C130.418229,41.0847618 128.693818,40.9688923 127.05,40.5 C126.64,40.38 126.63,40.36 126.7,39.95 C127.000199,38.2106357 126.762988,36.4210861 126.02,34.82 C125.894643,34.6070809 125.894643,34.3429191 126.02,34.13 C126.427914,33.3596054 126.903095,32.6267563 127.44,31.94 C127.639945,31.6853175 127.937237,31.525795 128.26,31.5 C129.486485,31.3995137 130.637813,30.8681319 131.51,30 C131.798072,29.6774541 132.046505,29.3215902 132.25,28.94 C132.305775,28.8229724 132.305775,28.6870276 132.25,28.57 C132.180739,28.3146126 132.180739,28.0453874 132.25,27.79 C132.25,27.66 132.38,27.57 132.46,27.72 C132.514067,27.8535207 132.625242,27.9557 132.76284,27.998336 C132.900437,28.040972 133.049909,28.0195564 133.17,27.94 C133.489766,27.7891879 133.689945,27.4634056 133.68,27.11 C133.663619,26.73072 133.376546,26.4183174 133,26.37 C132.855113,26.3312112 132.700621,26.3544306 132.573537,26.434095 C132.446453,26.5137595 132.358229,26.6426912 132.33,26.79 C132.33,26.86 132.33,26.92 132.28,26.99 C132.23,27.06 132.21,27.21 132.08,27.2 C131.95,27.19 131.92,27.07 131.91,26.96 C131.9,26.85 131.91,26.67 131.91,26.52 C131.91,26.37 131.91,26.31 131.83,26.27 C131.75,26.23 131.66,26.34 131.6,26.42 C131.422437,26.6572775 131.308805,26.9361913 131.27,27.23 C131.232447,27.8109737 130.862115,28.3177442 130.32,28.53 C130.162624,28.5934367 130.022232,28.6927387 129.91,28.82 C129.55,29.26 129.08,29.18 128.61,29.15 C128.33,29.15 128.2,28.98 128.2,28.69 C128.2,27.38 128.2,26.06 128.15,24.75 C128.102583,23.4008518 127.914906,22.0602998 127.59,20.75 C127.570673,20.6426613 127.53704,20.5383989 127.49,20.44 C127.174889,19.8848416 126.987032,19.2666188 126.94,18.63 C126.882131,18.3711555 126.773354,18.126407 126.62,17.91 C125.802733,16.5133428 124.887086,15.1766316 123.88,13.91 C123.629291,13.5393141 123.284038,13.2423961 122.88,13.05 C122.119927,12.6827068 121.418882,12.2041089 120.8,11.63 C119.9242,10.8148981 118.980816,10.0755795 117.98,9.42 C117.78,9.3 117.8,9.2 117.93,9.02 C118.104054,8.758306 118.432963,8.64729923 118.73,8.75 L119.41,8.93 C119.52,8.93 119.65,9.03 119.73,8.93 C119.81,8.83 119.73,8.73 119.65,8.64 C118.969338,7.51612813 117.955816,6.63191742 116.75,6.11 C115.75,5.6 114.75,5.11 113.75,4.64 C113.57,4.55 113.3,4.49 113.32,4.22 C113.34,3.95 113.6,3.84 113.84,3.77 C114.120606,3.71899192 114.382773,3.59480768 114.6,3.41 C114.659474,3.3546416 114.738859,3.32577436 114.82,3.33 C115.309934,3.28855837 115.79145,3.1774391 116.25,3 C116.923611,2.73350149 117.688673,2.85208605 118.25,3.31 C118.425601,3.45402918 118.625364,3.56576069 118.84,3.64 C118.970733,3.67724217 119.109267,3.67724217 119.24,3.64 C119.38,3.64 119.56,3.58 119.55,3.39 C119.54,3.2 119.37,3.16 119.22,3.17 C119.034404,3.16261619 118.858841,3.08379232 118.73,2.95 C117.035557,1.49196446 114.74665,0.930885122 112.57,1.44 C112.351574,1.4954122 112.142616,1.58303971 111.95,1.7 C111.69267,1.90229312 111.352628,1.9658432 111.039606,1.87014233 C110.726585,1.77444146 110.480214,1.53160597 110.38,1.22 C110.193577,0.828789721 110.046196,0.420144655 109.94,7.64777131e-15 L104.12,7.64777131e-15 C103.936175,0.153530629 103.774624,0.331910075 103.64,0.53 C103.53,0.73 103.26,0.63 103.07,0.61 C102.88,0.59 102.9,0.43 102.9,0.29 L102.9,0 L28.38,0 C28.3494373,0.344042964 28.1658567,0.656129991 27.88,0.85 C27.3665156,1.28519835 27.0143046,1.88043493 26.88,2.54 C26.7333431,3.08727984 26.5529993,3.62497166 26.34,4.15 C26.2123541,4.42540633 26.0323429,4.67334627 25.81,4.88 C25.7608713,4.9599002 25.6737959,5.00857864 25.58,5.00857864 C25.4862041,5.00857864 25.3991287,4.9599002 25.35,4.88 C25.1883732,4.6719928 25.0694297,4.43410574 25,4.18 C24.69605,3.00189087 24.5150823,1.79543929 24.46,0.58 C24.46,0.44 24.46,0.25 24.31,0.21 C24.16,0.17 24.1,0.33 24,0.47 C23.8877261,0.653126107 23.8320627,0.865343087 23.84,1.08 L23.84,2.78 C23.8633975,3.12338472 23.9410255,3.46089799 24.07,3.78 C24.1054968,3.85132887 24.12268,3.93037184 24.12,4.01 C24.0736944,4.77209271 24.1139515,5.53697855 24.24,6.29 C24.2589635,6.47781665 24.2012668,6.66533114 24.08,6.81 C23.8631677,7.0625469 23.6845961,7.345566 23.55,7.65 C23.5114925,7.73171252 23.4436732,7.79596239 23.36,7.83 C22.9621282,8.0723517 22.6373014,8.41791216 22.42,8.83 C22.2640166,9.10349954 22.0608878,9.34725409 21.82,9.55 C21.54,9.76 21.37,9.75 21.14,9.47 C20.91,9.19 21,9.17 20.92,9 C20.8548417,8.90379658 20.7775361,8.81640766 20.69,8.74 C20.5,8.59 20.39,8.63 20.35,8.86 C20.3053816,9.16169256 20.3053816,9.46830744 20.35,9.77 C20.373077,10.152986 20.373077,10.537014 20.35,10.92 C20.3560482,10.9965474 20.3560482,11.0734526 20.35,11.15 C20.25,11.73 20.07,11.84 19.51,11.67 C18.9260831,11.483959 18.3548786,11.2601537 17.8,11 C17.0248432,10.573894 16.0797802,10.6006772 15.33,11.07 C15.24,11.13 15.11,11.15 15.14,11.29 C15.17,11.43 15.28,11.45 15.38,11.48 C15.6092171,11.5336638 15.844994,11.5538733 16.08,11.54 C16.24,11.54 16.42,11.54 16.5,11.69 C16.58,11.84 16.44,11.99 16.36,12.11 C16.03,12.58 15.66,13.03 15.36,13.53 C15.0200222,14.0943899 14.8210719,14.7324029 14.78,15.39 C14.78,15.47 14.78,15.58 14.85,15.62 C14.92,15.66 15.01,15.57 15.07,15.51 C15.4639975,15.0568504 15.7999247,14.5563188 16.07,14.02 C16.1695545,13.769903 16.3939769,13.5911258 16.66,13.55 C16.7576183,13.5427442 16.8512062,13.508082 16.93,13.45 C17.26,13.16 17.59,13.3 17.93,13.45 C18.11,13.52 18.05,13.62 18,13.73 C17.7896807,14.1714723 17.5456236,14.5960649 17.27,15 C16.69,15.9 16.01,16.73 15.37,17.58 C15.32,17.65 15.26,17.74 15.17,17.74 C14.88,17.74 14.74,17.91 14.6,18.12 C14.4732833,18.2966321 14.3094519,18.4433978 14.12,18.55 C13.5106823,18.9422206 12.9701162,19.4321087 12.52,20 C12.0517088,20.6190443 11.5074402,21.1767517 10.9,21.66 C10.8064962,21.7314902 10.731131,21.8239839 10.68,21.93 C9.95,23.35 9.05,24.68 8.32,26.1 C7.49593396,27.6181814 6.97621155,29.2826518 6.79,31 C6.79833604,31.119849 6.74088084,31.2347594 6.64,31.3 C6.15849133,31.6053552 5.77085789,32.0379818 5.52,32.55 C5.30438806,32.9123619 5.0228775,33.2311811 4.69,33.49 C4.30378277,33.8086936 3.96680602,34.1827378 3.69,34.6 C2.83433539,35.6991072 2.10320012,36.8897174 1.51,38.15 C1.04765291,39.3265291 0.751472692,40.5617353 0.63,41.82 C0.616059109,42.3406691 0.500563928,42.8536036 0.29,43.33 L0.29,44.15 C0.43,44.26 0.46,44.57 0.66,44.51 C0.86,44.45 0.75,44.16 0.74,43.98 C0.784332033,42.7443496 1.02048504,41.5231012 1.44,40.36 L1.89,39 C1.89,38.84 1.99,38.69 2.21,38.68 C2.43,38.67 2.43,38.49 2.46,38.34 C2.63425019,37.5203542 3.17656935,36.826776 3.93,36.46 L3.48,37.87 C3.11022946,38.9777653 2.90143232,40.132885 2.86,41.3 C2.87673433,42.2315737 3.05960165,43.1526831 3.4,44.02 C3.4,44.1 3.47,44.21 3.58,44.18 C3.69,44.15 3.66,44.03 3.65,43.95 C3.55450659,43.0725906 3.55450659,42.1874094 3.65,41.31 C3.79696385,39.1984394 4.41912067,37.1473729 5.47,35.31 C5.53,35.21 5.57,35 5.71,35.07 C5.876538,35.1426528 5.98304466,35.3083298 5.98,35.49 L5.98,36.1 L5.98,38.33 C5.98959454,38.5187345 6.08085231,38.6939494 6.23,38.81 C6.58208322,39.1518657 7.00557661,39.4114262 7.47,39.57 C8.08,39.77 8.19,40.21 8.24,40.77 C8.30216475,42.5673488 7.79466094,44.3383621 6.79,45.83 L5.58,47.83 C5.58,47.9 5.46,47.99 5.58,48.06 C5.7,48.13 5.75,48.06 5.81,47.99 C6.03746208,47.7462126 6.24168057,47.4817329 6.42,47.2 C6.58447416,46.8899074 6.89948968,46.6887529 7.25,46.67 C7.63,46.67 7.72,46.8 7.54,47.13 C7.30803416,47.4818076 7.10726981,47.8532216 6.94,48.24 C6.94,48.37 6.77,48.56 6.94,48.64 C7.11,48.72 7.17,48.49 7.25,48.37 C7.44,48.08 7.61,47.79 7.8,47.5 C7.97198169,47.2456645 8.22075188,47.0529552 8.51,46.95 C8.7,46.87 8.81,46.95 8.85,47.13 C8.94475555,47.488679 9.01821711,47.8526476 9.07,48.22 C9.29463033,50.0975364 8.99705196,52.0006539 8.21,53.72 C7.83693119,54.3633972 7.35669023,54.9383336 6.79,55.42 C6.24734116,56.0048624 5.64770728,56.5341482 5,57 C4.93,57 4.84,57.11 4.88,57.21 C4.92,57.31 5.04,57.3 5.14,57.28 C5.30265093,57.2368204 5.44882445,57.1463321 5.56,57.02 C5.70060262,56.8554746 5.86590624,56.7137858 6.05,56.6 C6.21,56.52 6.38,56.39 6.56,56.6 C6.73272769,56.7783706 6.73272769,57.0616294 6.56,57.24 C6.30985273,57.5424195 6.10442335,57.8791889 5.95,58.24 C5.24901671,59.6904575 5.03843937,61.3294512 5.35,62.91 C5.42426925,63.2594885 5.54890344,63.5963376 5.72,63.91 C5.72,64 5.8,64.15 5.94,64.09 C6.08,64.03 5.94,63.91 5.94,63.83 C5.7397416,62.9074087 5.7397416,61.9525913 5.94,61.03 C6.12293055,59.9882114 6.63872215,59.0338215 7.41,58.31 C7.5,58.23 7.58,58.1 7.73,58.15 C7.82063999,58.1733532 7.88296012,58.2564467 7.88,58.35 C7.90037484,58.5038659 7.81396415,58.6519985 7.67,58.71 C7.41,58.8 7.37,58.97 7.38,59.21 L7.38,60.41 C7.38,60.49 7.38,60.61 7.46,60.63 C7.54,60.65 7.61,60.55 7.65,60.48 C7.86,60.1 8.05,59.72 8.27,59.34 C8.54699875,58.805703 8.95249536,58.3486602 9.45,58.01 C9.71420411,57.828886 10.0571725,57.8096181 10.34,57.96 C10.6382462,58.0891867 10.9121967,58.2684383 11.15,58.49 C12.03,59.35 12.97,60.13 13.82,61.02 C14.3043692,61.4615381 14.5833065,62.0846187 14.59,62.74 C14.5945078,62.957512 14.5030712,63.1659875 14.34,63.31 C13.377011,64.1481482 12.2342584,64.7537387 11,65.08 C9.13110514,65.6581114 7.17203621,65.8885901 5.22,65.76 C5.07,65.76 4.83,65.76 4.81,65.86 C4.79,65.96 5.04,65.98 5.17,66.01 C5.76934996,66.0936556 6.36359662,66.2105018 6.95,66.36 C7.24044143,66.4133007 7.53962534,66.3926673 7.82,66.3 L11.37,65.62 C11.9069753,65.5182498 12.4542226,65.481319 13,65.51 C13.15,65.51 13.35,65.45 13.42,65.63 C13.49,65.81 13.31,65.88 13.23,66 L13.01,66.28 C12.95,66.36 12.88,66.45 12.96,66.54 C13.04,66.63 13.14,66.54 13.22,66.54 C13.594866,66.3257417 13.9325688,66.0522024 14.22,65.73 C14.5294015,65.3528657 14.909957,65.0402665 15.34,64.81 C15.3479004,65.037062 15.3034182,65.2628947 15.21,65.47 C14.5703005,67.6213602 13.5730352,69.6496965 12.26,71.47 C11.4757557,72.5509635 10.5237426,73.4996007 9.44,74.28 C9.35,74.34 9.23,74.39 9.28,74.53 C9.33,74.67 9.46,74.62 9.56,74.63 C9.8441648,74.6544406 10.1206164,74.5294693 10.29,74.3 C11.2107696,73.3085526 12.2680525,72.4532983 13.43,71.76 L13.93,71.44 C13.99,71.44 14.04,71.34 14.11,71.39 C14.18,71.44 14.11,71.51 14.11,71.58 C14.0751817,72.0313266 13.9564853,72.4721992 13.76,72.88 C13.5253263,73.3440287 13.3182983,73.8215288 13.14,74.31 C13.1055792,74.4613229 12.9645665,74.5638776 12.81,74.55 C12.5939744,74.5695238 12.3766275,74.5315744 12.18,74.44 C11.96,74.32 11.82,74.44 11.68,74.57 C11.37,74.96 11.22,75.44 10.93,75.83 C10.87,75.91 10.93,76 10.93,76.07 C10.93,76.14 11.34,76.49 11.56,76.69 C11.7073982,76.8419775 11.9268873,76.8997378 12.13,76.84 C12.32,76.78 12.35,76.84 12.33,77.03 C12.23,77.78 12.14,78.53 12.05,79.27 C11.9774738,80.0515872 12.0590141,80.8398106 12.29,81.59 C12.3362416,81.8023044 12.4758859,81.9823722 12.67,82.08 C12.9,82.19 12.94,82.45 13.03,82.67 C13.5020271,83.9236509 14.6228495,84.8180058 15.95,85 C16.8349725,85.1619734 17.7341245,84.7999772 18.26,84.07 C18.4407476,83.840091 18.6077071,83.5996693 18.76,83.35 C18.76,83.28 18.87,83.19 18.76,83.11 C18.65,83.03 18.58,83.11 18.5,83.11 C18.14,83.31 17.79,83.52 17.42,83.7 C16.9560953,83.93744 16.4410829,84.0576095 15.92,84.05 C15.7817894,84.0548179 15.6490392,83.9958178 15.56,83.89 C15.3399882,83.6388849 15.0916718,83.4140578 14.82,83.22 C14.369263,82.9339896 14.1001848,82.4337316 14.11,81.9 C14.1218051,81.7810857 14.0858274,81.662359 14.01,81.57 C13.7675634,81.2955091 13.6451191,80.9353788 13.67,80.57 L13.67,78.37 C13.653962,77.8251848 13.8115522,77.2893782 14.12,76.84 C14.1790827,76.7624556 14.2107395,76.6674852 14.21,76.57 C14.2103906,75.8590439 14.4189741,75.1637655 14.81,74.57 C15.1896631,74.0079916 15.4296502,73.3634549 15.51,72.69 C15.5144554,72.5994778 15.5583017,72.5154389 15.63,72.46 C15.9378016,72.1810982 16.1451544,71.8085661 16.22,71.4 C16.3341392,71.0447345 16.4991897,70.7078967 16.71,70.4 C17.2138967,69.7303454 17.6462562,69.0097463 18,68.25 C18.019395,68.1933305 18.0463014,68.1395177 18.08,68.09 C18.18,67.95 18.2,67.72 18.42,67.73 C18.64,67.74 18.75,67.93 18.83,68.11 C18.91,68.29 18.98,68.51 19.05,68.72 C19.1296928,69.0670085 19.3558406,69.3624598 19.67,69.53 C19.82,69.6 19.95,69.6 20.03,69.41 C20.063998,69.2828557 20.1664482,69.1855319 20.2951688,69.1580997 C20.4238894,69.1306674 20.5571178,69.1777646 20.64,69.28 C20.7065389,69.3365717 20.7580664,69.4087102 20.79,69.49 C21.1402165,70.3200447 21.7417312,71.0194803 22.51,71.49 C23.2290127,72.0183983 24.0669631,72.3618206 24.95,72.49 C25.04,72.49 25.16,72.58 25.21,72.49 C25.26,72.4 25.13,72.33 25.04,72.28 C24.5276038,71.9721707 24.076663,71.5720879 23.71,71.1 C23.4317755,70.7748607 23.3241816,70.3370651 23.42,69.92 C23.48,69.66 23.64,69.61 23.84,69.78 C23.953753,69.8870054 24.0575156,70.0041567 24.15,70.13 C24.2440015,70.2843476 24.3948057,70.3956555 24.57,70.44 C24.7769793,70.4683953 24.9526939,70.6059111 25.03,70.8 C25.1908029,71.0934231 25.412411,71.3491248 25.68,71.55 C25.8332867,71.6714036 25.9248492,71.8545284 25.93,72.05 C26.0471139,73.4101653 25.9492479,74.7802891 25.64,76.11 C25.4021646,77.1815949 25.2318297,78.2670626 25.13,79.36 C25.1015041,79.6526413 25.1015041,79.9473587 25.13,80.24 C25.1569231,80.3358311 25.141768,80.4385925 25.0883268,80.5225716 C25.0348856,80.6065506 24.9482144,80.6638019 24.85,80.68 L24.8,80.68 C24.62,80.75 24.39,80.78 24.42,81.05 C24.45,81.32 24.67,81.43 24.92,81.46 C25.37,81.52 25.36,81.52 25.42,81.98 C25.6301812,84.0785393 26.4080244,86.0801891 27.67,87.77 C27.73,87.85 27.79,87.97 27.92,87.9 C28.05,87.83 28.04,87.71 28.01,87.59 C27.9500297,87.3613103 27.8445987,87.1470472 27.7,86.96 C27.0092328,86.0510004 26.5741968,84.9737684 26.44,83.84 C26.2118254,82.3654414 26.2118254,80.8645586 26.44,79.39 C26.6108776,78.044288 27.013492,76.7383286 27.63,75.53 C27.7461262,75.359736 27.8024061,75.1557212 27.79,74.95 L27.79,74.79 C27.79,74.76 27.92,74.79 27.97,74.86 C28.4401382,75.2660861 28.7663654,75.813306 28.9,76.42 C29.04,76.89 29.15,77.37 29.27,77.84 C29.2965866,77.9854882 29.383867,78.1127722 29.51,78.19 C29.636309,78.2690374 29.7316293,78.3890704 29.78,78.53 C30.0561338,79.2355415 30.7424842,79.6944385 31.5,79.68 C32.0253764,79.7321357 32.5546236,79.7321357 33.08,79.68 C33.236438,79.6680291 33.393562,79.6680291 33.55,79.68 C33.9749427,79.7520766 34.4113668,79.6590682 34.77,79.42 C34.9961406,79.2777258 35.2656918,79.2209781 35.53,79.26 C35.71,79.26 35.77,79.37 35.74,79.54 C35.7058459,79.7475985 35.5654526,79.9221415 35.37,80 C35.1544623,80.0889174 34.9341179,80.1657041 34.71,80.23 C34.420886,80.2953517 34.1610378,80.4533675 33.97,80.68 C33.9327738,80.7361866 33.8809072,80.7811376 33.82,80.81 C33.0560816,81.1271955 32.4169064,81.6855958 32,82.4 C31.3496825,83.3556815 30.7714177,84.3584529 30.27,85.4 C30.19,85.54 30.12,85.68 30.04,85.81 C29.8704466,86.049235 29.7827551,86.336863 29.79,86.63 C29.7038313,87.1078891 29.5453457,87.5698578 29.32,88 C29.32,88.15 29.08,88.19 28.94,88.26 C28.0729292,88.6058221 27.276474,89.1074194 26.59,89.74 C26.176292,90.1764905 25.6326182,90.467619 25.04,90.57 C24.56,90.68 24.11,90.87 23.63,90.97 C23.542131,90.9862446 23.4596665,91.0240408 23.39,91.08 C22.9121121,91.4548544 22.3699253,91.7395025 21.79,91.92 C21.3547992,92.0694109 20.9437846,92.2816561 20.57,92.55 C20.4962872,92.6154638 20.4065988,92.660308 20.31,92.68 C19.2530789,92.8940849 18.239203,93.2827374 17.31,93.83 C16.9865518,93.9924611 16.6524509,94.1327835 16.31,94.25 C16.1170356,94.3161355 15.9399475,94.4217072 15.79,94.56 C15.4105419,94.8700017 14.9898536,95.1257802 14.54,95.32 C14.0173992,95.5322689 13.5590422,95.8768982 13.21,96.32 C13.1211639,96.4248309 12.9963049,96.4926115 12.86,96.51 C12.2744362,96.6003683 11.7170671,96.8226321 11.23,97.16 C10.7620942,97.535442 10.2031812,97.7803977 9.61,97.87 L9.19,98 C9.09,98 9.01,98.08 9.01,98.2 C9.00828141,98.3129145 9.08879102,98.4103735 9.2,98.43 L9.37,98.43 C9.56,98.43 9.62,98.56 9.47,98.7 C8.90201563,99.3105007 8.27194481,99.8601369 7.59,100.34 C7.5,100.4 7.4,100.44 7.37,100.56 L139,100.56 C139.22,100.56 139.27,100.56 139.27,100.29 C139.236667,94.0633333 139.22,87.8 139.22,81.5 Z M77.22,53.09 C77.5822438,52.3868065 77.4960054,51.536182 77,50.92 C76.83,50.69 76.9,50.6 77.14,50.55 C77.8947605,50.3822655 78.6726768,50.3450608 79.44,50.44 C80.5994656,50.6210467 81.7382913,50.9158016 82.84,51.32 C83.04,51.38 83.03,51.48 82.92,51.62 C82.7718598,51.813915 82.5967547,51.9856527 82.4,52.13 C81.9431014,52.4522183 81.4409829,52.7049625 80.91,52.88 C79.7728275,53.27789 78.6693076,53.7661139 77.61,54.34 C76.829271,54.824813 75.9173388,55.0554165 75,55 C74.7876718,54.9901943 74.5798059,54.9356721 74.39,54.84 C75.5959681,54.8939034 76.7099946,54.1976368 77.19,53.09 L77.22,53.09 Z M103,44.6 C102.851621,45.5621184 102.149836,46.346236 101.21,46.6 C99.9525665,47.0510981 98.5774335,47.0510981 97.32,46.6 L97.24,46.6 L97.16,46.52 C97.5020983,46.4177244 97.8363118,46.2907233 98.16,46.14 C98.7052399,45.8903832 99.1897453,45.5252982 99.58,45.07 C100.111493,44.4447471 100.27137,43.5844576 100,42.81 C99.87,42.4 99.89,42.38 100.29,42.24 C100.993796,41.9427565 101.805446,42.0724313 102.381592,42.5741673 C102.957738,43.0759032 103.197714,43.8620349 103,44.6 L103,44.6 Z M126.36,45.4 C126.46,45.4 126.52,45.45 126.58,45.51 C126.823347,45.7653862 127.004689,46.0733255 127.11,46.41 C127.236722,46.8433366 127.428942,47.2547552 127.68,47.63 C127.733847,47.6934487 127.733847,47.7865513 127.68,47.85 C127.610125,47.9069211 127.509875,47.9069211 127.44,47.85 C127.250662,47.788694 127.111627,47.6264863 127.08,47.43 C127.064111,47.303367 127.003883,47.1864545 126.91,47.1 C126.500817,46.7042189 126.269847,46.1592742 126.27,45.59 C126.26,45.55 126.22,45.44 126.32,45.4 L126.36,45.4 Z M120.85,26.4 C120.85,26.3 120.71,26.15 120.85,26.09 C120.99,26.03 121.27,25.98 121.34,26.14 C121.760772,26.8203978 122.061798,27.5678887 122.23,28.35 C122.236036,28.5276436 122.194614,28.7036859 122.11,28.86 C121.99,29.08 121.92,29.08 121.79,28.86 C121.443362,28.2480662 121.171417,27.5967423 120.98,26.92 C120.92,26.76 120.86,26.58 120.82,26.4 L120.85,26.4 Z M123.15,44.4 C123.04,44.64 122.9,44.65 122.75,44.4 C122.647851,44.2419113 122.592393,44.0582037 122.59,43.87 C122.576434,43.3035495 122.3955,42.7537889 122.07,42.29 C121.758081,41.7136326 121.535542,41.0932199 121.41,40.45 C121.406324,40.4134255 121.406324,40.3765745 121.41,40.34 C121.41,40.23 121.24,40.08 121.41,40.01 C121.578142,39.9303988 121.779099,39.9806379 121.89,40.13 C122.23,40.67 122.68,41.13 123.07,41.63 C123.179794,41.8279337 123.211882,42.0596805 123.16,42.28 C123.16,42.7 123.23,43.12 123.26,43.54 C123.289425,43.8307316 123.241111,44.1240625 123.12,44.39 L123.15,44.4 Z M125.68,24.21 C125.68,24.11 125.68,24 125.82,23.98 C125.96,23.96 125.99,24.06 126.04,24.14 C126.19885,24.4502718 126.287608,24.7916489 126.3,25.14 C126.368944,25.7647704 126.368944,26.3952296 126.3,27.02 C126.270338,27.3526735 126.270338,27.6873265 126.3,28.02 C126.339397,28.2830571 126.286388,28.5516374 126.15,28.78 C126.09,28.86 126.03,28.95 125.92,28.94 C125.81,28.93 125.81,28.8 125.8,28.71 C125.635022,27.7186213 125.554733,26.7149983 125.56,25.71 C125.546289,25.2053378 125.573042,24.7003884 125.64,24.2 L125.68,24.21 Z M124.61,36.46 C124.67,36.46 124.72,36.46 124.77,36.52 C124.922074,36.6719244 125.053228,36.8434334 125.16,37.03 C125.44151,37.5348412 125.611978,38.0939735 125.66,38.67 C125.66,38.83 125.66,39.07 125.54,39.12 C125.42,39.17 125.3,38.94 125.22,38.82 C124.797423,38.1658758 124.562235,37.4084316 124.54,36.63 C124.49,36.55 124.5,36.48 124.58,36.45 L124.61,36.46 Z M124.74,44.52 C125.12,44.69 125.11,45.03 125.12,45.37 C125.105751,45.5840963 125.065453,45.7956569 125,46 C125,46.06 125,46.12 124.89,46.12 C124.78,46.12 124.81,46.07 124.79,46.03 C124.551898,45.6112661 124.418128,45.1413543 124.4,44.66 C124.41,44.45 124.5,44.41 124.71,44.51 L124.74,44.52 Z M124.31,25.17 C124.318489,25.3265517 124.318489,25.4834483 124.31,25.64 C124.300384,26.1472908 124.226461,26.6513132 124.09,27.14 C124.09,27.22 124.09,27.33 123.97,27.35 C123.85,27.37 123.84,27.27 123.81,27.2 C123.671877,26.8865567 123.463099,26.6093256 123.2,26.39 C123.06,26.29 123.12,25.79 123.27,25.59 C123.486028,25.364543 123.689661,25.1275278 123.88,24.88 C123.892886,24.8531254 123.916127,24.8326302 123.944402,24.8232052 C123.972677,24.8137801 124.003566,24.8162322 124.03,24.83 C124.158926,24.8965612 124.250826,25.0178687 124.28,25.16 L124.31,25.17 Z M123.64,21.65 C123.817509,21.7376199 123.951823,21.8935723 124.012155,22.0821104 C124.072487,22.2706485 124.053664,22.4756049 123.96,22.65 C123.886428,22.8123742 123.777022,22.9559687 123.64,23.07 C123.401813,23.2431997 123.195428,23.4563508 123.03,23.7 C123.03,23.7 122.95,23.81 122.9,23.81 C122.42,23.89 121.97,24.11 121.47,24.14 C120.97,24.17 120.99,24.06 121.03,23.68 C121.053533,23.3125965 121.19366,22.9622806 121.43,22.68 C121.566993,22.4309275 121.566993,22.1290725 121.43,21.88 C121.35,21.75 121.22,21.76 121.09,21.76 C120.38,21.76 120.38,21.76 120.23,21.06 C120.072792,20.5653984 119.995158,20.0489621 120,19.53 L120,18.97 C120,18.78 120.1,18.73 120.27,18.83 C120.633562,19.0603838 120.969142,19.3322041 121.27,19.64 L122.62,20.95 C122.918576,21.2193241 123.251462,21.4479735 123.61,21.63 L123.64,21.65 Z M119.26,14 C119.749301,14.0095407 120.202249,14.2603467 120.47,14.67 C120.5984,14.8550676 120.753403,15.0201787 120.93,15.16 C121.666691,15.717884 122.234365,16.4690134 122.57,17.33 C122.63,17.5 122.76,17.72 122.57,17.84 C122.38,17.96 122.2,17.84 122.04,17.69 C121.826035,17.5217752 121.634479,17.3268585 121.47,17.11 C121.292441,16.8768565 121.071783,16.6799611 120.82,16.53 C120.738274,16.4930037 120.671357,16.4296085 120.63,16.35 C120.379299,15.8705717 120.039973,15.4430218 119.63,15.09 C119.380526,14.8653062 119.194334,14.579122 119.09,14.26 C119,14.08 119.06,14 119.26,14 Z M118.33,53.38 C118.45,53.23 118.54,53.31 118.64,53.38 C118.74,53.45 118.83,53.53 118.8,53.67 C118.797841,53.8257874 118.745207,53.9766714 118.65,54.1 C118.600276,54.167224 118.525504,54.2115105 118.442656,54.222808 C118.359807,54.2341056 118.275908,54.211456 118.21,54.16 C118.1,54.13 118.21,53.55 118.33,53.41 L118.33,53.38 Z M115.79,56.53 C115.79,56.6 115.73,56.67 115.7,56.74 C115.63,55.97 115.47,55.24 115.35,54.5 C115.267101,53.9773392 115.223645,53.4491817 115.22,52.92 C115.22,52.84 115.22,52.75 115.27,52.71 C115.32,52.67 115.43,52.76 115.48,52.83 C115.752385,53.239174 115.917451,53.7102998 115.96,54.2 C116.084308,54.9866428 116.022662,55.7914656 115.78,56.55 L115.79,56.53 Z M115.26,7.05 L115.38,7.05 C115.601944,7.02911814 115.81717,7.13300774 115.938882,7.31977349 C116.060595,7.50653924 116.068727,7.74538807 115.96,7.94 C115.89,8.1 115.79,8.18 115.63,8.04 C115.395635,7.89843717 115.188944,7.71546496 115.02,7.5 C114.82,7.2 114.89,7.08 115.25,7.07 L115.26,7.05 Z M112.49,51.61 C112.69,51.61 112.81,51.66 112.84,51.87 C112.885751,52.3261853 112.983038,52.7757187 113.13,53.21 C113.201192,53.4563102 113.323901,53.684685 113.49,53.88 C113.781337,54.1857476 113.933337,54.5983199 113.91,55.02 C113.948444,55.5368192 113.887338,56.056214 113.73,56.55 C113.706447,56.6242515 113.672799,56.6949129 113.63,56.76 C113.51,56.92 113.38,57.15 113.17,57.11 C112.96,57.07 113,56.83 112.95,56.66 C112.564991,55.2711462 112.350085,53.8406733 112.31,52.4 L112.31,51.9 C112.31,51.73 112.26,51.64 112.48,51.63 L112.49,51.61 Z M107.93,0.53 C107.93,0.24 108.04,0.08 108.35,0.13 C108.66,0.18 108.65,0.13 108.68,0.35 C108.735417,0.5988013 108.819303,0.840392855 108.93,1.07 C108.986594,1.18244636 109.033433,1.29954276 109.07,1.42 C109.07,1.62 109.2,1.86 109.01,1.99 C108.82,2.12 108.7,1.89 108.57,1.8 C108.392056,1.66439459 108.192621,1.55960659 107.98,1.49 C107.85,1.49 107.81,1.39 107.84,1.26 C107.888863,1.01936511 107.918953,0.775297154 107.93,0.53 L107.93,0.53 Z M98.26,29.53 C98.3555692,29.5440241 98.4436332,29.5898174 98.51,29.66 C100.045424,30.8666149 101.292367,32.4005263 102.16,34.15 C102.16,34.21 102.26,34.27 102.21,34.34 C102.16,34.41 102.07,34.34 101.99,34.34 C100.449246,34.0445759 99.164488,32.9858748 98.58,31.53 C98.3221012,30.9923975 98.121012,30.4293478 97.98,29.85 C97.93,29.62 98,29.51 98.26,29.52 L98.26,29.53 Z M92.36,24.29 C92.46,24.23 92.55,24.36 92.63,24.42 C93.0897782,24.8595507 93.3979469,25.4338651 93.51,26.06 L93.45,26.06 C93.19,25.78 92.93,25.5 92.68,25.22 C92.5132199,25.0396644 92.3960714,24.8191496 92.34,24.58 C92.31,24.49 92.23,24.35 92.36,24.28 L92.36,24.29 Z M7.36,37.49 C7.27,37.59 7.18,37.77 7.01,37.7 C6.84,37.63 6.9,37.47 6.87,37.34 C6.86631928,37.2833931 6.86631928,37.2266069 6.87,37.17 C6.89947074,36.6791497 7.06194039,36.205568 7.34,35.8 C7.48882563,35.6024553 7.70041045,35.4613988 7.94,35.4 C8.09,35.4 8.18,35.4 8.15,35.57 C8.08324124,36.2659336 7.81962152,36.9284516 7.39,37.48 L7.36,37.49 Z M7.84,56.39 C7.65820905,56.4893191 7.4567668,56.5473618 7.25,56.56 C7.16,56.56 7.06,56.56 7.04,56.45 C7.02,56.34 7.09,56.31 7.17,56.28 C7.25,56.25 7.53,56.13 7.72,56.08 C7.91,56.03 7.96,56.01 8,56.14 C8.04,56.27 8,56.32 7.87,56.38 L7.84,56.39 Z M14.22,25.66 C14,26.8 13.54,27.9 13.16,29 C12.92,29.7 12.72,30.4 12.52,31.11 C12.52,31.18 12.52,31.29 12.43,31.3 C12.34,31.31 12.3,31.2 12.26,31.12 C12.1533714,30.7671252 12.1126919,30.3976202 12.14,30.03 C12.1925641,28.7611451 12.4214251,27.5057752 12.82,26.3 C12.8868914,26.0210396 13.0787786,25.788561 13.34,25.67 C13.4817267,25.6173397 13.5920135,25.5033766 13.64,25.36 C13.64,25.24 13.78,25.21 13.89,25.2 C14.28,25.21 14.34,25.27 14.25,25.64 L14.22,25.66 Z M18.1,65.16 C17.9114244,65.4315293 17.7474414,65.7193361 17.61,66.02 C17.61,66.13 17.55,66.33 17.39,66.27 C17.2817535,66.2450187 17.1892979,66.17506 17.135834,66.0776794 C17.0823701,65.9802988 17.0729727,65.8647395 17.11,65.76 C17.1309886,65.4182268 17.2017338,65.0813449 17.32,64.76 C17.4932689,64.2981904 17.9182582,63.9784737 18.41,63.94 C18.59,63.94 18.65,63.94 18.61,64.15 C18.512398,64.5067686 18.3496618,64.842412 18.13,65.14 L18.1,65.16 Z M25.8,50.57 L24.58,50.57 L24.58,41.5 L25.8,41.5 L25.8,50.57 Z M25.68,25.38 L25.68,29.52 L24.45,29.52 L24.45,20.45 L27.72,20.45 L27.72,21.45 L25.72,21.45 L25.72,24.32 L27.56,24.32 L27.56,25.32 L25.68,25.38 Z M31.42,50.57 L30.28,50.57 L28.91,46.49 C28.7833333,46.11 28.6666667,45.72 28.56,45.32 C28.4533333,44.92 28.35,44.5 28.25,44.06 L28.25,43.86 L28.19,43.59 L28.19,43.85 L28.19,44.04 L28.25,44.96 L28.32,46.08 L28.32,46.31 L28.32,46.62 L28.38,50.62 L27.2,50.62 L27.2,41.5 L28.34,41.5 L29.56,45.12 C29.9257081,46.1933814 30.2361159,47.2848154 30.49,48.39 C30.39,47.69 30.3166667,47.0566667 30.27,46.49 C30.2233333,45.9233333 30.2,45.39 30.2,44.89 L30.2,41.5 L31.42,41.5 L31.42,50.57 Z M29.88,25.07 L29.88,29.51 L28.66,29.51 L28.66,20.45 L30.27,20.45 C30.810607,20.4066043 31.3463813,20.5792028 31.76,20.93 C32.2119715,21.4512439 32.435393,22.1323191 32.38,22.82 C32.3849757,23.3603182 32.2543211,23.8932514 32,24.37 C31.8129926,24.7387139 31.4725799,25.0059196 31.07,25.1 L32.74,29.51 L31.54,29.51 L29.88,25.07 Z M33.07,40.07 L31.84,40.07 L31.84,31 L33.06,31 L33.07,40.07 Z M43.24,20.47 L44.24,20.47 L46.18,29.54 L44.92,29.54 L44.58,27.77 L42.78,27.77 L42.43,29.54 L41.26,29.54 L43.24,20.47 Z M42.26,31 L43.09,40 L41.92,40 L41.72,37 L41.72,36.59 L41.72,36.31 L41.67,35.09 L41.67,33.97 L41.67,33.82 L41.67,34 C41.67,34.2133333 41.64,34.4 41.58,34.56 L41.51,34.97 L41.36,35.8 L41.3,36.11 L40.54,40.11 L39.72,40.11 L39,36.69 C38.9,36.2366667 38.8133333,35.78 38.74,35.32 C38.6666667,34.86 38.5966667,34.3733333 38.53,33.86 L38.08,40 L36.93,40 L37.67,31 L38.67,31 L39.47,34.7 C39.57,35.16 39.66,35.6233333 39.74,36.09 C39.82,36.5566667 39.9066667,37.0333333 40,37.52 L40,37.36 C39.9983574,37.3333586 39.9983574,37.3066414 40,37.28 L40.17,36.28 L40.32,35.28 L40.45,34.63 L41.2,31 L42.26,31 Z M36.35,20.45 L37.85,20.45 C38.2387755,20.4403866 38.6266977,20.4909852 39,20.6 C39.3009456,20.7022508 39.5698664,20.8815313 39.78,21.12 C40.1439779,21.5402174 40.3951754,22.0460534 40.51,22.59 C40.6792296,23.4154785 40.7530471,24.2576686 40.73,25.1 C40.7488868,25.9200431 40.668299,26.7393522 40.49,27.54 C40.3751023,28.0681285 40.1032058,28.5491761 39.71,28.92 C39.0094578,29.3875453 38.1678123,29.5961886 37.33,29.51 L36.33,29.51 L36.35,20.45 Z M36.09,31 L34.93,34.2 L34.31,34 L35.11,30.69 L36.09,31 Z M33.73,20.45 L34.95,20.45 L34.95,29.52 L33.73,29.52 L33.73,20.45 Z M35.6,76.31 C35.51,76.52 35.29,76.48 35.12,76.37 C34.837778,76.1305135 34.4885878,75.9838536 34.12,75.95 C34.0497674,75.9477078 33.9872898,75.9047545 33.96,75.84 C33.6608434,75.3358213 33.4605986,74.7792088 33.37,74.2 C33.37,73.96 33.37,73.78 33.69,73.82 C33.8240034,73.7928552 33.9571467,73.8701642 34,74 C34.1635098,74.3029102 34.3842583,74.5712046 34.65,74.79 C34.8775286,74.9845111 35.0059558,75.2707202 35,75.57 C34.9787935,75.8030471 35.1322597,76.0161946 35.36,76.07 C35.45,76.07 35.69,76.11 35.6,76.31 Z M35.31,50.57 L35.31,41.5 L36.53,41.5 L36.53,49.5 L38.53,49.5 L38.53,50.5 L35.31,50.57 Z M41.4,81.77 C40.4233205,82.0121557 39.4984532,82.4288542 38.67,83 C38.1505624,83.334548 37.5933531,83.6064393 37.01,83.81 C36.8938135,83.8310939 36.7940361,83.9050031 36.74,84.01 C36.65,84.28 36.43,84.35 36.2,84.45 C35.14,84.9 34.14,85.45 33.05,85.89 C32.915528,85.9517941 32.8061686,86.0576258 32.74,86.19 C32.3404637,86.7921214 31.7115768,87.2041508 31,87.33 C30.72,87.4 30.68,87.33 30.68,87.06 C30.7316792,86.4591812 30.9693722,85.889417 31.36,85.43 C31.66,85.01 31.94,84.57 32.26,84.16 C32.58,83.75 32.84,83.77 32.94,83.4 C34.5262641,82.2690298 36.3155234,81.4541869 38.21,81 C38.5559432,80.9337506 38.9078288,80.903589 39.26,80.91 C40.0065073,80.8911673 40.7488071,81.0273691 41.44,81.31 C41.55,81.31 41.67,81.39 41.66,81.55 C41.6340705,81.6703056 41.5326259,81.7595767 41.41,81.77 L41.4,81.77 Z M43.3,49.67 C42.9555475,50.329891 42.2525174,50.7226452 41.51,50.67 C40.7246073,50.7247353 39.9860972,50.2919525 39.65,49.58 C39.2093521,48.3711972 39.0254428,47.0838321 39.11,45.8 C39.0327178,44.6348828 39.2136937,43.4670757 39.64,42.38 C39.9893638,41.7149902 40.7010646,41.3217853 41.45,41.38 C42.1097731,41.3332339 42.74754,41.6275879 43.14,42.16 C43.4222716,42.6125275 43.6030905,43.1208672 43.67,43.65 C43.796755,44.5139401 43.8502788,45.3870463 43.83,46.26 C43.908795,47.4219229 43.7277428,48.5868059 43.3,49.67 L43.3,49.67 Z M47.04,50.57 L46.04,50.57 L44.32,41.5 L45.52,41.5 L46.07,44.85 L46.16,45.45 L46.35,46.77 L46.43,47.38 L46.5,47.88 L46.56,48.33 L46.56,48.09 L46.56,47.91 L46.72,46.86 L47,45.47 L47.06,45.12 L47.06,44.84 L47.65,41.49 L48.79,41.49 L47.04,50.57 Z M49.24,29.52 L48,29.52 L48,25.62 L46.11,20.45 L47.4,20.45 L48,22.45 L48.06,22.64 L48.13,22.87 C48.3230191,23.459153 48.4766908,24.0604767 48.59,24.67 C48.6633333,24.1833333 48.7233333,23.85 48.77,23.67 L48.96,22.86 L49,22.5 L49.51,20.45 L50.78,20.45 L49.2,25.62 L49.24,29.52 Z M52.74,42.52 L50.74,42.52 L50.74,45.4 L52.54,45.4 L52.54,46.4 L50.74,46.4 L50.74,49.5 L52.74,49.5 L52.74,50.5 L49.49,50.5 L49.49,41.5 L52.74,41.5 L52.74,42.52 Z M52.56,29.38 C52.3472488,29.5853362 52.0326862,29.6443167 51.76,29.53 C51.6747556,29.4945803 51.5967824,29.4437282 51.53,29.38 C51.4619189,29.314722 51.4075267,29.2365332 51.37,29.15 C51.3303966,29.058448 51.3099764,28.9597507 51.31,28.86 C51.3072548,28.6684245 51.3831544,28.4840969 51.52,28.35 C51.6609018,28.2110588 51.8521728,28.1352722 52.05,28.14 C52.2403515,28.138976 52.4221529,28.2189686 52.55,28.36 C52.8141554,28.6409998 52.8141554,29.0790002 52.55,29.36 L52.56,29.38 Z M66.19,56.38 L66.03,56.38 C65.7474615,56.2215412 65.5126269,55.99016 65.35,55.71 C65.1991731,55.437136 65.0623295,55.1567734 64.94,54.87 C64.79,54.52 64.63,54.18 64.45,53.87 C64.7995625,53.9479983 65.104681,54.1597864 65.3,54.46 C65.6723365,55.0337629 65.971331,55.6519088 66.19,56.3 C66.19,56.3 66.23,56.33 66.19,56.37 L66.19,56.38 Z M71.3,67 C70.63,65.74 69.82,64.58 69.04,63.39 C68.8484214,63.066476 68.6748247,62.7326361 68.52,62.39 C68.52,62.31 68.41,62.22 68.52,62.16 C68.63,62.1 68.71,62.16 68.76,62.27 C68.97,62.61 69.19,62.95 69.38,63.27 C69.9,64.21 70.38,65.18 70.93,66.11 C71.2044258,66.5765343 71.5049013,67.0272476 71.83,67.46 C71.6089904,67.3668022 71.423369,67.2056968 71.3,67 Z M78.2,76.59 C78.2,77.09 78.2,77.59 78.15,78.09 C78.15,78.2 78.15,78.35 78.03,78.39 C77.91,78.43 77.85,78.3 77.77,78.23 L77.64,78.11 C77.5220442,78.0308611 77.3679558,78.0308611 77.25,78.11 C77.1299917,78.1602258 77.0541102,78.2800387 77.06,78.41 C77.06,78.5 77.06,78.61 77.01,78.68 C76.96,78.75 76.92,78.54 76.91,78.46 C76.776692,77.6460782 76.6965224,76.8243399 76.67,76 C76.67,75.22 76.61,74.43 76.6,73.65 C76.5773339,71.9097378 75.88631,70.2448358 74.67,69 L73.36,67.57 C72.9044188,67.1036253 72.5172353,66.5750357 72.21,66 C71.74,65 71.15,64.17 70.59,63.28 C70.2291977,62.7179575 69.9560682,62.1042593 69.78,61.46 C69.72,61.21 69.78,61.16 70.02,61.21 C70.5763613,61.3389456 71.0813769,61.6315064 71.47,62.05 C72.7508521,63.3602573 73.8904453,64.8015075 74.87,66.35 C75.7447253,67.6863263 76.5105287,69.0908566 77.16,70.55 C77.9979418,72.4648653 78.3549756,74.5555725 78.2,76.64 L78.2,76.59 Z" id="Shape"></path>
                            <path d="M39.06,27.77 C39.3850454,26.9335304 39.5183171,26.0348009 39.45,25.14 C39.5119076,24.1651743 39.3863062,23.1875205 39.08,22.26 C38.8380304,21.7367568 38.2943941,21.420968 37.72,21.47 L37.57,21.47 L37.57,28.47 C38.1597742,28.5414957 38.7385254,28.2695991 39.06,27.77 Z" id="Shape"></path>
                            <path d="M128.62,36.51 C128.455278,36.5036549 128.291235,36.5344129 128.14,36.6 C127.962469,36.673585 127.847621,36.8478378 127.85,37.04 C127.85,37.25 128,37.35 128.17,37.42 C128.371839,37.502796 128.598161,37.502796 128.8,37.42 C129,37.34 129.22,37.27 129.15,36.97 C129.08,36.67 129,36.5 128.62,36.51 Z" id="Shape"></path>
                            <path d="M41.48,42.48 C41.0556379,42.4727723 40.6879934,42.7728041 40.61,43.19 C40.4282586,44.1385694 40.3577824,45.1051003 40.4,46.07 C40.3615187,46.9955102 40.435391,47.9222723 40.62,48.83 C40.6925071,49.2492329 41.0545571,49.5565544 41.48,49.56 C41.8889858,49.5642984 42.2444162,49.2799541 42.33,48.88 C42.5230905,48.061505 42.6005102,47.2199863 42.56,46.38 C42.6030683,45.3354655 42.5326561,44.2893415 42.35,43.26 C42.2033333,42.74 41.9133333,42.48 41.48,42.48 Z" id="Shape"></path>
                            <path d="M31.12,22.3 C31.0912404,22.125283 31.0265435,21.9584334 30.93,21.81 C30.8459193,21.6859415 30.7278791,21.5887319 30.59,21.53 C30.4310961,21.4666303 30.2610272,21.4360179 30.09,21.44 L29.88,21.44 L29.88,24.44 C30.2450991,24.477254 30.6087833,24.3572382 30.88,24.11 C31.1090419,23.7875542 31.2154284,23.3939243 31.18,23 C31.1825552,22.7652802 31.1624622,22.5308612 31.12,22.3 L31.12,22.3 Z" id="Shape"></path>
                            <path d="M44.14,25.36 C43.96,24.38 43.8133333,23.33 43.7,22.21 C43.6466667,22.7566667 43.5766667,23.3066667 43.49,23.86 C43.4033333,24.4133333 43.3,25.0066667 43.18,25.64 L43,26.8 L44.45,26.8 L44.14,25.36 Z" id="Shape"></path>
                        </g>
                    </g>
                </g>
            </g>
        </g>
    </g>
</svg>