<?xml version="1.0" encoding="UTF-8"?>
<svg width="108px" height="84px" viewBox="0 0 108 84" version="1.1" xmlns="http://www.w3.org/2000/svg" xmlns:xlink="http://www.w3.org/1999/xlink">
    <!-- Generator: Sketch 42 (36781) - http://www.bohemiancoding.com/sketch -->
    <title>get-offline</title>
    <desc>Created with Sketch.</desc>
    <defs></defs>
    <g id="Page-1" stroke="none" stroke-width="1" fill="none" fill-rule="evenodd">
        <g id="stickers-white" transform="translate(-30.000000, -145.000000)" fill="#1A1918">
            <g id="get-offline" transform="translate(30.000000, 145.000000)">
                <path d="M68.3891217,58.4489622 L65.443187,58.4489622 L64.9407522,60.6576336 L68.0222739,60.6576336 C69.4550348,60.6576336 69.6411,59.7829762 69.6411,59.3717874 C69.6411,58.7168224 69.2454913,58.4489622 68.3891217,58.4489622" id="Fill-2040"></path>
                <path d="M29.8894696,32.3576811 C27.2053174,32.4052615 26.077187,34.7431636 26.077187,36.5265483 C26.077187,38.0649818 27.0004696,39.3373175 28.7818826,39.3373175 C30.9882522,39.3373175 32.5260783,37.5251497 32.5260783,35.0633035 C32.5260783,32.7876671 30.9688826,32.3435832 29.8894696,32.3576811" id="Fill-2041"></path>
                <path d="M101.577815,32.7259888 L93.9872935,32.7259888 L93.5582283,34.5857371 L100.80538,34.5857371 L100.231337,37.0663804 L92.9894674,37.0663804 L92.5451413,38.9261287 L100.68975,38.9261287 L100.102207,41.4690378 L88.0026848,41.4690378 L90.5864674,30.244758 L102.151272,30.244758 L101.577815,32.7259888 Z M89.4595109,45.6279189 L85.4089239,45.6279189 L83.3933152,54.3233874 L79.3902717,54.3233874 L81.4064674,45.6279189 L77.2449457,45.6279189 L77.2496413,45.5756392 L69.9848804,45.5756392 L69.5552283,47.4400867 L76.7918152,47.4400867 L76.22775,49.9207301 L68.9870543,49.9207301 L68.5374457,51.7751916 L76.68675,51.7751916 L76.0992065,54.3233874 L64.0008587,54.3233874 L66.5846413,43.0991077 L77.8184022,43.0991077 L78.1476848,43.0991077 L90.0476413,43.0991077 L89.4595109,45.6279189 Z M77.9944891,59.0990517 L76.8258587,63.0094573 L73.7924674,63.0094573 L74.4410543,58.9075552 L75.1248587,55.9540448 L78.7645761,55.9540448 L77.9944891,59.0990517 Z M75.8562065,67.1730378 L72.8363152,67.1730378 L73.5054457,64.2665203 L76.52475,64.2665203 L75.8562065,67.1730378 Z M68.5949674,63.1674713 L64.3536196,63.1674713 L63.416837,67.1730378 L59.447837,67.1730378 L62.0509891,55.9346601 C68.7199891,55.9346601 69.612163,55.9199748 70.152163,55.9675552 C70.5777065,56.0016252 72.5645543,56.1302685 73.352837,57.8226042 C73.5342065,58.2102965 73.6157935,58.6402825 73.6157935,59.0849538 C73.6157935,60.145821 73.1714674,61.2789399 72.3925761,61.9914713 C71.1981196,63.0905203 69.53175,63.1386881 68.5949674,63.1674713 L68.5949674,63.1674713 Z M56.6198804,66.3935413 C55.2681196,67.2881706 53.4233152,67.5225483 51.5374239,67.5225483 C48.6425543,67.5225483 46.5934891,66.8716951 45.8820978,65.5952476 C45.2135543,64.328786 45.595663,63.1386881 45.6919239,62.5794713 L47.2144891,55.9540448 L51.2169457,55.9540448 L49.6932065,62.6270517 C49.4214457,63.9604783 49.8839674,65.1364783 52.0439674,65.0595273 C52.6174239,65.0595273 53.1233804,64.9026881 53.5054891,64.6782965 C54.4710326,64.0750238 54.7287065,63.1386881 55.0914457,61.7523944 L56.423837,55.9540448 L60.4556413,55.9540448 L58.8074674,63.0905203 C58.5398152,63.7261007 58.3150109,65.3273874 56.6198804,66.3935413 L56.6198804,66.3935413 Z M40.2784239,54.3233874 L39.9021848,45.5321706 L37.9910543,54.3233874 L34.2603587,54.3233874 L36.8635109,43.0991077 L42.3621196,43.0991077 L42.5810543,50.7284224 L46.2542283,43.0991077 L51.8285543,43.0991077 L49.2207065,54.3233874 L45.5997717,54.3233874 L47.6963804,45.5756392 L43.2971413,54.3233874 L40.2784239,54.3233874 Z M23.4609457,40.0874434 C22.7918152,39.4183804 22.0751413,38.2564783 22.0751413,36.6217091 C22.0751413,33.9160867 24.17175,29.7713035 30.1950978,29.8623524 C32.1784239,29.895835 34.2128152,30.4215692 35.4019891,31.8219608 C36.4056848,32.9979608 36.4673152,34.283807 36.4673152,34.8383245 C36.4673152,37.5251497 34.6559674,41.7844783 28.4946848,41.7844783 C26.6029239,41.7844783 24.697663,41.339807 23.4609457,40.0874434 L23.4609457,40.0874434 Z M63.7560978,47.4400867 L63.1832283,49.9207301 L55.9460543,49.9207301 L55.4976196,51.7751916 L63.64575,51.7751916 L63.0582065,54.3233874 L50.9539891,54.3233874 L53.5436413,43.0991077 L65.1078587,43.0991077 L64.5349891,45.5756392 L56.9450543,45.5756392 L56.5148152,47.4400867 L63.7560978,47.4400867 Z M49.3157935,30.244758 L49.3304674,30.244758 L60.0254022,30.244758 L60.054163,30.244758 L64.0425326,30.244758 L62.0415978,38.8926462 L67.8260543,38.8926462 L67.2385109,41.4690378 L57.4369239,41.4690378 L59.4425543,32.7735692 L52.68375,32.7735692 L52.1772065,34.9534573 L58.5785543,34.9534573 L57.9904239,37.4628839 L51.590837,37.4628839 L50.6546413,41.4690378 L46.7132283,41.4690378 L48.7335326,32.7735692 L41.96475,32.7735692 L41.4540978,34.9534573 L47.8548587,34.9534573 L47.2679022,37.4628839 L40.87125,37.4628839 L39.9303587,41.4690378 L35.9889457,41.4690378 L38.5973804,30.244758 L49.3157935,30.244758 Z M50.6153152,17.0273874 C54.3131413,17.0273874 55.78875,18.857765 56.1902283,19.8093734 C56.3475326,20.1770937 56.423837,20.5882825 56.5054239,20.9853734 L52.8081848,21.0664364 C52.7412717,20.8079748 52.6596848,20.0772336 51.4716848,19.7465203 C50.5818587,19.4933455 49.5981196,19.5843944 49.0099891,19.8234713 C47.5825109,20.3351077 46.5506413,21.8118629 46.5506413,23.6716112 C46.5506413,25.6124224 47.7357065,26.4201147 49.4830761,26.4201147 C50.1381196,26.4201147 50.6916196,26.3249538 51.1834891,26.0858769 C52.0574674,25.688786 52.2494022,25.1489538 52.440163,24.6226322 L49.3257717,24.6226322 L49.8510978,22.385765 L56.4578804,22.385765 L55.0439022,28.6000028 L52.2006848,28.6000028 L52.359163,27.8833594 C51.7710326,28.2510797 50.6153152,28.9495133 48.5480543,28.9495133 C45.2945543,28.9495133 42.720163,27.1038629 42.720163,23.6575133 C42.720163,20.4784364 45.1654239,17.0273874 50.6153152,17.0273874 L50.6153152,17.0273874 Z M70.1374891,17.3951077 L70.4685326,17.3951077 L82.3667283,17.3951077 L81.7785978,19.9192196 L77.7274239,19.9192196 L75.7129891,28.6152755 L71.7093587,28.6152755 L73.7255543,19.9192196 L69.5646196,19.9192196 L69.5687283,19.8710517 L62.3039674,19.8710517 L61.8790109,21.7308 L69.1103152,21.7308 L68.5480109,24.2114434 L61.3055543,24.2114434 L60.8565326,26.0711916 L69.005837,26.0711916 L68.4182935,28.6152755 L56.3181848,28.6152755 L58.907837,17.3951077 L70.1374891,17.3951077 Z M71.8778152,41.4690378 L67.8595109,41.4690378 L70.4485761,30.244758 L74.4662935,30.244758 L71.8778152,41.4690378 Z M85.2516196,30.244758 L88.8719674,30.244758 L86.2688152,41.4690378 L82.6625543,41.4690378 L78.9124891,34.4277231 L77.3265326,41.4690378 L73.5911413,41.4690378 L76.1948804,30.244758 L79.8205109,30.244758 L83.6134239,37.3530378 L85.2516196,30.244758 Z M103.440815,0.338408392 L20.3125109,0.338408392 C18.0533152,0.338408392 16.2231848,2.17407273 16.2231848,4.43561119 L16.2231848,54.8878909 L0.293184783,54.7862685 C0.174032609,54.8820168 0.131184783,55.0453175 0.183423913,55.1880587 C0.235663043,55.3313874 0.36948913,55.4224364 0.522684783,55.4224364 L16.2231848,68.7843105 L16.2231848,79.5016531 C16.2231848,81.7631916 18.0533152,83.5941566 20.3125109,83.5941566 L103.440815,83.5941566 C105.705293,83.5941566 107.53425,81.7631916 107.53425,79.5016531 L107.53425,4.43561119 C107.53425,2.17407273 105.705293,0.338408392 103.440815,0.338408392 L103.440815,0.338408392 Z" id="Fill-2042"></path>
            </g>
        </g>
    </g>
</svg>