<?xml version="1.0" encoding="UTF-8"?>
<svg width="118px" height="127px" viewBox="0 0 118 127" version="1.1" xmlns="http://www.w3.org/2000/svg" xmlns:xlink="http://www.w3.org/1999/xlink">
    <!-- Generator: Sketch 42 (36781) - http://www.bohemiancoding.com/sketch -->
    <title>sticker_runner-peloton_black</title>
    <desc>Created with Sketch.</desc>
    <defs></defs>
    <g id="Page-1" stroke="none" stroke-width="1" fill="none" fill-rule="evenodd">
        <g id="stickers-white" transform="translate(-418.000000, -189.000000)" fill="#000000">
            <g id="sticker_runner-peloton_black" transform="translate(418.000000, 189.000000)">
                <path d="M17.8,99.902 L20.814,99.902 L20.814,95.225 L17.8,95.225 L17.8,99.902 Z M23.775,101.159 L21.855,102.864 L17.8,102.864 L17.8,108.307 L14.839,108.307 L14.839,92.262 L21.855,92.262 L23.775,93.959 L23.775,101.159 Z" id="Fill-1"></path>
                <polygon id="Fill-2" points="33.9818 108.3072 26.2518 108.3072 26.2518 92.2622 33.9198 92.2622 33.9198 95.2252 29.2118 95.2252 29.2118 98.7992 33.2668 98.7992 33.2668 101.7722 29.2118 101.7722 29.2118 105.3462 33.9818 105.3462"></polygon>
                <polygon id="Fill-3" points="43.8001 108.3072 36.4571 108.3072 36.4571 92.2622 39.4291 92.2622 39.4291 105.3462 43.8001 105.3462"></polygon>
                <path d="M48.401,105.346 L51.782,105.346 L51.782,95.225 L48.401,95.225 L48.401,105.346 Z M54.753,106.633 L52.843,108.307 L47.328,108.307 L45.44,106.633 L45.44,93.949 L47.328,92.262 L52.843,92.262 L54.753,93.949 L54.753,106.633 Z" id="Fill-4"></path>
                <polygon id="Fill-5" points="64.8285 95.2251 61.8875 95.2251 61.8875 108.3071 58.9155 108.3071 58.9155 95.2251 55.9745 95.2251 55.9745 92.2621 64.8285 92.2621"></polygon>
                <path d="M69.429,105.346 L72.81,105.346 L72.81,95.225 L69.429,95.225 L69.429,105.346 Z M75.782,106.633 L73.872,108.307 L68.357,108.307 L66.468,106.633 L66.468,93.949 L68.357,92.262 L73.872,92.262 L75.782,93.949 L75.782,106.633 Z" id="Fill-6"></path>
                <polygon id="Fill-7" points="84.4456 108.3072 81.2086 99.9022 81.2086 108.3072 78.2576 108.3072 78.2576 92.2622 81.4326 92.2622 84.6806 100.6782 84.6806 92.2622 87.6226 92.2622 87.6226 108.2872 87.6326 108.3072"></polygon>
                <path d="M4.0689,118.0424 L3.0919,118.9144 L3.0919,125.4774 L4.0689,126.3444 L6.9219,126.3444 L7.9099,125.4774 L7.9099,118.9144 L6.9219,118.0424 L4.0689,118.0424 Z M4.6229,124.8124 L6.3719,124.8124 L6.3719,119.5764 L4.6229,119.5764 L4.6229,124.8124 Z" id="Fill-8"></path>
                <polygon id="Fill-9" points="9.1917 118.0424 9.1917 126.3444 10.7287 126.3444 10.7287 122.9624 12.8217 122.9624 12.8217 121.4244 10.7287 121.4244 10.7287 119.5764 13.1597 119.5764 13.1597 118.0424"></polygon>
                <path d="M21.1761,110.2997 L17.9691,126.3437 L20.9921,126.3437 L21.7061,122.7697 L24.8121,122.7697 L25.5271,126.3437 L28.5491,126.3437 L25.3431,110.2997 L21.1761,110.2997 Z M23.2591,115.0077 L24.2191,119.8077 L22.2991,119.8077 L23.2591,115.0077 Z" id="Fill-10"></path>
                <polygon id="Fill-11" points="40.086 110.2997 38.87 118.5107 37.256 110.2997 34.806 110.2997 33.182 118.4997 31.967 110.2997 28.934 110.2997 31.609 126.3437 34.632 126.3437 36.031 119.4087 37.42 126.3437 40.442 126.3437 43.129 110.2997"></polygon>
                <polygon id="Fill-12" points="45.1863 110.2997 45.1863 126.3437 52.9173 126.3437 52.9173 123.3817 48.1483 123.3817 48.1483 119.8077 52.2023 119.8077 52.2023 116.8367 48.1483 116.8367 48.1483 113.2617 52.8563 113.2617 52.8563 110.2997"></polygon>
                <polygon id="Fill-13" points="56.466 110.2997 54.557 111.9847 54.557 118.1237 56.466 119.8077 60.512 119.8077 60.512 123.3817 57.518 123.3817 57.518 122.0847 54.557 122.0847 54.557 124.6687 56.466 126.3437 61.583 126.3437 63.472 124.6687 63.472 118.5207 61.583 116.8367 57.518 116.8367 57.518 113.2617 60.512 113.2617 60.512 114.4667 63.472 114.4667 63.472 111.9757 61.583 110.2997"></polygon>
                <path d="M67.8375,110.2997 L65.9485,111.9847 L65.9485,124.6687 L67.8375,126.3437 L73.3515,126.3437 L75.2625,124.6687 L75.2625,111.9847 L73.3515,110.2997 L67.8375,110.2997 Z M68.9095,123.3817 L72.2905,123.3817 L72.2905,113.2617 L68.9095,113.2617 L68.9095,123.3817 Z" id="Fill-14"></path>
                <polygon id="Fill-15" points="85.8564 110.2997 83.2724 115.8147 80.6984 110.2997 77.7374 110.2997 77.7374 126.3437 80.6984 126.3437 80.6984 117.3067 83.2724 122.8197 85.8564 117.3067 85.8564 126.3437 88.8284 126.3437 88.8284 110.2997"></polygon>
                <polygon id="Fill-16" points="91.3041 110.2997 91.3041 126.3437 99.0341 126.3437 99.0341 123.3817 94.2661 123.3817 94.2661 119.8077 98.3201 119.8077 98.3201 116.8367 94.2661 116.8367 94.2661 113.2617 98.9741 113.2617 98.9741 110.2997"></polygon>
                <path d="M68.2054,14.9781 C67.9944,14.6401 68.2124,14.3861 68.4064,14.2091 C68.6074,14.0321 69.1654,13.6701 69.4544,13.4991 C69.7394,13.3391 70.0424,13.5431 70.1034,13.7631 C70.1714,13.9801 70.2484,14.4991 70.2224,14.8851 C70.1984,15.4491 70.0114,15.7031 69.8754,15.7281 C69.7394,15.7521 69.4874,15.6881 69.0834,15.5371 C68.6684,15.3841 68.4164,15.3251 68.2054,14.9781 M66.4924,9.4991 C66.2034,9.1951 66.2864,8.6121 66.3654,8.2491 C66.4384,7.8871 66.5834,7.7431 66.7024,7.6081 C67.0074,7.2611 67.4424,7.0161 67.8244,7.1191 C68.2054,7.2111 68.9414,7.5161 69.2934,7.6831 C69.6474,7.8531 69.9354,8.0401 70.1104,8.1661 C70.2814,8.2911 70.4484,8.6631 70.1984,9.0191 C69.9444,9.3731 69.5824,9.5731 69.3274,9.7251 C69.0724,9.8711 68.4834,9.9291 67.8094,9.9391 C67.1334,9.9461 66.7754,9.8021 66.4924,9.4991 M72.2304,9.6161 C72.3354,9.4071 72.6714,9.2101 72.9314,9.1951 C73.2014,9.1691 73.4404,9.2691 73.8774,9.4311 C74.3164,9.5821 74.6804,9.8711 74.6554,10.1991 C74.6204,10.5381 74.5374,10.8501 74.3834,11.0711 C74.2394,11.2811 73.7094,11.4231 73.4204,11.3741 C73.1424,11.3211 72.8974,11.0771 72.5704,10.7131 C72.2464,10.3511 72.1534,10.0621 72.1534,9.8961 C72.1534,9.7341 72.1884,9.6951 72.2304,9.6161 M116.6434,85.1921 C116.2334,85.0751 115.8994,85.0061 115.1844,85.3841 C114.4764,85.7661 113.5404,86.6321 112.7274,87.3601 C111.9174,88.0961 111.1754,88.6111 110.5234,88.8371 C109.8774,89.0751 108.6344,89.3361 107.9474,89.5401 C107.2724,89.7331 106.9024,89.8831 106.2984,89.8331 C105.6804,89.7911 105.3994,89.7511 104.9014,89.8691 C104.7324,89.6241 103.8384,88.7111 103.3594,87.8411 C102.8744,86.9811 100.2494,83.2491 99.0844,81.2571 C97.9294,79.2641 94.8894,74.3261 93.8264,72.4771 C92.7634,70.6351 91.6914,68.6761 91.4374,67.9601 C91.1834,67.2501 90.8404,66.6681 90.5114,66.1541 C90.1784,65.6391 89.6834,65.4281 89.3444,65.2421 C89.0144,65.0581 88.4834,64.6421 87.2234,63.7841 C85.9664,62.9121 84.9774,62.1681 84.0234,61.5521 C84.0924,61.0721 83.6684,60.7341 83.4834,60.5381 C83.3094,60.3561 82.7154,60.0821 82.0724,59.8141 C81.4424,59.5351 80.7914,59.1371 79.8964,58.7011 C79.4734,58.3101 78.9674,58.1761 78.9674,58.1761 C78.9674,58.1761 78.8174,57.9811 78.2104,57.4571 C77.5914,56.9331 75.9474,56.0131 75.3284,55.6451 C74.7234,55.2741 73.9094,54.6471 73.4404,54.2251 C72.9654,53.8041 72.0884,53.2551 71.8174,53.0851 C71.8584,52.4771 71.9024,51.7271 71.9274,50.9741 C71.9504,50.2301 71.8584,48.8481 71.7414,47.7501 C71.6154,46.6441 71.5734,45.7001 71.6384,44.9471 C71.6974,44.1881 71.8454,43.5031 71.8944,43.0221 C71.9444,42.5511 72.0204,41.9251 72.1624,41.4011 C72.3004,40.8771 72.3484,40.5331 72.5244,39.6041 C73.0254,39.8641 74.2254,40.3821 74.6874,40.4571 C75.1524,40.5331 75.7944,40.7011 76.2524,40.7781 C76.7124,40.8621 77.3474,40.9561 77.3474,40.9561 L77.5404,40.6851 C77.5404,40.6851 78.1894,40.9361 79.2554,41.2841 C80.3194,41.6311 81.1474,41.8811 81.4924,42.0271 C81.8394,42.1781 82.1264,42.3901 82.6894,42.3121 C83.2504,42.2301 84.0174,41.8811 85.6144,41.3181 C87.2064,40.7501 89.4434,39.5211 91.6804,37.7481 C93.9184,35.9751 95.5314,34.5801 96.3254,34.0321 C97.1284,33.4831 98.0224,32.6991 99.4654,31.6261 C100.9104,30.5451 101.5514,30.1151 102.0414,29.4481 C102.5124,28.7821 102.5474,28.3501 102.5474,27.7441 C102.5474,27.1261 102.6314,26.5601 102.3354,26.0301 C101.9304,25.6651 101.1724,24.8551 100.4794,24.6011 C99.7794,24.3561 99.0964,24.4841 98.6204,24.9381 C98.2494,25.1671 97.9884,25.5811 97.6174,25.9961 C97.3224,26.1141 96.9394,26.4771 96.8714,27.0431 C96.8064,27.6081 96.9054,28.3321 97.1104,29.1691 C96.4164,29.7511 96.1304,30.1491 95.0004,30.7071 C93.8674,31.2691 89.5704,32.8161 87.6014,33.7621 C85.6274,34.7161 83.9834,35.4651 83.3754,35.6861 C82.7684,35.9131 82.3444,35.7361 81.8884,35.6371 C81.4314,35.5261 80.8024,35.2811 80.3934,35.1471 C80.4444,35.0441 80.4974,34.8931 80.4294,34.8101 C80.2514,34.6051 79.5854,34.2021 78.8844,33.7181 C78.1894,33.2381 77.5744,32.5381 77.2644,32.3681 C76.9414,32.2091 76.1984,31.7521 75.7174,31.5741 C75.2384,31.3891 74.6554,31.0941 74.1894,30.4091 C73.7244,29.7331 73.1424,28.7231 72.5944,27.7251 C72.4164,26.9161 71.8174,26.1281 71.4364,25.6651 C71.0564,25.2071 70.3414,23.8601 70.0624,23.1661 C69.7744,22.4641 69.5274,21.7551 68.7954,21.1241 C69.1754,20.8791 69.2084,20.7761 69.9534,20.8301 C70.2584,20.8451 70.4424,20.6831 70.9644,20.4821 C71.2604,20.2721 71.4544,20.2531 71.8844,19.8161 C72.2464,19.4351 72.5784,19.0811 72.7984,18.4461 C73.0144,17.8241 73.4204,16.9531 73.6234,16.4271 C73.8274,15.8981 74.2054,14.8851 74.6014,14.1661 C74.9994,13.4581 75.2724,12.6031 75.4974,11.9971 C75.7324,11.3791 76.3264,10.3701 76.6144,9.2541 C76.8924,8.1481 76.9764,6.7721 76.8574,5.9011 C76.7414,5.0421 76.2234,3.7501 75.9294,3.1181 C75.6354,2.4831 75.3284,1.2581 74.4494,0.7631 C73.5734,0.2621 72.6964,0.0591 71.8174,0.0181 C70.9324,-0.0309 70.2224,0.0181 69.4354,0.1791 C68.6604,0.3471 67.4764,1.0141 67.0214,1.4441 C66.5484,1.8751 65.2254,3.0551 64.8964,3.7311 C64.5574,4.4151 63.9324,6.0211 63.7294,6.7561 C63.5334,7.4821 63.2484,8.8731 63.0894,9.8611 C62.9184,10.8321 62.5204,12.4121 62.3204,13.0791 C62.1244,13.7351 61.8534,14.4051 61.8534,14.7331 C61.8534,15.0721 61.6954,15.1061 62.0424,15.7281 C61.3314,15.4831 61.1804,15.6441 60.4964,15.6941 C59.8224,15.7471 58.9944,15.9141 57.7264,16.2111 C56.6644,16.3791 54.9764,17.0551 54.4954,17.1901 C54.0144,17.3151 52.8304,18.1941 51.8514,18.8711 C51.0824,19.3501 48.6924,20.3311 48.1544,20.5841 C47.5984,20.8301 46.5424,21.4261 46.2394,21.7161 C45.9404,21.9941 45.8564,21.8431 45.4854,22.1861 C45.3174,22.3571 45.2344,22.4901 45.2344,22.4901 C45.2344,22.4901 43.5464,23.3521 41.6554,24.2971 C39.7544,25.2431 37.0694,26.8881 36.1074,27.5971 C35.1444,28.3171 34.2824,28.9101 33.6994,29.3301 C33.1204,29.7431 33.1704,30.4671 33.0334,31.3381 C32.9064,32.2011 32.8764,33.9231 32.9064,35.9481 C32.9404,37.9731 33.4404,41.4351 33.7274,43.2321 C34.0064,45.0241 34.3504,48.5791 34.4674,49.5251 C34.5904,50.4691 34.6544,51.0511 34.5564,51.5321 C34.4534,52.0141 34.1744,52.6481 33.9214,53.1101 C33.6764,53.5751 33.4054,54.2691 33.5224,54.6571 C33.6414,55.0351 33.7624,55.4161 34.2064,56.1001 C34.1574,56.3781 34.2244,56.6651 34.3504,57.0271 C34.4864,57.3901 34.8844,58.0751 35.1034,58.5041 C35.3124,58.9351 35.5494,59.1041 35.9974,59.1231 C36.3274,59.2741 36.7594,59.2491 37.0954,58.9861 C37.4264,58.7251 38.2854,57.9081 38.9694,57.2561 C39.6434,56.6151 39.4674,56.2241 39.3984,55.2801 C39.3314,54.3331 39.1794,53.4411 39.0024,52.5281 C38.8174,51.6161 38.7754,50.2911 38.8864,48.6281 C38.9924,46.9651 39.1864,43.2511 39.2304,41.2581 C39.2804,39.2761 39.1864,36.1761 39.1724,35.3061 C39.1454,34.4451 39.2134,33.9821 40.0744,33.6501 C40.9364,33.3121 43.1494,32.5471 44.5654,31.8131 C45.9844,31.0841 47.4034,30.4361 47.4034,30.4361 C47.4034,30.4361 47.4634,30.8821 47.9334,30.9081 C48.3224,30.8161 49.5644,30.3341 50.2064,30.0651 C50.8474,29.7941 52.2924,29.2871 54.2844,28.5181 C54.0804,30.2411 53.7014,33.7371 53.7014,35.3981 C53.7014,37.0531 53.8344,39.7991 53.7954,40.3051 C53.7514,40.8191 53.8344,41.4601 53.6144,41.9251 C53.3974,42.3901 53.1094,43.9331 52.9334,44.7271 C52.7564,45.5301 51.8514,47.4981 51.3614,48.9571 C50.8724,50.4161 50.5684,52.3411 50.5684,52.3411 C50.5684,52.3411 51.0084,52.5711 51.4984,52.7481 C50.9644,53.2551 50.6804,54.1671 50.3674,54.5641 C50.0534,54.9601 49.8344,55.6451 49.5064,56.5311 C49.1764,57.4181 47.8594,60.5141 47.2684,61.4771 C46.6694,62.4381 46.0284,63.4861 45.3934,64.3721 C44.4914,65.6301 44.6594,65.7561 44.6334,66.2211 C44.2864,66.6001 42.7594,68.7111 41.9574,69.7341 C41.1674,70.7551 39.9924,72.4361 39.0864,73.4051 C37.8034,72.8081 34.8844,72.5441 32.4514,72.6571 C30.0114,72.7641 26.4064,72.7901 24.0434,72.5001 C21.6724,72.2161 20.0524,71.9121 18.6894,71.7601 C17.3334,71.6151 16.2854,71.4821 15.4404,71.3301 C14.5964,71.1771 13.7614,70.6201 13.4494,70.3671 C13.1274,70.1211 12.4184,69.5731 11.7674,69.1081 C11.1274,68.6461 10.2154,68.1711 9.4124,67.9121 C8.7344,67.7841 8.4344,67.6481 8.0194,67.7841 C7.7904,68.1971 6.5754,70.4331 5.8324,71.9471 C5.0924,73.4571 3.4184,76.4881 2.7614,77.7001 C2.0954,78.9261 0.9884,81.2321 0.6264,82.2781 C0.2674,83.3261 0.0104,84.4051 0.0004,84.8211 C0.0584,84.8871 0.2194,85.2071 0.5394,85.4121 C0.8514,85.5461 1.6054,85.6151 1.9764,85.3601 C2.3474,85.0981 2.6474,84.8451 3.1324,84.3721 C3.3264,84.1691 3.9944,83.6121 4.3324,83.2981 C4.6614,82.9971 6.3814,81.1361 7.2274,80.4291 C8.0704,79.7211 9.3274,78.5631 9.9704,78.2781 C10.6104,77.9891 11.3804,77.5941 12.2084,77.2801 C12.9174,77.2401 14.8174,77.2401 17.9414,77.7001 C21.0554,78.1661 26.3244,79.9981 30.2564,81.1581 C34.1994,82.3031 36.7394,82.8381 37.9564,82.8121 C39.1724,82.7831 40.9954,82.9971 41.7644,82.9701 C42.5234,82.9551 43.2314,82.6601 43.8654,82.4301 C44.5004,82.1951 45.0054,81.5181 45.6724,81.0371 C46.3394,80.5561 48.1294,79.3401 50.4164,77.5491 C52.7044,75.7511 54.9504,73.6511 55.7274,73.0831 C55.9794,73.2051 56.4784,73.3631 56.7224,73.1171 C56.9764,72.8731 58.0984,72.1721 59.0594,71.4571 C60.0234,70.7381 61.1564,69.5131 62.0514,68.4321 C62.9464,67.3541 63.9904,66.1781 63.9904,66.1781 C63.9904,66.1781 65.1234,66.4231 65.9494,66.8111 C66.5314,67.2421 67.5784,67.6581 68.4574,68.0701 C69.3364,68.4841 70.6604,69.3281 71.4954,69.7431 C72.3234,70.1651 73.3034,70.6971 73.5314,70.7611 C73.7684,70.8221 73.9304,70.7381 74.3504,70.4581 C74.7614,70.1731 75.1264,69.7581 75.1264,69.7581 C75.1264,69.7581 75.3704,69.8751 77.2104,70.4931 C79.0604,71.1101 79.9034,71.7021 81.0544,72.3181 C82.1914,72.9321 82.6424,73.3631 83.2254,74.2441 C83.8064,75.1201 84.6844,76.5301 86.4904,78.7671 C88.3064,81.0111 92.6204,85.3771 94.7294,87.8181 C96.8314,90.2471 99.7684,94.1811 100.5724,95.2811 C100.5724,95.8611 100.8834,96.5121 101.2284,97.1881 C101.5824,97.8711 102.3794,99.2651 103.0874,99.9401 C103.8044,100.6231 104.6924,101.4681 105.0974,101.7481 C105.5104,102.0331 105.7134,102.3221 106.3124,102.0671 C106.9384,101.5521 107.6394,100.8341 108.6184,99.2811 C109.5984,97.7181 110.5434,96.4261 111.7084,95.0091 C112.8634,93.6101 113.9764,92.0371 115.3704,90.0371 C116.7634,88.0261 117.1934,86.7931 117.2454,86.2051 C117.2954,85.6051 117.1784,85.4381 116.6434,85.1921" id="Fill-17"></path>
            </g>
        </g>
    </g>
</svg>