<?xml version="1.0" encoding="UTF-8"?>
<svg width="88px" height="142px" viewBox="0 0 88 142" version="1.1" xmlns="http://www.w3.org/2000/svg" xmlns:xlink="http://www.w3.org/1999/xlink">
    <!-- Generator: Sketch 42 (36781) - http://www.bohemiancoding.com/sketch -->
    <title>sticker_deadpoets_black</title>
    <desc>Created with Sketch.</desc>
    <defs>
        <polygon id="path-1" points="0.728976905 0.268 50.423 0.268 50.423 142 0.728976905 142 0.728976905 0.268"></polygon>
    </defs>
    <g id="Page-1" stroke="none" stroke-width="1" fill="none" fill-rule="evenodd">
        <g id="stickers-white" transform="translate(-557.000000, -189.000000)">
            <g id="sticker_deadpoets_black" transform="translate(557.000000, 188.000000)">
                <path d="M3.5517,65.5705 L4.3917,65.5705 C5.2287,65.5705 5.9237,65.4825 6.4787,65.3065 C7.0327,65.1205 7.5337,64.8245 7.9817,64.4195 C8.8987,63.5825 9.3577,62.4915 9.3577,61.1485 C9.3577,59.7945 8.9047,58.6965 7.9977,57.8535 C7.1827,57.1025 5.9797,56.7265 4.3917,56.7265 L3.5517,56.7265 L3.5517,65.5705 Z M1.6887,67.3215 L1.6887,54.9745 L4.2797,54.9745 C5.5217,54.9745 6.5017,55.0975 7.2217,55.3425 C7.9947,55.5825 8.6967,55.9905 9.3247,56.5665 C10.5997,57.7285 11.2367,59.2565 11.2367,61.1485 C11.2367,63.0465 10.5727,64.5815 9.2447,65.7545 C8.5787,66.3415 7.8807,66.7485 7.1507,66.9785 C6.4677,67.2075 5.4997,67.3215 4.2467,67.3215 L1.6887,67.3215 Z" id="Fill-1" fill="#000000"></path>
                <polygon id="Fill-3" fill="#000000" points="19.41 56.7263 14.46 56.7263 14.46 59.6933 19.265 59.6933 19.265 61.4443 14.46 61.4443 14.46 65.5703 19.41 65.5703 19.41 67.3223 12.597 67.3223 12.597 54.9753 19.41 54.9753"></polygon>
                <path d="M28.3505,62.572 L26.5195,58.374 L24.6005,62.572 L28.3505,62.572 Z M29.1105,64.323 L23.8245,64.323 L22.4495,67.322 L20.4425,67.322 L26.5515,54.199 L32.4455,67.322 L30.4065,67.322 L29.1105,64.323 Z" id="Fill-5" fill="#000000"></path>
                <path d="M35.1962,65.5705 L36.0362,65.5705 C36.8732,65.5705 37.5682,65.4825 38.1232,65.3065 C38.6772,65.1205 39.1782,64.8245 39.6262,64.4195 C40.5432,63.5825 41.0022,62.4915 41.0022,61.1485 C41.0022,59.7945 40.5492,58.6965 39.6422,57.8535 C38.8272,57.1025 37.6242,56.7265 36.0362,56.7265 L35.1962,56.7265 L35.1962,65.5705 Z M33.3332,67.3215 L33.3332,54.9745 L35.9242,54.9745 C37.1662,54.9745 38.1462,55.0975 38.8662,55.3425 C39.6392,55.5825 40.3412,55.9905 40.9692,56.5665 C42.2442,57.7285 42.8812,59.2565 42.8812,61.1485 C42.8812,63.0465 42.2172,64.5815 40.8892,65.7545 C40.2232,66.3415 39.5252,66.7485 38.7952,66.9785 C38.1122,67.2075 37.1442,67.3215 35.8912,67.3215 L33.3332,67.3215 Z" id="Fill-7" fill="#000000"></path>
                <path d="M1.8632,73.7737 L2.5582,73.7737 C4.2702,73.7737 5.1262,73.1157 5.1262,71.7987 C5.1262,70.5237 4.2432,69.8877 2.4782,69.8877 L1.8632,69.8877 L1.8632,73.7737 Z M1.8632,75.5007 L1.8632,80.5147 L0.0002,80.5147 L0.0002,68.1677 L2.1112,68.1677 C3.1452,68.1677 3.9262,68.2397 4.4542,68.3837 C4.9872,68.5277 5.4562,68.7997 5.8612,69.1997 C6.5702,69.8927 6.9252,70.7667 6.9252,71.8227 C6.9252,72.9527 6.5472,73.8487 5.7892,74.5097 C5.0322,75.1707 4.0112,75.5007 2.7262,75.5007 L1.8632,75.5007 Z" id="Fill-9" fill="#000000"></path>
                <path d="M9.1249,74.3054 C9.1249,75.6694 9.5829,76.7904 10.4999,77.6694 C11.4119,78.5484 12.4649,78.9874 13.6589,78.9874 C14.9539,78.9874 16.0469,78.5404 16.9369,77.6454 C17.8279,76.7404 18.2729,75.6374 18.2729,74.3374 C18.2729,73.0214 17.8329,71.9194 16.9529,71.0294 C16.0789,70.1354 14.9969,69.6874 13.7069,69.6874 C12.4219,69.6874 11.3369,70.1354 10.4519,71.0294 C9.5669,71.9134 9.1249,73.0054 9.1249,74.3054 M7.2449,74.2854 C7.2449,72.5474 7.8829,71.0554 9.1559,69.8074 C10.4259,68.5594 11.9499,67.9364 13.7299,67.9364 C15.4899,67.9364 16.9989,68.5654 18.2569,69.8234 C19.5209,71.0814 20.1519,72.5934 20.1519,74.3574 C20.1519,76.1324 19.5179,77.6384 18.2489,78.8754 C16.9749,80.1174 15.4369,80.7394 13.6349,80.7394 C12.0409,80.7394 10.6089,80.1874 9.3409,79.0834 C7.9429,77.8624 7.2449,76.2634 7.2449,74.2854" id="Fill-11" fill="#000000"></path>
                <polygon id="Fill-13" fill="#000000" points="27.9989 69.9192 23.0489 69.9192 23.0489 72.8862 27.8539 72.8862 27.8539 74.6372 23.0489 74.6372 23.0489 78.7632 27.9989 78.7632 27.9989 80.5152 21.1859 80.5152 21.1859 68.1682 27.9989 68.1682"></polygon>
                <polygon id="Fill-15" fill="#000000" points="33.8515 69.9192 33.8515 80.5152 31.9885 80.5152 31.9885 69.9192 29.1495 69.9192 29.1495 68.1682 36.6825 68.1682 36.6825 69.9192"></polygon>
                <path d="M44.3456,69.9993 L42.8336,70.8953 C42.5516,70.4043 42.2826,70.0843 42.0266,69.9353 C41.7596,69.7653 41.4156,69.6793 40.9946,69.6793 C40.4776,69.6793 40.0476,69.8263 39.7066,70.1193 C39.3666,70.4073 39.1956,70.7703 39.1956,71.2073 C39.1956,71.8113 39.6436,72.2963 40.5386,72.6643 L41.7706,73.1683 C42.7726,73.5743 43.5056,74.0683 43.9696,74.6533 C44.4336,75.2373 44.6646,75.9533 44.6646,76.8013 C44.6646,77.9373 44.2856,78.8763 43.5296,79.6183 C42.7676,80.3653 41.8216,80.7393 40.6906,80.7393 C39.6186,80.7393 38.7346,80.4203 38.0356,79.7833 C37.3486,79.1463 36.9186,78.2513 36.7476,77.1003 L38.6356,76.6843 C38.7206,77.4093 38.8696,77.9113 39.0826,78.1873 C39.4676,78.7213 40.0276,78.9873 40.7626,78.9873 C41.3436,78.9873 41.8256,78.7933 42.2096,78.4043 C42.5936,78.0153 42.7856,77.5223 42.7856,76.9263 C42.7856,76.6863 42.7526,76.4663 42.6856,76.2673 C42.6186,76.0663 42.5156,75.8833 42.3736,75.7153 C42.2326,75.5473 42.0496,75.3903 41.8256,75.2443 C41.6026,75.0973 41.3356,74.9573 41.0266,74.8243 L39.8346,74.3293 C38.1456,73.6153 37.2996,72.5703 37.2996,71.1963 C37.2996,70.2693 37.6546,69.4943 38.3636,68.8713 C39.0726,68.2423 39.9546,67.9283 41.0106,67.9283 C42.4346,67.9283 43.5456,68.6183 44.3456,69.9993" id="Fill-17" fill="#000000"></path>
                <polygon id="Fill-19" fill="#000000" points="12.997 84.1921 12.004 84.1921 12.004 90.0681 11.386 90.0681 11.386 84.1921 10.431 84.1921 10.431 83.6171 12.997 83.6171"></polygon>
                <path d="M16.4501,88.3664 C16.4501,88.9714 16.3381,89.4174 16.1141,89.7054 C15.8891,89.9924 15.5561,90.1364 15.1131,90.1364 C14.6501,90.1364 14.3131,90.0154 14.1051,89.7734 C13.8651,89.4954 13.7461,89.0244 13.7461,88.3594 L13.7461,83.6174 L14.3571,83.6174 L14.3571,88.3654 C14.3571,88.8194 14.4131,89.1324 14.5251,89.3034 C14.6381,89.4754 14.8331,89.5614 15.1131,89.5614 C15.3681,89.5614 15.5521,89.4584 15.6631,89.2514 C15.7751,89.0444 15.8311,88.7514 15.8311,88.3724 L15.8311,83.6174 L16.4501,83.6174 L16.4501,88.3664 Z" id="Fill-21" fill="#000000"></path>
                <polygon id="Fill-23" fill="#000000" points="19.3983 84.1921 17.9623 84.1921 17.9623 86.4081 19.3443 86.4081 19.3443 86.9831 17.9623 86.9831 17.9623 89.4931 19.3763 89.4931 19.3763 90.0681 17.3433 90.0681 17.3433 83.6171 19.3983 83.6171"></polygon>
                <path d="M22.8886,88.3743 C22.8886,88.8433 22.7456,89.2513 22.4606,89.5993 C22.1596,89.9673 21.7886,90.1513 21.3456,90.1513 C21.1066,90.1513 20.9126,90.1313 20.7656,90.0913 C20.6176,90.0513 20.4806,89.9913 20.3526,89.9113 L20.2306,89.8353 L20.2306,89.0553 L20.3066,89.1223 C20.4286,89.2263 20.5536,89.3133 20.6816,89.3823 C20.9006,89.5013 21.1016,89.5613 21.2846,89.5613 C21.5706,89.5613 21.8016,89.4673 21.9796,89.2783 C22.1586,89.0893 22.2466,88.8163 22.2466,88.4583 C22.2466,88.1663 22.1596,87.9023 21.9876,87.6663 C21.8346,87.4593 21.5956,87.2503 21.2696,87.0393 L21.1316,86.9403 C20.7656,86.7043 20.4976,86.4643 20.3296,86.2233 C20.1306,85.9363 20.0326,85.5963 20.0326,85.2033 C20.0326,84.7603 20.1636,84.3803 20.4286,84.0623 C20.7246,83.7103 21.1116,83.5343 21.5896,83.5343 C21.7526,83.5343 21.9206,83.5673 22.0946,83.6323 C22.2116,83.6783 22.3386,83.7413 22.4766,83.8213 L22.5826,83.8743 L22.5826,84.6533 L22.4306,84.5003 C22.3236,84.3933 22.2186,84.3113 22.1176,84.2543 C21.9906,84.1833 21.8766,84.1413 21.7776,84.1283 C21.6776,84.1153 21.6056,84.1093 21.5596,84.1093 C21.3106,84.1093 21.0986,84.2163 20.9256,84.4303 C20.7526,84.6453 20.6656,84.8883 20.6656,85.1603 C20.6656,85.4073 20.7326,85.6333 20.8646,85.8373 C20.9966,86.0413 21.2996,86.3023 21.7736,86.6203 L21.8656,86.6873 C22.2016,86.9103 22.4516,87.1463 22.6146,87.3983 C22.7966,87.6813 22.8886,88.0063 22.8886,88.3743" id="Fill-25" fill="#000000"></path>
                <path d="M25.8368,86.7258 L25.8368,86.2108 C25.8368,85.3598 25.7278,84.8028 25.5088,84.5398 C25.3158,84.3088 25.0048,84.1918 24.5768,84.1918 L24.3858,84.1918 L24.3858,89.4938 L24.5998,89.4938 C24.9968,89.4938 25.2918,89.3598 25.4848,89.0928 C25.6488,88.8708 25.7528,88.5308 25.7988,88.0718 C25.8238,87.8248 25.8368,87.3758 25.8368,86.7258 M26.4638,86.6808 C26.4638,87.4768 26.4268,88.0958 26.3528,88.5368 C26.2788,88.9778 26.1518,89.3008 25.9748,89.5048 C25.7958,89.7088 25.5898,89.8538 25.3558,89.9398 C25.1208,90.0248 24.8138,90.0678 24.4318,90.0678 L23.7738,90.0678 L23.7738,83.6178 L24.2788,83.6178 C24.7768,83.6178 25.0948,83.6278 25.2298,83.6478 C25.3638,83.6678 25.5138,83.7338 25.6768,83.8448 C25.9408,84.0208 26.1388,84.3198 26.2688,84.7408 C26.3988,85.1618 26.4638,85.8078 26.4638,86.6808" id="Fill-27" fill="#000000"></path>
                <path d="M29.2284,88.2078 L28.6184,84.4568 L28.0674,88.2078 L29.2284,88.2078 Z M30.2294,90.0678 L29.5484,90.0678 L29.3194,88.7368 L27.9514,88.7368 L27.7214,90.0678 L27.0514,90.0678 L28.3504,83.6178 L28.9234,83.6178 L30.2294,90.0678 Z" id="Fill-29" fill="#000000"></path>
                <polygon id="Fill-31" fill="#000000" points="33.744 83.6174 32.559 87.2244 32.559 90.0684 31.941 90.0684 31.94 87.2474 30.703 83.6174 31.365 83.6184 32.24 86.6824 33.093 83.6174"></polygon>
                <g id="Group-35" transform="translate(37.000000, 0.732000)">
                    <mask id="mask-2" fill="white">
                        <use xlink:href="#path-1"></use>
                    </mask>
                    <g id="Clip-34"></g>
                    <path d="M28.8012,92.7184 C27.4072,92.9354 26.0172,93.2134 24.6142,93.3224 C23.3792,93.4174 22.1852,93.7684 20.9962,93.7914 C19.9432,93.8804 19.8922,93.8864 19.7742,92.9424 C19.5442,91.0974 19.1292,89.2294 19.2492,87.4014 C19.3862,85.3004 19.2102,83.1764 19.5732,81.0974 C20.0302,78.4784 19.7482,75.8914 19.3752,73.3084 C19.1422,71.6944 19.4892,70.1354 19.6682,68.5654 C19.9402,66.1614 20.3202,63.7694 20.6752,61.3744 C20.7872,60.6174 20.9532,59.8744 21.7392,59.4674 C22.2312,59.2124 22.5192,59.2854 22.7022,59.8384 C23.2182,61.3934 23.5992,62.9854 23.9362,64.5824 C24.4222,66.8834 24.8462,69.1994 25.2272,71.5204 C25.5062,73.2214 25.6862,74.9394 25.8862,76.6514 C26.1062,78.5234 26.3552,80.3684 27.4112,82.0174 C27.8332,82.6764 27.9422,83.4874 27.8132,84.2964 C27.7092,84.9504 27.8172,85.5974 27.9512,86.2334 C28.3422,88.0724 28.7922,89.8964 29.3552,91.6904 C29.5342,92.2624 29.4162,92.6224 28.8012,92.7184 M50.1802,97.0274 C50.8302,96.1564 50.0162,96.2904 49.6062,96.2134 C46.4322,95.6144 43.2532,95.0454 40.0972,94.3584 C39.3452,94.1944 38.7012,93.8724 38.1242,93.4024 C37.1912,92.6414 35.9922,92.0584 36.0852,90.5554 C36.1342,89.7644 35.9422,88.9944 35.8522,88.2174 C35.6782,86.7074 35.8362,85.1514 35.2652,83.6954 C34.7332,82.3384 34.4912,80.9404 34.5362,79.4814 C34.5762,78.2074 34.3162,76.9944 33.7622,75.8324 C33.3762,75.0224 32.7972,74.3294 32.4822,73.4714 C32.0772,72.3704 32.0962,71.2224 31.9392,70.0944 C31.6442,67.9834 31.4512,65.8484 31.3872,63.7334 C31.3242,61.6614 30.9722,59.5954 31.1922,57.5044 C31.3022,56.4504 31.9522,55.3844 32.9802,55.0664 C33.5342,54.8954 34.0882,54.7144 34.6252,54.4954 C35.3822,54.1854 35.6722,53.5304 35.4322,52.7444 C35.2952,52.2944 35.1582,51.8434 34.9902,51.4054 C34.8172,50.9514 34.8792,50.5704 35.2432,50.2464 C36.3612,49.2594 36.7382,47.9124 36.9282,46.5284 C37.4702,42.5724 37.3012,38.5994 37.0462,34.6334 C36.9992,33.9034 37.0602,33.1174 36.6722,32.4614 C36.2282,31.7084 36.1742,30.8934 36.1402,30.0724 C36.0012,26.6784 35.3992,23.3434 34.9012,19.9944 C34.8232,19.4784 34.5482,19.0384 34.2002,18.6364 C33.4012,17.7144 32.2782,17.3474 31.2252,16.8594 C30.1442,16.3594 28.9782,15.9354 28.3852,14.8174 C27.9502,13.9984 27.4292,13.4184 26.5162,13.1264 C25.6342,12.8434 25.5802,12.5124 25.6932,11.5674 C25.8132,10.5574 26.4622,9.8694 26.9832,9.0954 C27.2042,8.7674 27.4312,8.4144 27.2692,8.0364 C26.7982,6.9364 27.1022,5.8364 27.2392,4.7484 C27.3502,3.8764 27.4572,3.0024 27.1852,2.1704 C26.8492,1.1464 25.9282,0.7434 24.9802,0.4904 C24.1722,0.2744 23.3152,0.0054 22.6262,0.8154 C22.5312,0.9264 22.3852,0.9514 22.2532,0.9004 C21.8562,0.7444 21.5222,0.9284 21.1552,1.0394 C20.5992,1.2084 20.2032,1.5814 19.7482,1.9034 C18.9032,2.5014 18.3722,3.3184 18.6152,4.2314 C18.9052,5.3204 18.7492,6.1674 17.8612,6.9434 C17.1542,7.5604 17.0382,8.7764 17.5352,9.3314 C18.3222,10.2084 18.4572,11.3564 18.8932,12.3774 C18.9562,12.5244 18.9472,12.6874 18.8712,12.8364 C18.5572,13.4504 18.5042,14.1234 18.4192,14.7924 C18.2952,15.7764 17.8222,16.5014 16.8892,16.9234 C15.7872,17.4224 14.6992,17.9544 13.6132,18.4884 C12.8802,18.8494 12.1002,19.2584 11.8642,20.0754 C11.3472,21.8644 10.9342,23.7084 10.9682,25.5674 C11.0272,28.8824 11.2982,32.1914 11.2062,35.5144 C11.1872,36.2184 11.0512,36.8854 10.9602,37.5644 C10.6712,39.7124 10.5582,41.8834 9.8592,43.9734 C9.4972,45.0524 9.1702,46.2244 9.7772,47.3754 C9.8282,47.4704 9.7592,47.6344 9.7342,47.7644 C9.5482,48.7344 9.3532,49.7014 9.1742,50.6724 C9.0552,51.3204 9.1582,51.9534 9.5812,52.4544 C10.0712,53.0334 10.6152,53.5684 11.3192,53.9164 C12.0582,54.2824 12.4552,54.8264 12.6292,55.7154 C12.7742,56.4584 12.7432,57.1774 12.7862,57.9034 C12.8452,58.9294 12.9012,59.9574 12.7432,60.9914 C12.6122,61.8534 12.6142,62.7364 12.5622,63.6094 C12.5382,64.0084 12.7572,64.3894 12.6002,64.8044 C12.2812,65.6554 12.2482,66.5564 12.1602,67.4494 C11.9672,69.4354 11.8182,71.4294 11.5112,73.3984 C11.2722,74.9294 11.5832,76.3834 11.8072,77.8614 C11.8202,77.9444 11.8652,78.0614 11.9282,78.0894 C12.2762,78.2434 12.2562,78.4484 12.0682,78.7224 C11.9632,78.8754 11.9922,79.0644 12.0122,79.2464 C12.4012,82.8194 12.3992,86.3764 11.9462,89.9574 C11.6992,91.9014 10.9722,93.5124 9.7772,94.9954 C9.4492,95.4004 9.0962,95.6704 8.5882,95.8014 C7.7302,96.0214 6.8632,96.1884 5.9922,96.3404 C6.0212,96.5024 6.0412,96.6664 6.0412,96.8304 L6.0412,98.6554 L6.0412,102.1024 L6.0412,103.9274 L6.0412,107.3754 L6.0412,109.1994 L6.0412,112.6474 L6.0412,114.4714 C6.0412,115.4194 5.5552,116.4584 4.9612,116.7804 C4.7612,116.8884 4.4942,117.0314 4.2092,117.1834 C4.2372,117.9744 4.2582,118.7664 4.2492,119.5614 C4.2282,121.4234 4.1132,123.2894 4.1892,125.1474 C4.3102,128.1164 3.1542,130.5094 1.1302,132.5644 C0.8872,132.8104 0.5832,133.0034 0.8072,133.4034 C1.0362,133.8134 1.3592,134.1984 1.8582,134.1054 C2.9132,133.9064 4.0032,133.8924 5.0272,133.5104 C5.6412,133.2824 6.0272,132.8474 6.0702,132.2304 C6.1862,130.5514 6.5232,128.8884 6.4832,127.2024 C6.4032,123.7654 6.8912,120.4024 7.7082,117.0774 C7.9142,116.2394 8.2502,115.4664 8.8982,114.8554 C9.6222,114.1734 10.2472,114.2974 10.5912,115.2204 C10.8102,115.8094 11.0712,116.3954 11.1822,117.0064 C11.2912,117.6024 11.7212,118.0974 11.7232,118.6774 C11.7242,119.2174 11.7122,119.7524 11.8112,120.2814 C12.3272,123.0344 12.9392,125.7704 13.1282,128.5784 C13.3222,131.4664 13.7412,134.3294 14.1512,137.1924 C14.2802,138.0974 14.5452,138.9594 15.2612,139.5814 C16.0062,140.2264 16.8012,140.8024 17.4682,141.5464 C17.9552,142.0884 18.7522,142.1234 19.1842,141.7654 C19.5772,141.4404 19.5972,140.8264 19.2382,140.1564 C18.9912,139.6944 18.6182,139.3384 18.2622,138.9644 C17.7852,138.4634 17.2532,137.9844 17.1442,137.2454 C17.0462,136.5804 16.9522,135.9134 16.8902,135.2444 C16.4992,131.0634 16.2052,126.8784 16.4402,122.1564 C16.4402,119.7784 16.4392,116.8834 16.4402,113.9874 C16.4402,113.4464 16.5212,112.9154 16.6562,112.3904 C16.7682,111.9554 17.0172,111.7824 17.4512,111.9514 C18.0042,112.1664 18.5412,112.0674 19.1022,111.9484 C20.4172,111.6704 21.7282,111.3854 23.0112,110.9774 C25.0172,110.3414 27.1252,110.0594 29.0752,109.2134 C29.6872,108.9484 30.3582,108.8064 31.0122,108.6604 C31.8162,108.4814 31.9542,108.6214 32.0352,109.4214 C32.2122,111.1684 32.0982,112.9194 32.1182,114.6684 C32.1552,117.7424 32.1362,120.8134 31.9382,123.8854 C31.8692,124.9504 31.7682,125.8994 30.6192,126.3434 C30.5402,126.3734 30.4722,126.4494 30.4152,126.5164 C30.1152,126.8704 30.0152,127.2774 30.2002,127.7064 C30.3752,128.1104 30.7522,128.0084 31.0832,127.9874 C31.3982,127.9684 31.7112,127.9474 32.0242,127.9214 C32.3722,127.8914 32.6772,127.7794 32.8862,127.4704 C33.2952,126.8684 33.6472,126.2164 33.6942,125.4974 C33.8572,122.9644 34.5252,120.4984 34.6572,117.9604 C34.6972,117.2024 34.8602,116.4474 35.0102,115.7004 C35.2682,114.4244 35.6052,113.1724 36.3672,112.0834 C36.8022,111.4624 37.2992,110.8324 38.1282,110.9124 C38.9832,110.9944 39.4222,111.7284 39.6952,112.4334 C40.4882,114.4844 41.0982,116.6004 41.3002,118.7944 C41.5142,121.1164 41.7702,123.4384 41.7572,125.7794 C41.7472,127.6184 41.7922,129.4594 41.8252,131.2984 C41.8362,131.8934 41.9692,132.4844 42.3772,132.9254 C42.9552,133.5504 43.5752,134.1394 44.2172,134.6994 C44.6522,135.0804 45.5082,135.0694 45.8402,134.7044 C46.2872,134.2134 45.9692,133.7824 45.7132,133.3094 C44.8712,131.7564 43.8842,130.2694 44.0292,128.3454 C44.1322,126.9634 44.0012,125.5644 44.0172,124.1734 C44.0692,119.6844 44.1722,115.1974 44.1892,110.7084 C44.1962,108.9774 44.3692,107.2574 44.3662,105.5284 C44.3662,105.2064 44.4282,104.8514 44.7642,104.7324 C45.5042,104.4704 46.1742,104.0364 46.9132,103.8094 C47.3962,103.6614 47.6902,103.4164 47.9242,103.0164 C48.5442,101.9584 48.7112,100.7854 48.7972,99.5934 C48.8492,98.8634 49.1102,98.2944 49.8772,98.0634 C50.2302,97.9574 50.4032,97.7314 50.2302,97.3434 C50.1872,97.2464 50.1352,97.0874 50.1802,97.0274" id="Fill-33" fill="#000000" mask="url(#mask-2)"></path>
                </g>
                <path d="M26.3207,99.7117 C26.1937,99.6897 25.9867,99.6547 25.8597,99.6327 C25.7327,99.6107 25.5257,99.5757 25.3987,99.5537 C25.2717,99.5317 25.0647,99.4967 24.9377,99.4747 C24.8107,99.4537 24.7067,99.8237 24.7067,100.2977 L24.7067,102.0227 L24.7067,103.7467 L24.7067,105.4707 C24.7067,105.9447 24.8107,106.3337 24.9377,106.3337 L25.3987,106.3337 L25.8597,106.3337 L26.3207,106.3337 C26.4477,106.3337 26.5507,105.9627 26.5507,105.5107 L26.5507,103.8647 L26.5507,102.2197 L26.5507,100.5737 C26.5507,100.1217 26.4477,99.7327 26.3207,99.7117" id="Fill-36" fill="#000000"></path>
                <path d="M16.6376,104.9221 L17.0946,104.9221 L17.5506,104.9221 L18.0066,104.9221 C18.1326,104.9221 18.2356,104.6131 18.2356,104.2361 L18.2356,102.8641 L18.2356,101.4931 L18.2356,100.1211 C18.2356,99.7441 18.1326,99.4531 18.0066,99.4761 C17.8816,99.4981 17.6766,99.5341 17.5506,99.5561 C17.4246,99.5781 17.2196,99.6141 17.0946,99.6371 C16.9686,99.6591 16.7626,99.6951 16.6376,99.7171 C16.5126,99.7391 16.4096,100.0481 16.4096,100.4031 L16.4096,101.6941 L16.4096,102.9851 L16.4096,104.2761 C16.4096,104.6311 16.5126,104.9221 16.6376,104.9221" id="Fill-38" fill="#000000"></path>
                <path d="M18.0072,106.8821 L17.5512,106.8821 L17.0942,106.8821 L16.6382,106.8821 C16.5122,106.8821 16.4102,107.3071 16.4102,107.8261 L16.4102,109.7151 L16.4102,111.6031 L16.4102,113.4921 C16.4102,114.0111 16.5122,114.4791 16.6382,114.5321 C16.7632,114.5851 16.9692,114.6711 17.0942,114.7241 C17.2202,114.7761 17.4252,114.8621 17.5512,114.9151 C17.6762,114.9681 17.8822,115.0541 18.0072,115.1071 C18.1322,115.1591 18.2362,114.7351 18.2362,114.1621 L18.2362,112.0821 L18.2362,110.0021 L18.2362,107.9221 C18.2362,107.3501 18.1322,106.8821 18.0072,106.8821" id="Fill-40" fill="#000000"></path>
                <path d="M22.4608,115.6374 C22.4608,115.6574 22.4608,115.6584 22.4608,115.6374" id="Fill-42" fill="#000000"></path>
                <path d="M34.558,102.4021 C34.418,102.3661 34.189,102.3081 34.049,102.2721 C33.909,102.2361 33.68,102.1781 33.539,102.1431 C33.399,102.1071 33.17,102.0491 33.03,102.0131 C32.89,101.9781 32.775,102.5051 32.775,103.1851 L32.775,105.6581 L32.775,108.1311 L32.775,110.6041 C32.775,111.2841 32.89,111.7961 33.03,111.7411 C33.17,111.6861 33.399,111.5961 33.539,111.5411 C33.68,111.4861 33.909,111.3971 34.049,111.3411 C34.189,111.2871 34.418,111.1971 34.558,111.1421 C34.698,111.0871 34.813,110.5601 34.813,109.9701 L34.813,107.8261 L34.813,105.6821 L34.813,103.5391 C34.813,102.9491 34.698,102.4381 34.558,102.4021" id="Fill-44" fill="#000000"></path>
                <path d="M36.7724,102.9412 L36.7724,105.4452 L36.7724,105.5162 L36.7724,108.0202 L36.7724,108.0902 L36.7724,110.5952 L36.7724,110.6652 C36.7724,111.3542 36.7564,111.9572 36.7384,112.0062 C36.7194,112.0542 36.6894,112.1342 36.6704,112.1832 C36.6524,112.2322 36.6214,112.3122 36.6034,112.3602 C36.5844,112.4092 36.5544,112.4892 36.5354,112.5372 C36.5174,112.5862 36.2514,112.7252 35.9434,112.8462 C35.6374,112.9662 35.1354,113.1642 34.8284,113.2852 C34.5214,113.4062 34.0194,113.6032 33.7124,113.7242 C33.4064,113.8452 32.9044,114.0432 32.5974,114.1632 C32.2904,114.2842 31.9714,114.3222 31.8874,114.2482 C31.8034,114.1742 31.6674,114.0532 31.5834,113.9792 C31.4994,113.9042 31.3624,113.7832 31.2784,113.7092 C31.1954,113.6352 31.0584,113.5142 30.9744,113.4402 C30.8914,113.3662 30.8224,112.7412 30.8224,112.0532 L30.8224,111.3862 L30.8224,108.8822 L30.8224,108.2152 L30.8224,105.7112 L30.8224,105.0452 L30.8224,102.5402 L30.8224,101.8742 C30.8224,101.1852 30.8914,100.5612 30.9744,100.4862 C31.0584,100.4112 31.1954,100.2892 31.2784,100.2152 C31.3624,100.1402 31.4994,100.0182 31.5834,99.9432 C31.6664,99.8692 31.8034,99.7472 31.8874,99.6722 C31.9714,99.5982 32.0394,99.5372 32.0394,99.5372 L32.0404,99.5372 C32.0404,99.5372 32.2784,99.6042 32.5694,99.6852 C32.8604,99.7672 33.3364,99.9012 33.6274,99.9832 C33.9184,100.0652 34.3954,100.1992 34.6864,100.2812 C34.9774,100.3632 35.4544,100.4972 35.7454,100.5792 C36.0364,100.6612 36.3014,100.7762 36.3354,100.8352 C36.3684,100.8942 36.4224,100.9902 36.4554,101.0492 C36.4884,101.1082 36.5434,101.2042 36.5764,101.2632 C36.6094,101.3222 36.6644,101.4192 36.6974,101.4782 C36.7304,101.5362 36.7574,101.5852 36.7574,101.5852 C36.7594,101.5872 36.7604,101.5882 36.7614,101.5892 C36.7624,101.5902 36.7664,101.5962 36.7674,101.5972 C36.7674,101.5992 36.7704,101.6042 36.7704,101.6062 C36.7714,101.6082 36.7724,101.6142 36.7724,101.6152 L36.7724,102.8712 L36.7724,102.9412 Z M30.3554,115.9982 C30.3554,116.0002 30.3524,116.0062 30.3514,116.0082 C30.3504,116.0102 30.3464,116.0152 30.3444,116.0172 C30.3434,116.0182 30.3384,116.0222 30.3364,116.0232 C30.3354,116.0242 30.3284,116.0272 30.3274,116.0272 C30.3254,116.0282 30.3184,116.0292 30.3164,116.0302 C30.3144,116.0302 30.2124,116.0672 30.0904,116.1132 C29.9684,116.1582 29.7694,116.2332 29.6474,116.2782 C29.5244,116.3242 29.3244,116.3982 29.2034,116.4442 C29.0814,116.4892 28.8804,116.5642 28.7584,116.6092 C28.6364,116.6552 28.3484,116.2482 28.1174,115.7042 C27.8874,115.1612 27.5094,114.2722 27.2794,113.7292 C27.0484,113.1862 26.6714,112.2972 26.4404,111.7542 C26.2104,111.2112 25.8334,110.3212 25.6024,109.7782 C25.3724,109.2352 25.1564,108.7912 25.1234,108.7912 L25.0044,108.7912 L24.8854,108.7912 L24.7664,108.7912 C24.7334,108.7912 24.7074,109.3152 24.7074,109.9562 L24.7074,112.2862 L24.7074,112.5702 L24.7074,112.5812 L24.7074,112.8662 L24.7074,114.3382 C24.7074,114.9792 24.7074,115.5072 24.7064,115.5092 C24.7064,115.5112 24.7054,115.5162 24.7044,115.5182 C24.7034,115.5192 24.7014,115.5242 24.7004,115.5252 C24.6994,115.5272 24.6964,115.5312 24.6954,115.5322 C24.6944,115.5342 24.6894,115.5382 24.6894,115.5392 C24.6874,115.5402 24.6834,115.5432 24.6814,115.5432 C24.6804,115.5442 24.6744,115.5462 24.6734,115.5462 C24.6714,115.5462 24.6664,115.5472 24.6644,115.5482 C24.6634,115.5482 24.5404,115.5722 24.3904,115.6022 C24.2414,115.6312 23.9974,115.6792 23.8484,115.7092 C23.6994,115.7382 23.4554,115.7872 23.3064,115.8162 C23.1574,115.8462 22.9134,115.8942 22.7644,115.9232 C22.6154,115.9532 22.4884,115.9772 22.4874,115.9772 C22.4854,115.9762 22.4804,115.9752 22.4794,115.9752 C22.4774,115.9742 22.4724,115.9722 22.4704,115.9712 C22.4694,115.9702 22.4644,115.9672 22.4634,115.9662 C22.4624,115.9652 22.4594,115.9012 22.4594,115.8282 C22.4584,115.7542 22.4584,115.4792 22.4584,115.3972 C22.4584,115.3162 22.4594,115.1382 22.4594,115.1472 C22.4594,115.1552 22.4604,115.3952 22.4604,115.5872 L22.4604,114.7122 L22.4594,113.9002 C22.4584,113.2122 22.4584,113.1292 22.4574,112.4412 L22.4564,110.0662 C22.4554,109.3782 22.4544,108.2512 22.4544,107.5622 L22.4524,105.1882 C22.4524,104.4992 22.4514,103.3722 22.4514,102.6832 L22.4494,100.3092 C22.4494,99.6202 22.4484,98.4352 22.4494,98.2612 C22.4494,98.0872 22.4504,97.6052 22.4514,97.5222 C22.4514,97.4382 22.4544,97.2272 22.4544,97.2012 C22.4554,97.1742 22.4584,97.1202 22.4594,97.1192 C22.4604,97.1182 22.4644,97.1142 22.4654,97.1132 C22.4674,97.1122 22.4724,97.1092 22.4734,97.1082 C22.4754,97.1082 22.4804,97.1062 22.4814,97.1052 C22.4834,97.1052 22.4884,97.1042 22.4904,97.1042 C22.4914,97.1042 22.7624,97.1432 23.0904,97.1912 C23.4184,97.2392 23.9564,97.3182 24.2844,97.3662 C24.6134,97.4142 25.1504,97.4932 25.4794,97.5422 C25.8074,97.5892 26.3454,97.6692 26.6734,97.7162 C27.0024,97.7652 27.2744,97.8052 27.2754,97.8062 C27.2774,97.8072 27.2824,97.8082 27.2834,97.8092 C27.2854,97.8092 27.2894,97.8112 27.2914,97.8122 C27.2924,97.8122 27.2974,97.8142 27.2984,97.8152 C27.2994,97.8152 27.3684,97.8752 27.4494,97.9482 C27.5314,98.0212 27.6654,98.1402 27.7464,98.2132 C27.8284,98.2862 27.9614,98.4052 28.0434,98.4782 C28.1254,98.5512 28.2584,98.6702 28.3404,98.7432 C28.4224,98.8162 28.4904,98.8802 28.4914,98.8812 C28.4924,98.8832 28.4944,98.8882 28.4954,98.8902 C28.4964,98.8912 28.4984,98.8972 28.4994,98.8982 C28.5004,98.8992 28.5014,98.9052 28.5024,98.9072 C28.5034,98.9082 28.5044,99.3952 28.5044,99.9872 L28.5044,102.1432 L28.5044,104.2982 L28.5044,106.4532 C28.5044,107.0462 28.5024,107.5352 28.5014,107.5372 C28.5014,107.5382 28.4994,107.5442 28.4984,107.5452 C28.4974,107.5462 28.4954,107.5512 28.4944,107.5532 C28.4944,107.5542 28.4914,107.5602 28.4914,107.5612 C28.4904,107.5632 28.4194,107.6302 28.3334,107.7102 C28.2474,107.7912 28.1064,107.9222 28.0204,108.0032 C27.9344,108.0832 27.7934,108.2142 27.7084,108.2952 C27.6224,108.3752 27.4814,108.5062 27.3954,108.5872 C27.3094,108.6672 27.4144,109.1402 27.6284,109.6382 C27.8424,110.1352 28.1934,110.9492 28.4074,111.4472 C28.6214,111.9442 28.9724,112.7592 29.1864,113.2562 C29.4004,113.7542 29.7514,114.5682 29.9654,115.0662 C30.1794,115.5642 30.3554,115.9702 30.3554,115.9702 C30.3564,115.9742 30.3564,115.9752 30.3564,115.9772 C30.3564,115.9792 30.3574,115.9862 30.3574,115.9882 C30.3574,115.9902 30.3564,115.9962 30.3554,115.9982 L30.3554,115.9982 Z M23.3344,118.3032 C22.9914,118.4372 22.4744,118.6032 22.3104,118.2792 C22.1834,118.0882 22.2814,117.7962 22.4524,117.5152 C22.5624,117.3362 22.6784,117.2222 22.8214,117.0562 C22.7634,117.2332 22.6334,117.5232 22.8684,117.7252 C23.0234,117.8332 23.2004,117.8042 23.5294,117.7322 L26.4714,116.9372 L23.3344,118.3032 Z M20.1934,100.7502 L20.1934,102.4572 L20.1934,104.1652 L20.1934,105.0182 L20.1934,105.0242 C20.1934,105.0252 20.1924,105.0302 20.1924,105.0312 C20.1914,105.0322 20.1904,105.0372 20.1894,105.0382 C20.1894,105.0392 20.1864,105.0442 20.1854,105.0452 C20.1854,105.0462 20.1454,105.0942 20.0974,105.1522 C20.0494,105.2112 19.9714,105.3062 19.9234,105.3642 C19.8754,105.4222 19.7964,105.5172 19.7494,105.5752 C19.7014,105.6332 19.6234,105.7292 19.5754,105.7872 C19.5274,105.8452 19.5274,105.9412 19.5754,106.0012 C19.6234,106.0602 19.7014,106.1572 19.7494,106.2162 C19.7964,106.2762 19.8754,106.3732 19.9224,106.4322 C19.9704,106.4922 20.0484,106.5892 20.0964,106.6482 C20.1444,106.7082 20.1854,106.7602 20.1854,106.7602 L20.1874,106.7672 C20.1884,106.7702 20.1894,106.7742 20.1904,106.7762 C20.1904,106.7772 20.1924,106.7822 20.1924,106.7832 C20.1934,106.7842 20.1934,107.3462 20.1934,108.0322 L20.1934,110.5242 L20.1934,113.0172 L20.1934,115.5092 C20.1934,116.1942 20.1254,116.8162 20.0414,116.8902 C19.9574,116.9642 19.8194,117.0852 19.7354,117.1592 C19.6514,117.2332 19.5134,117.3552 19.4294,117.4292 C19.3454,117.5032 19.2084,117.6242 19.1244,117.6982 C19.0404,117.7722 18.7194,117.7522 18.4124,117.6522 C18.1054,117.5532 17.6024,117.3912 17.2944,117.2922 C16.9874,117.1922 16.4844,117.0302 16.1774,116.9312 C15.8704,116.8322 15.3674,116.6692 15.0604,116.5702 C14.7524,116.4712 14.4974,116.3892 14.4954,116.3892 C14.4944,116.3892 14.4884,116.3882 14.4874,116.3872 C14.4854,116.3862 14.4804,116.3842 14.4794,116.3832 C14.4784,116.3822 14.4734,116.3792 14.4724,116.3792 C14.4714,116.3772 14.4674,116.3732 14.4664,116.3722 C14.4654,116.3712 14.4624,116.3662 14.4614,116.3642 C14.4604,116.3632 14.4594,116.3582 14.4584,116.3572 C14.4584,116.3552 14.4574,116.3492 14.4574,116.3482 L14.4574,115.0922 L14.4574,112.9732 L14.4574,110.4682 L14.4574,108.3492 L14.4574,105.8442 L14.4574,103.7252 L14.4574,101.2202 L14.4574,99.1012 L14.4574,97.8432 C14.4574,97.8412 14.4584,97.8362 14.4594,97.8352 C14.4604,97.8332 14.4614,97.8282 14.4624,97.8272 C14.4634,97.8252 14.4664,97.8202 14.4674,97.8192 C14.4694,97.8182 14.4734,97.8152 14.4744,97.8142 C14.4754,97.8132 14.4804,97.8102 14.4814,97.8092 C14.4834,97.8082 14.4884,97.8062 14.4894,97.8062 C14.4914,97.8052 14.4974,97.8042 14.4984,97.8042 C14.5004,97.8042 14.7524,97.7652 15.0604,97.7162 C15.3674,97.6692 15.8704,97.5892 16.1774,97.5422 C16.4844,97.4932 16.9874,97.4142 17.2944,97.3662 C17.6024,97.3182 18.1054,97.2392 18.4124,97.1912 C18.7194,97.1432 19.0404,97.1652 19.1244,97.2392 C19.2084,97.3142 19.3454,97.4362 19.4294,97.5102 C19.5134,97.5852 19.6514,97.7072 19.7354,97.7812 C19.8194,97.8562 19.9574,97.9782 20.0414,98.0532 C20.1254,98.1272 20.1934,98.5722 20.1934,99.0422 L20.1934,100.7502 Z M12.1364,115.7992 C12.1354,115.8012 12.1334,115.8082 12.1324,115.8102 C12.1314,115.8122 12.1274,115.8172 12.1264,115.8192 C12.1244,115.8202 12.1194,115.8252 12.1174,115.8272 C12.1154,115.8282 12.1094,115.8312 12.1074,115.8322 C12.1054,115.8332 12.0984,115.8342 12.0964,115.8342 C12.0944,115.8342 11.9954,115.7862 11.8764,115.7282 C11.7574,115.6692 11.5634,115.5732 11.4444,115.5142 C11.3254,115.4562 11.1314,115.3602 11.0124,115.3012 C10.8934,115.2422 10.6994,115.1472 10.5804,115.0882 C10.4614,115.0292 10.2364,114.4692 10.0804,113.8422 C9.9244,113.2162 9.6694,112.1912 9.5134,111.5652 C9.3574,110.9392 9.1024,109.9142 8.9464,109.2882 C8.7904,108.6612 8.5354,107.6362 8.3794,107.0102 C8.2234,106.3842 8.1034,106.3292 8.1124,106.8872 C8.1224,107.4462 8.1384,108.3602 8.1474,108.9192 C8.1574,109.4772 8.1724,110.3912 8.1824,110.9502 C8.1924,111.5092 8.2084,112.4232 8.2174,112.9822 C8.2274,113.5402 8.2344,114.0012 8.2344,114.0032 C8.2334,114.0042 8.2324,114.0102 8.2324,114.0112 C8.2314,114.0132 8.2294,114.0182 8.2284,114.0192 C8.2274,114.0212 8.2244,114.0252 8.2234,114.0262 C8.2224,114.0272 8.2174,114.0312 8.2164,114.0322 C8.2154,114.0332 8.2104,114.0362 8.2094,114.0372 C8.2084,114.0382 8.2024,114.0402 8.2014,114.0402 C8.1994,114.0412 8.1944,114.0422 8.1924,114.0422 C8.1904,114.0422 8.0774,113.9962 7.9394,113.9412 C7.8024,113.8842 7.5784,113.7942 7.4404,113.7372 C7.3034,113.6822 7.0794,113.5902 6.9414,113.5352 C6.8044,113.4792 6.5804,113.3882 6.4424,113.3322 C6.3054,113.2762 6.1894,113.2312 6.1874,113.2302 C6.1864,113.2302 6.1804,113.2292 6.1794,113.2282 C6.1774,113.2282 6.1724,113.2252 6.1714,113.2252 C6.1694,113.2242 6.1654,113.2202 6.1644,113.2192 C6.1634,113.2182 6.1594,113.2142 6.1584,113.2132 L6.1534,113.2062 C6.1524,113.2042 6.1504,113.1992 6.1504,113.1972 C6.1494,113.1962 6.1484,113.1912 6.1484,113.1892 L6.1484,111.9342 L6.1484,111.2812 L6.1484,108.7772 L6.1484,108.1242 L6.1484,105.6202 L6.1484,104.9672 L6.1484,102.4622 L6.1484,101.8102 C6.1484,101.1212 6.1484,100.5542 6.1494,100.5522 C6.1494,100.5502 6.1504,100.5452 6.1514,100.5442 C6.1514,100.5422 6.1534,100.5372 6.1544,100.5362 C6.1554,100.5342 6.1584,100.5302 6.1604,100.5282 C6.1614,100.5272 6.1654,100.5242 6.1664,100.5232 C6.1684,100.5222 6.1724,100.5192 6.1734,100.5182 C6.1754,100.5172 6.1804,100.5152 6.1824,100.5152 C6.1834,100.5142 6.1894,100.5132 6.1904,100.5132 C6.1924,100.5132 6.2994,100.4892 6.4294,100.4592 C6.5584,100.4292 6.7704,100.3792 6.9004,100.3502 C7.0294,100.3192 7.2414,100.2712 7.3714,100.2402 C7.5014,100.2112 7.7124,100.1622 7.8424,100.1312 C7.9724,100.1022 8.2034,100.4722 8.3564,100.9562 C8.5104,101.4392 8.7614,102.2302 8.9144,102.7132 C9.0674,103.1962 9.3184,103.9872 9.4724,104.4712 C9.6254,104.9542 9.8764,105.7452 10.0294,106.2282 C10.1834,106.7122 10.3024,106.6722 10.2934,106.1412 C10.2864,105.6102 10.2724,104.7412 10.2644,104.2102 C10.2564,103.6792 10.2434,102.8102 10.2354,102.2792 C10.2274,101.7482 10.2134,100.8782 10.2054,100.3472 C10.1974,99.8162 10.1914,99.3782 10.1914,99.3762 C10.1914,99.3752 10.1924,99.3692 10.1934,99.3682 C10.1934,99.3662 10.1954,99.3612 10.1964,99.3602 C10.1974,99.3582 10.2014,99.3542 10.2024,99.3532 C10.2034,99.3522 10.2074,99.3482 10.2084,99.3472 C10.2094,99.3462 10.2144,99.3432 10.2154,99.3422 C10.2174,99.3412 10.2224,99.3392 10.2234,99.3392 C10.2254,99.3382 10.2304,99.3372 10.2324,99.3372 C10.2334,99.3372 10.3394,99.3132 10.4664,99.2832 C10.5934,99.2532 10.8024,99.2042 10.9294,99.1732 C11.0564,99.1442 11.2654,99.0942 11.3924,99.0652 C11.5194,99.0342 11.7274,98.9852 11.8554,98.9552 C11.9824,98.9252 12.0904,98.9012 12.0924,98.9012 C12.0934,98.9012 12.0994,98.9022 12.1004,98.9032 C12.1024,98.9042 12.1074,98.9062 12.1084,98.9072 C12.1094,98.9082 12.1144,98.9112 12.1154,98.9122 C12.1164,98.9132 12.1204,98.9172 12.1214,98.9182 C12.1224,98.9202 12.1254,98.9242 12.1264,98.9262 C12.1264,98.9272 12.1284,98.9322 12.1284,98.9342 C12.1294,98.9352 12.1304,98.9412 12.1304,98.9422 L12.1304,100.1972 L12.1304,101.8992 L12.1304,104.4032 L12.1304,106.1042 L12.1304,108.6082 L12.1304,110.3092 L12.1304,112.8142 L12.1304,114.5142 L12.1304,115.7672 L12.1314,115.7682 L12.1314,115.7692 L12.1324,115.7692 L12.1324,115.7702 C12.1344,115.7732 12.1344,115.7742 12.1354,115.7762 C12.1354,115.7782 12.1374,115.7862 12.1374,115.7882 C12.1374,115.7902 12.1364,115.7972 12.1364,115.7992 L12.1364,115.7992 Z M37.9334,98.6542 C37.4374,98.4862 35.4604,97.8752 34.8524,97.6952 C34.2444,97.5152 32.2664,96.9512 31.7234,96.8002 C31.1804,96.6492 29.5164,96.1852 28.8544,95.9942 C28.8544,95.9942 28.5054,95.8942 28.2784,95.8212 C28.0514,95.7492 27.8254,95.6802 27.5994,95.6152 C27.3724,95.5502 27.1464,95.4892 26.9204,95.4342 L26.6944,95.3792 C26.4464,95.3282 26.1894,95.2762 26.1224,95.2632 L25.8984,95.2272 C25.6744,95.1912 25.3484,95.1432 24.9364,95.0942 C24.5234,95.0462 24.0264,94.9982 23.4614,94.9612 C22.8974,94.9242 22.2654,94.8282 21.5834,94.8262 L21.5524,94.8262 L21.5214,94.8262 C21.5114,94.8252 21.5014,94.8252 21.4904,94.8252 L21.4604,94.8252 L21.4304,94.8252 C21.4194,94.8252 21.4094,94.8252 21.3994,94.8262 L21.3684,94.8262 L21.3374,94.8262 C20.6564,94.8282 20.0234,94.9242 19.4594,94.9612 C18.8944,94.9982 18.3974,95.0462 17.9844,95.0942 C17.5724,95.1432 17.2464,95.1912 17.0224,95.2272 C16.7984,95.2632 16.6774,95.2872 16.6774,95.2872 L16.4524,95.3302 C16.2064,95.3912 15.8044,95.4962 15.5584,95.5642 L15.3344,95.6322 C15.1094,95.7002 13.5424,96.1572 12.8634,96.3412 C12.1854,96.5252 11.4174,96.7392 11.4174,96.7392 C10.7534,96.9242 9.6684,97.2302 9.0064,97.4202 C9.0064,97.4202 8.0384,97.6962 6.9644,98.0232 C5.8894,98.3492 4.8764,98.6732 4.0854,98.9592 L4.0854,101.5362 L4.0854,104.0412 L4.0854,105.3662 L4.0854,107.8712 L4.0854,109.1962 L4.0854,111.7012 L4.0854,113.0262 C4.0854,113.7152 4.2384,114.3562 4.4244,114.4502 C4.6114,114.5442 6.3724,115.3822 6.9954,115.6742 L9.0844,116.6092 C9.7134,116.8892 10.7494,117.3332 11.3854,117.5962 C11.3854,117.5962 13.9224,118.6452 15.8674,119.3182 C17.8134,119.9912 19.7504,120.5552 21.4604,120.8632 C23.1944,120.5462 25.1474,119.9772 27.1014,119.3002 C29.0554,118.6232 31.0104,117.8402 32.7484,117.0962 C34.4874,116.3522 35.9614,115.6612 35.9614,115.6612 C36.5854,115.3692 37.4874,114.9382 37.9654,114.7042 C38.4434,114.4702 38.8354,113.7152 38.8354,113.0262 L38.8354,111.7012 L38.8354,109.1962 L38.8354,107.8712 L38.8354,105.3662 L38.8354,104.0412 L38.8354,101.5362 L38.8354,100.2112 C38.8354,99.5222 38.4294,98.8212 37.9334,98.6542 L37.9334,98.6542 Z" id="Fill-46" fill="#000000"></path>
                <path d="M2.9833,115.0022 C3.3563,115.1902 5.0893,116.0422 5.7433,116.3572 L8.0333,117.4162 C8.7253,117.7322 9.8563,118.2332 10.5533,118.5302 C10.5813,118.5422 13.3563,119.7242 15.4573,120.4752 C17.7633,121.2982 19.7823,121.8772 21.4603,122.1942 C23.1603,121.8682 25.1973,121.2822 27.5163,120.4542 C29.4063,119.7792 31.4853,118.9412 33.6973,117.9652 C35.5793,117.1342 37.2013,116.3512 37.2173,116.3432 C37.9003,116.0122 38.8893,115.5252 39.4143,115.2602 C39.7523,115.0892 40.1293,114.4062 40.1293,113.7472 L40.1293,99.2042 C40.1293,98.5682 39.7613,97.9652 39.4313,97.8502 C38.9023,97.6662 36.7583,96.9812 36.0593,96.7682 C35.3813,96.5612 33.2003,95.9192 32.6253,95.7542 C32.0273,95.5822 30.1953,95.0552 29.4663,94.8382 C29.4663,94.8382 29.0753,94.7222 28.8213,94.6382 C28.5763,94.5582 28.3313,94.4812 28.0873,94.4082 C27.8433,94.3362 27.6003,94.2692 27.3583,94.2082 L27.1093,94.1462 C26.8543,94.0922 26.5713,94.0332 26.4993,94.0182 L26.2693,93.9802 C26.0503,93.9432 25.6913,93.8882 25.2303,93.8322 C24.7123,93.7702 24.1743,93.7192 23.6323,93.6832 C23.4123,93.6682 23.1823,93.6452 22.9443,93.6212 C22.5113,93.5782 22.0623,93.5322 21.5943,93.5322 C21.5923,93.5322 21.5573,93.5312 21.5553,93.5312 L21.4943,93.5302 L21.4473,93.5302 L21.4003,93.5302 C21.3993,93.5302 21.3473,93.5312 21.3463,93.5312 C20.8583,93.5322 20.4103,93.5782 19.9763,93.6212 C19.7383,93.6452 19.5083,93.6682 19.2883,93.6832 C18.7463,93.7192 18.2083,93.7702 17.6913,93.8322 C17.2293,93.8882 16.8713,93.9432 16.6513,93.9802 C16.4203,94.0182 16.2933,94.0442 16.2883,94.0452 L16.0373,94.0942 C15.7943,94.1572 15.3573,94.2762 15.0903,94.3522 L14.8543,94.4262 C14.6283,94.4962 12.8843,95.0212 12.1243,95.2342 C11.3793,95.4422 10.5363,95.6852 10.5363,95.6852 C9.8073,95.8942 8.6163,96.2412 7.8883,96.4562 C7.8883,96.4562 6.8263,96.7702 5.6503,97.1392 C4.5033,97.4982 3.5433,97.8172 2.7913,98.0882 L2.7913,113.7472 C2.7913,114.3942 2.9103,114.8622 2.9833,115.0022 M21.4603,123.0782 C21.4333,123.0782 21.4063,123.0762 21.3803,123.0702 C19.6413,122.7482 17.5493,122.1522 15.1633,121.2992 C13.0363,120.5402 10.2373,119.3472 10.2093,119.3352 C9.5063,119.0362 8.3663,118.5312 7.6673,118.2112 L5.3693,117.1492 C4.7033,116.8282 2.7483,115.8682 2.5243,115.7512 C1.9593,115.4572 1.9153,114.1432 1.9153,113.7472 L1.9153,97.7822 C1.9153,97.6002 2.0293,97.4362 2.2003,97.3722 C3.0033,97.0742 4.0753,96.7142 5.3873,96.3032 C6.5723,95.9312 7.6413,95.6162 7.6413,95.6162 C8.3703,95.4012 9.5643,95.0532 10.2953,94.8432 C10.2953,94.8432 11.1403,94.6002 11.8883,94.3912 C12.6423,94.1802 14.3703,93.6592 14.5933,93.5892 L14.8393,93.5132 C15.1233,93.4322 15.5703,93.3112 15.8443,93.2402 L16.1163,93.1862 C16.1163,93.1862 16.2543,93.1582 16.5083,93.1162 C16.7353,93.0782 17.1083,93.0212 17.5863,92.9622 C18.1183,92.8982 18.6713,92.8472 19.2303,92.8092 C19.4413,92.7952 19.6603,92.7732 19.8883,92.7502 C20.3223,92.7062 20.8143,92.6572 21.3253,92.6562 L21.3673,92.6552 C21.3693,92.6552 21.4243,92.6542 21.4273,92.6542 C21.4283,92.6542 21.4833,92.6562 21.4803,92.6542 L21.5343,92.6552 L21.5813,92.6552 C22.1073,92.6572 22.5983,92.7062 23.0323,92.7502 C23.2603,92.7732 23.4803,92.7952 23.6913,92.8092 C24.2493,92.8472 24.8023,92.8982 25.3353,92.9622 C25.8133,93.0212 26.1853,93.0782 26.4133,93.1162 L26.6593,93.1572 C26.7483,93.1752 27.0323,93.2342 27.3073,93.2932 L27.5713,93.3592 C27.8263,93.4232 28.0803,93.4932 28.3353,93.5692 C28.5883,93.6432 28.8413,93.7232 29.0953,93.8072 C29.3393,93.8872 29.7163,93.9992 29.7163,93.9992 C30.4423,94.2152 32.2713,94.7412 32.8673,94.9122 C33.4443,95.0782 35.6343,95.7222 36.3153,95.9302 C36.9493,96.1242 39.1513,96.8252 39.7203,97.0232 C40.4413,97.2752 41.0053,98.2322 41.0053,99.2042 L41.0053,113.7472 C41.0053,114.6952 40.4803,115.7032 39.8083,116.0422 C39.2813,116.3082 38.2863,116.7982 37.5983,117.1312 C37.5823,117.1392 35.9473,117.9282 34.0503,118.7662 C31.8203,119.7512 29.7203,120.5962 27.8113,121.2792 C25.4123,122.1362 23.3023,122.7382 21.5413,123.0702 C21.5143,123.0762 21.4873,123.0782 21.4603,123.0782" id="Fill-48" fill="#000000"></path>
            </g>
        </g>
    </g>
</svg>