<?xml version="1.0" encoding="UTF-8"?>
<svg width="128px" height="128px" viewBox="0 0 128 128" version="1.1" xmlns="http://www.w3.org/2000/svg" xmlns:xlink="http://www.w3.org/1999/xlink">
    <!-- Generator: Sketch 48.1 (47250) - http://www.bohemiancoding.com/sketch -->
    <title>sticker_daf_black</title>
    <desc>Created with Sketch.</desc>
    <defs>
        <polygon id="path-1" points="0 0.473536946 127.841734 0.473536946 127.841734 127.999817 0 127.999817"></polygon>
    </defs>
    <g id="stickers-white" stroke="none" stroke-width="1" fill="none" fill-rule="evenodd" transform="translate(-26.000000, -161.000000)">
        <g id="sticker_daf_black" transform="translate(26.000000, 161.000000)">
            <path d="M108.786054,64.871124 C108.786054,64.871124 108.778455,64.5940019 108.763889,64.0588258 C108.737924,63.523014 108.756289,62.7253346 108.654961,61.6918472 C108.516902,59.625508 108.175553,56.5797074 107.130607,52.8480933 C106.094528,49.1272843 104.360551,44.6926954 101.386573,40.1932751 C98.436026,35.7021176 94.2613097,31.1296031 88.7560293,27.4475659 C86.0037058,25.6163991 82.9353654,24.013413 79.6048385,22.7549228 C76.2768449,21.4900766 72.6689325,20.6402779 68.9159944,20.206798 C65.1687559,19.766962 61.2429267,19.8623022 57.3227972,20.4171819 C55.3652657,20.7305333 53.3938015,21.11825 51.4565356,21.7074522 C50.4768199,21.964235 49.5249694,22.3258921 48.5566531,22.6487774 L47.1285607,23.21192 C46.648519,23.393702 46.1760769,23.5964587 45.7106011,23.8182835 C38.1844591,27.1666302 31.3701468,32.8247513 26.6115276,40.070604 C21.8193434,47.2891259 19.1753142,56.0674129 19.2139456,64.871124 C19.2152122,73.6754707 21.898506,82.4289692 26.7096891,89.6055414 C31.4885739,96.8113513 38.3035196,102.414175 45.8049628,105.711038 C46.269172,105.929049 46.7397142,106.128628 47.217856,106.307232 L48.6402487,106.860841 C49.6053985,107.178005 50.5534492,107.532671 51.5280985,107.784369 C53.4571316,108.360859 55.4184629,108.737771 57.3639617,109.040317 C58.3417776,109.157903 59.3138937,109.305362 60.2803101,109.354304 C60.7654182,109.386084 61.2422934,109.435661 61.7293014,109.453457 C62.2182093,109.464263 62.7064839,109.475704 63.1922253,109.486509 C64.1447091,109.526552 65.1085924,109.452186 66.0566431,109.440745 C67.0034272,109.361931 67.9483114,109.319346 68.8779963,109.19731 C72.6005361,108.749211 76.1748836,107.89115 79.4680457,106.621855 C82.7637409,105.359551 85.7966166,103.7572 88.5134753,101.932389 C93.9490926,98.2598862 98.0585789,93.7172451 100.955295,89.2654948 C103.87481,84.8042106 105.566355,80.4160205 106.572036,76.7403392 C107.586583,73.0563952 107.910833,70.0366543 108.03686,68.0173495 C108.131855,67.0130998 108.11159,66.1995303 108.134388,65.6681678 C108.146421,65.1317205 108.152754,64.855234 108.152754,64.855234 L108.786054,64.871124 Z M109.419355,64.887014 C109.419355,64.887014 109.411122,65.1641361 109.396556,65.6999478 C109.371224,66.2395732 109.38959,67.0213626 109.287628,68.0847232 C109.145769,70.2000038 108.80062,73.2744064 107.741109,77.0638602 C106.68983,80.8367884 104.931788,85.3349375 101.916012,89.8979179 C98.9243006,94.4519999 94.6913207,99.0887101 89.1081444,102.823502 C86.3178228,104.680093 83.2051513,106.305961 79.8277603,107.582248 C76.4522691,108.865526 72.7930594,109.727402 68.986924,110.167873 C68.0363401,110.287366 67.070557,110.328045 66.1035073,110.403046 C65.1307579,110.410673 64.161175,110.48186 63.1687932,110.436732 C62.6824185,110.423385 62.1947772,110.409402 61.705236,110.39669 C61.2150615,110.377622 60.7141209,110.324867 60.2176134,110.289909 C59.2163654,110.23334 58.2290501,110.079525 57.2309687,109.954311 C55.2462052,109.637146 53.2468758,109.243074 51.2817447,108.646244 C50.2880964,108.384376 49.3223132,108.018906 48.3400643,107.690936 C47.8581227,107.500891 47.3755478,107.310846 46.8917063,107.120166 C46.4046983,106.935841 45.9259232,106.729271 45.4541144,106.50554 C37.8203114,103.108887 30.911004,97.3719515 26.0839883,90.0231314 C24.8667849,88.194507 23.8117065,86.2540167 22.8579561,84.260136 C21.9105387,82.2605349 21.1474117,80.1725853 20.4919458,78.0509487 C19.8453461,75.9242274 19.3963361,73.7377596 19.0556205,71.5366729 C18.7364371,69.3305014 18.6040773,67.1008127 18.5806452,64.871124 C18.6135768,62.6528761 18.7560694,60.4117466 19.0847523,58.2100243 C19.4356007,56.0121156 19.8934769,53.830097 20.5489428,51.7084605 C21.2132749,49.5925444 21.9840015,47.5115863 22.9383852,45.5208836 C23.8984686,43.5352657 24.9605134,41.6030383 26.1821499,39.7845835 C31.0294312,32.4764419 37.9393718,26.7954391 45.5484762,23.4502705 C46.0190184,23.2290813 46.4958936,23.0269601 46.9810017,22.8458138 C47.4629433,22.6576759 47.9442516,22.4708091 48.4242933,22.2839424 C49.4027424,21.9623282 50.3647257,21.602578 51.3533076,21.3470664 C53.3095726,20.7629489 55.2987691,20.3803171 57.2727665,20.0733217 C61.2359604,19.5317896 65.1630562,19.4542462 68.948926,19.9137858 C72.724663,20.3669694 76.3503078,21.2390142 79.6909674,22.5254708 C83.0335269,23.8062071 86.1101003,25.4308035 88.8662236,27.2823096 C94.3791036,31.0062965 98.5468535,35.6131334 101.484734,40.1284437 C104.445413,44.6526525 106.162291,49.1037671 107.182538,52.8334745 C108.212284,56.573987 108.540334,59.6229656 108.669527,61.690576 C108.765789,62.7253346 108.744257,63.523014 108.767055,64.0588258 C108.779721,64.5940019 108.786054,64.871124 108.786054,64.871124 L109.419355,64.887014 Z" id="Fill-1" fill="#000000"></path>
            <polygon id="Fill-3" fill="#000000" points="16.2912956 92.9032258 15.7553031 91.9342588 18.4320447 86.629778 13.9940007 88.7460642 13.4193548 87.7064745 19.8383809 84.6451613 20.3221914 85.5213612 17.5687875 90.9802543 22.1356758 88.8023229 22.7096774 89.8425111"></polygon>
            <path d="M14.8274984,75.7941323 C14.7403088,75.3634207 14.5973654,75.0428605 14.3992612,74.8337709 C14.201157,74.6246812 13.9538233,74.5567435 13.6578533,74.6312771 L13.6394664,74.6358942 C13.3618833,74.7058106 13.1714897,74.8806017 13.0700651,75.1622461 C12.9680474,75.4425714 12.9674543,75.8337076 13.0688789,76.3316972 L13.4751704,78.334209 L15.2521769,77.8883269 L14.8274984,75.7941323 Z M12.1625819,76.8521128 C12.0795442,76.441189 11.9401595,76.1311822 11.7450209,75.9207733 C11.5504755,75.7116837 11.3049212,75.643746 11.0083581,75.7182795 L10.9899711,75.7228967 C10.7307749,75.7875364 10.5504645,75.9451781 10.4490399,76.1978007 C10.3482085,76.4497636 10.3387184,76.7808772 10.4217561,77.1911415 L10.7900876,79.0069897 L12.5119333,78.574959 L12.1625819,76.8521128 Z M10.0356309,80.516129 L9.38141257,77.2894202 C9.21355782,76.4609766 9.27761547,75.7855576 9.57417862,75.2644824 C9.7989735,74.8713674 10.1240067,74.6200641 10.5498714,74.5132107 L10.5682583,74.5085935 C10.7657694,74.4591244 10.9466729,74.4439538 11.1085964,74.4630819 C11.2722993,74.4841888 11.4199877,74.5250833 11.552848,74.5884038 C11.6857083,74.6523839 11.8078923,74.7361517 11.9199932,74.8410263 C12.0320941,74.9445818 12.1317393,75.053414 12.219522,75.1668632 C12.2450264,74.9386455 12.2841728,74.7262579 12.3387404,74.53036 C12.3927149,74.3331429 12.468635,74.1570327 12.5665009,73.9993909 C12.6643667,73.8424088 12.7895164,73.7085122 12.9419498,73.5983609 C13.0955696,73.4888691 13.2829975,73.4057609 13.5048267,73.3503555 L13.5232136,73.3450788 C13.8138455,73.2731836 14.0825318,73.2718644 14.3304586,73.3424404 C14.5783854,73.413676 14.7996215,73.546913 14.9953532,73.7434704 C15.1904917,73.9387088 15.3601258,74.1906717 15.5042555,74.5006785 C15.6483852,74.8106852 15.7604861,75.1642249 15.8405582,75.5612974 L16.516129,78.890902 L10.0356309,80.516129 Z" id="Fill-5" fill="#000000"></path>
            <path d="M11.8415121,63.8611634 C11.8516474,63.4009818 11.7521952,63.0320544 11.5444224,62.7556847 C11.3366495,62.4786632 11.049695,62.3359157 10.6835588,62.3274421 L10.6626548,62.3267903 C10.276248,62.3189685 9.9797917,62.444117 9.77455269,62.7048431 C9.56868024,62.9655692 9.4597262,63.3351485 9.4502244,63.8174917 L9.40968336,65.6895051 L11.8016046,65.7442576 L11.8415121,63.8611634 Z M8.25806452,66.9357758 L8.32774442,63.682566 C8.33724623,63.2230362 8.4088265,62.818259 8.54121832,62.4662787 C8.67361015,62.1149503 8.85414446,61.8242407 9.08218779,61.5928463 C9.28172571,61.4025163 9.51166941,61.2578133 9.77011852,61.1593892 C10.0298345,61.0616169 10.3142553,61.0159898 10.625281,61.0231598 L10.6449181,61.0231598 C10.9356733,61.0290261 11.1960228,61.0785641 11.4278669,61.1704701 C11.6590775,61.2636796 11.8624161,61.3875245 12.0378828,61.544612 C12.2139829,61.7016995 12.3615776,61.8874668 12.4825673,62.1025658 C12.6029235,62.3176649 12.6941408,62.5542738 12.7562193,62.8130445 L15.483871,60.9032258 L15.4515648,62.4147853 L12.9399209,64.1577393 L12.9392874,64.1785974 L12.9057144,65.7683747 L15.3780842,65.8244308 L15.3514791,67.0967742 L8.25806452,66.9357758 Z" id="Fill-7" fill="#000000"></path>
            <path d="M16.3191741,50.7277055 C16.4129978,50.4004435 16.4372304,50.0824087 16.3918719,49.7742164 C16.3458921,49.4660241 16.2446122,49.1848986 16.0874109,48.9289944 C15.9302096,48.6743205 15.7233004,48.4516347 15.4685473,48.2603217 C15.2131729,48.0696239 14.923003,47.9281384 14.5980375,47.8364804 L14.5787756,47.830944 C14.2538101,47.7399012 13.9307087,47.7079131 13.6088499,47.7362102 C13.2869912,47.763277 12.9912291,47.8463228 12.7203209,47.9841174 C12.4500341,48.1225271 12.2114361,48.3107643 12.0045269,48.5512897 C11.7969964,48.7924301 11.6460086,49.074786 11.5528062,49.402048 C11.4583612,49.7293101 11.4341286,50.0467297 11.4794871,50.354922 C11.5248455,50.6637295 11.6267468,50.9454702 11.783948,51.200144 C11.9417707,51.4560482 12.1480585,51.6781189 12.4028116,51.8688168 C12.658186,52.0601297 12.948356,52.2016152 13.2733215,52.2932732 L13.2925833,52.2988096 C13.6175488,52.3898524 13.9406503,52.4224556 14.2618877,52.3935434 C14.5843678,52.3658614 14.8807512,52.2834307 15.151038,52.1456362 C15.4213248,52.0078416 15.6599228,51.8177589 15.8674534,51.5778488 C16.0743626,51.3373234 16.224729,51.0537373 16.3191741,50.7277055 M17.3941078,51.0506615 C17.246848,51.5618548 17.0212984,52.0035355 16.7180801,52.3750887 C16.4142405,52.7460268 16.0631783,53.0394554 15.6630296,53.2541442 C15.2641235,53.4688331 14.8310433,53.6029367 14.3644103,53.6552248 C13.8983985,53.7075129 13.4292801,53.6675279 12.9570549,53.5340394 L12.9384144,53.5291182 C12.4661892,53.3962449 12.0467787,53.1852469 11.6783187,52.8967396 C11.3098588,52.6088474 11.0122326,52.2655913 10.7860616,51.8675864 C10.5586479,51.4689665 10.414495,51.0322069 10.3511174,50.557923 C10.2877398,50.0824087 10.3299915,49.589055 10.4772512,49.0778617 C10.6245109,48.5672837 10.8500606,48.126218 11.1532789,47.7540497 C11.4564971,47.3831117 11.8081807,47.0890679 12.207708,46.8749942 C12.6072354,46.6603054 13.0403156,46.5268169 13.5069487,46.4739136 C13.9735818,46.4216255 14.4420789,46.4609954 14.9136827,46.595099 L14.9329445,46.6000203 C15.4051697,46.7335087 15.8252016,46.9445067 16.1930402,47.2317837 C16.5615002,47.5202911 16.8591263,47.8641623 17.0859187,48.2621671 C17.3120897,48.660172 17.4574853,49.0975467 17.5202416,49.5718306 C17.5829978,50.0473449 17.5407461,50.5394683 17.3941078,51.0506615" id="Fill-9" fill="#000000"></path>
            <path d="M24.2710301,31.3892341 C24.5575381,31.039095 24.7036382,30.6908939 24.7093304,30.3446309 C24.7150227,29.9977219 24.5771446,29.7050779 24.2963288,29.464761 L24.2811496,29.4518408 C23.9845221,29.1979576 23.6771427,29.1075158 23.3590112,29.1779312 C23.0408798,29.2489927 22.731603,29.4660531 22.4318131,29.8323425 L21.2668071,31.2561554 L23.0990669,32.8214451 L24.2710301,31.3892341 Z M19.6129032,31.4867821 L21.6380658,29.0138439 C21.9245738,28.6649968 22.2256286,28.3969014 22.5418626,28.2082655 C22.8580966,28.0209217 23.1755955,27.9098075 23.4937269,27.8768608 C23.7644232,27.8561884 24.0306923,27.8897811 24.292534,27.9795769 C24.5537433,28.0680807 24.8035682,28.2140797 25.0413761,28.4169278 L25.0571878,28.4311401 C25.2804491,28.6210679 25.4531128,28.8245621 25.577709,29.0429145 C25.7023052,29.2625589 25.785791,29.4880175 25.8269014,29.7212282 C25.8699092,29.955085 25.8724391,30.1934638 25.8363884,30.4357187 C25.7997053,30.6792657 25.7276039,30.9202286 25.6194519,31.1605454 L28.9032258,31.4183047 L27.9621134,32.568208 L24.9477709,32.3182009 L24.9351215,32.3349973 L23.9453091,33.5436878 L25.8389183,35.1613046 L25.0477008,36.1290323 L19.6129032,31.4867821 Z" id="Fill-11" fill="#000000"></path>
            <path d="M35.7694773,25.1262801 C35.3873679,25.3951873 35.0020038,25.5853746 34.6140359,25.696842 C34.225417,25.8083094 33.8420057,25.8347593 33.4631511,25.7761917 C33.0849474,25.7182538 32.7191119,25.5759282 32.3669463,25.3460661 C32.0141299,25.1168337 31.6827948,24.7956565 31.3722903,24.3825345 L28.9032258,21.0989697 L29.9310805,20.3753764 L32.3688992,23.6180067 C32.7698862,24.1514128 33.2060247,24.4625139 33.6799184,24.5531992 C34.1538121,24.642625 34.6251021,24.5236005 35.0937882,24.1936067 C35.5572667,23.8680212 35.8209026,23.4788299 35.8866488,23.0247735 C35.9510932,22.5726064 35.7857511,22.0826537 35.3899718,21.5555452 L32.9209073,18.2713507 L33.948762,17.5483871 L36.3807221,20.7840901 C36.699689,21.2066586 36.9190602,21.6222997 37.0388355,22.0272349 C37.1592618,22.4327998 37.1911585,22.8201018 37.1332237,23.1885109 C37.0752889,23.5575498 36.9301264,23.9045472 36.6983871,24.229503 C36.4659969,24.5550885 36.1567943,24.8535944 35.7694773,25.1262801" id="Fill-13" fill="#000000"></path>
            <polygon id="Fill-15" fill="#000000" points="41.2903226 13.7202518 42.3521185 13.2793101 47.6184759 16.6162559 45.8471445 11.8276557 46.9860366 11.3548387 49.5483871 18.2797482 48.5881325 18.6788536 43.1688364 15.2462819 44.9915652 20.1723443 43.8526731 20.6451613"></polygon>
            <polygon id="Fill-17" fill="#000000" points="54.7096774 10.0456539 55.9002671 9.90402929 60.3993665 14.629571 59.8149311 9.44138885 61.0904219 9.29032258 61.9354839 16.7937302 60.8613864 16.9205179 56.2299992 12.0594212 56.8315464 17.3979952 55.5553975 17.5483871"></polygon>
            <polygon id="Fill-19" fill="#000000" points="68.8555381 9.29032258 70.1935484 9.4082559 69.4677312 16.516129 68.1290323 16.3981957"></polygon>
            <polygon id="Fill-21" fill="#000000" points="77.5416024 10.3225806 78.6734514 10.6539227 80.8875985 16.226053 82.3982519 11.7414045 83.6129032 12.095807 81.4267916 18.5806452 80.4038243 18.2820732 78.1251305 12.5491267 76.5701421 17.1624282 75.3548387 16.8086325"></polygon>
            <path d="M90.4928722,23.0744075 C90.0402232,22.788956 89.6757764,22.4546049 89.4013695,22.0695204 C89.1269625,21.6856584 88.9419828,21.2767354 88.8482679,20.8451963 C88.754553,20.4118235 88.7496529,19.9698932 88.83418,19.5187943 C88.9180946,19.0658616 89.0951117,18.62821 89.362781,18.2027834 L89.3731937,18.186891 C89.6273877,17.7846917 89.9434458,17.4466731 90.3207554,17.1758915 C90.698065,16.9038874 91.1060004,16.7156239 91.5457866,16.6104897 C91.9849602,16.5047443 92.4388343,16.4882407 92.9074087,16.5591451 C93.3759832,16.6300496 93.8286322,16.8030319 94.2653558,17.0762585 C94.5195498,17.237016 94.7400554,17.4008297 94.9238101,17.5664772 C95.1087898,17.7327359 95.2686564,17.9038845 95.4040223,18.0817569 C95.5387758,18.259018 95.6551537,18.4454477 95.7519312,18.6410462 C95.8480961,18.8366447 95.9313983,19.044468 96,19.2657388 L94.8680712,19.6288184 C94.8166199,19.4650047 94.7572058,19.3085259 94.6904416,19.1587709 C94.6218399,19.0084045 94.5416004,18.8665957 94.4478855,18.7345667 C94.3541706,18.6025378 94.2402427,18.473565 94.1067143,18.3476485 C93.9744109,18.221732 93.8163819,18.1007055 93.6344648,17.9870139 C93.3680205,17.8195327 93.0862633,17.7192885 92.7873557,17.6862812 C92.4884481,17.6520515 92.1956656,17.6752788 91.9102333,17.7547407 C91.6254136,17.8335913 91.3546817,17.967454 91.1011002,18.154495 C90.8475188,18.3433698 90.6331383,18.575643 90.4585714,18.8519258 L90.4487711,18.8678182 C90.2601163,19.166717 90.1327131,19.4723396 90.0665614,19.7859084 C89.9991847,20.0994772 89.9955096,20.4020436 90.0536986,20.6929963 C90.1125001,20.9845602 90.2282655,21.258398 90.4022199,21.5138985 C90.5761744,21.769399 90.8119929,21.9918923 91.1096755,22.178322 C91.3853075,22.3519157 91.6682897,22.4735535 91.9592346,22.5444579 C92.249567,22.6141399 92.525199,22.6385897 92.7855181,22.6159736 L93.4733732,21.5261234 L91.9886353,20.592752 L92.5478621,19.707669 L95.0193625,21.2602318 L93.4837859,23.6942101 C93.2632803,23.7241611 93.0317494,23.741276 92.7879682,23.7418872 C92.544187,23.7431097 92.2948931,23.7211049 92.0406992,23.6770952 C91.7871177,23.6330856 91.5286361,23.5615699 91.267092,23.4625482 C91.0055478,23.3635264 90.7470662,23.2339425 90.4928722,23.0744075" id="Fill-23" fill="#000000"></path>
            <path d="M104.576981,33.4491261 C104.447864,33.2807059 104.358582,33.0979082 104.308446,32.9021025 C104.258998,32.7049275 104.245949,32.5084372 104.269299,32.3112622 C104.29265,32.1134026 104.354461,31.9258125 104.452672,31.7491766 C104.552256,31.5725407 104.685493,31.4184977 104.854443,31.2904709 L104.8723,31.2767782 C105.040563,31.1480668 105.224622,31.0597488 105.423791,31.0131936 C105.622959,30.9659538 105.820755,30.9556842 106.016489,30.9817004 C106.21085,31.0070319 106.39697,31.0693337 106.575535,31.1686058 C106.752727,31.2665087 106.906567,31.4006972 107.035683,31.5684329 C107.165486,31.7361685 107.254082,31.9189662 107.304905,32.1154565 C107.353667,32.3119468 107.366716,32.5098065 107.344052,32.7062968 C107.320014,32.9034718 107.259577,33.0924311 107.163426,33.2724902 C107.066589,33.4525493 106.933352,33.6072769 106.765089,33.7359884 L106.747919,33.7496811 C106.578969,33.8783925 106.395597,33.9673951 106.198488,34.0166889 C106.002067,34.0666672 105.804272,34.0776214 105.607163,34.0488667 C105.409368,34.0207967 105.220501,33.9550717 105.04125,33.8537456 C104.861311,33.751735 104.706097,33.6168618 104.576981,33.4491261" id="Fill-25" fill="#000000"></path>
            <path d="M30.5512686,110.133776 C30.3820612,110.005529 30.2477914,109.852593 30.1477741,109.675653 C30.0477568,109.498713 29.982677,109.312858 29.9518498,109.116029 C29.9230777,108.919201 29.9319833,108.721687 29.9806219,108.524858 C30.0285754,108.326658 30.1162618,108.143546 30.2443662,107.974836 L30.2580672,107.957005 C30.3854865,107.788295 30.5389377,107.654561 30.7184208,107.55649 C30.8979039,107.459104 31.0849226,107.396009 31.2794768,107.369263 C31.474031,107.342516 31.6692703,107.352803 31.8665647,107.401496 C32.0638591,107.449503 32.2467675,107.536601 32.4159748,107.664848 C32.5844972,107.793781 32.719452,107.946717 32.8194693,108.1216 C32.9201717,108.29854 32.9852514,108.486453 33.0147086,108.683281 C33.0441658,108.88011 33.0366302,109.07831 32.9914169,109.277881 C32.9462036,109.477453 32.8592022,109.662623 32.7317829,109.831333 L32.718767,109.848478 C32.5906626,110.017188 32.4378965,110.150922 32.2618386,110.251736 C32.0850957,110.351865 31.898077,110.41496 31.7007826,110.438963 C31.5034882,110.464339 31.3048237,110.451308 31.104789,110.40193 C30.9047544,110.350494 30.720476,110.261338 30.5512686,110.133776" id="Fill-27" fill="#000000"></path>
            <path d="M46.7369703,120.611315 C46.2442068,120.45341 45.798572,120.215308 45.4000659,119.897633 C45.0015598,119.578092 44.6633068,119.177112 44.3870968,118.692827 L45.3087913,118.072396 C45.5366795,118.449753 45.7872372,118.765563 46.0592713,119.016098 C46.3313054,119.266011 46.6689618,119.455622 47.0704507,119.584309 C47.4170556,119.695588 47.714742,119.706778 47.9629135,119.620366 C48.2116815,119.533331 48.3733509,119.362992 48.4485182,119.109349 L48.4538873,119.091321 C48.4896813,118.970716 48.501016,118.858193 48.4884881,118.753751 C48.4759603,118.648067 48.428235,118.538652 48.3459089,118.421156 C48.2635828,118.304281 48.139497,118.181811 47.9742482,118.053124 C47.8089994,117.923194 47.5870769,117.775857 47.3090771,117.60987 C46.991704,117.419016 46.7160905,117.227541 46.4816401,117.03793 C46.2471896,116.848319 46.0622541,116.650627 45.9262371,116.444231 C45.79022,116.237835 45.7067008,116.012167 45.6756794,115.765362 C45.6446579,115.519179 45.6744862,115.244399 45.7639711,114.941022 L45.7699368,114.92175 C45.8540526,114.636401 45.9852971,114.392083 46.1642669,114.189417 C46.3426402,113.986751 46.5514383,113.831333 46.7912578,113.724405 C47.0310774,113.617477 47.2983389,113.559039 47.5936391,113.549714 C47.8889393,113.539767 48.1943811,113.585771 48.5105611,113.686483 C48.9788654,113.83755 49.3791612,114.043945 49.7108519,114.30567 C50.0431392,114.568017 50.3330703,114.888801 50.5806452,115.266157 L49.7180107,115.958703 C49.4913156,115.642892 49.2526892,115.380546 49.0009383,115.171663 C48.7497841,114.96278 48.4783465,114.811092 48.1866257,114.717841 C47.8579179,114.612156 47.5805147,114.607183 47.3526264,114.700434 C47.1253348,114.794307 46.9791761,114.95159 46.9135539,115.172906 L46.9081848,115.192178 C46.8706011,115.319622 46.8586698,115.438983 46.8723908,115.550263 C46.8861118,115.662164 46.9374165,115.776552 47.027498,115.891562 C47.1169829,116.007193 47.2494205,116.130907 47.4271972,116.264567 C47.6049739,116.396983 47.8352484,116.551159 48.1174241,116.724606 C48.4270418,116.920433 48.6949,117.114396 48.9227882,117.30525 C49.1500799,117.496726 49.3260668,117.697526 49.4507491,117.905787 C49.5754314,118.115913 49.6523884,118.339716 49.6798305,118.574088 C49.7072725,118.807215 49.6810236,119.060859 49.6010838,119.333774 L49.5951181,119.353667 C49.5038435,119.663261 49.3648436,119.924365 49.1811013,120.135112 C48.9961658,120.346481 48.7790158,120.50563 48.5296512,120.613802 C48.2802866,120.721973 48.0022868,120.774194 47.696845,120.774194 C47.3914032,120.77295 47.0716439,120.718243 46.7369703,120.611315" id="Fill-29" fill="#000000"></path>
            <polygon id="Fill-31" fill="#000000" points="57.598593 115.612903 58.8387097 115.756121 58.0143103 122.83871 56.7741935 122.694219"></polygon>
            <polygon id="Fill-33" fill="#000000" points="65.0322581 116.102349 66.2616487 116.011822 70.744551 120.367946 70.3085343 115.711275 71.628112 115.612903 72.2580645 122.349868 71.1466628 122.431945 66.5328877 117.948481 66.9817882 122.740941 65.6628887 122.83871"></polygon>
            <path d="M83.3131791,119.5479 C82.8129772,119.709777 82.3211228,119.769708 81.8382578,119.730166 C81.3553929,119.691241 80.9052754,119.569525 80.4898318,119.365634 C80.0743882,119.162979 79.7064605,118.883093 79.3866909,118.527211 C79.0662792,118.171947 78.8254888,117.759223 78.6623935,117.290274 L78.6566145,117.271739 C78.4935192,116.80279 78.4273821,116.335695 78.4594875,115.871071 C78.4909508,115.405212 78.6090986,114.968392 78.8158572,114.558139 C79.0219738,114.147886 79.3089959,113.78459 79.6756393,113.468251 C80.0429249,113.151911 80.4859792,112.91095 81.0054442,112.74413 C81.3181507,112.644038 81.6103096,112.577928 81.8844896,112.545182 C82.1586695,112.512436 82.418081,112.507493 82.6640082,112.529736 C82.9105776,112.551361 83.145589,112.59461 83.3709687,112.661956 C83.5957064,112.728684 83.8159493,112.810858 84.0304133,112.908478 L83.5565379,114.007634 C83.199526,113.851936 82.8418721,113.749373 82.4842181,113.696238 C82.1265642,113.644338 81.7534996,113.682027 81.3637403,113.807451 C81.0388338,113.91125 80.759517,114.068184 80.5257898,114.279489 C80.2920627,114.48894 80.1103462,114.731755 79.9819247,115.005463 C79.8535031,115.281024 79.7822292,115.575121 79.769387,115.892696 C79.7565449,116.210271 79.8059872,116.527229 79.9164297,116.84604 L79.9228508,116.863957 C80.0339354,117.182768 80.1931781,117.467597 80.4025052,117.717209 C80.6118323,117.965585 80.8539068,118.163915 81.129371,118.310963 C81.4041931,118.459247 81.7008468,118.550071 82.0193322,118.582817 C82.3378176,118.616181 82.6595135,118.580346 82.98442,118.476547 C83.3998636,118.342474 83.7311911,118.151558 83.9764762,117.901946 C84.2224035,117.65357 84.4452148,117.350206 84.6468366,116.993088 L85.6774194,117.496636 C85.5644084,117.733891 85.436629,117.953846 85.2940811,118.156501 C85.1515332,118.35792 84.9871537,118.546364 84.8022267,118.721216 C84.6172997,118.894832 84.4021936,119.05053 84.1575506,119.188311 C83.9129076,119.326092 83.6316644,119.446572 83.3131791,119.5479" id="Fill-35" fill="#000000"></path>
            <polygon id="Fill-37" fill="#000000" points="88.7741935 110.234671 93.2869885 107.354839 93.87362 108.37125 90.4238956 110.573475 91.3754998 112.221294 94.4334996 110.270159 95.0207681 111.28724 91.9627682 113.237036 92.9519525 114.950473 96.4449896 112.722134 97.0322581 113.737876 92.4761504 116.645161"></polygon>
            <path d="M108.374069,101.620233 L108.219914,98.5599291 C108.20785,98.2584392 108.187743,97.9950895 108.158923,97.7704856 C108.130103,97.5464871 108.087878,97.3515478 108.031578,97.1850624 C107.974608,97.0191824 107.902893,96.8763077 107.815092,96.7582544 C107.72662,96.6395958 107.615361,96.5336505 107.479974,96.4373917 C107.18574,96.2333714 106.887485,96.1576962 106.585208,96.2103661 C106.281591,96.2648523 106.025561,96.413781 105.815107,96.6589686 C105.605323,96.9047616 105.494063,97.1705328 105.481329,97.4605201 C105.468594,97.7486912 105.522213,98.1022456 105.642186,98.5223942 L104.494741,98.7857438 C104.40694,98.5199726 104.340587,98.265704 104.297692,98.0235434 C104.254126,97.7795666 104.246754,97.5446709 104.274233,97.3152237 C104.302383,97.0857766 104.368066,96.8575403 104.470613,96.6317255 C104.573159,96.4047 104.727313,96.1716205 104.933076,95.9318815 C105.156264,95.6715589 105.402911,95.46209 105.673687,95.3034748 C105.944462,95.1466758 106.223951,95.0437576 106.513493,94.9977471 C106.802365,94.9499204 107.092577,94.9596068 107.3848,95.0243848 C107.677023,95.0897681 107.955841,95.2150862 108.221255,95.4021552 L108.238011,95.4124471 C108.470583,95.5746947 108.656908,95.7508665 108.798328,95.9397517 C108.939078,96.1280316 109.048326,96.3405274 109.125404,96.5772394 C109.202481,96.8157676 109.254089,97.0857766 109.281569,97.3860557 C109.308378,97.6863348 109.328485,98.028992 109.34189,98.4134219 L109.414275,100.228415 L111.599916,97.6778592 L112.516129,98.3177685 L109.195108,102.193548 L108.374069,101.620233 Z" id="Fill-39" fill="#000000"></path>
            <path d="M115.349285,88.763709 C115.46827,88.52467 115.514082,88.2826052 115.487995,88.03933 C115.461907,87.7954497 115.379826,87.5618572 115.239844,87.3349214 C115.100498,87.1091959 114.908976,86.8961789 114.665915,86.698896 C114.422218,86.5004029 114.140981,86.3303523 113.821566,86.1869289 L113.803114,86.1790618 C113.483063,86.0356384 113.16492,85.9412331 112.848051,85.8916099 C112.531181,85.8419866 112.234673,85.8383556 111.959798,85.8795066 C111.684923,85.9212628 111.437408,86.0120371 111.21789,86.1518295 C110.998372,86.2934375 110.830393,86.4804325 110.715226,86.7140251 C110.596877,86.9542744 110.550428,87.1951289 110.577152,87.4390093 C110.602603,87.6822844 110.68532,87.9176924 110.825303,88.1434179 C110.964013,88.3703537 111.155534,88.5815552 111.399231,88.7800484 C111.642292,88.9779364 111.924166,89.1479869 112.242944,89.2908052 L112.262033,89.2992774 C112.580811,89.4408854 112.898317,89.5389216 113.214551,89.5909656 C113.530148,89.6430095 113.82602,89.6466405 114.102804,89.6030688 C114.379587,89.558892 114.626466,89.4681177 114.844711,89.3301407 C115.062957,89.1927689 115.230936,89.0033532 115.349285,88.763709 M116.363522,89.2387612 C116.164365,89.6405889 115.897762,89.9679815 115.564349,90.2185186 C115.2303,90.4690557 114.856164,90.6427372 114.438762,90.742589 C114.022632,90.8418356 113.582323,90.8642266 113.117835,90.809762 C112.653348,90.7552974 112.191405,90.6263979 111.730735,90.4206428 L111.711647,90.4115653 C111.251613,90.2058102 110.850118,89.9480112 110.508433,89.6381682 C110.166112,89.3289304 109.902054,88.9894345 109.716259,88.6221011 C109.5311,88.2541626 109.432476,87.8656485 109.420387,87.456559 C109.408297,87.0486797 109.502467,86.6420108 109.700988,86.2389729 C109.900781,85.8359349 110.166748,85.5097526 110.500161,85.2592155 C110.833574,85.0086784 111.208346,84.8362072 111.623203,84.7393813 C112.038061,84.6431605 112.479006,84.6207695 112.944766,84.6716031 C113.410526,84.7236471 113.873741,84.8525466 114.334411,85.0570914 L114.3535,85.066774 C114.813533,85.2719239 115.214392,85.5297229 115.556713,85.8395659 C115.898398,86.1494089 116.162456,86.4882996 116.347615,86.8562382 C116.53341,87.2247819 116.632034,87.6126908 116.644123,88.0199648 C116.656213,88.4290544 116.562679,88.834513 116.363522,89.2387612" id="Fill-41" fill="#000000"></path>
            <polygon id="Fill-43" fill="#000000" points="115.066098 77.1664706 114.608641 79.483871 113.548387 79.2211832 114.717644 73.2903226 115.777898 73.5530103 115.321631 75.8717476 120.774194 77.2252912 120.518661 78.5200142"></polygon>
            <polygon id="Fill-45" fill="#000000" points="115.612903 67.0943073 115.614193 61.9823542 116.760338 61.9835877 116.759048 65.8910958 118.616615 65.8910958 118.61726 62.4282394 119.762759 62.4282394 119.762114 65.8923292 121.69192 65.8923292 121.69321 61.9354839 122.83871 61.9367173 122.836775 67.0967742"></polygon>
            <polygon id="Fill-47" fill="#000000" points="114.959909 55.7419355 114.696702 54.6822383 118.564411 50.1287117 113.831068 51.1955892 113.548387 50.0587035 120.394301 48.516129 120.632382 49.4741049 116.653485 54.1592709 121.524398 53.0618769 121.806452 54.199361"></polygon>
            <g id="Group-51">
                <mask id="mask-2" fill="white">
                    <use xlink:href="#path-1"></use>
                </mask>
                <g id="Clip-50"></g>
                <path d="M19.1471606,109.325494 C19.1471606,109.325494 19.4302739,109.594104 19.9782148,110.113671 C20.5368749,110.621888 21.3130719,111.434656 22.4423724,112.364075 C24.6379192,114.285336 28.0119488,116.980902 32.7719094,119.656292 C33.3690325,119.986696 33.9812887,120.325297 34.6099389,120.673356 C35.2543527,120.990518 35.91453,121.315878 36.5904709,121.648173 C37.2601064,121.996233 37.9726187,122.290065 38.6958502,122.604075 C39.4209734,122.911779 40.1511409,123.254164 40.9273379,123.525927 C43.9823133,124.73972 47.3998502,125.768765 51.1194167,126.533612 C58.5434167,128.062676 67.2757911,128.449198 76.4539586,126.618735 C81.0323232,125.69373 85.7014857,124.225198 90.2886778,122.150715 C94.8809143,120.08443 99.3394759,117.325178 103.530057,114.005375 C104.067279,113.606242 104.565407,113.157297 105.076146,112.720331 C105.584363,112.280843 106.094471,111.838833 106.60584,111.395563 C107.097033,110.92707 107.590747,110.457316 108.085092,109.985671 L108.82787,109.276942 C109.064954,109.040489 109.298885,108.783858 109.535338,108.537316 C110.006983,108.039188 110.48052,107.539799 110.955318,107.039149 C111.423811,106.532824 111.859515,105.994341 112.314767,105.470991 C113.241663,104.435641 114.066412,103.308233 114.929624,102.201001 C116.57723,99.9316808 118.164934,97.5715626 119.518707,95.0462424 C120.2432,93.8103803 120.83654,92.4975921 121.484737,91.2062424 C121.785505,90.5492177 122.062944,89.8802128 122.354254,89.2149911 L122.786175,88.2149517 L123.170175,87.1922128 C127.370845,76.3216709 128.557525,63.8571192 126.102195,51.8591685 C125.506333,48.8590502 124.640599,45.9062227 123.622274,43.0025773 C122.59323,40.0995626 121.293683,37.2911291 119.855417,34.5552079 C118.402648,31.8224394 116.696402,29.2277596 114.869092,26.7238778 C113.013407,24.2351291 110.959101,21.9172571 108.78184,19.6908138 C106.556028,17.5280552 104.223653,15.4731192 101.731121,13.6275232 C99.2228256,11.8090404 96.6243626,10.1116217 93.8897025,8.66957241 C91.1512591,7.24139507 88.3421951,5.95193695 85.4404414,4.93361182 C82.5374266,3.92663645 79.5871212,3.07036059 76.5901557,2.48647882 C64.6073379,0.072764532 52.1806187,1.29916847 41.3630424,5.51875468 L40.3459783,5.90401576 L39.3509833,6.33782857 C38.6895448,6.6304 38.0236926,6.90846897 37.3704512,7.20986798 C36.0860374,7.85995665 34.7808158,8.45518818 33.5512591,9.18094187 C31.0410719,10.5366069 28.6967172,12.1255724 26.44253,13.7725478 C25.3434956,14.6344985 24.2217616,15.4611389 23.2002837,16.3823606 C22.6813478,16.8363507 22.1516926,17.2670108 21.6466286,17.7367645 C21.1459783,18.2147153 20.6472197,18.6907744 20.1497222,19.1649419 C19.906333,19.400134 19.6396138,19.6441537 19.4170325,19.8705182 L18.71587,20.6101438 C18.249269,21.102597 17.7839291,21.5931586 17.3204808,22.0830897 C16.8809931,22.593198 16.4427665,23.1026759 16.005801,23.6102621 C15.5726187,24.1203704 15.1268256,24.617868 14.7314759,25.1538286 C11.4432,29.3324296 8.71358424,33.773336 6.67504236,38.344134 C4.62767291,42.9098877 3.18373202,47.553198 2.27890443,52.1025576 C0.490057143,61.2246069 0.902431527,69.8895133 2.44221478,77.249198 C3.21273695,80.9359764 4.24367291,84.3219862 5.45683547,87.3466956 C5.72922956,88.1146956 6.07098325,88.8372966 6.37868768,89.5554837 C6.69143645,90.2705182 6.98463842,90.9760946 7.33143645,91.6387941 C7.66373202,92.307799 7.98783054,92.9610404 8.30436256,93.5985182 C8.65116059,94.219602 8.98850049,94.8261833 9.31764335,95.4157399 C11.9810522,100.121474 14.6703133,103.464607 16.5669833,105.618538 C17.4800079,106.723247 18.3066483,107.508902 18.8136039,108.062518 C19.3350621,108.609198 19.6043034,108.891681 19.6043034,108.891681 L19.1471606,109.325494 Z M18.6900177,109.759937 C18.6900177,109.759937 18.4220374,109.476824 17.9024709,108.928883 C17.3911015,108.36707 16.5890522,107.603484 15.6394562,106.451484 C13.6860374,104.219366 10.9740768,100.823267 8.26779113,96.011602 C7.93423448,95.4088039 7.59185025,94.7896118 7.24126897,94.1552867 C6.92032315,93.5045675 6.59181084,92.8380847 6.25573202,92.1552079 C5.90515074,91.4786365 5.60753498,90.7591882 5.29100296,90.0283901 C4.98014581,89.2957005 4.63460887,88.558597 4.35906207,87.7748335 C3.13391921,84.6895921 2.09415567,81.2380059 1.32174187,77.4812374 C-0.222455172,69.983464 -0.613391133,61.1659665 1.23535764,51.8963704 C2.16982069,47.2726069 3.65222463,42.5567842 5.74814581,37.9235626 C7.83460887,33.2852966 10.6216039,28.7819665 13.9741951,24.5497695 C14.3771113,24.0068729 14.8311015,23.5037005 15.2724808,22.9866562 C15.7182739,22.4733951 16.1646975,21.9576118 16.6117517,21.4405675 C17.0846581,20.9455921 17.5575645,20.4487251 18.0329931,19.950597 L18.7467665,19.2021438 C19.0071803,18.94173 19.2480473,18.7241931 19.500264,18.482065 C19.9990227,18.0085281 20.4996729,17.5343606 21.0015842,17.0583015 C21.5104315,16.5872867 22.0596335,16.1427547 22.5886581,15.681198 C23.6397714,14.7410601 24.7766384,13.9093754 25.8945892,13.0379665 C28.1872394,11.373336 30.5700571,9.76986798 33.120599,8.40222266 C34.370333,7.67079409 35.695732,7.07051823 36.9996926,6.41664631 C37.6636532,6.11335567 38.3389635,5.83213399 39.0104906,5.53830148 L40.0206187,5.10259704 L41.0534463,4.71481379 C52.0330719,0.470636453 64.6212099,-0.727393103 76.7370719,1.75252808 C79.7680867,2.35406502 82.7505498,3.22799606 85.6825695,4.25640985 C88.6145892,5.29680394 91.451397,6.60896158 94.2150621,8.06173005 C96.9749438,9.52900099 99.5961064,11.2516414 102.12521,13.097868 C104.637919,14.9705773 106.987318,17.0532571 109.228264,19.2450207 C111.404895,21.4840749 113.488205,23.8486069 115.351456,26.3650995 C117.188225,28.8986167 118.902037,31.522932 120.35922,34.285336 C121.8019,37.0508926 123.103968,39.888331 124.132382,42.8197202 C125.150707,45.7517399 126.013919,48.7310502 126.604737,51.7582818 C129.042412,63.8609025 127.804658,76.4099468 123.542195,87.3359764 L123.15252,88.3637596 L122.714924,89.3688433 C122.419831,90.0365872 122.138609,90.7093754 121.834057,91.3689222 C121.177663,92.6659468 120.576126,93.9850404 119.844067,95.2265773 C118.4739,97.7619862 116.86917,100.130301 115.205801,102.407188 C111.791417,106.903582 107.945742,110.910045 103.712284,114.234262 C99.492067,117.555957 95.0057616,120.312686 90.3895645,122.371405 C85.7771507,124.440213 81.0871803,125.898656 76.4924217,126.811681 C67.2795744,128.619444 58.5289143,128.202026 51.0954562,126.64774 C47.3721064,125.869021 43.9520473,124.827996 40.8970719,123.603484 C40.1208749,123.327937 39.3907074,122.983031 38.6662148,122.672804 C37.9429833,122.356272 37.2298404,122.059287 36.561466,121.709967 C35.8855251,121.373888 35.2259783,121.046636 34.5821951,120.726952 C33.9535448,120.377001 33.3419192,120.035878 32.7454266,119.703582 C27.9892493,117.010538 24.6234167,114.303622 22.4329143,112.374794 C21.306136,111.440962 20.5324611,110.626301 19.9756926,110.116193 C19.4290128,109.594735 19.1471606,109.325494 19.1471606,109.325494 L18.6900177,109.759937 Z" id="Fill-49" fill="#000000" mask="url(#mask-2)"></path>
            </g>
            <path d="M65.1301291,53.6889906 C65.7158909,53.2903472 65.9890375,52.7567299 65.9245098,52.049844 C65.9038358,51.8276081 65.8267784,51.7158624 65.6093887,51.6920066 C65.2021746,51.6468061 64.7949606,51.6273447 64.3877465,51.7277903 C64.1578272,51.7849188 64.0181214,51.9230315 63.9285343,52.1207837 C63.8138879,52.3718977 63.7355775,52.6412175 63.6090279,52.8860536 C63.4411304,53.2081073 63.2726064,53.5402056 63.0470725,53.8214533 C62.7169159,54.233908 62.450034,54.6746131 62.2909073,55.1743299 C62.0616145,55.8937715 61.7934797,56.5950074 61.4307459,57.2579483 C61.2484393,57.5894188 61.0410734,57.9095891 60.7328436,58.1381029 C60.2636077,58.4877791 60.1840444,58.9692902 60.2473192,59.4997685 C60.2742579,59.7238877 60.3206177,59.7483714 60.5555489,59.7571603 C60.8869585,59.7703438 61.2196211,59.7596715 61.5478982,59.7941997 C61.7183017,59.8124054 61.8517426,59.7841551 61.9820511,59.688104 C62.2313914,59.5047908 62.4782258,59.3164553 62.7319515,59.1400477 C63.2312586,58.7922548 63.737457,58.4563898 64.2342581,58.1067136 C64.4861044,57.9296782 64.7611305,57.7651986 64.9622316,57.539196 C65.4258291,57.0181344 65.8518377,56.4638003 66.2872435,55.9188829 C66.3260855,55.8699157 66.324206,55.7876759 66.3530243,55.6746746 C65.7885629,55.938972 64.4716953,54.1366013 65.1301291,53.6889906 M89.8730823,43.6281084 C89.7778569,43.5785134 89.7177145,43.5527742 89.6644634,43.518246 C89.1733006,43.194309 88.7999167,43.2809433 88.4484596,43.7379708 C88.1057733,44.1843259 87.7010652,44.5126575 87.1779517,44.7078986 C86.9304908,44.8008108 86.6905478,44.9138121 86.4493518,45.0236744 C86.2213119,45.1278867 86.0415112,45.0456469 85.880505,44.8861895 C85.7151135,44.7229654 85.713234,44.5252132 85.7978093,44.3318554 C85.9594419,43.9602067 86.2031439,43.6425475 86.5076147,43.3776222 C87.0250898,42.9262448 87.0181985,42.9306393 86.9856214,42.2601649 C86.9624415,41.7981152 86.9762241,41.3341821 86.9680798,40.8708767 C86.9636945,40.5657732 86.9198406,40.5381507 86.6172493,40.5375229 C86.365403,40.5368951 86.1354837,40.6034403 85.918094,40.7164416 C85.714487,40.8225373 85.584805,40.9763446 85.5359393,41.2236919 C85.4231723,41.786815 85.2815871,42.3455437 85.1356165,42.9005056 C85.099907,43.0354794 85.0009226,43.1547585 84.9288771,43.27906 C84.7396792,43.6067637 84.6012264,43.9470232 84.5598785,44.3324832 C84.5291808,44.6200087 84.3976193,44.8830506 84.22471,45.11847 C84.0806188,45.3149667 83.9396601,45.5146023 83.7886777,45.7054489 C83.3376098,46.2748499 83.0957873,46.9352797 82.9366606,47.6333766 C82.8690004,47.9309467 82.7161385,48.1864552 82.5538793,48.438197 C82.4398594,48.6146046 82.3189481,48.7866177 82.2099401,48.9661642 C82.1792424,49.0157592 82.1786159,49.0841877 82.1523036,49.1927946 C82.3490193,49.1513607 82.5062666,49.1199715 82.6628874,49.0860711 C83.4553886,48.9153136 84.2328543,48.6981 84.9201063,48.2460948 C85.1600494,48.0885208 85.3824509,47.9033242 85.6073584,47.7237777 C86.3879564,47.1003872 87.2406,46.5874868 88.1007614,46.0858866 C88.1577714,46.0519863 88.2216727,46.0256193 88.2711649,45.9841855 C88.5750092,45.7267936 88.9421283,45.6822209 89.3023562,45.746255 C89.8348669,45.8404227 90.3072352,45.6997989 90.781483,45.495141 C91.3096083,45.267255 91.8439984,45.0538081 92.3771356,44.8384779 C92.4473017,44.8095998 92.5281181,44.7926496 92.6039225,44.7951607 C92.8137944,44.8033219 92.9691622,45.0312079 92.8751898,45.2164044 C92.7962529,45.3714673 92.6891243,45.5196246 92.5657071,45.6420427 C92.2743924,45.9308237 91.9711745,46.2076769 91.6629448,46.4776245 C91.5226126,46.6000425 91.3622329,46.7017437 91.2031061,46.7996782 C90.8823468,46.9974304 90.555949,47.1851382 90.2333102,47.3784959 C89.96079,47.54172 89.9206951,47.5398367 89.6845109,47.3364343 C89.6419101,47.3000228 89.6043211,47.2560779 89.5560819,47.2309665 C89.067425,46.9710635 89.066172,46.9290019 88.7147149,47.325762 C88.2486115,47.8537292 87.7367747,48.3195456 87.1366038,48.6880554 C87.0670642,48.7313726 87.0156926,48.8048234 86.9217201,48.89648 C87.3420903,49.0063424 87.7417866,48.9071524 88.153386,49.007598 C88.1007614,49.1061602 88.0844729,49.1758444 88.0412455,49.2097447 C87.6089721,49.5543987 87.167928,49.886497 86.7406664,50.236801 C86.5946959,50.3560801 86.4706522,50.4025362 86.2676716,50.3837027 C85.6136232,50.3259465 84.9846341,50.376797 84.3969929,50.7635126 C83.4503768,51.3869031 82.4041499,51.8094024 81.3272253,52.1615898 C80.4921232,52.435304 79.9426974,53.0028216 79.7058868,53.8647704 C79.5392423,54.4724663 79.3487914,55.0732565 79.1852793,55.682208 C79.0248996,56.2804871 78.897097,56.8875552 78.7323319,57.4845787 C78.618312,57.8989168 78.4811122,58.3082326 78.321359,58.7075038 C78.264349,58.850011 78.1296551,58.9774514 78.0012261,59.0722469 C77.2901676,59.5970752 76.6762141,60.2279991 76.1631244,60.9361406 C75.6631908,61.6254485 75.56358,62.4227354 75.8248235,63.2520394 C75.9169165,63.5458428 75.9858297,63.8471795 76.0760432,64.1861834 C75.9438553,64.2163171 75.8329678,64.2502175 75.7202008,64.2659121 C75.4476806,64.3016959 75.1751604,64.2885124 74.9057727,64.3939803 C74.6514205,64.4931703 74.4334043,64.6287719 74.2329297,64.8039239 C73.850775,65.1366499 73.2643867,65.483815 72.8321133,65.62695 C72.6523126,65.4756538 72.8728347,65.3042685 72.8145718,65.133511 C72.7625737,64.9809592 72.805801,64.7945071 72.807054,64.6086827 C72.6059529,64.6250051 72.5971821,64.7505621 72.5564607,64.8635634 C72.4217668,65.2370955 72.2770492,65.6062331 72.1329581,65.9766262 C72.1223079,66.0042488 72.0872248,66.0224545 72.0427445,66.0645161 C71.7514298,65.9257756 71.4532238,65.7870352 71.1581503,65.641389 C71.0441303,65.5855162 71.0516481,65.4831872 71.092996,65.3827416 C71.3492276,64.7593511 71.6073387,64.1372162 71.8648233,63.5138257 C72.1304522,62.8703461 72.4230198,62.2369111 72.6548186,61.5815035 C72.9091707,60.8620619 73.1027541,60.1206479 73.3332999,59.3917895 C73.4667408,58.9711735 73.6202292,58.5568354 73.7661997,58.1393584 C73.7975239,58.0483296 73.8344864,57.9598119 73.8877375,57.8198159 C73.7699586,57.8405328 73.6891423,57.8329994 73.6352648,57.8675275 C73.1541257,58.1801645 72.6811309,58.5059849 72.1981123,58.8161106 C71.6374099,59.1764592 71.2007511,59.6642482 70.8167169,60.1934709 C70.3105185,60.8915678 69.7003239,61.4471575 68.9053167,61.7918115 C68.6628677,61.8966516 68.4279365,62.0190697 68.1867405,62.1270487 C68.1435132,62.14651 68.0865032,62.1358377 68.0106988,62.1408599 C68.0175901,61.9311798 68.0081928,61.7453554 68.0313727,61.5632978 C68.0915151,61.0962257 68.0226019,60.6442205 67.9493034,60.1821708 C67.8634752,59.638509 67.8183684,59.0816637 67.9411591,58.5285851 C67.965592,58.4206061 67.9499299,58.3044659 67.9549417,58.1261749 C67.6680125,58.3232994 67.5884491,58.5706467 67.5045003,58.7953937 C67.2871107,59.3729559 66.6618805,60.1244146 66.120599,60.3931065 C66.0034466,60.4514905 65.8743911,60.4916688 65.7465885,60.5249414 C65.4371058,60.6052979 65.2385107,60.7704053 65.1201053,61.0918312 C64.9522079,61.5482309 64.7273004,61.9851693 64.368952,62.3335899 C64.1584537,62.5376201 63.904728,62.6198599 63.6159192,62.5947485 C63.4405039,62.5784261 63.2657151,62.5338534 63.0909263,62.5369923 C62.9662562,62.5388756 62.8303093,62.5752872 62.7206748,62.6355545 C62.302184,62.8665794 61.8849462,63.0718651 61.389398,63.1063933 C60.979678,63.1346436 60.6846044,62.9714195 60.4202285,62.6977052 C60.3970486,62.6738494 60.3782541,62.6455991 60.3613391,62.6173488 C60.160238,62.2695559 59.9321981,62.1421155 59.5105749,62.3411234 C59.1785389,62.4980696 58.836479,62.3091063 58.5921506,62.038531 C58.4493124,61.8790736 58.3139921,61.7547722 58.0978554,61.6788102 C57.9293314,61.6191706 57.7626869,61.4446464 57.6768587,61.2782834 C57.3066071,60.5607251 56.9557765,59.8324945 56.8066735,59.028302 C56.715207,58.5310963 56.8298534,58.0552352 56.9896066,57.5919299 C57.2358145,56.8775106 57.7370011,56.3438934 58.2832944,55.8510821 C58.669208,55.5026615 59.0732897,55.1737021 59.4566974,54.8227703 C59.6440159,54.651385 59.7968778,54.4542605 59.8864648,54.2000076 C59.9459808,54.0305057 60.0731568,53.8735594 60.2015859,53.7423524 C60.402687,53.5376945 60.6275945,53.3562646 60.848743,53.1723236 C60.9521127,53.0863171 60.9777986,53.0003105 60.9051265,52.8854259 C60.8756818,52.8389698 60.8481165,52.7893748 60.8274426,52.7385242 C60.6701953,52.3423918 60.6946282,52.27773 61.0586149,52.0429384 C61.1607316,51.977021 61.2653543,51.9092202 61.3480501,51.8225859 C61.8316951,51.3191023 62.302184,50.806202 62.6642913,50.1991339 C62.8785485,49.8387853 63.1466833,49.509826 63.3947707,49.1701943 C63.6710497,48.7916399 64.0444337,48.6993555 64.4823455,48.8136124 C64.632075,48.8531629 64.7893222,48.8789021 64.9271485,48.9448195 C65.078131,49.0176425 65.1821272,48.9743254 65.281738,48.8701131 C65.4270821,48.7188169 65.5855824,48.5750541 65.7089995,48.4068077 C65.8693792,48.1877108 66.0811306,48.1450214 66.324206,48.160716 C66.6643864,48.1826885 67.0039403,48.2059165 67.3441206,48.2297724 C67.5972199,48.2473504 67.8503191,48.2649283 68.1027918,48.2856452 C68.6108696,48.3258235 68.8971725,48.6277881 69.0481549,49.0904656 C69.1646808,49.4451641 69.2830861,49.7992348 69.4090092,50.178417 C69.4704046,50.1369832 69.5411972,50.1150107 69.5675095,50.067299 C69.7861521,49.6711667 70.0004093,49.2712677 70.2102812,48.8694853 C70.5485821,48.2216112 70.8756063,47.5674592 71.2233045,46.9246074 C71.3323126,46.7224606 71.4688859,46.522825 71.6367834,46.3696455 C71.7564417,46.2604109 71.9437602,46.1995157 72.1104047,46.172521 C72.3183971,46.1379928 72.4048518,46.2214882 72.4706325,46.4299128 C72.4938124,46.5033637 72.5132334,46.5786979 72.5339073,46.6534043 C72.582773,46.8304396 72.7036843,46.9057738 72.8816055,46.8963571 C73.0476235,46.8869403 73.2136416,46.8649678 73.3790331,46.8655956 C73.7091898,46.8668512 74.0405994,46.8668512 74.3688766,46.8951015 C74.4910408,46.9051461 74.6263612,46.9704357 74.7222131,47.05142 C74.9377233,47.2328498 74.9464941,47.3182286 74.7955116,47.5624369 C74.7034186,47.7124775 74.5900251,47.851218 74.4760052,47.9861918 C73.6515533,48.9605141 73.04825,50.0654157 72.5777611,51.2450237 C72.5050891,51.4270813 72.5019567,51.6361337 72.4643677,51.8326304 C72.360998,52.3750367 72.2876994,52.9262319 72.1411024,53.457338 C72.0308413,53.8591204 71.8247284,54.2332802 71.6656016,54.6218791 C71.6386629,54.6871688 71.633651,54.7606196 71.6186154,54.8303038 C71.6988052,54.8321871 71.7789951,54.8422317 71.857932,54.8334427 C71.9224597,54.826537 71.9844816,54.7819643 72.0477564,54.7813365 C72.4368024,54.780081 72.7393938,54.5773064 73.0463706,54.3739041 C73.4974385,54.0738228 73.9641684,53.7963419 74.4077185,53.4855883 C74.9145434,53.130262 75.4019473,52.7479409 75.9000015,52.3800589 C76.010889,52.2984469 76.045972,52.1998846 76.027804,52.0630275 C75.8918572,51.0409936 76.289674,50.2022728 76.9286868,49.4457919 C77.3452982,48.9517251 77.8051368,48.5041144 78.3338886,48.1318379 C78.6239503,47.9278078 78.8068834,47.6358878 78.991696,47.3496178 C79.5523984,46.4839023 80.106836,45.6150479 80.6481175,44.7367767 C80.8504716,44.4084451 81.002707,44.0487244 81.1937843,43.7116038 C81.3084308,43.5107126 81.4468836,43.3223771 81.5872158,43.1371805 C81.6680321,43.0298293 81.689959,42.9312671 81.6492376,42.7994322 C81.5001346,42.3135266 81.6103957,41.8778439 81.9493231,41.5074507 C82.1880132,41.2462922 82.4323416,40.9882725 82.696091,40.7541087 C83.051307,40.4377051 83.4271969,40.1439017 83.7961955,39.8431927 C83.9747432,39.6975466 83.9716108,39.7006855 83.8669881,39.4960276 C83.720391,39.2091299 83.6389482,38.9059097 83.8450612,38.6183842 C83.9371542,38.4903161 84.0737275,38.3754314 84.2146862,38.3038639 C84.8975529,37.9579544 85.5365658,37.5448719 86.1492663,37.0897277 C86.4318102,36.8794198 86.7131012,36.7990633 87.0282222,37.045155 C87.0965089,37.0991445 87.2437324,37.1029112 87.333946,37.0708942 C87.7192332,36.9359204 88.1013879,36.7902743 88.4760249,36.6270502 C88.7698455,36.4989821 89.0536423,36.3458025 89.3361863,36.1938786 C89.475892,36.1185444 89.6118389,36.1015942 89.7459063,36.1819507 C89.8874915,36.2673294 90.0384739,36.3495692 90.1518674,36.4657095 C90.3003439,36.6176334 90.3723894,36.794041 90.3266562,37.0369938 C90.2596225,37.3910645 90.2665138,37.7589465 90.2257924,38.1186673 C90.2038655,38.3113973 90.3034763,38.4212597 90.4200022,38.5499556 C90.6054412,38.7527302 90.7551707,38.9881496 90.9355978,39.1953186 C91.1473491,39.4382714 91.1404578,39.7327026 91.1304341,40.0152058 C91.1241693,40.1941245 91.0139082,40.3673932 90.9725603,40.5481953 C90.892997,40.8922214 90.8109277,41.2375032 90.763315,41.5871794 C90.7100639,41.9814284 90.6079471,42.3398936 90.3254032,42.6393471 C90.1167843,42.8609552 89.997126,43.1378083 89.9482603,43.4422841 C89.940116,43.4931346 89.9094184,43.5402185 89.8730823,43.6281084" id="Fill-52" fill="#000000"></path>
            <path d="M49.0556017,53.5128151 C48.4806104,53.589865 47.9765596,53.6720091 47.4687751,53.7210409 C47.2167497,53.7452384 46.9585015,53.7223144 46.7052315,53.6987537 C46.4507169,53.6745562 46.3138142,53.4816131 46.2024252,53.2689299 C46.136463,53.143485 46.158243,53.0345963 46.2864337,52.9791968 C46.4818312,52.8945055 46.6797178,52.8028098 46.8856941,52.7601458 C47.3754324,52.6608087 47.863926,52.5672026 48.2970364,52.2952993 C48.914343,51.9075026 49.5565411,51.5528184 50.1383775,51.1153532 C50.7451053,50.6600583 50.6965671,49.6756025 50.0425456,49.3457525 C49.4127933,49.0280012 48.7245461,48.7605553 48.0736361,49.3654925 C48.0020733,49.4329908 47.9018854,49.4680135 47.8147655,49.5170452 C47.3723209,49.7628408 46.9821483,50.0627623 46.6934081,50.5015011 C46.3430616,51.0332091 45.9815141,51.5598229 45.5907191,52.0609657 C45.2385059,52.5124399 44.7643247,52.7601458 44.1824883,52.7302173 C43.9883354,52.7206657 43.9180172,52.8072672 43.9397972,52.9893852 C43.9497537,53.07535 43.9727783,53.1613147 43.9989142,53.2447324 C44.1071918,53.5911386 44.0020257,53.8706833 43.75809,54.1177524 C43.4662383,54.4151268 43.1725198,54.713138 42.8974699,55.0277054 C42.7387872,55.2098234 42.5645475,55.4065872 42.484895,55.6294588 C42.2509158,56.2834278 42.0542738,56.9507692 41.8563872,57.6174737 C41.7636667,57.929494 41.8339849,58.0657641 42.124592,58.2007606 C42.4929847,58.3707798 42.8900025,58.3637753 43.2571506,58.2548866 C43.4475698,58.1982135 43.5938068,57.9696109 43.7487557,57.807233 C43.847699,57.7034385 43.9149058,57.5665316 44.0175828,57.4671946 C44.105325,57.3818666 44.2142248,57.300996 44.328103,57.2666101 C44.8458441,57.1093264 45.3822537,57.0061687 45.8863045,56.8151358 C46.415869,56.6126411 46.9541455,56.3986843 47.350541,55.944663 C47.5179356,55.7536301 47.7351131,55.6562034 47.9908722,55.6320059 C48.3318843,55.5995303 48.6722742,55.5543192 49.0107972,55.4995565 C49.3412305,55.4467041 49.6865987,54.9506555 49.6623295,54.5354775 C49.2509992,54.7169587 48.837802,54.8430403 48.392246,54.6246261 C48.4787436,54.1788829 48.9261664,53.9999488 49.0556017,53.5128151 M55.1452822,48.7077028 C55.3749053,48.675864 55.3742831,48.5128494 55.4246881,48.382947 C55.8397522,47.3157103 56.2616614,46.250384 56.6767254,45.1825105 C56.8907915,44.6316992 57.2156242,44.1509332 57.6113974,43.7281139 C58.1602528,43.1429167 58.5498031,42.4469205 58.9760683,41.7751217 C59.0065603,41.7267267 59.0401637,41.6738743 59.0507425,41.6191116 C59.2511183,40.5474174 59.7713485,39.5986211 60.1689886,38.6033401 C60.4869762,37.8092803 60.7831838,37.0018482 61.1633999,36.2396273 C61.5112572,35.5404471 61.9574355,34.8934826 62.362543,34.224231 C62.456508,34.0694944 62.5685193,34.0344717 62.7583162,34.0879609 C63.4316285,34.2764466 64.1130305,34.4311832 64.7906988,34.6037495 C64.9804958,34.6521445 65.1671812,34.7164589 65.4073832,34.7903249 C65.2076298,35.2800057 65.0228111,35.7327535 64.8037668,36.2701925 C65.2767034,36.2065149 65.6488298,36.1562096 66.0645161,36.1001733 C66.0439807,36.2421744 66.0433584,36.3249553 66.0197116,36.4007316 C65.8342707,36.9852921 65.5579762,37.5170001 65.2418554,38.0442507 C64.7577177,38.8504092 64.3862136,39.7266131 63.9238559,40.5474174 C63.2399648,41.7592023 62.5255816,42.9525207 61.8105762,44.145839 C61.4160476,44.8042655 60.9829373,45.4378577 60.5927646,46.0988313 C60.4546173,46.3318913 60.3898997,46.6095257 60.296557,46.8686935 C59.8790038,48.0288995 59.4826083,49.1973836 59.0358077,50.3448541 C58.8484999,50.8275304 58.5865179,51.2885563 58.3021337,51.7209272 C57.9405862,52.2711018 57.6281991,52.8397428 57.4757393,53.4828866 C57.3438149,54.0381554 56.9884902,54.4348669 56.6325432,54.8277577 C55.7905917,55.7587243 55.0824314,56.7756557 54.749509,58.0097278 C54.5958046,58.5802791 54.5254864,59.1794854 54.4725922,59.7704136 C54.4346328,60.1945065 54.723373,60.5351817 54.8789442,60.9089692 C55.0849206,61.4031075 55.3002311,61.8940618 55.4701149,62.4009356 C55.6107513,62.8231181 55.4956286,62.9262759 55.1147902,63.1427797 C54.7152833,63.369472 54.3107981,63.3089783 53.9081797,63.2752291 C53.6368635,63.2523052 53.4420883,63.3198035 53.2547805,63.5044685 C53.1004539,63.6560212 52.9355484,63.8005694 52.755708,63.9158259 C52.6598761,63.9775932 52.502438,64.0240778 52.4066061,63.986508 C51.9025553,63.7878339 51.4103279,63.5566842 50.9112554,63.3433642 C50.4215172,63.1332281 50.3194624,62.6792067 50.2174077,62.2200912 C50.0985513,61.6845625 49.9740943,61.1503074 49.8564824,60.6141419 C49.831591,60.5014326 49.8371916,60.3804451 49.8085665,60.2690093 C49.7606506,60.07925 49.6965552,59.8939482 49.6243702,59.6564307 C49.4756441,59.7557678 49.3804345,59.8111673 49.2945591,59.877392 C48.558396,60.4504905 47.8041867,61.0000282 47.0960264,61.6056023 C46.4513392,62.1564136 45.695263,62.2251854 44.924252,62.2385577 C44.5091879,62.246199 44.1414175,62.3480832 43.7879597,62.5512147 C43.5894508,62.6651977 43.3909419,62.7823645 43.1830987,62.8753338 C42.78857,63.0517207 42.3903077,63.0720976 41.9777327,62.9039887 C41.3635375,62.6530989 40.7163612,62.5442102 40.0592283,62.4932681 C39.8688091,62.4779855 39.7387515,62.3939311 39.6628328,62.2130866 C39.6298516,62.1334896 39.5713569,62.0653546 39.5352643,61.9870311 C39.3809377,61.6514502 39.145714,61.4884355 38.7630087,61.4890723 C38.4543554,61.489709 38.1457021,61.3897352 37.8358042,61.3451609 C37.1892501,61.2521916 36.8712625,60.7726992 36.6043022,60.244175 C36.426951,59.8926746 36.3385866,59.5118825 36.3056055,59.1132607 C36.2701352,58.6910782 36.1935942,58.2733531 36.1469228,57.8524441 C36.0809606,57.2602423 36.186749,56.7291711 36.6435062,56.3006208 C37.0573257,55.9128241 37.2228535,55.372838 37.4082944,54.852592 C37.4854577,54.6367249 37.5115937,54.4017545 37.5825342,54.1827035 C37.6640535,53.9305402 37.7897551,53.7522429 38.077873,53.6459013 C38.8775091,53.3504372 39.5514437,52.8276441 40.1805738,52.2526353 C40.838329,51.6508819 41.4929728,51.0440343 42.1214806,50.4110788 C42.4046202,50.1270767 42.6342434,49.7838544 42.8632442,49.4489102 C43.4127218,48.6484827 44.109681,48.0047021 44.9093171,47.4895502 C45.9920929,46.7922804 47.1041161,46.1434056 48.2036936,45.4735172 C48.460075,45.3168702 48.7201901,45.1665911 48.9703487,45.0010293 C49.2136621,44.8411985 49.4669321,44.7870725 49.7457157,44.8692167 C49.8004768,44.8851361 49.8558602,44.9004187 49.9106212,44.9157013 C50.3680007,45.0449669 50.8029778,45.0233165 51.224887,44.7679693 C51.5932797,44.5438241 51.9965204,44.5049807 52.4221633,44.5801203 C52.7855777,44.6437979 53.1545927,44.6839148 53.5229853,44.6985607 C53.7557199,44.7081123 53.9063129,44.8220952 54.0127236,44.9978454 C54.2373685,45.3684491 54.4968613,45.7314115 54.6406091,46.1357643 C54.7887129,46.5534894 54.8123597,47.0170624 54.9001019,47.4577114 C54.950507,47.7111483 55.0264258,47.9588542 55.07932,48.2116543 C55.1110565,48.363207 55.1210131,48.5192171 55.1452822,48.7077028" id="Fill-54" fill="#000000"></path>
            <path d="M99.3380633,62.7989213 C99.6771739,62.7304133 100.015654,62.661265 100.376195,62.5882751 C100.355395,62.768829 100.228701,62.8034031 100.124069,62.8469409 C99.259904,63.2086889 98.3825028,63.5384239 97.5340962,63.9334655 C97.0229091,64.1729235 96.5419773,64.4892129 96.0723911,64.8080633 C94.8810921,65.618635 93.70366,66.4522561 92.5199247,67.2743524 C92.2993138,67.4273751 92.2986835,67.4536258 92.5079487,67.6328991 C93.2498318,68.268039 93.96209,68.9364725 94.5936675,69.685579 C94.8086056,69.9404033 94.9876157,70.233003 95.1496071,70.5268832 C95.435771,71.0461357 95.8139612,71.4898372 96.1984545,71.9290569 C96.8123833,72.6288633 97.5391387,73.1897328 98.3579205,73.6148667 C98.7720387,73.8299947 99.2113696,73.9958226 99.645658,74.168053 C100.412123,74.470897 101.183001,74.7615759 101.951357,75.0580172 C102.124064,75.1252447 102.151798,75.206558 102.041493,75.3666235 C101.586404,76.0241725 100.998949,76.3660724 100.149281,76.1874393 C99.7710911,76.1080468 99.3784036,76.0978026 98.991389,76.0677103 C98.7480867,76.0485024 98.5028934,76.0388985 98.2589607,76.0478622 C98.0824719,76.0549051 97.9028316,76.0817961 97.7339067,76.1317365 C97.4924953,76.2034458 97.3393282,76.1240534 97.1867915,75.9306942 C96.9579865,75.6400153 96.7127932,75.3589403 96.4493207,75.101555 C95.9324608,74.5963883 95.3197927,74.2736963 94.6106861,74.123875 C93.7068116,73.9330769 92.8105009,73.708345 91.9097779,73.5021806 C91.2958492,73.3606827 90.724782,73.1097 90.1745153,72.8074964 C90.0673614,72.7485923 89.9620985,72.6768829 89.877636,72.5898073 C89.5038581,72.2069306 89.03049,72.0167728 88.5419944,71.8541463 C88.4688776,71.8291761 88.3894577,71.8195722 88.312559,71.8112487 C88.1820834,71.797163 88.09573,71.8477437 88.081863,71.9911624 C88.0396318,72.4188574 87.8360394,72.7575559 87.5189899,73.0328686 C87.4767587,73.0693635 87.4465035,73.1186637 87.4080542,73.1602807 C86.8565268,73.749962 86.3144542,74.3498874 85.7496902,74.9261232 C85.0431049,75.6464179 84.5571305,76.4986066 84.4260246,77.4948542 C84.3258042,78.2599673 84.1625521,79.0077933 84.0030819,79.7581803 C83.9381593,80.0642255 83.794447,80.3523434 83.6923357,80.6507055 C83.6450619,80.7883618 83.5977881,80.9279389 83.5738361,81.0713576 C83.5114347,81.4439901 83.3916745,81.7929328 83.1754757,82.1002586 C82.8136738,82.6150292 82.4512415,83.1297998 82.0774636,83.6349665 C81.843616,83.9506157 81.6211141,84.2873935 81.3362108,84.5505411 C80.3749775,85.4373039 79.8631601,86.605782 79.3217178,87.7576133 C79.1540535,88.1142392 79.0166444,88.477908 78.9756738,88.8819133 C78.9485702,89.1463415 78.8458285,89.4050074 78.7670389,89.6623927 C78.7500203,89.7174552 78.6901402,89.758432 78.6497999,89.8064516 C78.6031565,89.7641943 78.53067,89.7309007 78.5149121,89.6790395 C78.3188835,89.0432593 78.1335703,88.4042779 77.940063,87.7678575 C77.9192626,87.6999897 77.866316,87.6417259 77.8278666,87.5789802 C77.7673562,87.6327622 77.6873059,87.6756598 77.6494869,87.7428873 C77.5139688,87.9861868 77.3923176,88.2365293 77.2668845,88.4817496 C77.1200207,88.4939146 77.0903958,88.3959545 77.0588799,88.2973542 C76.9908057,88.0815859 76.9221011,87.8664579 76.8515056,87.6513298 C76.7960377,87.4835812 76.6977083,87.3977861 76.5035707,87.4080303 C76.3163665,87.4169939 76.1260108,87.3824198 75.9381764,87.3568093 C75.8795569,87.3491262 75.8247193,87.3068689 75.744669,87.2697337 C75.8518229,87.0891798 75.9476311,86.9291143 76.042809,86.7690488 C76.607573,85.8086559 77.1792705,84.8514642 77.7345797,83.8853089 C77.9690576,83.4768218 78.1852563,83.0555294 78.379394,82.6252734 C78.7348927,81.8351901 79.0790458,81.0399847 79.4049197,80.2370962 C79.5486319,79.8855924 79.6318338,79.5091184 79.7484424,79.1454496 C79.9514045,78.5115902 80.1549968,77.8783712 80.3655227,77.2464326 C80.5943278,76.5632731 80.829436,75.8820343 81.0645442,75.2001553 C81.1155999,75.0522548 81.17548,74.9062751 81.2385117,74.7628564 C81.2920887,74.6399261 81.3942,74.5118737 81.2612031,74.3934253 C81.125685,74.273056 80.9624329,74.1808583 80.7714468,74.2493663 C80.6460138,74.2935444 80.5060834,74.3370822 80.4134268,74.4241578 C80.1688638,74.6546521 79.9331253,74.8973114 79.7194478,75.1559773 C79.3254997,75.6316919 78.980086,76.1528651 78.5577737,76.6004083 C78.1058364,77.0799645 77.59591,77.5050984 77.0954383,77.9347142 C76.941641,78.0659679 76.8540269,78.1818553 76.8981491,78.3899405 C77.0727469,79.2056342 76.4241507,79.8369325 75.8990967,80.0981594 C75.5833079,80.2543833 75.2391548,80.3606668 74.897523,80.4496632 C74.7481379,80.4887192 74.5735401,80.4298151 74.4109184,80.412528 C74.2218233,80.3920396 74.1707676,80.2447794 74.1108875,80.0917568 C74.0718078,79.9925162 73.986715,79.9131237 73.9161195,79.8164441 C73.8001412,79.8708664 73.7112665,79.9131237 73.6217615,79.9547407 C73.2662627,80.1173673 73.0046812,79.9688265 72.9712744,79.5808277 C72.9082427,78.848368 72.8370169,78.1171889 72.7928947,77.3834487 C72.7620092,76.8712391 72.8307137,76.3641516 73.0576278,75.8999617 C73.2839116,75.4370523 73.3929565,74.9472519 73.4818311,74.4433657 C73.5732271,73.923473 73.513347,73.4074218 73.5001103,72.8907304 C73.49948,72.8599978 73.4730067,72.8305458 73.4509456,72.7850872 C73.3998899,72.7959717 73.334337,72.7908496 73.3002999,72.8215821 C72.3901222,73.6526422 71.4307797,74.4324812 70.6365804,75.3864716 C70.4594613,75.5996788 70.3207916,75.8506615 70.1859037,76.0965221 C69.8575086,76.6938865 69.4578876,77.2310663 68.9561553,77.6920549 C68.5332127,78.0794134 68.1632166,78.5115902 67.8682283,79.0122751 C67.6917395,79.312558 67.4749105,79.5885109 67.287076,79.8817509 C67.183704,80.0437371 67.0437737,80.1320933 66.8704365,80.199961 C66.3712255,80.3939604 65.875166,80.5969235 65.3835188,80.8094904 C65.1269798,80.9196155 64.8843078,81.0591926 64.7084493,81.2928882 C64.5968832,81.4401485 64.4531709,81.5355475 64.2640759,81.5694814 C63.8272662,81.6482336 63.3923475,81.7397911 62.9567985,81.8287875 C62.8376686,81.8531174 62.7197993,81.8851305 62.6025603,81.9171436 C62.3914042,81.9754075 62.2168064,81.8896124 62.1638597,81.6776857 C62.0554452,81.238466 62.0144746,80.8082099 62.347282,80.4291748 C62.460739,80.3004822 62.4285929,80.2070039 62.2628195,80.1564232 C61.8997569,80.0462982 61.5335428,79.9508991 61.1685892,79.8497378 C61.0961028,79.8298896 61.022986,79.8074805 60.9032258,79.7735466 C60.9542815,79.676867 60.9832761,79.5987551 61.0305498,79.5353691 C61.5644283,78.8118731 62.114695,78.0999018 62.6321852,77.3642408 C62.947974,76.9154172 63.2221619,76.4339402 63.4087357,75.9095656 C63.4314272,75.8455394 63.4679855,75.7815132 63.4698765,75.717487 C63.4931982,75.0644198 63.8304178,74.5400453 64.1499885,74.0124694 C64.3012646,73.7634075 64.4998144,73.5450782 64.6662181,73.3049799 C64.8622467,73.0207036 65.0607965,72.7505131 65.1629079,72.3964482 C65.3904523,71.6095662 65.6249302,70.8169219 65.9993385,70.0851025 C66.1978883,69.6964635 66.4638821,69.3443194 66.6952084,68.9729674 C66.9990212,68.4863683 67.31481,68.0061719 67.5921494,67.5042065 C67.6961517,67.3153292 67.7213644,67.0765115 67.7579228,66.8562614 C67.8045662,66.5822293 67.8165423,66.5611006 68.0837967,66.5290875 C68.4033674,66.4906718 68.7216774,66.4356093 69.0431391,66.4067975 C69.3545157,66.3786259 69.3828799,66.408078 69.4717546,66.6993972 C69.5637809,66.9977593 69.5650415,66.9996801 69.8883941,67.0297724 C70.0321064,67.0432179 70.1777096,67.0438581 70.3195309,67.0649868 C70.4783708,67.0893167 70.5432935,67.1911184 70.4657645,67.3306955 C70.2987305,67.6328991 70.3125974,67.9581522 70.4021025,68.2545935 C70.5401419,68.7091795 70.4159694,69.1035809 70.2356988,69.497342 C70.0522765,69.8955849 69.8367081,70.2797421 69.66148,70.6811864 C69.5278528,70.9872316 69.44276,71.30096 69.4635605,71.6588664 C69.4875125,72.0577496 69.4055713,72.4630354 69.3715342,72.8664005 C69.3646007,72.9470735 69.3646007,73.029027 69.3595582,73.1660431 C69.4799487,73.0968948 69.5511746,73.0693635 69.6060121,73.0226244 C70.8496275,71.9591493 72.1020673,70.9071988 73.3274035,69.8232353 C73.8801915,69.3334349 74.3762509,68.7776875 74.901305,68.2552338 C75.1950327,67.9632743 75.4786753,67.6585096 75.7950944,67.3928009 C76.4046109,66.8812316 77.0166487,66.3709428 77.5404421,65.7690966 C77.8039146,65.4656124 78.003725,65.1057852 78.2388333,64.7760502 C78.3693089,64.5929353 78.5004148,64.4066191 78.7601054,64.3950944 C78.9220969,64.3880515 79.0632879,64.4104607 79.1925028,64.5269883 C79.4635391,64.7734892 79.6746953,65.0520032 79.7850008,65.4124706 C79.8316442,65.567414 79.9419497,65.7031496 80.0251516,65.845928 C80.0358669,65.8644956 80.0610796,65.8740995 80.0749466,65.8907463 C80.4613309,66.3408505 80.674378,66.8338522 80.4487246,67.4376192 C80.4222512,67.5093286 80.41973,67.5932029 80.4190997,67.6719551 C80.4172087,68.0426668 80.2930363,68.4037746 80.3497648,68.7828096 C80.3636318,68.8794892 80.2709752,69.0133039 80.1940765,69.0997393 C79.8076922,69.5370382 79.4087016,69.9634527 79.0153838,70.3956295 C78.7229167,70.717041 78.5338216,71.100558 78.3888487,71.5071243 C78.2955618,71.7683512 78.4588139,71.9668324 78.5861379,72.1563499 C78.6800552,72.2959271 78.9145331,72.2844023 79.1401865,72.1422642 C79.5643899,71.8733542 79.9747262,71.582035 80.3982992,71.3124847 C81.1710678,70.819483 81.9507699,70.3386462 82.7229082,69.8456445 C82.8521231,69.763691 82.9737743,69.6574075 83.0714734,69.538959 C83.4736157,69.0555612 83.8663031,68.5644803 84.2589906,68.0727591 C84.2905065,68.0330629 84.2999612,67.9741588 84.3283255,67.9024494 C84.116539,67.8313804 83.9173588,67.7737568 83.7238515,67.7001267 C82.9882716,67.422253 83.1634997,67.1053233 83.4660519,66.6885127 C83.5782483,66.5342096 83.7112452,66.3946325 83.8423511,66.2556957 C83.9721964,66.1186796 84.1121267,65.9899869 84.2552087,65.8510501 C84.1354485,65.6083908 84.0402706,65.367012 83.9047525,65.1538048 C83.7099845,64.8464791 83.8228113,64.5634833 83.9324864,64.2811277 C84.0056032,64.0928907 84.1297756,63.9270629 84.2104562,63.7413869 C84.3289558,63.4711964 84.5388513,63.3649129 84.8124089,63.3322595 C85.1193733,63.2957646 85.4263376,63.250306 85.7301504,63.1939629 C85.9192455,63.1587485 86.0661093,63.0723131 86.1738935,62.878954 C86.693905,61.9435313 87.2567781,61.0324385 87.7578801,60.0874119 C88.0175707,59.5982517 88.2709581,59.1084513 88.6012442,58.6685913 C88.8829959,58.2921173 89.1868086,57.9303693 89.5051187,57.5846278 C90.0270211,57.0192765 90.4814797,56.3995029 90.8325662,55.7182642 C91.1723071,55.0613554 91.4414524,54.3647504 91.7080765,53.6719869 C91.7982118,53.4389316 91.776781,53.1629787 91.8202729,52.9094349 C91.8776317,52.5758584 91.931839,52.2410014 92.0194531,51.9151081 C92.0736603,51.7127853 92.2955319,51.7006203 92.458784,51.658363 C92.6289696,51.614185 92.8130221,51.6135447 92.9907715,51.6129044 C93.2328132,51.6122642 93.4761156,51.8632469 93.4880916,52.1628895 C93.4981767,52.4177137 93.5586871,52.6731783 93.4698124,52.9363259 C93.4231689,53.0746225 93.4742246,53.2487738 93.4817884,53.4062782 C93.4950251,53.6662246 93.5183468,53.9268112 93.5196074,54.1867576 C93.5202378,54.3384996 93.5599477,54.4620702 93.6967265,54.5216146 C93.856827,54.5926836 93.9532655,54.4620702 94.023861,54.3551465 C94.2230412,54.0561441 94.4045725,53.7443365 94.5930372,53.4382913 C94.6220318,53.3915522 94.6478748,53.3428923 94.6743481,53.2980739 C95.2844949,53.5439345 95.5504887,54.3058463 95.2107479,54.8327819 C94.9170202,55.2886484 94.6793907,55.7707657 94.4978594,56.2810545 C94.461301,56.3822158 94.4688648,56.5032254 94.473277,56.6146309 C94.4959684,57.1838238 94.4386096,57.7446933 94.2583389,58.2837939 C94.1890041,58.4925193 94.0679832,58.692281 93.9349863,58.8689933 C93.5240197,59.4183381 93.1035982,59.9599997 92.6718311,60.4926977 C92.4896695,60.7167894 92.4127709,60.9639305 92.4083586,61.2411639 C92.4026858,61.6246808 92.4026858,62.0081978 92.405207,62.3910744 C92.4058374,62.4749487 92.4278985,62.558823 92.444917,62.6779118 C92.5375736,62.6311727 92.6012356,62.6132453 92.6466184,62.5741893 C93.1451992,62.1522567 93.6828595,61.791149 94.2766181,61.5260805 C94.5281146,61.4133944 94.8041934,61.3026291 95.0727084,61.2917446 C96.0812156,61.2520484 97.0178666,60.9562473 97.9419113,60.5759317 C98.8590224,60.1981772 99.7811762,59.8300265 100.713415,59.4926085 C101.129424,59.3421469 101.575058,59.2774805 102.007456,59.1718372 C102.753121,58.9887223 103.502568,58.8171321 104.24382,58.6154496 C104.726013,58.4835556 105.201902,58.3196486 105.670228,58.142296 C105.839153,58.0776295 105.978453,57.9316498 106.13288,57.8247261 C106.175111,57.7959143 106.221755,57.7735051 106.265247,57.7485349 C106.379334,57.8765873 106.299914,57.95662 106.227428,58.0219267 C105.895251,58.3241304 105.625475,58.6807563 105.345614,59.0296991 C104.964903,59.5028527 104.565912,59.9561582 104.059137,60.298058 C103.733264,60.5183082 103.360746,60.5823344 102.985708,60.6297137 C102.720974,60.6636476 102.451829,60.6642879 102.184575,60.6828555 C101.829706,60.708466 101.524003,60.8365184 101.251706,61.0810984 C100.760058,61.5248 100.253284,61.9492937 99.7465087,62.3744276 C99.605948,62.4928761 99.4458475,62.5882751 99.2945715,62.6939183 C99.3090688,62.7291327 99.323566,62.7637069 99.3380633,62.7989213" id="Fill-56" fill="#000000"></path>
            <path d="M37.4911168,74.3033128 C37.4749274,74.1466836 37.3846399,74.0361589 37.1399299,73.8523721 C36.8703129,73.6496383 36.7837615,73.6509014 36.5340701,73.8612141 C36.2239795,74.1220524 36.2258475,74.1201576 36.5153899,74.4005745 C36.6735486,74.5546775 36.8261032,74.7157278 36.9786579,74.8761465 C37.0508878,74.9519348 37.1405525,74.980987 37.2090465,74.9033039 C37.3647144,74.727096 37.4749274,74.523099 37.4911168,74.3033128 M40.7159347,72.9189123 C40.6673663,72.9934375 40.6293833,73.0685943 40.5764562,73.1304881 C39.9438215,73.8612141 39.3043374,74.5849929 38.6797975,75.3226662 C38.5328469,75.4969794 38.4413142,75.7180287 38.3111757,75.9087627 C38.1530171,76.1418119 38.2445499,76.3382301 38.4562583,76.4841226 C38.8404469,76.7500134 39.2613731,76.8630644 39.7377171,76.7013826 C40.1019802,76.5775949 40.4170522,76.373598 40.7059719,76.1399172 C41.2825661,75.6744504 41.5596551,75.0523544 41.5166908,74.2963656 C41.4986333,73.9736335 41.4737264,73.6502699 41.4550462,73.3262747 C41.4450835,73.1595403 41.4089685,72.9858587 41.4407248,72.8260716 C41.5546737,72.2475538 41.6879255,71.6728255 41.8230453,71.0987287 C41.8915392,70.8050489 41.9662599,70.5214741 41.8890486,70.2107419 C41.8099692,69.8892729 41.7732316,69.5558042 41.7203045,69.227388 C41.662396,68.8686565 41.6231677,68.5042408 41.544711,68.1499303 C41.4737264,67.8328824 41.1991281,67.7198314 40.9052269,67.861303 C40.796882,67.9137233 40.6922731,67.9775118 40.5951363,68.0501423 C40.3460676,68.233929 40.1075842,68.4322419 39.8560248,68.6116077 C39.4793083,68.8812879 39.1088185,69.1566522 38.6480413,69.2810714 C38.4269927,69.340439 38.2470405,69.4920157 38.10009,69.689697 C37.5652148,70.4084232 37.2389347,71.2395687 36.8429154,72.0334517 C36.8155178,72.0890298 36.8478967,72.2241857 36.8977105,72.2627115 C37.115023,72.4294458 37.3310902,72.6271271 37.5814043,72.71681 C37.9581208,72.8519659 38.1193928,73.1058569 38.177924,73.4746935 C38.1972268,73.6003759 38.2414365,73.7216372 38.2806648,73.8700561 C38.3796697,73.8245831 38.4500316,73.8119517 38.4917506,73.769005 C38.6374558,73.6199545 38.7943691,73.4753251 38.9076954,73.3029066 C39.2987334,72.7104943 39.9039705,72.567128 40.7159347,72.9189123 M35.3615789,80.9360567 C35.300557,81.5398372 35.2401579,82.1436177 35.177268,82.7473983 C35.1143781,83.3549682 35.0371668,83.961275 34.9861077,84.5694766 C34.9300673,85.2313615 34.9120098,85.9494561 34.9338033,86.5949202 C34.9356713,86.6618666 34.9331806,86.7307077 34.9468794,86.7951278 C35.0066559,87.0768078 34.9201045,87.2523842 34.6455062,87.373014 C34.4717807,87.4494339 34.3210941,87.6035369 34.1928237,87.7513242 C34.112499,87.8435333 34.0844788,87.9881628 34.0471185,88.1132135 C33.9904553,88.3052107 33.9717752,88.5136287 33.8883371,88.6910997 C33.8210886,88.834466 33.7015356,88.9696219 33.5720198,89.0593048 C33.3540846,89.2108815 33.163547,89.1679348 32.9891989,88.9544642 C32.9063835,88.8534131 32.8528338,88.7270992 32.7849625,88.6127851 C32.6934297,88.4586821 32.643616,88.4548927 32.5047602,88.5698384 C32.0614178,88.9348856 31.6180753,89.3005644 31.1691289,89.6580328 C31.0912949,89.7205581 30.9873087,89.7483472 30.8640197,89.8064516 C30.8484529,89.6921375 30.8285274,89.6296121 30.8328861,89.5683499 C30.8864359,88.7946771 30.9318909,88.0197412 31.0047435,87.2473316 C31.0414812,86.860811 31.1454674,86.4806061 31.1902997,86.0940855 C31.2475856,85.5983034 31.1946584,84.6408439 31.1722423,83.729489 C31.1585435,83.1636026 31.1734876,82.5977163 31.1734876,82.0318299 C31.1734876,81.9093054 31.1548074,81.7867809 31.1566755,81.6642564 C31.1591661,81.5322584 31.1734876,81.4008919 31.185941,81.2695254 C31.1915451,81.2038422 31.2145839,81.1375274 31.2133386,81.0724757 C31.2077346,80.7162705 31.1921678,80.3613284 31.1884317,80.0051231 C31.1865637,79.7739686 31.1728649,79.53713 31.2127159,79.3122913 C31.2718698,78.9718753 31.1299006,78.6750375 31.062652,78.3636737 C30.9804593,77.9828373 30.9835727,77.6500001 31.2905499,77.3500045 C31.5763563,77.0708508 31.6535676,76.6698041 31.7637806,76.2965465 C31.8079903,76.1493907 31.8279158,75.9940246 31.8646534,75.8152904 C31.7376284,75.7148709 31.6093579,75.5923464 31.4617847,75.5007688 C30.9536844,75.1868787 30.6161962,74.7182541 30.3665048,74.1946829 C30.1965154,73.8384776 30.1093413,73.4405888 29.9910336,73.0591207 C29.679075,72.0606092 29.3714751,71.060203 29.0588938,70.0616914 C29.0202881,69.9385354 28.9630023,69.821695 28.9032258,69.6751709 C29.2450727,69.5646462 29.5551633,69.4617003 29.8671219,69.3650702 C30.2382344,69.2488614 30.6018748,69.1061267 30.8839452,68.8320255 C31.1940358,68.5295036 31.5464681,68.3065596 31.9536955,68.1941402 C32.3933019,68.0728788 32.7351488,67.8006723 33.0863357,67.5335184 C33.1349041,67.4968873 33.195926,67.4747824 33.2687786,67.4375198 C33.3024029,67.5139397 33.3335365,67.5701494 33.3528393,67.6307801 C33.4985445,68.0855102 33.6367777,68.5433981 33.7893323,68.9962335 C33.8273153,69.1067582 33.8933185,69.2179145 33.9723979,69.3038079 C34.1803703,69.5273836 34.4026641,69.7370647 34.6479969,69.9808505 C34.7519831,69.7825377 34.8678001,69.5760144 34.9692956,69.3631755 C35.3509935,68.5610821 35.850999,67.8429875 36.4755389,67.2202599 C36.676662,67.0194207 36.9163907,66.8539495 37.1536287,66.6954255 C37.9089297,66.1920646 38.4238794,65.5099694 38.6872696,64.6320877 C38.7408194,64.4546166 38.8012185,64.2784087 38.8659764,64.0794643 C39.1729537,64.1824101 39.4780629,64.2904085 39.7875309,64.385144 C40.1542846,64.4981949 40.5235291,64.6061933 40.8958869,64.699034 C40.9948917,64.7236653 41.1169354,64.7028235 41.2159402,64.6661924 C41.3697402,64.6099827 41.5123321,64.521563 41.660528,64.4483009 C41.9064834,64.3270395 42.1524388,64.2051466 42.4008849,64.0883062 C42.730901,63.9342033 43.0304062,63.990413 43.3355154,64.1899889 C43.7128546,64.4369327 44.1082513,64.6573504 44.5067613,64.8695578 C44.7184697,64.9832404 44.9507264,65.0590287 45.1761336,65.1468169 C45.3243295,65.2036581 45.4027862,65.302183 45.4301837,65.4638648 C45.5310566,66.0600665 45.7191035,66.6297423 45.9687949,67.1785763 C46.3069058,67.9219337 46.4314402,68.709501 46.4513657,69.5191732 C46.4557244,69.7193807 46.4034199,69.8899045 46.217241,70.0016923 C46.0223447,70.1204274 45.9040371,70.3054773 45.8087683,70.5138953 C45.5080177,71.1719908 45.2813651,71.854086 45.0989223,72.5551282 C44.9034033,73.3079592 44.7259418,74.0683689 44.4307953,74.7896214 C44.0223225,75.7849751 43.600151,76.7740131 43.172998,77.7624195 C43.0142167,78.1287299 42.8280378,78.4830404 42.6518217,78.8417719 C42.4220557,79.3072387 42.015451,79.6078658 41.6318851,79.9204928 C40.8261476,80.576062 39.9930126,81.1950002 39.1119318,81.7450973 C38.9531505,81.8442538 38.7987279,81.9655151 38.6256251,82.0255142 C37.7495257,82.3286676 36.9114093,82.2642475 36.162335,81.67373 C35.9487585,81.5051009 35.7831278,81.2739464 35.5957035,81.0724757 C35.5402857,81.0124766 35.4829999,80.9537406 35.4269594,80.8956362 C35.4051659,80.9088992 35.3833724,80.9221622 35.3615789,80.9360567" id="Fill-58" fill="#000000"></path>
            <path d="M52.1741901,69.1881015 C52.2607543,69.1561272 52.3239398,69.1391996 52.3808069,69.1103601 C52.7201133,68.9398304 53.089117,68.9166333 53.456857,68.9116177 C53.7190771,68.9078561 53.8530305,69.1047175 53.9478088,69.3078485 C54.1392611,69.7197529 54.0741799,70.1109681 53.7835263,70.4564161 C53.5339434,70.754843 53.2805693,71.0520161 53.0095032,71.3310077 C52.564045,71.7880523 52.2696003,72.3353774 52.0952081,72.9322313 C51.9953749,73.2739176 51.9126018,73.6312776 51.9517769,74.0086999 C51.9941112,74.4187235 51.8778498,74.8212237 51.7306274,75.2042886 C51.5688724,75.6262242 51.378052,76.0375017 51.2023961,76.4550486 C51.1910227,76.4826343 51.2005005,76.5183703 51.1998687,76.5917231 C51.2807462,76.5666452 51.36036,76.5641375 51.408381,76.5233859 C52.1040541,75.9403248 52.9014559,75.5221509 53.7184452,75.1422208 C54.3054391,74.8701256 54.8166103,74.5077501 55.2437447,74.031897 C55.5261842,73.7177964 55.7688167,73.3679597 56.0619977,73.0657711 C56.2995755,72.8200077 56.5864379,72.6218923 56.8511854,72.4024607 C57.2024972,72.1109302 57.5601274,71.8269231 57.8994339,71.5234805 C58.0295962,71.4068683 58.1338523,71.2538931 58.2210484,71.1015449 C58.507279,70.6024948 58.7789769,70.0952944 59.0582571,69.5931095 C59.1505081,69.4263415 59.2648739,69.2877862 59.4449528,69.1937441 C59.7507709,69.0344994 60.0407926,68.8464152 60.3402922,68.6752586 C60.498888,68.5843512 60.6075671,68.4602156 60.7092959,68.3053596 C60.9152808,67.9918859 61.14654,67.6909512 61.3917,67.4063171 C61.619168,67.1423722 61.9395188,67.0207444 62.26682,67.1467609 C62.6010716,67.2752851 62.8923571,67.4978514 62.9517515,67.8984708 C62.9940858,68.1874935 62.9896629,68.4696198 62.8361219,68.7335647 C62.7931558,68.8069175 62.7621948,68.8865398 62.7457666,68.992494 C63.1608957,68.8533116 63.5482232,68.6671083 64,68.4508114 C63.9879947,68.5887398 64.0031593,68.6765125 63.9715665,68.7410881 C63.6537431,69.4018906 63.4149017,70.0865171 63.2582015,70.802491 C63.2221857,70.9667512 63.1236162,71.1316384 63.0124097,71.2620435 C62.5871708,71.7610936 62.1410807,72.2432161 61.7107871,72.7391315 C61.4188698,73.0764292 61.1591771,73.43567 61.0625032,73.8839374 C61.0530254,73.9278237 61.0296467,73.9710831 61.032806,74.0130886 C61.0713492,74.6657408 60.7636355,75.2136928 60.463504,75.7516137 C59.9984583,76.5841998 59.5037154,77.4011122 59.0026538,78.213636 C58.8232068,78.5039126 58.7031543,78.8017127 58.6690341,79.1396373 C58.6045848,79.7803775 58.4617854,80.406071 58.262119,81.0173447 C58.2178891,81.1527653 58.1635496,81.2957093 58.0738261,81.4016634 C57.9948441,81.4950786 57.8659456,81.5834782 57.7484204,81.5997788 C57.382576,81.6505615 57.0116768,81.6411573 56.6553102,81.5289338 C56.5270435,81.4875552 56.4291059,81.501975 56.3071577,81.5508769 C55.850958,81.7326917 55.3909671,81.9044752 54.927185,82.0637199 C54.76543,82.1195182 54.5626043,82.2123064 54.4223324,82.0555696 C54.270687,81.8856668 54.4172775,81.7000904 54.481095,81.5308146 C54.5190063,81.4286222 54.5866149,81.3370879 54.6441137,81.2430458 C54.756584,81.0568424 54.7471062,81.0129561 54.5518628,80.9145253 C54.393267,80.8342761 54.2327757,80.7596693 54.0571198,80.6744045 C54.0811304,80.5997977 54.0861852,80.5314605 54.1209373,80.4831855 C54.5998838,79.8117249 55.0067988,79.1026474 55.3119851,78.3371446 C55.4573119,77.9722613 55.4250873,77.5992276 55.369484,77.2261939 C55.360638,77.1691417 55.2999799,77.1196128 55.233635,77.0243168 C55.1369611,77.1233745 55.0440783,77.1948465 54.9815246,77.2863808 C54.6637012,77.7547105 54.3604105,78.2336983 54.0381642,78.6988933 C53.8429208,78.9803927 53.6154528,79.2405758 53.4126271,79.5183135 C53.0423597,80.0255139 52.4945409,80.2819354 51.9479857,80.5327144 C51.5935147,80.6950937 51.2194562,80.8142137 50.8605622,80.965935 C50.7405096,81.0167177 50.612243,81.0881897 50.5326291,81.1866205 C50.1478291,81.6605927 49.7807209,82.1477308 49.4035031,82.6273456 C49.1697166,82.9232647 48.927084,83.2129144 48.6901381,83.5069527 C48.5896731,83.6310883 48.4689887,83.6317153 48.3293486,83.5821864 C48.0557551,83.4862635 47.7739475,83.4122837 47.5073044,83.301314 C47.2273924,83.1840748 46.9455847,83.1790593 46.6536674,83.2085258 C46.4900168,83.2248264 46.3257344,83.229842 46.1589245,83.2405001 C46.0818381,82.9621355 46.0192844,82.717626 45.9472528,82.4762512 C45.7937119,81.966543 45.3817421,81.8913093 44.931229,82.0693624 C44.769474,82.1326841 44.6102463,82.2029022 44.4326949,82.276882 C44.4093163,82.1972597 44.3789872,82.1508656 44.3890969,82.1170104 C44.6576355,81.2537039 44.85667,80.3659464 45.2717992,79.5540495 C45.4632514,79.1803889 45.6932469,78.8236558 46.0660417,78.5916853 C46.7674015,78.1553299 47.0473135,77.4656878 47.1856899,76.7070815 C47.2191782,76.5252667 47.1319822,76.319628 47.0896478,76.1271551 C46.9860235,75.6531829 46.8811355,75.1798376 47.0789063,74.7039846 C47.1117628,74.6249892 47.1471467,74.5403513 47.20275,74.4776566 C47.8169137,73.781745 48.309761,73.0043302 48.7210991,72.1805214 C48.8771674,71.8683016 48.9258203,71.5046721 49.0332357,71.1673744 C49.1703484,70.7379155 49.2695497,70.2865133 49.4723754,69.8877748 C49.7004753,69.4363727 50.0132438,69.0250952 50.3133752,68.6138177 C50.428373,68.4570809 50.598974,68.3329453 50.7632564,68.2213487 C51.1246779,67.9743314 51.491786,68.0432956 51.7584291,68.3943862 C51.8449933,68.5091175 51.9227115,68.6319992 51.9896882,68.7580156 C52.0554012,68.8840321 52.1021585,69.0181988 52.1741901,69.1881015" id="Fill-60" fill="#000000"></path>
        </g>
    </g>
</svg>