<?xml version="1.0" encoding="UTF-8"?>
<svg width="97px" height="102px" viewBox="0 0 97 102" version="1.1" xmlns="http://www.w3.org/2000/svg" xmlns:xlink="http://www.w3.org/1999/xlink">
    <!-- Generator: Sketch 42 (36781) - http://www.bohemiancoding.com/sketch -->
    <title>sticker_confetti_white</title>
    <desc>Created with Sketch.</desc>
    <defs></defs>
    <g id="Page-1" stroke="none" stroke-width="1" fill="none" fill-rule="evenodd">
        <g id="stickers-black" transform="translate(-184.000000, -459.000000)" fill-rule="nonzero" fill="#FFFFFF">
            <g id="sticker_confetti_white" transform="translate(184.000000, 459.000000)">
                <path d="M38.7353333,64.0995366 L38.7353333,64.0995366 C38.6370897,64.0995366 38.5388462,64.0958049 38.439359,64.0870976 C38.0973718,64.0597317 37.8424359,63.7587073 37.8697949,63.4166341 L38.3510641,57.554122 C38.3647436,57.3899268 38.4430897,57.2369268 38.5686923,57.1299512 C38.6942949,57.0242195 38.8547179,56.9719756 39.021359,56.9856585 C40.9787692,57.1473659 42.4399872,58.8714146 42.2795641,60.8293171 C42.1315769,62.6628293 40.5746026,64.0995366 38.7353333,64.0995366 Z M39.5337179,58.3614146 L39.1693462,62.8145854 C40.1679487,62.6217805 40.9576282,61.7746829 41.0409487,60.728561 C41.128,59.6687561 40.4850641,58.713439 39.5337179,58.3614146 Z" id="Shape"></path>
                <path d="M11.6238333,46.5965854 L11.6238333,46.5965854 C10.1762949,46.5965854 8.88544872,45.7320732 8.33329487,44.3936341 C8.20271795,44.076439 8.35319231,43.7132195 8.67030769,43.5813659 L14.1047949,41.3323902 C14.2565128,41.2689512 14.4281282,41.2689512 14.5810897,41.3323902 C14.7328077,41.3958293 14.8546795,41.5164878 14.916859,41.6694878 C15.6667436,43.4843415 14.7999615,45.5728537 12.9855641,46.3229268 C12.5503077,46.5057805 12.0926667,46.5965854 11.6238333,46.5965854 Z M9.797,44.4620488 C10.2285256,45.0168293 10.8963333,45.3526829 11.6238333,45.3526829 L11.6238333,45.3526829 C11.9272692,45.3526829 12.2244872,45.2929756 12.5080256,45.1748049 C13.4904615,44.7680488 14.0463462,43.7604878 13.9257179,42.7529268 L9.797,44.4620488 Z" id="Shape"></path>
                <path d="M48.3171923,35.8131951 C48.2985385,35.8131951 48.2811282,35.8131951 48.2624744,35.8107073 L42.4039231,35.2932439 C42.2397692,35.2783171 42.0880513,35.1999512 41.9823462,35.0730732 C41.876641,34.9461951 41.8256538,34.7832439 41.8393333,34.6190488 C42.0121923,32.6611463 43.7059615,31.2008049 45.7031667,31.3849024 C46.6482949,31.467 47.5076154,31.9148049 48.1182179,32.6437317 C48.7300641,33.3739024 49.0210641,34.298122 48.9365,35.2459756 C48.9078974,35.5693902 48.6355513,35.8131951 48.3171923,35.8131951 Z M43.2147436,34.1152683 L47.6692821,34.5083415 C47.5971538,34.119 47.4267821,33.7532927 47.1656282,33.4410732 C46.7676795,32.9671463 46.2093077,32.6760732 45.5937308,32.6225854 C44.4993718,32.5268049 43.5679231,33.1649268 43.2147436,34.1152683 Z" id="Shape"></path>
                <path d="M65.1255513,15.4865854 L65.1255513,15.4865854 C64.6442821,15.4865854 64.1742051,15.389561 63.7302436,15.2004878 C63.4143718,15.0661463 63.2676282,14.700439 63.4019359,14.3844878 L65.7075513,8.9735122 C65.7722179,8.8217561 65.8940897,8.70234146 66.0470513,8.64014634 C66.1987692,8.57919512 66.3703846,8.57919512 66.5233462,8.64512195 C68.3290385,9.41634146 69.1721923,11.513561 68.4011667,13.3209512 C67.8427949,14.637 66.5569231,15.4865854 65.1255513,15.4865854 Z M64.823359,14.2227805 C65.8281795,14.357122 66.854141,13.782439 67.2583077,12.8333415 C67.6749103,11.8543902 67.3665,10.7460732 66.5755769,10.1116829 L64.823359,14.2227805 Z" id="Shape"></path>
                <path d="M34.8913974,6.3252439 C34.7247564,6.3252439 34.5568718,6.25807317 34.435,6.12497561 L30.4430769,1.80614634 C30.3311538,1.6854878 30.2714615,1.52378049 30.2789231,1.35958537 C30.285141,1.19414634 30.3572692,1.03865854 30.4778974,0.926707317 C31.8657436,-0.355756098 34.2298077,-0.261219512 35.5119487,1.12573171 C36.1573718,1.82356098 36.493141,2.73160976 36.4558333,3.68195122 C36.4185256,4.63353659 36.0131154,5.51297561 35.3142179,6.15856098 C35.1935897,6.2717561 35.0418718,6.3252439 34.8913974,6.3252439 Z M31.8346538,1.4814878 L34.8677692,4.76290244 C35.0754487,4.42704878 35.1948333,4.04143902 35.211,3.63468293 C35.2358718,3.01521951 35.017,2.42560976 34.5966667,1.97158537 C33.9002564,1.21778049 32.7325256,1.02373171 31.8346538,1.4814878 Z" id="Shape"></path>
                <path d="M89.6056154,10.187561 C89.3718205,10.187561 89.1467308,10.0544634 89.0422692,9.82682927 L86.5662821,4.49173171 C86.4953974,4.34246341 86.4891795,4.17080488 86.545141,4.01656098 C86.6023462,3.86107317 86.718,3.73543902 86.8672308,3.66578049 C88.6045256,2.86221951 90.7982179,3.6732439 91.5978462,5.39978049 C91.9995256,6.26056098 92.0405641,7.22831707 91.7135,8.12268293 C91.3864359,9.01704878 90.7310641,9.72980488 89.8680128,10.1303415 C89.7822051,10.1701463 89.6926667,10.187561 89.6056154,10.187561 Z M87.9901923,4.60990244 L89.8729872,8.66502439 C90.1739359,8.40878049 90.4064872,8.07790244 90.5457692,7.69602439 C90.7584231,7.11512195 90.7310641,6.48570732 90.4699103,5.92470732 C90.037141,4.99178049 88.9863077,4.44446341 87.9901923,4.60990244 Z" id="Shape"></path>
                <path d="M78.5364231,33.9859024 L78.5364231,33.9859024 C77.718141,33.9859024 76.9160256,33.6998049 76.2830385,33.1798537 C75.5468333,32.5802927 75.0891923,31.7269756 74.9934359,30.7803659 C74.8989231,29.8325122 75.1774872,28.904561 75.7818718,28.1669268 C75.9995,27.9007317 76.3899872,27.8634146 76.6561154,28.0798537 L81.2088974,31.8040976 C81.3369872,31.9085854 81.4178205,32.0603415 81.4339872,32.2245366 C81.4513974,32.3887317 81.4016538,32.5529268 81.2971923,32.6798049 C80.6144615,33.5094878 79.609641,33.9859024 78.5364231,33.9859024 Z M76.4136154,29.4891951 C76.2544359,29.8511707 76.1897692,30.2504634 76.2308077,30.6559756 C76.2929872,31.2717073 76.5902051,31.8264878 77.0702308,32.2170732 C77.8686154,32.870122 79.0587308,32.8962439 79.8745256,32.3203171 L76.4136154,29.4891951 Z" id="Shape"></path>
                <path d="M89.2536795,97.4124878 C89.2424872,97.4124878 89.2325385,97.4124878 89.2225897,97.4112439 C87.2614487,97.3129756 85.7442692,95.637439 85.8412692,93.6770488 C85.9295641,91.7776098 87.4902692,90.2874146 89.3929615,90.2874146 L89.5707949,90.2923902 C89.9140256,90.3098049 90.1776667,90.600878 90.1615,90.9429512 L89.8754744,96.8203902 C89.8680128,96.9858293 89.794641,97.1400732 89.6727692,97.2507805 C89.5558718,97.3552683 89.4078846,97.4124878 89.2536795,97.4124878 Z M88.8843333,91.6059512 C87.8533974,91.851 87.1321154,92.6993415 87.0823718,93.7367561 C87.030141,94.7990488 87.7041667,95.7319756 88.6667051,96.0529024 L88.8843333,91.6059512 Z" id="Shape"></path>
                <path d="M72.0511026,63.4576829 L72.0511026,63.4576829 C71.2315769,63.4576829 70.4307051,63.1715854 69.7964744,62.6516341 C69.0615128,62.0520732 68.6038718,61.1987561 68.5081154,60.2509024 C68.4136026,59.3030488 68.6921667,58.3750976 69.2965513,57.6387073 C69.5141795,57.3725122 69.9046667,57.3339512 70.1707949,57.5516341 L74.7235769,61.275878 C74.8516667,61.3803659 74.9325,61.530878 74.9486667,61.6950732 C74.9660769,61.8605122 74.9163333,62.0247073 74.8118718,62.1515854 C74.1278974,62.9812683 73.1230769,63.4576829 72.0511026,63.4576829 Z M69.9282949,58.9597317 C69.7678718,59.3217073 69.7032051,59.721 69.7442436,60.1265122 C69.8064231,60.7422439 70.103641,61.2957805 70.5836667,61.6876098 C71.004,62.0321707 71.510141,62.2137805 72.0511026,62.2137805 L72.0511026,62.2137805 C72.5373462,62.2137805 73.0012051,62.0645122 73.3879615,61.7908537 L69.9282949,58.9597317 Z" id="Shape"></path>
                <path d="M26.5804872,21.9573659 L26.5804872,21.9573659 C25.9636667,21.9573659 25.3543077,21.7956585 24.8170769,21.4884146 C24.5186154,21.318 24.4153974,20.9386098 24.5857692,20.6400732 L27.5007436,15.5313659 C27.5815769,15.3883171 27.7171282,15.2838293 27.8775513,15.2402927 C28.0354872,15.1955122 28.205859,15.2179024 28.3501154,15.3 C30.0550769,16.2764634 30.6495128,18.4582683 29.6757821,20.1624146 C29.0452821,21.2682439 27.8588974,21.9573659 26.5804872,21.9573659 Z M26.0158974,20.642561 C27.0033077,20.8938293 28.0914487,20.4310976 28.5951026,19.5441951 C29.1223846,18.6212195 28.9433077,17.4842927 28.2307308,16.7615854 L26.0158974,20.642561 Z" id="Shape"></path>
                <path d="M7.08846154,7.45346341 L7.08846154,7.45346341 C6.61962821,7.45346341 6.1595,7.36141463 5.723,7.17980488 C4.84502564,6.81658537 4.16105128,6.13243902 3.79667949,5.253 C3.43230769,4.37231707 3.43230769,3.40456098 3.79667949,2.52512195 C3.9285,2.20668293 4.29411538,2.05865854 4.60874359,2.18926829 L10.0419872,4.44073171 C10.1949487,4.50417073 10.3155769,4.62482927 10.379,4.77782927 C10.4424231,4.93082927 10.4424231,5.1012439 10.379,5.2542439 C9.82435897,6.58895122 8.53226923,7.45346341 7.08846154,7.45346341 Z M4.78657692,3.60856098 C4.73807692,4.00039024 4.79155128,4.40217073 4.947,4.77658537 C5.18452564,5.34878049 5.62848718,5.79409756 6.20053846,6.03043902 C6.48532051,6.14860976 6.78502564,6.20831707 7.08970513,6.20956098 L7.08970513,6.20956098 C7.81596154,6.20956098 8.48376923,5.87370732 8.91653846,5.32017073 L4.78657692,3.60856098 Z" id="Shape"></path>
                <path d="M14.2726795,77.5063171 C14.1856282,77.5063171 14.0973333,77.4876585 14.0140128,77.4490976 L8.67155128,74.9911463 C8.52107692,74.9214878 8.40542308,74.7970976 8.34821795,74.6428537 C8.29101282,74.4873659 8.29723077,74.3157073 8.36687179,74.166439 C9.16152564,72.4374146 11.3514872,71.616439 13.0912692,72.42 C13.9555641,72.8168049 14.6134231,73.5270732 14.9429744,74.4189512 C15.2737692,75.3120732 15.2352179,76.2798293 14.8385128,77.1430976 C14.7328077,77.3719756 14.5077179,77.5063171 14.2726795,77.5063171 Z M9.8330641,74.1564878 L13.8908974,76.0235854 C13.9543205,75.6342439 13.9170128,75.2312195 13.7764872,74.8518293 C13.5613462,74.2696829 13.1335513,73.8081951 12.5714487,73.5494634 C11.6288077,73.1165854 10.4784872,73.3964634 9.8330641,74.1564878 Z" id="Shape"></path>
                <path d="M1.37167949,62.9228049 C1.26597436,62.9228049 1.16151282,62.8966829 1.067,62.8431951 C0.92274359,62.7635854 0.817038462,62.628 0.773512821,62.4687805 C0.24374359,60.5768049 1.35178205,58.6077073 3.24203846,58.0778049 C5.09125641,57.552878 7.11582051,58.6997561 7.63191026,60.5444634 C7.72517949,60.8753415 7.53117949,61.2186585 7.20162821,61.3107073 L1.5395641,62.8991707 C1.48360256,62.9153415 1.42764103,62.9228049 1.37167949,62.9228049 Z M4.20582051,59.1873659 C3.99441026,59.1873659 3.783,59.2159756 3.57780769,59.274439 C2.55433333,59.5605366 1.88279487,60.4959512 1.88403846,61.5109756 L6.18437179,60.3031463 C5.7715,59.6264634 5.02534615,59.1873659 4.20582051,59.1873659 Z" id="Shape"></path>
                <path d="M53.5377821,92.4070244 C53.4183974,92.4070244 53.3027436,92.373439 53.2007692,92.3075122 C53.0614872,92.2191951 52.9644872,92.0773902 52.9296667,91.9169268 C52.5155513,89.9975854 53.738,88.0981463 55.6556154,87.681439 C57.5433846,87.2672195 59.4858718,88.5322683 59.8900385,90.4080732 C59.9634103,90.7439268 59.7507564,91.073561 59.4137436,91.1469512 L53.6671154,92.3933415 C53.6260769,92.4020488 53.5813077,92.4070244 53.5377821,92.4070244 Z M56.4154487,88.842 C56.2500513,88.842 56.0834103,88.8606585 55.9217436,88.8954878 C54.8833462,89.121878 54.1570897,90.0137561 54.0973974,91.0275366 L58.4611538,90.0809268 C58.0669359,89.3370732 57.2822308,88.842 56.4154487,88.842 Z" id="Shape"></path>
                <path d="M77.1137564,85.0742195 C76.9458718,85.0742195 76.7779872,85.0058049 76.6561154,84.8739512 L72.674141,80.5464146 C72.5622179,80.4245122 72.5037692,80.2628049 72.5099872,80.0998537 C72.5174487,79.9344146 72.5883333,79.7789268 72.7102051,79.6669756 C74.1030256,78.3894878 76.463359,78.4865122 77.7430128,79.8759512 C78.3884359,80.5750244 78.7217179,81.485561 78.6819231,82.4371463 C78.6433718,83.3887317 78.2354744,84.2669268 77.5340897,84.9100244 C77.4147051,85.0194878 77.2642308,85.0742195 77.1137564,85.0742195 Z M74.0682051,80.223 L77.093859,83.511878 C77.3040256,83.1760244 77.4234103,82.7916585 77.4395769,82.3849024 C77.4656923,81.7666829 77.2493077,81.1745854 76.8302179,80.7193171 C76.1375385,79.9692439 74.9523974,79.7689756 74.0682051,80.223 Z" id="Shape"></path>
                <path d="M10.6215,100.139122 C10.4113333,100.139122 10.206141,100.032146 10.0892436,99.8393415 L7.04120513,94.809 C6.95539744,94.668439 6.93052564,94.4992683 6.96907692,94.3388049 C7.00762821,94.1783415 7.10960256,94.0402683 7.25137179,93.954439 C7.80725641,93.6173415 8.44397436,93.4394634 9.09188462,93.4394634 C10.3503974,93.4394634 11.4907692,94.082561 12.1436538,95.1572927 C12.6361154,95.969561 12.7841026,96.9273659 12.5577692,97.8515854 C12.3301923,98.7758049 11.7568974,99.5569756 10.9435897,100.049561 C10.8416154,100.109268 10.7309359,100.139122 10.6215,100.139122 Z M8.47133333,94.770439 L10.7868974,98.5917073 C11.058,98.3056098 11.2532436,97.9498537 11.349,97.5555366 C11.4969872,96.9547317 11.4012308,96.3327805 11.0803846,95.804122 C10.5468846,94.923439 9.4575,94.490561 8.47133333,94.770439 Z" id="Shape"></path>
                <ellipse id="Oval" cx="94.7117949" cy="62.3593171" rx="1.88279487" ry="1.88326829"></ellipse>
                <ellipse id="Oval" cx="69.8375128" cy="37.4787805" rx="1.88279487" ry="1.88326829"></ellipse>
                <ellipse id="Oval" cx="50.5767949" cy="49.9190488" rx="1.88279487" ry="1.88326829"></ellipse>
                <ellipse id="Oval" cx="30.2727051" cy="33.341561" rx="1.88279487" ry="1.88326829"></ellipse>
                <ellipse id="Oval" cx="44.9632308" cy="74.7995854" rx="1.88279487" ry="1.88326829"></ellipse>
                <ellipse id="Oval" cx="20.0889487" cy="62.3593171" rx="1.88279487" ry="1.88326829"></ellipse>
                <ellipse id="Oval" cx="4.14737179" cy="86.3355366" rx="1.88279487" ry="1.88326829"></ellipse>
                <ellipse id="Oval" cx="29.5240641" cy="91.7850732" rx="1.88279487" ry="1.88326829"></ellipse>
                <ellipse id="Oval" cx="69.8375128" cy="99.680122" rx="1.88279487" ry="1.88326829"></ellipse>
                <ellipse id="Oval" cx="44.9632308" cy="12.5982439" rx="1.88279487" ry="1.88326829"></ellipse>
                <ellipse id="Oval" cx="7.65180769" cy="25.0385122" rx="1.88279487" ry="1.88326829"></ellipse>
                <ellipse id="Oval" cx="94.7117949" cy="25.0385122" rx="1.88279487" ry="1.88326829"></ellipse>
            </g>
        </g>
    </g>
</svg>