<?xml version="1.0" encoding="UTF-8"?>
<svg width="128px" height="169px" viewBox="0 0 128 169" version="1.1" xmlns="http://www.w3.org/2000/svg" xmlns:xlink="http://www.w3.org/1999/xlink">
    <!-- Generator: Sketch 48.1 (47250) - http://www.bohemiancoding.com/sketch -->
    <title>sticker_friday_black</title>
    <desc>Created with Sketch.</desc>
    <defs>
        <polygon id="path-1" points="0.565355799 0.203294118 119.02347 0.203294118 119.02347 59.2063582 0.565355799 59.2063582"></polygon>
        <polygon id="path-3" points="0.000167320261 0.789667974 127.954824 0.789667974 127.954824 116.287582 0.000167320261 116.287582"></polygon>
    </defs>
    <g id="stickers-white" stroke="none" stroke-width="1" fill="none" fill-rule="evenodd" transform="translate(-397.000000, -178.000000)">
        <g id="sticker_friday_black" transform="translate(397.000000, 178.000000)">
            <g id="Group-3" transform="translate(4.183007, 0.633307)">
                <mask id="mask-2" fill="white">
                    <use xlink:href="#path-1"></use>
                </mask>
                <g id="Clip-2"></g>
                <path d="M92.9734275,51.5430902 L92.9675712,51.5456 L92.965898,51.5456 C82.4381072,44.224502 89.6203294,38.1499399 92.8554667,43.3310118 L92.8579765,43.3310118 C95.9467085,38.0637699 103.296251,43.9358745 92.9734275,51.5430902 M60.1251137,56.4439007 L60.1167477,56.4480837 L60.1142379,56.4480837 C42.5012706,44.2019137 54.5165386,34.0380444 59.929349,42.7060706 L59.9326954,42.7060706 C65.0995451,33.8949856 77.3942379,43.7175216 60.1251137,56.4439007 M27.6465778,51.5430902 L27.6407216,51.5456 L27.6390484,51.5456 C17.1112575,44.224502 24.2934797,38.1499399 27.5294536,43.3310118 L27.5311268,43.3310118 C30.6198588,38.0637699 37.9694013,43.9358745 27.6465778,51.5430902 M118.855362,20.7352471 C118.685532,20.4993255 118.4128,20.3587765 118.123336,20.3587765 L112.718055,20.3587765 C112.451179,20.3587765 112.198525,20.4767373 112.027859,20.6800314 L99.9113621,35.1097307 L94.0442771,35.1097307 L100.081192,10.1731556 C100.14561,9.90460654 100.083702,9.62183529 99.9130353,9.40431895 C99.7423686,9.18763922 99.481349,9.06047582 99.2052706,9.06047582 L87.4945255,9.06047582 C87.1105255,9.06047582 86.7691922,9.3039268 86.643702,9.66617516 L77.8443294,35.1097307 L69.7510484,35.1097307 L71.0528,10.0083451 C71.0670222,9.72892026 70.9515712,9.45869804 70.7390745,9.27631895 L60.3794405,0.419220915 C60.0514928,0.138122876 59.5687739,0.129756863 59.2307869,0.401652288 L48.1960157,9.25875033 C47.9676235,9.44196601 47.8429699,9.72473725 47.8605386,10.0158745 L49.3798065,35.1097307 L40.8481464,35.1097307 L32.2721464,9.67370458 C32.1483294,9.3072732 31.8053229,9.06047582 31.4188131,9.06047582 L20.8341333,9.06047582 C20.5597281,9.06047582 20.3012183,9.18429281 20.1305516,9.39929935 C19.959885,9.61263268 19.8937935,9.89205752 19.955702,10.1589333 L25.5634405,35.1097307 L19.2320418,35.1097307 L7.34142745,20.6867242 C7.16992418,20.4792471 6.91559739,20.3587765 6.64621176,20.3587765 L1.46597647,20.3587765 C1.17149281,20.3587765 0.894577778,20.5035085 0.726420915,20.7452863 C0.558264052,20.9870641 0.518943791,21.2966065 0.621845752,21.572685 L14.3588392,58.6190641 C14.4901856,58.9721098 14.8273359,59.2063582 15.2038065,59.2063582 L105.511571,59.2063582 C105.897244,59.2063582 106.239414,58.961234 106.364905,58.5964758 L118.975833,21.5500967 C119.068695,21.2748549 119.024356,20.9711686 118.855362,20.7352471" id="Fill-1" fill="#000000" mask="url(#mask-2)"></path>
            </g>
            <path d="M44.1948026,148.233956 C44.1504627,147.989668 44.0919007,147.791393 44.0191163,147.640805 C43.946332,147.490217 43.8551425,147.353851 43.7430379,147.230871 C43.5765542,147.041799 43.3674039,146.888701 43.1164235,146.77074 C42.8654431,146.653616 42.5776523,146.59589 42.2555608,146.59589 C41.9317961,146.59589 41.6448418,146.653616 41.3938614,146.77074 C41.1437176,146.888701 40.9287111,147.041799 40.750515,147.230871 C40.6384105,147.353851 40.5463843,147.490217 40.4744366,147.640805 C40.4016523,147.791393 40.3430902,147.989668 40.2987503,148.233956 C40.2544105,148.47908 40.2234562,148.789459 40.2067242,149.161746 C40.1899922,149.535707 40.1816261,150.006714 40.1816261,150.574766 C40.1816261,151.143655 40.1899922,151.615498 40.2067242,151.987786 C40.2234562,152.361746 40.2544105,152.667942 40.2987503,152.908047 C40.3430902,153.148152 40.4016523,153.342243 40.4744366,153.492831 C40.5463843,153.64342 40.6384105,153.779786 40.750515,153.902766 C40.9287111,154.092675 41.1437176,154.248282 41.3938614,154.371263 C41.6448418,154.493407 41.9317961,154.555315 42.2555608,154.555315 C42.5776523,154.555315 42.8654431,154.493407 43.1164235,154.371263 C43.3674039,154.248282 43.5765542,154.092675 43.7430379,153.902766 C43.8551425,153.779786 43.946332,153.64342 44.0191163,153.492831 C44.0919007,153.342243 44.1504627,153.148152 44.1948026,152.908047 C44.2391425,152.667942 44.2734431,152.361746 44.2951948,151.987786 C44.317783,151.615498 44.3286588,151.143655 44.3286588,150.574766 C44.3286588,150.006714 44.317783,149.535707 44.2951948,149.161746 C44.2734431,148.789459 44.2391425,148.47908 44.1948026,148.233956" id="Fill-4" fill="#000000"></path>
            <path d="M62.8737673,139.164946 C63.0519634,139.354855 63.2669699,139.510463 63.5171137,139.633443 C63.7672575,139.756424 64.0550484,139.816659 64.3779765,139.816659 C64.7017412,139.816659 64.9878588,139.756424 65.2388392,139.633443 C65.4906562,139.510463 65.6998065,139.354855 65.8662902,139.164946 C65.9775582,139.042803 66.0695843,138.9056 66.1423686,138.755012 C66.2143163,138.604424 66.2728784,138.409495 66.3180549,138.170227 C66.3615582,137.930123 66.3958588,137.623927 66.4176105,137.249966 C66.4410353,136.876842 66.4510745,136.405835 66.4510745,135.836946 C66.4510745,135.268894 66.4410353,134.797888 66.4176105,134.423927 C66.3958588,134.050803 66.3615582,133.74126 66.3180549,133.496136 C66.2728784,133.251012 66.2143163,133.052737 66.1423686,132.902986 C66.0695843,132.751561 65.9775582,132.615195 65.8662902,132.493051 C65.6998065,132.303142 65.4906562,132.150044 65.2388392,132.03292 C64.9878588,131.915796 64.7017412,131.857234 64.3779765,131.857234 C64.0550484,131.857234 63.7672575,131.915796 63.5171137,132.03292 C63.2669699,132.150044 63.0519634,132.303142 62.8737673,132.493051 C62.7608261,132.615195 62.6696366,132.751561 62.5976889,132.902986 C62.5249046,133.052737 62.4663425,133.251012 62.4220026,133.496136 C62.3768261,133.74126 62.3458719,134.050803 62.3299765,134.423927 C62.3124078,134.797888 62.3040418,135.268894 62.3040418,135.836946 C62.3040418,136.405835 62.3124078,136.876842 62.3299765,137.249966 C62.3458719,137.623927 62.3768261,137.930123 62.4220026,138.170227 C62.4663425,138.409495 62.5249046,138.604424 62.5976889,138.755012 C62.6696366,138.9056 62.7608261,139.042803 62.8737673,139.164946" id="Fill-6" fill="#000000"></path>
            <path d="M53.389302,103.988455 C53.5122824,104.929631 53.6821124,105.755357 53.8987922,106.463958 C54.1137987,107.175069 54.3915503,107.730573 54.7312105,108.131305 C55.1628967,108.593945 55.602949,108.948664 56.0513673,109.195461 C56.4981124,109.443095 56.8444654,109.566076 57.0920993,109.566076 L57.4627137,109.566076 C58.295132,109.566076 59.0363608,109.102599 59.6838902,108.177318 C59.9616418,107.776586 60.1933804,107.212716 60.3782693,106.487383 C60.5631582,105.763723 60.7095634,104.929631 60.8183216,103.988455 C60.9262431,103.047278 60.995681,102.021605 61.0266353,100.910599 C61.0567529,99.7995922 61.0726484,98.6425725 61.0726484,97.4387033 C61.0726484,96.2356706 61.0492235,95.078651 61.0040471,93.9676444 C60.9571974,92.8566379 60.8793935,91.8318013 60.7714719,90.8897882 C60.6627137,89.9486118 60.5012497,89.1237229 60.2854065,88.4134484 C60.0695634,87.7040105 59.7918118,87.1644026 59.4529882,86.7937882 C58.773668,86.0533961 58.2566484,85.6217098 57.902766,85.4978928 C57.5472105,85.3749124 57.2769882,85.3130039 57.0920993,85.3130039 C56.9072105,85.3130039 56.6294588,85.3749124 56.2588444,85.4978928 C55.8882301,85.6217098 55.3795765,86.0533961 54.7312105,86.7937882 C54.3915503,87.1644026 54.1137987,87.7040105 53.8987922,88.4134484 C53.6821124,89.1237229 53.5122824,89.9486118 53.389302,90.8897882 C53.2663216,91.8318013 53.1885176,92.8566379 53.1584,93.9676444 C53.1274458,95.078651 53.1115503,96.2356706 53.1115503,97.4387033 C53.1115503,98.6425725 53.1274458,99.7995922 53.1584,100.910599 C53.1885176,102.021605 53.2663216,103.047278 53.389302,103.988455" id="Fill-8" fill="#000000"></path>
            <g id="Group-12" transform="translate(0.000000, 52.502588)">
                <mask id="mask-4" fill="white">
                    <use xlink:href="#path-3"></use>
                </mask>
                <g id="Clip-11"></g>
                <path d="M112.531409,51.2183216 C111.62035,52.9157856 110.51771,54.1648314 109.221814,54.967132 C108.233788,55.615498 107.393004,56.1090928 106.698625,56.4479163 C106.005082,56.7884131 105.357553,57.0427399 104.7552,57.2125699 C104.152847,57.3815634 103.552167,57.4819556 102.949814,57.5129098 C102.348298,57.5438641 101.631331,57.5597595 100.798076,57.5597595 L100.335435,57.5597595 C99.5021804,57.5597595 98.768481,57.5438641 98.1368471,57.5129098 C97.5035399,57.4819556 96.8635399,57.3815634 96.2160105,57.2125699 C95.5676444,57.0427399 94.8807948,56.7884131 94.156298,56.4479163 C93.4309647,56.1090928 92.5751216,55.615498 91.587932,54.967132 C90.2912,54.1648314 89.1877229,52.9157856 88.2783373,51.2183216 C87.3672784,49.5216941 86.9130039,47.4695111 86.9130039,45.0626092 C86.9130039,44.7262954 86.9238797,44.4000209 86.9414484,44.0779294 C86.5214745,44.2159686 86.1257621,44.2887529 85.7551477,44.2887529 C84.6750954,44.2887529 83.9271739,43.9649882 83.5105464,43.3166222 C83.093919,42.6682562 82.8847686,41.7279163 82.8847686,40.4930928 C82.8847686,40.0614065 82.9391477,39.6372497 83.0479059,39.2206222 C83.1558275,38.8039948 83.2863373,38.425851 83.4419451,38.0870275 C83.5950431,37.7473673 83.733919,37.4470275 83.8577359,37.1843346 C83.9807163,36.9224784 84.0426248,36.7141647 84.0426248,36.5593935 C84.0426248,35.7261386 83.8259451,35.3095111 83.3950954,35.3095111 C82.7776837,35.3095111 82.2840889,35.5722039 81.9134745,36.0959163 L81.4968471,36.6982693 C81.1571869,37.1609098 80.9488732,38.0016941 80.8719059,39.2206222 C80.7949386,40.4395503 80.7572915,41.881851 80.7572915,43.5483608 L80.7572915,57.0168052 L84.2275137,57.0168052 L84.2275137,57.3874196 L68.1672784,57.3874196 L68.1672784,57.0168052 L71.6851869,57.0168052 L71.6851869,33.8278902 L68.1672784,33.8278902 L68.1672784,33.4581124 C69.030651,33.4581124 70.0563242,33.4430536 71.2451346,33.4120993 C72.4322719,33.3819817 73.6286118,33.3276026 74.8316444,33.2497987 C76.0355137,33.1728314 77.1615791,33.0732758 78.2115137,32.9494588 C79.2589386,32.8264784 80.1089255,32.6717072 80.7572915,32.4859817 L80.7572915,37.5775373 C80.8493176,37.269668 80.9714614,36.9609621 81.1270693,36.6514196 C81.2810039,36.3435503 81.4817882,36.0499033 81.7285856,35.7721516 L81.9134745,35.6332758 C82.5919582,34.9857464 83.1867817,34.5540601 83.6954353,34.3373804 C84.2049255,34.1215373 84.7211085,34.0136157 85.2464941,34.0136157 C85.6463895,34.0136157 86.1408209,34.0679948 86.7272784,34.1750797 C87.3128993,34.2838379 87.8692392,34.5072105 88.3929516,34.8468706 C88.9175007,35.1865307 89.365919,35.6801255 89.7356967,36.3276549 C89.7892392,36.4213542 89.8302327,36.5284392 89.8762458,36.6305046 C90.4041412,36.0457203 90.9730301,35.5521255 91.587932,35.1572497 C92.5751216,34.5097203 93.4225987,34.0161255 94.1328732,33.6764654 C94.8423111,33.3368052 95.4990431,33.0824784 96.0997229,32.9126484 C96.7020758,32.7436549 97.3035922,32.6432627 97.9051085,32.6114719 C98.5066248,32.5813542 99.2244288,32.5654588 100.057684,32.5654588 L100.798076,32.5654588 C101.631331,32.5654588 102.348298,32.5813542 102.949814,32.6114719 C103.552167,32.6432627 104.152847,32.7436549 104.7552,32.9126484 C105.357553,33.0824784 106.005082,33.3368052 106.698625,33.6764654 C107.393004,34.0161255 108.233788,34.5097203 109.221814,35.1572497 C110.51771,35.9905046 111.62035,37.2487529 112.531409,38.9303216 C113.440795,40.6118902 113.896742,42.6557072 113.896742,45.0626092 C113.896742,47.4695111 113.440795,49.5216941 112.531409,51.2183216 Z M14.8623895,66.5097203 L113.091932,66.5097203 L113.091932,66.0236549 L14.8623895,66.0236549 L14.8623895,66.5097203 Z M91.6172131,89.2878641 L88.5577621,83.870034 L87.0192523,85.7097203 L87.0192523,89.2878641 L84.6951739,89.2878641 L84.6951739,77.3813542 L87.0192523,77.3813542 L87.0192523,82.5657725 L91.2156444,77.3813542 L94.0416837,77.3813542 L90.0962719,82.1140078 L94.3269647,89.2878641 L91.6172131,89.2878641 Z M86.566651,104.025433 L89.0580497,104.025433 L89.0580497,101.550766 L86.566651,101.550766 L86.566651,104.025433 Z M84.6274092,94.1936941 L79.1091869,94.1936941 L79.1091869,97.1192889 L83.8083765,97.1192889 L83.8083765,99.1932235 L79.1091869,99.1932235 L79.1091869,104.025433 L76.7851085,104.025433 L76.7851085,92.1197595 L84.6274092,92.1197595 L84.6274092,94.1936941 Z M74.8458667,89.0619817 C74.3330301,88.8444654 73.8703895,88.5349229 73.4579451,88.1333542 C73.1576052,87.8330144 72.9258667,87.5209621 72.7644026,87.1971974 C72.602102,86.8742693 72.4858144,86.5203869 72.4130301,86.1355503 C72.3402458,85.7507137 72.2959059,85.3299033 72.2791739,84.873119 C72.2624418,84.4163346 72.2532392,83.903498 72.2532392,83.3346092 C72.2532392,82.7657203 72.2624418,82.2537203 72.2791739,81.7960993 C72.2959059,81.339315 72.3402458,80.9185046 72.4130301,80.533668 C72.4858144,80.149668 72.602102,79.7957856 72.7644026,79.4720209 C72.9258667,79.1490928 73.1576052,78.8362039 73.4579451,78.5358641 C73.8703895,78.1342954 74.3330301,77.8247529 74.8458667,77.6072366 C75.3587033,77.3905569 75.9602196,77.2817987 76.6512523,77.2817987 C77.7664418,77.2817987 78.7168209,77.5963608 79.5032261,78.2263216 C80.2887948,78.8562824 80.7924288,79.7957856 81.0166379,81.0439948 L78.6415268,81.0439948 C78.519383,80.5529098 78.3010301,80.149668 77.9898144,79.8317595 C77.6769255,79.513851 77.2318536,79.3548967 76.6512523,79.3548967 C76.3291608,79.3548967 76.0413699,79.410949 75.7912261,79.522217 C75.5402458,79.633485 75.3310954,79.7849098 75.1637752,79.9739817 C75.0516706,80.0969621 74.960481,80.2358379 74.8876967,80.3922824 C74.8149124,80.5478902 74.7571869,80.7486745 74.7120105,80.9937987 C74.666834,81.2389229 74.6333699,81.5484654 74.6124549,81.9215895 C74.5890301,82.2955503 74.5789908,82.7657203 74.5789908,83.3346092 C74.5789908,83.903498 74.5890301,84.3745046 74.6124549,84.7476288 C74.6333699,85.1215895 74.666834,85.431132 74.7120105,85.6762562 C74.7571869,85.9205438 74.8149124,86.1221647 74.8876967,86.2777725 C74.960481,86.434217 75.0516706,86.5730928 75.1637752,86.6952366 C75.3310954,86.8851451 75.5402458,87.0357333 75.7912261,87.1470013 C76.0413699,87.2591059 76.3291608,87.3143216 76.6512523,87.3143216 C77.2318536,87.3143216 77.6802719,87.1562039 77.9981804,86.8382954 C78.3160889,86.5203869 78.5352784,86.1163085 78.6582588,85.6252235 L81.0166379,85.6252235 C80.7924288,86.8742693 80.2887948,87.8137725 79.5032261,88.4428967 C78.7168209,89.0736941 77.7664418,89.3882562 76.6512523,89.3882562 C75.9602196,89.3882562 75.3587033,89.279498 74.8458667,89.0619817 Z M70.0805856,94.1936941 L64.5615268,94.1936941 L64.5615268,97.1192889 L69.2607163,97.1192889 L69.2607163,99.1932235 L64.5615268,99.1932235 L64.5615268,104.025433 L62.238285,104.025433 L62.238285,92.1197595 L70.0805856,92.1197595 L70.0805856,94.1936941 Z M60.4906248,87.1971974 C60.3283242,86.8742693 60.2120366,86.5203869 60.1392523,86.1355503 C60.066468,85.7507137 60.0221281,85.3299033 60.0053961,84.873119 C59.9886641,84.4163346 59.980298,83.903498 59.980298,83.3346092 C59.980298,82.7657203 59.9886641,82.2537203 60.0053961,81.7960993 C60.0221281,81.339315 60.066468,80.9185046 60.1392523,80.533668 C60.2120366,80.149668 60.3283242,79.7957856 60.4906248,79.4720209 C60.6520889,79.1490928 60.8838275,78.8362039 61.1841673,78.5358641 C61.5857359,78.1342954 62.0450301,77.8247529 62.5628863,77.6072366 C63.0824157,77.3905569 63.6864418,77.2817987 64.3774745,77.2817987 C65.0693438,77.2817987 65.6708601,77.3905569 66.1845333,77.6072366 C66.6965333,77.8247529 67.1541542,78.1342954 67.5548863,78.5358641 C67.8568993,78.8362039 68.0878013,79.1490928 68.2492654,79.4720209 C68.4107294,79.7957856 68.5303634,80.149668 68.6081673,80.533668 C68.6868078,80.9185046 68.7336575,81.339315 68.7512261,81.7960993 C68.7671216,82.2537203 68.7754876,82.7657203 68.7754876,83.3346092 C68.7754876,83.903498 68.7671216,84.4163346 68.7512261,84.873119 C68.7336575,85.3299033 68.6868078,85.7507137 68.6081673,86.1355503 C68.5303634,86.5203869 68.4107294,86.8742693 68.2492654,87.1971974 C68.0878013,87.5209621 67.8568993,87.8330144 67.5548863,88.1333542 C67.1541542,88.5349229 66.6965333,88.8444654 66.1845333,89.0619817 C65.6708601,89.279498 65.0693438,89.3882562 64.3774745,89.3882562 C63.6864418,89.3882562 63.0824157,89.279498 62.5628863,89.0619817 C62.0450301,88.8444654 61.5857359,88.5349229 61.1841673,88.1333542 C60.8838275,87.8330144 60.6520889,87.5209621 60.4906248,87.1971974 Z M58.5421804,94.1936941 L53.0239582,94.1936941 L53.0239582,97.1192889 L57.7223111,97.1192889 L57.7223111,99.1932235 L53.0239582,99.1932235 L53.0239582,104.025433 L50.6998797,104.025433 L50.6998797,92.1197595 L58.5421804,92.1197595 L58.5421804,94.1936941 Z M49.1446379,89.2878641 L46.8205595,89.2878641 L46.8205595,77.3813542 L48.8944941,77.3813542 L53.6087425,84.6723346 L53.6087425,77.3813542 L55.9336575,77.3813542 L55.9336575,89.2878641 L53.8597229,89.2878641 L49.1446379,81.9801516 L49.1446379,89.2878641 Z M46.6281412,99.6115242 C46.6105725,100.068308 46.5637229,100.489119 46.485919,100.873956 C46.4072784,101.257956 46.2876444,101.611838 46.127017,101.935603 C45.9647163,102.258531 45.7329778,102.570583 45.4326379,102.871759 C45.0302327,103.273328 44.574285,103.582871 44.0614484,103.79955 C43.5486118,104.017067 42.9454222,104.125825 42.2552261,104.125825 C41.5633569,104.125825 40.9593307,104.017067 40.4406379,103.79955 C39.9227817,103.582871 39.462651,103.273328 39.061919,102.871759 C38.7599059,102.570583 38.5290039,102.258531 38.3675399,101.935603 C38.2052392,101.611838 38.0889516,101.257956 38.0170039,100.873956 C37.943383,100.489119 37.8990431,100.068308 37.8823111,99.6115242 C37.8655791,99.1539033 37.8572131,98.6410667 37.8572131,98.0721778 C37.8572131,97.5041255 37.8655791,96.9912889 37.8823111,96.5345046 C37.8990431,96.0777203 37.943383,95.6560732 38.0170039,95.2720732 C38.0889516,94.8872366 38.2052392,94.5333542 38.3675399,94.2095895 C38.5290039,93.8866614 38.7599059,93.5746092 39.061919,93.2742693 C39.462651,92.8727007 39.9227817,92.5631582 40.4406379,92.3456418 C40.9593307,92.1281255 41.5633569,92.0193673 42.2552261,92.0193673 C42.9454222,92.0193673 43.5486118,92.1281255 44.0614484,92.3456418 C44.574285,92.5631582 45.0302327,92.8727007 45.4326379,93.2742693 C45.7329778,93.5746092 45.9647163,93.8866614 46.127017,94.2095895 C46.2876444,94.5333542 46.4072784,94.8872366 46.485919,95.2720732 C46.5637229,95.6560732 46.6105725,96.0777203 46.6281412,96.5345046 C46.6448732,96.9912889 46.6532392,97.5041255 46.6532392,98.0721778 C46.6532392,98.6410667 46.6448732,99.1539033 46.6281412,99.6115242 Z M36.3521673,89.2878641 L34.0280889,89.2878641 L34.0280889,77.3813542 L36.3521673,77.3813542 L36.3521673,82.5657725 L40.5493961,77.3813542 L43.3754353,77.3813542 L39.4291869,82.1140078 L43.6607163,89.2878641 L40.9501281,89.2878641 L37.8906771,83.870034 L36.3521673,85.7097203 L36.3521673,89.2878641 Z M14.0584157,32.8691451 L14.0584157,32.4993673 C14.9217882,32.4993673 15.9708863,32.4834719 17.2057098,32.4525176 C18.4388601,32.4224 19.6736837,32.3680209 20.9076706,32.2910536 C22.1416575,32.2140863 23.3070431,32.1136941 24.4021542,31.9898771 C25.4972654,31.8668967 26.3690039,31.7121255 27.0165333,31.5272366 L27.0165333,35.0443085 C27.2633307,34.5205961 27.5260235,34.0880732 27.8037752,33.7484131 C28.0815268,33.4095895 28.4513046,33.070766 28.9147817,32.7302693 C29.6551739,32.1136941 30.4332131,31.6661124 31.2514092,31.3883608 C32.0687686,31.1106092 32.9405072,30.9717333 33.8666248,30.9717333 C34.7919059,30.9717333 35.7790954,31.0495373 36.8281935,31.2034719 C37.8772915,31.3582431 38.8025725,31.6970667 39.6048732,32.2216157 C40.4071739,32.7461647 41.023749,33.4706614 41.4562719,34.3967791 C41.6110431,34.7364392 41.7415529,35.0836288 41.8503111,35.4383477 C41.9582327,35.7930667 42.0117752,36.155315 42.0117752,36.5259294 L42.0117752,50.1315765 C42.0117752,51.9528575 42.2200889,53.3951582 42.6367163,54.459315 C43.0533438,55.5234719 43.7711477,56.0555503 44.7884549,56.0555503 L44.7884549,56.4261647 L41.4596183,56.4261647 L40.7158797,56.4261647 L32.0252654,56.4261647 L32.0252654,56.0555503 L32.5297359,56.0555503 L32.5297359,35.9369621 C32.4962719,35.5630013 32.4460758,35.1882039 32.3624157,34.8134065 C32.2235399,34.1959948 31.9842719,33.6563869 31.6446118,33.1937464 C31.4597229,32.9779033 31.2204549,32.8306614 30.9276444,32.7536941 C30.6339974,32.6767268 30.3495529,32.6382431 30.0718013,32.6382431 C29.7940497,32.6382431 29.5313569,32.7235765 29.2845595,32.8925699 C29.0369255,33.0624 28.8060235,33.2707137 28.5901804,33.5175111 C28.3124288,33.7952627 28.0815268,34.1809359 27.8958013,34.6745307 C27.7109124,35.1681255 27.5494484,35.7002039 27.4105725,36.270766 C27.2716967,36.8421647 27.1713046,37.4043608 27.1093961,37.9598641 C27.046651,38.5153673 27.0165333,38.9788444 27.0165333,39.3486222 L27.0165333,56.0555503 L27.0165333,56.4261647 L14.1052654,56.4261647 L14.1052654,56.0555503 L17.5754876,56.0555503 L17.5754876,32.8691451 L14.0584157,32.8691451 Z M40.1059974,28.5305307 L43.5770562,28.5305307 C44.7181804,28.4694588 45.8141281,28.3916549 46.8632261,28.2987922 C47.7575529,28.2377203 48.6912,28.1448575 49.6641673,28.0210405 C50.6354614,27.8988967 51.4452915,27.7432889 52.0936575,27.5584 L52.0936575,33.0138771 C52.3212131,32.9318902 52.5504418,32.8473935 52.7646118,32.7871582 C53.3661281,32.6181647 53.9676444,32.5169359 54.5699974,32.4859817 C55.1715137,32.4558641 55.888481,32.4399686 56.7217359,32.4399686 L57.4629647,32.4399686 C58.295383,32.4399686 59.0123503,32.4558641 59.6147033,32.4859817 C60.2162196,32.5169359 60.8185725,32.6181647 61.4192523,32.7871582 C62.0216052,32.9569882 62.6691346,33.211315 63.3635137,33.5509752 C64.0587294,33.8906353 64.8978405,34.3833935 65.8858667,35.0317595 C67.1817621,35.8650144 68.2852392,37.1224261 69.1954614,38.8039948 C70.1056837,40.4855634 70.5607948,42.5293804 70.5607948,44.9362824 C70.5607948,47.3431843 70.1056837,49.3962039 69.1954614,51.0928314 C68.2852392,52.7894588 67.1817621,54.0393412 65.8858667,54.8416418 C64.8978405,55.4891712 64.0587294,55.9836026 63.3635137,56.3224261 C62.6691346,56.6620863 62.0216052,56.9172497 61.4192523,57.0862431 C60.8185725,57.2552366 60.2162196,57.3556288 59.6147033,57.3874196 C59.0123503,57.4175373 58.295383,57.4334327 57.4629647,57.4334327 L56.9994876,57.4334327 C56.1662327,57.4334327 55.4333699,57.4175373 54.8008993,57.3874196 C54.1675922,57.3556288 53.5284288,57.2552366 52.8800627,57.0862431 C52.2325333,56.9172497 51.5456837,56.6620863 50.8203503,56.3224261 C50.095017,55.9836026 49.2391739,55.4891712 48.2519843,54.8416418 C46.9560889,54.0393412 45.8526118,52.7894588 44.9423895,51.0928314 C44.0321673,49.3962039 43.5770562,47.3431843 43.5770562,44.9362824 L43.5770562,28.9011451 L40.1059974,28.9011451 L40.1059974,28.5305307 Z M121.862024,0.789667974 L118.713893,0.789667974 L115.292193,10.8397595 C115.154991,11.2413281 114.777684,11.5123869 114.35269,11.5123869 L14.8431477,11.5123869 C14.4281935,11.5123869 14.0575791,11.2538771 13.9128471,10.8648575 L10.1765856,0.789667974 L6.09229804,0.789667974 L0.000167320261,0.789667974 L0.000167320261,52.8170667 C0.000167320261,117.302295 64.0729516,116.286661 64.0729516,116.286661 C64.0729516,116.286661 127.954991,117.302295 127.954991,52.8170667 L127.954991,0.789667974 L121.862024,0.789667974 Z" id="Fill-10" fill="#000000" mask="url(#mask-4)"></path>
            </g>
            <path d="M104.10742,91.0158641 C103.998661,90.0746876 103.837197,89.2497987 103.621354,88.5395242 C103.405511,87.8300863 103.127759,87.2896418 102.788099,86.9198641 C102.108779,86.1794719 101.591759,85.7477856 101.237877,85.6239686 C100.883158,85.5009882 100.612936,85.4382431 100.428047,85.4382431 C100.243158,85.4382431 99.9645699,85.5009882 99.5939556,85.6239686 C99.2241778,85.7477856 98.7155242,86.1794719 98.0671582,86.9198641 C97.727498,87.2896418 97.4497464,87.8300863 97.2339033,88.5395242 C97.0172235,89.2497987 96.8482301,90.0746876 96.7252497,91.0158641 C96.6014327,91.9570405 96.5244654,92.9827137 96.4935111,94.0937203 C96.4625569,95.2047268 96.447498,96.3617464 96.447498,97.5647791 C96.447498,98.7686484 96.4625569,99.925668 96.4935111,101.036675 C96.5244654,102.147681 96.6014327,103.173354 96.7252497,104.114531 C96.8482301,105.055707 97.0172235,105.881433 97.2339033,106.590034 C97.4497464,107.300308 97.727498,107.855812 98.0671582,108.256544 C98.4988444,108.720021 98.9388967,109.07474 99.3856418,109.321537 C99.8332235,109.568335 100.180413,109.691315 100.428047,109.691315 L100.797825,109.691315 C101.63108,109.691315 102.372308,109.228675 103.019838,108.303393 C103.29759,107.902661 103.529328,107.338792 103.71338,106.613459 C103.899106,105.888962 104.045511,105.055707 104.153433,104.114531 C104.262191,103.173354 104.331629,102.147681 104.362583,101.036675 C104.391864,99.925668 104.407759,98.7686484 104.407759,97.5647791 C104.407759,96.3617464 104.385171,95.2047268 104.338322,94.0937203 C104.292308,92.9827137 104.215341,91.9570405 104.10742,91.0158641" id="Fill-13" fill="#000000"></path>
        </g>
    </g>
</svg>